G04*
G04 #@! TF.GenerationSoftware,Altium Limited,Altium Designer,23.0.1 (38)*
G04*
G04 Layer_Color=32896*
%FSLAX44Y44*%
%MOMM*%
G71*
G04*
G04 #@! TF.SameCoordinates,7A5085C4-4797-47AF-811B-807956FF0137*
G04*
G04*
G04 #@! TF.FilePolarity,Positive*
G04*
G01*
G75*
G36*
X53586Y393355D02*
X53704Y393181D01*
X53839Y393014D01*
X53974Y392872D01*
X54093Y392737D01*
X54148Y392689D01*
X54188Y392642D01*
X54227Y392602D01*
X54259Y392578D01*
X54275Y392562D01*
X54283Y392555D01*
X54497Y392372D01*
X54727Y392214D01*
X54949Y392063D01*
X55155Y391936D01*
X55242Y391889D01*
X55329Y391841D01*
X55408Y391794D01*
X55472Y391762D01*
X55527Y391738D01*
X55567Y391715D01*
X55590Y391707D01*
X55598Y391699D01*
Y390835D01*
X55440Y390898D01*
X55273Y390970D01*
X55115Y391049D01*
X54972Y391120D01*
X54845Y391191D01*
X54790Y391215D01*
X54742Y391247D01*
X54703Y391263D01*
X54679Y391279D01*
X54663Y391295D01*
X54655D01*
X54465Y391413D01*
X54299Y391524D01*
X54148Y391627D01*
X54029Y391722D01*
X53926Y391802D01*
X53855Y391857D01*
X53815Y391897D01*
X53799Y391913D01*
Y386199D01*
X52904D01*
Y393537D01*
X53482D01*
X53586Y393355D01*
D02*
G37*
G36*
X110945Y386199D02*
X109978D01*
Y389646D01*
X106182D01*
Y386199D01*
X105216D01*
Y393513D01*
X106182D01*
Y390510D01*
X109978D01*
Y393513D01*
X110945D01*
Y386199D01*
D02*
G37*
G36*
X94422Y388394D02*
X91656D01*
Y389297D01*
X94422D01*
Y388394D01*
D02*
G37*
G36*
X137699Y386199D02*
X136764D01*
Y392428D01*
X134656Y386199D01*
X133784D01*
X131645Y392325D01*
Y386199D01*
X130710D01*
Y393513D01*
X132017D01*
X133777Y388426D01*
X133824Y388283D01*
X133872Y388156D01*
X133911Y388030D01*
X133951Y387919D01*
X133983Y387808D01*
X134014Y387713D01*
X134046Y387625D01*
X134070Y387546D01*
X134094Y387483D01*
X134109Y387419D01*
X134125Y387372D01*
X134141Y387324D01*
X134149Y387293D01*
X134157Y387269D01*
X134165Y387261D01*
Y387253D01*
X134189Y387324D01*
X134212Y387403D01*
X134268Y387570D01*
X134323Y387752D01*
X134379Y387926D01*
X134434Y388085D01*
X134458Y388156D01*
X134474Y388212D01*
X134490Y388259D01*
X134506Y388299D01*
X134514Y388323D01*
Y388331D01*
X136249Y393513D01*
X137699D01*
Y386199D01*
D02*
G37*
G36*
X87749D02*
X86814D01*
Y392428D01*
X84706Y386199D01*
X83834D01*
X81695Y392325D01*
Y386199D01*
X80760D01*
Y393513D01*
X82067D01*
X83827Y388426D01*
X83874Y388283D01*
X83922Y388156D01*
X83961Y388030D01*
X84001Y387919D01*
X84032Y387808D01*
X84064Y387713D01*
X84096Y387625D01*
X84120Y387546D01*
X84143Y387483D01*
X84159Y387419D01*
X84175Y387372D01*
X84191Y387324D01*
X84199Y387293D01*
X84207Y387269D01*
X84215Y387261D01*
Y387253D01*
X84239Y387324D01*
X84262Y387403D01*
X84318Y387570D01*
X84373Y387752D01*
X84429Y387926D01*
X84484Y388085D01*
X84508Y388156D01*
X84524Y388212D01*
X84540Y388259D01*
X84556Y388299D01*
X84564Y388323D01*
Y388331D01*
X86299Y393513D01*
X87749D01*
Y386199D01*
D02*
G37*
G36*
X60647D02*
X59648D01*
X56795Y393513D01*
X57778D01*
X59751Y388196D01*
X59830Y387974D01*
X59910Y387760D01*
X59981Y387554D01*
X60036Y387372D01*
X60060Y387293D01*
X60084Y387221D01*
X60100Y387158D01*
X60115Y387102D01*
X60131Y387063D01*
X60139Y387023D01*
X60147Y387007D01*
Y386999D01*
X60211Y387213D01*
X60274Y387427D01*
X60337Y387625D01*
X60393Y387808D01*
X60425Y387895D01*
X60448Y387966D01*
X60472Y388030D01*
X60488Y388085D01*
X60504Y388133D01*
X60520Y388164D01*
X60528Y388188D01*
Y388196D01*
X62429Y393513D01*
X63484D01*
X60647Y386199D01*
D02*
G37*
G36*
X147320D02*
X146353D01*
Y389171D01*
X144483D01*
X144198Y389179D01*
X143944Y389202D01*
X143706Y389234D01*
X143484Y389274D01*
X143294Y389321D01*
X143112Y389377D01*
X142961Y389432D01*
X142819Y389496D01*
X142700Y389551D01*
X142597Y389607D01*
X142510Y389662D01*
X142446Y389710D01*
X142391Y389757D01*
X142359Y389789D01*
X142335Y389805D01*
X142327Y389813D01*
X142224Y389939D01*
X142129Y390066D01*
X142050Y390201D01*
X141987Y390336D01*
X141923Y390470D01*
X141876Y390597D01*
X141836Y390724D01*
X141804Y390843D01*
X141781Y390962D01*
X141765Y391065D01*
X141749Y391152D01*
X141741Y391231D01*
X141733Y391302D01*
Y391350D01*
Y391382D01*
Y391390D01*
X141741Y391588D01*
X141765Y391778D01*
X141804Y391944D01*
X141844Y392095D01*
X141891Y392214D01*
X141907Y392269D01*
X141923Y392309D01*
X141939Y392341D01*
X141955Y392364D01*
X141963Y392380D01*
Y392388D01*
X142050Y392555D01*
X142145Y392689D01*
X142248Y392816D01*
X142335Y392911D01*
X142423Y392990D01*
X142486Y393046D01*
X142533Y393086D01*
X142541Y393093D01*
X142549D01*
X142692Y393181D01*
X142843Y393252D01*
X142993Y393315D01*
X143136Y393363D01*
X143263Y393402D01*
X143318Y393410D01*
X143365Y393426D01*
X143397Y393434D01*
X143429D01*
X143445Y393442D01*
X143453D01*
X143524Y393458D01*
X143611Y393466D01*
X143785Y393482D01*
X143968Y393498D01*
X144150Y393506D01*
X144309Y393513D01*
X147320D01*
Y386199D01*
D02*
G37*
G36*
X140362D02*
X139340D01*
Y387221D01*
X140362D01*
Y386199D01*
D02*
G37*
G36*
X128990D02*
X128023D01*
Y393513D01*
X128990D01*
Y386199D01*
D02*
G37*
G36*
X127112D02*
X126089D01*
X125297Y388410D01*
X122222D01*
X121374Y386199D01*
X120273D01*
X123268Y393513D01*
X124314D01*
X127112Y386199D01*
D02*
G37*
G36*
X119338D02*
X118371D01*
Y393513D01*
X119338D01*
Y386199D01*
D02*
G37*
G36*
X116706D02*
X112134D01*
Y387063D01*
X115740D01*
Y393513D01*
X116706D01*
Y386199D01*
D02*
G37*
G36*
X103583D02*
X98123D01*
Y387063D01*
X102616D01*
Y389551D01*
X98567D01*
Y390415D01*
X102616D01*
Y392650D01*
X98289D01*
Y393513D01*
X103583D01*
Y386199D01*
D02*
G37*
G36*
X72367D02*
X66907D01*
Y387063D01*
X71400D01*
Y389551D01*
X67351D01*
Y390415D01*
X71400D01*
Y392650D01*
X67073D01*
Y393513D01*
X72367D01*
Y386199D01*
D02*
G37*
G36*
X76948Y393632D02*
X77201Y393601D01*
X77423Y393561D01*
X77526Y393537D01*
X77621Y393513D01*
X77709Y393490D01*
X77788Y393466D01*
X77859Y393442D01*
X77915Y393426D01*
X77954Y393410D01*
X77994Y393395D01*
X78010Y393387D01*
X78018D01*
X78232Y393284D01*
X78414Y393165D01*
X78572Y393046D01*
X78699Y392927D01*
X78802Y392816D01*
X78881Y392729D01*
X78905Y392697D01*
X78921Y392673D01*
X78937Y392658D01*
Y392650D01*
X79040Y392467D01*
X79119Y392285D01*
X79167Y392119D01*
X79206Y391960D01*
X79230Y391818D01*
X79238Y391762D01*
Y391715D01*
X79246Y391675D01*
Y391643D01*
Y391627D01*
Y391619D01*
X79238Y391437D01*
X79206Y391263D01*
X79167Y391104D01*
X79119Y390970D01*
X79072Y390859D01*
X79032Y390771D01*
X79016Y390740D01*
X79000Y390716D01*
X78992Y390708D01*
Y390700D01*
X78889Y390558D01*
X78763Y390423D01*
X78636Y390312D01*
X78501Y390209D01*
X78390Y390130D01*
X78295Y390074D01*
X78255Y390058D01*
X78232Y390042D01*
X78216Y390027D01*
X78208D01*
X78129Y389987D01*
X78033Y389947D01*
X77930Y389908D01*
X77819Y389868D01*
X77590Y389789D01*
X77352Y389717D01*
X77241Y389686D01*
X77146Y389654D01*
X77051Y389630D01*
X76964Y389607D01*
X76900Y389591D01*
X76845Y389575D01*
X76813Y389567D01*
X76805D01*
X76623Y389527D01*
X76456Y389480D01*
X76314Y389448D01*
X76179Y389408D01*
X76060Y389377D01*
X75949Y389353D01*
X75862Y389321D01*
X75775Y389297D01*
X75711Y389282D01*
X75648Y389258D01*
X75601Y389242D01*
X75569Y389234D01*
X75537Y389226D01*
X75521Y389218D01*
X75505Y389210D01*
X75347Y389139D01*
X75212Y389068D01*
X75093Y388996D01*
X75006Y388933D01*
X74935Y388870D01*
X74887Y388822D01*
X74856Y388790D01*
X74848Y388782D01*
X74776Y388687D01*
X74729Y388584D01*
X74689Y388481D01*
X74665Y388386D01*
X74650Y388307D01*
X74642Y388236D01*
Y388196D01*
Y388188D01*
Y388180D01*
X74650Y388061D01*
X74673Y387942D01*
X74713Y387839D01*
X74745Y387744D01*
X74784Y387665D01*
X74824Y387602D01*
X74848Y387570D01*
X74856Y387554D01*
X74943Y387451D01*
X75038Y387364D01*
X75149Y387285D01*
X75252Y387221D01*
X75347Y387174D01*
X75418Y387134D01*
X75450Y387118D01*
X75474Y387110D01*
X75482Y387102D01*
X75490D01*
X75648Y387047D01*
X75814Y387007D01*
X75981Y386983D01*
X76132Y386968D01*
X76258Y386952D01*
X76314D01*
X76361Y386944D01*
X76456D01*
X76686Y386952D01*
X76892Y386976D01*
X77090Y387015D01*
X77257Y387055D01*
X77328Y387071D01*
X77392Y387086D01*
X77447Y387110D01*
X77495Y387126D01*
X77534Y387142D01*
X77558Y387150D01*
X77574Y387158D01*
X77582D01*
X77756Y387245D01*
X77907Y387340D01*
X78033Y387427D01*
X78137Y387522D01*
X78216Y387602D01*
X78271Y387665D01*
X78311Y387705D01*
X78319Y387720D01*
X78398Y387863D01*
X78461Y388014D01*
X78509Y388164D01*
X78549Y388307D01*
X78580Y388442D01*
X78588Y388489D01*
X78596Y388537D01*
X78604Y388576D01*
X78612Y388608D01*
Y388624D01*
Y388632D01*
X79523Y388553D01*
X79515Y388418D01*
X79500Y388283D01*
X79452Y388037D01*
X79389Y387808D01*
X79357Y387705D01*
X79317Y387617D01*
X79286Y387530D01*
X79246Y387451D01*
X79214Y387388D01*
X79183Y387332D01*
X79159Y387285D01*
X79143Y387253D01*
X79135Y387237D01*
X79127Y387229D01*
X78976Y387023D01*
X78802Y386849D01*
X78628Y386698D01*
X78461Y386579D01*
X78311Y386484D01*
X78247Y386452D01*
X78192Y386421D01*
X78144Y386397D01*
X78113Y386381D01*
X78089Y386365D01*
X78081D01*
X77812Y386270D01*
X77534Y386199D01*
X77257Y386151D01*
X76995Y386120D01*
X76869Y386104D01*
X76758Y386096D01*
X76663Y386088D01*
X76575D01*
X76504Y386080D01*
X76409D01*
X76124Y386096D01*
X75862Y386128D01*
X75624Y386167D01*
X75513Y386199D01*
X75418Y386223D01*
X75323Y386246D01*
X75244Y386278D01*
X75173Y386302D01*
X75117Y386318D01*
X75070Y386342D01*
X75038Y386349D01*
X75014Y386365D01*
X75006D01*
X74784Y386484D01*
X74594Y386611D01*
X74428Y386746D01*
X74293Y386872D01*
X74182Y386991D01*
X74111Y387079D01*
X74079Y387118D01*
X74063Y387142D01*
X74047Y387158D01*
Y387166D01*
X73984Y387261D01*
X73936Y387364D01*
X73849Y387554D01*
X73786Y387736D01*
X73746Y387903D01*
X73722Y388053D01*
X73714Y388109D01*
Y388164D01*
X73706Y388204D01*
Y388236D01*
Y388251D01*
Y388259D01*
X73722Y388473D01*
X73754Y388671D01*
X73802Y388846D01*
X73857Y388996D01*
X73920Y389123D01*
X73944Y389179D01*
X73968Y389218D01*
X73984Y389250D01*
X74000Y389274D01*
X74016Y389290D01*
Y389297D01*
X74079Y389377D01*
X74142Y389456D01*
X74293Y389607D01*
X74443Y389733D01*
X74602Y389836D01*
X74737Y389924D01*
X74800Y389963D01*
X74856Y389987D01*
X74895Y390011D01*
X74927Y390027D01*
X74951Y390042D01*
X74959D01*
X75046Y390082D01*
X75157Y390122D01*
X75268Y390161D01*
X75395Y390201D01*
X75664Y390272D01*
X75933Y390344D01*
X76060Y390383D01*
X76179Y390407D01*
X76290Y390439D01*
X76385Y390454D01*
X76464Y390478D01*
X76520Y390494D01*
X76560Y390502D01*
X76575D01*
X76789Y390550D01*
X76979Y390605D01*
X77146Y390653D01*
X77304Y390700D01*
X77439Y390748D01*
X77558Y390787D01*
X77661Y390827D01*
X77748Y390867D01*
X77819Y390906D01*
X77883Y390938D01*
X77930Y390962D01*
X77970Y390985D01*
X78002Y391009D01*
X78018Y391025D01*
X78033Y391033D01*
X78129Y391136D01*
X78192Y391239D01*
X78239Y391350D01*
X78279Y391453D01*
X78295Y391540D01*
X78303Y391612D01*
X78311Y391659D01*
Y391667D01*
Y391675D01*
X78303Y391762D01*
X78295Y391841D01*
X78247Y391984D01*
X78184Y392119D01*
X78113Y392230D01*
X78041Y392325D01*
X77978Y392396D01*
X77930Y392436D01*
X77923Y392452D01*
X77915D01*
X77835Y392507D01*
X77740Y392562D01*
X77542Y392642D01*
X77336Y392697D01*
X77122Y392737D01*
X77027Y392753D01*
X76932Y392761D01*
X76853Y392769D01*
X76781D01*
X76718Y392776D01*
X76488D01*
X76346Y392761D01*
X76211Y392745D01*
X76084Y392721D01*
X75973Y392697D01*
X75870Y392665D01*
X75775Y392634D01*
X75688Y392602D01*
X75616Y392562D01*
X75553Y392531D01*
X75497Y392499D01*
X75450Y392475D01*
X75418Y392452D01*
X75387Y392436D01*
X75379Y392428D01*
X75371Y392420D01*
X75292Y392349D01*
X75220Y392277D01*
X75109Y392111D01*
X75014Y391936D01*
X74951Y391770D01*
X74903Y391619D01*
X74887Y391556D01*
X74872Y391493D01*
X74864Y391445D01*
Y391413D01*
X74856Y391390D01*
Y391382D01*
X73928Y391453D01*
X73952Y391691D01*
X74000Y391905D01*
X74055Y392103D01*
X74119Y392269D01*
X74158Y392341D01*
X74182Y392412D01*
X74214Y392467D01*
X74237Y392515D01*
X74261Y392555D01*
X74277Y392578D01*
X74285Y392594D01*
X74293Y392602D01*
X74428Y392784D01*
X74578Y392935D01*
X74737Y393070D01*
X74895Y393181D01*
X75030Y393260D01*
X75093Y393292D01*
X75141Y393323D01*
X75181Y393347D01*
X75220Y393355D01*
X75236Y393371D01*
X75244D01*
X75482Y393458D01*
X75727Y393529D01*
X75973Y393577D01*
X76195Y393609D01*
X76298Y393616D01*
X76385Y393624D01*
X76472Y393632D01*
X76544Y393640D01*
X76678D01*
X76948Y393632D01*
D02*
G37*
%LPC*%
G36*
X146353Y392650D02*
X144253D01*
X144158Y392642D01*
X144063D01*
X143984Y392634D01*
X143904Y392626D01*
X143841Y392618D01*
X143785D01*
X143690Y392602D01*
X143627Y392586D01*
X143587Y392578D01*
X143580D01*
X143445Y392531D01*
X143326Y392467D01*
X143223Y392396D01*
X143128Y392325D01*
X143064Y392261D01*
X143009Y392206D01*
X142977Y392166D01*
X142969Y392150D01*
X142890Y392024D01*
X142835Y391889D01*
X142787Y391762D01*
X142763Y391635D01*
X142747Y391532D01*
X142732Y391445D01*
Y391413D01*
Y391390D01*
Y391374D01*
Y391366D01*
X142739Y391247D01*
X142747Y391144D01*
X142795Y390946D01*
X142858Y390779D01*
X142930Y390637D01*
X143001Y390526D01*
X143064Y390447D01*
X143088Y390423D01*
X143112Y390399D01*
X143120Y390391D01*
X143128Y390383D01*
X143207Y390320D01*
X143302Y390272D01*
X143397Y390225D01*
X143500Y390185D01*
X143722Y390122D01*
X143944Y390082D01*
X144047Y390066D01*
X144150Y390050D01*
X144237Y390042D01*
X144317D01*
X144380Y390034D01*
X146353D01*
Y392650D01*
D02*
G37*
G36*
X123815Y392753D02*
X123744Y392515D01*
X123657Y392261D01*
X123569Y392008D01*
X123490Y391762D01*
X123450Y391651D01*
X123411Y391548D01*
X123379Y391453D01*
X123348Y391382D01*
X123324Y391310D01*
X123308Y391263D01*
X123292Y391231D01*
Y391223D01*
X122523Y389194D01*
X125020D01*
X124211Y391342D01*
X124124Y391604D01*
X124045Y391857D01*
X123974Y392095D01*
X123942Y392206D01*
X123918Y392309D01*
X123894Y392404D01*
X123870Y392491D01*
X123855Y392562D01*
X123839Y392634D01*
X123831Y392681D01*
X123823Y392721D01*
X123815Y392745D01*
Y392753D01*
D02*
G37*
%LPD*%
M02*
