G04*
G04 #@! TF.GenerationSoftware,Altium Limited,Altium Designer,23.0.1 (38)*
G04*
G04 Layer_Color=128*
%FSLAX44Y44*%
%MOMM*%
G71*
G04*
G04 #@! TF.SameCoordinates,BC9D6512-4978-4A19-9F96-E8A3AF7CD3FB*
G04*
G04*
G04 #@! TF.FilePolarity,Positive*
G04*
G01*
G75*
%ADD12C,0.1270*%
D12*
X155090Y131600D02*
X165290D01*
X160190Y126500D02*
Y136700D01*
X185090Y131600D02*
X195290D01*
X190190Y126500D02*
Y136700D01*
X215090Y131600D02*
X225290D01*
X220190Y126500D02*
Y136700D01*
X245090Y131600D02*
X255290D01*
X250190Y126500D02*
Y136700D01*
X155090Y101600D02*
X165290D01*
X160190Y96500D02*
Y106700D01*
X185090Y101600D02*
X195290D01*
X190190Y96500D02*
Y106700D01*
X215090Y101600D02*
X225290D01*
X220190Y96500D02*
Y106700D01*
X245090Y101600D02*
X255290D01*
X250190Y96500D02*
Y106700D01*
X216140Y58420D02*
X246140D01*
X231140Y43420D02*
Y73420D01*
X162800Y58420D02*
X192800D01*
X177800Y43420D02*
Y73420D01*
X139065Y478790D02*
X170815D01*
X154940Y462915D02*
Y494665D01*
X145020Y948430D02*
X175020D01*
X160020Y933430D02*
Y963430D01*
X139920Y905230D02*
X150120D01*
X145020Y900130D02*
Y910330D01*
X169920Y905230D02*
X180120D01*
X175020Y900130D02*
Y910330D01*
X139920Y875230D02*
X150120D01*
X145020Y870130D02*
Y880330D01*
X169920Y875230D02*
X180120D01*
X175020Y870130D02*
Y880330D01*
X374122Y101600D02*
X384322D01*
X379222Y96500D02*
Y106700D01*
X344122Y101600D02*
X354322D01*
X349222Y96500D02*
Y106700D01*
X334222Y58600D02*
X364222D01*
X349222Y43600D02*
Y73600D01*
X314122Y101600D02*
X324322D01*
X319222Y96500D02*
Y106700D01*
X374122Y131600D02*
X384322D01*
X379222Y126500D02*
Y136700D01*
X344122Y131600D02*
X354322D01*
X349222Y126500D02*
Y136700D01*
X314122Y131600D02*
X324322D01*
X319222Y126500D02*
Y136700D01*
X508500Y258700D02*
X519500D01*
X514000Y253200D02*
Y264200D01*
X508500Y284100D02*
X519500D01*
X514000Y278600D02*
Y289600D01*
X508500Y309500D02*
X519500D01*
X514000Y304000D02*
Y315000D01*
X508500Y334900D02*
X519500D01*
X514000Y329400D02*
Y340400D01*
X508500Y360300D02*
X519500D01*
X514000Y354800D02*
Y365800D01*
X508500Y411100D02*
X519500D01*
X514000Y405600D02*
Y416600D01*
X508500Y436500D02*
X519500D01*
X514000Y431000D02*
Y442000D01*
X508500Y538100D02*
X519500D01*
X514000Y532600D02*
Y543600D01*
X508500Y614300D02*
X519500D01*
X514000Y608800D02*
Y619800D01*
X508500Y665100D02*
X519500D01*
X514000Y659600D02*
Y670600D01*
X508500Y715900D02*
X519500D01*
X514000Y710400D02*
Y721400D01*
X508500Y741300D02*
X519500D01*
X514000Y735800D02*
Y746800D01*
X508500Y690500D02*
X519500D01*
X514000Y685000D02*
Y696000D01*
X508500Y639700D02*
X519500D01*
X514000Y634200D02*
Y645200D01*
X508500Y588900D02*
X519500D01*
X514000Y583400D02*
Y594400D01*
X508500Y563500D02*
X519500D01*
X514000Y558000D02*
Y569000D01*
X508500Y512700D02*
X519500D01*
X514000Y507200D02*
Y518200D01*
X508500Y487300D02*
X519500D01*
X514000Y481800D02*
Y492800D01*
X508500Y461900D02*
X519500D01*
X514000Y456400D02*
Y467400D01*
X508500Y385700D02*
X519500D01*
X514000Y380200D02*
Y391200D01*
X238800Y411100D02*
X249200D01*
X244000Y405900D02*
Y416300D01*
X238800Y538100D02*
X249200D01*
X244000Y532900D02*
Y543300D01*
X238800Y512700D02*
X249200D01*
X244000Y507500D02*
Y517900D01*
X163270Y731520D02*
X170270D01*
X166770Y728020D02*
Y735020D01*
X213270Y731520D02*
X220270D01*
X216770Y728020D02*
Y735020D01*
X434250Y731520D02*
X441250D01*
X437750Y728020D02*
Y735020D01*
X384250Y731520D02*
X391250D01*
X387750Y728020D02*
Y735020D01*
X359320Y731520D02*
X366320D01*
X362820Y728020D02*
Y735020D01*
X309320Y731520D02*
X316320D01*
X312820Y728020D02*
Y735020D01*
X458800Y741300D02*
X469200D01*
X464000Y736100D02*
Y746500D01*
X458800Y715900D02*
X469200D01*
X464000Y710700D02*
Y721100D01*
X458800Y690500D02*
X469200D01*
X464000Y685300D02*
Y695700D01*
X458800Y665100D02*
X469200D01*
X464000Y659900D02*
Y670300D01*
X458800Y639700D02*
X469200D01*
X464000Y634500D02*
Y644900D01*
X458800Y614300D02*
X469200D01*
X464000Y609100D02*
Y619500D01*
X458800Y588900D02*
X469200D01*
X464000Y583700D02*
Y594100D01*
X458800Y563500D02*
X469200D01*
X464000Y558300D02*
Y568700D01*
X458800Y538100D02*
X469200D01*
X464000Y532900D02*
Y543300D01*
X458800Y512700D02*
X469200D01*
X464000Y507500D02*
Y517900D01*
X458800Y487300D02*
X469200D01*
X464000Y482100D02*
Y492500D01*
X458800Y461900D02*
X469200D01*
X464000Y456700D02*
Y467100D01*
X458800Y436500D02*
X469200D01*
X464000Y431300D02*
Y441700D01*
X458800Y411100D02*
X469200D01*
X464000Y405900D02*
Y416300D01*
X458800Y385700D02*
X469200D01*
X464000Y380500D02*
Y390900D01*
X458800Y360300D02*
X469200D01*
X464000Y355100D02*
Y365500D01*
X458800Y334900D02*
X469200D01*
X464000Y329700D02*
Y340100D01*
X458800Y309500D02*
X469200D01*
X464000Y304300D02*
Y314700D01*
X458800Y284100D02*
X469200D01*
X464000Y278900D02*
Y289300D01*
X458800Y258700D02*
X469200D01*
X464000Y253500D02*
Y263900D01*
X139610Y731520D02*
X146610D01*
X143110Y728020D02*
Y735020D01*
X89610Y731520D02*
X96610D01*
X93110Y728020D02*
Y735020D01*
X175340Y685800D02*
X185340D01*
X180340Y680800D02*
Y690800D01*
X149940Y685800D02*
X159940D01*
X154940Y680800D02*
Y690800D01*
X124540Y685800D02*
X134540D01*
X129540Y680800D02*
Y690800D01*
X395050Y685800D02*
X405050D01*
X400050Y680800D02*
Y690800D01*
X369650Y685800D02*
X379650D01*
X374650Y680800D02*
Y690800D01*
X344250Y685800D02*
X354250D01*
X349250Y680800D02*
Y690800D01*
X291120Y879320D02*
X301320D01*
X296220Y874220D02*
Y884420D01*
X261120Y879320D02*
X271320D01*
X266220Y874220D02*
Y884420D01*
X231120Y879320D02*
X241320D01*
X236220Y874220D02*
Y884420D01*
X291120Y909320D02*
X301320D01*
X296220Y904220D02*
Y914420D01*
X251220Y952320D02*
X281220D01*
X266220Y937320D02*
Y967320D01*
X261120Y909320D02*
X271320D01*
X266220Y904220D02*
Y914420D01*
X231120Y909320D02*
X241320D01*
X236220Y904220D02*
Y914420D01*
X380740Y875230D02*
X390940D01*
X385840Y870130D02*
Y880330D01*
X350740Y875230D02*
X360940D01*
X355840Y870130D02*
Y880330D01*
X380740Y905230D02*
X390940D01*
X385840Y900130D02*
Y910330D01*
X350740Y905230D02*
X360940D01*
X355840Y900130D02*
Y910330D01*
Y948430D02*
X385840D01*
X370840Y933430D02*
Y963430D01*
X358775Y478790D02*
X390525D01*
X374650Y462915D02*
Y494665D01*
X280800Y258700D02*
X291200D01*
X286000Y253500D02*
Y263900D01*
X280800Y284100D02*
X291200D01*
X286000Y278900D02*
Y289300D01*
X280800Y309500D02*
X291200D01*
X286000Y304300D02*
Y314700D01*
X280800Y334900D02*
X291200D01*
X286000Y329700D02*
Y340100D01*
X280800Y360300D02*
X291200D01*
X286000Y355100D02*
Y365500D01*
X280800Y385700D02*
X291200D01*
X286000Y380500D02*
Y390900D01*
X280800Y411100D02*
X291200D01*
X286000Y405900D02*
Y416300D01*
X280800Y436500D02*
X291200D01*
X286000Y431300D02*
Y441700D01*
X280800Y461900D02*
X291200D01*
X286000Y456700D02*
Y467100D01*
X280800Y487300D02*
X291200D01*
X286000Y482100D02*
Y492500D01*
X280800Y512700D02*
X291200D01*
X286000Y507500D02*
Y517900D01*
X280800Y538100D02*
X291200D01*
X286000Y532900D02*
Y543300D01*
X280800Y563500D02*
X291200D01*
X286000Y558300D02*
Y568700D01*
X280800Y588900D02*
X291200D01*
X286000Y583700D02*
Y594100D01*
X280800Y614300D02*
X291200D01*
X286000Y609100D02*
Y619500D01*
X280800Y639700D02*
X291200D01*
X286000Y634500D02*
Y644900D01*
X280800Y665100D02*
X291200D01*
X286000Y659900D02*
Y670300D01*
X280800Y690500D02*
X291200D01*
X286000Y685300D02*
Y695700D01*
X280800Y715900D02*
X291200D01*
X286000Y710700D02*
Y721100D01*
X280800Y741300D02*
X291200D01*
X286000Y736100D02*
Y746500D01*
X238800Y741300D02*
X249200D01*
X244000Y736100D02*
Y746500D01*
X238800Y715900D02*
X249200D01*
X244000Y710700D02*
Y721100D01*
X238800Y690500D02*
X249200D01*
X244000Y685300D02*
Y695700D01*
X238800Y665100D02*
X249200D01*
X244000Y659900D02*
Y670300D01*
X238800Y639700D02*
X249200D01*
X244000Y634500D02*
Y644900D01*
X238800Y614300D02*
X249200D01*
X244000Y609100D02*
Y619500D01*
X238800Y588900D02*
X249200D01*
X244000Y583700D02*
Y594100D01*
X238800Y563500D02*
X249200D01*
X244000Y558300D02*
Y568700D01*
X238800Y487300D02*
X249200D01*
X244000Y482100D02*
Y492500D01*
X238800Y461900D02*
X249200D01*
X244000Y456700D02*
Y467100D01*
X238800Y436500D02*
X249200D01*
X244000Y431300D02*
Y441700D01*
X238800Y385700D02*
X249200D01*
X244000Y380500D02*
Y390900D01*
X238800Y360300D02*
X249200D01*
X244000Y355100D02*
Y365500D01*
X238800Y334900D02*
X249200D01*
X244000Y329700D02*
Y340100D01*
X238800Y309500D02*
X249200D01*
X244000Y304300D02*
Y314700D01*
X238800Y284100D02*
X249200D01*
X244000Y278900D02*
Y289300D01*
X238800Y258700D02*
X249200D01*
X244000Y253500D02*
Y263900D01*
X60800Y258700D02*
X71200D01*
X66000Y253500D02*
Y263900D01*
X60800Y284100D02*
X71200D01*
X66000Y278900D02*
Y289300D01*
X60800Y309500D02*
X71200D01*
X66000Y304300D02*
Y314700D01*
X60800Y334900D02*
X71200D01*
X66000Y329700D02*
Y340100D01*
X60800Y360300D02*
X71200D01*
X66000Y355100D02*
Y365500D01*
X60800Y385700D02*
X71200D01*
X66000Y380500D02*
Y390900D01*
X60800Y411100D02*
X71200D01*
X66000Y405900D02*
Y416300D01*
X60800Y436500D02*
X71200D01*
X66000Y431300D02*
Y441700D01*
X60800Y461900D02*
X71200D01*
X66000Y456700D02*
Y467100D01*
X60800Y487300D02*
X71200D01*
X66000Y482100D02*
Y492500D01*
X60800Y512700D02*
X71200D01*
X66000Y507500D02*
Y517900D01*
X60800Y538100D02*
X71200D01*
X66000Y532900D02*
Y543300D01*
X60800Y563500D02*
X71200D01*
X66000Y558300D02*
Y568700D01*
X60800Y588900D02*
X71200D01*
X66000Y583700D02*
Y594100D01*
X60800Y614300D02*
X71200D01*
X66000Y609100D02*
Y619500D01*
X60800Y639700D02*
X71200D01*
X66000Y634500D02*
Y644900D01*
X60800Y665100D02*
X71200D01*
X66000Y659900D02*
Y670300D01*
X60800Y690500D02*
X71200D01*
X66000Y685300D02*
Y695700D01*
X60800Y715900D02*
X71200D01*
X66000Y710700D02*
Y721100D01*
X60800Y741300D02*
X71200D01*
X66000Y736100D02*
Y746500D01*
X10500Y614300D02*
X21500D01*
X16000Y608800D02*
Y619800D01*
X10500Y538100D02*
X21500D01*
X16000Y532600D02*
Y543600D01*
X10500Y512700D02*
X21500D01*
X16000Y507200D02*
Y518200D01*
X10500Y487300D02*
X21500D01*
X16000Y481800D02*
Y492800D01*
X10500Y436500D02*
X21500D01*
X16000Y431000D02*
Y442000D01*
X10500Y411100D02*
X21500D01*
X16000Y405600D02*
Y416600D01*
X10500Y360300D02*
X21500D01*
X16000Y354800D02*
Y365800D01*
X10500Y309500D02*
X21500D01*
X16000Y304000D02*
Y315000D01*
X10500Y258700D02*
X21500D01*
X16000Y253200D02*
Y264200D01*
X10500Y284100D02*
X21500D01*
X16000Y278600D02*
Y289600D01*
X10500Y334900D02*
X21500D01*
X16000Y329400D02*
Y340400D01*
X10500Y385700D02*
X21500D01*
X16000Y380200D02*
Y391200D01*
X10500Y461900D02*
X21500D01*
X16000Y456400D02*
Y467400D01*
X10500Y563500D02*
X21500D01*
X16000Y558000D02*
Y569000D01*
X10500Y588900D02*
X21500D01*
X16000Y583400D02*
Y594400D01*
X10500Y639700D02*
X21500D01*
X16000Y634200D02*
Y645200D01*
X10500Y665100D02*
X21500D01*
X16000Y659600D02*
Y670600D01*
X10500Y690500D02*
X21500D01*
X16000Y685000D02*
Y696000D01*
X10500Y715900D02*
X21500D01*
X16000Y710400D02*
Y721400D01*
X10500Y741300D02*
X21500D01*
X16000Y735800D02*
Y746800D01*
X455000Y945000D02*
X485000D01*
X470000Y930000D02*
Y960000D01*
X45000Y945000D02*
X75000D01*
X60000Y930000D02*
Y960000D01*
X455000Y55000D02*
X485000D01*
X470000Y40000D02*
Y70000D01*
X45000Y55000D02*
X75000D01*
X60000Y40000D02*
Y70000D01*
X98830Y788670D02*
X101830D01*
X100330Y787170D02*
Y790170D01*
X173760Y245110D02*
X176760D01*
X175260Y243610D02*
Y246610D01*
X213130Y280670D02*
X216130D01*
X214630Y279170D02*
Y282170D01*
X404900Y609600D02*
X407900D01*
X406400Y608100D02*
Y611100D01*
X389939Y609672D02*
X392939D01*
X391440Y608172D02*
Y611172D01*
X373150Y609600D02*
X376150D01*
X374650Y608100D02*
Y611100D01*
X162330Y617220D02*
X165330D01*
X163830Y615720D02*
Y618720D01*
X100100Y617220D02*
X103100D01*
X101600Y615720D02*
Y618720D01*
X120420Y617220D02*
X123420D01*
X121920Y615720D02*
Y618720D01*
X142010Y617220D02*
X145010D01*
X143510Y615720D02*
Y618720D01*
X310920Y425450D02*
X313920D01*
X312420Y423950D02*
Y426950D01*
X364260Y346710D02*
X367260D01*
X365760Y345210D02*
Y348210D01*
X238530Y215900D02*
X241530D01*
X240030Y214400D02*
Y217400D01*
X16280Y201930D02*
X19280D01*
X17780Y200430D02*
Y203430D01*
X40410Y275590D02*
X43410D01*
X41910Y274090D02*
Y277090D01*
X101370Y434340D02*
X104370D01*
X102870Y432840D02*
Y435840D01*
X39140Y708660D02*
X42140D01*
X40640Y707160D02*
Y710160D01*
X91210Y680720D02*
X94210D01*
X92710Y679220D02*
Y682220D01*
X476020Y883920D02*
X479020D01*
X477520Y882420D02*
Y885420D01*
X357910Y609600D02*
X360910D01*
X359410Y608100D02*
Y611100D01*
X305840Y220980D02*
X308840D01*
X307340Y219480D02*
Y222480D01*
X379500Y425450D02*
X382500D01*
X381000Y423950D02*
Y426950D01*
X111530Y284480D02*
X114530D01*
X113030Y282980D02*
Y285980D01*
X406170Y166370D02*
X409170D01*
X407670Y164870D02*
Y167870D01*
X320330Y190500D02*
X324830D01*
X322580Y188250D02*
Y192750D01*
X384580Y252730D02*
X387580D01*
X386080Y251230D02*
Y254230D01*
X409980Y238760D02*
X412980D01*
X411480Y237260D02*
Y240260D01*
X430300Y178950D02*
X433300D01*
X431800Y177450D02*
Y180450D01*
X431570Y237490D02*
X434570D01*
X433070Y235990D02*
Y238990D01*
X388390Y355600D02*
X391390D01*
X389890Y354100D02*
Y357100D01*
X399391Y346710D02*
X402391D01*
X400891Y345210D02*
Y348210D01*
X373150Y252080D02*
X376150D01*
X374650Y250580D02*
Y253580D01*
X506500Y788670D02*
X509500D01*
X508000Y787170D02*
Y790170D01*
X436650Y839470D02*
X439650D01*
X438150Y837970D02*
Y840970D01*
X21360Y835660D02*
X24360D01*
X22860Y834160D02*
Y837160D01*
X293130Y836835D02*
X296130D01*
X294630Y835335D02*
Y838335D01*
X346480Y786130D02*
X349480D01*
X347980Y784630D02*
Y787630D01*
X314730Y400050D02*
X317730D01*
X316230Y398550D02*
Y401550D01*
X342670Y355600D02*
X345670D01*
X344170Y354100D02*
Y357100D01*
X244130Y839470D02*
X247130D01*
X245630Y837970D02*
Y840970D01*
X177570Y627380D02*
X180570D01*
X179070Y625880D02*
Y628880D01*
X202970Y628650D02*
X205970D01*
X204470Y627150D02*
Y630150D01*
X86130Y782320D02*
X89130D01*
X87630Y780820D02*
Y783820D01*
X161060Y342900D02*
X164060D01*
X162560Y341400D02*
Y344400D01*
X214400Y767080D02*
X217400D01*
X215900Y765580D02*
Y768580D01*
X186460Y815340D02*
X189460D01*
X187960Y813840D02*
Y816840D01*
X142530Y797116D02*
X147030D01*
X144780Y794866D02*
Y799366D01*
X322350Y769620D02*
X325350D01*
X323850Y768120D02*
Y771120D01*
X365530Y770890D02*
X368530D01*
X367030Y769390D02*
Y772390D01*
X350290Y805180D02*
X353290D01*
X351790Y803680D02*
Y806680D01*
X190270Y403860D02*
X193270D01*
X191770Y402360D02*
Y405360D01*
X190270Y628650D02*
X193270D01*
X191770Y627150D02*
Y630150D01*
X50570Y883920D02*
X53570D01*
X52070Y882420D02*
Y885420D01*
X125500Y415290D02*
X128500D01*
X127000Y413790D02*
Y416790D01*
X125380Y395130D02*
X128380D01*
X126880Y393630D02*
Y396630D01*
X115340Y383540D02*
X118340D01*
X116840Y382040D02*
Y385040D01*
X191540Y379730D02*
X194540D01*
X193040Y378230D02*
Y381230D01*
X181380Y354330D02*
X184380D01*
X182880Y352830D02*
Y355830D01*
X361720Y416560D02*
X364720D01*
X363220Y415060D02*
Y418060D01*
X397280Y400050D02*
X400280D01*
X398780Y398550D02*
Y401550D01*
X349020Y398780D02*
X352020D01*
X350520Y397280D02*
Y400280D01*
X340130Y208280D02*
X343130D01*
X341630Y206780D02*
Y209780D01*
X111530Y356870D02*
X114530D01*
X113030Y355370D02*
Y358370D01*
X172490Y189230D02*
X175490D01*
X173990Y187730D02*
Y190730D01*
X150900Y199390D02*
X153900D01*
X152400Y197890D02*
Y200890D01*
X72160Y151130D02*
X75160D01*
X73660Y149630D02*
Y152630D01*
X63270Y139700D02*
X66270D01*
X64770Y138200D02*
Y141200D01*
X86130Y173990D02*
X89130D01*
X87630Y172490D02*
Y175490D01*
X149630Y33020D02*
X152630D01*
X151130Y31520D02*
Y34520D01*
X298740Y190500D02*
X303240D01*
X300990Y188250D02*
Y192750D01*
M02*
