G04*
G04 #@! TF.GenerationSoftware,Altium Limited,Altium Designer,23.0.1 (38)*
G04*
G04 Layer_Physical_Order=1*
G04 Layer_Color=255*
%FSLAX44Y44*%
%MOMM*%
G71*
G04*
G04 #@! TF.SameCoordinates,BC9D6512-4978-4A19-9F96-E8A3AF7CD3FB*
G04*
G04*
G04 #@! TF.FilePolarity,Positive*
G04*
G01*
G75*
%ADD15O,2.5000X0.7000*%
%ADD16R,0.8000X1.0000*%
%ADD17R,0.5851X1.3360*%
G04:AMPARAMS|DCode=18|XSize=1.336mm|YSize=0.5851mm|CornerRadius=0.2925mm|HoleSize=0mm|Usage=FLASHONLY|Rotation=90.000|XOffset=0mm|YOffset=0mm|HoleType=Round|Shape=RoundedRectangle|*
%AMROUNDEDRECTD18*
21,1,1.3360,0.0000,0,0,90.0*
21,1,0.7510,0.5851,0,0,90.0*
1,1,0.5851,0.0000,0.3755*
1,1,0.5851,0.0000,-0.3755*
1,1,0.5851,0.0000,-0.3755*
1,1,0.5851,0.0000,0.3755*
%
%ADD18ROUNDEDRECTD18*%
%ADD19R,1.0000X0.8000*%
%ADD20R,0.8500X0.7000*%
%ADD21R,0.7000X0.8500*%
%ADD22R,0.9000X1.5000*%
%ADD23R,0.7500X0.8500*%
%ADD24R,0.9000X1.0500*%
%ADD25R,1.1311X0.9121*%
%ADD26R,0.7000X0.7000*%
%ADD27R,1.0000X2.5000*%
%ADD28R,0.8000X0.8000*%
%ADD29R,0.9500X0.8000*%
%ADD30R,0.6000X0.8000*%
%ADD31R,0.7000X0.7000*%
G04:AMPARAMS|DCode=32|XSize=1.1mm|YSize=0.6mm|CornerRadius=0.051mm|HoleSize=0mm|Usage=FLASHONLY|Rotation=90.000|XOffset=0mm|YOffset=0mm|HoleType=Round|Shape=RoundedRectangle|*
%AMROUNDEDRECTD32*
21,1,1.1000,0.4980,0,0,90.0*
21,1,0.9980,0.6000,0,0,90.0*
1,1,0.1020,0.2490,0.4990*
1,1,0.1020,0.2490,-0.4990*
1,1,0.1020,-0.2490,-0.4990*
1,1,0.1020,-0.2490,0.4990*
%
%ADD32ROUNDEDRECTD32*%
%ADD33R,0.8500X0.7500*%
%ADD50C,3.0000*%
%ADD51R,1.5700X1.5700*%
%ADD52C,1.5700*%
%ADD56R,1.2000X1.2000*%
%ADD57C,1.2000*%
%ADD64C,0.3048*%
%ADD65C,0.6350*%
%ADD66C,1.5200*%
%ADD67R,1.5200X1.5200*%
%ADD68R,11.4300X15.2400*%
%ADD69C,1.6000*%
%ADD70R,1.6000X1.6000*%
%ADD71C,1.5600*%
%ADD72R,1.5600X1.5600*%
%ADD73R,1.6000X1.6000*%
%ADD74C,1.6000*%
%ADD75C,6.0000*%
%ADD76C,0.6500*%
%ADD77C,0.8000*%
G36*
X424180Y904243D02*
X422303Y903465D01*
X397454Y928314D01*
X395732Y929465D01*
X393700Y929869D01*
X393700Y929869D01*
X380250D01*
X380250Y929869D01*
X378218Y929465D01*
X376496Y928314D01*
X363294Y915112D01*
X345958D01*
Y895348D01*
X365722D01*
Y902524D01*
X375687Y912489D01*
X377313Y911242D01*
X376158Y909240D01*
X375450Y906598D01*
Y906500D01*
X384570D01*
Y915620D01*
X384472D01*
X381830Y914912D01*
X379828Y913756D01*
X378581Y915383D01*
X382449Y919251D01*
X391501D01*
X450408Y860344D01*
Y838908D01*
X461673D01*
X462556Y836876D01*
X461845Y835812D01*
X461441Y833780D01*
X461441Y833780D01*
Y825982D01*
X461696Y824702D01*
Y822227D01*
X462080Y820293D01*
X463176Y818653D01*
X464816Y817557D01*
X466750Y817172D01*
X468684Y817557D01*
X470324Y818653D01*
X471420Y820293D01*
X471804Y822227D01*
Y824702D01*
X472059Y825982D01*
Y831581D01*
X478672Y838194D01*
X480408Y838908D01*
X480408Y838908D01*
Y838908D01*
X480408Y838908D01*
X494472D01*
Y867972D01*
X480408D01*
Y850129D01*
X477790D01*
X477790Y850129D01*
X475758Y849725D01*
X474036Y848574D01*
X466349Y840887D01*
X464472Y841665D01*
Y867972D01*
X457796D01*
X430584Y895184D01*
X431362Y897061D01*
X528626D01*
X530063Y895624D01*
X529637Y56581D01*
X529636Y56581D01*
X529599Y52876D01*
X528558Y45541D01*
X526569Y38404D01*
X523665Y31588D01*
X519896Y25209D01*
X515327Y19376D01*
X510036Y14190D01*
X504113Y9739D01*
X497660Y6099D01*
X490787Y3333D01*
X483611Y1487D01*
X476256Y594D01*
X472552Y631D01*
X472552Y631D01*
X472317Y64D01*
X43537Y491D01*
X40715Y491D01*
X35121Y1228D01*
X29670Y2688D01*
X24457Y4848D01*
X19570Y7669D01*
X15094Y11104D01*
X11104Y15094D01*
X7669Y19571D01*
X4847Y24458D01*
X2688Y29671D01*
X1228Y35121D01*
X491Y40716D01*
X491Y43537D01*
X109Y92537D01*
X1540Y93980D01*
X133350D01*
Y77470D01*
X176089D01*
X176122Y75452D01*
X172832Y74798D01*
X169732Y73514D01*
X166943Y71650D01*
X164570Y69277D01*
X162706Y66488D01*
X161423Y63388D01*
X160768Y60097D01*
Y56743D01*
X161423Y53452D01*
X162706Y50352D01*
X164570Y47563D01*
X166943Y45190D01*
X169732Y43326D01*
X172832Y42042D01*
X176122Y41388D01*
X179478D01*
X182768Y42042D01*
X185868Y43326D01*
X188657Y45190D01*
X191030Y47563D01*
X192894Y50352D01*
X194177Y53452D01*
X194832Y56743D01*
Y60097D01*
X194177Y63388D01*
X192894Y66488D01*
X191030Y69277D01*
X188657Y71650D01*
X185868Y73514D01*
X182768Y74798D01*
X179478Y75452D01*
X179511Y77470D01*
X229429D01*
X229463Y75452D01*
X226172Y74798D01*
X223072Y73514D01*
X220283Y71650D01*
X217910Y69277D01*
X216046Y66488D01*
X214762Y63388D01*
X214108Y60097D01*
Y56743D01*
X214762Y53452D01*
X216046Y50352D01*
X217910Y47563D01*
X220283Y45190D01*
X223072Y43326D01*
X226172Y42042D01*
X229463Y41388D01*
X232817D01*
X236108Y42042D01*
X239208Y43326D01*
X241997Y45190D01*
X244370Y47563D01*
X246234Y50352D01*
X247518Y53452D01*
X248172Y56743D01*
Y60097D01*
X247518Y63388D01*
X246234Y66488D01*
X244370Y69277D01*
X241997Y71650D01*
X239208Y73514D01*
X236108Y74798D01*
X232817Y75452D01*
X232851Y77470D01*
X240030D01*
Y89436D01*
X240050Y91460D01*
X242062Y91460D01*
X248920D01*
Y101600D01*
Y111740D01*
X242062D01*
X240050Y111740D01*
X240030Y113764D01*
Y119380D01*
X210820D01*
Y124595D01*
X211318Y124922D01*
X212852Y125316D01*
X214276Y123892D01*
X216472Y122624D01*
X218922Y121968D01*
X221458D01*
X223908Y122624D01*
X226104Y123892D01*
X227897Y125686D01*
X229166Y127882D01*
X229190Y127974D01*
X231810D01*
X231810Y127974D01*
X233197Y128250D01*
X234374Y129036D01*
X238611Y133274D01*
X239198Y133151D01*
X240558Y132347D01*
Y130332D01*
X241214Y127882D01*
X242482Y125686D01*
X244276Y123892D01*
X246472Y122624D01*
X248922Y121968D01*
X251458D01*
X253908Y122624D01*
X256104Y123892D01*
X257897Y125686D01*
X259166Y127882D01*
X259822Y130332D01*
Y132868D01*
X259337Y134679D01*
X280035Y155378D01*
X288972D01*
Y167442D01*
X274908D01*
Y160506D01*
X270684Y156281D01*
X268652Y157123D01*
Y167442D01*
X254588D01*
Y159506D01*
X231041Y135958D01*
X230899Y135910D01*
X228670Y136176D01*
X227897Y137514D01*
X226104Y139307D01*
X223908Y140576D01*
X221458Y141232D01*
X218922D01*
X216472Y140576D01*
X214276Y139307D01*
X212852Y137884D01*
X211318Y138278D01*
X210820Y138605D01*
Y187960D01*
X263074D01*
Y182442D01*
X254588D01*
Y170378D01*
X268652D01*
Y177314D01*
X269264Y177926D01*
X269264Y177926D01*
X270050Y179102D01*
X270248Y180101D01*
X271311Y180672D01*
X272358Y180865D01*
X274908Y178314D01*
Y170378D01*
X288972D01*
Y182442D01*
X281035D01*
X277576Y185902D01*
Y250346D01*
X279608Y251188D01*
X279963Y250833D01*
X282205Y249538D01*
X284706Y248868D01*
X287294D01*
X289795Y249538D01*
X292037Y250833D01*
X293868Y252663D01*
X295162Y254905D01*
X295832Y257406D01*
Y259994D01*
X295162Y262495D01*
X293868Y264737D01*
X292037Y266568D01*
X289795Y267862D01*
X287294Y268532D01*
X284706D01*
X282205Y267862D01*
X279963Y266568D01*
X279608Y266212D01*
X277576Y267054D01*
Y275746D01*
X279608Y276588D01*
X279963Y276232D01*
X282205Y274938D01*
X284706Y274268D01*
X287294D01*
X289795Y274938D01*
X292037Y276232D01*
X293868Y278063D01*
X295162Y280305D01*
X295832Y282806D01*
Y285394D01*
X295162Y287895D01*
X293868Y290137D01*
X292037Y291968D01*
X289795Y293262D01*
X287294Y293932D01*
X284706D01*
X282205Y293262D01*
X279963Y291968D01*
X279608Y291612D01*
X277576Y292454D01*
Y300428D01*
X279608Y301269D01*
X279651Y301226D01*
X282009Y299865D01*
X284639Y299160D01*
X284730D01*
Y309500D01*
Y319840D01*
X284639D01*
X282009Y319135D01*
X279651Y317774D01*
X279608Y317731D01*
X277576Y318572D01*
Y326546D01*
X279608Y327388D01*
X279963Y327033D01*
X282205Y325738D01*
X284706Y325068D01*
X287294D01*
X289795Y325738D01*
X292037Y327033D01*
X293868Y328863D01*
X295162Y331105D01*
X295832Y333606D01*
Y336194D01*
X295162Y338695D01*
X293868Y340937D01*
X292037Y342768D01*
X289795Y344062D01*
X287294Y344732D01*
X284706D01*
X282205Y344062D01*
X279963Y342768D01*
X279608Y342412D01*
X277576Y343254D01*
Y351946D01*
X279608Y352788D01*
X279963Y352433D01*
X282205Y351138D01*
X284706Y350468D01*
X287294D01*
X289795Y351138D01*
X292037Y352433D01*
X293868Y354263D01*
X295162Y356505D01*
X295832Y359006D01*
Y361594D01*
X295162Y364095D01*
X293868Y366337D01*
X292037Y368168D01*
X289795Y369462D01*
X287294Y370132D01*
X284706D01*
X282205Y369462D01*
X279963Y368168D01*
X279608Y367812D01*
X277576Y368654D01*
Y377346D01*
X279608Y378188D01*
X279963Y377832D01*
X282205Y376538D01*
X284706Y375868D01*
X287294D01*
X289795Y376538D01*
X292037Y377832D01*
X293868Y379663D01*
X295162Y381905D01*
X295832Y384406D01*
Y386994D01*
X295162Y389495D01*
X293868Y391737D01*
X292037Y393568D01*
X289795Y394862D01*
X287294Y395532D01*
X284706D01*
X282205Y394862D01*
X279963Y393568D01*
X279608Y393212D01*
X277576Y394054D01*
Y402746D01*
X279608Y403588D01*
X279963Y403232D01*
X282205Y401938D01*
X284706Y401268D01*
X287294D01*
X289795Y401938D01*
X292037Y403232D01*
X293868Y405063D01*
X295162Y407305D01*
X295832Y409806D01*
Y412394D01*
X295162Y414895D01*
X293868Y417137D01*
X292037Y418968D01*
X289795Y420262D01*
X287294Y420932D01*
X284706D01*
X282205Y420262D01*
X279963Y418968D01*
X279608Y418612D01*
X277576Y419454D01*
Y427428D01*
X279608Y428269D01*
X279651Y428226D01*
X282009Y426865D01*
X284639Y426160D01*
X284730D01*
Y436500D01*
Y446840D01*
X284639D01*
X282009Y446135D01*
X279651Y444774D01*
X279608Y444731D01*
X277576Y445572D01*
Y448348D01*
X282053Y452826D01*
X282205Y452738D01*
X284706Y452068D01*
X287294D01*
X289795Y452738D01*
X292037Y454033D01*
X293868Y455863D01*
X295162Y458105D01*
X295832Y460606D01*
Y463194D01*
X295162Y465695D01*
X293868Y467937D01*
X292037Y469768D01*
X289795Y471062D01*
X287294Y471732D01*
X284706D01*
X282205Y471062D01*
X279963Y469768D01*
X278132Y467937D01*
X276838Y465695D01*
X276168Y463194D01*
Y460606D01*
X276838Y458105D01*
X276926Y457953D01*
X273327Y454355D01*
X271450Y455132D01*
Y467622D01*
X282053Y478226D01*
X282205Y478138D01*
X284706Y477468D01*
X287294D01*
X289795Y478138D01*
X292037Y479432D01*
X293868Y481263D01*
X295162Y483505D01*
X295832Y486006D01*
Y488594D01*
X295162Y491095D01*
X293868Y493337D01*
X292037Y495168D01*
X289795Y496462D01*
X287294Y497132D01*
X284706D01*
X282205Y496462D01*
X279963Y495168D01*
X278132Y493337D01*
X276838Y491095D01*
X276168Y488594D01*
Y486006D01*
X276838Y483505D01*
X276926Y483353D01*
X273327Y479755D01*
X271450Y480532D01*
Y840740D01*
X287781D01*
X289139Y838708D01*
X288889Y838105D01*
X300371D01*
X300121Y838708D01*
X301479Y840740D01*
X328930D01*
Y958850D01*
X355163D01*
X356121Y957058D01*
X355746Y956498D01*
X354463Y953398D01*
X353808Y950107D01*
Y946752D01*
X354463Y943462D01*
X355746Y940362D01*
X357610Y937573D01*
X359983Y935200D01*
X362772Y933336D01*
X365872Y932053D01*
X369162Y931398D01*
X372518D01*
X375808Y932053D01*
X378908Y933336D01*
X381697Y935200D01*
X384070Y937573D01*
X385934Y940362D01*
X387217Y943462D01*
X387872Y946752D01*
Y950107D01*
X387217Y953398D01*
X385934Y956498D01*
X385559Y957058D01*
X386517Y958850D01*
X424180D01*
Y904243D01*
D02*
G37*
G36*
X50063Y1000063D02*
X50064Y1000063D01*
X480064D01*
X483341Y1000063D01*
X489839Y999208D01*
X496170Y997512D01*
X502225Y995003D01*
X507902Y991726D01*
X513102Y987736D01*
X517736Y983101D01*
X521726Y977901D01*
X525003Y972225D01*
X527511Y966170D01*
X529207Y959838D01*
X530063Y953340D01*
X530063Y950063D01*
X530063Y950063D01*
X530063Y950062D01*
X530064Y905442D01*
X528625Y904007D01*
X433054Y904256D01*
X433069Y966885D01*
X433070Y969010D01*
X432911Y968851D01*
X431038Y968851D01*
X322920D01*
Y849706D01*
X321481Y848271D01*
X265430Y848460D01*
Y471857D01*
X264136Y470564D01*
X263350Y469388D01*
X263074Y468000D01*
X263074Y468000D01*
Y196850D01*
X205740D01*
Y116050D01*
X233680D01*
Y86360D01*
X142240D01*
Y102870D01*
X63D01*
Y951702D01*
X117Y954926D01*
X1065Y961303D01*
X2837Y967503D01*
X5404Y973418D01*
X8720Y978947D01*
X12730Y983996D01*
X17365Y988479D01*
X22545Y992318D01*
X28182Y995449D01*
X34179Y997817D01*
X40434Y999381D01*
X46840Y1000116D01*
X50063Y1000063D01*
D02*
G37*
%LPC*%
G36*
X387208Y915620D02*
X387110D01*
Y906500D01*
X396230D01*
Y906598D01*
X395522Y909240D01*
X394154Y911610D01*
X392220Y913544D01*
X389850Y914912D01*
X387208Y915620D01*
D02*
G37*
G36*
X396230Y903960D02*
X387110D01*
Y894840D01*
X387208D01*
X389850Y895548D01*
X392220Y896916D01*
X394154Y898850D01*
X395522Y901220D01*
X396230Y903862D01*
Y903960D01*
D02*
G37*
G36*
X384570D02*
X375450D01*
Y903862D01*
X376158Y901220D01*
X377526Y898850D01*
X379460Y896916D01*
X381830Y895548D01*
X384472Y894840D01*
X384570D01*
Y903960D01*
D02*
G37*
G36*
X478790Y889661D02*
Y885190D01*
X483261D01*
X482429Y887200D01*
X480800Y888829D01*
X478790Y889661D01*
D02*
G37*
G36*
X476250D02*
X474240Y888829D01*
X472611Y887200D01*
X471779Y885190D01*
X476250D01*
Y889661D01*
D02*
G37*
G36*
X483261Y882650D02*
X478790D01*
Y878179D01*
X480800Y879011D01*
X482429Y880640D01*
X483261Y882650D01*
D02*
G37*
G36*
X476250D02*
X471779D01*
X472611Y880640D01*
X474240Y879011D01*
X476250Y878179D01*
Y882650D01*
D02*
G37*
G36*
X387208Y885620D02*
X387110D01*
Y876500D01*
X396230D01*
Y876598D01*
X395522Y879240D01*
X394154Y881610D01*
X392220Y883544D01*
X389850Y884912D01*
X387208Y885620D01*
D02*
G37*
G36*
X384570D02*
X384472D01*
X381830Y884912D01*
X379460Y883544D01*
X377526Y881610D01*
X376158Y879240D01*
X375450Y876598D01*
Y876500D01*
X384570D01*
Y885620D01*
D02*
G37*
G36*
X357141Y885112D02*
X354539D01*
X352026Y884438D01*
X349772Y883138D01*
X347933Y881298D01*
X346632Y879044D01*
X345958Y876531D01*
Y873929D01*
X346632Y871416D01*
X347933Y869162D01*
X349772Y867322D01*
X352026Y866021D01*
X354539Y865348D01*
X357141D01*
X359654Y866021D01*
X361908Y867322D01*
X363748Y869162D01*
X365048Y871416D01*
X365722Y873929D01*
Y876531D01*
X365048Y879044D01*
X363748Y881298D01*
X361908Y883138D01*
X359654Y884438D01*
X357141Y885112D01*
D02*
G37*
G36*
X396230Y873960D02*
X387110D01*
Y864840D01*
X387208D01*
X389850Y865548D01*
X392220Y866916D01*
X394154Y868850D01*
X395522Y871220D01*
X396230Y873862D01*
Y873960D01*
D02*
G37*
G36*
X384570D02*
X375450D01*
Y873862D01*
X376158Y871220D01*
X377526Y868850D01*
X379460Y866916D01*
X381830Y865548D01*
X384472Y864840D01*
X384570D01*
Y873960D01*
D02*
G37*
G36*
X439420Y845211D02*
Y840740D01*
X443891D01*
X443059Y842750D01*
X441430Y844379D01*
X439420Y845211D01*
D02*
G37*
G36*
X436880D02*
X434870Y844379D01*
X433241Y842750D01*
X432409Y840740D01*
X436880D01*
Y845211D01*
D02*
G37*
G36*
X443891Y838200D02*
X432409D01*
X433241Y836190D01*
X434209Y835222D01*
X433764Y833190D01*
X430610D01*
Y827920D01*
X445690D01*
Y833190D01*
X442536D01*
X442091Y835222D01*
X443059Y836190D01*
X443891Y838200D01*
D02*
G37*
G36*
X300371Y835565D02*
X288889D01*
X289556Y833954D01*
X288972Y832569D01*
X288481Y831922D01*
X285630D01*
X283273Y831453D01*
X281275Y830118D01*
X279940Y828120D01*
X279724Y827033D01*
X294630D01*
X309536D01*
X309319Y828120D01*
X307985Y830118D01*
X305987Y831453D01*
X303630Y831922D01*
X300779D01*
X300288Y832569D01*
X299704Y833954D01*
X300371Y835565D01*
D02*
G37*
G36*
X445690Y825380D02*
X439420D01*
Y820110D01*
X445690D01*
Y825380D01*
D02*
G37*
G36*
X436880D02*
X430610D01*
Y820110D01*
X436880D01*
Y825380D01*
D02*
G37*
G36*
X501969Y827601D02*
X500812Y826452D01*
X487248D01*
Y815484D01*
X487248Y814388D01*
X486348Y812729D01*
X479495D01*
X478184Y813605D01*
X476250Y813989D01*
X474316Y813605D01*
X472676Y812509D01*
X471580Y810869D01*
X471196Y808935D01*
Y808450D01*
X470941Y807170D01*
X470941Y807170D01*
Y805180D01*
X470941Y805180D01*
X470941Y805180D01*
Y804124D01*
X464239Y797422D01*
X462207Y798264D01*
Y803412D01*
X462559Y805180D01*
Y808435D01*
X462559Y808436D01*
X462207Y810204D01*
Y813892D01*
X459301D01*
X457789Y815404D01*
X456067Y816555D01*
X454035Y816959D01*
X454035Y816959D01*
X445182D01*
Y817682D01*
X431118D01*
Y805618D01*
X445182D01*
Y806341D01*
X451836D01*
X451941Y806236D01*
Y805180D01*
X452293Y803412D01*
Y796468D01*
X460412D01*
X461253Y794436D01*
X441746Y774929D01*
X400920D01*
X398888Y774525D01*
X397166Y773374D01*
X397166Y773374D01*
X363344Y739552D01*
X361763D01*
X359720Y739005D01*
X357888Y737947D01*
X356393Y736452D01*
X355335Y734620D01*
X354788Y732577D01*
Y730463D01*
X355335Y728420D01*
X356393Y726588D01*
X357888Y725093D01*
X358592Y724687D01*
Y721949D01*
X358592Y721949D01*
X358996Y719917D01*
X360147Y718195D01*
X390018Y688324D01*
Y675768D01*
X410082D01*
Y695832D01*
X397526D01*
X369210Y724148D01*
Y726551D01*
X369247Y726588D01*
X370305Y728420D01*
X370852Y730463D01*
Y732044D01*
X403119Y764311D01*
X443945D01*
X443946Y764311D01*
X445977Y764715D01*
X447700Y765866D01*
X477878Y796044D01*
X484911Y789011D01*
Y460280D01*
X484911Y460280D01*
X485315Y458248D01*
X486466Y456526D01*
X504222Y438770D01*
X503968Y437821D01*
Y435179D01*
X504652Y432628D01*
X505972Y430340D01*
X507840Y428472D01*
X510128Y427152D01*
X512679Y426468D01*
X515321D01*
X517872Y427152D01*
X520160Y428472D01*
X522028Y430340D01*
X523348Y432628D01*
X524032Y435179D01*
Y437821D01*
X523348Y440372D01*
X522028Y442660D01*
X520160Y444528D01*
X517872Y445848D01*
X515321Y446532D01*
X512679D01*
X511730Y446278D01*
X495529Y462479D01*
Y791210D01*
X495529Y791210D01*
X495125Y793242D01*
X493974Y794964D01*
X489427Y799511D01*
X490205Y801388D01*
X499992Y801388D01*
X501461Y800029D01*
X502281Y800029D01*
X504375D01*
Y793234D01*
X503091Y791950D01*
X502259Y789940D01*
X513741D01*
X512909Y791950D01*
X511627Y793232D01*
Y800029D01*
X514541D01*
Y805299D01*
X508001D01*
Y807839D01*
X514541D01*
Y813109D01*
X506924D01*
X506852Y815111D01*
X506852Y815111D01*
X508883Y815515D01*
X508916Y815537D01*
X514033D01*
Y827601D01*
X501969D01*
Y827601D01*
D02*
G37*
G36*
X343352Y812475D02*
X331288D01*
Y798411D01*
X343352D01*
Y801554D01*
X347946D01*
X348798Y800702D01*
X350739Y799898D01*
X352841D01*
X354782Y800702D01*
X356268Y802188D01*
X357072Y804129D01*
Y806231D01*
X356268Y808172D01*
X354782Y809658D01*
X352841Y810462D01*
X350739D01*
X348798Y809658D01*
X347946Y808806D01*
X343352D01*
Y812475D01*
D02*
G37*
G36*
Y834065D02*
X331288D01*
Y820001D01*
X343352D01*
Y823408D01*
X358399D01*
X364674Y817133D01*
Y787632D01*
X341398Y764356D01*
X328929D01*
X328088Y766388D01*
X328328Y766628D01*
X329132Y768569D01*
Y769932D01*
X329159Y770067D01*
Y778618D01*
X330510Y780090D01*
X331191Y780090D01*
X335280D01*
Y786130D01*
Y792170D01*
X330510D01*
Y787123D01*
X330375Y786956D01*
X328478Y786273D01*
X328082Y786751D01*
Y791662D01*
X317018D01*
Y791439D01*
X307761D01*
X307618Y791652D01*
X305788Y792874D01*
X305270Y792977D01*
Y795049D01*
X305788Y795152D01*
X307618Y796375D01*
X307861Y796738D01*
X318240D01*
X318240Y796738D01*
X319627Y797014D01*
X320804Y797800D01*
X321415Y798411D01*
X328352D01*
Y812475D01*
X316288D01*
Y803989D01*
X307861D01*
X307618Y804352D01*
X305788Y805574D01*
X305270Y805677D01*
Y807749D01*
X305788Y807852D01*
X307618Y809075D01*
X308061Y809737D01*
X308650D01*
X308650Y809737D01*
X310037Y810013D01*
X311213Y810799D01*
X320415Y820001D01*
X328352D01*
Y834065D01*
X316288D01*
Y826126D01*
X316280Y826121D01*
X316280Y826121D01*
X308087Y817928D01*
X306886Y818453D01*
X306871Y820665D01*
X307985Y821409D01*
X309319Y823407D01*
X309536Y824493D01*
X294630D01*
X279724D01*
X279940Y823407D01*
X281275Y821409D01*
X283029Y820237D01*
X283219Y819393D01*
X283112Y818034D01*
X281642Y817052D01*
X280419Y815222D01*
X279990Y813063D01*
X280419Y810905D01*
X281642Y809075D01*
X283472Y807852D01*
X283990Y807749D01*
Y805677D01*
X283472Y805574D01*
X281642Y804352D01*
X280419Y802522D01*
X279990Y800363D01*
X280419Y798205D01*
X281642Y796375D01*
X283472Y795152D01*
X283990Y795049D01*
Y792977D01*
X283472Y792874D01*
X281642Y791652D01*
X280419Y789822D01*
X279990Y787663D01*
X280419Y785505D01*
X281642Y783675D01*
X283472Y782452D01*
X285630Y782023D01*
X302113D01*
X303307Y781225D01*
X305339Y780821D01*
X317018D01*
Y780598D01*
X318415D01*
X318541Y780409D01*
Y770067D01*
X318568Y769932D01*
Y768569D01*
X319372Y766628D01*
X319612Y766388D01*
X318771Y764356D01*
X305430D01*
X305430Y764356D01*
X304042Y764080D01*
X302866Y763294D01*
X302866Y763294D01*
X290704Y751132D01*
X276168D01*
Y731468D01*
X293567D01*
X294408Y729436D01*
X289947Y724974D01*
X289795Y725062D01*
X287294Y725732D01*
X284706D01*
X282205Y725062D01*
X279963Y723768D01*
X278132Y721937D01*
X276838Y719695D01*
X276168Y717194D01*
Y714606D01*
X276838Y712105D01*
X278132Y709863D01*
X279963Y708033D01*
X282205Y706738D01*
X284706Y706068D01*
X287294D01*
X289795Y706738D01*
X292037Y708033D01*
X293868Y709863D01*
X295162Y712105D01*
X295832Y714606D01*
Y717194D01*
X295162Y719695D01*
X295074Y719847D01*
X302248Y727020D01*
X304280Y726179D01*
Y722980D01*
X311550D01*
Y731520D01*
Y740060D01*
X306208D01*
X304280Y740060D01*
X304176Y742049D01*
Y743074D01*
X311856Y750754D01*
X350520D01*
X350520Y750754D01*
X351908Y751030D01*
X353084Y751816D01*
X366875Y765608D01*
X368081D01*
X370022Y766412D01*
X371508Y767898D01*
X372312Y769839D01*
Y771941D01*
X371508Y773882D01*
X370022Y775368D01*
X368081Y776172D01*
X366343D01*
X365638Y777185D01*
X365347Y778049D01*
X370864Y783566D01*
X370864Y783566D01*
X371650Y784743D01*
X371926Y786130D01*
X371926Y786130D01*
Y818634D01*
X371926Y818634D01*
X371650Y820022D01*
X370864Y821198D01*
X370864Y821198D01*
X362465Y829597D01*
X361289Y830383D01*
X359901Y830659D01*
X359901Y830659D01*
X343352D01*
Y834065D01*
D02*
G37*
G36*
X349250Y791871D02*
Y787400D01*
X353721D01*
X352889Y789410D01*
X351260Y791039D01*
X349250Y791871D01*
D02*
G37*
G36*
X513741Y787400D02*
X509270D01*
Y782929D01*
X511280Y783761D01*
X512909Y785390D01*
X513741Y787400D01*
D02*
G37*
G36*
X506730D02*
X502259D01*
X503091Y785390D01*
X504720Y783761D01*
X506730Y782929D01*
Y787400D01*
D02*
G37*
G36*
X353721Y784860D02*
X349250D01*
Y780389D01*
X351260Y781221D01*
X352889Y782850D01*
X353721Y784860D01*
D02*
G37*
G36*
X342590Y792170D02*
X337820D01*
Y786130D01*
Y780090D01*
X342590D01*
Y780458D01*
X344622Y781300D01*
X344700Y781221D01*
X346710Y780389D01*
Y786130D01*
Y791871D01*
X344700Y791039D01*
X344622Y790960D01*
X342590Y791802D01*
Y792170D01*
D02*
G37*
G36*
X524540Y751840D02*
X515270D01*
Y742570D01*
X524540D01*
Y751840D01*
D02*
G37*
G36*
X512730D02*
X503460D01*
Y742570D01*
X512730D01*
Y751840D01*
D02*
G37*
G36*
X446290Y740060D02*
X439020D01*
Y732790D01*
X446290D01*
Y740060D01*
D02*
G37*
G36*
X314090D02*
Y732790D01*
X321360D01*
Y740060D01*
X314090D01*
D02*
G37*
G36*
X436480D02*
X429210D01*
Y732790D01*
X436480D01*
Y740060D01*
D02*
G37*
G36*
X465294Y751132D02*
X462706D01*
X460205Y750462D01*
X457963Y749168D01*
X456133Y747337D01*
X454838Y745095D01*
X454168Y742594D01*
Y740006D01*
X454838Y737505D01*
X456133Y735263D01*
X457963Y733432D01*
X460205Y732138D01*
X462706Y731468D01*
X465294D01*
X467795Y732138D01*
X470037Y733432D01*
X471868Y735263D01*
X473162Y737505D01*
X473832Y740006D01*
Y742594D01*
X473162Y745095D01*
X471868Y747337D01*
X470037Y749168D01*
X467795Y750462D01*
X465294Y751132D01*
D02*
G37*
G36*
X524540Y740030D02*
X515270D01*
Y730760D01*
X524540D01*
Y740030D01*
D02*
G37*
G36*
X512730D02*
X503460D01*
Y730760D01*
X512730D01*
Y740030D01*
D02*
G37*
G36*
X446290Y730250D02*
X439020D01*
Y722980D01*
X446290D01*
Y730250D01*
D02*
G37*
G36*
X436480D02*
X429210D01*
Y722980D01*
X436480D01*
Y730250D01*
D02*
G37*
G36*
X321360D02*
X314090D01*
Y722980D01*
X321360D01*
Y730250D01*
D02*
G37*
G36*
X388807Y739552D02*
X386693D01*
X384650Y739005D01*
X382818Y737947D01*
X381323Y736452D01*
X380265Y734620D01*
X379718Y732577D01*
Y730463D01*
X380265Y728420D01*
X381323Y726588D01*
X382818Y725093D01*
X384650Y724035D01*
X386693Y723488D01*
X388807D01*
X390850Y724035D01*
X392682Y725093D01*
X393800Y726211D01*
X400391D01*
X426776Y699826D01*
X428498Y698675D01*
X429031Y698569D01*
Y670689D01*
X425951Y667609D01*
X374949D01*
X359028Y683530D01*
X359282Y684479D01*
Y687121D01*
X358598Y689672D01*
X357278Y691960D01*
X355410Y693828D01*
X353122Y695148D01*
X350571Y695832D01*
X347929D01*
X345378Y695148D01*
X343090Y693828D01*
X341222Y691960D01*
X339902Y689672D01*
X339218Y687121D01*
Y684479D01*
X339902Y681928D01*
X341222Y679640D01*
X343090Y677772D01*
X345378Y676452D01*
X347929Y675768D01*
X350571D01*
X351520Y676022D01*
X368996Y658546D01*
X370718Y657395D01*
X372750Y656991D01*
X428150D01*
X428150Y656991D01*
X430182Y657395D01*
X431904Y658546D01*
X438094Y664736D01*
X438094Y664736D01*
X439245Y666458D01*
X439649Y668490D01*
Y698316D01*
X441452Y698675D01*
X443174Y699826D01*
X453833Y710485D01*
X455863Y710330D01*
X456133Y709863D01*
X457963Y708033D01*
X460205Y706738D01*
X462706Y706068D01*
X465294D01*
X467795Y706738D01*
X470037Y708033D01*
X471868Y709863D01*
X473162Y712105D01*
X473832Y714606D01*
Y717194D01*
X473162Y719695D01*
X471868Y721937D01*
X470037Y723768D01*
X467795Y725062D01*
X465294Y725732D01*
X462706D01*
X460205Y725062D01*
X457963Y723768D01*
X456133Y721937D01*
X455712Y721209D01*
X451740D01*
X449708Y720805D01*
X447986Y719654D01*
X437221Y708889D01*
X432729D01*
X406344Y735274D01*
X404622Y736425D01*
X402590Y736829D01*
X402590Y736829D01*
X393800D01*
X392682Y737947D01*
X390850Y739005D01*
X388807Y739552D01*
D02*
G37*
G36*
X515321Y725932D02*
X512679D01*
X510128Y725248D01*
X507840Y723928D01*
X505972Y722060D01*
X504652Y719772D01*
X503968Y717221D01*
Y714579D01*
X504652Y712028D01*
X505972Y709740D01*
X507840Y707872D01*
X510128Y706552D01*
X512679Y705868D01*
X515321D01*
X517872Y706552D01*
X520160Y707872D01*
X522028Y709740D01*
X523348Y712028D01*
X524032Y714579D01*
Y717221D01*
X523348Y719772D01*
X522028Y722060D01*
X520160Y723928D01*
X517872Y725248D01*
X515321Y725932D01*
D02*
G37*
G36*
X465361Y700840D02*
X465270D01*
Y691770D01*
X474340D01*
Y691861D01*
X473635Y694491D01*
X472274Y696849D01*
X470349Y698774D01*
X467991Y700135D01*
X465361Y700840D01*
D02*
G37*
G36*
X462730D02*
X462639D01*
X460009Y700135D01*
X457651Y698774D01*
X455726Y696849D01*
X454365Y694491D01*
X453660Y691861D01*
Y691770D01*
X462730D01*
Y700840D01*
D02*
G37*
G36*
X515388Y701040D02*
X515270D01*
Y691770D01*
X524540D01*
Y691888D01*
X523822Y694568D01*
X522434Y696972D01*
X520472Y698934D01*
X518068Y700322D01*
X515388Y701040D01*
D02*
G37*
G36*
X287361Y700840D02*
X287270D01*
Y691770D01*
X296340D01*
Y691861D01*
X295635Y694491D01*
X294274Y696849D01*
X292349Y698774D01*
X289991Y700135D01*
X287361Y700840D01*
D02*
G37*
G36*
X284730D02*
X284639D01*
X282009Y700135D01*
X279651Y698774D01*
X277726Y696849D01*
X276365Y694491D01*
X275660Y691861D01*
Y691770D01*
X284730D01*
Y700840D01*
D02*
G37*
G36*
X512730Y701040D02*
X512612D01*
X509932Y700322D01*
X507528Y698934D01*
X505566Y696972D01*
X504178Y694568D01*
X503460Y691888D01*
Y691770D01*
X512730D01*
Y701040D01*
D02*
G37*
G36*
X376038Y696340D02*
X375920D01*
Y687070D01*
X385190D01*
Y687188D01*
X384472Y689868D01*
X383084Y692272D01*
X381122Y694234D01*
X378718Y695622D01*
X376038Y696340D01*
D02*
G37*
G36*
X373380D02*
X373262D01*
X370582Y695622D01*
X368178Y694234D01*
X366216Y692272D01*
X364828Y689868D01*
X364110Y687188D01*
Y687070D01*
X373380D01*
Y696340D01*
D02*
G37*
G36*
X474340Y689230D02*
X465270D01*
Y680160D01*
X465361D01*
X467991Y680865D01*
X470349Y682226D01*
X472274Y684151D01*
X473635Y686509D01*
X474340Y689139D01*
Y689230D01*
D02*
G37*
G36*
X462730D02*
X453660D01*
Y689139D01*
X454365Y686509D01*
X455726Y684151D01*
X457651Y682226D01*
X460009Y680865D01*
X462639Y680160D01*
X462730D01*
Y689230D01*
D02*
G37*
G36*
X296340Y689230D02*
X287270D01*
Y680160D01*
X287361D01*
X289991Y680865D01*
X292349Y682226D01*
X294274Y684151D01*
X295635Y686509D01*
X296340Y689139D01*
Y689230D01*
D02*
G37*
G36*
X284730D02*
X275660D01*
Y689139D01*
X276365Y686509D01*
X277726Y684151D01*
X279651Y682226D01*
X282009Y680865D01*
X284639Y680160D01*
X284730D01*
Y689230D01*
D02*
G37*
G36*
X524540D02*
X515270D01*
Y679960D01*
X515388D01*
X518068Y680678D01*
X520472Y682066D01*
X522434Y684028D01*
X523822Y686432D01*
X524540Y689112D01*
Y689230D01*
D02*
G37*
G36*
X512730D02*
X503460D01*
Y689112D01*
X504178Y686432D01*
X505566Y684028D01*
X507528Y682066D01*
X509932Y680678D01*
X512612Y679960D01*
X512730D01*
Y689230D01*
D02*
G37*
G36*
X385190Y684530D02*
X375920D01*
Y675260D01*
X376038D01*
X378718Y675978D01*
X381122Y677366D01*
X383084Y679328D01*
X384472Y681732D01*
X385190Y684412D01*
Y684530D01*
D02*
G37*
G36*
X373380D02*
X364110D01*
Y684412D01*
X364828Y681732D01*
X366216Y679328D01*
X368178Y677366D01*
X370582Y675978D01*
X373262Y675260D01*
X373380D01*
Y684530D01*
D02*
G37*
G36*
X465294Y674932D02*
X462706D01*
X460205Y674262D01*
X457963Y672968D01*
X456133Y671137D01*
X454838Y668895D01*
X454168Y666394D01*
Y663806D01*
X454838Y661305D01*
X456133Y659063D01*
X457963Y657233D01*
X460205Y655938D01*
X462706Y655268D01*
X465294D01*
X467795Y655938D01*
X470037Y657233D01*
X471868Y659063D01*
X473162Y661305D01*
X473832Y663806D01*
Y666394D01*
X473162Y668895D01*
X471868Y671137D01*
X470037Y672968D01*
X467795Y674262D01*
X465294Y674932D01*
D02*
G37*
G36*
X287294D02*
X284706D01*
X282205Y674262D01*
X279963Y672968D01*
X278132Y671137D01*
X276838Y668895D01*
X276168Y666394D01*
Y663806D01*
X276838Y661305D01*
X278132Y659063D01*
X279963Y657233D01*
X282205Y655938D01*
X284706Y655268D01*
X287294D01*
X289795Y655938D01*
X292037Y657233D01*
X293868Y659063D01*
X295162Y661305D01*
X295832Y663806D01*
Y666394D01*
X295162Y668895D01*
X293868Y671137D01*
X292037Y672968D01*
X289795Y674262D01*
X287294Y674932D01*
D02*
G37*
G36*
X515321Y675132D02*
X512679D01*
X510128Y674448D01*
X507840Y673128D01*
X505972Y671260D01*
X504652Y668972D01*
X503968Y666421D01*
Y663779D01*
X504652Y661228D01*
X505972Y658940D01*
X507840Y657072D01*
X510128Y655752D01*
X512679Y655068D01*
X515321D01*
X517872Y655752D01*
X520160Y657072D01*
X522028Y658940D01*
X523348Y661228D01*
X524032Y663779D01*
Y666421D01*
X523348Y668972D01*
X522028Y671260D01*
X520160Y673128D01*
X517872Y674448D01*
X515321Y675132D01*
D02*
G37*
G36*
X515388Y650240D02*
X515270D01*
Y640970D01*
X524540D01*
Y641088D01*
X523822Y643768D01*
X522434Y646172D01*
X520472Y648134D01*
X518068Y649522D01*
X515388Y650240D01*
D02*
G37*
G36*
X512730D02*
X512612D01*
X509932Y649522D01*
X507528Y648134D01*
X505566Y646172D01*
X504178Y643768D01*
X503460Y641088D01*
Y640970D01*
X512730D01*
Y650240D01*
D02*
G37*
G36*
X465294Y649532D02*
X462706D01*
X460205Y648862D01*
X457963Y647568D01*
X456133Y645737D01*
X454838Y643495D01*
X454168Y640994D01*
Y638406D01*
X454838Y635905D01*
X456133Y633663D01*
X457963Y631833D01*
X460205Y630538D01*
X462706Y629868D01*
X465294D01*
X467795Y630538D01*
X470037Y631833D01*
X471868Y633663D01*
X473162Y635905D01*
X473832Y638406D01*
Y640994D01*
X473162Y643495D01*
X471868Y645737D01*
X470037Y647568D01*
X467795Y648862D01*
X465294Y649532D01*
D02*
G37*
G36*
X287294D02*
X284706D01*
X282205Y648862D01*
X279963Y647568D01*
X278132Y645737D01*
X276838Y643495D01*
X276168Y640994D01*
Y638406D01*
X276838Y635905D01*
X278132Y633663D01*
X279963Y631833D01*
X282205Y630538D01*
X284706Y629868D01*
X287294D01*
X289795Y630538D01*
X292037Y631833D01*
X293868Y633663D01*
X295162Y635905D01*
X295832Y638406D01*
Y640994D01*
X295162Y643495D01*
X293868Y645737D01*
X292037Y647568D01*
X289795Y648862D01*
X287294Y649532D01*
D02*
G37*
G36*
X524540Y638430D02*
X515270D01*
Y629160D01*
X515388D01*
X518068Y629878D01*
X520472Y631266D01*
X522434Y633228D01*
X523822Y635632D01*
X524540Y638312D01*
Y638430D01*
D02*
G37*
G36*
X512730D02*
X503460D01*
Y638312D01*
X504178Y635632D01*
X505566Y633228D01*
X507528Y631266D01*
X509932Y629878D01*
X512612Y629160D01*
X512730D01*
Y638430D01*
D02*
G37*
G36*
X392710Y615413D02*
Y610942D01*
X397181D01*
X396348Y612952D01*
X394719Y614580D01*
X392710Y615413D01*
D02*
G37*
G36*
X390169D02*
X388160Y614580D01*
X386531Y612952D01*
X385698Y610942D01*
X390169D01*
Y615413D01*
D02*
G37*
G36*
X407670Y615341D02*
Y610870D01*
X412141D01*
X411309Y612880D01*
X409680Y614509D01*
X407670Y615341D01*
D02*
G37*
G36*
X405130D02*
X403120Y614509D01*
X401491Y612880D01*
X400659Y610870D01*
X405130D01*
Y615341D01*
D02*
G37*
G36*
X375920D02*
Y610870D01*
X380391D01*
X379559Y612880D01*
X377930Y614509D01*
X375920Y615341D01*
D02*
G37*
G36*
X373380D02*
X371370Y614509D01*
X369741Y612880D01*
X368909Y610870D01*
X373380D01*
Y615341D01*
D02*
G37*
G36*
X360680D02*
Y610870D01*
X365151D01*
X364319Y612880D01*
X362690Y614509D01*
X360680Y615341D01*
D02*
G37*
G36*
X358140D02*
X356130Y614509D01*
X354501Y612880D01*
X353669Y610870D01*
X358140D01*
Y615341D01*
D02*
G37*
G36*
X465294Y624132D02*
X462706D01*
X460205Y623462D01*
X457963Y622168D01*
X456133Y620337D01*
X454838Y618095D01*
X454168Y615594D01*
Y613006D01*
X454838Y610505D01*
X456133Y608263D01*
X457963Y606432D01*
X460205Y605138D01*
X462706Y604468D01*
X465294D01*
X467795Y605138D01*
X470037Y606432D01*
X471868Y608263D01*
X473162Y610505D01*
X473832Y613006D01*
Y615594D01*
X473162Y618095D01*
X471868Y620337D01*
X470037Y622168D01*
X467795Y623462D01*
X465294Y624132D01*
D02*
G37*
G36*
X287294D02*
X284706D01*
X282205Y623462D01*
X279963Y622168D01*
X278132Y620337D01*
X276838Y618095D01*
X276168Y615594D01*
Y613006D01*
X276838Y610505D01*
X278132Y608263D01*
X279963Y606432D01*
X282205Y605138D01*
X284706Y604468D01*
X287294D01*
X289795Y605138D01*
X292037Y606432D01*
X293868Y608263D01*
X295162Y610505D01*
X295832Y613006D01*
Y615594D01*
X295162Y618095D01*
X293868Y620337D01*
X292037Y622168D01*
X289795Y623462D01*
X287294Y624132D01*
D02*
G37*
G36*
X515321Y624332D02*
X512679D01*
X510128Y623648D01*
X507840Y622328D01*
X505972Y620460D01*
X504652Y618172D01*
X503968Y615621D01*
Y612979D01*
X504652Y610428D01*
X505972Y608140D01*
X507840Y606272D01*
X510128Y604952D01*
X512679Y604268D01*
X515321D01*
X517872Y604952D01*
X520160Y606272D01*
X522028Y608140D01*
X523348Y610428D01*
X524032Y612979D01*
Y615621D01*
X523348Y618172D01*
X522028Y620460D01*
X520160Y622328D01*
X517872Y623648D01*
X515321Y624332D01*
D02*
G37*
G36*
X397181Y608402D02*
X392710D01*
Y603930D01*
X394719Y604763D01*
X396348Y606392D01*
X397181Y608402D01*
D02*
G37*
G36*
X390169D02*
X385698D01*
X386531Y606392D01*
X388160Y604763D01*
X390169Y603930D01*
Y608402D01*
D02*
G37*
G36*
X412141Y608330D02*
X407670D01*
Y603859D01*
X409680Y604691D01*
X411309Y606320D01*
X412141Y608330D01*
D02*
G37*
G36*
X405130D02*
X400659D01*
X401491Y606320D01*
X403120Y604691D01*
X405130Y603859D01*
Y608330D01*
D02*
G37*
G36*
X380391D02*
X375920D01*
Y603859D01*
X377930Y604691D01*
X379559Y606320D01*
X380391Y608330D01*
D02*
G37*
G36*
X373380D02*
X368909D01*
X369741Y606320D01*
X371370Y604691D01*
X373380Y603859D01*
Y608330D01*
D02*
G37*
G36*
X365151D02*
X360680D01*
Y603859D01*
X362690Y604691D01*
X364319Y606320D01*
X365151Y608330D01*
D02*
G37*
G36*
X358140D02*
X353669D01*
X354501Y606320D01*
X356130Y604691D01*
X358140Y603859D01*
Y608330D01*
D02*
G37*
G36*
X515388Y599440D02*
X515270D01*
Y590170D01*
X524540D01*
Y590288D01*
X523822Y592968D01*
X522434Y595372D01*
X520472Y597334D01*
X518068Y598722D01*
X515388Y599440D01*
D02*
G37*
G36*
X512730D02*
X512612D01*
X509932Y598722D01*
X507528Y597334D01*
X505566Y595372D01*
X504178Y592968D01*
X503460Y590288D01*
Y590170D01*
X512730D01*
Y599440D01*
D02*
G37*
G36*
X465294Y598732D02*
X462706D01*
X460205Y598062D01*
X457963Y596768D01*
X456133Y594937D01*
X454838Y592695D01*
X454168Y590194D01*
Y587606D01*
X454838Y585105D01*
X456133Y582863D01*
X457963Y581032D01*
X460205Y579738D01*
X462706Y579068D01*
X465294D01*
X467795Y579738D01*
X470037Y581032D01*
X471868Y582863D01*
X473162Y585105D01*
X473832Y587606D01*
Y590194D01*
X473162Y592695D01*
X471868Y594937D01*
X470037Y596768D01*
X467795Y598062D01*
X465294Y598732D01*
D02*
G37*
G36*
X287294D02*
X284706D01*
X282205Y598062D01*
X279963Y596768D01*
X278132Y594937D01*
X276838Y592695D01*
X276168Y590194D01*
Y587606D01*
X276838Y585105D01*
X278132Y582863D01*
X279963Y581032D01*
X282205Y579738D01*
X284706Y579068D01*
X287294D01*
X289795Y579738D01*
X292037Y581032D01*
X293868Y582863D01*
X295162Y585105D01*
X295832Y587606D01*
Y590194D01*
X295162Y592695D01*
X293868Y594937D01*
X292037Y596768D01*
X289795Y598062D01*
X287294Y598732D01*
D02*
G37*
G36*
X524540Y587630D02*
X515270D01*
Y578360D01*
X515388D01*
X518068Y579078D01*
X520472Y580466D01*
X522434Y582428D01*
X523822Y584832D01*
X524540Y587512D01*
Y587630D01*
D02*
G37*
G36*
X512730D02*
X503460D01*
Y587512D01*
X504178Y584832D01*
X505566Y582428D01*
X507528Y580466D01*
X509932Y579078D01*
X512612Y578360D01*
X512730D01*
Y587630D01*
D02*
G37*
G36*
X465361Y573840D02*
X465270D01*
Y564770D01*
X474340D01*
Y564861D01*
X473635Y567491D01*
X472274Y569849D01*
X470349Y571774D01*
X467991Y573135D01*
X465361Y573840D01*
D02*
G37*
G36*
X462730D02*
X462639D01*
X460009Y573135D01*
X457651Y571774D01*
X455726Y569849D01*
X454365Y567491D01*
X453660Y564861D01*
Y564770D01*
X462730D01*
Y573840D01*
D02*
G37*
G36*
X287361D02*
X287270D01*
Y564770D01*
X296340D01*
Y564861D01*
X295635Y567491D01*
X294274Y569849D01*
X292349Y571774D01*
X289991Y573135D01*
X287361Y573840D01*
D02*
G37*
G36*
X284730D02*
X284639D01*
X282009Y573135D01*
X279651Y571774D01*
X277726Y569849D01*
X276365Y567491D01*
X275660Y564861D01*
Y564770D01*
X284730D01*
Y573840D01*
D02*
G37*
G36*
X515321Y573532D02*
X512679D01*
X510128Y572848D01*
X507840Y571528D01*
X505972Y569660D01*
X504652Y567372D01*
X503968Y564821D01*
Y562179D01*
X504652Y559628D01*
X505972Y557340D01*
X507840Y555472D01*
X510128Y554152D01*
X512679Y553468D01*
X515321D01*
X517872Y554152D01*
X520160Y555472D01*
X522028Y557340D01*
X523348Y559628D01*
X524032Y562179D01*
Y564821D01*
X523348Y567372D01*
X522028Y569660D01*
X520160Y571528D01*
X517872Y572848D01*
X515321Y573532D01*
D02*
G37*
G36*
X474340Y562230D02*
X465270D01*
Y553160D01*
X465361D01*
X467991Y553865D01*
X470349Y555226D01*
X472274Y557151D01*
X473635Y559509D01*
X474340Y562139D01*
Y562230D01*
D02*
G37*
G36*
X462730D02*
X453660D01*
Y562139D01*
X454365Y559509D01*
X455726Y557151D01*
X457651Y555226D01*
X460009Y553865D01*
X462639Y553160D01*
X462730D01*
Y562230D01*
D02*
G37*
G36*
X296340Y562230D02*
X287270D01*
Y553160D01*
X287361D01*
X289991Y553865D01*
X292349Y555226D01*
X294274Y557151D01*
X295635Y559509D01*
X296340Y562139D01*
Y562230D01*
D02*
G37*
G36*
X284730D02*
X275660D01*
Y562139D01*
X276365Y559509D01*
X277726Y557151D01*
X279651Y555226D01*
X282009Y553865D01*
X284639Y553160D01*
X284730D01*
Y562230D01*
D02*
G37*
G36*
X515388Y548640D02*
X515270D01*
Y539370D01*
X524540D01*
Y539488D01*
X523822Y542168D01*
X522434Y544572D01*
X520472Y546534D01*
X518068Y547922D01*
X515388Y548640D01*
D02*
G37*
G36*
X512730D02*
X512612D01*
X509932Y547922D01*
X507528Y546534D01*
X505566Y544572D01*
X504178Y542168D01*
X503460Y539488D01*
Y539370D01*
X512730D01*
Y548640D01*
D02*
G37*
G36*
X465294Y547932D02*
X462706D01*
X460205Y547262D01*
X457963Y545968D01*
X456133Y544137D01*
X454838Y541895D01*
X454168Y539394D01*
Y536806D01*
X454838Y534305D01*
X456133Y532063D01*
X457963Y530233D01*
X460205Y528938D01*
X462706Y528268D01*
X465294D01*
X467795Y528938D01*
X470037Y530233D01*
X471868Y532063D01*
X473162Y534305D01*
X473832Y536806D01*
Y539394D01*
X473162Y541895D01*
X471868Y544137D01*
X470037Y545968D01*
X467795Y547262D01*
X465294Y547932D01*
D02*
G37*
G36*
X287294D02*
X284706D01*
X282205Y547262D01*
X279963Y545968D01*
X278132Y544137D01*
X276838Y541895D01*
X276168Y539394D01*
Y536806D01*
X276838Y534305D01*
X278132Y532063D01*
X279963Y530233D01*
X282205Y528938D01*
X284706Y528268D01*
X287294D01*
X289795Y528938D01*
X292037Y530233D01*
X293868Y532063D01*
X295162Y534305D01*
X295832Y536806D01*
Y539394D01*
X295162Y541895D01*
X293868Y544137D01*
X292037Y545968D01*
X289795Y547262D01*
X287294Y547932D01*
D02*
G37*
G36*
X524540Y536830D02*
X515270D01*
Y527560D01*
X515388D01*
X518068Y528278D01*
X520472Y529666D01*
X522434Y531628D01*
X523822Y534032D01*
X524540Y536712D01*
Y536830D01*
D02*
G37*
G36*
X512730D02*
X503460D01*
Y536712D01*
X504178Y534032D01*
X505566Y531628D01*
X507528Y529666D01*
X509932Y528278D01*
X512612Y527560D01*
X512730D01*
Y536830D01*
D02*
G37*
G36*
X465294Y522532D02*
X462706D01*
X460205Y521862D01*
X457963Y520568D01*
X456133Y518737D01*
X454838Y516495D01*
X454168Y513994D01*
Y511406D01*
X454838Y508905D01*
X456133Y506663D01*
X457963Y504832D01*
X460205Y503538D01*
X462706Y502868D01*
X465294D01*
X467795Y503538D01*
X470037Y504832D01*
X471868Y506663D01*
X473162Y508905D01*
X473832Y511406D01*
Y513994D01*
X473162Y516495D01*
X471868Y518737D01*
X470037Y520568D01*
X467795Y521862D01*
X465294Y522532D01*
D02*
G37*
G36*
X287294D02*
X284706D01*
X282205Y521862D01*
X279963Y520568D01*
X278132Y518737D01*
X276838Y516495D01*
X276168Y513994D01*
Y511406D01*
X276838Y508905D01*
X278132Y506663D01*
X279963Y504832D01*
X282205Y503538D01*
X284706Y502868D01*
X287294D01*
X289795Y503538D01*
X292037Y504832D01*
X293868Y506663D01*
X295162Y508905D01*
X295832Y511406D01*
Y513994D01*
X295162Y516495D01*
X293868Y518737D01*
X292037Y520568D01*
X289795Y521862D01*
X287294Y522532D01*
D02*
G37*
G36*
X515321Y522732D02*
X512679D01*
X510128Y522048D01*
X507840Y520728D01*
X505972Y518860D01*
X504652Y516572D01*
X503968Y514021D01*
Y511379D01*
X504652Y508828D01*
X505972Y506540D01*
X507840Y504672D01*
X510128Y503352D01*
X512679Y502668D01*
X515321D01*
X517872Y503352D01*
X520160Y504672D01*
X522028Y506540D01*
X523348Y508828D01*
X524032Y511379D01*
Y514021D01*
X523348Y516572D01*
X522028Y518860D01*
X520160Y520728D01*
X517872Y522048D01*
X515321Y522732D01*
D02*
G37*
G36*
X515388Y497840D02*
X515270D01*
Y488570D01*
X524540D01*
Y488688D01*
X523822Y491368D01*
X522434Y493772D01*
X520472Y495734D01*
X518068Y497122D01*
X515388Y497840D01*
D02*
G37*
G36*
X512730D02*
X512612D01*
X509932Y497122D01*
X507528Y495734D01*
X505566Y493772D01*
X504178Y491368D01*
X503460Y488688D01*
Y488570D01*
X512730D01*
Y497840D01*
D02*
G37*
G36*
X465294Y497132D02*
X462706D01*
X460205Y496462D01*
X457963Y495168D01*
X456133Y493337D01*
X454838Y491095D01*
X454168Y488594D01*
Y486006D01*
X454838Y483505D01*
X456133Y481263D01*
X457963Y479432D01*
X460205Y478138D01*
X462706Y477468D01*
X465294D01*
X467795Y478138D01*
X470037Y479432D01*
X471868Y481263D01*
X473162Y483505D01*
X473832Y486006D01*
Y488594D01*
X473162Y491095D01*
X471868Y493337D01*
X470037Y495168D01*
X467795Y496462D01*
X465294Y497132D01*
D02*
G37*
G36*
X524540Y486030D02*
X515270D01*
Y476760D01*
X515388D01*
X518068Y477478D01*
X520472Y478866D01*
X522434Y480828D01*
X523822Y483232D01*
X524540Y485912D01*
Y486030D01*
D02*
G37*
G36*
X512730D02*
X503460D01*
Y485912D01*
X504178Y483232D01*
X505566Y480828D01*
X507528Y478866D01*
X509932Y477478D01*
X512612Y476760D01*
X512730D01*
Y486030D01*
D02*
G37*
G36*
X465294Y471732D02*
X462706D01*
X460205Y471062D01*
X457963Y469768D01*
X456133Y467937D01*
X454838Y465695D01*
X454168Y463194D01*
Y460606D01*
X454838Y458105D01*
X456133Y455863D01*
X457963Y454033D01*
X460205Y452738D01*
X462706Y452068D01*
X465294D01*
X467795Y452738D01*
X470037Y454033D01*
X471868Y455863D01*
X473162Y458105D01*
X473832Y460606D01*
Y463194D01*
X473162Y465695D01*
X471868Y467937D01*
X470037Y469768D01*
X467795Y471062D01*
X465294Y471732D01*
D02*
G37*
G36*
X515321Y471932D02*
X512679D01*
X510128Y471248D01*
X507840Y469928D01*
X505972Y468060D01*
X504652Y465772D01*
X503968Y463221D01*
Y460579D01*
X504652Y458028D01*
X505972Y455740D01*
X507840Y453872D01*
X510128Y452552D01*
X512679Y451868D01*
X515321D01*
X517872Y452552D01*
X520160Y453872D01*
X522028Y455740D01*
X523348Y458028D01*
X524032Y460579D01*
Y463221D01*
X523348Y465772D01*
X522028Y468060D01*
X520160Y469928D01*
X517872Y471248D01*
X515321Y471932D01*
D02*
G37*
G36*
X465361Y446840D02*
X465270D01*
Y437770D01*
X474340D01*
Y437861D01*
X473635Y440491D01*
X472274Y442849D01*
X470349Y444774D01*
X467991Y446135D01*
X465361Y446840D01*
D02*
G37*
G36*
X462730D02*
X462639D01*
X460009Y446135D01*
X457651Y444774D01*
X455726Y442849D01*
X454365Y440491D01*
X453660Y437861D01*
Y437770D01*
X462730D01*
Y446840D01*
D02*
G37*
G36*
X287361D02*
X287270D01*
Y437770D01*
X296340D01*
Y437861D01*
X295635Y440491D01*
X294274Y442849D01*
X292349Y444774D01*
X289991Y446135D01*
X287361Y446840D01*
D02*
G37*
G36*
X382270Y431191D02*
Y426720D01*
X386741D01*
X385909Y428730D01*
X384280Y430359D01*
X382270Y431191D01*
D02*
G37*
G36*
X379730D02*
X377720Y430359D01*
X376091Y428730D01*
X375259Y426720D01*
X379730D01*
Y431191D01*
D02*
G37*
G36*
X313690D02*
Y426720D01*
X318161D01*
X317329Y428730D01*
X315700Y430359D01*
X313690Y431191D01*
D02*
G37*
G36*
X311150D02*
X309140Y430359D01*
X307511Y428730D01*
X306679Y426720D01*
X311150D01*
Y431191D01*
D02*
G37*
G36*
X474340Y435230D02*
X465270D01*
Y426160D01*
X465361D01*
X467991Y426865D01*
X470349Y428226D01*
X472274Y430151D01*
X473635Y432509D01*
X474340Y435139D01*
Y435230D01*
D02*
G37*
G36*
X462730D02*
X453660D01*
Y435139D01*
X454365Y432509D01*
X455726Y430151D01*
X457651Y428226D01*
X460009Y426865D01*
X462639Y426160D01*
X462730D01*
Y435230D01*
D02*
G37*
G36*
X296340Y435230D02*
X287270D01*
Y426160D01*
X287361D01*
X289991Y426865D01*
X292349Y428226D01*
X294274Y430151D01*
X295635Y432509D01*
X296340Y435139D01*
Y435230D01*
D02*
G37*
G36*
X386741Y424180D02*
X382270D01*
Y419709D01*
X384280Y420541D01*
X385909Y422170D01*
X386741Y424180D01*
D02*
G37*
G36*
X379730D02*
X375259D01*
X376091Y422170D01*
X377720Y420541D01*
X379730Y419709D01*
Y424180D01*
D02*
G37*
G36*
X318161D02*
X313690D01*
Y419709D01*
X315700Y420541D01*
X317329Y422170D01*
X318161Y424180D01*
D02*
G37*
G36*
X311150D02*
X306679D01*
X307511Y422170D01*
X309140Y420541D01*
X311150Y419709D01*
Y424180D01*
D02*
G37*
G36*
X515388Y421640D02*
X515270D01*
Y412370D01*
X524540D01*
Y412488D01*
X523822Y415168D01*
X522434Y417572D01*
X520472Y419534D01*
X518068Y420922D01*
X515388Y421640D01*
D02*
G37*
G36*
X512730D02*
X512612D01*
X509932Y420922D01*
X507528Y419534D01*
X505566Y417572D01*
X504178Y415168D01*
X503460Y412488D01*
Y412370D01*
X512730D01*
Y421640D01*
D02*
G37*
G36*
X317500Y405791D02*
Y401320D01*
X321971D01*
X321139Y403330D01*
X319510Y404959D01*
X317500Y405791D01*
D02*
G37*
G36*
X314960D02*
X312950Y404959D01*
X311321Y403330D01*
X310489Y401320D01*
X314960D01*
Y405791D01*
D02*
G37*
G36*
X465294Y420932D02*
X462706D01*
X460205Y420262D01*
X457963Y418968D01*
X456133Y417137D01*
X454838Y414895D01*
X454168Y412394D01*
Y409806D01*
X454838Y407305D01*
X456133Y405063D01*
X457963Y403232D01*
X460205Y401938D01*
X462706Y401268D01*
X465294D01*
X467795Y401938D01*
X470037Y403232D01*
X471868Y405063D01*
X473162Y407305D01*
X473832Y409806D01*
Y412394D01*
X473162Y414895D01*
X471868Y417137D01*
X470037Y418968D01*
X467795Y420262D01*
X465294Y420932D01*
D02*
G37*
G36*
X524540Y409830D02*
X515270D01*
Y400560D01*
X515388D01*
X518068Y401278D01*
X520472Y402666D01*
X522434Y404628D01*
X523822Y407032D01*
X524540Y409712D01*
Y409830D01*
D02*
G37*
G36*
X512730D02*
X503460D01*
Y409712D01*
X504178Y407032D01*
X505566Y404628D01*
X507528Y402666D01*
X509932Y401278D01*
X512612Y400560D01*
X512730D01*
Y409830D01*
D02*
G37*
G36*
X399831Y405332D02*
X397729D01*
X395788Y404528D01*
X394302Y403042D01*
X393498Y401101D01*
Y398999D01*
X394302Y397058D01*
X394328Y397032D01*
Y394903D01*
X394057Y394632D01*
X392462Y393788D01*
X391200Y394140D01*
X389806Y394140D01*
X386180D01*
Y387350D01*
Y380560D01*
X389806D01*
X391200Y380560D01*
X393022Y381068D01*
X404110D01*
Y375582D01*
X399122D01*
X397300Y376090D01*
X396406Y376090D01*
X391530D01*
Y368300D01*
X390260D01*
Y367030D01*
X383220D01*
Y360510D01*
X383738D01*
X384228Y359868D01*
X384815Y358478D01*
X384149Y356870D01*
X395631D01*
X394965Y358478D01*
X395552Y359868D01*
X396042Y360510D01*
X397300Y360510D01*
X399122Y361018D01*
X411292D01*
Y370925D01*
X411362Y371276D01*
X411362Y371276D01*
Y381068D01*
X413976D01*
X414572Y381068D01*
X416481Y380771D01*
Y335130D01*
X416481Y335130D01*
X416885Y333098D01*
X418036Y331376D01*
X434111Y315301D01*
Y250190D01*
X434111Y250190D01*
X434515Y248158D01*
X435666Y246436D01*
X448366Y233736D01*
X448366Y233736D01*
X450088Y232585D01*
X452120Y232181D01*
X452120Y232181D01*
X492790D01*
X492790Y232181D01*
X494822Y232585D01*
X496544Y233736D01*
X506814Y244006D01*
X508691Y243228D01*
Y195585D01*
X503989Y190883D01*
X503858Y190951D01*
X503858Y190951D01*
X502092Y191859D01*
X502092Y192970D01*
Y220272D01*
X488028D01*
Y201794D01*
X486045D01*
X486045Y201794D01*
X484013Y201390D01*
X482291Y200239D01*
X482291Y200239D01*
X474124Y192072D01*
X472092Y192914D01*
Y220272D01*
X458036D01*
X437380Y240928D01*
X436542Y241488D01*
X436062Y241968D01*
X434121Y242772D01*
X432019D01*
X430078Y241968D01*
X428592Y240482D01*
X427788Y238541D01*
Y236439D01*
X428592Y234498D01*
X430078Y233012D01*
X430423Y232869D01*
X452171Y211121D01*
X452171Y211121D01*
X453893Y209970D01*
X455925Y209566D01*
X455925Y209566D01*
X458028D01*
Y191208D01*
X470394D01*
X470722Y190884D01*
X471430Y189176D01*
X470685Y188062D01*
X470281Y186030D01*
X470281Y186030D01*
Y178282D01*
X470536Y177002D01*
Y174527D01*
X470920Y172593D01*
X472016Y170953D01*
X473656Y169857D01*
X475590Y169473D01*
X477524Y169857D01*
X479164Y170953D01*
X480260Y172593D01*
X480644Y174527D01*
Y177002D01*
X480899Y178282D01*
Y183831D01*
X488244Y191176D01*
X493235D01*
X493235Y191176D01*
X493397Y191208D01*
X500183D01*
X501441Y191208D01*
X502417Y189310D01*
X499471Y186365D01*
X498320Y184642D01*
X497916Y182611D01*
X496439Y181442D01*
X494868D01*
Y179894D01*
X493394D01*
X491362Y179490D01*
X489640Y178339D01*
X481336Y170035D01*
X480185Y168313D01*
X479781Y166281D01*
X479781Y166281D01*
Y157480D01*
X480036Y156200D01*
Y153725D01*
X480420Y151791D01*
X481516Y150151D01*
X483156Y149056D01*
X485090Y148671D01*
X487024Y149056D01*
X488664Y150151D01*
X489760Y151791D01*
X490144Y153725D01*
Y156200D01*
X490399Y157480D01*
Y164082D01*
X492836Y166519D01*
X494868Y165677D01*
Y156378D01*
X508432D01*
Y157101D01*
X510857D01*
Y155379D01*
X522921D01*
Y167443D01*
X517279D01*
X515890Y167719D01*
X515890Y167719D01*
X511580D01*
X510493Y169290D01*
X510947Y169871D01*
X515619D01*
Y176411D01*
Y182951D01*
X513728D01*
X512951Y184828D01*
X517754Y189632D01*
X517754Y189632D01*
X518905Y191354D01*
X519309Y193386D01*
Y250181D01*
X520160Y250672D01*
X522028Y252540D01*
X523348Y254828D01*
X524032Y257379D01*
Y260021D01*
X523348Y262572D01*
X522028Y264860D01*
X520160Y266728D01*
X517872Y268048D01*
X515321Y268732D01*
X512679D01*
X510128Y268048D01*
X507840Y266728D01*
X505972Y264860D01*
X504652Y262572D01*
X503968Y260021D01*
Y257379D01*
X504222Y256430D01*
X490591Y242799D01*
X454319D01*
X444729Y252389D01*
Y317500D01*
X444729Y317500D01*
X444325Y319532D01*
X443174Y321254D01*
X443174Y321254D01*
X427099Y337329D01*
Y381068D01*
X427572D01*
Y393632D01*
X416604D01*
X414572Y393632D01*
X413976Y393632D01*
X401994D01*
X401864Y395664D01*
X403258Y397058D01*
X404062Y398999D01*
Y401101D01*
X403258Y403042D01*
X401772Y404528D01*
X399831Y405332D01*
D02*
G37*
G36*
X363220Y421869D02*
X363085Y421842D01*
X362169D01*
X361323Y421492D01*
X361188Y421465D01*
X361074Y421389D01*
X360228Y421038D01*
X359580Y420390D01*
X359466Y420314D01*
X359390Y420200D01*
X358742Y419552D01*
X358391Y418706D01*
X358315Y418592D01*
X358288Y418457D01*
X357938Y417611D01*
Y416695D01*
X357911Y416560D01*
X357938Y416425D01*
Y415509D01*
X358061Y415212D01*
Y393929D01*
X356152Y393632D01*
X355716Y393632D01*
X354874Y395664D01*
X354998Y395788D01*
X355802Y397729D01*
Y399831D01*
X354998Y401772D01*
X353512Y403258D01*
X351571Y404062D01*
X349469D01*
X347528Y403258D01*
X346042Y401772D01*
X345238Y399831D01*
Y397729D01*
X346042Y395788D01*
X346166Y395664D01*
X345324Y393632D01*
X334602D01*
X332780Y394140D01*
X331386Y394140D01*
X327760D01*
Y387350D01*
Y380560D01*
X331386D01*
X332780Y380560D01*
X334602Y381068D01*
X345320D01*
Y376852D01*
X340332D01*
X338510Y377360D01*
X337616Y377360D01*
X332740D01*
Y369570D01*
X331470D01*
Y368300D01*
X324430D01*
Y361780D01*
X327844D01*
Y355600D01*
X328120Y354212D01*
X328906Y353036D01*
X330083Y352250D01*
X331470Y351974D01*
X339607D01*
X340890Y350691D01*
X342900Y349859D01*
Y355600D01*
X344170D01*
Y356870D01*
X349911D01*
X349079Y358880D01*
X347703Y360256D01*
X347912Y361448D01*
X348326Y362288D01*
X352502D01*
Y372196D01*
X352572Y372546D01*
X352572Y372546D01*
Y379631D01*
X354008Y381068D01*
X357588Y381068D01*
X358184Y381068D01*
X369152D01*
Y393632D01*
X368679D01*
Y416410D01*
X368679Y416410D01*
X368502Y417299D01*
Y417611D01*
X368383Y417899D01*
X368275Y418442D01*
X367967Y418902D01*
X367698Y419552D01*
X367200Y420050D01*
X367124Y420164D01*
X366974Y420314D01*
X366860Y420390D01*
X366212Y421038D01*
X365366Y421389D01*
X365252Y421465D01*
X365117Y421492D01*
X364271Y421842D01*
X363355D01*
X363220Y421869D01*
D02*
G37*
G36*
X383640Y394140D02*
X378620D01*
Y388620D01*
X383640D01*
Y394140D01*
D02*
G37*
G36*
Y386080D02*
X378620D01*
Y380560D01*
X383640D01*
Y386080D01*
D02*
G37*
G36*
X321971Y398780D02*
X310489D01*
X311321Y396770D01*
X312604Y395487D01*
Y389890D01*
X312604Y389890D01*
X312880Y388503D01*
X313666Y387326D01*
X316206Y384786D01*
X316206Y384786D01*
X317383Y384000D01*
X318770Y383724D01*
X320200D01*
Y380560D01*
X325220D01*
Y387350D01*
Y394140D01*
X321382D01*
X320541Y396172D01*
X321139Y396770D01*
X321971Y398780D01*
D02*
G37*
G36*
X465294Y395532D02*
X462706D01*
X460205Y394862D01*
X457963Y393568D01*
X456133Y391737D01*
X454838Y389495D01*
X454168Y386994D01*
Y384406D01*
X454838Y381905D01*
X456133Y379663D01*
X457963Y377832D01*
X460205Y376538D01*
X462706Y375868D01*
X465294D01*
X467795Y376538D01*
X470037Y377832D01*
X471868Y379663D01*
X473162Y381905D01*
X473832Y384406D01*
Y386994D01*
X473162Y389495D01*
X471868Y391737D01*
X470037Y393568D01*
X467795Y394862D01*
X465294Y395532D01*
D02*
G37*
G36*
X515321Y395732D02*
X512679D01*
X510128Y395048D01*
X507840Y393728D01*
X505972Y391860D01*
X504652Y389572D01*
X503968Y387021D01*
Y384379D01*
X504652Y381828D01*
X504779Y381607D01*
X487098Y363926D01*
X473207D01*
X473162Y364095D01*
X471868Y366337D01*
X470037Y368168D01*
X467795Y369462D01*
X465294Y370132D01*
X462706D01*
X460205Y369462D01*
X457963Y368168D01*
X456133Y366337D01*
X454838Y364095D01*
X454168Y361594D01*
Y359006D01*
X454838Y356505D01*
X456133Y354263D01*
X457963Y352433D01*
X460205Y351138D01*
X462706Y350468D01*
X465294D01*
X467795Y351138D01*
X470037Y352433D01*
X471868Y354263D01*
X473162Y356505D01*
X473207Y356674D01*
X488600D01*
X488600Y356674D01*
X489987Y356950D01*
X491164Y357736D01*
X509907Y376479D01*
X510128Y376352D01*
X512679Y375668D01*
X515321D01*
X517872Y376352D01*
X520160Y377672D01*
X522028Y379540D01*
X523348Y381828D01*
X524032Y384379D01*
Y387021D01*
X523348Y389572D01*
X522028Y391860D01*
X520160Y393728D01*
X517872Y395048D01*
X515321Y395732D01*
D02*
G37*
G36*
X330200Y377360D02*
X324430D01*
Y370840D01*
X330200D01*
Y377360D01*
D02*
G37*
G36*
X388990Y376090D02*
X383220D01*
Y369570D01*
X388990D01*
Y376090D01*
D02*
G37*
G36*
X515321Y370332D02*
X512679D01*
X510128Y369648D01*
X507840Y368328D01*
X505972Y366460D01*
X504652Y364172D01*
X503968Y361621D01*
Y358979D01*
X504652Y356428D01*
X504779Y356207D01*
X487098Y338526D01*
X473207D01*
X473162Y338695D01*
X471868Y340937D01*
X470037Y342768D01*
X467795Y344062D01*
X465294Y344732D01*
X462706D01*
X460205Y344062D01*
X457963Y342768D01*
X456133Y340937D01*
X454838Y338695D01*
X454168Y336194D01*
Y333606D01*
X454838Y331105D01*
X456133Y328863D01*
X457963Y327033D01*
X460205Y325738D01*
X462706Y325068D01*
X465294D01*
X467795Y325738D01*
X470037Y327033D01*
X471868Y328863D01*
X473162Y331105D01*
X473207Y331274D01*
X488600D01*
X488600Y331274D01*
X489987Y331550D01*
X491164Y332336D01*
X509907Y351079D01*
X510128Y350952D01*
X512679Y350268D01*
X515321D01*
X517872Y350952D01*
X520160Y352272D01*
X522028Y354140D01*
X523348Y356428D01*
X524032Y358979D01*
Y361621D01*
X523348Y364172D01*
X522028Y366460D01*
X520160Y368328D01*
X517872Y369648D01*
X515321Y370332D01*
D02*
G37*
G36*
X395631Y354330D02*
X391160D01*
Y349859D01*
X393170Y350691D01*
X394799Y352320D01*
X395631Y354330D01*
D02*
G37*
G36*
X388620D02*
X384149D01*
X384981Y352320D01*
X386610Y350691D01*
X388620Y349859D01*
Y354330D01*
D02*
G37*
G36*
X349911D02*
X345440D01*
Y349859D01*
X347450Y350691D01*
X349079Y352320D01*
X349911Y354330D01*
D02*
G37*
G36*
X367030Y352451D02*
Y347980D01*
X371501D01*
X370669Y349990D01*
X369040Y351619D01*
X367030Y352451D01*
D02*
G37*
G36*
X364490D02*
X362480Y351619D01*
X360851Y349990D01*
X360019Y347980D01*
X364490D01*
Y352451D01*
D02*
G37*
G36*
X371501Y345440D02*
X367030D01*
Y340969D01*
X369040Y341801D01*
X370669Y343430D01*
X371501Y345440D01*
D02*
G37*
G36*
X364490D02*
X360019D01*
X360851Y343430D01*
X362480Y341801D01*
X364490Y340969D01*
Y345440D01*
D02*
G37*
G36*
X515388D02*
X515270D01*
Y336170D01*
X524540D01*
Y336288D01*
X523822Y338968D01*
X522434Y341372D01*
X520472Y343334D01*
X518068Y344722D01*
X515388Y345440D01*
D02*
G37*
G36*
X512730D02*
X512612D01*
X509932Y344722D01*
X507528Y343334D01*
X505566Y341372D01*
X504178Y338968D01*
X503460Y336288D01*
Y336170D01*
X512730D01*
Y345440D01*
D02*
G37*
G36*
X524540Y333630D02*
X515270D01*
Y324360D01*
X515388D01*
X518068Y325078D01*
X520472Y326466D01*
X522434Y328428D01*
X523822Y330832D01*
X524540Y333512D01*
Y333630D01*
D02*
G37*
G36*
X512730D02*
X503460D01*
Y333512D01*
X504178Y330832D01*
X505566Y328428D01*
X507528Y326466D01*
X509932Y325078D01*
X512612Y324360D01*
X512730D01*
Y333630D01*
D02*
G37*
G36*
X465361Y319840D02*
X465270D01*
Y310770D01*
X474340D01*
Y310861D01*
X473635Y313491D01*
X472274Y315849D01*
X470349Y317774D01*
X467991Y319135D01*
X465361Y319840D01*
D02*
G37*
G36*
X462730D02*
X462639D01*
X460009Y319135D01*
X457651Y317774D01*
X455726Y315849D01*
X454365Y313491D01*
X453660Y310861D01*
Y310770D01*
X462730D01*
Y319840D01*
D02*
G37*
G36*
X287361D02*
X287270D01*
Y310770D01*
X296340D01*
Y310861D01*
X295635Y313491D01*
X294274Y315849D01*
X292349Y317774D01*
X289991Y319135D01*
X287361Y319840D01*
D02*
G37*
G36*
X426081Y310631D02*
X419155D01*
Y304800D01*
X426081D01*
Y310631D01*
D02*
G37*
G36*
X515321Y319532D02*
X512679D01*
X510128Y318848D01*
X507840Y317528D01*
X505972Y315660D01*
X504652Y313372D01*
X503968Y310821D01*
Y308179D01*
X504652Y305628D01*
X504779Y305407D01*
X487098Y287726D01*
X473207D01*
X473162Y287895D01*
X471868Y290137D01*
X470037Y291968D01*
X467795Y293262D01*
X465294Y293932D01*
X462706D01*
X460205Y293262D01*
X457963Y291968D01*
X456133Y290137D01*
X454838Y287895D01*
X454168Y285394D01*
Y282806D01*
X454838Y280305D01*
X456133Y278063D01*
X457963Y276232D01*
X460205Y274938D01*
X462706Y274268D01*
X465294D01*
X467795Y274938D01*
X470037Y276232D01*
X471868Y278063D01*
X473162Y280305D01*
X473207Y280474D01*
X488600D01*
X488600Y280474D01*
X489987Y280750D01*
X491164Y281536D01*
X509907Y300279D01*
X510128Y300152D01*
X512679Y299468D01*
X515321D01*
X517872Y300152D01*
X520160Y301472D01*
X522028Y303340D01*
X523348Y305628D01*
X524032Y308179D01*
Y310821D01*
X523348Y313372D01*
X522028Y315660D01*
X520160Y317528D01*
X517872Y318848D01*
X515321Y319532D01*
D02*
G37*
G36*
X474340Y308230D02*
X465270D01*
Y299160D01*
X465361D01*
X467991Y299865D01*
X470349Y301226D01*
X472274Y303151D01*
X473635Y305509D01*
X474340Y308139D01*
Y308230D01*
D02*
G37*
G36*
X462730D02*
X453660D01*
Y308139D01*
X454365Y305509D01*
X455726Y303151D01*
X457651Y301226D01*
X460009Y299865D01*
X462639Y299160D01*
X462730D01*
Y308230D01*
D02*
G37*
G36*
X296340Y308230D02*
X287270D01*
Y299160D01*
X287361D01*
X289991Y299865D01*
X292349Y301226D01*
X294274Y303151D01*
X295635Y305509D01*
X296340Y308139D01*
Y308230D01*
D02*
G37*
G36*
X426081Y302260D02*
X419155D01*
Y296429D01*
X426081D01*
Y302260D01*
D02*
G37*
G36*
X401941Y351992D02*
X399840D01*
X397899Y351188D01*
X396413Y349702D01*
X395609Y347761D01*
Y346126D01*
X367941Y318459D01*
X367155Y317282D01*
X366879Y315895D01*
X364915Y315642D01*
X362388D01*
Y302718D01*
X362388Y301578D01*
X360726Y300686D01*
X353742D01*
Y303092D01*
X339678D01*
Y291028D01*
X353742D01*
Y293434D01*
X361848D01*
X361998Y293284D01*
Y285840D01*
X362196Y284848D01*
X362757Y284007D01*
X363598Y283445D01*
X364590Y283248D01*
X369570D01*
X370562Y283445D01*
X371403Y284007D01*
X371964Y284848D01*
X372162Y285840D01*
Y295820D01*
X371964Y296812D01*
X371403Y297653D01*
X370562Y298214D01*
X369570Y298412D01*
X367530D01*
X366455Y299449D01*
X366272Y299701D01*
X367073Y301578D01*
X374452D01*
Y313868D01*
X375356Y314552D01*
X376746Y314074D01*
X377388Y313543D01*
Y301578D01*
X379794D01*
Y295990D01*
X379794Y295990D01*
X380070Y294603D01*
X380856Y293426D01*
X380998Y293284D01*
Y285840D01*
X381195Y284848D01*
X381757Y284007D01*
X382535Y283488D01*
X382572Y283317D01*
X382197Y281456D01*
X381580D01*
X381580Y281456D01*
X380192Y281180D01*
X379016Y280394D01*
X379016Y280394D01*
X374302Y275679D01*
X373516Y274503D01*
X373240Y273116D01*
X373232Y273064D01*
X371342Y271956D01*
X370562Y272215D01*
X369570Y272412D01*
X364590D01*
X363598Y272215D01*
X362757Y271653D01*
X362196Y270812D01*
X361998Y269820D01*
Y259840D01*
X362196Y258848D01*
X362757Y258007D01*
X363161Y257738D01*
X362722Y255706D01*
X352750D01*
Y258120D01*
X347980D01*
Y252080D01*
Y246040D01*
X352750D01*
Y248454D01*
X370087D01*
X371370Y247171D01*
X373380Y246339D01*
Y252080D01*
X375920D01*
Y246339D01*
X377930Y247171D01*
X379362Y248604D01*
X379792Y248805D01*
X381777Y248845D01*
X382800Y247821D01*
X384928Y246940D01*
X384989D01*
X385830Y244908D01*
X348944Y208022D01*
X348508Y208048D01*
X348093Y208109D01*
X346912Y208863D01*
Y209331D01*
X346562Y210177D01*
X346535Y210312D01*
X346459Y210426D01*
X346108Y211272D01*
X345460Y211920D01*
X345384Y212034D01*
X325349Y232069D01*
Y261961D01*
X338164Y274776D01*
X339478Y275863D01*
X341401Y275380D01*
Y271612D01*
X341178D01*
Y260548D01*
X352242D01*
Y271612D01*
X352019D01*
Y276028D01*
X353742D01*
Y288092D01*
X339678D01*
Y286869D01*
X337440D01*
X335408Y286465D01*
X333686Y285314D01*
X316286Y267914D01*
X315135Y266192D01*
X314731Y264160D01*
X314731Y264160D01*
Y229870D01*
X314731Y229870D01*
X315135Y227838D01*
X316286Y226116D01*
X337876Y204526D01*
X337990Y204450D01*
X338638Y203802D01*
X339484Y203451D01*
X339598Y203375D01*
X339733Y203348D01*
X340579Y202998D01*
X341047D01*
X341800Y201817D01*
X341862Y201402D01*
X341888Y200966D01*
X340336Y199414D01*
X339550Y198237D01*
X339274Y196850D01*
X339274Y196850D01*
Y182322D01*
X335868D01*
Y170258D01*
X349932D01*
Y182322D01*
X346526D01*
Y195348D01*
X405154Y253976D01*
X405154Y253976D01*
X405940Y255152D01*
X406216Y256540D01*
X406216Y256540D01*
Y268388D01*
X408872D01*
Y268388D01*
X410278Y268238D01*
Y268238D01*
X410842Y268238D01*
X421411D01*
Y255217D01*
X418959Y252766D01*
X418498Y252674D01*
X416776Y251523D01*
X416776Y251523D01*
X408493Y243240D01*
X408488Y243238D01*
X407840Y242590D01*
X407726Y242514D01*
X407650Y242400D01*
X407002Y241752D01*
X406651Y240906D01*
X406575Y240792D01*
X406548Y240657D01*
X406198Y239811D01*
Y238895D01*
X406171Y238760D01*
X406198Y238625D01*
Y237709D01*
X406548Y236863D01*
X406575Y236728D01*
X406651Y236614D01*
X407002Y235768D01*
X407650Y235120D01*
X407726Y235006D01*
X407840Y234930D01*
X408488Y234282D01*
X409334Y233932D01*
X409448Y233855D01*
X409583Y233828D01*
X410429Y233478D01*
X411345D01*
X411480Y233451D01*
X411521D01*
X411521Y233451D01*
X411656Y233478D01*
X412531D01*
X413339Y233813D01*
X413552Y233855D01*
X413733Y233976D01*
X414472Y234282D01*
X415038Y234848D01*
X415275Y235006D01*
X423041Y242772D01*
X423503Y242864D01*
X425225Y244015D01*
X430474Y249264D01*
X430474Y249264D01*
X431625Y250987D01*
X432029Y253018D01*
Y282725D01*
X431625Y284757D01*
X430474Y286479D01*
X430474Y286479D01*
X426754Y290199D01*
X425032Y291350D01*
X423000Y291754D01*
X422842Y292802D01*
X410278D01*
Y292802D01*
X408872Y292952D01*
Y292952D01*
X408308Y292952D01*
X406216D01*
Y296937D01*
X409690D01*
Y296429D01*
X416615D01*
Y303530D01*
Y310631D01*
X409690D01*
Y310123D01*
X397387D01*
Y296937D01*
X398964D01*
Y292952D01*
X396308D01*
Y286516D01*
X391904Y282111D01*
X391411Y282237D01*
X391106Y282772D01*
X390736Y284506D01*
X390965Y284848D01*
X391162Y285840D01*
Y295820D01*
X390965Y296812D01*
X390403Y297653D01*
X389562Y298214D01*
X388570Y298412D01*
X387046D01*
Y301578D01*
X389452D01*
Y315642D01*
X379178D01*
X378253Y315642D01*
X377411Y317674D01*
X401165Y341428D01*
X401941D01*
X403883Y342232D01*
X405369Y343718D01*
X406173Y345659D01*
Y347761D01*
X405369Y349702D01*
X403883Y351188D01*
X401941Y351992D01*
D02*
G37*
G36*
X515321Y294132D02*
X512679D01*
X510128Y293448D01*
X507840Y292128D01*
X505972Y290260D01*
X504652Y287972D01*
X503968Y285421D01*
Y282779D01*
X504652Y280228D01*
X504779Y280007D01*
X487098Y262326D01*
X473832D01*
Y268532D01*
X454168D01*
Y248868D01*
X473832D01*
Y255074D01*
X488600D01*
X488600Y255074D01*
X489987Y255350D01*
X491164Y256136D01*
X509907Y274879D01*
X510128Y274752D01*
X512679Y274068D01*
X515321D01*
X517872Y274752D01*
X520160Y276072D01*
X522028Y277940D01*
X523348Y280228D01*
X524032Y282779D01*
Y285421D01*
X523348Y287972D01*
X522028Y290260D01*
X520160Y292128D01*
X517872Y293448D01*
X515321Y294132D01*
D02*
G37*
G36*
X345440Y258120D02*
X340670D01*
Y253350D01*
X345440D01*
Y258120D01*
D02*
G37*
G36*
Y250810D02*
X340670D01*
Y246040D01*
X345440D01*
Y250810D01*
D02*
G37*
G36*
X308610Y226721D02*
Y222250D01*
X313081D01*
X312249Y224260D01*
X310620Y225889D01*
X308610Y226721D01*
D02*
G37*
G36*
X306070D02*
X304060Y225889D01*
X302431Y224260D01*
X301599Y222250D01*
X306070D01*
Y226721D01*
D02*
G37*
G36*
X313081Y219710D02*
X308610D01*
Y215239D01*
X310620Y216071D01*
X312249Y217700D01*
X313081Y219710D01*
D02*
G37*
G36*
X306070D02*
X301599D01*
X302431Y217700D01*
X304060Y216071D01*
X306070Y215239D01*
Y219710D01*
D02*
G37*
G36*
X445770Y185490D02*
X439500D01*
Y182576D01*
X436363D01*
X435080Y183859D01*
X433070Y184691D01*
Y178950D01*
Y173209D01*
X435080Y174041D01*
X436363Y175324D01*
X439500D01*
Y172410D01*
X445770D01*
Y178950D01*
Y185490D01*
D02*
G37*
G36*
X454580D02*
X448310D01*
Y180220D01*
X454580D01*
Y185490D01*
D02*
G37*
G36*
X430530Y184691D02*
X428520Y183859D01*
X426891Y182230D01*
X426059Y180220D01*
X430530D01*
Y184691D01*
D02*
G37*
G36*
X523429Y182951D02*
X518159D01*
Y177681D01*
X523429D01*
Y182951D01*
D02*
G37*
G36*
X430530Y177680D02*
X426059D01*
X426891Y175670D01*
X428520Y174041D01*
X430530Y173209D01*
Y177680D01*
D02*
G37*
G36*
X454580D02*
X448310D01*
Y172410D01*
X454580D01*
Y177680D01*
D02*
G37*
G36*
X323780Y196532D02*
X321380D01*
X319163Y195614D01*
X317466Y193917D01*
X316548Y191700D01*
Y189300D01*
X317466Y187083D01*
X318954Y185595D01*
Y182442D01*
X315548D01*
Y170378D01*
X329612D01*
Y182442D01*
X326206D01*
Y185595D01*
X327694Y187083D01*
X328612Y189300D01*
Y191700D01*
X327694Y193917D01*
X325997Y195614D01*
X323780Y196532D01*
D02*
G37*
G36*
X302190D02*
X299790D01*
X297573Y195614D01*
X295876Y193917D01*
X294958Y191700D01*
Y189300D01*
X295876Y187083D01*
X297364Y185595D01*
Y182442D01*
X295228D01*
Y170378D01*
X309292D01*
Y182442D01*
X304616D01*
Y185595D01*
X306104Y187083D01*
X307022Y189300D01*
Y191700D01*
X306104Y193917D01*
X304407Y195614D01*
X302190Y196532D01*
D02*
G37*
G36*
X523429Y175141D02*
X518159D01*
Y169871D01*
X523429D01*
Y175141D01*
D02*
G37*
G36*
X408940Y172111D02*
Y167640D01*
X413411D01*
X412579Y169650D01*
X410950Y171279D01*
X408940Y172111D01*
D02*
G37*
G36*
X406400D02*
X404390Y171279D01*
X402761Y169650D01*
X401929Y167640D01*
X406400D01*
Y172111D01*
D02*
G37*
G36*
X413411Y165100D02*
X408940D01*
Y160629D01*
X410950Y161461D01*
X412579Y163090D01*
X413411Y165100D01*
D02*
G37*
G36*
X406400D02*
X401929D01*
X402761Y163090D01*
X404390Y161461D01*
X406400Y160629D01*
Y165100D01*
D02*
G37*
G36*
X454072Y169982D02*
X440008D01*
Y157918D01*
X454072D01*
Y158641D01*
X460676D01*
X461133Y158185D01*
Y148768D01*
X471047D01*
Y158967D01*
X471399Y160735D01*
X471047Y162504D01*
Y166192D01*
X468141D01*
X466629Y167704D01*
X464907Y168855D01*
X462876Y169259D01*
X462875Y169259D01*
X454072D01*
Y169982D01*
D02*
G37*
G36*
X349932Y167322D02*
X335868D01*
Y155258D01*
X343807D01*
X343812Y155250D01*
X367783Y131279D01*
X367783Y131279D01*
X368960Y130493D01*
X369590Y130368D01*
Y130332D01*
X370246Y127882D01*
X371515Y125686D01*
X373308Y123892D01*
X375504Y122624D01*
X377954Y121968D01*
X380490D01*
X382940Y122624D01*
X385136Y123892D01*
X386930Y125686D01*
X388198Y127882D01*
X388854Y130332D01*
Y132868D01*
X388198Y135318D01*
X386930Y137514D01*
X385136Y139307D01*
X382940Y140576D01*
X380490Y141232D01*
X377954D01*
X375504Y140576D01*
X373308Y139307D01*
X371659Y137659D01*
X349932Y159385D01*
Y167322D01*
D02*
G37*
G36*
X329612Y167442D02*
X315548D01*
Y155378D01*
X318954D01*
Y152400D01*
X318954Y152400D01*
X319230Y151013D01*
X320016Y149836D01*
X338491Y131362D01*
X338491Y131361D01*
X339590Y130627D01*
Y130332D01*
X340246Y127882D01*
X341515Y125686D01*
X343308Y123892D01*
X345504Y122624D01*
X347954Y121968D01*
X350490D01*
X352940Y122624D01*
X355136Y123892D01*
X356930Y125686D01*
X358198Y127882D01*
X358854Y130332D01*
Y132868D01*
X358198Y135318D01*
X356930Y137514D01*
X355136Y139307D01*
X352940Y140576D01*
X350490Y141232D01*
X347954D01*
X345504Y140576D01*
X343308Y139307D01*
X342054Y138054D01*
X326762Y153346D01*
X327548Y155378D01*
X329612D01*
Y167442D01*
D02*
G37*
G36*
X309292D02*
X295228D01*
Y155378D01*
X298634D01*
Y148562D01*
X298634Y148562D01*
X298910Y147175D01*
X299696Y145998D01*
X310294Y135400D01*
X310246Y135318D01*
X309590Y132868D01*
Y130332D01*
X310246Y127882D01*
X311514Y125686D01*
X313308Y123892D01*
X315504Y122624D01*
X317954Y121968D01*
X320490D01*
X322940Y122624D01*
X325136Y123892D01*
X326930Y125686D01*
X328198Y127882D01*
X328854Y130332D01*
Y132868D01*
X328198Y135318D01*
X326930Y137514D01*
X325136Y139307D01*
X322940Y140576D01*
X320490Y141232D01*
X317954D01*
X315504Y140576D01*
X315422Y140528D01*
X305886Y150064D01*
Y155378D01*
X309292D01*
Y167442D01*
D02*
G37*
G36*
X320557Y111740D02*
X320492D01*
Y102870D01*
X329362D01*
Y102935D01*
X328671Y105514D01*
X327336Y107826D01*
X325448Y109714D01*
X323136Y111049D01*
X320557Y111740D01*
D02*
G37*
G36*
X317952D02*
X317887D01*
X315308Y111049D01*
X312996Y109714D01*
X311108Y107826D01*
X309773Y105514D01*
X309082Y102935D01*
Y102870D01*
X317952D01*
Y111740D01*
D02*
G37*
G36*
X251460D02*
Y102870D01*
X260330D01*
Y111740D01*
X251460D01*
D02*
G37*
G36*
X388854Y111232D02*
X369590D01*
Y91968D01*
X388854D01*
Y111232D01*
D02*
G37*
G36*
X350490D02*
X347954D01*
X345504Y110576D01*
X343308Y109307D01*
X341515Y107514D01*
X340246Y105318D01*
X339590Y102868D01*
Y100332D01*
X340246Y97882D01*
X341515Y95686D01*
X343308Y93892D01*
X345504Y92624D01*
X347954Y91968D01*
X350490D01*
X352940Y92624D01*
X355136Y93892D01*
X356930Y95686D01*
X358198Y97882D01*
X358854Y100332D01*
Y102868D01*
X358198Y105318D01*
X356930Y107514D01*
X355136Y109307D01*
X352940Y110576D01*
X350490Y111232D01*
D02*
G37*
G36*
X329362Y100330D02*
X320492D01*
Y91460D01*
X320557D01*
X323136Y92151D01*
X325448Y93486D01*
X327336Y95374D01*
X328671Y97686D01*
X329362Y100265D01*
Y100330D01*
D02*
G37*
G36*
X317952D02*
X309082D01*
Y100265D01*
X309773Y97686D01*
X311108Y95374D01*
X312996Y93486D01*
X315308Y92151D01*
X317887Y91460D01*
X317952D01*
Y100330D01*
D02*
G37*
G36*
X260330D02*
X251460D01*
Y91460D01*
X260330D01*
Y100330D01*
D02*
G37*
G36*
X472561Y87540D02*
X471270D01*
Y56270D01*
X502540D01*
Y57561D01*
X501739Y62620D01*
X500156Y67491D01*
X497831Y72055D01*
X494820Y76198D01*
X491198Y79820D01*
X487055Y82831D01*
X482491Y85156D01*
X477620Y86739D01*
X472561Y87540D01*
D02*
G37*
G36*
X468730D02*
X467439D01*
X462380Y86739D01*
X457509Y85156D01*
X452945Y82831D01*
X448802Y79820D01*
X445180Y76198D01*
X442169Y72055D01*
X439844Y67491D01*
X438261Y62620D01*
X437460Y57561D01*
Y56270D01*
X468730D01*
Y87540D01*
D02*
G37*
G36*
X62561D02*
X61270D01*
Y56270D01*
X92540D01*
Y57561D01*
X91739Y62620D01*
X90156Y67491D01*
X87831Y72055D01*
X84820Y76198D01*
X81198Y79820D01*
X77055Y82831D01*
X72491Y85156D01*
X67620Y86739D01*
X62561Y87540D01*
D02*
G37*
G36*
X58730D02*
X57439D01*
X52380Y86739D01*
X47509Y85156D01*
X42945Y82831D01*
X38802Y79820D01*
X35180Y76198D01*
X32169Y72055D01*
X29844Y67491D01*
X28261Y62620D01*
X27460Y57561D01*
Y56270D01*
X58730D01*
Y87540D01*
D02*
G37*
G36*
X350900Y75632D02*
X347545D01*
X344254Y74977D01*
X341154Y73694D01*
X338365Y71830D01*
X335992Y69457D01*
X334128Y66668D01*
X332845Y63568D01*
X332190Y60278D01*
Y56922D01*
X332845Y53632D01*
X334128Y50532D01*
X335992Y47743D01*
X338365Y45370D01*
X341154Y43506D01*
X344254Y42222D01*
X347545Y41568D01*
X350900D01*
X354190Y42222D01*
X357290Y43506D01*
X360079Y45370D01*
X362452Y47743D01*
X364316Y50532D01*
X365600Y53632D01*
X366254Y56922D01*
Y60278D01*
X365600Y63568D01*
X364316Y66668D01*
X362452Y69457D01*
X360079Y71830D01*
X357290Y73694D01*
X354190Y74977D01*
X350900Y75632D01*
D02*
G37*
G36*
X152400Y38761D02*
Y34290D01*
X156871D01*
X156039Y36300D01*
X154410Y37929D01*
X152400Y38761D01*
D02*
G37*
G36*
X149860D02*
X147850Y37929D01*
X146221Y36300D01*
X145389Y34290D01*
X149860D01*
Y38761D01*
D02*
G37*
G36*
X156871Y31750D02*
X152400D01*
Y27279D01*
X154410Y28111D01*
X156039Y29740D01*
X156871Y31750D01*
D02*
G37*
G36*
X149860D02*
X145389D01*
X146221Y29740D01*
X147850Y28111D01*
X149860Y27279D01*
Y31750D01*
D02*
G37*
G36*
X502540Y53730D02*
X471270D01*
Y22460D01*
X472561D01*
X477620Y23261D01*
X482491Y24844D01*
X487055Y27169D01*
X491198Y30180D01*
X494820Y33802D01*
X497831Y37945D01*
X500156Y42509D01*
X501739Y47380D01*
X502540Y52439D01*
Y53730D01*
D02*
G37*
G36*
X468730D02*
X437460D01*
Y52439D01*
X438261Y47380D01*
X439844Y42509D01*
X442169Y37945D01*
X445180Y33802D01*
X448802Y30180D01*
X452945Y27169D01*
X457509Y24844D01*
X462380Y23261D01*
X467439Y22460D01*
X468730D01*
Y53730D01*
D02*
G37*
G36*
X92540D02*
X61270D01*
Y22460D01*
X62561D01*
X67620Y23261D01*
X72491Y24844D01*
X77055Y27169D01*
X81198Y30180D01*
X84820Y33802D01*
X87831Y37945D01*
X90156Y42509D01*
X91739Y47380D01*
X92540Y52439D01*
Y53730D01*
D02*
G37*
G36*
X58730D02*
X27460D01*
Y52439D01*
X28261Y47380D01*
X29844Y42509D01*
X32169Y37945D01*
X35180Y33802D01*
X38802Y30180D01*
X42945Y27169D01*
X47509Y24844D01*
X52380Y23261D01*
X57439Y22460D01*
X58730D01*
Y53730D01*
D02*
G37*
G36*
X472561Y977540D02*
X471270D01*
Y946270D01*
X502540D01*
Y947561D01*
X501739Y952620D01*
X500156Y957491D01*
X497831Y962055D01*
X494820Y966198D01*
X491198Y969820D01*
X487055Y972831D01*
X482491Y975156D01*
X477620Y976739D01*
X472561Y977540D01*
D02*
G37*
G36*
X468730D02*
X467439D01*
X462380Y976739D01*
X457509Y975156D01*
X452945Y972831D01*
X448802Y969820D01*
X445180Y966198D01*
X442169Y962055D01*
X439844Y957491D01*
X438261Y952620D01*
X437460Y947561D01*
Y946270D01*
X468730D01*
Y977540D01*
D02*
G37*
G36*
X62561D02*
X61270D01*
Y946270D01*
X92540D01*
Y947561D01*
X91739Y952620D01*
X90156Y957491D01*
X87831Y962055D01*
X84820Y966198D01*
X81198Y969820D01*
X77055Y972831D01*
X72491Y975156D01*
X67620Y976739D01*
X62561Y977540D01*
D02*
G37*
G36*
X58730D02*
X57439D01*
X52380Y976739D01*
X47509Y975156D01*
X42945Y972831D01*
X38802Y969820D01*
X35180Y966198D01*
X32169Y962055D01*
X29844Y957491D01*
X28261Y952620D01*
X27460Y947561D01*
Y946270D01*
X58730D01*
Y977540D01*
D02*
G37*
G36*
X267897Y969352D02*
X264543D01*
X261252Y968698D01*
X258152Y967414D01*
X255363Y965550D01*
X252990Y963177D01*
X251126Y960388D01*
X249842Y957288D01*
X249188Y953997D01*
Y950642D01*
X249842Y947352D01*
X251126Y944252D01*
X252990Y941463D01*
X255363Y939090D01*
X258152Y937226D01*
X261252Y935943D01*
X264543Y935288D01*
X267897D01*
X271188Y935943D01*
X274288Y937226D01*
X277077Y939090D01*
X279450Y941463D01*
X281314Y944252D01*
X282598Y947352D01*
X283252Y950642D01*
Y953997D01*
X282598Y957288D01*
X281314Y960388D01*
X279450Y963177D01*
X277077Y965550D01*
X274288Y967414D01*
X271188Y968698D01*
X267897Y969352D01*
D02*
G37*
G36*
X161698Y965462D02*
X158343D01*
X155052Y964808D01*
X151952Y963524D01*
X149163Y961660D01*
X146790Y959287D01*
X144926Y956498D01*
X143643Y953398D01*
X142988Y950107D01*
Y946752D01*
X143643Y943462D01*
X144926Y940362D01*
X146790Y937573D01*
X149163Y935200D01*
X151952Y933336D01*
X155052Y932053D01*
X158343Y931398D01*
X161698D01*
X164988Y932053D01*
X168088Y933336D01*
X170877Y935200D01*
X173250Y937573D01*
X175114Y940362D01*
X176397Y943462D01*
X177052Y946752D01*
Y950107D01*
X176397Y953398D01*
X175114Y956498D01*
X173250Y959287D01*
X170877Y961660D01*
X168088Y963524D01*
X164988Y964808D01*
X161698Y965462D01*
D02*
G37*
G36*
X502540Y943730D02*
X471270D01*
Y912460D01*
X472561D01*
X477620Y913261D01*
X482491Y914844D01*
X487055Y917169D01*
X491198Y920180D01*
X494820Y923802D01*
X497831Y927945D01*
X500156Y932509D01*
X501739Y937380D01*
X502540Y942439D01*
Y943730D01*
D02*
G37*
G36*
X468730D02*
X437460D01*
Y942439D01*
X438261Y937380D01*
X439844Y932509D01*
X442169Y927945D01*
X445180Y923802D01*
X448802Y920180D01*
X452945Y917169D01*
X457509Y914844D01*
X462380Y913261D01*
X467439Y912460D01*
X468730D01*
Y943730D01*
D02*
G37*
G36*
X92540D02*
X61270D01*
Y912460D01*
X62561D01*
X67620Y913261D01*
X72491Y914844D01*
X77055Y917169D01*
X81198Y920180D01*
X84820Y923802D01*
X87831Y927945D01*
X90156Y932509D01*
X91739Y937380D01*
X92540Y942439D01*
Y943730D01*
D02*
G37*
G36*
X58730D02*
X27460D01*
Y942439D01*
X28261Y937380D01*
X29844Y932509D01*
X32169Y927945D01*
X35180Y923802D01*
X38802Y920180D01*
X42945Y917169D01*
X47509Y914844D01*
X52380Y913261D01*
X57439Y912460D01*
X58730D01*
Y943730D01*
D02*
G37*
G36*
X297555Y919460D02*
X297490D01*
Y910590D01*
X306360D01*
Y910655D01*
X305669Y913234D01*
X304334Y915546D01*
X302446Y917434D01*
X300134Y918769D01*
X297555Y919460D01*
D02*
G37*
G36*
X294950D02*
X294885D01*
X292306Y918769D01*
X289994Y917434D01*
X288106Y915546D01*
X286771Y913234D01*
X286080Y910655D01*
Y910590D01*
X294950D01*
Y919460D01*
D02*
G37*
G36*
X176388Y915620D02*
X176290D01*
Y906500D01*
X185410D01*
Y906598D01*
X184702Y909240D01*
X183334Y911610D01*
X181400Y913544D01*
X179030Y914912D01*
X176388Y915620D01*
D02*
G37*
G36*
X173750D02*
X173652D01*
X171010Y914912D01*
X168640Y913544D01*
X166706Y911610D01*
X165338Y909240D01*
X164630Y906598D01*
Y906500D01*
X173750D01*
Y915620D01*
D02*
G37*
G36*
X267488Y918952D02*
X264952D01*
X262502Y918296D01*
X260306Y917028D01*
X258512Y915234D01*
X257244Y913038D01*
X256588Y910588D01*
Y908052D01*
X257244Y905602D01*
X258512Y903406D01*
X260306Y901612D01*
X262502Y900344D01*
X264952Y899688D01*
X267488D01*
X269938Y900344D01*
X272134Y901612D01*
X273927Y903406D01*
X275196Y905602D01*
X275852Y908052D01*
Y910588D01*
X275196Y913038D01*
X273927Y915234D01*
X272134Y917028D01*
X269938Y918296D01*
X267488Y918952D01*
D02*
G37*
G36*
X245852D02*
X226588D01*
Y899688D01*
X245852D01*
Y918952D01*
D02*
G37*
G36*
X306360Y908050D02*
X297490D01*
Y899180D01*
X297555D01*
X300134Y899871D01*
X302446Y901206D01*
X304334Y903094D01*
X305669Y905406D01*
X306360Y907985D01*
Y908050D01*
D02*
G37*
G36*
X294950D02*
X286080D01*
Y907985D01*
X286771Y905406D01*
X288106Y903094D01*
X289994Y901206D01*
X292306Y899871D01*
X294885Y899180D01*
X294950D01*
Y908050D01*
D02*
G37*
G36*
X154902Y915112D02*
X135138D01*
Y895348D01*
X154902D01*
Y915112D01*
D02*
G37*
G36*
X185410Y903960D02*
X176290D01*
Y894840D01*
X176388D01*
X179030Y895548D01*
X181400Y896916D01*
X183334Y898850D01*
X184702Y901220D01*
X185410Y903862D01*
Y903960D01*
D02*
G37*
G36*
X173750D02*
X164630D01*
Y903862D01*
X165338Y901220D01*
X166706Y898850D01*
X168640Y896916D01*
X171010Y895548D01*
X173652Y894840D01*
X173750D01*
Y903960D01*
D02*
G37*
G36*
X297555Y889460D02*
X297490D01*
Y880590D01*
X306360D01*
Y880655D01*
X305669Y883234D01*
X304334Y885546D01*
X302446Y887434D01*
X300134Y888769D01*
X297555Y889460D01*
D02*
G37*
G36*
X294950D02*
X294885D01*
X292306Y888769D01*
X289994Y887434D01*
X288106Y885546D01*
X286771Y883234D01*
X286080Y880655D01*
Y880590D01*
X294950D01*
Y889460D01*
D02*
G37*
G36*
X146388Y885620D02*
X146290D01*
Y876500D01*
X155410D01*
Y876598D01*
X154702Y879240D01*
X153334Y881610D01*
X151400Y883544D01*
X149030Y884912D01*
X146388Y885620D01*
D02*
G37*
G36*
X176388D02*
X176290D01*
Y876500D01*
X185410D01*
Y876598D01*
X184702Y879240D01*
X183334Y881610D01*
X181400Y883544D01*
X179030Y884912D01*
X176388Y885620D01*
D02*
G37*
G36*
X143750D02*
X143652D01*
X141010Y884912D01*
X138640Y883544D01*
X136706Y881610D01*
X135338Y879240D01*
X134630Y876598D01*
Y876500D01*
X143750D01*
Y885620D01*
D02*
G37*
G36*
X173750D02*
X173652D01*
X171010Y884912D01*
X168640Y883544D01*
X166706Y881610D01*
X165338Y879240D01*
X164630Y876598D01*
Y876500D01*
X173750D01*
Y885620D01*
D02*
G37*
G36*
X267488Y888952D02*
X264952D01*
X262502Y888296D01*
X260306Y887028D01*
X258512Y885234D01*
X257244Y883038D01*
X256588Y880588D01*
Y878052D01*
X257244Y875602D01*
X258512Y873406D01*
X260306Y871612D01*
X262502Y870344D01*
X264952Y869688D01*
X267488D01*
X269938Y870344D01*
X272134Y871612D01*
X273927Y873406D01*
X275196Y875602D01*
X275852Y878052D01*
Y880588D01*
X275196Y883038D01*
X273927Y885234D01*
X272134Y887028D01*
X269938Y888296D01*
X267488Y888952D01*
D02*
G37*
G36*
X237488D02*
X234952D01*
X232502Y888296D01*
X230306Y887028D01*
X228512Y885234D01*
X227244Y883038D01*
X226588Y880588D01*
Y878052D01*
X227244Y875602D01*
X228512Y873406D01*
X230306Y871612D01*
X232502Y870344D01*
X234952Y869688D01*
X237488D01*
X239938Y870344D01*
X242134Y871612D01*
X243927Y873406D01*
X245196Y875602D01*
X245852Y878052D01*
Y880588D01*
X245196Y883038D01*
X243927Y885234D01*
X242134Y887028D01*
X239938Y888296D01*
X237488Y888952D01*
D02*
G37*
G36*
X306360Y878050D02*
X297490D01*
Y869180D01*
X297555D01*
X300134Y869871D01*
X302446Y871206D01*
X304334Y873094D01*
X305669Y875406D01*
X306360Y877985D01*
Y878050D01*
D02*
G37*
G36*
X294950D02*
X286080D01*
Y877985D01*
X286771Y875406D01*
X288106Y873094D01*
X289994Y871206D01*
X292306Y869871D01*
X294885Y869180D01*
X294950D01*
Y878050D01*
D02*
G37*
G36*
X185410Y873960D02*
X176290D01*
Y864840D01*
X176388D01*
X179030Y865548D01*
X181400Y866916D01*
X183334Y868850D01*
X184702Y871220D01*
X185410Y873862D01*
Y873960D01*
D02*
G37*
G36*
X173750D02*
X164630D01*
Y873862D01*
X165338Y871220D01*
X166706Y868850D01*
X168640Y866916D01*
X171010Y865548D01*
X173652Y864840D01*
X173750D01*
Y873960D01*
D02*
G37*
G36*
X155410D02*
X146290D01*
Y864840D01*
X146388D01*
X149030Y865548D01*
X151400Y866916D01*
X153334Y868850D01*
X154702Y871220D01*
X155410Y873862D01*
Y873960D01*
D02*
G37*
G36*
X143750D02*
X134630D01*
Y873862D01*
X135338Y871220D01*
X136706Y868850D01*
X138640Y866916D01*
X141010Y865548D01*
X143652Y864840D01*
X143750D01*
Y873960D01*
D02*
G37*
G36*
X246900Y845211D02*
Y840740D01*
X251371D01*
X250539Y842750D01*
X248910Y844379D01*
X246900Y845211D01*
D02*
G37*
G36*
X244360D02*
X242350Y844379D01*
X240721Y842750D01*
X239889Y840740D01*
X244360D01*
Y845211D01*
D02*
G37*
G36*
X24130Y841401D02*
Y836930D01*
X28601D01*
X27769Y838940D01*
X26140Y840569D01*
X24130Y841401D01*
D02*
G37*
G36*
X21590D02*
X19580Y840569D01*
X17951Y838940D01*
X17119Y836930D01*
X21590D01*
Y841401D01*
D02*
G37*
G36*
X52070Y889229D02*
X51935Y889202D01*
X51019D01*
X50173Y888852D01*
X50038Y888825D01*
X49924Y888748D01*
X49078Y888398D01*
X48430Y887750D01*
X48316Y887674D01*
X38276Y877634D01*
X37125Y875912D01*
X36721Y873880D01*
X36721Y873880D01*
Y862892D01*
X35118D01*
Y833828D01*
X49182D01*
Y862892D01*
X47339D01*
Y871681D01*
X55824Y880166D01*
X55900Y880280D01*
X56548Y880928D01*
X56898Y881774D01*
X56975Y881888D01*
X57002Y882023D01*
X57352Y882869D01*
Y883785D01*
X57379Y883920D01*
X57352Y884055D01*
Y884971D01*
X57002Y885817D01*
X56975Y885952D01*
X56898Y886066D01*
X56548Y886912D01*
X55900Y887560D01*
X55824Y887674D01*
X55710Y887750D01*
X55062Y888398D01*
X54216Y888748D01*
X54102Y888825D01*
X53967Y888852D01*
X53121Y889202D01*
X52205D01*
X52070Y889229D01*
D02*
G37*
G36*
X79182Y862892D02*
X65118D01*
Y841336D01*
X53257Y829475D01*
X52320D01*
X52320Y829475D01*
X52182Y829448D01*
X52070Y829470D01*
X50136Y829085D01*
X48496Y827990D01*
X47400Y826350D01*
X47386Y826279D01*
X47165Y825948D01*
X46761Y823916D01*
X46761Y823916D01*
Y820661D01*
X47016Y819381D01*
Y816906D01*
X47400Y814972D01*
X48496Y813332D01*
X50136Y812236D01*
X52070Y811852D01*
X54004Y812236D01*
X55644Y813332D01*
X56740Y814972D01*
X57124Y816906D01*
Y819189D01*
X57488Y819261D01*
X59210Y820412D01*
X72626Y833828D01*
X79182D01*
Y862892D01*
D02*
G37*
G36*
X251371Y838200D02*
X239889D01*
X240721Y836190D01*
X242004Y834907D01*
Y831922D01*
X236630D01*
X234273Y831453D01*
X232275Y830118D01*
X230940Y828120D01*
X230724Y827033D01*
X245630D01*
X260536D01*
X260319Y828120D01*
X258985Y830118D01*
X256987Y831453D01*
X254630Y831922D01*
X249256D01*
Y834907D01*
X250539Y836190D01*
X251371Y838200D01*
D02*
G37*
G36*
X28601Y834390D02*
X17119D01*
X17951Y832380D01*
X19234Y831097D01*
Y828110D01*
X15320D01*
Y822840D01*
X30400D01*
Y828110D01*
X26486D01*
Y831097D01*
X27769Y832380D01*
X28601Y834390D01*
D02*
G37*
G36*
X30400Y820300D02*
X24130D01*
Y815030D01*
X30400D01*
Y820300D01*
D02*
G37*
G36*
X21590D02*
X15320D01*
Y815030D01*
X21590D01*
Y820300D01*
D02*
G37*
G36*
X86679Y822521D02*
X85522Y821522D01*
X71958D01*
Y810554D01*
X71958Y809458D01*
X71058Y807799D01*
X64230D01*
X63504Y808284D01*
X61570Y808668D01*
X59636Y808284D01*
X57996Y807188D01*
X56900Y805548D01*
X56516Y803614D01*
Y803520D01*
X56261Y802240D01*
X56261Y802240D01*
Y799859D01*
X56516Y798579D01*
Y796104D01*
X56900Y794170D01*
X57996Y792530D01*
X59636Y791435D01*
X61570Y791050D01*
X63504Y791435D01*
X65144Y792530D01*
X66240Y794170D01*
X66624Y796104D01*
Y797181D01*
X71958D01*
Y796458D01*
X75006D01*
Y790082D01*
X75006Y790081D01*
X75410Y788050D01*
X76561Y786327D01*
X82863Y780025D01*
X83152Y779328D01*
X83800Y778680D01*
X83876Y778566D01*
X83990Y778490D01*
X84638Y777842D01*
X85484Y777492D01*
X85598Y777415D01*
X85733Y777388D01*
X86579Y777038D01*
X87495D01*
X87630Y777011D01*
X87765Y777038D01*
X88681D01*
X89527Y777388D01*
X89662Y777415D01*
X89776Y777492D01*
X90622Y777842D01*
X91270Y778490D01*
X91384Y778566D01*
X91460Y778680D01*
X92108Y779328D01*
X92458Y780174D01*
X92535Y780288D01*
X92562Y780423D01*
X92912Y781269D01*
Y782185D01*
X92939Y782320D01*
Y782766D01*
X92912Y782901D01*
Y783371D01*
X92733Y783804D01*
X92535Y784798D01*
X91384Y786520D01*
X91384Y786521D01*
X85624Y792281D01*
Y793144D01*
X86171Y794949D01*
X87656Y794949D01*
X91441D01*
Y801489D01*
Y808029D01*
X88967D01*
X87872Y809689D01*
X88127Y810181D01*
X91712D01*
X91712Y810181D01*
X93100Y810457D01*
X98743D01*
Y822521D01*
X86679D01*
Y822521D01*
D02*
G37*
G36*
X208972Y834065D02*
X196908D01*
Y829591D01*
X196612Y827617D01*
X195224Y827341D01*
X194048Y826555D01*
X194048Y826555D01*
X188115Y820622D01*
X186909D01*
X184968Y819818D01*
X183482Y818332D01*
X182678Y816391D01*
Y814289D01*
X183482Y812348D01*
X184729Y811101D01*
X184541Y809975D01*
X184106Y809069D01*
X130143D01*
X130143Y809069D01*
X128756Y808793D01*
X127580Y808007D01*
X127580Y808007D01*
X108152Y788580D01*
X106120Y789421D01*
Y789822D01*
X105239Y791950D01*
X103610Y793579D01*
X103295Y793709D01*
Y794530D01*
X103295Y794530D01*
X103019Y795918D01*
X102233Y797094D01*
X102233Y797094D01*
X99251Y800077D01*
Y800219D01*
X93981D01*
Y794949D01*
X94123D01*
X94930Y794143D01*
X95421Y791950D01*
X94589Y789940D01*
X100330D01*
Y787400D01*
X94589D01*
X95421Y785390D01*
X97050Y783761D01*
X99178Y782880D01*
X99579D01*
X100420Y780848D01*
X70704Y751132D01*
X56168D01*
Y731468D01*
X73567D01*
X74408Y729436D01*
X69947Y724974D01*
X69795Y725062D01*
X67294Y725732D01*
X64706D01*
X62205Y725062D01*
X59963Y723767D01*
X58132Y721937D01*
X56838Y719695D01*
X56168Y717194D01*
Y714606D01*
X56838Y712105D01*
X58132Y709863D01*
X59963Y708032D01*
X62205Y706738D01*
X64706Y706068D01*
X67294D01*
X69795Y706738D01*
X72037Y708032D01*
X73868Y709863D01*
X75162Y712105D01*
X75832Y714606D01*
Y717194D01*
X75162Y719695D01*
X75074Y719847D01*
X82538Y727310D01*
X84570Y726496D01*
Y722980D01*
X91840D01*
Y731520D01*
Y740060D01*
X85449Y740060D01*
X84703Y742092D01*
X135154Y792543D01*
X140823D01*
X141363Y792002D01*
X143580Y791084D01*
X145980D01*
X148197Y792002D01*
X149894Y793699D01*
X150812Y795916D01*
Y798316D01*
X150203Y799786D01*
X151264Y801818D01*
X196908D01*
Y798411D01*
X208972D01*
Y812475D01*
X196908D01*
Y809069D01*
X191814D01*
X191378Y809975D01*
X191191Y811101D01*
X192438Y812348D01*
X193242Y814289D01*
Y815495D01*
X197749Y820001D01*
X208972D01*
Y834065D01*
D02*
G37*
G36*
X223972D02*
X211908D01*
Y820001D01*
X219844D01*
X229046Y810799D01*
X229046Y810799D01*
X230223Y810013D01*
X231610Y809737D01*
X231610Y809737D01*
X232199D01*
X232642Y809075D01*
X234471Y807852D01*
X234990Y807749D01*
Y805677D01*
X234471Y805574D01*
X232642Y804352D01*
X232399Y803989D01*
X224522D01*
X223980Y804531D01*
X223972Y804536D01*
Y812475D01*
X211908D01*
Y798411D01*
X219844D01*
X220456Y797800D01*
X220456Y797800D01*
X221632Y797014D01*
X223020Y796738D01*
X223020Y796738D01*
X232399D01*
X232642Y796375D01*
X234471Y795152D01*
X234990Y795049D01*
Y792977D01*
X234471Y792874D01*
X232642Y791652D01*
X232052Y790769D01*
X231452Y790169D01*
X222702D01*
Y790392D01*
X211638D01*
Y779328D01*
X211861D01*
Y770854D01*
X210995Y769558D01*
X210797Y768564D01*
X210618Y768131D01*
Y767662D01*
X210591Y767526D01*
X210591Y767526D01*
Y767080D01*
X210618Y766945D01*
Y766029D01*
X210968Y765183D01*
X210995Y765048D01*
X211071Y764934D01*
X211422Y764088D01*
X212070Y763440D01*
X212146Y763326D01*
X212260Y763250D01*
X212908Y762602D01*
X213754Y762252D01*
X213868Y762175D01*
X214003Y762148D01*
X214849Y761798D01*
X215765D01*
X215900Y761771D01*
X216035Y761798D01*
X216951D01*
X217797Y762148D01*
X217932Y762175D01*
X218046Y762252D01*
X218892Y762602D01*
X219540Y763250D01*
X219654Y763326D01*
X219730Y763440D01*
X220378Y764088D01*
X220667Y764785D01*
X220924Y765042D01*
X220924Y765042D01*
X222075Y766765D01*
X222479Y768796D01*
X222479Y768797D01*
Y779328D01*
X222702D01*
Y779551D01*
X233651D01*
X233651Y779551D01*
X235682Y779955D01*
X237405Y781106D01*
X238322Y782023D01*
X254630D01*
X256789Y782452D01*
X258618Y783675D01*
X259841Y785505D01*
X260270Y787663D01*
X259841Y789822D01*
X258618Y791652D01*
X256789Y792874D01*
X256270Y792977D01*
Y795049D01*
X256789Y795152D01*
X258618Y796375D01*
X259841Y798205D01*
X260270Y800363D01*
X259841Y802522D01*
X258618Y804352D01*
X256789Y805574D01*
X256270Y805677D01*
Y807749D01*
X256789Y807852D01*
X258618Y809075D01*
X259841Y810905D01*
X260270Y813063D01*
X259841Y815222D01*
X258618Y817052D01*
X257148Y818034D01*
X257041Y819393D01*
X257231Y820237D01*
X258985Y821409D01*
X260319Y823407D01*
X260536Y824493D01*
X245630D01*
X230724D01*
X230940Y823407D01*
X232275Y821409D01*
X233389Y820665D01*
X233374Y818453D01*
X232173Y817928D01*
X223980Y826121D01*
X223972Y826126D01*
Y834065D01*
D02*
G37*
G36*
X93981Y808029D02*
Y802759D01*
X99251D01*
Y808029D01*
X93981D01*
D02*
G37*
G36*
X29892Y812602D02*
X15828D01*
Y800538D01*
X21670D01*
X22146Y799825D01*
X25866Y796105D01*
X25866Y796105D01*
X27589Y794954D01*
X29620Y794550D01*
X37613D01*
Y791147D01*
X47527D01*
Y798091D01*
X47879Y799859D01*
X47527Y801627D01*
Y808571D01*
X37613D01*
Y805168D01*
X31819D01*
X30900Y806088D01*
X30805Y806561D01*
X29892Y807928D01*
Y812602D01*
D02*
G37*
G36*
X209210Y790900D02*
X204440D01*
Y786130D01*
X209210D01*
Y790900D01*
D02*
G37*
G36*
X201900D02*
X197130D01*
Y786130D01*
X201900D01*
Y790900D01*
D02*
G37*
G36*
X209210Y783590D02*
X204440D01*
Y778820D01*
X209210D01*
Y783590D01*
D02*
G37*
G36*
X201900D02*
X197130D01*
Y778820D01*
X201900D01*
Y783590D01*
D02*
G37*
G36*
X175310Y740060D02*
X168040D01*
Y732790D01*
X175310D01*
Y740060D01*
D02*
G37*
G36*
X165500D02*
X158230D01*
Y732790D01*
X165500D01*
Y740060D01*
D02*
G37*
G36*
X94380D02*
Y732790D01*
X101650D01*
Y740060D01*
X94380D01*
D02*
G37*
G36*
X245294Y751132D02*
X242706D01*
X240205Y750462D01*
X237963Y749167D01*
X236132Y747337D01*
X234838Y745095D01*
X234168Y742594D01*
Y740006D01*
X234838Y737505D01*
X236132Y735263D01*
X237963Y733432D01*
X240205Y732138D01*
X242706Y731468D01*
X245294D01*
X247795Y732138D01*
X250037Y733432D01*
X251868Y735263D01*
X253162Y737505D01*
X253832Y740006D01*
Y742594D01*
X253162Y745095D01*
X251868Y747337D01*
X250037Y749167D01*
X247795Y750462D01*
X245294Y751132D01*
D02*
G37*
G36*
X17321Y751332D02*
X14679D01*
X12128Y750648D01*
X9840Y749328D01*
X7972Y747460D01*
X6652Y745172D01*
X5968Y742621D01*
Y739979D01*
X6652Y737428D01*
X7972Y735140D01*
X9840Y733272D01*
X12128Y731952D01*
X14679Y731268D01*
X17321D01*
X19872Y731952D01*
X22160Y733272D01*
X24028Y735140D01*
X25348Y737428D01*
X26032Y739979D01*
Y742621D01*
X25348Y745172D01*
X24028Y747460D01*
X22160Y749328D01*
X19872Y750648D01*
X17321Y751332D01*
D02*
G37*
G36*
X175310Y730250D02*
X168040D01*
Y722980D01*
X175310D01*
Y730250D01*
D02*
G37*
G36*
X165500D02*
X158230D01*
Y722980D01*
X165500D01*
Y730250D01*
D02*
G37*
G36*
X101650D02*
X94380D01*
Y722980D01*
X101650D01*
Y730250D01*
D02*
G37*
G36*
X17388Y726440D02*
X17270D01*
Y717170D01*
X26540D01*
Y717288D01*
X25822Y719968D01*
X24434Y722372D01*
X22472Y724334D01*
X20068Y725722D01*
X17388Y726440D01*
D02*
G37*
G36*
X14730D02*
X14612D01*
X11932Y725722D01*
X9528Y724334D01*
X7566Y722372D01*
X6178Y719968D01*
X5460Y717288D01*
Y717170D01*
X14730D01*
Y726440D01*
D02*
G37*
G36*
X41910Y714401D02*
Y709930D01*
X46381D01*
X45549Y711940D01*
X43920Y713569D01*
X41910Y714401D01*
D02*
G37*
G36*
X39370D02*
X37360Y713569D01*
X35731Y711940D01*
X34899Y709930D01*
X39370D01*
Y714401D01*
D02*
G37*
G36*
X217827Y739552D02*
X215713D01*
X213670Y739005D01*
X211838Y737947D01*
X210343Y736452D01*
X209285Y734620D01*
X208738Y732577D01*
Y730463D01*
X209285Y728420D01*
X210343Y726588D01*
X211838Y725093D01*
X211861Y725080D01*
Y689269D01*
X188301Y665709D01*
X154163D01*
X139364Y680508D01*
X138669Y681548D01*
X138888Y681928D01*
X139572Y684479D01*
Y687121D01*
X138888Y689672D01*
X137568Y691960D01*
X135700Y693828D01*
X133412Y695148D01*
X130861Y695832D01*
X128219D01*
X125668Y695148D01*
X123380Y693828D01*
X121512Y691960D01*
X120192Y689672D01*
X119508Y687121D01*
Y684479D01*
X120192Y681928D01*
X121512Y679640D01*
X123380Y677772D01*
X125668Y676452D01*
X128219Y675768D01*
X129453D01*
X130386Y674835D01*
X131121Y673735D01*
X148210Y656646D01*
X149932Y655495D01*
X151964Y655091D01*
X151964Y655091D01*
X190500D01*
X190500Y655091D01*
X192532Y655495D01*
X194254Y656646D01*
X220924Y683316D01*
X220924Y683316D01*
X222075Y685038D01*
X222479Y687070D01*
Y725870D01*
X222820Y726211D01*
X226181D01*
X234386Y718006D01*
X234168Y717194D01*
Y714606D01*
X234838Y712105D01*
X236132Y709863D01*
X237963Y708032D01*
X240205Y706738D01*
X242706Y706068D01*
X245294D01*
X247795Y706738D01*
X250037Y708032D01*
X251868Y709863D01*
X253162Y712105D01*
X253832Y714606D01*
Y717194D01*
X253162Y719695D01*
X251868Y721937D01*
X250037Y723767D01*
X247795Y725062D01*
X245294Y725732D01*
X242706D01*
X241894Y725514D01*
X232134Y735274D01*
X230412Y736425D01*
X228380Y736829D01*
X228380Y736829D01*
X222820D01*
X221702Y737947D01*
X219870Y739005D01*
X217827Y739552D01*
D02*
G37*
G36*
X26540Y714630D02*
X17270D01*
Y705360D01*
X17388D01*
X20068Y706078D01*
X22472Y707466D01*
X24434Y709428D01*
X25822Y711832D01*
X26540Y714512D01*
Y714630D01*
D02*
G37*
G36*
X14730D02*
X5460D01*
Y714512D01*
X6178Y711832D01*
X7566Y709428D01*
X9528Y707466D01*
X11932Y706078D01*
X14612Y705360D01*
X14730D01*
Y714630D01*
D02*
G37*
G36*
X46381Y707390D02*
X41910D01*
Y702919D01*
X43920Y703751D01*
X45549Y705380D01*
X46381Y707390D01*
D02*
G37*
G36*
X39370D02*
X34899D01*
X35731Y705380D01*
X37360Y703751D01*
X39370Y702919D01*
Y707390D01*
D02*
G37*
G36*
X144167Y739552D02*
X142053D01*
X140010Y739005D01*
X138178Y737947D01*
X136683Y736452D01*
X135625Y734620D01*
X135078Y732577D01*
Y730463D01*
X135625Y728420D01*
X136683Y726588D01*
X137801Y725470D01*
Y722230D01*
X137801Y722230D01*
X138205Y720198D01*
X139356Y718476D01*
X161033Y696799D01*
X159785Y695173D01*
X159008Y695622D01*
X156328Y696340D01*
X156210D01*
Y687070D01*
X165480D01*
Y687188D01*
X164762Y689868D01*
X164313Y690645D01*
X165939Y691893D01*
X170308Y687524D01*
Y675768D01*
X190372D01*
Y695832D01*
X177016D01*
X148419Y724429D01*
Y725470D01*
X149537Y726588D01*
X150595Y728420D01*
X151142Y730463D01*
Y732577D01*
X150595Y734620D01*
X149537Y736452D01*
X148042Y737947D01*
X146210Y739005D01*
X144167Y739552D01*
D02*
G37*
G36*
X245361Y700840D02*
X245270D01*
Y691770D01*
X254340D01*
Y691861D01*
X253635Y694491D01*
X252274Y696849D01*
X250349Y698774D01*
X247991Y700135D01*
X245361Y700840D01*
D02*
G37*
G36*
X67361D02*
X67270D01*
Y691770D01*
X76340D01*
Y691861D01*
X75635Y694491D01*
X74274Y696849D01*
X72349Y698774D01*
X69991Y700135D01*
X67361Y700840D01*
D02*
G37*
G36*
X64730D02*
X64639D01*
X62009Y700135D01*
X59651Y698774D01*
X57726Y696849D01*
X56365Y694491D01*
X55660Y691861D01*
Y691770D01*
X64730D01*
Y700840D01*
D02*
G37*
G36*
X242730D02*
X242639D01*
X240009Y700135D01*
X237651Y698774D01*
X235726Y696849D01*
X234365Y694491D01*
X233660Y691861D01*
Y691770D01*
X242730D01*
Y700840D01*
D02*
G37*
G36*
X153670Y696340D02*
X153552D01*
X150872Y695622D01*
X148468Y694234D01*
X146506Y692272D01*
X145118Y689868D01*
X144400Y687188D01*
Y687070D01*
X153670D01*
Y696340D01*
D02*
G37*
G36*
X93980Y686461D02*
Y681990D01*
X98451D01*
X97619Y684000D01*
X95990Y685629D01*
X93980Y686461D01*
D02*
G37*
G36*
X91440D02*
X89430Y685629D01*
X87801Y684000D01*
X86969Y681990D01*
X91440D01*
Y686461D01*
D02*
G37*
G36*
X254340Y689230D02*
X245270D01*
Y680160D01*
X245361D01*
X247991Y680865D01*
X250349Y682226D01*
X252274Y684151D01*
X253635Y686509D01*
X254340Y689139D01*
Y689230D01*
D02*
G37*
G36*
X242730D02*
X233660D01*
Y689139D01*
X234365Y686509D01*
X235726Y684151D01*
X237651Y682226D01*
X240009Y680865D01*
X242639Y680160D01*
X242730D01*
Y689230D01*
D02*
G37*
G36*
X76340D02*
X67270D01*
Y680160D01*
X67361D01*
X69991Y680865D01*
X72349Y682226D01*
X74274Y684151D01*
X75635Y686509D01*
X76340Y689139D01*
Y689230D01*
D02*
G37*
G36*
X64730D02*
X55660D01*
Y689139D01*
X56365Y686509D01*
X57726Y684151D01*
X59651Y682226D01*
X62009Y680865D01*
X64639Y680160D01*
X64730D01*
Y689230D01*
D02*
G37*
G36*
X165480Y684530D02*
X156210D01*
Y675260D01*
X156328D01*
X159008Y675978D01*
X161412Y677366D01*
X163374Y679328D01*
X164762Y681732D01*
X165480Y684412D01*
Y684530D01*
D02*
G37*
G36*
X153670D02*
X144400D01*
Y684412D01*
X145118Y681732D01*
X146506Y679328D01*
X148468Y677366D01*
X150872Y675978D01*
X153552Y675260D01*
X153670D01*
Y684530D01*
D02*
G37*
G36*
X98451Y679450D02*
X93980D01*
Y674979D01*
X95990Y675811D01*
X97619Y677440D01*
X98451Y679450D01*
D02*
G37*
G36*
X91440D02*
X86969D01*
X87801Y677440D01*
X89430Y675811D01*
X91440Y674979D01*
Y679450D01*
D02*
G37*
G36*
X245294Y674932D02*
X242706D01*
X240205Y674262D01*
X237963Y672968D01*
X236132Y671137D01*
X234838Y668895D01*
X234168Y666394D01*
Y663806D01*
X234838Y661305D01*
X236132Y659063D01*
X237963Y657232D01*
X240205Y655938D01*
X242706Y655268D01*
X245294D01*
X247795Y655938D01*
X250037Y657232D01*
X251868Y659063D01*
X253162Y661305D01*
X253832Y663806D01*
Y666394D01*
X253162Y668895D01*
X251868Y671137D01*
X250037Y672968D01*
X247795Y674262D01*
X245294Y674932D01*
D02*
G37*
G36*
X17321Y700532D02*
X14679D01*
X12128Y699848D01*
X9840Y698528D01*
X7972Y696660D01*
X6652Y694372D01*
X5968Y691821D01*
Y689179D01*
X6652Y686628D01*
X7972Y684340D01*
X9840Y682472D01*
X12128Y681152D01*
X14679Y680468D01*
X17321D01*
X19872Y681152D01*
X22160Y682472D01*
X24028Y684340D01*
X26534Y684618D01*
X46966Y664186D01*
X46966Y664186D01*
X48143Y663400D01*
X49530Y663124D01*
X49530Y663124D01*
X56351D01*
X56838Y661305D01*
X58132Y659063D01*
X59963Y657232D01*
X62205Y655938D01*
X64706Y655268D01*
X67294D01*
X69795Y655938D01*
X72037Y657232D01*
X73868Y659063D01*
X75162Y661305D01*
X75832Y663806D01*
Y666394D01*
X75162Y668895D01*
X73868Y671137D01*
X72037Y672968D01*
X69795Y674262D01*
X67294Y674932D01*
X64706D01*
X62205Y674262D01*
X59963Y672968D01*
X58132Y671137D01*
X57693Y670376D01*
X51032D01*
X29295Y692112D01*
X28119Y692898D01*
X26732Y693174D01*
X26732Y693174D01*
X25669D01*
X25348Y694372D01*
X24028Y696660D01*
X22160Y698528D01*
X19872Y699848D01*
X17321Y700532D01*
D02*
G37*
G36*
Y675132D02*
X14679D01*
X12128Y674448D01*
X9840Y673128D01*
X7972Y671260D01*
X6652Y668972D01*
X5968Y666421D01*
Y663779D01*
X6652Y661228D01*
X7972Y658940D01*
X9840Y657072D01*
X12128Y655752D01*
X14679Y655068D01*
X17321D01*
X19872Y655752D01*
X22160Y657072D01*
X24028Y658940D01*
X24244Y658969D01*
X46076Y637136D01*
X46076Y637136D01*
X47252Y636350D01*
X48640Y636074D01*
X48640Y636074D01*
X56793D01*
X56838Y635905D01*
X58132Y633663D01*
X58758Y633038D01*
X57916Y631006D01*
X40872D01*
X29614Y642264D01*
X28438Y643050D01*
X27050Y643326D01*
X27050Y643326D01*
X25414D01*
X25348Y643572D01*
X24028Y645860D01*
X22160Y647728D01*
X19872Y649048D01*
X17321Y649732D01*
X14679D01*
X12128Y649048D01*
X9840Y647728D01*
X7972Y645860D01*
X6652Y643572D01*
X5968Y641021D01*
Y638379D01*
X6652Y635828D01*
X7972Y633540D01*
X9840Y631672D01*
X12128Y630352D01*
X14679Y629668D01*
X17321D01*
X19872Y630352D01*
X22160Y631672D01*
X24028Y633540D01*
X24460Y634289D01*
X26999Y634623D01*
X36806Y624816D01*
X36806Y624816D01*
X37982Y624030D01*
X39370Y623754D01*
X39370Y623754D01*
X58814D01*
X58944Y623576D01*
X59518Y621722D01*
X58132Y620337D01*
X56838Y618095D01*
X56168Y615594D01*
Y613006D01*
X56838Y610505D01*
X58132Y608263D01*
X58758Y607638D01*
X57916Y605606D01*
X40872D01*
X29614Y616864D01*
X28438Y617650D01*
X27050Y617926D01*
X27050Y617926D01*
X25414D01*
X25348Y618172D01*
X24028Y620460D01*
X22160Y622328D01*
X19872Y623648D01*
X17321Y624332D01*
X14679D01*
X12128Y623648D01*
X9840Y622328D01*
X7972Y620460D01*
X6652Y618172D01*
X5968Y615621D01*
Y612979D01*
X6652Y610428D01*
X7972Y608140D01*
X9840Y606272D01*
X12128Y604952D01*
X14679Y604268D01*
X17321D01*
X19872Y604952D01*
X22160Y606272D01*
X24028Y608140D01*
X24460Y608889D01*
X26999Y609223D01*
X36806Y599416D01*
X36806Y599416D01*
X37982Y598630D01*
X39370Y598354D01*
X39370Y598354D01*
X58814D01*
X58944Y598176D01*
X59518Y596322D01*
X58132Y594937D01*
X56838Y592695D01*
X56168Y590194D01*
Y587606D01*
X56838Y585105D01*
X58132Y582863D01*
X59963Y581032D01*
X62205Y579738D01*
X64706Y579068D01*
X67294D01*
X69795Y579738D01*
X72037Y581032D01*
X73868Y582863D01*
X75162Y585105D01*
X75832Y587606D01*
Y590194D01*
X75162Y592695D01*
X73868Y594937D01*
X72482Y596322D01*
X73057Y598176D01*
X73186Y598354D01*
X77238D01*
X80194Y595398D01*
Y405022D01*
X69947Y394774D01*
X69795Y394862D01*
X67294Y395532D01*
X64706D01*
X62205Y394862D01*
X59963Y393568D01*
X58132Y391737D01*
X56838Y389495D01*
X56168Y386994D01*
Y384406D01*
X56838Y381905D01*
X58132Y379663D01*
X59963Y377832D01*
X62205Y376538D01*
X64706Y375868D01*
X67294D01*
X69795Y376538D01*
X72037Y377832D01*
X73868Y379663D01*
X75162Y381905D01*
X75832Y384406D01*
Y386994D01*
X75162Y389495D01*
X75074Y389647D01*
X84512Y399085D01*
X86544Y398243D01*
Y385972D01*
X69947Y369374D01*
X69795Y369462D01*
X67294Y370132D01*
X64706D01*
X62205Y369462D01*
X59963Y368167D01*
X58132Y366337D01*
X56838Y364095D01*
X56168Y361594D01*
Y359006D01*
X56838Y356505D01*
X58132Y354263D01*
X59963Y352432D01*
X62205Y351138D01*
X64706Y350468D01*
X67294D01*
X69795Y351138D01*
X72037Y352432D01*
X73868Y354263D01*
X75162Y356505D01*
X75832Y359006D01*
Y361594D01*
X75162Y364095D01*
X75074Y364247D01*
X92734Y381906D01*
X92734Y381906D01*
X93520Y383083D01*
X93796Y384470D01*
Y613410D01*
X93796Y613410D01*
X93520Y614798D01*
X92734Y615974D01*
X78764Y629944D01*
X77587Y630730D01*
X76200Y631006D01*
X76200Y631006D01*
X74084D01*
X73242Y633038D01*
X73868Y633663D01*
X75162Y635905D01*
X75832Y638406D01*
Y640994D01*
X75162Y643495D01*
X73868Y645737D01*
X72037Y647568D01*
X69795Y648862D01*
X67294Y649532D01*
X64706D01*
X62205Y648862D01*
X59963Y647568D01*
X58132Y645737D01*
X56838Y643495D01*
X56793Y643326D01*
X50142D01*
X28026Y665442D01*
X26849Y666228D01*
X26032Y666391D01*
Y666421D01*
X25348Y668972D01*
X24028Y671260D01*
X22160Y673128D01*
X19872Y674448D01*
X17321Y675132D01*
D02*
G37*
G36*
X245294Y649532D02*
X242706D01*
X240205Y648862D01*
X237963Y647568D01*
X236132Y645737D01*
X234838Y643495D01*
X234168Y640994D01*
Y638406D01*
X234838Y635905D01*
X236132Y633663D01*
X237963Y631832D01*
X240205Y630538D01*
X242706Y629868D01*
X245294D01*
X247795Y630538D01*
X250037Y631832D01*
X251868Y633663D01*
X253162Y635905D01*
X253832Y638406D01*
Y640994D01*
X253162Y643495D01*
X251868Y645737D01*
X250037Y647568D01*
X247795Y648862D01*
X245294Y649532D01*
D02*
G37*
G36*
X205521Y633932D02*
X203419D01*
X201478Y633128D01*
X199992Y631642D01*
X199188Y629701D01*
Y627599D01*
X199992Y625658D01*
X201478Y624172D01*
X203419Y623368D01*
X205521D01*
X207462Y624172D01*
X208948Y625658D01*
X209752Y627599D01*
Y629701D01*
X208948Y631642D01*
X207462Y633128D01*
X205521Y633932D01*
D02*
G37*
G36*
X192821D02*
X190719D01*
X188778Y633128D01*
X187292Y631642D01*
X186488Y629701D01*
Y627599D01*
X187292Y625658D01*
X188778Y624172D01*
X190719Y623368D01*
X192821D01*
X194762Y624172D01*
X196248Y625658D01*
X197052Y627599D01*
Y629701D01*
X196248Y631642D01*
X194762Y633128D01*
X192821Y633932D01*
D02*
G37*
G36*
X180121Y632662D02*
X178019D01*
X176078Y631858D01*
X174592Y630372D01*
X173788Y628431D01*
Y626329D01*
X174592Y624388D01*
X176078Y622902D01*
X178019Y622098D01*
X180121D01*
X182062Y622902D01*
X183548Y624388D01*
X184352Y626329D01*
Y628431D01*
X183548Y630372D01*
X182062Y631858D01*
X180121Y632662D01*
D02*
G37*
G36*
X165100Y622961D02*
Y618490D01*
X169571D01*
X168739Y620500D01*
X167110Y622129D01*
X165100Y622961D01*
D02*
G37*
G36*
X162560D02*
X160550Y622129D01*
X158921Y620500D01*
X158089Y618490D01*
X162560D01*
Y622961D01*
D02*
G37*
G36*
X144780D02*
Y618490D01*
X149251D01*
X148419Y620500D01*
X146790Y622129D01*
X144780Y622961D01*
D02*
G37*
G36*
X142240D02*
X140230Y622129D01*
X138601Y620500D01*
X137769Y618490D01*
X142240D01*
Y622961D01*
D02*
G37*
G36*
X123190D02*
Y618490D01*
X127661D01*
X126829Y620500D01*
X125200Y622129D01*
X123190Y622961D01*
D02*
G37*
G36*
X120650D02*
X118640Y622129D01*
X117011Y620500D01*
X116179Y618490D01*
X120650D01*
Y622961D01*
D02*
G37*
G36*
X102870D02*
Y618490D01*
X107341D01*
X106509Y620500D01*
X104880Y622129D01*
X102870Y622961D01*
D02*
G37*
G36*
X100330D02*
X98320Y622129D01*
X96691Y620500D01*
X95859Y618490D01*
X100330D01*
Y622961D01*
D02*
G37*
G36*
X169571Y615950D02*
X165100D01*
Y611479D01*
X167110Y612311D01*
X168739Y613940D01*
X169571Y615950D01*
D02*
G37*
G36*
X162560D02*
X158089D01*
X158921Y613940D01*
X160550Y612311D01*
X162560Y611479D01*
Y615950D01*
D02*
G37*
G36*
X149251D02*
X144780D01*
Y611479D01*
X146790Y612311D01*
X148419Y613940D01*
X149251Y615950D01*
D02*
G37*
G36*
X142240D02*
X137769D01*
X138601Y613940D01*
X140230Y612311D01*
X142240Y611479D01*
Y615950D01*
D02*
G37*
G36*
X127661D02*
X123190D01*
Y611479D01*
X125200Y612311D01*
X126829Y613940D01*
X127661Y615950D01*
D02*
G37*
G36*
X120650D02*
X116179D01*
X117011Y613940D01*
X118640Y612311D01*
X120650Y611479D01*
Y615950D01*
D02*
G37*
G36*
X107341D02*
X102870D01*
Y611479D01*
X104880Y612311D01*
X106509Y613940D01*
X107341Y615950D01*
D02*
G37*
G36*
X100330D02*
X95859D01*
X96691Y613940D01*
X98320Y612311D01*
X100330Y611479D01*
Y615950D01*
D02*
G37*
G36*
X245294Y624132D02*
X242706D01*
X240205Y623462D01*
X237963Y622168D01*
X236132Y620337D01*
X234838Y618095D01*
X234168Y615594D01*
Y613006D01*
X234838Y610505D01*
X236132Y608263D01*
X237963Y606432D01*
X240205Y605138D01*
X242706Y604468D01*
X245294D01*
X247795Y605138D01*
X250037Y606432D01*
X251868Y608263D01*
X253162Y610505D01*
X253832Y613006D01*
Y615594D01*
X253162Y618095D01*
X251868Y620337D01*
X250037Y622168D01*
X247795Y623462D01*
X245294Y624132D01*
D02*
G37*
G36*
Y598732D02*
X242706D01*
X240205Y598062D01*
X237963Y596768D01*
X236132Y594937D01*
X234838Y592695D01*
X234168Y590194D01*
Y587606D01*
X234838Y585105D01*
X234926Y584953D01*
X219686Y569714D01*
X218900Y568537D01*
X218624Y567150D01*
X218624Y567150D01*
Y446002D01*
X213128Y440506D01*
X120650D01*
X119263Y440230D01*
X118086Y439444D01*
X118086Y439444D01*
X110173Y431530D01*
X108450Y432681D01*
X108611Y433070D01*
X104140D01*
Y428599D01*
X104529Y428760D01*
X105680Y427037D01*
X100306Y421664D01*
X99520Y420488D01*
X99244Y419100D01*
X99244Y419100D01*
Y378460D01*
X99244Y378460D01*
X99520Y377072D01*
X100306Y375896D01*
X112018Y364184D01*
X112007Y363567D01*
X111412Y361917D01*
X111133Y361802D01*
X110998Y361775D01*
X110884Y361698D01*
X110038Y361348D01*
X109390Y360700D01*
X109276Y360624D01*
X109151Y360499D01*
X109075Y360385D01*
X108552Y359862D01*
X108269Y359179D01*
X108000Y358777D01*
X107906Y358302D01*
X107748Y357921D01*
Y357508D01*
X107596Y356745D01*
X107596Y356745D01*
Y349182D01*
X106998D01*
Y336618D01*
X118562D01*
Y336618D01*
X119998D01*
Y336618D01*
X131562D01*
Y336618D01*
X132322D01*
X134354Y335832D01*
Y332402D01*
X130998D01*
Y317838D01*
X143168D01*
X144990Y317330D01*
X145884Y317330D01*
X150760D01*
Y325120D01*
Y332910D01*
X145884D01*
X144990Y332910D01*
X143638Y332533D01*
X142166Y333279D01*
X142088Y333356D01*
X142288Y335588D01*
X143638Y336390D01*
X144640Y336110D01*
X146034Y336110D01*
X149660D01*
Y342900D01*
Y349690D01*
X146034D01*
X144640Y349690D01*
X142818Y349182D01*
X137275D01*
X106496Y379962D01*
Y417598D01*
X113105Y424207D01*
X114760Y423027D01*
X114484Y421640D01*
X114484Y421640D01*
Y388329D01*
X114441Y388264D01*
X113848Y388018D01*
X112362Y386532D01*
X111558Y384591D01*
Y382489D01*
X112362Y380548D01*
X113848Y379062D01*
X115789Y378258D01*
X117891D01*
X119832Y379062D01*
X121318Y380548D01*
X122122Y382489D01*
Y384591D01*
X121530Y386020D01*
X121736Y387052D01*
X121736Y387052D01*
Y389930D01*
X123768Y390772D01*
X123888Y390652D01*
X125829Y389848D01*
X127931D01*
X129872Y390652D01*
X130724Y391504D01*
X135058D01*
Y387938D01*
X147122D01*
Y402002D01*
X135058D01*
Y398756D01*
X130724D01*
X129872Y399608D01*
X127931Y400412D01*
X125829D01*
X123888Y399608D01*
X123768Y399488D01*
X121736Y400330D01*
Y410210D01*
X123768Y411052D01*
X124008Y410812D01*
X125949Y410008D01*
X128051D01*
X129992Y410812D01*
X130844Y411664D01*
X135058D01*
Y408258D01*
X147122D01*
Y422322D01*
X135058D01*
Y418916D01*
X130844D01*
X129992Y419768D01*
X128051Y420572D01*
X125949D01*
X124403Y419932D01*
X123252Y421654D01*
X128502Y426904D01*
X219710D01*
X219710Y426904D01*
X221098Y427180D01*
X222274Y427966D01*
X231628Y437321D01*
X233660Y436479D01*
Y435139D01*
X234365Y432509D01*
X235726Y430151D01*
X237651Y428226D01*
X240009Y426865D01*
X242639Y426160D01*
X242730D01*
Y436500D01*
Y446840D01*
X242639D01*
X240009Y446135D01*
X237651Y444774D01*
X235726Y442849D01*
X235528Y442505D01*
X233496Y443050D01*
Y456366D01*
X235528Y456911D01*
X236132Y455863D01*
X237963Y454032D01*
X240205Y452738D01*
X242706Y452068D01*
X245294D01*
X247795Y452738D01*
X250037Y454032D01*
X251868Y455863D01*
X253162Y458105D01*
X253832Y460606D01*
Y463194D01*
X253162Y465695D01*
X251868Y467937D01*
X250037Y469767D01*
X247795Y471062D01*
X245294Y471732D01*
X242706D01*
X240205Y471062D01*
X237963Y469767D01*
X236132Y467937D01*
X235528Y466889D01*
X233496Y467434D01*
Y481766D01*
X235528Y482310D01*
X236132Y481263D01*
X237963Y479432D01*
X240205Y478138D01*
X242706Y477468D01*
X245294D01*
X247795Y478138D01*
X250037Y479432D01*
X251868Y481263D01*
X253162Y483505D01*
X253832Y486006D01*
Y488594D01*
X253162Y491095D01*
X251868Y493337D01*
X250037Y495168D01*
X247795Y496462D01*
X245294Y497132D01*
X242706D01*
X240205Y496462D01*
X237963Y495168D01*
X236132Y493337D01*
X235528Y492290D01*
X233496Y492834D01*
Y497068D01*
X240053Y503626D01*
X240205Y503538D01*
X242706Y502868D01*
X245294D01*
X247795Y503538D01*
X250037Y504832D01*
X251868Y506663D01*
X253162Y508905D01*
X253832Y511406D01*
Y513994D01*
X253162Y516495D01*
X251868Y518737D01*
X250037Y520568D01*
X247795Y521862D01*
X245294Y522532D01*
X242706D01*
X240205Y521862D01*
X237963Y520568D01*
X236132Y518737D01*
X234838Y516495D01*
X234168Y513994D01*
Y511406D01*
X234838Y508905D01*
X234926Y508753D01*
X227908Y501735D01*
X225876Y502577D01*
Y565648D01*
X240053Y579826D01*
X240205Y579738D01*
X242706Y579068D01*
X245294D01*
X247795Y579738D01*
X250037Y581032D01*
X251868Y582863D01*
X253162Y585105D01*
X253832Y587606D01*
Y590194D01*
X253162Y592695D01*
X251868Y594937D01*
X250037Y596768D01*
X247795Y598062D01*
X245294Y598732D01*
D02*
G37*
G36*
X245361Y573840D02*
X245270D01*
Y564770D01*
X254340D01*
Y564861D01*
X253635Y567491D01*
X252274Y569849D01*
X250349Y571774D01*
X247991Y573135D01*
X245361Y573840D01*
D02*
G37*
G36*
X67361D02*
X67270D01*
Y564770D01*
X76340D01*
Y564861D01*
X75635Y567491D01*
X74274Y569849D01*
X72349Y571774D01*
X69991Y573135D01*
X67361Y573840D01*
D02*
G37*
G36*
X64730D02*
X64639D01*
X62009Y573135D01*
X59651Y571774D01*
X57726Y569849D01*
X56365Y567491D01*
X55660Y564861D01*
Y564770D01*
X64730D01*
Y573840D01*
D02*
G37*
G36*
X242730D02*
X242639D01*
X240009Y573135D01*
X237651Y571774D01*
X235726Y569849D01*
X234365Y567491D01*
X233660Y564861D01*
Y564770D01*
X242730D01*
Y573840D01*
D02*
G37*
G36*
X254340Y562230D02*
X245270D01*
Y553160D01*
X245361D01*
X247991Y553865D01*
X250349Y555226D01*
X252274Y557151D01*
X253635Y559509D01*
X254340Y562139D01*
Y562230D01*
D02*
G37*
G36*
X242730D02*
X233660D01*
Y562139D01*
X234365Y559509D01*
X235726Y557151D01*
X237651Y555226D01*
X240009Y553865D01*
X242639Y553160D01*
X242730D01*
Y562230D01*
D02*
G37*
G36*
X76340D02*
X67270D01*
Y553160D01*
X67361D01*
X69991Y553865D01*
X72349Y555226D01*
X74274Y557151D01*
X75635Y559509D01*
X76340Y562139D01*
Y562230D01*
D02*
G37*
G36*
X64730D02*
X55660D01*
Y562139D01*
X56365Y559509D01*
X57726Y557151D01*
X59651Y555226D01*
X62009Y553865D01*
X64639Y553160D01*
X64730D01*
Y562230D01*
D02*
G37*
G36*
X17321Y598932D02*
X14679D01*
X12128Y598248D01*
X9840Y596928D01*
X7972Y595060D01*
X6652Y592772D01*
X5968Y590221D01*
Y587579D01*
X6652Y585028D01*
X7972Y582740D01*
X9840Y580872D01*
X12128Y579552D01*
X14679Y578868D01*
X17321D01*
X19872Y579552D01*
X22160Y580872D01*
X22906Y581619D01*
X23223Y581556D01*
X23223Y581556D01*
X25456D01*
X45904Y561108D01*
Y550107D01*
X43872Y549265D01*
X28661Y564477D01*
X27484Y565263D01*
X26097Y565539D01*
X26097Y565539D01*
X25840D01*
X25348Y567372D01*
X24028Y569660D01*
X22160Y571528D01*
X19872Y572848D01*
X17321Y573532D01*
X14679D01*
X12128Y572848D01*
X9840Y571528D01*
X7972Y569660D01*
X6652Y567372D01*
X5968Y564821D01*
Y562179D01*
X6652Y559628D01*
X7972Y557340D01*
X9840Y555472D01*
X12128Y554152D01*
X14679Y553468D01*
X17321D01*
X19872Y554152D01*
X22160Y555472D01*
X24028Y557340D01*
X26070Y556813D01*
X39554Y543328D01*
Y531057D01*
X37522Y530215D01*
X28661Y539077D01*
X27484Y539863D01*
X26097Y540139D01*
X26097Y540139D01*
X25840D01*
X25348Y541972D01*
X24028Y544260D01*
X22160Y546128D01*
X19872Y547448D01*
X17321Y548132D01*
X14679D01*
X12128Y547448D01*
X9840Y546128D01*
X7972Y544260D01*
X6652Y541972D01*
X5968Y539421D01*
Y536779D01*
X6652Y534228D01*
X7972Y531940D01*
X9840Y530072D01*
X12128Y528752D01*
X14679Y528068D01*
X17321D01*
X19872Y528752D01*
X22160Y530072D01*
X24028Y531940D01*
X26070Y531413D01*
X33204Y524278D01*
Y334207D01*
X31172Y333365D01*
X28661Y335877D01*
X27484Y336663D01*
X26097Y336939D01*
X26097Y336939D01*
X25840D01*
X25348Y338772D01*
X24028Y341060D01*
X22160Y342928D01*
X19872Y344248D01*
X17321Y344932D01*
X14679D01*
X12128Y344248D01*
X9840Y342928D01*
X7972Y341060D01*
X6652Y338772D01*
X5968Y336221D01*
Y333579D01*
X6652Y331028D01*
X7972Y328740D01*
X9840Y326872D01*
X12128Y325552D01*
X14679Y324868D01*
X17321D01*
X19872Y325552D01*
X22160Y326872D01*
X24028Y328740D01*
X26070Y328213D01*
X26854Y327428D01*
Y315844D01*
X24822Y315299D01*
X24434Y315972D01*
X22472Y317934D01*
X20068Y319322D01*
X17388Y320040D01*
X17270D01*
Y309500D01*
Y298960D01*
X17388D01*
X20068Y299678D01*
X22472Y301066D01*
X24434Y303028D01*
X24822Y303701D01*
X26854Y303156D01*
Y290444D01*
X24822Y289899D01*
X24434Y290572D01*
X22472Y292534D01*
X20068Y293922D01*
X17388Y294640D01*
X17270D01*
Y284100D01*
Y273560D01*
X17388D01*
X20068Y274278D01*
X22472Y275666D01*
X24434Y277628D01*
X24822Y278301D01*
X26854Y277756D01*
Y271142D01*
X26540Y269240D01*
X24822Y269240D01*
X17270D01*
Y258700D01*
Y248160D01*
X26540D01*
Y249939D01*
X28572Y250781D01*
X63484Y215869D01*
X63484Y215869D01*
X64660Y215083D01*
X66048Y214807D01*
X66048Y214807D01*
X102132D01*
X102133Y214807D01*
X103520Y215083D01*
X104696Y215869D01*
X240053Y351226D01*
X240205Y351138D01*
X242706Y350468D01*
X245294D01*
X247795Y351138D01*
X250037Y352432D01*
X251868Y354263D01*
X253162Y356505D01*
X253832Y359006D01*
Y361594D01*
X253162Y364095D01*
X251868Y366337D01*
X250037Y368167D01*
X247795Y369462D01*
X245294Y370132D01*
X242706D01*
X240205Y369462D01*
X237963Y368167D01*
X236132Y366337D01*
X234838Y364095D01*
X234168Y361594D01*
Y359006D01*
X234838Y356505D01*
X234926Y356353D01*
X226692Y348119D01*
X225055Y348007D01*
X224720Y348315D01*
X224352Y349824D01*
X224352Y350487D01*
Y362632D01*
X222081D01*
Y366078D01*
X223622D01*
Y368484D01*
X230410D01*
X230410Y368484D01*
X231798Y368760D01*
X232974Y369546D01*
X240053Y376626D01*
X240205Y376538D01*
X242706Y375868D01*
X245294D01*
X247795Y376538D01*
X250037Y377832D01*
X251868Y379663D01*
X253162Y381905D01*
X253832Y384406D01*
Y386994D01*
X253162Y389495D01*
X251868Y391737D01*
X250037Y393568D01*
X247795Y394862D01*
X245294Y395532D01*
X242706D01*
X240205Y394862D01*
X237963Y393568D01*
X236132Y391737D01*
X234838Y389495D01*
X234168Y386994D01*
Y384406D01*
X234838Y381905D01*
X234926Y381753D01*
X228908Y375736D01*
X223622D01*
Y378016D01*
X223622Y378142D01*
Y380048D01*
X223622Y380174D01*
Y386984D01*
X239172Y402534D01*
X240205Y401938D01*
X242706Y401268D01*
X245294D01*
X247795Y401938D01*
X250037Y403232D01*
X251868Y405063D01*
X253162Y407305D01*
X253832Y409806D01*
Y412394D01*
X253162Y414895D01*
X251868Y417137D01*
X250037Y418968D01*
X247795Y420262D01*
X245294Y420932D01*
X242706D01*
X240205Y420262D01*
X237963Y418968D01*
X236132Y417137D01*
X234838Y414895D01*
X234168Y412394D01*
Y409806D01*
X234595Y408212D01*
X226229Y399847D01*
X224352Y400624D01*
Y410892D01*
X218747D01*
X218408Y411400D01*
X218408Y411400D01*
X211954Y417854D01*
X210777Y418640D01*
X209390Y418916D01*
X209390Y418916D01*
X162122D01*
Y422322D01*
X150058D01*
Y408258D01*
X162122D01*
Y411664D01*
X195576D01*
X197288Y410892D01*
Y408351D01*
X195256Y407844D01*
X194762Y408338D01*
X192821Y409142D01*
X190719D01*
X188778Y408338D01*
X187292Y406852D01*
X186488Y404911D01*
Y402809D01*
X187292Y400868D01*
X188778Y399382D01*
X190719Y398578D01*
X192821D01*
X194762Y399382D01*
X195256Y399876D01*
X197288Y399369D01*
Y396828D01*
X209352D01*
Y406299D01*
X211384Y407299D01*
X212218Y406657D01*
Y406336D01*
X212218Y406336D01*
X212288Y405985D01*
Y396828D01*
X214829D01*
Y392112D01*
X213558D01*
Y380174D01*
X213558Y380048D01*
Y378142D01*
X213558Y378016D01*
Y366078D01*
X214829D01*
Y362632D01*
X212288D01*
Y348568D01*
X212288D01*
X212760Y347428D01*
X206778Y341446D01*
X181842D01*
X159716Y363572D01*
Y387938D01*
X162122D01*
Y402002D01*
X150058D01*
Y387938D01*
X152464D01*
Y362070D01*
X152464Y362070D01*
X152740Y360682D01*
X153526Y359506D01*
X162310Y350722D01*
X161469Y348690D01*
X161408D01*
X159280Y347809D01*
X159252Y347781D01*
X157220Y348622D01*
Y349690D01*
X152200D01*
Y342900D01*
Y336110D01*
X157220D01*
Y337178D01*
X159252Y338019D01*
X159280Y337991D01*
X161290Y337159D01*
Y342900D01*
X163830D01*
Y337159D01*
X165840Y337991D01*
X167469Y339620D01*
X168350Y341748D01*
Y341809D01*
X170382Y342650D01*
X177776Y335256D01*
X178953Y334470D01*
X180340Y334194D01*
X180340Y334194D01*
X208280D01*
X208280Y334194D01*
X209667Y334470D01*
X210844Y335256D01*
X220837Y345250D01*
X220837Y345250D01*
X221562Y346335D01*
X221623Y346426D01*
X222639Y348074D01*
X222904Y348167D01*
X224148Y348050D01*
X224687Y346115D01*
X100631Y222058D01*
X67549D01*
X34106Y255502D01*
Y274395D01*
X36120Y274438D01*
X37001Y272310D01*
X38630Y270681D01*
X40640Y269849D01*
Y275590D01*
Y281331D01*
X38630Y280499D01*
X37001Y278870D01*
X36120Y276742D01*
X34106Y276785D01*
Y307993D01*
X36138Y308835D01*
X56926Y288047D01*
X56838Y287895D01*
X56168Y285394D01*
Y282806D01*
X56838Y280305D01*
X58132Y278063D01*
X59963Y276232D01*
X62205Y274938D01*
X64706Y274268D01*
X67294D01*
X69795Y274938D01*
X72037Y276232D01*
X73868Y278063D01*
X75162Y280305D01*
X75832Y282806D01*
Y285394D01*
X75162Y287895D01*
X73868Y290137D01*
X72037Y291968D01*
X69795Y293262D01*
X67294Y293932D01*
X64706D01*
X62205Y293262D01*
X62053Y293174D01*
X40456Y314772D01*
Y352443D01*
X42488Y353285D01*
X56926Y338847D01*
X56838Y338695D01*
X56168Y336194D01*
Y333606D01*
X56838Y331105D01*
X58132Y328863D01*
X59963Y327032D01*
X62205Y325738D01*
X64706Y325068D01*
X67294D01*
X69795Y325738D01*
X72037Y327032D01*
X73868Y328863D01*
X75162Y331105D01*
X75832Y333606D01*
Y336194D01*
X75162Y338695D01*
X73868Y340937D01*
X72037Y342767D01*
X69795Y344062D01*
X67294Y344732D01*
X64706D01*
X62205Y344062D01*
X62053Y343974D01*
X46806Y359222D01*
Y422293D01*
X48838Y423135D01*
X56926Y415047D01*
X56838Y414895D01*
X56168Y412394D01*
Y409806D01*
X56838Y407305D01*
X58132Y405063D01*
X59963Y403232D01*
X62205Y401938D01*
X64706Y401268D01*
X67294D01*
X69795Y401938D01*
X72037Y403232D01*
X73868Y405063D01*
X75162Y407305D01*
X75832Y409806D01*
Y412394D01*
X75162Y414895D01*
X73868Y417137D01*
X72037Y418968D01*
X69795Y420262D01*
X67294Y420932D01*
X64706D01*
X62205Y420262D01*
X62053Y420174D01*
X53156Y429072D01*
Y562610D01*
X53156Y562610D01*
X52880Y563997D01*
X52094Y565174D01*
X52094Y565174D01*
X29522Y587746D01*
X28346Y588532D01*
X26958Y588808D01*
X26032Y590221D01*
X25348Y592772D01*
X24028Y595060D01*
X22160Y596928D01*
X19872Y598248D01*
X17321Y598932D01*
D02*
G37*
G36*
X245294Y547932D02*
X242706D01*
X240205Y547262D01*
X237963Y545967D01*
X236132Y544137D01*
X234838Y541895D01*
X234168Y539394D01*
Y536806D01*
X234838Y534305D01*
X236132Y532063D01*
X237963Y530232D01*
X240205Y528938D01*
X242706Y528268D01*
X245294D01*
X247795Y528938D01*
X250037Y530232D01*
X251868Y532063D01*
X253162Y534305D01*
X253832Y536806D01*
Y539394D01*
X253162Y541895D01*
X251868Y544137D01*
X250037Y545967D01*
X247795Y547262D01*
X245294Y547932D01*
D02*
G37*
G36*
X67294D02*
X64706D01*
X62205Y547262D01*
X59963Y545967D01*
X58132Y544137D01*
X56838Y541895D01*
X56168Y539394D01*
Y536806D01*
X56838Y534305D01*
X58132Y532063D01*
X59963Y530232D01*
X62205Y528938D01*
X64706Y528268D01*
X67294D01*
X69795Y528938D01*
X72037Y530232D01*
X73868Y532063D01*
X75162Y534305D01*
X75832Y536806D01*
Y539394D01*
X75162Y541895D01*
X73868Y544137D01*
X72037Y545967D01*
X69795Y547262D01*
X67294Y547932D01*
D02*
G37*
G36*
X17388Y523240D02*
X17270D01*
Y513970D01*
X26540D01*
Y514088D01*
X25822Y516768D01*
X24434Y519172D01*
X22472Y521134D01*
X20068Y522522D01*
X17388Y523240D01*
D02*
G37*
G36*
X14730D02*
X14612D01*
X11932Y522522D01*
X9528Y521134D01*
X7566Y519172D01*
X6178Y516768D01*
X5460Y514088D01*
Y513970D01*
X14730D01*
Y523240D01*
D02*
G37*
G36*
X67294Y522532D02*
X64706D01*
X62205Y521862D01*
X59963Y520568D01*
X58132Y518737D01*
X56838Y516495D01*
X56168Y513994D01*
Y511406D01*
X56838Y508905D01*
X58132Y506663D01*
X59963Y504832D01*
X62205Y503538D01*
X64706Y502868D01*
X67294D01*
X69795Y503538D01*
X72037Y504832D01*
X73868Y506663D01*
X75162Y508905D01*
X75832Y511406D01*
Y513994D01*
X75162Y516495D01*
X73868Y518737D01*
X72037Y520568D01*
X69795Y521862D01*
X67294Y522532D01*
D02*
G37*
G36*
X26540Y511430D02*
X17270D01*
Y502160D01*
X17388D01*
X20068Y502878D01*
X22472Y504266D01*
X24434Y506228D01*
X25822Y508632D01*
X26540Y511312D01*
Y511430D01*
D02*
G37*
G36*
X14730D02*
X5460D01*
Y511312D01*
X6178Y508632D01*
X7566Y506228D01*
X9528Y504266D01*
X11932Y502878D01*
X14612Y502160D01*
X14730D01*
Y511430D01*
D02*
G37*
G36*
X67294Y497132D02*
X64706D01*
X62205Y496462D01*
X59963Y495168D01*
X58132Y493337D01*
X56838Y491095D01*
X56168Y488594D01*
Y486006D01*
X56838Y483505D01*
X58132Y481263D01*
X59963Y479432D01*
X62205Y478138D01*
X64706Y477468D01*
X67294D01*
X69795Y478138D01*
X72037Y479432D01*
X73868Y481263D01*
X75162Y483505D01*
X75832Y486006D01*
Y488594D01*
X75162Y491095D01*
X73868Y493337D01*
X72037Y495168D01*
X69795Y496462D01*
X67294Y497132D01*
D02*
G37*
G36*
X17321Y497332D02*
X14679D01*
X12128Y496648D01*
X9840Y495328D01*
X7972Y493460D01*
X6652Y491172D01*
X5968Y488621D01*
Y485979D01*
X6652Y483428D01*
X7972Y481140D01*
X9840Y479272D01*
X12128Y477952D01*
X14679Y477268D01*
X17321D01*
X19872Y477952D01*
X22160Y479272D01*
X24028Y481140D01*
X25348Y483428D01*
X26032Y485979D01*
Y488621D01*
X25348Y491172D01*
X24028Y493460D01*
X22160Y495328D01*
X19872Y496648D01*
X17321Y497332D01*
D02*
G37*
G36*
X67294Y471732D02*
X64706D01*
X62205Y471062D01*
X59963Y469767D01*
X58132Y467937D01*
X56838Y465695D01*
X56168Y463194D01*
Y460606D01*
X56838Y458105D01*
X58132Y455863D01*
X59963Y454032D01*
X62205Y452738D01*
X64706Y452068D01*
X67294D01*
X69795Y452738D01*
X72037Y454032D01*
X73868Y455863D01*
X75162Y458105D01*
X75832Y460606D01*
Y463194D01*
X75162Y465695D01*
X73868Y467937D01*
X72037Y469767D01*
X69795Y471062D01*
X67294Y471732D01*
D02*
G37*
G36*
X17321Y471932D02*
X14679D01*
X12128Y471248D01*
X9840Y469928D01*
X7972Y468060D01*
X6652Y465772D01*
X5968Y463221D01*
Y460579D01*
X6652Y458028D01*
X7972Y455740D01*
X9840Y453872D01*
X12128Y452552D01*
X14679Y451868D01*
X17321D01*
X19872Y452552D01*
X22160Y453872D01*
X24028Y455740D01*
X25348Y458028D01*
X26032Y460579D01*
Y463221D01*
X25348Y465772D01*
X24028Y468060D01*
X22160Y469928D01*
X19872Y471248D01*
X17321Y471932D01*
D02*
G37*
G36*
X245361Y446840D02*
X245270D01*
Y437770D01*
X254340D01*
Y437861D01*
X253635Y440491D01*
X252274Y442849D01*
X250349Y444774D01*
X247991Y446135D01*
X245361Y446840D01*
D02*
G37*
G36*
X67361D02*
X67270D01*
Y437770D01*
X76340D01*
Y437861D01*
X75635Y440491D01*
X74274Y442849D01*
X72349Y444774D01*
X69991Y446135D01*
X67361Y446840D01*
D02*
G37*
G36*
X64730D02*
X64639D01*
X62009Y446135D01*
X59651Y444774D01*
X57726Y442849D01*
X56365Y440491D01*
X55660Y437861D01*
Y437770D01*
X64730D01*
Y446840D01*
D02*
G37*
G36*
X104140Y440081D02*
Y435610D01*
X108611D01*
X107779Y437620D01*
X106150Y439249D01*
X104140Y440081D01*
D02*
G37*
G36*
X101600D02*
X99590Y439249D01*
X97961Y437620D01*
X97129Y435610D01*
X101600D01*
Y440081D01*
D02*
G37*
G36*
Y433070D02*
X97129D01*
X97961Y431060D01*
X99590Y429431D01*
X101600Y428599D01*
Y433070D01*
D02*
G37*
G36*
X17321Y446532D02*
X14679D01*
X12128Y445848D01*
X9840Y444528D01*
X7972Y442660D01*
X6652Y440372D01*
X5968Y437821D01*
Y435179D01*
X6652Y432628D01*
X7972Y430340D01*
X9840Y428472D01*
X12128Y427152D01*
X14679Y426468D01*
X17321D01*
X19872Y427152D01*
X22160Y428472D01*
X24028Y430340D01*
X25348Y432628D01*
X26032Y435179D01*
Y437821D01*
X25348Y440372D01*
X24028Y442660D01*
X22160Y444528D01*
X19872Y445848D01*
X17321Y446532D01*
D02*
G37*
G36*
X254340Y435230D02*
X245270D01*
Y426160D01*
X245361D01*
X247991Y426865D01*
X250349Y428226D01*
X252274Y430151D01*
X253635Y432509D01*
X254340Y435139D01*
Y435230D01*
D02*
G37*
G36*
X76340D02*
X67270D01*
Y426160D01*
X67361D01*
X69991Y426865D01*
X72349Y428226D01*
X74274Y430151D01*
X75635Y432509D01*
X76340Y435139D01*
Y435230D01*
D02*
G37*
G36*
X64730D02*
X55660D01*
Y435139D01*
X56365Y432509D01*
X57726Y430151D01*
X59651Y428226D01*
X62009Y426865D01*
X64639Y426160D01*
X64730D01*
Y435230D01*
D02*
G37*
G36*
X17321Y421132D02*
X14679D01*
X12128Y420448D01*
X9840Y419128D01*
X7972Y417260D01*
X6652Y414972D01*
X5968Y412421D01*
Y409779D01*
X6652Y407228D01*
X7972Y404940D01*
X9840Y403072D01*
X12128Y401752D01*
X14679Y401068D01*
X17321D01*
X19872Y401752D01*
X22160Y403072D01*
X24028Y404940D01*
X25348Y407228D01*
X26032Y409779D01*
Y412421D01*
X25348Y414972D01*
X24028Y417260D01*
X22160Y419128D01*
X19872Y420448D01*
X17321Y421132D01*
D02*
G37*
G36*
X210622Y392112D02*
X200558D01*
Y389133D01*
X200372Y389009D01*
X200372Y389009D01*
X196087Y384723D01*
X194788D01*
X194091Y385012D01*
X193175D01*
X193040Y385039D01*
X192905Y385012D01*
X191989D01*
X191143Y384662D01*
X191008Y384635D01*
X190894Y384558D01*
X190048Y384208D01*
X189400Y383560D01*
X189286Y383484D01*
X189210Y383370D01*
X188562Y382722D01*
X188211Y381876D01*
X188135Y381762D01*
X188108Y381627D01*
X187758Y380781D01*
Y379865D01*
X187731Y379730D01*
X187758Y379595D01*
Y378679D01*
X188108Y377833D01*
X188135Y377698D01*
X188211Y377584D01*
X188562Y376738D01*
X189210Y376090D01*
X189286Y375976D01*
X189602Y375660D01*
X189602Y375660D01*
X189716Y375584D01*
X190048Y375252D01*
X190481Y375072D01*
X191324Y374509D01*
X193356Y374105D01*
X196087D01*
X200558Y369634D01*
Y366078D01*
X210622D01*
Y370717D01*
X210899Y372110D01*
Y372760D01*
X210899Y372760D01*
X210622Y374153D01*
Y378016D01*
X210622Y378142D01*
X210622D01*
Y380048D01*
X210622D01*
Y384037D01*
X210899Y385430D01*
X210899Y385430D01*
Y386080D01*
X210622Y387473D01*
Y392112D01*
D02*
G37*
G36*
X17321Y395732D02*
X14679D01*
X12128Y395048D01*
X9840Y393728D01*
X7972Y391860D01*
X6652Y389572D01*
X5968Y387021D01*
Y384379D01*
X6652Y381828D01*
X7972Y379540D01*
X9840Y377672D01*
X12128Y376352D01*
X14679Y375668D01*
X17321D01*
X19872Y376352D01*
X22160Y377672D01*
X24028Y379540D01*
X25348Y381828D01*
X26032Y384379D01*
Y387021D01*
X25348Y389572D01*
X24028Y391860D01*
X22160Y393728D01*
X19872Y395048D01*
X17321Y395732D01*
D02*
G37*
G36*
X209352Y362632D02*
X197288D01*
Y357956D01*
X186724D01*
X185872Y358808D01*
X183931Y359612D01*
X181829D01*
X179888Y358808D01*
X178402Y357322D01*
X177598Y355381D01*
Y353279D01*
X178402Y351338D01*
X179888Y349852D01*
X181829Y349048D01*
X183931D01*
X185872Y349852D01*
X186724Y350704D01*
X197288D01*
Y348568D01*
X209352D01*
Y362632D01*
D02*
G37*
G36*
X17321Y370332D02*
X14679D01*
X12128Y369648D01*
X9840Y368328D01*
X7972Y366460D01*
X6652Y364172D01*
X5968Y361621D01*
Y358979D01*
X6652Y356428D01*
X7972Y354140D01*
X9840Y352272D01*
X12128Y350952D01*
X14679Y350268D01*
X17321D01*
X19872Y350952D01*
X22160Y352272D01*
X24028Y354140D01*
X25348Y356428D01*
X26032Y358979D01*
Y361621D01*
X25348Y364172D01*
X24028Y366460D01*
X22160Y368328D01*
X19872Y369648D01*
X17321Y370332D01*
D02*
G37*
G36*
X153300Y332910D02*
Y326390D01*
X159070D01*
Y332910D01*
X153300D01*
D02*
G37*
G36*
X245294Y344732D02*
X242706D01*
X240205Y344062D01*
X237963Y342767D01*
X236132Y340937D01*
X234838Y338695D01*
X234168Y336194D01*
Y333606D01*
X234838Y331105D01*
X234926Y330953D01*
X128246Y224274D01*
X128246Y224274D01*
X113338Y209366D01*
X61312D01*
Y212022D01*
X50844D01*
X48812Y212022D01*
X48216Y212022D01*
X37748D01*
Y199458D01*
X36961Y197752D01*
X35923D01*
Y178688D01*
X48041D01*
X49530Y178688D01*
X51019Y178688D01*
X59230D01*
X59581Y178618D01*
X59581Y178618D01*
X68648D01*
X68648Y172002D01*
X68648Y171406D01*
Y162380D01*
X68648Y160938D01*
X66861Y160347D01*
X63137D01*
Y166752D01*
X50994D01*
X49517Y166752D01*
X48041Y166752D01*
X35898D01*
Y152816D01*
X35636Y152554D01*
X34850Y151377D01*
X34574Y149990D01*
X34574Y149990D01*
Y145982D01*
X32668D01*
Y133418D01*
X43136D01*
X45168Y133418D01*
X45764Y133418D01*
X56232D01*
Y136074D01*
X60925D01*
X61778Y135222D01*
X63719Y134418D01*
X65821D01*
X67762Y135222D01*
X69248Y136708D01*
X70052Y138649D01*
Y140751D01*
X69248Y142692D01*
X67762Y144178D01*
X65821Y144982D01*
X63719D01*
X61778Y144178D01*
X60925Y143326D01*
X56232D01*
Y145656D01*
X56232Y145982D01*
X57019Y147688D01*
X63137D01*
Y149729D01*
X67106D01*
X69459Y147376D01*
X69460Y147376D01*
X71182Y146225D01*
X72176Y146027D01*
X72609Y145848D01*
X73078D01*
X73214Y145821D01*
X73214Y145821D01*
X73660D01*
X73795Y145848D01*
X74711D01*
X75557Y146198D01*
X75692Y146225D01*
X75806Y146301D01*
X76652Y146652D01*
X77300Y147300D01*
X77414Y147376D01*
X77490Y147490D01*
X78138Y148138D01*
X78488Y148984D01*
X78565Y149098D01*
X78592Y149233D01*
X78942Y150079D01*
Y150995D01*
X78969Y151130D01*
X78942Y151265D01*
Y152181D01*
X78592Y153027D01*
X78565Y153162D01*
X78488Y153276D01*
X78138Y154122D01*
X77490Y154770D01*
X77414Y154884D01*
X77300Y154960D01*
X76652Y155608D01*
X75955Y155897D01*
X73059Y158793D01*
X72889Y158906D01*
X73506Y160938D01*
X81212D01*
Y162327D01*
X81580Y164314D01*
X82967Y164590D01*
X84144Y165376D01*
X87475Y168708D01*
X88681D01*
X90622Y169512D01*
X92108Y170998D01*
X92912Y172939D01*
Y175041D01*
X92108Y176982D01*
X90622Y178468D01*
X88681Y179272D01*
X86579D01*
X84638Y178468D01*
X83244Y177074D01*
X82774Y177104D01*
X81212Y177609D01*
Y184502D01*
X73776D01*
X73470Y184808D01*
X72294Y185594D01*
X70906Y185870D01*
X70906Y185870D01*
X63137D01*
Y197752D01*
X62099D01*
X61312Y199458D01*
X61312Y199784D01*
Y202114D01*
X114840D01*
X114840Y202114D01*
X116228Y202390D01*
X117404Y203176D01*
X125307Y211080D01*
X127184Y210302D01*
Y182562D01*
X123778D01*
Y170498D01*
X137842D01*
Y182562D01*
X134436D01*
Y220208D01*
X240053Y325826D01*
X240205Y325738D01*
X242706Y325068D01*
X245294D01*
X247795Y325738D01*
X250037Y327032D01*
X251868Y328863D01*
X253162Y331105D01*
X253832Y333606D01*
Y336194D01*
X253162Y338695D01*
X251868Y340937D01*
X250037Y342767D01*
X247795Y344062D01*
X245294Y344732D01*
D02*
G37*
G36*
X159070Y323850D02*
X153300D01*
Y317330D01*
X159070D01*
Y323850D01*
D02*
G37*
G36*
X14730Y320040D02*
X14612D01*
X11932Y319322D01*
X9528Y317934D01*
X7566Y315972D01*
X6178Y313568D01*
X5460Y310888D01*
Y310770D01*
X14730D01*
Y320040D01*
D02*
G37*
G36*
X245361Y319840D02*
X245270D01*
Y310770D01*
X254340D01*
Y310861D01*
X253635Y313491D01*
X252274Y315849D01*
X250349Y317774D01*
X247991Y319135D01*
X245361Y319840D01*
D02*
G37*
G36*
X67361D02*
X67270D01*
Y310770D01*
X76340D01*
Y310861D01*
X75635Y313491D01*
X74274Y315849D01*
X72349Y317774D01*
X69991Y319135D01*
X67361Y319840D01*
D02*
G37*
G36*
X64730D02*
X64639D01*
X62009Y319135D01*
X59651Y317774D01*
X57726Y315849D01*
X56365Y313491D01*
X55660Y310861D01*
Y310770D01*
X64730D01*
Y319840D01*
D02*
G37*
G36*
X242730D02*
X242639D01*
X240009Y319135D01*
X237651Y317774D01*
X235726Y315849D01*
X234365Y313491D01*
X233660Y310861D01*
Y310770D01*
X242730D01*
Y319840D01*
D02*
G37*
G36*
X254340Y308230D02*
X245270D01*
Y299160D01*
X245361D01*
X247991Y299865D01*
X250349Y301226D01*
X252274Y303151D01*
X253635Y305509D01*
X254340Y308139D01*
Y308230D01*
D02*
G37*
G36*
X242730D02*
X233660D01*
Y308139D01*
X234365Y305509D01*
X235726Y303151D01*
X237651Y301226D01*
X240009Y299865D01*
X242639Y299160D01*
X242730D01*
Y308230D01*
D02*
G37*
G36*
X76340D02*
X67270D01*
Y299160D01*
X67361D01*
X69991Y299865D01*
X72349Y301226D01*
X74274Y303151D01*
X75635Y305509D01*
X76340Y308139D01*
Y308230D01*
D02*
G37*
G36*
X64730D02*
X55660D01*
Y308139D01*
X56365Y305509D01*
X57726Y303151D01*
X59651Y301226D01*
X62009Y299865D01*
X64639Y299160D01*
X64730D01*
Y308230D01*
D02*
G37*
G36*
X14730Y308230D02*
X5460D01*
Y308112D01*
X6178Y305432D01*
X7566Y303028D01*
X9528Y301066D01*
X11932Y299678D01*
X14612Y298960D01*
X14730D01*
Y308230D01*
D02*
G37*
G36*
X114300Y290221D02*
Y285750D01*
X118771D01*
X117939Y287760D01*
X116310Y289389D01*
X114300Y290221D01*
D02*
G37*
G36*
X111760D02*
X109750Y289389D01*
X108121Y287760D01*
X107289Y285750D01*
X111760D01*
Y290221D01*
D02*
G37*
G36*
X14730Y294640D02*
X14612D01*
X11932Y293922D01*
X9528Y292534D01*
X7566Y290572D01*
X6178Y288168D01*
X5460Y285488D01*
Y285370D01*
X14730D01*
Y294640D01*
D02*
G37*
G36*
X215900Y286411D02*
Y281940D01*
X220371D01*
X219539Y283950D01*
X217910Y285579D01*
X215900Y286411D01*
D02*
G37*
G36*
X213360D02*
X211350Y285579D01*
X209721Y283950D01*
X208889Y281940D01*
X213360D01*
Y286411D01*
D02*
G37*
G36*
X118771Y283210D02*
X114300D01*
Y278739D01*
X116310Y279571D01*
X117939Y281200D01*
X118771Y283210D01*
D02*
G37*
G36*
X111760D02*
X107289D01*
X108121Y281200D01*
X109750Y279571D01*
X111760Y278739D01*
Y283210D01*
D02*
G37*
G36*
X43180Y281331D02*
Y276860D01*
X47651D01*
X46819Y278870D01*
X45190Y280499D01*
X43180Y281331D01*
D02*
G37*
G36*
X220371Y279400D02*
X215900D01*
Y274929D01*
X217910Y275761D01*
X219539Y277390D01*
X220371Y279400D01*
D02*
G37*
G36*
X213360D02*
X208889D01*
X209721Y277390D01*
X211350Y275761D01*
X213360Y274929D01*
Y279400D01*
D02*
G37*
G36*
X245294Y293932D02*
X242706D01*
X240205Y293262D01*
X237963Y291968D01*
X236132Y290137D01*
X234838Y287895D01*
X234168Y285394D01*
X233585Y284200D01*
X232197Y283924D01*
X231021Y283138D01*
X231021Y283138D01*
X152555Y204672D01*
X151349D01*
X149408Y203868D01*
X147922Y202382D01*
X147118Y200441D01*
Y198339D01*
X147922Y196398D01*
X148774Y195546D01*
Y182442D01*
X145368D01*
Y170378D01*
X159432D01*
Y182442D01*
X156026D01*
Y195546D01*
X156878Y196398D01*
X157682Y198339D01*
Y199545D01*
X235086Y276949D01*
X237078D01*
X237078Y276949D01*
X237219Y276977D01*
X237963Y276232D01*
X240205Y274938D01*
X242706Y274268D01*
X245294D01*
X247795Y274938D01*
X250037Y276232D01*
X251868Y278063D01*
X253162Y280305D01*
X253832Y282806D01*
Y285394D01*
X253162Y287895D01*
X251868Y290137D01*
X250037Y291968D01*
X247795Y293262D01*
X245294Y293932D01*
D02*
G37*
G36*
X14730Y282830D02*
X5460D01*
Y282712D01*
X6178Y280032D01*
X7566Y277628D01*
X9528Y275666D01*
X11932Y274278D01*
X14612Y273560D01*
X14730D01*
Y282830D01*
D02*
G37*
G36*
X47651Y274320D02*
X43180D01*
Y269849D01*
X45190Y270681D01*
X46819Y272310D01*
X47651Y274320D01*
D02*
G37*
G36*
X14730Y269240D02*
X5460D01*
Y259970D01*
X14730D01*
Y269240D01*
D02*
G37*
G36*
X67294Y268532D02*
X64706D01*
X62205Y267862D01*
X59963Y266567D01*
X58132Y264737D01*
X56838Y262495D01*
X56168Y259994D01*
Y257406D01*
X56838Y254905D01*
X58132Y252663D01*
X59963Y250832D01*
X62205Y249538D01*
X64706Y248868D01*
X67294D01*
X69795Y249538D01*
X72037Y250832D01*
X73868Y252663D01*
X75162Y254905D01*
X75832Y257406D01*
Y259994D01*
X75162Y262495D01*
X73868Y264737D01*
X72037Y266567D01*
X69795Y267862D01*
X67294Y268532D01*
D02*
G37*
G36*
X14730Y257430D02*
X5460D01*
Y248160D01*
X14730D01*
Y257430D01*
D02*
G37*
G36*
X176530Y250851D02*
Y246380D01*
X181001D01*
X180169Y248390D01*
X178540Y250019D01*
X176530Y250851D01*
D02*
G37*
G36*
X173990D02*
X171980Y250019D01*
X170351Y248390D01*
X169519Y246380D01*
X173990D01*
Y250851D01*
D02*
G37*
G36*
X181001Y243840D02*
X176530D01*
Y239369D01*
X178540Y240201D01*
X180169Y241830D01*
X181001Y243840D01*
D02*
G37*
G36*
X173990D02*
X169519D01*
X170351Y241830D01*
X171980Y240201D01*
X173990Y239369D01*
Y243840D01*
D02*
G37*
G36*
X241300Y221641D02*
Y217170D01*
X245771D01*
X244939Y219180D01*
X243310Y220809D01*
X241300Y221641D01*
D02*
G37*
G36*
X238760D02*
X236750Y220809D01*
X235121Y219180D01*
X234289Y217170D01*
X238760D01*
Y221641D01*
D02*
G37*
G36*
X245771Y214630D02*
X241300D01*
Y210159D01*
X243310Y210991D01*
X244939Y212620D01*
X245771Y214630D01*
D02*
G37*
G36*
X238760D02*
X234289D01*
X235121Y212620D01*
X236750Y210991D01*
X238760Y210159D01*
Y214630D01*
D02*
G37*
G36*
X19050Y207671D02*
Y203200D01*
X23521D01*
X22689Y205210D01*
X21060Y206839D01*
X19050Y207671D01*
D02*
G37*
G36*
X16510D02*
X14500Y206839D01*
X12871Y205210D01*
X12039Y203200D01*
X16510D01*
Y207671D01*
D02*
G37*
G36*
X23521Y200660D02*
X19050D01*
Y196189D01*
X21060Y197021D01*
X22689Y198650D01*
X23521Y200660D01*
D02*
G37*
G36*
X16510D02*
X12039D01*
X12871Y198650D01*
X14500Y197021D01*
X16510Y196189D01*
Y200660D01*
D02*
G37*
G36*
X253832Y268532D02*
X234168D01*
Y253995D01*
X174685Y194512D01*
X172939D01*
X170998Y193708D01*
X169512Y192222D01*
X168708Y190281D01*
Y188179D01*
X169512Y186238D01*
X170364Y185385D01*
Y182442D01*
X166958D01*
Y170378D01*
X181022D01*
Y182442D01*
X177616D01*
Y185385D01*
X178468Y186238D01*
X179272Y188179D01*
Y188845D01*
X239296Y248868D01*
X253832D01*
Y268532D01*
D02*
G37*
G36*
X181022Y167442D02*
X166958D01*
Y155378D01*
X170364D01*
Y147800D01*
X170364Y147800D01*
X170640Y146412D01*
X171426Y145236D01*
X181262Y135400D01*
X181214Y135318D01*
X180558Y132868D01*
Y130332D01*
X181214Y127882D01*
X182482Y125686D01*
X184276Y123892D01*
X186472Y122624D01*
X188922Y121968D01*
X191458D01*
X193908Y122624D01*
X196104Y123892D01*
X197897Y125686D01*
X199166Y127882D01*
X199822Y130332D01*
Y132868D01*
X199166Y135318D01*
X197897Y137514D01*
X196104Y139307D01*
X193908Y140576D01*
X191458Y141232D01*
X188922D01*
X186472Y140576D01*
X186390Y140528D01*
X177616Y149302D01*
Y155378D01*
X181022D01*
Y167442D01*
D02*
G37*
G36*
X159432D02*
X145368D01*
Y155378D01*
X148774D01*
Y140462D01*
X148774Y140462D01*
X149050Y139074D01*
X149836Y137898D01*
X151654Y136080D01*
X151214Y135318D01*
X150558Y132868D01*
Y130332D01*
X151214Y127882D01*
X152483Y125686D01*
X154276Y123892D01*
X156472Y122624D01*
X158922Y121968D01*
X161458D01*
X163908Y122624D01*
X166104Y123892D01*
X167897Y125686D01*
X169166Y127882D01*
X169822Y130332D01*
Y132868D01*
X169166Y135318D01*
X167897Y137514D01*
X166104Y139307D01*
X163908Y140576D01*
X161458Y141232D01*
X158922D01*
X157609Y140880D01*
X156026Y142229D01*
Y155378D01*
X159432D01*
Y167442D01*
D02*
G37*
G36*
X191525Y111740D02*
X191460D01*
Y102870D01*
X200330D01*
Y102935D01*
X199639Y105514D01*
X198304Y107826D01*
X196416Y109714D01*
X194104Y111049D01*
X191525Y111740D01*
D02*
G37*
G36*
X188920D02*
X188855D01*
X186276Y111049D01*
X183964Y109714D01*
X182076Y107826D01*
X180741Y105514D01*
X180050Y102935D01*
Y102870D01*
X188920D01*
Y111740D01*
D02*
G37*
G36*
X221458Y111232D02*
X218922D01*
X216472Y110576D01*
X214276Y109307D01*
X212482Y107514D01*
X211214Y105318D01*
X210558Y102868D01*
Y100332D01*
X211214Y97882D01*
X212482Y95686D01*
X214276Y93892D01*
X216472Y92624D01*
X218922Y91968D01*
X221458D01*
X223908Y92624D01*
X226104Y93892D01*
X227897Y95686D01*
X229166Y97882D01*
X229822Y100332D01*
Y102868D01*
X229166Y105318D01*
X227897Y107514D01*
X226104Y109307D01*
X223908Y110576D01*
X221458Y111232D01*
D02*
G37*
G36*
X137842Y167562D02*
X123778D01*
Y155498D01*
X127184D01*
Y130980D01*
X127184Y130980D01*
X127460Y129593D01*
X128246Y128416D01*
X151262Y105400D01*
X151214Y105318D01*
X150558Y102868D01*
Y100332D01*
X151214Y97882D01*
X152483Y95686D01*
X154276Y93892D01*
X156472Y92624D01*
X158922Y91968D01*
X161458D01*
X163908Y92624D01*
X166104Y93892D01*
X167897Y95686D01*
X169166Y97882D01*
X169822Y100332D01*
Y102868D01*
X169166Y105318D01*
X167897Y107514D01*
X166104Y109307D01*
X163908Y110576D01*
X161458Y111232D01*
X158922D01*
X156472Y110576D01*
X156390Y110528D01*
X134436Y132482D01*
Y155498D01*
X137842D01*
Y167562D01*
D02*
G37*
G36*
X200330Y100330D02*
X191460D01*
Y91460D01*
X191525D01*
X194104Y92151D01*
X196416Y93486D01*
X198304Y95374D01*
X199639Y97686D01*
X200330Y100265D01*
Y100330D01*
D02*
G37*
G36*
X188920D02*
X180050D01*
Y100265D01*
X180741Y97686D01*
X182076Y95374D01*
X183964Y93486D01*
X186276Y92151D01*
X188855Y91460D01*
X188920D01*
Y100330D01*
D02*
G37*
%LPD*%
G36*
X75035Y623417D02*
X86544Y611908D01*
Y602177D01*
X84512Y601335D01*
X81304Y604544D01*
X80127Y605330D01*
X78740Y605606D01*
X78740Y605606D01*
X74084D01*
X73242Y607638D01*
X73868Y608263D01*
X75162Y610505D01*
X75832Y613006D01*
Y615594D01*
X75162Y618095D01*
X73868Y620337D01*
X73005Y621199D01*
X73651Y623270D01*
X74642Y623449D01*
X75035Y623417D01*
D02*
G37*
D15*
X245630Y825763D02*
D03*
Y813063D02*
D03*
Y800363D02*
D03*
Y787663D02*
D03*
X294630Y825763D02*
D03*
Y813063D02*
D03*
Y800363D02*
D03*
Y787663D02*
D03*
D16*
X141090Y394970D02*
D03*
X156090D02*
D03*
X141090Y415290D02*
D03*
X156090D02*
D03*
X218320Y403860D02*
D03*
X203320D02*
D03*
X218320Y355600D02*
D03*
X203320D02*
D03*
X322320Y827033D02*
D03*
X337320D02*
D03*
X322320Y805443D02*
D03*
X337320D02*
D03*
X202940D02*
D03*
X217940D02*
D03*
X202940Y827033D02*
D03*
X217940D02*
D03*
X368420Y308610D02*
D03*
X383420D02*
D03*
D17*
X466090Y157480D02*
D03*
X42570Y799859D02*
D03*
X457250Y805180D02*
D03*
D18*
X485090Y157480D02*
D03*
X475590Y178282D02*
D03*
X61570Y799859D02*
D03*
X52070Y820661D02*
D03*
X466750Y825982D02*
D03*
X476250Y805180D02*
D03*
D19*
X130810Y161530D02*
D03*
Y176530D02*
D03*
X22860Y821570D02*
D03*
Y806570D02*
D03*
X322580Y176410D02*
D03*
Y161410D02*
D03*
X302260Y176410D02*
D03*
Y161410D02*
D03*
X447040Y178950D02*
D03*
Y163950D02*
D03*
X152400Y176410D02*
D03*
X173990D02*
D03*
X346710Y297060D02*
D03*
Y282060D02*
D03*
X342900Y176290D02*
D03*
Y161290D02*
D03*
X281940Y176410D02*
D03*
Y161410D02*
D03*
X261620Y176410D02*
D03*
Y161410D02*
D03*
X173990Y161410D02*
D03*
X152400D02*
D03*
X438150Y826650D02*
D03*
Y811650D02*
D03*
D20*
X74930Y178970D02*
D03*
Y166470D02*
D03*
D21*
X43280Y205740D02*
D03*
X55780D02*
D03*
X38200Y139700D02*
D03*
X50700D02*
D03*
D22*
X42430Y157220D02*
D03*
X56605D02*
D03*
X42455Y188220D02*
D03*
X56605D02*
D03*
D23*
X421790Y387350D02*
D03*
X408790D02*
D03*
X384910D02*
D03*
X397410D02*
D03*
X326490D02*
D03*
X338990D02*
D03*
X363370D02*
D03*
X350370D02*
D03*
X112780Y342900D02*
D03*
X125780D02*
D03*
X150930D02*
D03*
X138430D02*
D03*
D24*
X404760Y368300D02*
D03*
X390260D02*
D03*
X345970Y369570D02*
D03*
X331470D02*
D03*
X137530Y325120D02*
D03*
X152030D02*
D03*
D25*
X417885Y303530D02*
D03*
X405075D02*
D03*
D26*
X217170Y784860D02*
D03*
X203170D02*
D03*
X322550Y786130D02*
D03*
X336550D02*
D03*
D27*
X495060Y205740D02*
D03*
X465060D02*
D03*
X42150Y848360D02*
D03*
X72150D02*
D03*
X457440Y853440D02*
D03*
X487440D02*
D03*
D28*
X516889Y161411D02*
D03*
Y176411D02*
D03*
X92711Y801489D02*
D03*
Y816489D02*
D03*
X508001Y806569D02*
D03*
Y821569D02*
D03*
D29*
X501650Y175410D02*
D03*
Y162410D02*
D03*
X78740Y815490D02*
D03*
Y802490D02*
D03*
X494030Y807420D02*
D03*
Y820420D02*
D03*
D30*
X205590Y386080D02*
D03*
X218590D02*
D03*
X205590Y372110D02*
D03*
X218590D02*
D03*
D31*
X346710Y266080D02*
D03*
Y252080D02*
D03*
D32*
X367080Y264830D02*
D03*
X376580D02*
D03*
X386080D02*
D03*
Y290830D02*
D03*
X367080D02*
D03*
D33*
X402590Y274170D02*
D03*
Y287170D02*
D03*
X416560Y287020D02*
D03*
Y274020D02*
D03*
D50*
X231140Y58420D02*
D03*
X177800D02*
D03*
X160020Y948430D02*
D03*
X349222Y58600D02*
D03*
X266220Y952320D02*
D03*
X370840Y948430D02*
D03*
D51*
X145020Y905230D02*
D03*
X355840D02*
D03*
D52*
X175020D02*
D03*
X145020Y875230D02*
D03*
X175020D02*
D03*
X385840D02*
D03*
X355840D02*
D03*
X385840Y905230D02*
D03*
D56*
X166770Y731520D02*
D03*
X437750D02*
D03*
X312820D02*
D03*
X93110D02*
D03*
D57*
X216770D02*
D03*
X387750D02*
D03*
X362820D02*
D03*
X143110D02*
D03*
D64*
X99669Y789331D02*
Y794530D01*
Y789331D02*
X100330Y788670D01*
X92711Y801489D02*
X99669Y794530D01*
X322580Y176410D02*
Y190500D01*
X386080Y252730D02*
Y264830D01*
X431800Y178950D02*
X447040D01*
X400891Y346710D02*
Y346726D01*
X389890Y355600D02*
X390075Y355785D01*
X400891Y346710D02*
X401320D01*
X370505Y315895D02*
X401320Y346710D01*
X390075Y355785D02*
Y368115D01*
X390260Y368300D01*
X368420Y308610D02*
X370505Y310695D01*
Y315895D01*
X342900Y176290D02*
Y196850D01*
X402590Y256540D02*
Y274170D01*
X342900Y196850D02*
X402590Y256540D01*
X346710Y252080D02*
X374650D01*
X30480Y254000D02*
Y328930D01*
X66048Y218433D02*
X102133D01*
X30480Y254000D02*
X66048Y218433D01*
X266700Y468000D02*
X286000Y487300D01*
X266700Y180490D02*
Y468000D01*
X262620Y176410D02*
X266700Y180490D01*
X273950Y184400D02*
X281940Y176410D01*
X273950Y449850D02*
X286000Y461900D01*
X273950Y184400D02*
Y449850D01*
X508000Y788670D02*
X508001D01*
Y806569D01*
X438150Y826650D02*
Y839470D01*
X22860Y821570D02*
Y835660D01*
X294630Y825763D02*
Y836835D01*
X308650Y813363D02*
X318844Y823557D01*
X319844D01*
X322320Y826033D01*
X294930Y813363D02*
X308650D01*
X294630Y813063D02*
X294930Y813363D01*
X322320Y826033D02*
Y827033D01*
X337320D02*
X359901D01*
X368300Y818634D01*
X336550Y786130D02*
X347980D01*
X316230Y389890D02*
X318770Y387350D01*
X316230Y389890D02*
Y400050D01*
X318770Y387350D02*
X326490D01*
X331470Y355600D02*
X344170D01*
X331470D02*
Y369570D01*
X245630Y825763D02*
Y839470D01*
X180340Y337820D02*
X208280D01*
X156090Y362070D02*
Y394970D01*
Y362070D02*
X180340Y337820D01*
X150930Y342900D02*
X162560D01*
X196612Y823992D02*
X200464D01*
X202940Y826468D02*
Y827033D01*
X200464Y823992D02*
X202940Y826468D01*
X187960Y815340D02*
X196612Y823992D01*
X66000Y715900D02*
X80550Y730450D01*
X133652Y796169D02*
X143833D01*
X80550Y730450D02*
Y743066D01*
X133652Y796169D01*
X130143Y805443D02*
X202940D01*
X66000Y741300D02*
X130143Y805443D01*
X143833Y796169D02*
X144780Y797116D01*
X342900Y760730D02*
X368300Y786130D01*
X305430Y760730D02*
X342900D01*
X286000Y741300D02*
X305430Y760730D01*
X350520Y754380D02*
X367030Y770890D01*
X300550Y744576D02*
X310354Y754380D01*
X350520D01*
X322320Y804443D02*
Y805443D01*
X294630Y800363D02*
X318240D01*
X322320Y804443D01*
X217940Y826033D02*
Y827033D01*
X220416Y823557D02*
X221416D01*
X217940Y826033D02*
X220416Y823557D01*
X245330Y813363D02*
X245630Y813063D01*
X231610Y813363D02*
X245330D01*
X221416Y823557D02*
X231610Y813363D01*
X217940Y804443D02*
X220416Y801967D01*
X221416D01*
X223020Y800363D01*
X217940Y804443D02*
Y805443D01*
X223020Y800363D02*
X245630D01*
X300550Y730450D02*
Y744576D01*
X286000Y715900D02*
X300550Y730450D01*
X368300Y786130D02*
Y818634D01*
X337320Y805443D02*
X337583Y805180D01*
X351790D01*
X191770Y403860D02*
X203320D01*
X127000Y415290D02*
X141090D01*
X140930Y395130D02*
X141090Y394970D01*
X126880Y395130D02*
X140930D01*
X117501Y386442D02*
X118110Y387052D01*
X117501Y384201D02*
Y386442D01*
X118110Y421640D02*
X127000Y430530D01*
X118110Y387052D02*
Y421640D01*
X116840Y383540D02*
X117501Y384201D01*
X222250Y444500D02*
Y567150D01*
X244000Y588900D01*
X214630Y436880D02*
X222250Y444500D01*
X102133Y218433D02*
X244000Y360300D01*
X130810Y221710D02*
X244000Y334900D01*
X130810Y175260D02*
Y176530D01*
X54610Y205740D02*
X55780D01*
X156090Y415290D02*
X209390D01*
X215844Y408836D01*
Y406336D02*
Y408836D01*
Y406336D02*
X218320Y403860D01*
X152400Y199390D02*
X233585Y280575D01*
X240603Y284100D02*
X244000D01*
X237078Y280575D02*
X240603Y284100D01*
X233585Y280575D02*
X237078D01*
X130810Y130980D02*
X160190Y101600D01*
X161290D01*
X130810Y130980D02*
Y161530D01*
X173990Y147800D02*
Y161410D01*
Y147800D02*
X190190Y131600D01*
X190500Y130810D02*
Y131290D01*
X190190Y131600D02*
X190500Y131290D01*
X174530Y189230D02*
X243110Y257810D01*
X173990Y189230D02*
X174530D01*
X202050Y354330D02*
X203320Y355600D01*
X182880Y354330D02*
X202050D01*
X208280Y337820D02*
X218274Y347813D01*
X26097Y333313D02*
X30480Y328930D01*
X36830Y313270D02*
Y525780D01*
Y313270D02*
X66000Y284100D01*
X26097Y536513D02*
X36830Y525780D01*
X16000Y334900D02*
X17587Y333313D01*
X26097D01*
X17587Y536513D02*
X26097D01*
X16000Y538100D02*
X17587Y536513D01*
X43180Y357720D02*
Y544830D01*
X17587Y561913D02*
X26097D01*
X16000Y563500D02*
X17587Y561913D01*
X26097D02*
X43180Y544830D01*
X49530Y427570D02*
Y562610D01*
X26958Y585182D02*
X49530Y562610D01*
X21983Y586422D02*
X23223Y585182D01*
X20019Y586422D02*
X21983D01*
X23223Y585182D02*
X26958D01*
X18779D02*
X20019Y586422D01*
X16000Y665100D02*
X18222Y662878D01*
X48640Y639700D02*
X66000D01*
X18222Y662878D02*
X25462D01*
X48640Y639700D01*
X27050Y639700D02*
X39370Y627380D01*
X16000Y639700D02*
X27050D01*
X39370Y627380D02*
X76200D01*
X27050Y614300D02*
X39370Y601980D01*
X78740D01*
X16000Y614300D02*
X27050D01*
X49530Y666750D02*
X64350D01*
X16952Y689548D02*
X26732D01*
X16000Y690500D02*
X16952Y689548D01*
X26732D02*
X49530Y666750D01*
X43180Y357720D02*
X66000Y334900D01*
X49530Y427570D02*
X66000Y411100D01*
X397410Y387350D02*
X398119Y388059D01*
Y399389D02*
X398780Y400050D01*
X398119Y388059D02*
Y399389D01*
X350445Y387425D02*
Y398705D01*
X338990Y387350D02*
X350370D01*
X350445Y387425D01*
Y398705D02*
X350520Y398780D01*
X397410Y387350D02*
X408790D01*
X407736Y386296D02*
X408790Y387350D01*
X407736Y371276D02*
Y386296D01*
X404760Y368300D02*
X407736Y371276D01*
X488600Y258700D02*
X514000Y284100D01*
X464000Y258700D02*
X488600D01*
X120650Y436880D02*
X214630D01*
X102870Y419100D02*
X120650Y436880D01*
X102870Y378460D02*
Y419100D01*
X136204Y345626D02*
X138430Y343400D01*
X135704Y345626D02*
X136204D01*
X138430Y342900D02*
Y343400D01*
X102870Y378460D02*
X135704Y345626D01*
X137160Y342900D02*
X138430D01*
X125780D02*
X137160D01*
X229870Y440690D02*
Y498570D01*
X127000Y430530D02*
X219710D01*
X229870Y440690D01*
X137160Y341630D02*
X137980Y340810D01*
X229870Y498570D02*
X244000Y512700D01*
X218320Y403860D02*
X218455Y403725D01*
Y386215D02*
Y403725D01*
X218320Y355600D02*
X218455Y355735D01*
X218274Y355554D02*
X218320Y355600D01*
X218274Y347813D02*
Y355554D01*
X76200Y627380D02*
X90170Y613410D01*
X66000Y360300D02*
X90170Y384470D01*
Y613410D01*
X83820Y403520D02*
Y596900D01*
X66000Y385700D02*
X83820Y403520D01*
X78740Y601980D02*
X83820Y596900D01*
X348946Y372546D02*
Y385926D01*
X350370Y387350D01*
X345970Y369570D02*
X348946Y372546D01*
X460630Y385700D02*
X464000D01*
X416485Y274095D02*
X416560Y274020D01*
X402665Y274095D02*
X416485D01*
X402590Y274170D02*
X402665Y274095D01*
X402590Y301045D02*
X405075Y303530D01*
X402590Y287170D02*
Y301045D01*
X376866Y273116D02*
X381580Y277830D01*
X376580Y264830D02*
X376866Y265116D01*
X381580Y277830D02*
X392750D01*
X376866Y265116D02*
Y273116D01*
X392750Y277830D02*
X402090Y287170D01*
X402590D01*
X383420Y295990D02*
X386080Y293330D01*
Y290830D02*
Y293330D01*
X383420Y295990D02*
Y308610D01*
X363350Y297060D02*
X367080Y293330D01*
X346710Y297060D02*
X363350D01*
X367080Y290830D02*
Y293330D01*
X488600Y360300D02*
X514000Y385700D01*
X464000Y360300D02*
X488600D01*
X464000Y334900D02*
X488600D01*
X514000Y360300D01*
X464000Y284100D02*
X488600D01*
X514000Y309500D01*
X173990Y176410D02*
Y189230D01*
X152400Y176410D02*
Y199390D01*
X243110Y257810D02*
X243840D01*
X38200Y149990D02*
X42430Y154220D01*
X38200Y139700D02*
Y149990D01*
X42430Y154220D02*
Y157220D01*
X50700Y139700D02*
X64770D01*
X76400Y167940D02*
X81580D01*
X74930Y166470D02*
X76400Y167940D01*
X81580D02*
X87630Y173990D01*
X130810Y176530D02*
Y221710D01*
X261620Y176410D02*
X262620D01*
X500825Y174585D02*
X501650Y175410D01*
X466090Y160735D02*
Y161235D01*
Y157480D02*
Y160735D01*
X346376Y157814D02*
Y158814D01*
X370347Y133843D02*
X376979D01*
X342900Y161290D02*
X343900D01*
X346376Y158814D01*
Y157814D02*
X370347Y133843D01*
X376979D02*
X379222Y131600D01*
X346897Y133925D02*
X349222Y131600D01*
X322580Y152400D02*
X341055Y133925D01*
X322580Y152400D02*
Y161410D01*
X341055Y133925D02*
X346897D01*
X302260Y148562D02*
X319222Y131600D01*
X302260Y148562D02*
Y161410D01*
X220190Y131600D02*
X231810D01*
X258144Y157934D01*
Y158934D01*
X260620Y161410D01*
X261620D01*
X251130Y131600D02*
X280940Y161410D01*
X250190Y131600D02*
X251130D01*
X280940Y161410D02*
X281940D01*
X300990Y177680D02*
Y190500D01*
Y177680D02*
X302260Y176410D01*
X218455Y371975D02*
X218590Y372110D01*
X218455Y355735D02*
Y371975D01*
Y386215D02*
X218590Y386080D01*
X242610Y411100D02*
X244000D01*
X218590Y386080D02*
Y387080D01*
X242610Y411100D01*
X218590Y372110D02*
X230410D01*
X244000Y385700D01*
X42455Y188220D02*
Y204915D01*
X43280Y205740D01*
X70906Y182244D02*
X74080Y179070D01*
X76200D01*
X59581Y182244D02*
X70906D01*
X56605Y185220D02*
X59581Y182244D01*
X56605Y185220D02*
Y188220D01*
X152400Y140462D02*
X160190Y132671D01*
X152400Y140462D02*
Y161410D01*
X137530Y325120D02*
X137980Y325570D01*
Y340810D01*
X160190Y131600D02*
Y132671D01*
X55780Y205740D02*
X114840D01*
X130810Y221710D01*
X64350Y666750D02*
X66000Y665100D01*
D65*
X477878Y803552D02*
X490220Y791210D01*
Y460280D02*
X514000Y436500D01*
X490220Y460280D02*
Y791210D01*
X476250Y805180D02*
Y807170D01*
Y805180D02*
X477878Y803552D01*
X476250Y801925D02*
Y805180D01*
X411521Y238760D02*
X420530Y247769D01*
X411480Y238760D02*
X411521D01*
X433626Y237174D02*
X455925Y214875D01*
X501650Y175410D02*
X502400D01*
X514000Y193386D02*
Y258700D01*
X503225Y176235D02*
Y182611D01*
X502400Y175410D02*
X503225Y176235D01*
Y182611D02*
X514000Y193386D01*
X455615Y862765D02*
X457440Y860940D01*
X393700Y924560D02*
X455495Y862765D01*
X380250Y924560D02*
X393700D01*
X457440Y853440D02*
Y860940D01*
X455495Y862765D02*
X455615D01*
X421471Y247769D02*
X426720Y253018D01*
X420530Y247769D02*
X421471D01*
X426720Y253018D02*
Y282725D01*
X217170Y687070D02*
Y731120D01*
X190500Y660400D02*
X217170Y687070D01*
X216770Y731520D02*
X228380D01*
X80315Y790081D02*
X87630Y782766D01*
X80315Y790081D02*
Y801665D01*
X87630Y782320D02*
Y782766D01*
X78740Y802490D02*
X79490D01*
X80315Y801665D01*
X215900Y767526D02*
X217170Y768796D01*
X215900Y767080D02*
Y767526D01*
X217170Y768796D02*
Y784860D01*
X143110Y722230D02*
X174715Y690625D01*
X143110Y722230D02*
Y731520D01*
X175515Y690625D02*
X180340Y685800D01*
X174715Y690625D02*
X175515D01*
X322875Y783295D02*
Y785805D01*
Y783295D02*
X323850Y782320D01*
X322550Y786130D02*
X322875Y785805D01*
X323850Y770067D02*
Y782320D01*
X236454Y787663D02*
X245630D01*
X217170Y784860D02*
X233651D01*
X236454Y787663D01*
X303806D02*
X305339Y786130D01*
X294630Y787663D02*
X303806D01*
X305339Y786130D02*
X322550D01*
X362820Y731520D02*
X400920Y769620D01*
X443946D01*
X61820Y802490D02*
X78740D01*
X42030Y873880D02*
X52070Y883920D01*
X42030Y848480D02*
Y873880D01*
Y848480D02*
X42150Y848360D01*
X193040Y379730D02*
X193356Y379414D01*
X198286D01*
X134875Y677489D02*
X151964Y660400D01*
X190500D01*
X363220Y416560D02*
X363370Y416410D01*
Y387350D02*
Y416410D01*
X421790Y335130D02*
Y387350D01*
Y335130D02*
X439420Y317500D01*
X492790Y237490D02*
X514000Y258700D01*
X452120Y237490D02*
X492790D01*
X439420Y250190D02*
X452120Y237490D01*
X439420Y250190D02*
Y317500D01*
X417060Y287020D02*
X417635Y286445D01*
X423000D02*
X426720Y282725D01*
X417635Y286445D02*
X423000D01*
X320040Y229870D02*
X341630Y208280D01*
X320040Y229870D02*
Y264160D01*
X455925Y214875D02*
X463235D01*
X465060Y205740D02*
Y213050D01*
X463235Y214875D02*
X465060Y213050D01*
X112905Y356745D02*
X113030Y356870D01*
X112780Y342900D02*
X112905Y343025D01*
Y356745D01*
X320040Y264160D02*
X337440Y281560D01*
X486045Y196485D02*
X493235D01*
X475590Y178282D02*
Y186030D01*
X495060Y198310D02*
Y205740D01*
X475590Y186030D02*
X486045Y196485D01*
X493235D02*
X495060Y198310D01*
X346210Y281560D02*
X346710Y282060D01*
X337440Y281560D02*
X346210D01*
X346710Y266080D02*
Y282060D01*
X57930Y155038D02*
X69305D01*
X56605Y156363D02*
X57930Y155038D01*
X69305D02*
X73214Y151130D01*
X73660D01*
X56605Y156363D02*
Y157220D01*
X205415Y385255D02*
X205590Y385430D01*
X204126Y385255D02*
X205415D01*
X205590Y385430D02*
Y386080D01*
X198286Y379414D02*
X204126Y385255D01*
X198286Y379414D02*
X204765Y372935D01*
X205415D02*
X205590Y372760D01*
X204765Y372935D02*
X205415D01*
X205590Y372110D02*
Y372760D01*
X485090Y166281D02*
X493394Y174585D01*
X485090Y157480D02*
Y166281D01*
X493394Y174585D02*
X500825D01*
X515890Y162410D02*
X516889Y161411D01*
X501650Y162410D02*
X515890D01*
X462876Y163950D02*
X466090Y160735D01*
X447040Y163950D02*
X462876D01*
X372750Y662300D02*
X428150D01*
X349250Y685800D02*
X372750Y662300D01*
X428150D02*
X434340Y668490D01*
Y703580D01*
X361355Y905665D02*
X380250Y924560D01*
X434340Y703580D02*
X434340Y703580D01*
X430530D02*
X439420D01*
X387750Y731520D02*
X402590D01*
X430530Y703580D01*
X439420D02*
X451740Y715900D01*
X464000D01*
X363901Y721949D02*
X400050Y685800D01*
X363901Y721949D02*
Y730439D01*
X362820Y731520D02*
X363901Y730439D01*
X443946Y769620D02*
X476250Y801925D01*
X134875Y677489D02*
Y677854D01*
X129540Y683189D02*
X134875Y677854D01*
X129540Y683189D02*
Y685800D01*
X228380Y731520D02*
X244000Y715900D01*
X477790Y844820D02*
X485615D01*
X466750Y825982D02*
Y833780D01*
X477790Y844820D01*
X485615D02*
X487440Y846645D01*
Y853440D01*
X506852Y820420D02*
X508001Y821569D01*
X494030Y820420D02*
X506852D01*
X476500Y807420D02*
X494030D01*
X476250Y807170D02*
X476500Y807420D01*
X457250Y805180D02*
Y808436D01*
X454035Y811650D02*
X457250Y808436D01*
X438150Y811650D02*
X454035D01*
X78740Y815490D02*
X91712D01*
X92711Y816489D01*
X61570Y799859D02*
Y802240D01*
X61820Y802490D01*
X25901Y803579D02*
X29620Y799859D01*
X42570D01*
X22860Y806570D02*
X23860D01*
X25901Y804529D01*
Y803579D02*
Y804529D01*
X72150Y840860D02*
Y848360D01*
X55456Y824166D02*
X72150Y840860D01*
X52320Y824166D02*
X55456D01*
X52070Y823916D02*
X52320Y824166D01*
X52070Y820661D02*
Y823916D01*
D66*
X160190Y131600D02*
D03*
X190190D02*
D03*
X220190D02*
D03*
X250190D02*
D03*
X160190Y101600D02*
D03*
X190190D02*
D03*
X220190D02*
D03*
X349222D02*
D03*
X319222D02*
D03*
X379222Y131600D02*
D03*
X349222D02*
D03*
X319222D02*
D03*
X296220Y879320D02*
D03*
X266220D02*
D03*
X236220D02*
D03*
X296220Y909320D02*
D03*
X266220D02*
D03*
D67*
X250190Y101600D02*
D03*
X379222D02*
D03*
X236220Y909320D02*
D03*
D68*
X154940Y521970D02*
D03*
X374650D02*
D03*
D69*
X514000Y258700D02*
D03*
Y284100D02*
D03*
Y309500D02*
D03*
Y334900D02*
D03*
Y360300D02*
D03*
Y411100D02*
D03*
Y436500D02*
D03*
Y538100D02*
D03*
Y614300D02*
D03*
Y665100D02*
D03*
Y715900D02*
D03*
Y690500D02*
D03*
Y639700D02*
D03*
Y588900D02*
D03*
Y563500D02*
D03*
Y512700D02*
D03*
Y487300D02*
D03*
Y461900D02*
D03*
Y385700D02*
D03*
X16000Y614300D02*
D03*
Y538100D02*
D03*
Y512700D02*
D03*
Y487300D02*
D03*
Y436500D02*
D03*
Y411100D02*
D03*
Y360300D02*
D03*
Y309500D02*
D03*
Y284100D02*
D03*
Y334900D02*
D03*
Y385700D02*
D03*
Y461900D02*
D03*
Y563500D02*
D03*
Y588900D02*
D03*
Y639700D02*
D03*
Y665100D02*
D03*
Y690500D02*
D03*
Y715900D02*
D03*
Y741300D02*
D03*
D70*
X514000D02*
D03*
X16000Y258700D02*
D03*
D71*
X244000Y411100D02*
D03*
Y538100D02*
D03*
Y512700D02*
D03*
X464000Y741300D02*
D03*
Y715900D02*
D03*
Y690500D02*
D03*
Y665100D02*
D03*
Y639700D02*
D03*
Y614300D02*
D03*
Y588900D02*
D03*
Y563500D02*
D03*
Y538100D02*
D03*
Y512700D02*
D03*
Y487300D02*
D03*
Y461900D02*
D03*
Y436500D02*
D03*
Y411100D02*
D03*
Y385700D02*
D03*
Y360300D02*
D03*
Y334900D02*
D03*
Y309500D02*
D03*
Y284100D02*
D03*
X286000Y258700D02*
D03*
Y284100D02*
D03*
Y309500D02*
D03*
Y334900D02*
D03*
Y360300D02*
D03*
Y385700D02*
D03*
Y411100D02*
D03*
Y436500D02*
D03*
Y461900D02*
D03*
Y487300D02*
D03*
Y512700D02*
D03*
Y538100D02*
D03*
Y563500D02*
D03*
Y588900D02*
D03*
Y614300D02*
D03*
Y639700D02*
D03*
Y665100D02*
D03*
Y690500D02*
D03*
Y715900D02*
D03*
X244000Y741300D02*
D03*
Y715900D02*
D03*
Y690500D02*
D03*
Y665100D02*
D03*
Y639700D02*
D03*
Y614300D02*
D03*
Y588900D02*
D03*
Y563500D02*
D03*
Y487300D02*
D03*
Y461900D02*
D03*
Y436500D02*
D03*
Y385700D02*
D03*
Y360300D02*
D03*
Y334900D02*
D03*
Y309500D02*
D03*
Y284100D02*
D03*
X66000Y258700D02*
D03*
Y284100D02*
D03*
Y309500D02*
D03*
Y334900D02*
D03*
Y360300D02*
D03*
Y385700D02*
D03*
Y411100D02*
D03*
Y436500D02*
D03*
Y461900D02*
D03*
Y487300D02*
D03*
Y512700D02*
D03*
Y538100D02*
D03*
Y563500D02*
D03*
Y588900D02*
D03*
Y614300D02*
D03*
Y639700D02*
D03*
Y665100D02*
D03*
Y690500D02*
D03*
Y715900D02*
D03*
D72*
X464000Y258700D02*
D03*
X286000Y741300D02*
D03*
X244000Y258700D02*
D03*
X66000Y741300D02*
D03*
D73*
X180340Y685800D02*
D03*
X400050D02*
D03*
D74*
X154940D02*
D03*
X129540D02*
D03*
X374650D02*
D03*
X349250D02*
D03*
D75*
X470000Y945000D02*
D03*
X60000D02*
D03*
X470000Y55000D02*
D03*
X60000D02*
D03*
D76*
X100330Y788670D02*
D03*
X175260Y245110D02*
D03*
X214630Y280670D02*
D03*
X406400Y609600D02*
D03*
X391440Y609672D02*
D03*
X374650Y609600D02*
D03*
X163830Y617220D02*
D03*
X101600D02*
D03*
X121920D02*
D03*
X143510D02*
D03*
X312420Y425450D02*
D03*
X365760Y346710D02*
D03*
X240030Y215900D02*
D03*
X17780Y201930D02*
D03*
X41910Y275590D02*
D03*
X102870Y434340D02*
D03*
X40640Y708660D02*
D03*
X92710Y680720D02*
D03*
X477520Y883920D02*
D03*
X359410Y609600D02*
D03*
X307340Y220980D02*
D03*
X381000Y425450D02*
D03*
X113030Y284480D02*
D03*
X407670Y166370D02*
D03*
X386080Y252730D02*
D03*
X411480Y238760D02*
D03*
X431800Y178950D02*
D03*
X433070Y237490D02*
D03*
X389890Y355600D02*
D03*
X400891Y346710D02*
D03*
X374650Y252080D02*
D03*
X508000Y788670D02*
D03*
X438150Y839470D02*
D03*
X22860Y835660D02*
D03*
X294630Y836835D02*
D03*
X347980Y786130D02*
D03*
X316230Y400050D02*
D03*
X344170Y355600D02*
D03*
X245630Y839470D02*
D03*
X179070Y627380D02*
D03*
X204470Y628650D02*
D03*
X87630Y782320D02*
D03*
X162560Y342900D02*
D03*
X215900Y767080D02*
D03*
X187960Y815340D02*
D03*
X323850Y769620D02*
D03*
X367030Y770890D02*
D03*
X351790Y805180D02*
D03*
X191770Y403860D02*
D03*
Y628650D02*
D03*
X52070Y883920D02*
D03*
X127000Y415290D02*
D03*
X126880Y395130D02*
D03*
X116840Y383540D02*
D03*
X193040Y379730D02*
D03*
X182880Y354330D02*
D03*
X363220Y416560D02*
D03*
X398780Y400050D02*
D03*
X350520Y398780D02*
D03*
X341630Y208280D02*
D03*
X113030Y356870D02*
D03*
X173990Y189230D02*
D03*
X152400Y199390D02*
D03*
X73660Y151130D02*
D03*
X64770Y139700D02*
D03*
X87630Y173990D02*
D03*
X151130Y33020D02*
D03*
D77*
X322580Y190500D02*
D03*
X144780Y797116D02*
D03*
X300990Y190500D02*
D03*
M02*
