G04*
G04 #@! TF.GenerationSoftware,Altium Limited,Altium Designer,23.0.1 (38)*
G04*
G04 Layer_Physical_Order=4*
G04 Layer_Color=16711680*
%FSLAX44Y44*%
%MOMM*%
G71*
G04*
G04 #@! TF.SameCoordinates,BC9D6512-4978-4A19-9F96-E8A3AF7CD3FB*
G04*
G04*
G04 #@! TF.FilePolarity,Positive*
G04*
G01*
G75*
%ADD50C,3.0000*%
%ADD51R,1.5700X1.5700*%
%ADD52C,1.5700*%
%ADD56R,1.2000X1.2000*%
%ADD57C,1.2000*%
%ADD64C,0.3048*%
%ADD65C,0.6350*%
%ADD66C,1.5200*%
%ADD67R,1.5200X1.5200*%
%ADD69C,1.6000*%
%ADD70R,1.6000X1.6000*%
%ADD71C,1.5600*%
%ADD72R,1.5600X1.5600*%
%ADD73R,1.6000X1.6000*%
%ADD74C,1.6000*%
%ADD75C,6.0000*%
%ADD76C,0.6500*%
%ADD77C,0.8000*%
G36*
X424180Y897061D02*
X528626D01*
X530063Y895624D01*
X529637Y56581D01*
X529636Y56581D01*
X529599Y52876D01*
X528558Y45541D01*
X526569Y38404D01*
X523665Y31588D01*
X519896Y25209D01*
X515327Y19376D01*
X510036Y14190D01*
X504113Y9739D01*
X497660Y6099D01*
X490787Y3333D01*
X483611Y1487D01*
X476256Y594D01*
X472552Y631D01*
X472552Y631D01*
X472317Y64D01*
X43537Y491D01*
X40715Y491D01*
X35121Y1228D01*
X29670Y2688D01*
X24457Y4848D01*
X19570Y7669D01*
X15094Y11104D01*
X11104Y15094D01*
X7669Y19571D01*
X4847Y24458D01*
X2688Y29671D01*
X1228Y35121D01*
X491Y40716D01*
X491Y43537D01*
X109Y92537D01*
X1540Y93980D01*
X133350D01*
Y77470D01*
X176089D01*
X176122Y75452D01*
X172832Y74798D01*
X169732Y73514D01*
X166943Y71650D01*
X164570Y69277D01*
X162706Y66488D01*
X161423Y63388D01*
X160768Y60097D01*
Y56743D01*
X161423Y53452D01*
X162706Y50352D01*
X164570Y47563D01*
X166943Y45190D01*
X169732Y43326D01*
X172832Y42042D01*
X176122Y41388D01*
X179478D01*
X182768Y42042D01*
X185868Y43326D01*
X188657Y45190D01*
X191030Y47563D01*
X192894Y50352D01*
X194177Y53452D01*
X194832Y56743D01*
Y60097D01*
X194177Y63388D01*
X192894Y66488D01*
X191030Y69277D01*
X188657Y71650D01*
X185868Y73514D01*
X182768Y74798D01*
X179478Y75452D01*
X179511Y77470D01*
X229429D01*
X229463Y75452D01*
X226172Y74798D01*
X223072Y73514D01*
X220283Y71650D01*
X217910Y69277D01*
X216046Y66488D01*
X214762Y63388D01*
X214108Y60097D01*
Y56743D01*
X214762Y53452D01*
X216046Y50352D01*
X217910Y47563D01*
X220283Y45190D01*
X223072Y43326D01*
X226172Y42042D01*
X229463Y41388D01*
X232817D01*
X236108Y42042D01*
X239208Y43326D01*
X241997Y45190D01*
X244370Y47563D01*
X246234Y50352D01*
X247518Y53452D01*
X248172Y56743D01*
Y60097D01*
X247518Y63388D01*
X246234Y66488D01*
X244370Y69277D01*
X241997Y71650D01*
X239208Y73514D01*
X236108Y74798D01*
X232817Y75452D01*
X232851Y77470D01*
X240030D01*
Y89436D01*
X240050Y91460D01*
X242062Y91460D01*
X248920D01*
Y101600D01*
Y111740D01*
X242062D01*
X240050Y111740D01*
X240030Y113764D01*
Y119380D01*
X210820D01*
Y124595D01*
X211318Y124922D01*
X212852Y125316D01*
X214276Y123892D01*
X216472Y122624D01*
X218922Y121968D01*
X221458D01*
X223908Y122624D01*
X226104Y123892D01*
X227897Y125686D01*
X229166Y127882D01*
X229822Y130332D01*
Y132868D01*
X229166Y135318D01*
X227897Y137514D01*
X226104Y139307D01*
X223908Y140576D01*
X221458Y141232D01*
X218922D01*
X216472Y140576D01*
X214276Y139307D01*
X212852Y137884D01*
X211318Y138278D01*
X210820Y138605D01*
Y187960D01*
X271450D01*
Y212258D01*
X273327Y213035D01*
X294958Y191404D01*
Y189300D01*
X295876Y187083D01*
X297573Y185386D01*
X299790Y184468D01*
X302190D01*
X304407Y185386D01*
X306104Y187083D01*
X307022Y189300D01*
Y191700D01*
X306104Y193917D01*
X304407Y195614D01*
X302190Y196532D01*
X300086D01*
X271450Y225168D01*
Y230038D01*
X273327Y230815D01*
X315259Y188884D01*
X315259Y188884D01*
X316435Y188098D01*
X317101Y187965D01*
X317466Y187083D01*
X319163Y185386D01*
X321380Y184468D01*
X323780D01*
X325997Y185386D01*
X327694Y187083D01*
X328612Y189300D01*
Y191700D01*
X327694Y193917D01*
X325997Y195614D01*
X323780Y196532D01*
X321380D01*
X319163Y195614D01*
X318974Y195424D01*
X277576Y236822D01*
Y250346D01*
X279608Y251188D01*
X279963Y250833D01*
X282205Y249538D01*
X284706Y248868D01*
X287294D01*
X289795Y249538D01*
X292037Y250833D01*
X293868Y252663D01*
X295162Y254905D01*
X295832Y257406D01*
Y257507D01*
X297864Y258349D01*
X340773Y215439D01*
X340012Y213327D01*
X338638Y212758D01*
X337152Y211272D01*
X336348Y209331D01*
Y207229D01*
X337152Y205288D01*
X338638Y203802D01*
X340579Y202998D01*
X342681D01*
X344622Y203802D01*
X346108Y205288D01*
X346677Y206662D01*
X348789Y207423D01*
X358116Y198096D01*
X358116Y198096D01*
X359293Y197310D01*
X360680Y197034D01*
X360680Y197034D01*
X471170D01*
X471170Y197034D01*
X472557Y197310D01*
X473734Y198096D01*
X502944Y227306D01*
X502944Y227306D01*
X503730Y228482D01*
X504006Y229870D01*
X504006Y229870D01*
Y251883D01*
X505736Y252461D01*
X506038Y252475D01*
X507840Y250672D01*
X510128Y249352D01*
X512679Y248668D01*
X515321D01*
X517872Y249352D01*
X520160Y250672D01*
X522028Y252540D01*
X523348Y254828D01*
X524032Y257379D01*
Y260021D01*
X523348Y262572D01*
X522028Y264860D01*
X520160Y266728D01*
X517872Y268048D01*
X515321Y268732D01*
X512679D01*
X510128Y268048D01*
X507840Y266728D01*
X506038Y264925D01*
X505736Y264939D01*
X504006Y265517D01*
Y277283D01*
X505736Y277861D01*
X506038Y277875D01*
X507840Y276072D01*
X510128Y274752D01*
X512679Y274068D01*
X515321D01*
X517872Y274752D01*
X520160Y276072D01*
X522028Y277940D01*
X523348Y280228D01*
X524032Y282779D01*
Y285421D01*
X523348Y287972D01*
X522028Y290260D01*
X520160Y292128D01*
X517872Y293448D01*
X515321Y294132D01*
X512679D01*
X510128Y293448D01*
X507840Y292128D01*
X506038Y290325D01*
X505736Y290339D01*
X504006Y290917D01*
Y302683D01*
X505736Y303261D01*
X506038Y303275D01*
X507840Y301472D01*
X510128Y300152D01*
X512679Y299468D01*
X515321D01*
X517872Y300152D01*
X520160Y301472D01*
X522028Y303340D01*
X523348Y305628D01*
X524032Y308179D01*
Y310821D01*
X523348Y313372D01*
X522028Y315660D01*
X520160Y317528D01*
X517872Y318848D01*
X515321Y319532D01*
X512679D01*
X510128Y318848D01*
X507840Y317528D01*
X506038Y315725D01*
X505736Y315739D01*
X504006Y316317D01*
Y327259D01*
X504077Y327313D01*
X506038Y327957D01*
X507528Y326466D01*
X509932Y325078D01*
X512612Y324360D01*
X512730D01*
Y334900D01*
Y345440D01*
X512612D01*
X509932Y344722D01*
X507528Y343334D01*
X506038Y341843D01*
X504077Y342487D01*
X504006Y342541D01*
Y353483D01*
X505736Y354061D01*
X506038Y354075D01*
X507840Y352272D01*
X510128Y350952D01*
X512679Y350268D01*
X515321D01*
X517872Y350952D01*
X520160Y352272D01*
X522028Y354140D01*
X523348Y356428D01*
X524032Y358979D01*
Y361621D01*
X523348Y364172D01*
X522028Y366460D01*
X520160Y368328D01*
X517872Y369648D01*
X515321Y370332D01*
X512679D01*
X510128Y369648D01*
X507840Y368328D01*
X506038Y366525D01*
X505736Y366539D01*
X504006Y367117D01*
Y378883D01*
X505736Y379461D01*
X506038Y379475D01*
X507840Y377672D01*
X510128Y376352D01*
X512679Y375668D01*
X515321D01*
X517872Y376352D01*
X520160Y377672D01*
X522028Y379540D01*
X523348Y381828D01*
X524032Y384379D01*
Y387021D01*
X523348Y389572D01*
X522028Y391860D01*
X520160Y393728D01*
X517872Y395048D01*
X515321Y395732D01*
X512679D01*
X510128Y395048D01*
X507840Y393728D01*
X506038Y391925D01*
X505736Y391939D01*
X504006Y392517D01*
Y403459D01*
X504077Y403513D01*
X506038Y404156D01*
X507528Y402666D01*
X509932Y401278D01*
X512612Y400560D01*
X512730D01*
Y411100D01*
Y421640D01*
X512612D01*
X509932Y420922D01*
X507528Y419534D01*
X506038Y418044D01*
X504077Y418687D01*
X504006Y418741D01*
Y429683D01*
X505736Y430261D01*
X506038Y430275D01*
X507840Y428472D01*
X510128Y427152D01*
X512679Y426468D01*
X515321D01*
X517872Y427152D01*
X520160Y428472D01*
X522028Y430340D01*
X523348Y432628D01*
X524032Y435179D01*
Y437821D01*
X523348Y440372D01*
X522028Y442660D01*
X520160Y444528D01*
X517872Y445848D01*
X515321Y446532D01*
X512679D01*
X510128Y445848D01*
X507840Y444528D01*
X506038Y442725D01*
X505736Y442739D01*
X504006Y443317D01*
Y455083D01*
X505736Y455661D01*
X506038Y455675D01*
X507840Y453872D01*
X510128Y452552D01*
X512679Y451868D01*
X515321D01*
X517872Y452552D01*
X520160Y453872D01*
X522028Y455740D01*
X523348Y458028D01*
X524032Y460579D01*
Y463221D01*
X523348Y465772D01*
X522028Y468060D01*
X520160Y469928D01*
X517872Y471248D01*
X515321Y471932D01*
X512679D01*
X510128Y471248D01*
X507840Y469928D01*
X506038Y468125D01*
X505736Y468139D01*
X504006Y468717D01*
Y479659D01*
X504077Y479713D01*
X506038Y480356D01*
X507528Y478866D01*
X509932Y477478D01*
X512612Y476760D01*
X512730D01*
Y487300D01*
Y497840D01*
X512612D01*
X509932Y497122D01*
X507528Y495734D01*
X506038Y494244D01*
X504077Y494887D01*
X504006Y494941D01*
Y497578D01*
X509907Y503479D01*
X510128Y503352D01*
X512679Y502668D01*
X515321D01*
X517872Y503352D01*
X520160Y504672D01*
X522028Y506540D01*
X523348Y508828D01*
X524032Y511379D01*
Y514021D01*
X523348Y516572D01*
X522028Y518860D01*
X520160Y520728D01*
X517872Y522048D01*
X515321Y522732D01*
X512679D01*
X510128Y522048D01*
X507840Y520728D01*
X505972Y518860D01*
X504652Y516572D01*
X503968Y514021D01*
Y511379D01*
X504652Y508828D01*
X504779Y508607D01*
X500803Y504631D01*
X498926Y505408D01*
Y543298D01*
X509907Y554279D01*
X510128Y554152D01*
X512679Y553468D01*
X515321D01*
X517872Y554152D01*
X520160Y555472D01*
X522028Y557340D01*
X523348Y559628D01*
X524032Y562179D01*
Y564821D01*
X523348Y567372D01*
X522028Y569660D01*
X520160Y571528D01*
X517872Y572848D01*
X515321Y573532D01*
X512679D01*
X510128Y572848D01*
X507840Y571528D01*
X505972Y569660D01*
X504652Y567372D01*
X503968Y564821D01*
Y562179D01*
X504652Y559628D01*
X504779Y559407D01*
X495723Y550350D01*
X493846Y551128D01*
Y589018D01*
X509907Y605079D01*
X510128Y604952D01*
X512679Y604268D01*
X515321D01*
X517872Y604952D01*
X520160Y606272D01*
X522028Y608140D01*
X523348Y610428D01*
X524032Y612979D01*
Y615621D01*
X523348Y618172D01*
X522028Y620460D01*
X520160Y622328D01*
X517872Y623648D01*
X515321Y624332D01*
X512679D01*
X510128Y623648D01*
X507840Y622328D01*
X505972Y620460D01*
X504652Y618172D01*
X503968Y615621D01*
Y612979D01*
X504652Y610428D01*
X504779Y610207D01*
X489528Y594955D01*
X487496Y595797D01*
Y633468D01*
X509907Y655879D01*
X510128Y655752D01*
X512679Y655068D01*
X515321D01*
X517872Y655752D01*
X520160Y657072D01*
X522028Y658940D01*
X523348Y661228D01*
X524032Y663779D01*
Y666421D01*
X523348Y668972D01*
X522028Y671260D01*
X520160Y673128D01*
X517872Y674448D01*
X515321Y675132D01*
X512679D01*
X510128Y674448D01*
X507840Y673128D01*
X505972Y671260D01*
X504652Y668972D01*
X503968Y666421D01*
Y663779D01*
X504652Y661228D01*
X504779Y661007D01*
X483178Y639405D01*
X481146Y640247D01*
Y677918D01*
X509907Y706679D01*
X510128Y706552D01*
X512679Y705868D01*
X515321D01*
X517872Y706552D01*
X520160Y707872D01*
X522028Y709740D01*
X523348Y712028D01*
X524032Y714579D01*
Y717221D01*
X523348Y719772D01*
X522028Y722060D01*
X520160Y723928D01*
X517872Y725248D01*
X515321Y725932D01*
X512679D01*
X510128Y725248D01*
X507840Y723928D01*
X505972Y722060D01*
X504652Y719772D01*
X503968Y717221D01*
Y714579D01*
X504652Y712028D01*
X504779Y711807D01*
X474956Y681984D01*
X474170Y680807D01*
X473894Y679420D01*
X473894Y679420D01*
Y671691D01*
X471887Y671142D01*
X471862Y671142D01*
X470037Y672968D01*
X467795Y674262D01*
X465294Y674932D01*
X462706D01*
X460205Y674262D01*
X457963Y672968D01*
X456133Y671137D01*
X454838Y668895D01*
X454168Y666394D01*
Y663806D01*
X454838Y661305D01*
X456133Y659063D01*
X457963Y657233D01*
X460205Y655938D01*
X462706Y655268D01*
X465294D01*
X467795Y655938D01*
X470037Y657233D01*
X471862Y659058D01*
X471887Y659058D01*
X473894Y658510D01*
Y646291D01*
X471887Y645742D01*
X471862Y645742D01*
X470037Y647568D01*
X467795Y648862D01*
X465294Y649532D01*
X462706D01*
X460205Y648862D01*
X457963Y647568D01*
X456133Y645737D01*
X455712Y645009D01*
X345949D01*
X336779Y654179D01*
Y762000D01*
X336375Y764032D01*
X335224Y765754D01*
X327604Y773374D01*
X327490Y773450D01*
X326842Y774098D01*
X325996Y774448D01*
X325882Y774525D01*
X325747Y774552D01*
X324901Y774902D01*
X323985D01*
X323850Y774929D01*
X323715Y774902D01*
X322799D01*
X321953Y774552D01*
X321818Y774525D01*
X321704Y774448D01*
X320858Y774098D01*
X320210Y773450D01*
X320096Y773374D01*
X320020Y773260D01*
X319372Y772612D01*
X319021Y771766D01*
X318945Y771652D01*
X318918Y771517D01*
X318568Y770671D01*
Y769755D01*
X318541Y769620D01*
X318568Y769485D01*
Y768569D01*
X318918Y767723D01*
X318945Y767588D01*
X319021Y767474D01*
X319372Y766628D01*
X320020Y765980D01*
X320096Y765866D01*
X326161Y759801D01*
Y651980D01*
X326161Y651980D01*
X326565Y649948D01*
X327716Y648226D01*
X339996Y635946D01*
X339996Y635946D01*
X341718Y634795D01*
X343750Y634391D01*
X455712D01*
X456133Y633663D01*
X457963Y631833D01*
X460205Y630538D01*
X462706Y629868D01*
X465294D01*
X467795Y630538D01*
X470037Y631833D01*
X471862Y633658D01*
X471887Y633658D01*
X473894Y633110D01*
Y620891D01*
X471887Y620342D01*
X471862Y620342D01*
X470037Y622168D01*
X467795Y623462D01*
X465294Y624132D01*
X462706D01*
X460205Y623462D01*
X457963Y622168D01*
X456133Y620337D01*
X454838Y618095D01*
X454168Y615594D01*
Y613006D01*
X454838Y610505D01*
X456133Y608263D01*
X457963Y606432D01*
X460205Y605138D01*
X462706Y604468D01*
X465294D01*
X467795Y605138D01*
X470037Y606432D01*
X471862Y608258D01*
X471887Y608258D01*
X473894Y607710D01*
Y595491D01*
X471887Y594942D01*
X471862Y594942D01*
X470037Y596768D01*
X467795Y598062D01*
X465294Y598732D01*
X462706D01*
X460205Y598062D01*
X457963Y596768D01*
X456133Y594937D01*
X454838Y592695D01*
X454168Y590194D01*
Y587606D01*
X454838Y585105D01*
X456133Y582863D01*
X457963Y581032D01*
X460205Y579738D01*
X462706Y579068D01*
X465294D01*
X467795Y579738D01*
X470037Y581032D01*
X471862Y582858D01*
X471887Y582858D01*
X473894Y582309D01*
Y570972D01*
X473577Y570752D01*
X471862Y570261D01*
X470349Y571774D01*
X467991Y573135D01*
X465361Y573840D01*
X465270D01*
Y563500D01*
Y553160D01*
X465361D01*
X467991Y553865D01*
X470349Y555226D01*
X471862Y556739D01*
X473577Y556248D01*
X473894Y556028D01*
Y544691D01*
X471887Y544142D01*
X471862Y544142D01*
X470037Y545968D01*
X467795Y547262D01*
X465294Y547932D01*
X462706D01*
X460205Y547262D01*
X457963Y545968D01*
X456133Y544137D01*
X454838Y541895D01*
X454168Y539394D01*
Y536806D01*
X454838Y534305D01*
X455416Y533305D01*
X393786Y471675D01*
X393786Y471675D01*
X393786Y471675D01*
X347956Y425845D01*
X347170Y424669D01*
X346894Y423281D01*
X346894Y423281D01*
Y402625D01*
X346042Y401772D01*
X345238Y399831D01*
Y397729D01*
X346042Y395788D01*
X347528Y394302D01*
X349469Y393498D01*
X351571D01*
X353512Y394302D01*
X354998Y395788D01*
X355802Y397729D01*
Y399831D01*
X354998Y401772D01*
X354146Y402625D01*
Y421780D01*
X398913Y466547D01*
X398913Y466547D01*
X461072Y528706D01*
X462706Y528268D01*
X465294D01*
X467795Y528938D01*
X470037Y530233D01*
X471862Y532058D01*
X471887Y532058D01*
X473894Y531510D01*
Y519291D01*
X471887Y518742D01*
X471862Y518742D01*
X470037Y520568D01*
X467795Y521862D01*
X465294Y522532D01*
X462706D01*
X460205Y521862D01*
X457963Y520568D01*
X456133Y518737D01*
X454838Y516495D01*
X454168Y513994D01*
Y511406D01*
X454176Y511374D01*
X396216Y453414D01*
X395430Y452238D01*
X395154Y450850D01*
X395154Y450850D01*
Y403895D01*
X394302Y403042D01*
X393498Y401101D01*
Y398999D01*
X394302Y397058D01*
X395788Y395572D01*
X397729Y394768D01*
X399831D01*
X401772Y395572D01*
X403258Y397058D01*
X404062Y398999D01*
Y401101D01*
X403258Y403042D01*
X402406Y403895D01*
Y449348D01*
X457926Y504869D01*
X457963Y504832D01*
X460205Y503538D01*
X462706Y502868D01*
X465294D01*
X467795Y503538D01*
X470037Y504832D01*
X471862Y506658D01*
X471887Y506658D01*
X473894Y506110D01*
Y493891D01*
X471887Y493342D01*
X471862Y493342D01*
X470037Y495168D01*
X467795Y496462D01*
X465294Y497132D01*
X462706D01*
X460205Y496462D01*
X457963Y495168D01*
X456133Y493337D01*
X454838Y491095D01*
X454168Y488594D01*
Y486006D01*
X454838Y483505D01*
X456133Y481263D01*
X457963Y479432D01*
X460205Y478138D01*
X462706Y477468D01*
X465294D01*
X467795Y478138D01*
X470037Y479432D01*
X471862Y481258D01*
X471887Y481258D01*
X473894Y480709D01*
Y468491D01*
X471887Y467942D01*
X471862Y467942D01*
X470037Y469768D01*
X467795Y471062D01*
X465294Y471732D01*
X462706D01*
X460205Y471062D01*
X457963Y469768D01*
X456133Y467937D01*
X454838Y465695D01*
X454168Y463194D01*
Y460606D01*
X454838Y458105D01*
X456133Y455863D01*
X457963Y454033D01*
X460205Y452738D01*
X462706Y452068D01*
X465294D01*
X467795Y452738D01*
X470037Y454033D01*
X471862Y455858D01*
X471887Y455858D01*
X473894Y455309D01*
Y443972D01*
X473577Y443752D01*
X471862Y443261D01*
X470349Y444774D01*
X467991Y446135D01*
X465361Y446840D01*
X465270D01*
Y436500D01*
Y426160D01*
X465361D01*
X467991Y426865D01*
X470349Y428226D01*
X471862Y429739D01*
X473577Y429248D01*
X473894Y429028D01*
Y417691D01*
X471887Y417142D01*
X471862Y417142D01*
X470037Y418968D01*
X467795Y420262D01*
X465294Y420932D01*
X462706D01*
X460205Y420262D01*
X457963Y418968D01*
X456133Y417137D01*
X454838Y414895D01*
X454168Y412394D01*
Y409806D01*
X454838Y407305D01*
X456133Y405063D01*
X457963Y403232D01*
X460205Y401938D01*
X462706Y401268D01*
X465294D01*
X467795Y401938D01*
X470037Y403232D01*
X471862Y405058D01*
X471887Y405058D01*
X473894Y404510D01*
Y392291D01*
X471887Y391742D01*
X471862Y391742D01*
X470037Y393568D01*
X467795Y394862D01*
X465294Y395532D01*
X462706D01*
X460205Y394862D01*
X457963Y393568D01*
X456133Y391737D01*
X454838Y389495D01*
X454793Y389326D01*
X439881D01*
X438493Y389050D01*
X437317Y388264D01*
X437317Y388264D01*
X401045Y351992D01*
X399840D01*
X397899Y351188D01*
X396413Y349702D01*
X395609Y347761D01*
Y345659D01*
X396413Y343718D01*
X397899Y342232D01*
X399840Y341428D01*
X401941D01*
X403883Y342232D01*
X405369Y343718D01*
X406173Y345659D01*
Y346865D01*
X441383Y382074D01*
X454793D01*
X454838Y381905D01*
X456133Y379663D01*
X457963Y377832D01*
X460205Y376538D01*
X462706Y375868D01*
X465294D01*
X467795Y376538D01*
X470037Y377832D01*
X471862Y379658D01*
X471887Y379658D01*
X473894Y379109D01*
Y366891D01*
X471887Y366342D01*
X471862Y366342D01*
X470037Y368168D01*
X467795Y369462D01*
X465294Y370132D01*
X462706D01*
X460205Y369462D01*
X457963Y368168D01*
X456133Y366337D01*
X454838Y364095D01*
X454168Y361594D01*
Y359006D01*
X454838Y356505D01*
X456133Y354263D01*
X457963Y352433D01*
X460205Y351138D01*
X462706Y350468D01*
X465294D01*
X467795Y351138D01*
X470037Y352433D01*
X471862Y354258D01*
X471887Y354258D01*
X473894Y353709D01*
Y341491D01*
X471887Y340942D01*
X471862Y340942D01*
X470037Y342768D01*
X467795Y344062D01*
X465294Y344732D01*
X462706D01*
X460205Y344062D01*
X457963Y342768D01*
X456133Y340937D01*
X454838Y338695D01*
X454168Y336194D01*
Y333606D01*
X454838Y331105D01*
X456133Y328863D01*
X457963Y327033D01*
X460205Y325738D01*
X462706Y325068D01*
X465294D01*
X467795Y325738D01*
X470037Y327033D01*
X471862Y328858D01*
X471887Y328858D01*
X473894Y328310D01*
Y316972D01*
X473577Y316752D01*
X471862Y316261D01*
X470349Y317774D01*
X467991Y319135D01*
X465361Y319840D01*
X465270D01*
Y309500D01*
Y299160D01*
X465361D01*
X467991Y299865D01*
X470349Y301226D01*
X471862Y302739D01*
X473577Y302248D01*
X473894Y302028D01*
Y290691D01*
X471887Y290142D01*
X471862Y290142D01*
X470037Y291968D01*
X467795Y293262D01*
X465294Y293932D01*
X462706D01*
X460205Y293262D01*
X457963Y291968D01*
X456133Y290137D01*
X454838Y287895D01*
X454168Y285394D01*
Y282806D01*
X454838Y280305D01*
X456133Y278063D01*
X457963Y276232D01*
X460205Y274938D01*
X462706Y274268D01*
X465294D01*
X467795Y274938D01*
X470037Y276232D01*
X471862Y278058D01*
X471887Y278058D01*
X473894Y277509D01*
Y270538D01*
X473832Y268532D01*
X471862Y268532D01*
X454168D01*
Y248868D01*
X471862D01*
X473832Y248868D01*
X473894Y246862D01*
Y245342D01*
X462048Y233496D01*
X439201D01*
X437975Y235528D01*
X438352Y236439D01*
Y238541D01*
X437548Y240482D01*
X436062Y241968D01*
X434121Y242772D01*
X432019D01*
X430078Y241968D01*
X428592Y240482D01*
X427788Y238541D01*
Y236439D01*
X428165Y235528D01*
X426939Y233496D01*
X416559D01*
X415718Y235528D01*
X415958Y235768D01*
X416762Y237709D01*
Y239811D01*
X415958Y241752D01*
X414472Y243238D01*
X412531Y244042D01*
X410429D01*
X408488Y243238D01*
X407002Y241752D01*
X406198Y239811D01*
Y237709D01*
X407002Y235768D01*
X407242Y235528D01*
X406400Y233496D01*
X377422D01*
X326206Y284712D01*
Y374520D01*
X326206Y374520D01*
X325930Y375908D01*
X325144Y377084D01*
X325144Y377084D01*
X295074Y407153D01*
X295162Y407305D01*
X295832Y409806D01*
Y412394D01*
X295162Y414895D01*
X293868Y417137D01*
X292037Y418968D01*
X289795Y420262D01*
X287294Y420932D01*
X284706D01*
X282205Y420262D01*
X279963Y418968D01*
X279608Y418612D01*
X277576Y419454D01*
Y427428D01*
X279608Y428269D01*
X279651Y428226D01*
X282009Y426865D01*
X284639Y426160D01*
X284730D01*
Y436500D01*
Y446840D01*
X284639D01*
X282009Y446135D01*
X279651Y444774D01*
X279608Y444731D01*
X277576Y445572D01*
Y453546D01*
X279608Y454388D01*
X279963Y454033D01*
X282205Y452738D01*
X284706Y452068D01*
X287294D01*
X289795Y452738D01*
X292037Y454033D01*
X293868Y455863D01*
X295162Y458105D01*
X295832Y460606D01*
Y463194D01*
X295162Y465695D01*
X293868Y467937D01*
X292037Y469768D01*
X289795Y471062D01*
X287294Y471732D01*
X284706D01*
X282205Y471062D01*
X279963Y469768D01*
X279608Y469412D01*
X277576Y470254D01*
Y478946D01*
X279608Y479788D01*
X279963Y479432D01*
X282205Y478138D01*
X284706Y477468D01*
X287294D01*
X289795Y478138D01*
X292037Y479432D01*
X293868Y481263D01*
X295162Y483505D01*
X295832Y486006D01*
Y488594D01*
X295162Y491095D01*
X293868Y493337D01*
X292037Y495168D01*
X289795Y496462D01*
X287294Y497132D01*
X284706D01*
X282205Y496462D01*
X279963Y495168D01*
X279608Y494812D01*
X277576Y495654D01*
Y504346D01*
X279608Y505188D01*
X279963Y504832D01*
X282205Y503538D01*
X284706Y502868D01*
X287294D01*
X289795Y503538D01*
X292037Y504832D01*
X293868Y506663D01*
X295162Y508905D01*
X295832Y511406D01*
Y513994D01*
X295162Y516495D01*
X293868Y518737D01*
X292037Y520568D01*
X289795Y521862D01*
X287294Y522532D01*
X284706D01*
X282205Y521862D01*
X279963Y520568D01*
X279608Y520212D01*
X277576Y521054D01*
Y529746D01*
X279608Y530588D01*
X279963Y530233D01*
X282205Y528938D01*
X284706Y528268D01*
X287294D01*
X289795Y528938D01*
X292037Y530233D01*
X293868Y532063D01*
X295162Y534305D01*
X295832Y536806D01*
Y539394D01*
X295162Y541895D01*
X293868Y544137D01*
X292037Y545968D01*
X289795Y547262D01*
X287294Y547932D01*
X284706D01*
X282205Y547262D01*
X279963Y545968D01*
X279608Y545612D01*
X277576Y546454D01*
Y554428D01*
X279608Y555269D01*
X279651Y555226D01*
X282009Y553865D01*
X284639Y553160D01*
X284730D01*
Y563500D01*
Y573840D01*
X284639D01*
X282009Y573135D01*
X279651Y571774D01*
X279608Y571731D01*
X277576Y572572D01*
Y580546D01*
X279608Y581388D01*
X279963Y581032D01*
X282205Y579738D01*
X284706Y579068D01*
X287294D01*
X289795Y579738D01*
X292037Y581032D01*
X293868Y582863D01*
X295162Y585105D01*
X295832Y587606D01*
Y590194D01*
X295162Y592695D01*
X293868Y594937D01*
X292037Y596768D01*
X289795Y598062D01*
X287294Y598732D01*
X284706D01*
X282205Y598062D01*
X279963Y596768D01*
X279608Y596412D01*
X277576Y597254D01*
Y605946D01*
X279608Y606788D01*
X279963Y606432D01*
X282205Y605138D01*
X284706Y604468D01*
X287294D01*
X289795Y605138D01*
X292037Y606432D01*
X293868Y608263D01*
X295162Y610505D01*
X295832Y613006D01*
Y615594D01*
X295162Y618095D01*
X293868Y620337D01*
X292037Y622168D01*
X289795Y623462D01*
X287294Y624132D01*
X284706D01*
X282205Y623462D01*
X279963Y622168D01*
X279608Y621812D01*
X277576Y622654D01*
Y626148D01*
X282053Y630626D01*
X282205Y630538D01*
X284706Y629868D01*
X287294D01*
X289795Y630538D01*
X292037Y631833D01*
X293868Y633663D01*
X295162Y635905D01*
X295832Y638406D01*
Y640994D01*
X295162Y643495D01*
X293868Y645737D01*
X292037Y647568D01*
X289795Y648862D01*
X287294Y649532D01*
X284706D01*
X282205Y648862D01*
X279963Y647568D01*
X278132Y645737D01*
X276838Y643495D01*
X276168Y640994D01*
Y638406D01*
X276838Y635905D01*
X276926Y635753D01*
X273327Y632155D01*
X271450Y632933D01*
Y645423D01*
X282053Y656026D01*
X282205Y655938D01*
X284706Y655268D01*
X287294D01*
X289795Y655938D01*
X292037Y657233D01*
X293868Y659063D01*
X295162Y661305D01*
X295832Y663806D01*
Y666394D01*
X295162Y668895D01*
X293868Y671137D01*
X292037Y672968D01*
X289795Y674262D01*
X287294Y674932D01*
X284706D01*
X282205Y674262D01*
X279963Y672968D01*
X278132Y671137D01*
X276838Y668895D01*
X276168Y666394D01*
Y663806D01*
X276838Y661305D01*
X276926Y661153D01*
X273327Y657555D01*
X271450Y658332D01*
Y840740D01*
X287781D01*
X289139Y838708D01*
X288889Y838105D01*
X300371D01*
X300121Y838708D01*
X301479Y840740D01*
X328930D01*
Y958850D01*
X355163D01*
X356121Y957058D01*
X355746Y956498D01*
X354463Y953398D01*
X353808Y950107D01*
Y946752D01*
X354463Y943462D01*
X355746Y940362D01*
X357610Y937573D01*
X359983Y935200D01*
X362772Y933336D01*
X365872Y932053D01*
X369162Y931398D01*
X372518D01*
X375808Y932053D01*
X378908Y933336D01*
X381697Y935200D01*
X384070Y937573D01*
X385934Y940362D01*
X387217Y943462D01*
X387872Y946752D01*
Y950107D01*
X387217Y953398D01*
X385934Y956498D01*
X385559Y957058D01*
X386517Y958850D01*
X424180D01*
Y897061D01*
D02*
G37*
G36*
X50063Y1000063D02*
X50064Y1000063D01*
X480064D01*
X483341Y1000063D01*
X489839Y999208D01*
X496170Y997512D01*
X502225Y995004D01*
X507902Y991726D01*
X513102Y987736D01*
X517736Y983102D01*
X521726Y977902D01*
X525003Y972225D01*
X527511Y966170D01*
X529208Y959839D01*
X530063Y953340D01*
X530063Y950063D01*
X530063Y950063D01*
X530063Y950063D01*
X530064Y905442D01*
X528625Y904007D01*
X433054Y904256D01*
X433069Y966885D01*
X433070Y969010D01*
X432911Y968851D01*
X431038Y968851D01*
X322920D01*
Y849580D01*
X321478Y848148D01*
X265430Y848590D01*
Y649658D01*
X264136Y648364D01*
X263350Y647188D01*
X263074Y645800D01*
X263074Y645800D01*
Y224790D01*
X263074Y224790D01*
X263350Y223403D01*
X264136Y222226D01*
X265430Y220933D01*
Y196850D01*
X205740D01*
Y116050D01*
X233680D01*
Y86360D01*
X142240D01*
Y102870D01*
X63D01*
X63Y951702D01*
X117Y954926D01*
X1065Y961303D01*
X2837Y967503D01*
X5404Y973418D01*
X8720Y978947D01*
X12730Y983996D01*
X17365Y988479D01*
X22545Y992318D01*
X28182Y995449D01*
X34179Y997817D01*
X40434Y999382D01*
X46840Y1000117D01*
X50063Y1000063D01*
D02*
G37*
G36*
X279963Y403232D02*
X282205Y401938D01*
X284706Y401268D01*
X287294D01*
X289795Y401938D01*
X289947Y402026D01*
X318954Y373018D01*
Y360877D01*
X316922Y360035D01*
X295122Y381836D01*
X295162Y381905D01*
X295832Y384406D01*
Y386994D01*
X295162Y389495D01*
X293868Y391737D01*
X292037Y393568D01*
X289795Y394862D01*
X287294Y395532D01*
X284706D01*
X282205Y394862D01*
X279963Y393568D01*
X279608Y393212D01*
X277576Y394054D01*
Y402746D01*
X279608Y403588D01*
X279963Y403232D01*
D02*
G37*
G36*
Y377832D02*
X282205Y376538D01*
X284706Y375868D01*
X287294D01*
X289795Y376538D01*
X290029Y376673D01*
X311334Y355368D01*
Y346907D01*
X309302Y346065D01*
X296234Y359133D01*
X295832Y359402D01*
Y361594D01*
X295162Y364095D01*
X293868Y366337D01*
X292037Y368168D01*
X289795Y369462D01*
X287294Y370132D01*
X284706D01*
X282205Y369462D01*
X279963Y368168D01*
X279608Y367812D01*
X277576Y368654D01*
Y377346D01*
X279608Y378188D01*
X279963Y377832D01*
D02*
G37*
G36*
Y352433D02*
X282205Y351138D01*
X284706Y350468D01*
X287294D01*
X289795Y351138D01*
X292037Y352433D01*
X292358Y352754D01*
X303714Y341398D01*
Y325317D01*
X301682Y324475D01*
X295122Y331036D01*
X295162Y331105D01*
X295832Y333606D01*
Y336194D01*
X295162Y338695D01*
X293868Y340937D01*
X292037Y342768D01*
X289795Y344062D01*
X287294Y344732D01*
X284706D01*
X282205Y344062D01*
X279963Y342768D01*
X279608Y342412D01*
X277576Y343254D01*
Y351946D01*
X279608Y352788D01*
X279963Y352433D01*
D02*
G37*
G36*
X370212Y230450D02*
X369543Y228246D01*
X368842Y228106D01*
X319546Y277402D01*
X319686Y278103D01*
X321890Y278772D01*
X370212Y230450D01*
D02*
G37*
%LPC*%
G36*
X387208Y915620D02*
X387110D01*
Y906500D01*
X396230D01*
Y906598D01*
X395522Y909240D01*
X394154Y911610D01*
X392220Y913544D01*
X389850Y914912D01*
X387208Y915620D01*
D02*
G37*
G36*
X384570D02*
X384472D01*
X381830Y914912D01*
X379460Y913544D01*
X377526Y911610D01*
X376158Y909240D01*
X375450Y906598D01*
Y906500D01*
X384570D01*
Y915620D01*
D02*
G37*
G36*
X365722Y915112D02*
X345958D01*
Y895348D01*
X365722D01*
Y915112D01*
D02*
G37*
G36*
X396230Y903960D02*
X387110D01*
Y894840D01*
X387208D01*
X389850Y895548D01*
X392220Y896916D01*
X394154Y898850D01*
X395522Y901220D01*
X396230Y903862D01*
Y903960D01*
D02*
G37*
G36*
X384570D02*
X375450D01*
Y903862D01*
X376158Y901220D01*
X377526Y898850D01*
X379460Y896916D01*
X381830Y895548D01*
X384472Y894840D01*
X384570D01*
Y903960D01*
D02*
G37*
G36*
X478790Y889661D02*
Y885190D01*
X483261D01*
X482429Y887200D01*
X480800Y888829D01*
X478790Y889661D01*
D02*
G37*
G36*
X476250D02*
X474240Y888829D01*
X472611Y887200D01*
X471779Y885190D01*
X476250D01*
Y889661D01*
D02*
G37*
G36*
X483261Y882650D02*
X478790D01*
Y878179D01*
X480800Y879011D01*
X482429Y880640D01*
X483261Y882650D01*
D02*
G37*
G36*
X476250D02*
X471779D01*
X472611Y880640D01*
X474240Y879011D01*
X476250Y878179D01*
Y882650D01*
D02*
G37*
G36*
X387208Y885620D02*
X387110D01*
Y876500D01*
X396230D01*
Y876598D01*
X395522Y879240D01*
X394154Y881610D01*
X392220Y883544D01*
X389850Y884912D01*
X387208Y885620D01*
D02*
G37*
G36*
X384570D02*
X384472D01*
X381830Y884912D01*
X379460Y883544D01*
X377526Y881610D01*
X376158Y879240D01*
X375450Y876598D01*
Y876500D01*
X384570D01*
Y885620D01*
D02*
G37*
G36*
X357141Y885112D02*
X354539D01*
X352026Y884438D01*
X349772Y883138D01*
X347933Y881298D01*
X346632Y879044D01*
X345958Y876531D01*
Y873929D01*
X346632Y871416D01*
X347933Y869162D01*
X349772Y867322D01*
X352026Y866021D01*
X354539Y865348D01*
X357141D01*
X359654Y866021D01*
X361908Y867322D01*
X363748Y869162D01*
X365048Y871416D01*
X365722Y873929D01*
Y876531D01*
X365048Y879044D01*
X363748Y881298D01*
X361908Y883138D01*
X359654Y884438D01*
X357141Y885112D01*
D02*
G37*
G36*
X396230Y873960D02*
X387110D01*
Y864840D01*
X387208D01*
X389850Y865548D01*
X392220Y866916D01*
X394154Y868850D01*
X395522Y871220D01*
X396230Y873862D01*
Y873960D01*
D02*
G37*
G36*
X384570D02*
X375450D01*
Y873862D01*
X376158Y871220D01*
X377526Y868850D01*
X379460Y866916D01*
X381830Y865548D01*
X384472Y864840D01*
X384570D01*
Y873960D01*
D02*
G37*
G36*
X439420Y845211D02*
Y840740D01*
X443891D01*
X443059Y842750D01*
X441430Y844379D01*
X439420Y845211D01*
D02*
G37*
G36*
X436880D02*
X434870Y844379D01*
X433241Y842750D01*
X432409Y840740D01*
X436880D01*
Y845211D01*
D02*
G37*
G36*
X443891Y838200D02*
X439420D01*
Y833729D01*
X441430Y834561D01*
X443059Y836190D01*
X443891Y838200D01*
D02*
G37*
G36*
X436880D02*
X432409D01*
X433241Y836190D01*
X434870Y834561D01*
X436880Y833729D01*
Y838200D01*
D02*
G37*
G36*
X300371Y835565D02*
X295900D01*
Y831093D01*
X297910Y831926D01*
X299539Y833555D01*
X300371Y835565D01*
D02*
G37*
G36*
X293360D02*
X288889D01*
X289721Y833555D01*
X291350Y831926D01*
X293360Y831093D01*
Y835565D01*
D02*
G37*
G36*
X509270Y794411D02*
Y789940D01*
X513741D01*
X512909Y791950D01*
X511280Y793579D01*
X509270Y794411D01*
D02*
G37*
G36*
X506730D02*
X504720Y793579D01*
X503091Y791950D01*
X502259Y789940D01*
X506730D01*
Y794411D01*
D02*
G37*
G36*
X349250Y791871D02*
Y787400D01*
X353721D01*
X352889Y789410D01*
X351260Y791039D01*
X349250Y791871D01*
D02*
G37*
G36*
X346710D02*
X344700Y791039D01*
X343071Y789410D01*
X342239Y787400D01*
X346710D01*
Y791871D01*
D02*
G37*
G36*
X513741Y787400D02*
X509270D01*
Y782929D01*
X511280Y783761D01*
X512909Y785390D01*
X513741Y787400D01*
D02*
G37*
G36*
X506730D02*
X502259D01*
X503091Y785390D01*
X504720Y783761D01*
X506730Y782929D01*
Y787400D01*
D02*
G37*
G36*
X353721Y784860D02*
X349250D01*
Y780389D01*
X351260Y781221D01*
X352889Y782850D01*
X353721Y784860D01*
D02*
G37*
G36*
X346710D02*
X342239D01*
X343071Y782850D01*
X344700Y781221D01*
X346710Y780389D01*
Y784860D01*
D02*
G37*
G36*
X352841Y810462D02*
X350739D01*
X348798Y809658D01*
X347312Y808172D01*
X346508Y806231D01*
Y804129D01*
X347312Y802188D01*
X348798Y800702D01*
X350739Y799898D01*
X351945D01*
X363404Y788438D01*
Y774734D01*
X362552Y773882D01*
X361748Y771941D01*
Y769839D01*
X362552Y767898D01*
X364038Y766412D01*
X365979Y765608D01*
X368081D01*
X370022Y766412D01*
X371508Y767898D01*
X372312Y769839D01*
Y771941D01*
X371508Y773882D01*
X370656Y774734D01*
Y789940D01*
X370656Y789940D01*
X370380Y791328D01*
X369594Y792504D01*
X369594Y792504D01*
X357072Y805025D01*
Y806231D01*
X356268Y808172D01*
X354782Y809658D01*
X352841Y810462D01*
D02*
G37*
G36*
X524540Y751840D02*
X515270D01*
Y742570D01*
X524540D01*
Y751840D01*
D02*
G37*
G36*
X512730D02*
X503460D01*
Y742570D01*
X512730D01*
Y751840D01*
D02*
G37*
G36*
X446290Y740060D02*
X439020D01*
Y732790D01*
X446290D01*
Y740060D01*
D02*
G37*
G36*
X321360D02*
X314090D01*
Y732790D01*
X321360D01*
Y740060D01*
D02*
G37*
G36*
X311550D02*
X304280D01*
Y732790D01*
X311550D01*
Y740060D01*
D02*
G37*
G36*
X436480D02*
X429210D01*
Y732790D01*
X436480D01*
Y740060D01*
D02*
G37*
G36*
X465294Y751132D02*
X462706D01*
X460205Y750462D01*
X457963Y749168D01*
X456133Y747337D01*
X454838Y745095D01*
X454168Y742594D01*
Y740006D01*
X454838Y737505D01*
X456133Y735263D01*
X457963Y733432D01*
X460205Y732138D01*
X462706Y731468D01*
X465294D01*
X467795Y732138D01*
X470037Y733432D01*
X471868Y735263D01*
X473162Y737505D01*
X473832Y740006D01*
Y742594D01*
X473162Y745095D01*
X471868Y747337D01*
X470037Y749168D01*
X467795Y750462D01*
X465294Y751132D01*
D02*
G37*
G36*
X295832D02*
X276168D01*
Y731468D01*
X295832D01*
Y751132D01*
D02*
G37*
G36*
X524540Y740030D02*
X515270D01*
Y730760D01*
X524540D01*
Y740030D01*
D02*
G37*
G36*
X512730D02*
X503460D01*
Y730760D01*
X512730D01*
Y740030D01*
D02*
G37*
G36*
X388807Y739552D02*
X386693D01*
X384650Y739005D01*
X382818Y737947D01*
X381323Y736452D01*
X380265Y734620D01*
X379718Y732577D01*
Y730463D01*
X380265Y728420D01*
X381323Y726588D01*
X382818Y725093D01*
X384650Y724035D01*
X386693Y723488D01*
X388807D01*
X390850Y724035D01*
X392682Y725093D01*
X394177Y726588D01*
X395235Y728420D01*
X395782Y730463D01*
Y732577D01*
X395235Y734620D01*
X394177Y736452D01*
X392682Y737947D01*
X390850Y739005D01*
X388807Y739552D01*
D02*
G37*
G36*
X363877D02*
X361763D01*
X359720Y739005D01*
X357888Y737947D01*
X356393Y736452D01*
X355335Y734620D01*
X354788Y732577D01*
Y730463D01*
X355335Y728420D01*
X356393Y726588D01*
X357888Y725093D01*
X359720Y724035D01*
X361763Y723488D01*
X363877D01*
X365920Y724035D01*
X367752Y725093D01*
X369247Y726588D01*
X370305Y728420D01*
X370852Y730463D01*
Y732577D01*
X370305Y734620D01*
X369247Y736452D01*
X367752Y737947D01*
X365920Y739005D01*
X363877Y739552D01*
D02*
G37*
G36*
X446290Y730250D02*
X439020D01*
Y722980D01*
X446290D01*
Y730250D01*
D02*
G37*
G36*
X436480D02*
X429210D01*
Y722980D01*
X436480D01*
Y730250D01*
D02*
G37*
G36*
X321360D02*
X314090D01*
Y722980D01*
X321360D01*
Y730250D01*
D02*
G37*
G36*
X311550D02*
X304280D01*
Y722980D01*
X311550D01*
Y730250D01*
D02*
G37*
G36*
X465294Y725732D02*
X462706D01*
X460205Y725062D01*
X457963Y723768D01*
X456133Y721937D01*
X454838Y719695D01*
X454168Y717194D01*
Y714606D01*
X454838Y712105D01*
X456133Y709863D01*
X457963Y708033D01*
X460205Y706738D01*
X462706Y706068D01*
X465294D01*
X467795Y706738D01*
X470037Y708033D01*
X471868Y709863D01*
X473162Y712105D01*
X473832Y714606D01*
Y717194D01*
X473162Y719695D01*
X471868Y721937D01*
X470037Y723768D01*
X467795Y725062D01*
X465294Y725732D01*
D02*
G37*
G36*
X287294D02*
X284706D01*
X282205Y725062D01*
X279963Y723768D01*
X278132Y721937D01*
X276838Y719695D01*
X276168Y717194D01*
Y714606D01*
X276838Y712105D01*
X278132Y709863D01*
X279963Y708033D01*
X282205Y706738D01*
X284706Y706068D01*
X287294D01*
X289795Y706738D01*
X292037Y708033D01*
X293868Y709863D01*
X295162Y712105D01*
X295832Y714606D01*
Y717194D01*
X295162Y719695D01*
X293868Y721937D01*
X292037Y723768D01*
X289795Y725062D01*
X287294Y725732D01*
D02*
G37*
G36*
X465361Y700840D02*
X465270D01*
Y691770D01*
X474340D01*
Y691861D01*
X473635Y694491D01*
X472274Y696849D01*
X470349Y698774D01*
X467991Y700135D01*
X465361Y700840D01*
D02*
G37*
G36*
X462730D02*
X462639D01*
X460009Y700135D01*
X457651Y698774D01*
X455726Y696849D01*
X454365Y694491D01*
X453660Y691861D01*
Y691770D01*
X462730D01*
Y700840D01*
D02*
G37*
G36*
X515388Y701040D02*
X515270D01*
Y691770D01*
X524540D01*
Y691888D01*
X523822Y694568D01*
X522434Y696972D01*
X520472Y698934D01*
X518068Y700322D01*
X515388Y701040D01*
D02*
G37*
G36*
X287361Y700840D02*
X287270D01*
Y691770D01*
X296340D01*
Y691861D01*
X295635Y694491D01*
X294274Y696849D01*
X292349Y698774D01*
X289991Y700135D01*
X287361Y700840D01*
D02*
G37*
G36*
X284730D02*
X284639D01*
X282009Y700135D01*
X279651Y698774D01*
X277726Y696849D01*
X276365Y694491D01*
X275660Y691861D01*
Y691770D01*
X284730D01*
Y700840D01*
D02*
G37*
G36*
X512730Y701040D02*
X512612D01*
X509932Y700322D01*
X507528Y698934D01*
X505566Y696972D01*
X504178Y694568D01*
X503460Y691888D01*
Y691770D01*
X512730D01*
Y701040D01*
D02*
G37*
G36*
X376038Y696340D02*
X375920D01*
Y687070D01*
X385190D01*
Y687188D01*
X384472Y689868D01*
X383084Y692272D01*
X381122Y694234D01*
X378718Y695622D01*
X376038Y696340D01*
D02*
G37*
G36*
X373380D02*
X373262D01*
X370582Y695622D01*
X368178Y694234D01*
X366216Y692272D01*
X364828Y689868D01*
X364110Y687188D01*
Y687070D01*
X373380D01*
Y696340D01*
D02*
G37*
G36*
X474340Y689230D02*
X465270D01*
Y680160D01*
X465361D01*
X467991Y680865D01*
X470349Y682226D01*
X472274Y684151D01*
X473635Y686509D01*
X474340Y689139D01*
Y689230D01*
D02*
G37*
G36*
X462730D02*
X453660D01*
Y689139D01*
X454365Y686509D01*
X455726Y684151D01*
X457651Y682226D01*
X460009Y680865D01*
X462639Y680160D01*
X462730D01*
Y689230D01*
D02*
G37*
G36*
X296340Y689230D02*
X287270D01*
Y680160D01*
X287361D01*
X289991Y680865D01*
X292349Y682226D01*
X294274Y684151D01*
X295635Y686509D01*
X296340Y689139D01*
Y689230D01*
D02*
G37*
G36*
X284730D02*
X275660D01*
Y689139D01*
X276365Y686509D01*
X277726Y684151D01*
X279651Y682226D01*
X282009Y680865D01*
X284639Y680160D01*
X284730D01*
Y689230D01*
D02*
G37*
G36*
X524540D02*
X515270D01*
Y679960D01*
X515388D01*
X518068Y680678D01*
X520472Y682066D01*
X522434Y684028D01*
X523822Y686432D01*
X524540Y689112D01*
Y689230D01*
D02*
G37*
G36*
X512730D02*
X503460D01*
Y689112D01*
X504178Y686432D01*
X505566Y684028D01*
X507528Y682066D01*
X509932Y680678D01*
X512612Y679960D01*
X512730D01*
Y689230D01*
D02*
G37*
G36*
X410082Y695832D02*
X390018D01*
Y675768D01*
X410082D01*
Y695832D01*
D02*
G37*
G36*
X350571D02*
X347929D01*
X345378Y695148D01*
X343090Y693828D01*
X341222Y691960D01*
X339902Y689672D01*
X339218Y687121D01*
Y684479D01*
X339902Y681928D01*
X341222Y679640D01*
X343090Y677772D01*
X345378Y676452D01*
X347929Y675768D01*
X350571D01*
X353122Y676452D01*
X355410Y677772D01*
X357278Y679640D01*
X358598Y681928D01*
X359282Y684479D01*
Y687121D01*
X358598Y689672D01*
X357278Y691960D01*
X355410Y693828D01*
X353122Y695148D01*
X350571Y695832D01*
D02*
G37*
G36*
X385190Y684530D02*
X375920D01*
Y675260D01*
X376038D01*
X378718Y675978D01*
X381122Y677366D01*
X383084Y679328D01*
X384472Y681732D01*
X385190Y684412D01*
Y684530D01*
D02*
G37*
G36*
X373380D02*
X364110D01*
Y684412D01*
X364828Y681732D01*
X366216Y679328D01*
X368178Y677366D01*
X370582Y675978D01*
X373262Y675260D01*
X373380D01*
Y684530D01*
D02*
G37*
G36*
X515388Y650240D02*
X515270D01*
Y640970D01*
X524540D01*
Y641088D01*
X523822Y643768D01*
X522434Y646172D01*
X520472Y648134D01*
X518068Y649522D01*
X515388Y650240D01*
D02*
G37*
G36*
X512730D02*
X512612D01*
X509932Y649522D01*
X507528Y648134D01*
X505566Y646172D01*
X504178Y643768D01*
X503460Y641088D01*
Y640970D01*
X512730D01*
Y650240D01*
D02*
G37*
G36*
X524540Y638430D02*
X515270D01*
Y629160D01*
X515388D01*
X518068Y629878D01*
X520472Y631266D01*
X522434Y633228D01*
X523822Y635632D01*
X524540Y638312D01*
Y638430D01*
D02*
G37*
G36*
X512730D02*
X503460D01*
Y638312D01*
X504178Y635632D01*
X505566Y633228D01*
X507528Y631266D01*
X509932Y629878D01*
X512612Y629160D01*
X512730D01*
Y638430D01*
D02*
G37*
G36*
X392710Y615413D02*
Y610942D01*
X397181D01*
X396348Y612952D01*
X394719Y614580D01*
X392710Y615413D01*
D02*
G37*
G36*
X390169D02*
X388160Y614580D01*
X386531Y612952D01*
X385698Y610942D01*
X390169D01*
Y615413D01*
D02*
G37*
G36*
X407670Y615341D02*
Y610870D01*
X412141D01*
X411309Y612880D01*
X409680Y614509D01*
X407670Y615341D01*
D02*
G37*
G36*
X405130D02*
X403120Y614509D01*
X401491Y612880D01*
X400659Y610870D01*
X405130D01*
Y615341D01*
D02*
G37*
G36*
X375920D02*
Y610870D01*
X380391D01*
X379559Y612880D01*
X377930Y614509D01*
X375920Y615341D01*
D02*
G37*
G36*
X373380D02*
X371370Y614509D01*
X369741Y612880D01*
X368909Y610870D01*
X373380D01*
Y615341D01*
D02*
G37*
G36*
X360680D02*
Y610870D01*
X365151D01*
X364319Y612880D01*
X362690Y614509D01*
X360680Y615341D01*
D02*
G37*
G36*
X358140D02*
X356130Y614509D01*
X354501Y612880D01*
X353669Y610870D01*
X358140D01*
Y615341D01*
D02*
G37*
G36*
X397181Y608402D02*
X392710D01*
Y603930D01*
X394719Y604763D01*
X396348Y606392D01*
X397181Y608402D01*
D02*
G37*
G36*
X390169D02*
X385698D01*
X386531Y606392D01*
X388160Y604763D01*
X390169Y603930D01*
Y608402D01*
D02*
G37*
G36*
X412141Y608330D02*
X407670D01*
Y603859D01*
X409680Y604691D01*
X411309Y606320D01*
X412141Y608330D01*
D02*
G37*
G36*
X405130D02*
X400659D01*
X401491Y606320D01*
X403120Y604691D01*
X405130Y603859D01*
Y608330D01*
D02*
G37*
G36*
X380391D02*
X375920D01*
Y603859D01*
X377930Y604691D01*
X379559Y606320D01*
X380391Y608330D01*
D02*
G37*
G36*
X373380D02*
X368909D01*
X369741Y606320D01*
X371370Y604691D01*
X373380Y603859D01*
Y608330D01*
D02*
G37*
G36*
X365151D02*
X360680D01*
Y603859D01*
X362690Y604691D01*
X364319Y606320D01*
X365151Y608330D01*
D02*
G37*
G36*
X358140D02*
X353669D01*
X354501Y606320D01*
X356130Y604691D01*
X358140Y603859D01*
Y608330D01*
D02*
G37*
G36*
X515388Y599440D02*
X515270D01*
Y590170D01*
X524540D01*
Y590288D01*
X523822Y592968D01*
X522434Y595372D01*
X520472Y597334D01*
X518068Y598722D01*
X515388Y599440D01*
D02*
G37*
G36*
X512730D02*
X512612D01*
X509932Y598722D01*
X507528Y597334D01*
X505566Y595372D01*
X504178Y592968D01*
X503460Y590288D01*
Y590170D01*
X512730D01*
Y599440D01*
D02*
G37*
G36*
X524540Y587630D02*
X515270D01*
Y578360D01*
X515388D01*
X518068Y579078D01*
X520472Y580466D01*
X522434Y582428D01*
X523822Y584832D01*
X524540Y587512D01*
Y587630D01*
D02*
G37*
G36*
X512730D02*
X503460D01*
Y587512D01*
X504178Y584832D01*
X505566Y582428D01*
X507528Y580466D01*
X509932Y579078D01*
X512612Y578360D01*
X512730D01*
Y587630D01*
D02*
G37*
G36*
X462730Y573840D02*
X462639D01*
X460009Y573135D01*
X457651Y571774D01*
X455726Y569849D01*
X454365Y567491D01*
X453660Y564861D01*
Y564770D01*
X462730D01*
Y573840D01*
D02*
G37*
G36*
X287361D02*
X287270D01*
Y564770D01*
X296340D01*
Y564861D01*
X295635Y567491D01*
X294274Y569849D01*
X292349Y571774D01*
X289991Y573135D01*
X287361Y573840D01*
D02*
G37*
G36*
X462730Y562230D02*
X453660D01*
Y562139D01*
X454365Y559509D01*
X455726Y557151D01*
X457651Y555226D01*
X460009Y553865D01*
X462639Y553160D01*
X462730D01*
Y562230D01*
D02*
G37*
G36*
X296340Y562230D02*
X287270D01*
Y553160D01*
X287361D01*
X289991Y553865D01*
X292349Y555226D01*
X294274Y557151D01*
X295635Y559509D01*
X296340Y562139D01*
Y562230D01*
D02*
G37*
G36*
X515388Y548640D02*
X515270D01*
Y539370D01*
X524540D01*
Y539488D01*
X523822Y542168D01*
X522434Y544572D01*
X520472Y546534D01*
X518068Y547922D01*
X515388Y548640D01*
D02*
G37*
G36*
X512730D02*
X512612D01*
X509932Y547922D01*
X507528Y546534D01*
X505566Y544572D01*
X504178Y542168D01*
X503460Y539488D01*
Y539370D01*
X512730D01*
Y548640D01*
D02*
G37*
G36*
X524540Y536830D02*
X515270D01*
Y527560D01*
X515388D01*
X518068Y528278D01*
X520472Y529666D01*
X522434Y531628D01*
X523822Y534032D01*
X524540Y536712D01*
Y536830D01*
D02*
G37*
G36*
X512730D02*
X503460D01*
Y536712D01*
X504178Y534032D01*
X505566Y531628D01*
X507528Y529666D01*
X509932Y528278D01*
X512612Y527560D01*
X512730D01*
Y536830D01*
D02*
G37*
G36*
X515388Y497840D02*
X515270D01*
Y488570D01*
X524540D01*
Y488688D01*
X523822Y491368D01*
X522434Y493772D01*
X520472Y495734D01*
X518068Y497122D01*
X515388Y497840D01*
D02*
G37*
G36*
X524540Y486030D02*
X515270D01*
Y476760D01*
X515388D01*
X518068Y477478D01*
X520472Y478866D01*
X522434Y480828D01*
X523822Y483232D01*
X524540Y485912D01*
Y486030D01*
D02*
G37*
G36*
X462730Y446840D02*
X462639D01*
X460009Y446135D01*
X457651Y444774D01*
X455726Y442849D01*
X454365Y440491D01*
X453660Y437861D01*
Y437770D01*
X462730D01*
Y446840D01*
D02*
G37*
G36*
X287361D02*
X287270D01*
Y437770D01*
X296340D01*
Y437861D01*
X295635Y440491D01*
X294274Y442849D01*
X292349Y444774D01*
X289991Y446135D01*
X287361Y446840D01*
D02*
G37*
G36*
X382270Y431191D02*
Y426720D01*
X386741D01*
X385909Y428730D01*
X384280Y430359D01*
X382270Y431191D01*
D02*
G37*
G36*
X379730D02*
X377720Y430359D01*
X376091Y428730D01*
X375259Y426720D01*
X379730D01*
Y431191D01*
D02*
G37*
G36*
X313690D02*
Y426720D01*
X318161D01*
X317329Y428730D01*
X315700Y430359D01*
X313690Y431191D01*
D02*
G37*
G36*
X311150D02*
X309140Y430359D01*
X307511Y428730D01*
X306679Y426720D01*
X311150D01*
Y431191D01*
D02*
G37*
G36*
X462730Y435230D02*
X453660D01*
Y435139D01*
X454365Y432509D01*
X455726Y430151D01*
X457651Y428226D01*
X460009Y426865D01*
X462639Y426160D01*
X462730D01*
Y435230D01*
D02*
G37*
G36*
X296340Y435230D02*
X287270D01*
Y426160D01*
X287361D01*
X289991Y426865D01*
X292349Y428226D01*
X294274Y430151D01*
X295635Y432509D01*
X296340Y435139D01*
Y435230D01*
D02*
G37*
G36*
X386741Y424180D02*
X382270D01*
Y419709D01*
X384280Y420541D01*
X385909Y422170D01*
X386741Y424180D01*
D02*
G37*
G36*
X379730D02*
X375259D01*
X376091Y422170D01*
X377720Y420541D01*
X379730Y419709D01*
Y424180D01*
D02*
G37*
G36*
X318161D02*
X313690D01*
Y419709D01*
X315700Y420541D01*
X317329Y422170D01*
X318161Y424180D01*
D02*
G37*
G36*
X311150D02*
X306679D01*
X307511Y422170D01*
X309140Y420541D01*
X311150Y419709D01*
Y424180D01*
D02*
G37*
G36*
X515388Y421640D02*
X515270D01*
Y412370D01*
X524540D01*
Y412488D01*
X523822Y415168D01*
X522434Y417572D01*
X520472Y419534D01*
X518068Y420922D01*
X515388Y421640D01*
D02*
G37*
G36*
X364271Y421842D02*
X362169D01*
X360228Y421038D01*
X358742Y419552D01*
X357938Y417611D01*
Y415509D01*
X358742Y413568D01*
X360228Y412082D01*
X362169Y411278D01*
X364271D01*
X366212Y412082D01*
X367698Y413568D01*
X368502Y415509D01*
Y417611D01*
X367698Y419552D01*
X366212Y421038D01*
X364271Y421842D01*
D02*
G37*
G36*
X317500Y405791D02*
Y401320D01*
X321971D01*
X321139Y403330D01*
X319510Y404959D01*
X317500Y405791D01*
D02*
G37*
G36*
X314960D02*
X312950Y404959D01*
X311321Y403330D01*
X310489Y401320D01*
X314960D01*
Y405791D01*
D02*
G37*
G36*
X524540Y409830D02*
X515270D01*
Y400560D01*
X515388D01*
X518068Y401278D01*
X520472Y402666D01*
X522434Y404628D01*
X523822Y407032D01*
X524540Y409712D01*
Y409830D01*
D02*
G37*
G36*
X321971Y398780D02*
X317500D01*
Y394309D01*
X319510Y395141D01*
X321139Y396770D01*
X321971Y398780D01*
D02*
G37*
G36*
X314960D02*
X310489D01*
X311321Y396770D01*
X312950Y395141D01*
X314960Y394309D01*
Y398780D01*
D02*
G37*
G36*
X391160Y361341D02*
Y356870D01*
X395631D01*
X394799Y358880D01*
X393170Y360509D01*
X391160Y361341D01*
D02*
G37*
G36*
X388620D02*
X386610Y360509D01*
X384981Y358880D01*
X384149Y356870D01*
X388620D01*
Y361341D01*
D02*
G37*
G36*
X345440D02*
Y356870D01*
X349911D01*
X349079Y358880D01*
X347450Y360509D01*
X345440Y361341D01*
D02*
G37*
G36*
X342900D02*
X340890Y360509D01*
X339261Y358880D01*
X338429Y356870D01*
X342900D01*
Y361341D01*
D02*
G37*
G36*
X395631Y354330D02*
X391160D01*
Y349859D01*
X393170Y350691D01*
X394799Y352320D01*
X395631Y354330D01*
D02*
G37*
G36*
X388620D02*
X384149D01*
X384981Y352320D01*
X386610Y350691D01*
X388620Y349859D01*
Y354330D01*
D02*
G37*
G36*
X349911D02*
X345440D01*
Y349859D01*
X347450Y350691D01*
X349079Y352320D01*
X349911Y354330D01*
D02*
G37*
G36*
X342900D02*
X338429D01*
X339261Y352320D01*
X340890Y350691D01*
X342900Y349859D01*
Y354330D01*
D02*
G37*
G36*
X367030Y352451D02*
Y347980D01*
X371501D01*
X370669Y349990D01*
X369040Y351619D01*
X367030Y352451D01*
D02*
G37*
G36*
X364490D02*
X362480Y351619D01*
X360851Y349990D01*
X360019Y347980D01*
X364490D01*
Y352451D01*
D02*
G37*
G36*
X371501Y345440D02*
X367030D01*
Y340969D01*
X369040Y341801D01*
X370669Y343430D01*
X371501Y345440D01*
D02*
G37*
G36*
X364490D02*
X360019D01*
X360851Y343430D01*
X362480Y341801D01*
X364490Y340969D01*
Y345440D01*
D02*
G37*
G36*
X515388D02*
X515270D01*
Y336170D01*
X524540D01*
Y336288D01*
X523822Y338968D01*
X522434Y341372D01*
X520472Y343334D01*
X518068Y344722D01*
X515388Y345440D01*
D02*
G37*
G36*
X524540Y333630D02*
X515270D01*
Y324360D01*
X515388D01*
X518068Y325078D01*
X520472Y326466D01*
X522434Y328428D01*
X523822Y330832D01*
X524540Y333512D01*
Y333630D01*
D02*
G37*
G36*
X462730Y319840D02*
X462639D01*
X460009Y319135D01*
X457651Y317774D01*
X455726Y315849D01*
X454365Y313491D01*
X453660Y310861D01*
Y310770D01*
X462730D01*
Y319840D01*
D02*
G37*
G36*
Y308230D02*
X453660D01*
Y308139D01*
X454365Y305509D01*
X455726Y303151D01*
X457651Y301226D01*
X460009Y299865D01*
X462639Y299160D01*
X462730D01*
Y308230D01*
D02*
G37*
G36*
X384810Y258471D02*
X382800Y257639D01*
X381367Y256206D01*
X380938Y256005D01*
X378953Y255965D01*
X377930Y256989D01*
X375920Y257821D01*
Y252080D01*
Y246339D01*
X377930Y247171D01*
X379362Y248604D01*
X379792Y248805D01*
X381777Y248845D01*
X382800Y247821D01*
X384810Y246989D01*
Y252730D01*
Y258471D01*
D02*
G37*
G36*
X387350D02*
Y254000D01*
X391821D01*
X390989Y256010D01*
X389360Y257639D01*
X387350Y258471D01*
D02*
G37*
G36*
X373380Y257821D02*
X371370Y256989D01*
X369741Y255360D01*
X368909Y253350D01*
X373380D01*
Y257821D01*
D02*
G37*
G36*
X391821Y251460D02*
X387350D01*
Y246989D01*
X389360Y247821D01*
X390989Y249450D01*
X391821Y251460D01*
D02*
G37*
G36*
X373380Y250810D02*
X368909D01*
X369741Y248800D01*
X371370Y247171D01*
X373380Y246339D01*
Y250810D01*
D02*
G37*
G36*
X308610Y226721D02*
Y222250D01*
X313081D01*
X312249Y224260D01*
X310620Y225889D01*
X308610Y226721D01*
D02*
G37*
G36*
X306070D02*
X304060Y225889D01*
X302431Y224260D01*
X301599Y222250D01*
X306070D01*
Y226721D01*
D02*
G37*
G36*
X313081Y219710D02*
X308610D01*
Y215239D01*
X310620Y216071D01*
X312249Y217700D01*
X313081Y219710D01*
D02*
G37*
G36*
X306070D02*
X301599D01*
X302431Y217700D01*
X304060Y216071D01*
X306070Y215239D01*
Y219710D01*
D02*
G37*
G36*
X433070Y184691D02*
Y180220D01*
X437541D01*
X436709Y182230D01*
X435080Y183859D01*
X433070Y184691D01*
D02*
G37*
G36*
X430530D02*
X428520Y183859D01*
X426891Y182230D01*
X426059Y180220D01*
X430530D01*
Y184691D01*
D02*
G37*
G36*
X437541Y177680D02*
X433070D01*
Y173209D01*
X435080Y174041D01*
X436709Y175670D01*
X437541Y177680D01*
D02*
G37*
G36*
X430530D02*
X426059D01*
X426891Y175670D01*
X428520Y174041D01*
X430530Y173209D01*
Y177680D01*
D02*
G37*
G36*
X408940Y172111D02*
Y167640D01*
X413411D01*
X412579Y169650D01*
X410950Y171279D01*
X408940Y172111D01*
D02*
G37*
G36*
X406400D02*
X404390Y171279D01*
X402761Y169650D01*
X401929Y167640D01*
X406400D01*
Y172111D01*
D02*
G37*
G36*
X413411Y165100D02*
X408940D01*
Y160629D01*
X410950Y161461D01*
X412579Y163090D01*
X413411Y165100D01*
D02*
G37*
G36*
X406400D02*
X401929D01*
X402761Y163090D01*
X404390Y161461D01*
X406400Y160629D01*
Y165100D01*
D02*
G37*
G36*
X380490Y141232D02*
X377954D01*
X375504Y140576D01*
X373308Y139307D01*
X371515Y137514D01*
X370246Y135318D01*
X369590Y132868D01*
Y130332D01*
X370246Y127882D01*
X371515Y125686D01*
X373308Y123892D01*
X375504Y122624D01*
X377954Y121968D01*
X380490D01*
X382940Y122624D01*
X385136Y123892D01*
X386930Y125686D01*
X388198Y127882D01*
X388854Y130332D01*
Y132868D01*
X388198Y135318D01*
X386930Y137514D01*
X385136Y139307D01*
X382940Y140576D01*
X380490Y141232D01*
D02*
G37*
G36*
X350490D02*
X347954D01*
X345504Y140576D01*
X343308Y139307D01*
X341515Y137514D01*
X340246Y135318D01*
X339590Y132868D01*
Y130332D01*
X340246Y127882D01*
X341515Y125686D01*
X343308Y123892D01*
X345504Y122624D01*
X347954Y121968D01*
X350490D01*
X352940Y122624D01*
X355136Y123892D01*
X356930Y125686D01*
X358198Y127882D01*
X358854Y130332D01*
Y132868D01*
X358198Y135318D01*
X356930Y137514D01*
X355136Y139307D01*
X352940Y140576D01*
X350490Y141232D01*
D02*
G37*
G36*
X320490D02*
X317954D01*
X315504Y140576D01*
X313308Y139307D01*
X311514Y137514D01*
X310246Y135318D01*
X309590Y132868D01*
Y130332D01*
X310246Y127882D01*
X311514Y125686D01*
X313308Y123892D01*
X315504Y122624D01*
X317954Y121968D01*
X320490D01*
X322940Y122624D01*
X325136Y123892D01*
X326930Y125686D01*
X328198Y127882D01*
X328854Y130332D01*
Y132868D01*
X328198Y135318D01*
X326930Y137514D01*
X325136Y139307D01*
X322940Y140576D01*
X320490Y141232D01*
D02*
G37*
G36*
X251458D02*
X248922D01*
X246472Y140576D01*
X244276Y139307D01*
X242482Y137514D01*
X241214Y135318D01*
X240558Y132868D01*
Y130332D01*
X241214Y127882D01*
X242482Y125686D01*
X244276Y123892D01*
X246472Y122624D01*
X248922Y121968D01*
X251458D01*
X253908Y122624D01*
X256104Y123892D01*
X257897Y125686D01*
X259166Y127882D01*
X259822Y130332D01*
Y132868D01*
X259166Y135318D01*
X257897Y137514D01*
X256104Y139307D01*
X253908Y140576D01*
X251458Y141232D01*
D02*
G37*
G36*
X320557Y111740D02*
X320492D01*
Y102870D01*
X329362D01*
Y102935D01*
X328671Y105514D01*
X327336Y107826D01*
X325448Y109714D01*
X323136Y111049D01*
X320557Y111740D01*
D02*
G37*
G36*
X317952D02*
X317887D01*
X315308Y111049D01*
X312996Y109714D01*
X311108Y107826D01*
X309773Y105514D01*
X309082Y102935D01*
Y102870D01*
X317952D01*
Y111740D01*
D02*
G37*
G36*
X251460D02*
Y102870D01*
X260330D01*
Y111740D01*
X251460D01*
D02*
G37*
G36*
X388854Y111232D02*
X369590D01*
Y91968D01*
X388854D01*
Y111232D01*
D02*
G37*
G36*
X350490D02*
X347954D01*
X345504Y110576D01*
X343308Y109307D01*
X341515Y107514D01*
X340246Y105318D01*
X339590Y102868D01*
Y100332D01*
X340246Y97882D01*
X341515Y95686D01*
X343308Y93892D01*
X345504Y92624D01*
X347954Y91968D01*
X350490D01*
X352940Y92624D01*
X355136Y93892D01*
X356930Y95686D01*
X358198Y97882D01*
X358854Y100332D01*
Y102868D01*
X358198Y105318D01*
X356930Y107514D01*
X355136Y109307D01*
X352940Y110576D01*
X350490Y111232D01*
D02*
G37*
G36*
X329362Y100330D02*
X320492D01*
Y91460D01*
X320557D01*
X323136Y92151D01*
X325448Y93486D01*
X327336Y95374D01*
X328671Y97686D01*
X329362Y100265D01*
Y100330D01*
D02*
G37*
G36*
X317952D02*
X309082D01*
Y100265D01*
X309773Y97686D01*
X311108Y95374D01*
X312996Y93486D01*
X315308Y92151D01*
X317887Y91460D01*
X317952D01*
Y100330D01*
D02*
G37*
G36*
X260330D02*
X251460D01*
Y91460D01*
X260330D01*
Y100330D01*
D02*
G37*
G36*
X472561Y87540D02*
X471270D01*
Y56270D01*
X502540D01*
Y57561D01*
X501739Y62620D01*
X500156Y67491D01*
X497831Y72055D01*
X494820Y76198D01*
X491198Y79820D01*
X487055Y82831D01*
X482491Y85156D01*
X477620Y86739D01*
X472561Y87540D01*
D02*
G37*
G36*
X468730D02*
X467439D01*
X462380Y86739D01*
X457509Y85156D01*
X452945Y82831D01*
X448802Y79820D01*
X445180Y76198D01*
X442169Y72055D01*
X439844Y67491D01*
X438261Y62620D01*
X437460Y57561D01*
Y56270D01*
X468730D01*
Y87540D01*
D02*
G37*
G36*
X62561D02*
X61270D01*
Y56270D01*
X92540D01*
Y57561D01*
X91739Y62620D01*
X90156Y67491D01*
X87831Y72055D01*
X84820Y76198D01*
X81198Y79820D01*
X77055Y82831D01*
X72491Y85156D01*
X67620Y86739D01*
X62561Y87540D01*
D02*
G37*
G36*
X58730D02*
X57439D01*
X52380Y86739D01*
X47509Y85156D01*
X42945Y82831D01*
X38802Y79820D01*
X35180Y76198D01*
X32169Y72055D01*
X29844Y67491D01*
X28261Y62620D01*
X27460Y57561D01*
Y56270D01*
X58730D01*
Y87540D01*
D02*
G37*
G36*
X350900Y75632D02*
X347545D01*
X344254Y74977D01*
X341154Y73694D01*
X338365Y71830D01*
X335992Y69457D01*
X334128Y66668D01*
X332845Y63568D01*
X332190Y60278D01*
Y56922D01*
X332845Y53632D01*
X334128Y50532D01*
X335992Y47743D01*
X338365Y45370D01*
X341154Y43506D01*
X344254Y42222D01*
X347545Y41568D01*
X350900D01*
X354190Y42222D01*
X357290Y43506D01*
X360079Y45370D01*
X362452Y47743D01*
X364316Y50532D01*
X365600Y53632D01*
X366254Y56922D01*
Y60278D01*
X365600Y63568D01*
X364316Y66668D01*
X362452Y69457D01*
X360079Y71830D01*
X357290Y73694D01*
X354190Y74977D01*
X350900Y75632D01*
D02*
G37*
G36*
X152400Y38761D02*
Y34290D01*
X156871D01*
X156039Y36300D01*
X154410Y37929D01*
X152400Y38761D01*
D02*
G37*
G36*
X149860D02*
X147850Y37929D01*
X146221Y36300D01*
X145389Y34290D01*
X149860D01*
Y38761D01*
D02*
G37*
G36*
X156871Y31750D02*
X152400D01*
Y27279D01*
X154410Y28111D01*
X156039Y29740D01*
X156871Y31750D01*
D02*
G37*
G36*
X149860D02*
X145389D01*
X146221Y29740D01*
X147850Y28111D01*
X149860Y27279D01*
Y31750D01*
D02*
G37*
G36*
X502540Y53730D02*
X471270D01*
Y22460D01*
X472561D01*
X477620Y23261D01*
X482491Y24844D01*
X487055Y27169D01*
X491198Y30180D01*
X494820Y33802D01*
X497831Y37945D01*
X500156Y42509D01*
X501739Y47380D01*
X502540Y52439D01*
Y53730D01*
D02*
G37*
G36*
X468730D02*
X437460D01*
Y52439D01*
X438261Y47380D01*
X439844Y42509D01*
X442169Y37945D01*
X445180Y33802D01*
X448802Y30180D01*
X452945Y27169D01*
X457509Y24844D01*
X462380Y23261D01*
X467439Y22460D01*
X468730D01*
Y53730D01*
D02*
G37*
G36*
X92540D02*
X61270D01*
Y22460D01*
X62561D01*
X67620Y23261D01*
X72491Y24844D01*
X77055Y27169D01*
X81198Y30180D01*
X84820Y33802D01*
X87831Y37945D01*
X90156Y42509D01*
X91739Y47380D01*
X92540Y52439D01*
Y53730D01*
D02*
G37*
G36*
X58730D02*
X27460D01*
Y52439D01*
X28261Y47380D01*
X29844Y42509D01*
X32169Y37945D01*
X35180Y33802D01*
X38802Y30180D01*
X42945Y27169D01*
X47509Y24844D01*
X52380Y23261D01*
X57439Y22460D01*
X58730D01*
Y53730D01*
D02*
G37*
G36*
X472561Y977540D02*
X471270D01*
Y946270D01*
X502540D01*
Y947561D01*
X501739Y952620D01*
X500156Y957491D01*
X497831Y962055D01*
X494820Y966198D01*
X491198Y969820D01*
X487055Y972831D01*
X482491Y975156D01*
X477620Y976739D01*
X472561Y977540D01*
D02*
G37*
G36*
X468730D02*
X467439D01*
X462380Y976739D01*
X457509Y975156D01*
X452945Y972831D01*
X448802Y969820D01*
X445180Y966198D01*
X442169Y962055D01*
X439844Y957491D01*
X438261Y952620D01*
X437460Y947561D01*
Y946270D01*
X468730D01*
Y977540D01*
D02*
G37*
G36*
X62561D02*
X61270D01*
Y946270D01*
X92540D01*
Y947561D01*
X91739Y952620D01*
X90156Y957491D01*
X87831Y962055D01*
X84820Y966198D01*
X81198Y969820D01*
X77055Y972831D01*
X72491Y975156D01*
X67620Y976739D01*
X62561Y977540D01*
D02*
G37*
G36*
X58730D02*
X57439D01*
X52380Y976739D01*
X47509Y975156D01*
X42945Y972831D01*
X38802Y969820D01*
X35180Y966198D01*
X32169Y962055D01*
X29844Y957491D01*
X28261Y952620D01*
X27460Y947561D01*
Y946270D01*
X58730D01*
Y977540D01*
D02*
G37*
G36*
X267897Y969352D02*
X264543D01*
X261252Y968698D01*
X258152Y967414D01*
X255363Y965550D01*
X252990Y963177D01*
X251126Y960388D01*
X249842Y957288D01*
X249188Y953997D01*
Y950642D01*
X249842Y947352D01*
X251126Y944252D01*
X252990Y941463D01*
X255363Y939090D01*
X258152Y937226D01*
X261252Y935943D01*
X264543Y935288D01*
X267897D01*
X271188Y935943D01*
X274288Y937226D01*
X277077Y939090D01*
X279450Y941463D01*
X281314Y944252D01*
X282598Y947352D01*
X283252Y950642D01*
Y953997D01*
X282598Y957288D01*
X281314Y960388D01*
X279450Y963177D01*
X277077Y965550D01*
X274288Y967414D01*
X271188Y968698D01*
X267897Y969352D01*
D02*
G37*
G36*
X161698Y965462D02*
X158343D01*
X155052Y964808D01*
X151952Y963524D01*
X149163Y961660D01*
X146790Y959287D01*
X144926Y956498D01*
X143643Y953398D01*
X142988Y950107D01*
Y946752D01*
X143643Y943462D01*
X144926Y940362D01*
X146790Y937573D01*
X149163Y935200D01*
X151952Y933336D01*
X155052Y932053D01*
X158343Y931398D01*
X161698D01*
X164988Y932053D01*
X168088Y933336D01*
X170877Y935200D01*
X173250Y937573D01*
X175114Y940362D01*
X176397Y943462D01*
X177052Y946752D01*
Y950107D01*
X176397Y953398D01*
X175114Y956498D01*
X173250Y959287D01*
X170877Y961660D01*
X168088Y963524D01*
X164988Y964808D01*
X161698Y965462D01*
D02*
G37*
G36*
X502540Y943730D02*
X471270D01*
Y912460D01*
X472561D01*
X477620Y913261D01*
X482491Y914844D01*
X487055Y917169D01*
X491198Y920180D01*
X494820Y923802D01*
X497831Y927945D01*
X500156Y932509D01*
X501739Y937380D01*
X502540Y942439D01*
Y943730D01*
D02*
G37*
G36*
X468730D02*
X437460D01*
Y942439D01*
X438261Y937380D01*
X439844Y932509D01*
X442169Y927945D01*
X445180Y923802D01*
X448802Y920180D01*
X452945Y917169D01*
X457509Y914844D01*
X462380Y913261D01*
X467439Y912460D01*
X468730D01*
Y943730D01*
D02*
G37*
G36*
X92540D02*
X61270D01*
Y912460D01*
X62561D01*
X67620Y913261D01*
X72491Y914844D01*
X77055Y917169D01*
X81198Y920180D01*
X84820Y923802D01*
X87831Y927945D01*
X90156Y932509D01*
X91739Y937380D01*
X92540Y942439D01*
Y943730D01*
D02*
G37*
G36*
X58730D02*
X27460D01*
Y942439D01*
X28261Y937380D01*
X29844Y932509D01*
X32169Y927945D01*
X35180Y923802D01*
X38802Y920180D01*
X42945Y917169D01*
X47509Y914844D01*
X52380Y913261D01*
X57439Y912460D01*
X58730D01*
Y943730D01*
D02*
G37*
G36*
X297555Y919460D02*
X297490D01*
Y910590D01*
X306360D01*
Y910655D01*
X305669Y913234D01*
X304334Y915546D01*
X302446Y917434D01*
X300134Y918769D01*
X297555Y919460D01*
D02*
G37*
G36*
X294950D02*
X294885D01*
X292306Y918769D01*
X289994Y917434D01*
X288106Y915546D01*
X286771Y913234D01*
X286080Y910655D01*
Y910590D01*
X294950D01*
Y919460D01*
D02*
G37*
G36*
X176388Y915620D02*
X176290D01*
Y906500D01*
X185410D01*
Y906598D01*
X184702Y909240D01*
X183334Y911610D01*
X181400Y913544D01*
X179030Y914912D01*
X176388Y915620D01*
D02*
G37*
G36*
X173750D02*
X173652D01*
X171010Y914912D01*
X168640Y913544D01*
X166706Y911610D01*
X165338Y909240D01*
X164630Y906598D01*
Y906500D01*
X173750D01*
Y915620D01*
D02*
G37*
G36*
X267488Y918952D02*
X264952D01*
X262502Y918296D01*
X260306Y917028D01*
X258512Y915234D01*
X257244Y913038D01*
X256588Y910588D01*
Y908052D01*
X257244Y905602D01*
X258512Y903406D01*
X260306Y901612D01*
X262502Y900344D01*
X264952Y899688D01*
X267488D01*
X269938Y900344D01*
X272134Y901612D01*
X273927Y903406D01*
X275196Y905602D01*
X275852Y908052D01*
Y910588D01*
X275196Y913038D01*
X273927Y915234D01*
X272134Y917028D01*
X269938Y918296D01*
X267488Y918952D01*
D02*
G37*
G36*
X245852D02*
X226588D01*
Y899688D01*
X245852D01*
Y918952D01*
D02*
G37*
G36*
X306360Y908050D02*
X297490D01*
Y899180D01*
X297555D01*
X300134Y899871D01*
X302446Y901206D01*
X304334Y903094D01*
X305669Y905406D01*
X306360Y907985D01*
Y908050D01*
D02*
G37*
G36*
X294950D02*
X286080D01*
Y907985D01*
X286771Y905406D01*
X288106Y903094D01*
X289994Y901206D01*
X292306Y899871D01*
X294885Y899180D01*
X294950D01*
Y908050D01*
D02*
G37*
G36*
X154902Y915112D02*
X135138D01*
Y912089D01*
X74930D01*
X72898Y911685D01*
X71176Y910534D01*
X71176Y910534D01*
X48316Y887674D01*
X48240Y887560D01*
X47592Y886912D01*
X47242Y886066D01*
X47165Y885952D01*
X47138Y885817D01*
X46788Y884971D01*
Y884055D01*
X46761Y883920D01*
X46788Y883785D01*
Y882869D01*
X47138Y882023D01*
X47165Y881888D01*
X47242Y881774D01*
X47592Y880928D01*
X48240Y880280D01*
X48316Y880166D01*
X48430Y880090D01*
X49078Y879442D01*
X49924Y879091D01*
X50038Y879015D01*
X50173Y878988D01*
X51019Y878638D01*
X51935D01*
X52070Y878611D01*
X52205Y878638D01*
X53121D01*
X53967Y878988D01*
X54102Y879015D01*
X54216Y879091D01*
X55062Y879442D01*
X55710Y880090D01*
X55824Y880166D01*
X77129Y901471D01*
X135138D01*
Y895348D01*
X154902D01*
Y915112D01*
D02*
G37*
G36*
X185410Y903960D02*
X176290D01*
Y894840D01*
X176388D01*
X179030Y895548D01*
X181400Y896916D01*
X183334Y898850D01*
X184702Y901220D01*
X185410Y903862D01*
Y903960D01*
D02*
G37*
G36*
X173750D02*
X164630D01*
Y903862D01*
X165338Y901220D01*
X166706Y898850D01*
X168640Y896916D01*
X171010Y895548D01*
X173652Y894840D01*
X173750D01*
Y903960D01*
D02*
G37*
G36*
X297555Y889460D02*
X297490D01*
Y880590D01*
X306360D01*
Y880655D01*
X305669Y883234D01*
X304334Y885546D01*
X302446Y887434D01*
X300134Y888769D01*
X297555Y889460D01*
D02*
G37*
G36*
X294950D02*
X294885D01*
X292306Y888769D01*
X289994Y887434D01*
X288106Y885546D01*
X286771Y883234D01*
X286080Y880655D01*
Y880590D01*
X294950D01*
Y889460D01*
D02*
G37*
G36*
X146388Y885620D02*
X146290D01*
Y876500D01*
X155410D01*
Y876598D01*
X154702Y879240D01*
X153334Y881610D01*
X151400Y883544D01*
X149030Y884912D01*
X146388Y885620D01*
D02*
G37*
G36*
X176388D02*
X176290D01*
Y876500D01*
X185410D01*
Y876598D01*
X184702Y879240D01*
X183334Y881610D01*
X181400Y883544D01*
X179030Y884912D01*
X176388Y885620D01*
D02*
G37*
G36*
X143750D02*
X143652D01*
X141010Y884912D01*
X138640Y883544D01*
X136706Y881610D01*
X135338Y879240D01*
X134630Y876598D01*
Y876500D01*
X143750D01*
Y885620D01*
D02*
G37*
G36*
X173750D02*
X173652D01*
X171010Y884912D01*
X168640Y883544D01*
X166706Y881610D01*
X165338Y879240D01*
X164630Y876598D01*
Y876500D01*
X173750D01*
Y885620D01*
D02*
G37*
G36*
X306360Y878050D02*
X297490D01*
Y869180D01*
X297555D01*
X300134Y869871D01*
X302446Y871206D01*
X304334Y873094D01*
X305669Y875406D01*
X306360Y877985D01*
Y878050D01*
D02*
G37*
G36*
X294950D02*
X286080D01*
Y877985D01*
X286771Y875406D01*
X288106Y873094D01*
X289994Y871206D01*
X292306Y869871D01*
X294885Y869180D01*
X294950D01*
Y878050D01*
D02*
G37*
G36*
X267488Y888952D02*
X264952D01*
X262502Y888296D01*
X260306Y887028D01*
X258512Y885234D01*
X257244Y883038D01*
X256588Y880588D01*
Y878052D01*
X257244Y875602D01*
X258512Y873406D01*
X259349Y872570D01*
X259547Y869895D01*
X242908Y853256D01*
X149860D01*
X148472Y852980D01*
X147296Y852194D01*
X147296Y852194D01*
X133326Y838224D01*
X132540Y837048D01*
X132264Y835660D01*
X132264Y835660D01*
Y787400D01*
X132264Y787400D01*
X132540Y786013D01*
X133326Y784836D01*
X163806Y754356D01*
X163806Y754356D01*
X164983Y753570D01*
X166370Y753294D01*
X166370Y753294D01*
X181378D01*
X200844Y733828D01*
Y632871D01*
X199946Y632071D01*
X197936Y633003D01*
Y728980D01*
X197660Y730368D01*
X196874Y731544D01*
X196874Y731544D01*
X180364Y748054D01*
X179188Y748840D01*
X177800Y749116D01*
X177800Y749116D01*
X164062D01*
X129356Y783822D01*
Y840508D01*
X145012Y856164D01*
X224790D01*
X224790Y856164D01*
X226178Y856440D01*
X227354Y857226D01*
X241201Y871074D01*
X242134Y871612D01*
X243927Y873406D01*
X245196Y875602D01*
X245852Y878052D01*
Y880588D01*
X245196Y883038D01*
X243927Y885234D01*
X242134Y887028D01*
X239938Y888296D01*
X237488Y888952D01*
X234952D01*
X232502Y888296D01*
X230306Y887028D01*
X228512Y885234D01*
X227244Y883038D01*
X226588Y880588D01*
Y878052D01*
X227244Y875602D01*
X228512Y873406D01*
X229459Y872460D01*
X229703Y869830D01*
X223288Y863416D01*
X178923D01*
X178656Y865448D01*
X179030Y865548D01*
X181400Y866916D01*
X183334Y868850D01*
X184702Y871220D01*
X185410Y873862D01*
Y873960D01*
X175020D01*
X164630D01*
Y873862D01*
X165338Y871220D01*
X166706Y868850D01*
X168640Y866916D01*
X171010Y865548D01*
X171384Y865448D01*
X171117Y863416D01*
X148923D01*
X148656Y865448D01*
X149030Y865548D01*
X151400Y866916D01*
X153334Y868850D01*
X154702Y871220D01*
X155410Y873862D01*
Y873960D01*
X145020D01*
X134630D01*
Y873862D01*
X135338Y871220D01*
X136706Y868850D01*
X138640Y866916D01*
X141010Y865548D01*
X142205Y865228D01*
X142136Y863142D01*
X142122Y863140D01*
X140946Y862354D01*
X140946Y862354D01*
X123166Y844574D01*
X122380Y843398D01*
X122104Y842010D01*
X122104Y842010D01*
Y782320D01*
X122104Y782320D01*
X122380Y780933D01*
X123166Y779756D01*
X159996Y742926D01*
X159996Y742926D01*
X161173Y742140D01*
X161416Y742092D01*
X161215Y740060D01*
X158230D01*
Y732790D01*
X175310D01*
Y739832D01*
X175310Y739979D01*
X176804Y741358D01*
X190684Y727478D01*
Y697735D01*
X190372Y695832D01*
X188652Y695832D01*
X170308D01*
Y675768D01*
X174077D01*
Y629128D01*
X173788Y628431D01*
Y627556D01*
X173761Y627421D01*
X173761Y627421D01*
Y627380D01*
X173788Y627245D01*
Y626329D01*
X174138Y625483D01*
X174165Y625348D01*
X174242Y625234D01*
X174592Y624388D01*
X175240Y623740D01*
X175316Y623626D01*
X175430Y623550D01*
X176078Y622902D01*
X176924Y622551D01*
X177038Y622475D01*
X177173Y622448D01*
X178019Y622098D01*
X178935D01*
X179070Y622071D01*
X179205Y622098D01*
X180121D01*
X180967Y622448D01*
X181102Y622475D01*
X181216Y622551D01*
X182062Y622902D01*
X182710Y623550D01*
X182824Y623626D01*
X182900Y623740D01*
X183548Y624388D01*
X183772Y624929D01*
X184291Y625705D01*
X184599Y627254D01*
X184844Y627299D01*
X186658Y627189D01*
X187292Y625658D01*
X188778Y624172D01*
X190719Y623368D01*
X192821D01*
X194762Y624172D01*
X196248Y625658D01*
X197052Y627599D01*
Y628230D01*
X197123Y628348D01*
X197156Y628366D01*
X198407Y627894D01*
X199334Y627247D01*
X199992Y625658D01*
X201478Y624172D01*
X203419Y623368D01*
X205521D01*
X207462Y624172D01*
X208948Y625658D01*
X209752Y627599D01*
Y629701D01*
X208948Y631642D01*
X208096Y632495D01*
Y726416D01*
X210128Y726961D01*
X210343Y726588D01*
X211838Y725093D01*
X213670Y724035D01*
X215713Y723488D01*
X217827D01*
X219870Y724035D01*
X221702Y725093D01*
X223197Y726588D01*
X224255Y728420D01*
X224802Y730463D01*
Y732577D01*
X224255Y734620D01*
X223197Y736452D01*
X221702Y737947D01*
X219870Y739005D01*
X217827Y739552D01*
X215713D01*
X213670Y739005D01*
X211838Y737947D01*
X210343Y736452D01*
X210047Y735938D01*
X207904Y736292D01*
X207820Y736718D01*
X207034Y737894D01*
X207034Y737894D01*
X185444Y759484D01*
X184268Y760270D01*
X182880Y760546D01*
X182880Y760546D01*
X167872D01*
X139516Y788902D01*
Y790976D01*
X140633Y791597D01*
X141548Y791926D01*
X143580Y791084D01*
X145980D01*
X148197Y792002D01*
X149685Y793490D01*
X169736D01*
X169736Y793490D01*
X171124Y793766D01*
X172300Y794552D01*
X187805Y810058D01*
X189011D01*
X190952Y810862D01*
X192438Y812348D01*
X193242Y814289D01*
Y816391D01*
X192438Y818332D01*
X190952Y819818D01*
X189011Y820622D01*
X186909D01*
X184968Y819818D01*
X183482Y818332D01*
X182678Y816391D01*
Y815185D01*
X168234Y800742D01*
X149685D01*
X148197Y802230D01*
X145980Y803148D01*
X143580D01*
X141548Y802306D01*
X140633Y802635D01*
X139516Y803256D01*
Y834158D01*
X151362Y846004D01*
X241321D01*
X241408Y845866D01*
X241944Y843972D01*
X240721Y842750D01*
X239889Y840740D01*
X251371D01*
X250539Y842750D01*
X248910Y844379D01*
X247489Y844967D01*
X247069Y846679D01*
X247052Y847006D01*
X247077Y847170D01*
X270681Y870774D01*
X272134Y871612D01*
X273927Y873406D01*
X275196Y875602D01*
X275852Y878052D01*
Y880588D01*
X275196Y883038D01*
X273927Y885234D01*
X272134Y887028D01*
X269938Y888296D01*
X267488Y888952D01*
D02*
G37*
G36*
X24130Y841401D02*
Y836930D01*
X28601D01*
X27769Y838940D01*
X26140Y840569D01*
X24130Y841401D01*
D02*
G37*
G36*
X21590D02*
X19580Y840569D01*
X17951Y838940D01*
X17119Y836930D01*
X21590D01*
Y841401D01*
D02*
G37*
G36*
X251371Y838200D02*
X246900D01*
Y833729D01*
X248910Y834561D01*
X250539Y836190D01*
X251371Y838200D01*
D02*
G37*
G36*
X244360D02*
X239889D01*
X240721Y836190D01*
X242350Y834561D01*
X244360Y833729D01*
Y838200D01*
D02*
G37*
G36*
X28601Y834390D02*
X24130D01*
Y829919D01*
X26140Y830751D01*
X27769Y832380D01*
X28601Y834390D01*
D02*
G37*
G36*
X21590D02*
X17119D01*
X17951Y832380D01*
X19580Y830751D01*
X21590Y829919D01*
Y834390D01*
D02*
G37*
G36*
X101600Y794411D02*
Y789940D01*
X106071D01*
X105239Y791950D01*
X103610Y793579D01*
X101600Y794411D01*
D02*
G37*
G36*
X99060D02*
X97050Y793579D01*
X95421Y791950D01*
X94589Y789940D01*
X99060D01*
Y794411D01*
D02*
G37*
G36*
X106071Y787400D02*
X101600D01*
Y782929D01*
X103610Y783761D01*
X105239Y785390D01*
X106071Y787400D01*
D02*
G37*
G36*
X87630Y787629D02*
X87495Y787602D01*
X86579D01*
X85733Y787252D01*
X85598Y787225D01*
X85484Y787149D01*
X84638Y786798D01*
X83990Y786150D01*
X83876Y786074D01*
X83800Y785960D01*
X83152Y785312D01*
X82802Y784466D01*
X82725Y784352D01*
X82698Y784217D01*
X82348Y783371D01*
Y782455D01*
X82321Y782320D01*
X82348Y782185D01*
Y781269D01*
X82698Y780423D01*
X82725Y780288D01*
X82802Y780174D01*
X83152Y779328D01*
X83800Y778680D01*
X83876Y778566D01*
X83905Y778537D01*
X84019Y778461D01*
X84638Y777842D01*
X85446Y777507D01*
X85627Y777386D01*
X85840Y777344D01*
X86419Y777104D01*
X132932Y730591D01*
X134655Y729440D01*
X135391Y729294D01*
X135625Y728420D01*
X136683Y726588D01*
X138178Y725093D01*
X140010Y724035D01*
X142053Y723488D01*
X144167D01*
X146210Y724035D01*
X148042Y725093D01*
X149537Y726588D01*
X150595Y728420D01*
X151142Y730463D01*
Y732577D01*
X150595Y734620D01*
X149537Y736452D01*
X148042Y737947D01*
X146210Y739005D01*
X144167Y739552D01*
X142053D01*
X140827Y739224D01*
X140788Y739250D01*
X138918Y739622D01*
X96926Y781613D01*
X98077Y783336D01*
X99060Y782929D01*
Y787400D01*
X94589D01*
X94996Y786417D01*
X93273Y785266D01*
X92494Y786045D01*
X90772Y787196D01*
X88740Y787600D01*
X88740Y787600D01*
X88685D01*
X88681Y787602D01*
X87765D01*
X87630Y787629D01*
D02*
G37*
G36*
X216951Y772362D02*
X214849D01*
X212908Y771558D01*
X211422Y770072D01*
X210618Y768131D01*
Y766029D01*
X211422Y764088D01*
X212908Y762602D01*
X214849Y761798D01*
X216951D01*
X218892Y762602D01*
X220378Y764088D01*
X221182Y766029D01*
Y768131D01*
X220378Y770072D01*
X218892Y771558D01*
X216951Y772362D01*
D02*
G37*
G36*
X101650Y740060D02*
X94380D01*
Y732790D01*
X101650D01*
Y740060D01*
D02*
G37*
G36*
X91840D02*
X84570D01*
Y732790D01*
X91840D01*
Y740060D01*
D02*
G37*
G36*
X245294Y751132D02*
X242706D01*
X240205Y750462D01*
X237963Y749167D01*
X236132Y747337D01*
X234838Y745095D01*
X234168Y742594D01*
Y740006D01*
X234838Y737505D01*
X236132Y735263D01*
X237963Y733432D01*
X240205Y732138D01*
X242706Y731468D01*
X245294D01*
X247795Y732138D01*
X250037Y733432D01*
X251868Y735263D01*
X253162Y737505D01*
X253832Y740006D01*
Y742594D01*
X253162Y745095D01*
X251868Y747337D01*
X250037Y749167D01*
X247795Y750462D01*
X245294Y751132D01*
D02*
G37*
G36*
X75832D02*
X56168D01*
Y731468D01*
X75832D01*
Y751132D01*
D02*
G37*
G36*
X17321Y751332D02*
X14679D01*
X12128Y750648D01*
X9840Y749328D01*
X7972Y747460D01*
X6652Y745172D01*
X5968Y742621D01*
Y739979D01*
X6652Y737428D01*
X7972Y735140D01*
X9840Y733272D01*
X12128Y731952D01*
X14679Y731268D01*
X17321D01*
X19872Y731952D01*
X22160Y733272D01*
X24028Y735140D01*
X25348Y737428D01*
X26032Y739979D01*
Y742621D01*
X25348Y745172D01*
X24028Y747460D01*
X22160Y749328D01*
X19872Y750648D01*
X17321Y751332D01*
D02*
G37*
G36*
X175310Y730250D02*
X168040D01*
Y722980D01*
X175310D01*
Y730250D01*
D02*
G37*
G36*
X165500D02*
X158230D01*
Y722980D01*
X165500D01*
Y730250D01*
D02*
G37*
G36*
X101650D02*
X94380D01*
Y722980D01*
X101650D01*
Y730250D01*
D02*
G37*
G36*
X91840D02*
X84570D01*
Y722980D01*
X91840D01*
Y730250D01*
D02*
G37*
G36*
X17388Y726440D02*
X17270D01*
Y717170D01*
X26540D01*
Y717288D01*
X25822Y719968D01*
X24434Y722372D01*
X22472Y724334D01*
X20068Y725722D01*
X17388Y726440D01*
D02*
G37*
G36*
X14730D02*
X14612D01*
X11932Y725722D01*
X9528Y724334D01*
X7566Y722372D01*
X6178Y719968D01*
X5460Y717288D01*
Y717170D01*
X14730D01*
Y726440D01*
D02*
G37*
G36*
X41910Y714401D02*
Y709930D01*
X46381D01*
X45549Y711940D01*
X43920Y713569D01*
X41910Y714401D01*
D02*
G37*
G36*
X39370D02*
X37360Y713569D01*
X35731Y711940D01*
X34899Y709930D01*
X39370D01*
Y714401D01*
D02*
G37*
G36*
X245294Y725732D02*
X242706D01*
X240205Y725062D01*
X237963Y723767D01*
X236132Y721937D01*
X234838Y719695D01*
X234168Y717194D01*
Y714606D01*
X234838Y712105D01*
X236132Y709863D01*
X237963Y708032D01*
X240205Y706738D01*
X242706Y706068D01*
X245294D01*
X247795Y706738D01*
X250037Y708032D01*
X251868Y709863D01*
X253162Y712105D01*
X253832Y714606D01*
Y717194D01*
X253162Y719695D01*
X251868Y721937D01*
X250037Y723767D01*
X247795Y725062D01*
X245294Y725732D01*
D02*
G37*
G36*
X67294D02*
X64706D01*
X62205Y725062D01*
X59963Y723767D01*
X58132Y721937D01*
X56838Y719695D01*
X56168Y717194D01*
Y714606D01*
X56838Y712105D01*
X58132Y709863D01*
X59963Y708032D01*
X62205Y706738D01*
X64706Y706068D01*
X67294D01*
X69795Y706738D01*
X72037Y708032D01*
X73868Y709863D01*
X75162Y712105D01*
X75832Y714606D01*
Y717194D01*
X75162Y719695D01*
X73868Y721937D01*
X72037Y723767D01*
X69795Y725062D01*
X67294Y725732D01*
D02*
G37*
G36*
X26540Y714630D02*
X17270D01*
Y705360D01*
X17388D01*
X20068Y706078D01*
X22472Y707466D01*
X24434Y709428D01*
X25822Y711832D01*
X26540Y714512D01*
Y714630D01*
D02*
G37*
G36*
X14730D02*
X5460D01*
Y714512D01*
X6178Y711832D01*
X7566Y709428D01*
X9528Y707466D01*
X11932Y706078D01*
X14612Y705360D01*
X14730D01*
Y714630D01*
D02*
G37*
G36*
X46381Y707390D02*
X41910D01*
Y702919D01*
X43920Y703751D01*
X45549Y705380D01*
X46381Y707390D01*
D02*
G37*
G36*
X39370D02*
X34899D01*
X35731Y705380D01*
X37360Y703751D01*
X39370Y702919D01*
Y707390D01*
D02*
G37*
G36*
X245361Y700840D02*
X245270D01*
Y691770D01*
X254340D01*
Y691861D01*
X253635Y694491D01*
X252274Y696849D01*
X250349Y698774D01*
X247991Y700135D01*
X245361Y700840D01*
D02*
G37*
G36*
X67361D02*
X67270D01*
Y691770D01*
X76340D01*
Y691861D01*
X75635Y694491D01*
X74274Y696849D01*
X72349Y698774D01*
X69991Y700135D01*
X67361Y700840D01*
D02*
G37*
G36*
X64730D02*
X64639D01*
X62009Y700135D01*
X59651Y698774D01*
X57726Y696849D01*
X56365Y694491D01*
X55660Y691861D01*
Y691770D01*
X64730D01*
Y700840D01*
D02*
G37*
G36*
X242730D02*
X242639D01*
X240009Y700135D01*
X237651Y698774D01*
X235726Y696849D01*
X234365Y694491D01*
X233660Y691861D01*
Y691770D01*
X242730D01*
Y700840D01*
D02*
G37*
G36*
X156328Y696340D02*
X156210D01*
Y687070D01*
X165480D01*
Y687188D01*
X164762Y689868D01*
X163374Y692272D01*
X161412Y694234D01*
X159008Y695622D01*
X156328Y696340D01*
D02*
G37*
G36*
X153670D02*
X153552D01*
X150872Y695622D01*
X148468Y694234D01*
X146506Y692272D01*
X145118Y689868D01*
X144400Y687188D01*
Y687070D01*
X153670D01*
Y696340D01*
D02*
G37*
G36*
X93980Y686461D02*
Y681990D01*
X98451D01*
X97619Y684000D01*
X95990Y685629D01*
X93980Y686461D01*
D02*
G37*
G36*
X91440D02*
X89430Y685629D01*
X87801Y684000D01*
X86969Y681990D01*
X91440D01*
Y686461D01*
D02*
G37*
G36*
X17321Y700532D02*
X14679D01*
X12128Y699848D01*
X9840Y698528D01*
X7972Y696660D01*
X6652Y694372D01*
X5968Y691821D01*
Y689179D01*
X6652Y686628D01*
X7972Y684340D01*
X9840Y682472D01*
X12128Y681152D01*
X14679Y680468D01*
X17321D01*
X19872Y681152D01*
X22160Y682472D01*
X24028Y684340D01*
X25348Y686628D01*
X26032Y689179D01*
Y691821D01*
X25348Y694372D01*
X24028Y696660D01*
X22160Y698528D01*
X19872Y699848D01*
X17321Y700532D01*
D02*
G37*
G36*
X254340Y689230D02*
X245270D01*
Y680160D01*
X245361D01*
X247991Y680865D01*
X250349Y682226D01*
X252274Y684151D01*
X253635Y686509D01*
X254340Y689139D01*
Y689230D01*
D02*
G37*
G36*
X242730D02*
X233660D01*
Y689139D01*
X234365Y686509D01*
X235726Y684151D01*
X237651Y682226D01*
X240009Y680865D01*
X242639Y680160D01*
X242730D01*
Y689230D01*
D02*
G37*
G36*
X76340D02*
X67270D01*
Y680160D01*
X67361D01*
X69991Y680865D01*
X72349Y682226D01*
X74274Y684151D01*
X75635Y686509D01*
X76340Y689139D01*
Y689230D01*
D02*
G37*
G36*
X64730D02*
X55660D01*
Y689139D01*
X56365Y686509D01*
X57726Y684151D01*
X59651Y682226D01*
X62009Y680865D01*
X64639Y680160D01*
X64730D01*
Y689230D01*
D02*
G37*
G36*
X130861Y695832D02*
X128219D01*
X125668Y695148D01*
X123380Y693828D01*
X121512Y691960D01*
X120192Y689672D01*
X119508Y687121D01*
Y684479D01*
X120192Y681928D01*
X121512Y679640D01*
X123380Y677772D01*
X125668Y676452D01*
X128219Y675768D01*
X130861D01*
X133412Y676452D01*
X135700Y677772D01*
X137568Y679640D01*
X138888Y681928D01*
X139572Y684479D01*
Y687121D01*
X138888Y689672D01*
X137568Y691960D01*
X135700Y693828D01*
X133412Y695148D01*
X130861Y695832D01*
D02*
G37*
G36*
X165480Y684530D02*
X156210D01*
Y675260D01*
X156328D01*
X159008Y675978D01*
X161412Y677366D01*
X163374Y679328D01*
X164762Y681732D01*
X165480Y684412D01*
Y684530D01*
D02*
G37*
G36*
X153670D02*
X144400D01*
Y684412D01*
X145118Y681732D01*
X146506Y679328D01*
X148468Y677366D01*
X150872Y675978D01*
X153552Y675260D01*
X153670D01*
Y684530D01*
D02*
G37*
G36*
X98451Y679450D02*
X93980D01*
Y674979D01*
X95990Y675811D01*
X97619Y677440D01*
X98451Y679450D01*
D02*
G37*
G36*
X91440D02*
X86969D01*
X87801Y677440D01*
X89430Y675811D01*
X91440Y674979D01*
Y679450D01*
D02*
G37*
G36*
X245294Y674932D02*
X242706D01*
X240205Y674262D01*
X237963Y672968D01*
X236132Y671137D01*
X234838Y668895D01*
X234168Y666394D01*
Y663806D01*
X234838Y661305D01*
X236132Y659063D01*
X237963Y657232D01*
X240205Y655938D01*
X242706Y655268D01*
X245294D01*
X247795Y655938D01*
X250037Y657232D01*
X251868Y659063D01*
X253162Y661305D01*
X253832Y663806D01*
Y666394D01*
X253162Y668895D01*
X251868Y671137D01*
X250037Y672968D01*
X247795Y674262D01*
X245294Y674932D01*
D02*
G37*
G36*
X67294D02*
X64706D01*
X62205Y674262D01*
X59963Y672968D01*
X58132Y671137D01*
X56838Y668895D01*
X56168Y666394D01*
Y663806D01*
X56838Y661305D01*
X58132Y659063D01*
X59963Y657232D01*
X62205Y655938D01*
X64706Y655268D01*
X67294D01*
X69795Y655938D01*
X72037Y657232D01*
X73868Y659063D01*
X75162Y661305D01*
X75832Y663806D01*
Y666394D01*
X75162Y668895D01*
X73868Y671137D01*
X72037Y672968D01*
X69795Y674262D01*
X67294Y674932D01*
D02*
G37*
G36*
X17321Y675132D02*
X14679D01*
X12128Y674448D01*
X9840Y673128D01*
X7972Y671260D01*
X6652Y668972D01*
X5968Y666421D01*
Y663779D01*
X6652Y661228D01*
X7972Y658940D01*
X9840Y657072D01*
X12128Y655752D01*
X14679Y655068D01*
X17321D01*
X19872Y655752D01*
X22160Y657072D01*
X24028Y658940D01*
X25348Y661228D01*
X26032Y663779D01*
Y666421D01*
X25348Y668972D01*
X24028Y671260D01*
X22160Y673128D01*
X19872Y674448D01*
X17321Y675132D01*
D02*
G37*
G36*
X245294Y649532D02*
X242706D01*
X240205Y648862D01*
X237963Y647568D01*
X236132Y645737D01*
X234838Y643495D01*
X234168Y640994D01*
Y638406D01*
X234838Y635905D01*
X236132Y633663D01*
X237963Y631832D01*
X240205Y630538D01*
X242706Y629868D01*
X245294D01*
X247795Y630538D01*
X250037Y631832D01*
X251868Y633663D01*
X253162Y635905D01*
X253832Y638406D01*
Y640994D01*
X253162Y643495D01*
X251868Y645737D01*
X250037Y647568D01*
X247795Y648862D01*
X245294Y649532D01*
D02*
G37*
G36*
X67294D02*
X64706D01*
X62205Y648862D01*
X59963Y647568D01*
X58132Y645737D01*
X56838Y643495D01*
X56168Y640994D01*
Y638406D01*
X56838Y635905D01*
X58132Y633663D01*
X59963Y631832D01*
X62205Y630538D01*
X64706Y629868D01*
X67294D01*
X69795Y630538D01*
X72037Y631832D01*
X73868Y633663D01*
X75162Y635905D01*
X75832Y638406D01*
Y640994D01*
X75162Y643495D01*
X73868Y645737D01*
X72037Y647568D01*
X69795Y648862D01*
X67294Y649532D01*
D02*
G37*
G36*
X17321Y649732D02*
X14679D01*
X12128Y649048D01*
X9840Y647728D01*
X7972Y645860D01*
X6652Y643572D01*
X5968Y641021D01*
Y638379D01*
X6652Y635828D01*
X7972Y633540D01*
X9840Y631672D01*
X12128Y630352D01*
X14679Y629668D01*
X17321D01*
X19872Y630352D01*
X22160Y631672D01*
X24028Y633540D01*
X25348Y635828D01*
X26032Y638379D01*
Y641021D01*
X25348Y643572D01*
X24028Y645860D01*
X22160Y647728D01*
X19872Y649048D01*
X17321Y649732D01*
D02*
G37*
G36*
X165100Y622961D02*
Y618490D01*
X169571D01*
X168739Y620500D01*
X167110Y622129D01*
X165100Y622961D01*
D02*
G37*
G36*
X162560D02*
X160550Y622129D01*
X158921Y620500D01*
X158089Y618490D01*
X162560D01*
Y622961D01*
D02*
G37*
G36*
X144780D02*
Y618490D01*
X149251D01*
X148419Y620500D01*
X146790Y622129D01*
X144780Y622961D01*
D02*
G37*
G36*
X142240D02*
X140230Y622129D01*
X138601Y620500D01*
X137769Y618490D01*
X142240D01*
Y622961D01*
D02*
G37*
G36*
X123190D02*
Y618490D01*
X127661D01*
X126829Y620500D01*
X125200Y622129D01*
X123190Y622961D01*
D02*
G37*
G36*
X120650D02*
X118640Y622129D01*
X117011Y620500D01*
X116179Y618490D01*
X120650D01*
Y622961D01*
D02*
G37*
G36*
X102870D02*
Y618490D01*
X107341D01*
X106509Y620500D01*
X104880Y622129D01*
X102870Y622961D01*
D02*
G37*
G36*
X100330D02*
X98320Y622129D01*
X96691Y620500D01*
X95859Y618490D01*
X100330D01*
Y622961D01*
D02*
G37*
G36*
X169571Y615950D02*
X165100D01*
Y611479D01*
X167110Y612311D01*
X168739Y613940D01*
X169571Y615950D01*
D02*
G37*
G36*
X162560D02*
X158089D01*
X158921Y613940D01*
X160550Y612311D01*
X162560Y611479D01*
Y615950D01*
D02*
G37*
G36*
X149251D02*
X144780D01*
Y611479D01*
X146790Y612311D01*
X148419Y613940D01*
X149251Y615950D01*
D02*
G37*
G36*
X142240D02*
X137769D01*
X138601Y613940D01*
X140230Y612311D01*
X142240Y611479D01*
Y615950D01*
D02*
G37*
G36*
X127661D02*
X123190D01*
Y611479D01*
X125200Y612311D01*
X126829Y613940D01*
X127661Y615950D01*
D02*
G37*
G36*
X120650D02*
X116179D01*
X117011Y613940D01*
X118640Y612311D01*
X120650Y611479D01*
Y615950D01*
D02*
G37*
G36*
X107341D02*
X102870D01*
Y611479D01*
X104880Y612311D01*
X106509Y613940D01*
X107341Y615950D01*
D02*
G37*
G36*
X100330D02*
X95859D01*
X96691Y613940D01*
X98320Y612311D01*
X100330Y611479D01*
Y615950D01*
D02*
G37*
G36*
X245294Y624132D02*
X242706D01*
X240205Y623462D01*
X237963Y622168D01*
X236132Y620337D01*
X234838Y618095D01*
X234168Y615594D01*
Y613006D01*
X234838Y610505D01*
X236132Y608263D01*
X237963Y606432D01*
X240205Y605138D01*
X242706Y604468D01*
X245294D01*
X247795Y605138D01*
X250037Y606432D01*
X251868Y608263D01*
X253162Y610505D01*
X253832Y613006D01*
Y615594D01*
X253162Y618095D01*
X251868Y620337D01*
X250037Y622168D01*
X247795Y623462D01*
X245294Y624132D01*
D02*
G37*
G36*
X67294D02*
X64706D01*
X62205Y623462D01*
X59963Y622168D01*
X58132Y620337D01*
X56838Y618095D01*
X56168Y615594D01*
Y613006D01*
X56838Y610505D01*
X58132Y608263D01*
X59963Y606432D01*
X62205Y605138D01*
X64706Y604468D01*
X67294D01*
X69795Y605138D01*
X72037Y606432D01*
X73868Y608263D01*
X75162Y610505D01*
X75832Y613006D01*
Y615594D01*
X75162Y618095D01*
X73868Y620337D01*
X72037Y622168D01*
X69795Y623462D01*
X67294Y624132D01*
D02*
G37*
G36*
X17321Y624332D02*
X14679D01*
X12128Y623648D01*
X9840Y622328D01*
X7972Y620460D01*
X6652Y618172D01*
X5968Y615621D01*
Y612979D01*
X6652Y610428D01*
X7972Y608140D01*
X9840Y606272D01*
X12128Y604952D01*
X14679Y604268D01*
X17321D01*
X19872Y604952D01*
X22160Y606272D01*
X24028Y608140D01*
X25348Y610428D01*
X26032Y612979D01*
Y615621D01*
X25348Y618172D01*
X24028Y620460D01*
X22160Y622328D01*
X19872Y623648D01*
X17321Y624332D01*
D02*
G37*
G36*
X245294Y598732D02*
X242706D01*
X240205Y598062D01*
X237963Y596768D01*
X236132Y594937D01*
X234838Y592695D01*
X234168Y590194D01*
Y587606D01*
X234838Y585105D01*
X236132Y582863D01*
X237963Y581032D01*
X240205Y579738D01*
X242706Y579068D01*
X245294D01*
X247795Y579738D01*
X250037Y581032D01*
X251868Y582863D01*
X253162Y585105D01*
X253832Y587606D01*
Y590194D01*
X253162Y592695D01*
X251868Y594937D01*
X250037Y596768D01*
X247795Y598062D01*
X245294Y598732D01*
D02*
G37*
G36*
X67294D02*
X64706D01*
X62205Y598062D01*
X59963Y596768D01*
X58132Y594937D01*
X56838Y592695D01*
X56168Y590194D01*
Y587606D01*
X56838Y585105D01*
X58132Y582863D01*
X59963Y581032D01*
X62205Y579738D01*
X64706Y579068D01*
X67294D01*
X69795Y579738D01*
X72037Y581032D01*
X73868Y582863D01*
X75162Y585105D01*
X75832Y587606D01*
Y590194D01*
X75162Y592695D01*
X73868Y594937D01*
X72037Y596768D01*
X69795Y598062D01*
X67294Y598732D01*
D02*
G37*
G36*
X17321Y598932D02*
X14679D01*
X12128Y598248D01*
X9840Y596928D01*
X7972Y595060D01*
X6652Y592772D01*
X5968Y590221D01*
Y587579D01*
X6652Y585028D01*
X7972Y582740D01*
X9840Y580872D01*
X12128Y579552D01*
X14679Y578868D01*
X17321D01*
X19872Y579552D01*
X22160Y580872D01*
X24028Y582740D01*
X25348Y585028D01*
X26032Y587579D01*
Y590221D01*
X25348Y592772D01*
X24028Y595060D01*
X22160Y596928D01*
X19872Y598248D01*
X17321Y598932D01*
D02*
G37*
G36*
X245361Y573840D02*
X245270D01*
Y564770D01*
X254340D01*
Y564861D01*
X253635Y567491D01*
X252274Y569849D01*
X250349Y571774D01*
X247991Y573135D01*
X245361Y573840D01*
D02*
G37*
G36*
X67361D02*
X67270D01*
Y564770D01*
X76340D01*
Y564861D01*
X75635Y567491D01*
X74274Y569849D01*
X72349Y571774D01*
X69991Y573135D01*
X67361Y573840D01*
D02*
G37*
G36*
X64730D02*
X64639D01*
X62009Y573135D01*
X59651Y571774D01*
X57726Y569849D01*
X56365Y567491D01*
X55660Y564861D01*
Y564770D01*
X64730D01*
Y573840D01*
D02*
G37*
G36*
X242730D02*
X242639D01*
X240009Y573135D01*
X237651Y571774D01*
X235726Y569849D01*
X234365Y567491D01*
X233660Y564861D01*
Y564770D01*
X242730D01*
Y573840D01*
D02*
G37*
G36*
X17321Y573532D02*
X14679D01*
X12128Y572848D01*
X9840Y571528D01*
X7972Y569660D01*
X6652Y567372D01*
X5968Y564821D01*
Y562179D01*
X6652Y559628D01*
X7972Y557340D01*
X9840Y555472D01*
X12128Y554152D01*
X14679Y553468D01*
X17321D01*
X19872Y554152D01*
X22160Y555472D01*
X24028Y557340D01*
X25348Y559628D01*
X26032Y562179D01*
Y564821D01*
X25348Y567372D01*
X24028Y569660D01*
X22160Y571528D01*
X19872Y572848D01*
X17321Y573532D01*
D02*
G37*
G36*
X254340Y562230D02*
X245270D01*
Y553160D01*
X245361D01*
X247991Y553865D01*
X250349Y555226D01*
X252274Y557151D01*
X253635Y559509D01*
X254340Y562139D01*
Y562230D01*
D02*
G37*
G36*
X242730D02*
X233660D01*
Y562139D01*
X234365Y559509D01*
X235726Y557151D01*
X237651Y555226D01*
X240009Y553865D01*
X242639Y553160D01*
X242730D01*
Y562230D01*
D02*
G37*
G36*
X76340D02*
X67270D01*
Y553160D01*
X67361D01*
X69991Y553865D01*
X72349Y555226D01*
X74274Y557151D01*
X75635Y559509D01*
X76340Y562139D01*
Y562230D01*
D02*
G37*
G36*
X64730D02*
X55660D01*
Y562139D01*
X56365Y559509D01*
X57726Y557151D01*
X59651Y555226D01*
X62009Y553865D01*
X64639Y553160D01*
X64730D01*
Y562230D01*
D02*
G37*
G36*
X245294Y547932D02*
X242706D01*
X240205Y547262D01*
X237963Y545967D01*
X236132Y544137D01*
X234838Y541895D01*
X234554Y540836D01*
X224790D01*
X224790Y540836D01*
X223403Y540560D01*
X222226Y539774D01*
X222226Y539774D01*
X211858Y529406D01*
X74084D01*
X73242Y531438D01*
X73868Y532063D01*
X75162Y534305D01*
X75832Y536806D01*
Y539394D01*
X75162Y541895D01*
X73868Y544137D01*
X72037Y545967D01*
X69795Y547262D01*
X67294Y547932D01*
X64706D01*
X62205Y547262D01*
X59963Y545967D01*
X58132Y544137D01*
X56838Y541895D01*
X56168Y539394D01*
Y536806D01*
X56838Y534305D01*
X58132Y532063D01*
X58830Y531365D01*
X58834Y531325D01*
X58097Y529225D01*
X57618Y529130D01*
X56442Y528344D01*
X56442Y528344D01*
X22793Y494694D01*
X22160Y495328D01*
X19872Y496648D01*
X17321Y497332D01*
X14679D01*
X12128Y496648D01*
X9840Y495328D01*
X7972Y493460D01*
X6652Y491172D01*
X5968Y488621D01*
Y485979D01*
X6652Y483428D01*
X7972Y481140D01*
X9840Y479272D01*
X12128Y477952D01*
X14679Y477268D01*
X17321D01*
X19872Y477952D01*
X22160Y479272D01*
X24028Y481140D01*
X25348Y483428D01*
X26032Y485979D01*
Y487890D01*
X26669Y488315D01*
X54693Y516339D01*
X56514Y515287D01*
X56168Y513994D01*
Y511406D01*
X56838Y508905D01*
X58132Y506663D01*
X59963Y504832D01*
X62205Y503538D01*
X64706Y502868D01*
X67294D01*
X69795Y503538D01*
X72037Y504832D01*
X73868Y506663D01*
X75162Y508905D01*
X75832Y511406D01*
Y513994D01*
X75162Y516495D01*
X73868Y518737D01*
X72482Y520122D01*
X73057Y521976D01*
X73186Y522154D01*
X213360D01*
X213360Y522154D01*
X214748Y522430D01*
X215924Y523216D01*
X226292Y533584D01*
X235254D01*
X236132Y532063D01*
X237963Y530232D01*
X240205Y528938D01*
X242706Y528268D01*
X245294D01*
X247795Y528938D01*
X250037Y530232D01*
X251868Y532063D01*
X253162Y534305D01*
X253832Y536806D01*
Y539394D01*
X253162Y541895D01*
X251868Y544137D01*
X250037Y545967D01*
X247795Y547262D01*
X245294Y547932D01*
D02*
G37*
G36*
X17321Y548132D02*
X14679D01*
X12128Y547448D01*
X9840Y546128D01*
X7972Y544260D01*
X6652Y541972D01*
X5968Y539421D01*
Y536779D01*
X6652Y534228D01*
X7972Y531940D01*
X9840Y530072D01*
X12128Y528752D01*
X14679Y528068D01*
X17321D01*
X19872Y528752D01*
X22160Y530072D01*
X24028Y531940D01*
X25348Y534228D01*
X26032Y536779D01*
Y539421D01*
X25348Y541972D01*
X24028Y544260D01*
X22160Y546128D01*
X19872Y547448D01*
X17321Y548132D01*
D02*
G37*
G36*
X17388Y523240D02*
X17270D01*
Y513970D01*
X26540D01*
Y514088D01*
X25822Y516768D01*
X24434Y519172D01*
X22472Y521134D01*
X20068Y522522D01*
X17388Y523240D01*
D02*
G37*
G36*
X14730D02*
X14612D01*
X11932Y522522D01*
X9528Y521134D01*
X7566Y519172D01*
X6178Y516768D01*
X5460Y514088D01*
Y513970D01*
X14730D01*
Y523240D01*
D02*
G37*
G36*
X245294Y522532D02*
X242706D01*
X240205Y521862D01*
X237963Y520568D01*
X236132Y518737D01*
X234838Y516495D01*
X234168Y513994D01*
Y511406D01*
X234838Y508905D01*
X236132Y506663D01*
X237963Y504832D01*
X240205Y503538D01*
X242706Y502868D01*
X245294D01*
X247795Y503538D01*
X250037Y504832D01*
X251868Y506663D01*
X253162Y508905D01*
X253832Y511406D01*
Y513994D01*
X253162Y516495D01*
X251868Y518737D01*
X250037Y520568D01*
X247795Y521862D01*
X245294Y522532D01*
D02*
G37*
G36*
X26540Y511430D02*
X17270D01*
Y502160D01*
X17388D01*
X20068Y502878D01*
X22472Y504266D01*
X24434Y506228D01*
X25822Y508632D01*
X26540Y511312D01*
Y511430D01*
D02*
G37*
G36*
X14730D02*
X5460D01*
Y511312D01*
X6178Y508632D01*
X7566Y506228D01*
X9528Y504266D01*
X11932Y502878D01*
X14612Y502160D01*
X14730D01*
Y511430D01*
D02*
G37*
G36*
X245294Y497132D02*
X242706D01*
X240205Y496462D01*
X237963Y495168D01*
X236132Y493337D01*
X234838Y491095D01*
X234168Y488594D01*
Y486006D01*
X234838Y483505D01*
X236132Y481263D01*
X237963Y479432D01*
X240205Y478138D01*
X242706Y477468D01*
X245294D01*
X247795Y478138D01*
X250037Y479432D01*
X251868Y481263D01*
X253162Y483505D01*
X253832Y486006D01*
Y488594D01*
X253162Y491095D01*
X251868Y493337D01*
X250037Y495168D01*
X247795Y496462D01*
X245294Y497132D01*
D02*
G37*
G36*
Y471732D02*
X242706D01*
X240205Y471062D01*
X237963Y469767D01*
X236132Y467937D01*
X234838Y465695D01*
X234168Y463194D01*
Y460606D01*
X234838Y458105D01*
X236132Y455863D01*
X237963Y454032D01*
X240205Y452738D01*
X242706Y452068D01*
X245294D01*
X247795Y452738D01*
X250037Y454032D01*
X251868Y455863D01*
X253162Y458105D01*
X253832Y460606D01*
Y463194D01*
X253162Y465695D01*
X251868Y467937D01*
X250037Y469767D01*
X247795Y471062D01*
X245294Y471732D01*
D02*
G37*
G36*
X67294D02*
X64706D01*
X62205Y471062D01*
X59963Y469767D01*
X58132Y467937D01*
X56838Y465695D01*
X56168Y463194D01*
Y460606D01*
X56280Y460187D01*
X26293Y430201D01*
X24667Y431449D01*
X25348Y432628D01*
X26032Y435179D01*
Y437821D01*
X25348Y440372D01*
X24028Y442660D01*
X22160Y444528D01*
X19872Y445848D01*
X17321Y446532D01*
X14679D01*
X12128Y445848D01*
X9840Y444528D01*
X7972Y442660D01*
X6652Y440372D01*
X5968Y437821D01*
Y435179D01*
X6652Y432628D01*
X7972Y430340D01*
X9840Y428472D01*
X12128Y427152D01*
X14679Y426468D01*
X17321D01*
X19872Y427152D01*
X21051Y427832D01*
X22299Y426206D01*
X17438Y421345D01*
X17295Y421132D01*
X14679D01*
X12128Y420448D01*
X9840Y419128D01*
X7972Y417260D01*
X6652Y414972D01*
X5968Y412421D01*
Y409779D01*
X6652Y407228D01*
X7972Y404940D01*
X9840Y403072D01*
X12128Y401752D01*
X14679Y401068D01*
X17321D01*
X19872Y401752D01*
X22160Y403072D01*
X24028Y404940D01*
X25348Y407228D01*
X26032Y409779D01*
Y412421D01*
X25348Y414972D01*
X24028Y417260D01*
X23817Y417470D01*
X60227Y453880D01*
X62205Y452738D01*
X64706Y452068D01*
X67294D01*
X69795Y452738D01*
X72037Y454032D01*
X73868Y455863D01*
X75162Y458105D01*
X75832Y460606D01*
Y463194D01*
X75162Y465695D01*
X73868Y467937D01*
X72037Y469767D01*
X69795Y471062D01*
X67294Y471732D01*
D02*
G37*
G36*
X17321Y471932D02*
X14679D01*
X12128Y471248D01*
X9840Y469928D01*
X7972Y468060D01*
X6652Y465772D01*
X5968Y463221D01*
Y460579D01*
X6652Y458028D01*
X7972Y455740D01*
X9840Y453872D01*
X12128Y452552D01*
X14679Y451868D01*
X17321D01*
X19872Y452552D01*
X22160Y453872D01*
X24028Y455740D01*
X25348Y458028D01*
X26032Y460579D01*
Y463221D01*
X25348Y465772D01*
X24028Y468060D01*
X22160Y469928D01*
X19872Y471248D01*
X17321Y471932D01*
D02*
G37*
G36*
X245361Y446840D02*
X245270D01*
Y437770D01*
X254340D01*
Y437861D01*
X253635Y440491D01*
X252274Y442849D01*
X250349Y444774D01*
X247991Y446135D01*
X245361Y446840D01*
D02*
G37*
G36*
X67361D02*
X67270D01*
Y437770D01*
X76340D01*
Y437861D01*
X75635Y440491D01*
X74274Y442849D01*
X72349Y444774D01*
X69991Y446135D01*
X67361Y446840D01*
D02*
G37*
G36*
X64730D02*
X64639D01*
X62009Y446135D01*
X59651Y444774D01*
X57726Y442849D01*
X56365Y440491D01*
X55660Y437861D01*
Y437770D01*
X64730D01*
Y446840D01*
D02*
G37*
G36*
X242730D02*
X242639D01*
X240009Y446135D01*
X237651Y444774D01*
X235726Y442849D01*
X234365Y440491D01*
X233660Y437861D01*
Y437770D01*
X242730D01*
Y446840D01*
D02*
G37*
G36*
X104140Y440081D02*
Y435610D01*
X108611D01*
X107779Y437620D01*
X106150Y439249D01*
X104140Y440081D01*
D02*
G37*
G36*
X101600D02*
X99590Y439249D01*
X97961Y437620D01*
X97129Y435610D01*
X101600D01*
Y440081D01*
D02*
G37*
G36*
X108611Y433070D02*
X104140D01*
Y428599D01*
X106150Y429431D01*
X107779Y431060D01*
X108611Y433070D01*
D02*
G37*
G36*
X101600D02*
X97129D01*
X97961Y431060D01*
X99590Y429431D01*
X101600Y428599D01*
Y433070D01*
D02*
G37*
G36*
X254340Y435230D02*
X245270D01*
Y426160D01*
X245361D01*
X247991Y426865D01*
X250349Y428226D01*
X252274Y430151D01*
X253635Y432509D01*
X254340Y435139D01*
Y435230D01*
D02*
G37*
G36*
X242730D02*
X233660D01*
Y435139D01*
X234365Y432509D01*
X235726Y430151D01*
X237651Y428226D01*
X240009Y426865D01*
X242639Y426160D01*
X242730D01*
Y435230D01*
D02*
G37*
G36*
X76340D02*
X67270D01*
Y426160D01*
X67361D01*
X69991Y426865D01*
X72349Y428226D01*
X74274Y430151D01*
X75635Y432509D01*
X76340Y435139D01*
Y435230D01*
D02*
G37*
G36*
X64730D02*
X55660D01*
Y435139D01*
X56365Y432509D01*
X57726Y430151D01*
X59651Y428226D01*
X62009Y426865D01*
X64639Y426160D01*
X64730D01*
Y435230D01*
D02*
G37*
G36*
X128051Y420572D02*
X125949D01*
X124008Y419768D01*
X122522Y418282D01*
X121718Y416341D01*
Y414239D01*
X122522Y412298D01*
X124008Y410812D01*
X125949Y410008D01*
X128051D01*
X129992Y410812D01*
X131478Y412298D01*
X132282Y414239D01*
Y416341D01*
X131478Y418282D01*
X129992Y419768D01*
X128051Y420572D01*
D02*
G37*
G36*
X67294Y497132D02*
X64706D01*
X62205Y496462D01*
X59963Y495168D01*
X58132Y493337D01*
X56838Y491095D01*
X56168Y488594D01*
Y486006D01*
X56838Y483505D01*
X58132Y481263D01*
X59963Y479432D01*
X62205Y478138D01*
X64706Y477468D01*
X67294D01*
X69795Y478138D01*
X69947Y478226D01*
X80194Y467978D01*
Y407902D01*
X75439Y403147D01*
X74927Y403248D01*
X74477Y404019D01*
X74110Y405483D01*
X75162Y407305D01*
X75832Y409806D01*
Y412394D01*
X75162Y414895D01*
X73868Y417137D01*
X72037Y418968D01*
X69795Y420262D01*
X67294Y420932D01*
X64706D01*
X62205Y420262D01*
X59963Y418968D01*
X58132Y417137D01*
X56838Y414895D01*
X56168Y412394D01*
Y409806D01*
X56838Y407305D01*
X58132Y405063D01*
X59138Y404058D01*
X58296Y402026D01*
X51690D01*
X51690Y402026D01*
X50303Y401750D01*
X49126Y400964D01*
X49126Y400964D01*
X37488Y389326D01*
X25414D01*
X25348Y389572D01*
X24028Y391860D01*
X22160Y393728D01*
X19872Y395048D01*
X17321Y395732D01*
X14679D01*
X12128Y395048D01*
X9840Y393728D01*
X7972Y391860D01*
X6652Y389572D01*
X5968Y387021D01*
Y384379D01*
X6652Y381828D01*
X7972Y379540D01*
X9840Y377672D01*
X12128Y376352D01*
X14679Y375668D01*
X17321D01*
X19872Y376352D01*
X22160Y377672D01*
X24028Y379540D01*
X25348Y381828D01*
X25414Y382074D01*
X38990D01*
X38990Y382074D01*
X40377Y382350D01*
X41554Y383136D01*
X53192Y394774D01*
X58296D01*
X59138Y392742D01*
X58132Y391737D01*
X56838Y389495D01*
X56168Y386994D01*
Y384406D01*
X56838Y381905D01*
X58132Y379663D01*
X58758Y379038D01*
X57916Y377006D01*
X56297D01*
X54910Y376730D01*
X53734Y375944D01*
X53734Y375944D01*
X41716Y363926D01*
X25414D01*
X25348Y364172D01*
X24028Y366460D01*
X22160Y368328D01*
X19872Y369648D01*
X17321Y370332D01*
X14679D01*
X12128Y369648D01*
X9840Y368328D01*
X7972Y366460D01*
X6652Y364172D01*
X5968Y361621D01*
Y358979D01*
X6652Y356428D01*
X7972Y354140D01*
X9840Y352272D01*
X12128Y350952D01*
X14679Y350268D01*
X17321D01*
X19872Y350952D01*
X22160Y352272D01*
X24028Y354140D01*
X25348Y356428D01*
X25414Y356674D01*
X43217D01*
X43217Y356674D01*
X44605Y356950D01*
X45781Y357736D01*
X57007Y368962D01*
X57723Y368802D01*
X58371Y366575D01*
X58132Y366337D01*
X56838Y364095D01*
X56168Y361594D01*
Y359006D01*
X56838Y356505D01*
X58132Y354263D01*
X59963Y352432D01*
X62205Y351138D01*
X64706Y350468D01*
X67294D01*
X69795Y351138D01*
X72037Y352432D01*
X73868Y354263D01*
X75162Y356505D01*
X75832Y359006D01*
Y361594D01*
X75162Y364095D01*
X73868Y366337D01*
X72482Y367722D01*
X73057Y369576D01*
X73186Y369754D01*
X106680D01*
X106680Y369754D01*
X108068Y370030D01*
X109244Y370816D01*
X116685Y378258D01*
X117891D01*
X119832Y379062D01*
X121318Y380548D01*
X122122Y382489D01*
Y384591D01*
X121318Y386532D01*
X119832Y388018D01*
X117891Y388822D01*
X115789D01*
X113848Y388018D01*
X112362Y386532D01*
X111558Y384591D01*
Y383385D01*
X105178Y377006D01*
X74084D01*
X73242Y379038D01*
X73868Y379663D01*
X75162Y381905D01*
X75832Y384406D01*
Y386994D01*
X75162Y389495D01*
X73868Y391737D01*
X72862Y392742D01*
X73704Y394774D01*
X75820D01*
X75820Y394774D01*
X77207Y395050D01*
X78384Y395836D01*
X86384Y403836D01*
X86384Y403836D01*
X87170Y405013D01*
X87446Y406400D01*
X87446Y406400D01*
Y469480D01*
X87446Y469480D01*
X87170Y470868D01*
X86384Y472044D01*
X86384Y472044D01*
X75074Y483353D01*
X75162Y483505D01*
X75832Y486006D01*
Y488594D01*
X75162Y491095D01*
X73868Y493337D01*
X72037Y495168D01*
X69795Y496462D01*
X67294Y497132D01*
D02*
G37*
G36*
X245294Y420932D02*
X242706D01*
X240205Y420262D01*
X237963Y418968D01*
X236132Y417137D01*
X234838Y414895D01*
X234168Y412394D01*
Y409806D01*
X234838Y407305D01*
X236132Y405063D01*
X237963Y403232D01*
X240205Y401938D01*
X242706Y401268D01*
X245294D01*
X247795Y401938D01*
X250037Y403232D01*
X251868Y405063D01*
X253162Y407305D01*
X253832Y409806D01*
Y412394D01*
X253162Y414895D01*
X251868Y417137D01*
X250037Y418968D01*
X247795Y420262D01*
X245294Y420932D01*
D02*
G37*
G36*
X192821Y409142D02*
X190719D01*
X188778Y408338D01*
X187292Y406852D01*
X186488Y404911D01*
Y402809D01*
X187292Y400868D01*
X188778Y399382D01*
X190719Y398578D01*
X192821D01*
X194762Y399382D01*
X196248Y400868D01*
X197052Y402809D01*
Y404911D01*
X196248Y406852D01*
X194762Y408338D01*
X192821Y409142D01*
D02*
G37*
G36*
X127931Y400412D02*
X125829D01*
X123888Y399608D01*
X122402Y398122D01*
X121598Y396181D01*
Y394079D01*
X122402Y392138D01*
X123888Y390652D01*
X125829Y389848D01*
X127931D01*
X129872Y390652D01*
X131358Y392138D01*
X132162Y394079D01*
Y396181D01*
X131358Y398122D01*
X129872Y399608D01*
X127931Y400412D01*
D02*
G37*
G36*
X245294Y395532D02*
X242706D01*
X240205Y394862D01*
X237963Y393568D01*
X236132Y391737D01*
X234838Y389495D01*
X234168Y386994D01*
Y384406D01*
X234838Y381905D01*
X236132Y379663D01*
X237963Y377832D01*
X240205Y376538D01*
X242706Y375868D01*
X245294D01*
X247795Y376538D01*
X250037Y377832D01*
X251868Y379663D01*
X253162Y381905D01*
X253832Y384406D01*
Y386994D01*
X253162Y389495D01*
X251868Y391737D01*
X250037Y393568D01*
X247795Y394862D01*
X245294Y395532D01*
D02*
G37*
G36*
X194091Y385012D02*
X191989D01*
X190048Y384208D01*
X188562Y382722D01*
X187758Y380781D01*
Y378679D01*
X188562Y376738D01*
X190048Y375252D01*
X191989Y374448D01*
X194091D01*
X196032Y375252D01*
X197518Y376738D01*
X198322Y378679D01*
Y380781D01*
X197518Y382722D01*
X196032Y384208D01*
X194091Y385012D01*
D02*
G37*
G36*
X114081Y362152D02*
X111979D01*
X110038Y361348D01*
X108552Y359862D01*
X107748Y357921D01*
Y355819D01*
X108552Y353878D01*
X110038Y352392D01*
X111979Y351588D01*
X114081D01*
X116022Y352392D01*
X117508Y353878D01*
X118312Y355819D01*
Y357921D01*
X117508Y359862D01*
X116022Y361348D01*
X114081Y362152D01*
D02*
G37*
G36*
X245294Y370132D02*
X242706D01*
X240205Y369462D01*
X237963Y368167D01*
X236132Y366337D01*
X234838Y364095D01*
X234168Y361594D01*
Y359006D01*
X234838Y356505D01*
X236132Y354263D01*
X237963Y352432D01*
X240205Y351138D01*
X242706Y350468D01*
X245294D01*
X247795Y351138D01*
X250037Y352432D01*
X251868Y354263D01*
X253162Y356505D01*
X253832Y359006D01*
Y361594D01*
X253162Y364095D01*
X251868Y366337D01*
X250037Y368167D01*
X247795Y369462D01*
X245294Y370132D01*
D02*
G37*
G36*
X183931Y359612D02*
X181829D01*
X179888Y358808D01*
X178402Y357322D01*
X177598Y355381D01*
Y353279D01*
X178402Y351338D01*
X179888Y349852D01*
X181829Y349048D01*
X183931D01*
X185872Y349852D01*
X187358Y351338D01*
X188162Y353279D01*
Y355381D01*
X187358Y357322D01*
X185872Y358808D01*
X183931Y359612D01*
D02*
G37*
G36*
X163830Y348641D02*
Y344170D01*
X168301D01*
X167469Y346180D01*
X165840Y347809D01*
X163830Y348641D01*
D02*
G37*
G36*
X161290D02*
X159280Y347809D01*
X157651Y346180D01*
X156819Y344170D01*
X161290D01*
Y348641D01*
D02*
G37*
G36*
X168301Y341630D02*
X163830D01*
Y337159D01*
X165840Y337991D01*
X167469Y339620D01*
X168301Y341630D01*
D02*
G37*
G36*
X161290D02*
X156819D01*
X157651Y339620D01*
X159280Y337991D01*
X161290Y337159D01*
Y341630D01*
D02*
G37*
G36*
X245294Y344732D02*
X242706D01*
X240205Y344062D01*
X237963Y342767D01*
X236132Y340937D01*
X234838Y338695D01*
X234168Y336194D01*
Y333606D01*
X234838Y331105D01*
X236132Y328863D01*
X237963Y327032D01*
X240205Y325738D01*
X242706Y325068D01*
X245294D01*
X247795Y325738D01*
X250037Y327032D01*
X251868Y328863D01*
X253162Y331105D01*
X253832Y333606D01*
Y336194D01*
X253162Y338695D01*
X251868Y340937D01*
X250037Y342767D01*
X247795Y344062D01*
X245294Y344732D01*
D02*
G37*
G36*
X67294D02*
X64706D01*
X62205Y344062D01*
X59963Y342767D01*
X58132Y340937D01*
X56838Y338695D01*
X56168Y336194D01*
Y333606D01*
X56838Y331105D01*
X58132Y328863D01*
X59963Y327032D01*
X62205Y325738D01*
X64706Y325068D01*
X67294D01*
X69795Y325738D01*
X72037Y327032D01*
X73868Y328863D01*
X75162Y331105D01*
X75832Y333606D01*
Y336194D01*
X75162Y338695D01*
X73868Y340937D01*
X72037Y342767D01*
X69795Y344062D01*
X67294Y344732D01*
D02*
G37*
G36*
X17321Y344932D02*
X14679D01*
X12128Y344248D01*
X9840Y342928D01*
X7972Y341060D01*
X6652Y338772D01*
X5968Y336221D01*
Y333579D01*
X6652Y331028D01*
X7972Y328740D01*
X9840Y326872D01*
X12128Y325552D01*
X14679Y324868D01*
X17321D01*
X19872Y325552D01*
X22160Y326872D01*
X24028Y328740D01*
X25348Y331028D01*
X26032Y333579D01*
Y336221D01*
X25348Y338772D01*
X24028Y341060D01*
X22160Y342928D01*
X19872Y344248D01*
X17321Y344932D01*
D02*
G37*
G36*
X17388Y320040D02*
X17270D01*
Y310770D01*
X26540D01*
Y310888D01*
X25822Y313568D01*
X24434Y315972D01*
X22472Y317934D01*
X20068Y319322D01*
X17388Y320040D01*
D02*
G37*
G36*
X14730D02*
X14612D01*
X11932Y319322D01*
X9528Y317934D01*
X7566Y315972D01*
X6178Y313568D01*
X5460Y310888D01*
Y310770D01*
X14730D01*
Y320040D01*
D02*
G37*
G36*
X245361Y319840D02*
X245270D01*
Y310770D01*
X254340D01*
Y310861D01*
X253635Y313491D01*
X252274Y315849D01*
X250349Y317774D01*
X247991Y319135D01*
X245361Y319840D01*
D02*
G37*
G36*
X67361D02*
X67270D01*
Y310770D01*
X76340D01*
Y310861D01*
X75635Y313491D01*
X74274Y315849D01*
X72349Y317774D01*
X69991Y319135D01*
X67361Y319840D01*
D02*
G37*
G36*
X64730D02*
X64639D01*
X62009Y319135D01*
X59651Y317774D01*
X57726Y315849D01*
X56365Y313491D01*
X55660Y310861D01*
Y310770D01*
X64730D01*
Y319840D01*
D02*
G37*
G36*
X242730D02*
X242639D01*
X240009Y319135D01*
X237651Y317774D01*
X235726Y315849D01*
X234365Y313491D01*
X233660Y310861D01*
Y310770D01*
X242730D01*
Y319840D01*
D02*
G37*
G36*
X254340Y308230D02*
X245270D01*
Y299160D01*
X245361D01*
X247991Y299865D01*
X250349Y301226D01*
X252274Y303151D01*
X253635Y305509D01*
X254340Y308139D01*
Y308230D01*
D02*
G37*
G36*
X242730D02*
X233660D01*
Y308139D01*
X234365Y305509D01*
X235726Y303151D01*
X237651Y301226D01*
X240009Y299865D01*
X242639Y299160D01*
X242730D01*
Y308230D01*
D02*
G37*
G36*
X76340D02*
X67270D01*
Y299160D01*
X67361D01*
X69991Y299865D01*
X72349Y301226D01*
X74274Y303151D01*
X75635Y305509D01*
X76340Y308139D01*
Y308230D01*
D02*
G37*
G36*
X64730D02*
X55660D01*
Y308139D01*
X56365Y305509D01*
X57726Y303151D01*
X59651Y301226D01*
X62009Y299865D01*
X64639Y299160D01*
X64730D01*
Y308230D01*
D02*
G37*
G36*
X26540Y308230D02*
X17270D01*
Y298960D01*
X17388D01*
X20068Y299678D01*
X22472Y301066D01*
X24434Y303028D01*
X25822Y305432D01*
X26540Y308112D01*
Y308230D01*
D02*
G37*
G36*
X14730D02*
X5460D01*
Y308112D01*
X6178Y305432D01*
X7566Y303028D01*
X9528Y301066D01*
X11932Y299678D01*
X14612Y298960D01*
X14730D01*
Y308230D01*
D02*
G37*
G36*
X114300Y290221D02*
Y285750D01*
X118771D01*
X117939Y287760D01*
X116310Y289389D01*
X114300Y290221D01*
D02*
G37*
G36*
X111760D02*
X109750Y289389D01*
X108121Y287760D01*
X107289Y285750D01*
X111760D01*
Y290221D01*
D02*
G37*
G36*
X17388Y294640D02*
X17270D01*
Y285370D01*
X26540D01*
Y285488D01*
X25822Y288168D01*
X24434Y290572D01*
X22472Y292534D01*
X20068Y293922D01*
X17388Y294640D01*
D02*
G37*
G36*
X14730D02*
X14612D01*
X11932Y293922D01*
X9528Y292534D01*
X7566Y290572D01*
X6178Y288168D01*
X5460Y285488D01*
Y285370D01*
X14730D01*
Y294640D01*
D02*
G37*
G36*
X215900Y286411D02*
Y281940D01*
X220371D01*
X219539Y283950D01*
X217910Y285579D01*
X215900Y286411D01*
D02*
G37*
G36*
X213360D02*
X211350Y285579D01*
X209721Y283950D01*
X208889Y281940D01*
X213360D01*
Y286411D01*
D02*
G37*
G36*
X118771Y283210D02*
X114300D01*
Y278739D01*
X116310Y279571D01*
X117939Y281200D01*
X118771Y283210D01*
D02*
G37*
G36*
X111760D02*
X107289D01*
X108121Y281200D01*
X109750Y279571D01*
X111760Y278739D01*
Y283210D01*
D02*
G37*
G36*
X43180Y281331D02*
Y276860D01*
X47651D01*
X46819Y278870D01*
X45190Y280499D01*
X43180Y281331D01*
D02*
G37*
G36*
X40640D02*
X38630Y280499D01*
X37001Y278870D01*
X36169Y276860D01*
X40640D01*
Y281331D01*
D02*
G37*
G36*
X220371Y279400D02*
X215900D01*
Y274929D01*
X217910Y275761D01*
X219539Y277390D01*
X220371Y279400D01*
D02*
G37*
G36*
X213360D02*
X208889D01*
X209721Y277390D01*
X211350Y275761D01*
X213360Y274929D01*
Y279400D01*
D02*
G37*
G36*
X245294Y293932D02*
X242706D01*
X240205Y293262D01*
X237963Y291968D01*
X236132Y290137D01*
X234838Y287895D01*
X234168Y285394D01*
Y282806D01*
X234838Y280305D01*
X236132Y278063D01*
X237963Y276232D01*
X240205Y274938D01*
X242706Y274268D01*
X245294D01*
X247795Y274938D01*
X250037Y276232D01*
X251868Y278063D01*
X253162Y280305D01*
X253832Y282806D01*
Y285394D01*
X253162Y287895D01*
X251868Y290137D01*
X250037Y291968D01*
X247795Y293262D01*
X245294Y293932D01*
D02*
G37*
G36*
X67294D02*
X64706D01*
X62205Y293262D01*
X59963Y291968D01*
X58132Y290137D01*
X56838Y287895D01*
X56168Y285394D01*
Y282806D01*
X56838Y280305D01*
X58132Y278063D01*
X59963Y276232D01*
X62205Y274938D01*
X64706Y274268D01*
X67294D01*
X69795Y274938D01*
X72037Y276232D01*
X73868Y278063D01*
X75162Y280305D01*
X75832Y282806D01*
Y285394D01*
X75162Y287895D01*
X73868Y290137D01*
X72037Y291968D01*
X69795Y293262D01*
X67294Y293932D01*
D02*
G37*
G36*
X26540Y282830D02*
X17270D01*
Y273560D01*
X17388D01*
X20068Y274278D01*
X22472Y275666D01*
X24434Y277628D01*
X25822Y280032D01*
X26540Y282712D01*
Y282830D01*
D02*
G37*
G36*
X14730D02*
X5460D01*
Y282712D01*
X6178Y280032D01*
X7566Y277628D01*
X9528Y275666D01*
X11932Y274278D01*
X14612Y273560D01*
X14730D01*
Y282830D01*
D02*
G37*
G36*
X47651Y274320D02*
X43180D01*
Y269849D01*
X45190Y270681D01*
X46819Y272310D01*
X47651Y274320D01*
D02*
G37*
G36*
X40640D02*
X36169D01*
X37001Y272310D01*
X38630Y270681D01*
X40640Y269849D01*
Y274320D01*
D02*
G37*
G36*
X26540Y269240D02*
X17270D01*
Y259970D01*
X26540D01*
Y269240D01*
D02*
G37*
G36*
X14730D02*
X5460D01*
Y259970D01*
X14730D01*
Y269240D01*
D02*
G37*
G36*
X253832Y268532D02*
X234168D01*
Y248868D01*
X253832D01*
Y268532D01*
D02*
G37*
G36*
X67294D02*
X64706D01*
X62205Y267862D01*
X59963Y266567D01*
X58132Y264737D01*
X56838Y262495D01*
X56168Y259994D01*
Y257406D01*
X56838Y254905D01*
X58132Y252663D01*
X59963Y250832D01*
X62205Y249538D01*
X64706Y248868D01*
X67294D01*
X69795Y249538D01*
X72037Y250832D01*
X73868Y252663D01*
X75162Y254905D01*
X75832Y257406D01*
Y259994D01*
X75162Y262495D01*
X73868Y264737D01*
X72037Y266567D01*
X69795Y267862D01*
X67294Y268532D01*
D02*
G37*
G36*
X26540Y257430D02*
X17270D01*
Y248160D01*
X26540D01*
Y257430D01*
D02*
G37*
G36*
X14730D02*
X5460D01*
Y248160D01*
X14730D01*
Y257430D01*
D02*
G37*
G36*
X176530Y250851D02*
Y246380D01*
X181001D01*
X180169Y248390D01*
X178540Y250019D01*
X176530Y250851D01*
D02*
G37*
G36*
X173990D02*
X171980Y250019D01*
X170351Y248390D01*
X169519Y246380D01*
X173990D01*
Y250851D01*
D02*
G37*
G36*
X181001Y243840D02*
X176530D01*
Y239369D01*
X178540Y240201D01*
X180169Y241830D01*
X181001Y243840D01*
D02*
G37*
G36*
X173990D02*
X169519D01*
X170351Y241830D01*
X171980Y240201D01*
X173990Y239369D01*
Y243840D01*
D02*
G37*
G36*
X241300Y221641D02*
Y217170D01*
X245771D01*
X244939Y219180D01*
X243310Y220809D01*
X241300Y221641D01*
D02*
G37*
G36*
X238760D02*
X236750Y220809D01*
X235121Y219180D01*
X234289Y217170D01*
X238760D01*
Y221641D01*
D02*
G37*
G36*
X245771Y214630D02*
X241300D01*
Y210159D01*
X243310Y210991D01*
X244939Y212620D01*
X245771Y214630D01*
D02*
G37*
G36*
X238760D02*
X234289D01*
X235121Y212620D01*
X236750Y210991D01*
X238760Y210159D01*
Y214630D01*
D02*
G37*
G36*
X19050Y207671D02*
Y203200D01*
X23521D01*
X22689Y205210D01*
X21060Y206839D01*
X19050Y207671D01*
D02*
G37*
G36*
X16510D02*
X14500Y206839D01*
X12871Y205210D01*
X12039Y203200D01*
X16510D01*
Y207671D01*
D02*
G37*
G36*
X153451Y204672D02*
X151349D01*
X149408Y203868D01*
X148555Y203016D01*
X113030D01*
X113030Y203016D01*
X111643Y202740D01*
X110466Y201954D01*
X110466Y201954D01*
X87785Y179272D01*
X86579D01*
X84638Y178468D01*
X83152Y176982D01*
X82348Y175041D01*
Y172939D01*
X83152Y170998D01*
X84638Y169512D01*
X86579Y168708D01*
X88681D01*
X90622Y169512D01*
X92108Y170998D01*
X92912Y172939D01*
Y174145D01*
X114532Y195764D01*
X148555D01*
X149408Y194912D01*
X151349Y194108D01*
X153451D01*
X155392Y194912D01*
X156878Y196398D01*
X157682Y198339D01*
Y200441D01*
X156878Y202382D01*
X155392Y203868D01*
X153451Y204672D01*
D02*
G37*
G36*
X23521Y200660D02*
X19050D01*
Y196189D01*
X21060Y197021D01*
X22689Y198650D01*
X23521Y200660D01*
D02*
G37*
G36*
X16510D02*
X12039D01*
X12871Y198650D01*
X14500Y197021D01*
X16510Y196189D01*
Y200660D01*
D02*
G37*
G36*
X74711Y156412D02*
X72609D01*
X70668Y155608D01*
X69182Y154122D01*
X68378Y152181D01*
Y150079D01*
X69182Y148138D01*
X70668Y146652D01*
X72609Y145848D01*
X74711D01*
X76652Y146652D01*
X78138Y148138D01*
X78942Y150079D01*
Y152181D01*
X78138Y154122D01*
X76652Y155608D01*
X74711Y156412D01*
D02*
G37*
G36*
X175041Y194512D02*
X172939D01*
X170998Y193708D01*
X169512Y192222D01*
X168708Y190281D01*
Y189075D01*
X122958Y143326D01*
X68615D01*
X67762Y144178D01*
X65821Y144982D01*
X63719D01*
X61778Y144178D01*
X60292Y142692D01*
X59488Y140751D01*
Y138649D01*
X60292Y136708D01*
X61778Y135222D01*
X63719Y134418D01*
X65821D01*
X67762Y135222D01*
X68615Y136074D01*
X124460D01*
X124460Y136074D01*
X125848Y136350D01*
X127024Y137136D01*
X173835Y183948D01*
X175041D01*
X176982Y184752D01*
X178468Y186238D01*
X179272Y188179D01*
Y190281D01*
X178468Y192222D01*
X176982Y193708D01*
X175041Y194512D01*
D02*
G37*
G36*
X191458Y141232D02*
X188922D01*
X186472Y140576D01*
X184276Y139307D01*
X182482Y137514D01*
X181214Y135318D01*
X180558Y132868D01*
Y130332D01*
X181214Y127882D01*
X182482Y125686D01*
X184276Y123892D01*
X186472Y122624D01*
X188922Y121968D01*
X191458D01*
X193908Y122624D01*
X196104Y123892D01*
X197897Y125686D01*
X199166Y127882D01*
X199822Y130332D01*
Y132868D01*
X199166Y135318D01*
X197897Y137514D01*
X196104Y139307D01*
X193908Y140576D01*
X191458Y141232D01*
D02*
G37*
G36*
X161458D02*
X158922D01*
X156472Y140576D01*
X154276Y139307D01*
X152483Y137514D01*
X151214Y135318D01*
X150558Y132868D01*
Y130332D01*
X151214Y127882D01*
X152483Y125686D01*
X154276Y123892D01*
X156472Y122624D01*
X158922Y121968D01*
X161458D01*
X163908Y122624D01*
X166104Y123892D01*
X167897Y125686D01*
X169166Y127882D01*
X169822Y130332D01*
Y132868D01*
X169166Y135318D01*
X167897Y137514D01*
X166104Y139307D01*
X163908Y140576D01*
X161458Y141232D01*
D02*
G37*
G36*
X191525Y111740D02*
X191460D01*
Y102870D01*
X200330D01*
Y102935D01*
X199639Y105514D01*
X198304Y107826D01*
X196416Y109714D01*
X194104Y111049D01*
X191525Y111740D01*
D02*
G37*
G36*
X188920D02*
X188855D01*
X186276Y111049D01*
X183964Y109714D01*
X182076Y107826D01*
X180741Y105514D01*
X180050Y102935D01*
Y102870D01*
X188920D01*
Y111740D01*
D02*
G37*
G36*
X221458Y111232D02*
X218922D01*
X216472Y110576D01*
X214276Y109307D01*
X212482Y107514D01*
X211214Y105318D01*
X210558Y102868D01*
Y100332D01*
X211214Y97882D01*
X212482Y95686D01*
X214276Y93892D01*
X216472Y92624D01*
X218922Y91968D01*
X221458D01*
X223908Y92624D01*
X226104Y93892D01*
X227897Y95686D01*
X229166Y97882D01*
X229822Y100332D01*
Y102868D01*
X229166Y105318D01*
X227897Y107514D01*
X226104Y109307D01*
X223908Y110576D01*
X221458Y111232D01*
D02*
G37*
G36*
X161458D02*
X158922D01*
X156472Y110576D01*
X154276Y109307D01*
X152483Y107514D01*
X151214Y105318D01*
X150558Y102868D01*
Y100332D01*
X151214Y97882D01*
X152483Y95686D01*
X154276Y93892D01*
X156472Y92624D01*
X158922Y91968D01*
X161458D01*
X163908Y92624D01*
X166104Y93892D01*
X167897Y95686D01*
X169166Y97882D01*
X169822Y100332D01*
Y102868D01*
X169166Y105318D01*
X167897Y107514D01*
X166104Y109307D01*
X163908Y110576D01*
X161458Y111232D01*
D02*
G37*
G36*
X200330Y100330D02*
X191460D01*
Y91460D01*
X191525D01*
X194104Y92151D01*
X196416Y93486D01*
X198304Y95374D01*
X199639Y97686D01*
X200330Y100265D01*
Y100330D01*
D02*
G37*
G36*
X188920D02*
X180050D01*
Y100265D01*
X180741Y97686D01*
X182076Y95374D01*
X183964Y93486D01*
X186276Y92151D01*
X188855Y91460D01*
X188920D01*
Y100330D01*
D02*
G37*
%LPD*%
G36*
X190372Y675768D02*
X190684Y673865D01*
Y633918D01*
X188778Y633128D01*
X187292Y631642D01*
X186727Y630277D01*
X184695Y630682D01*
Y675768D01*
X190372Y675768D01*
D02*
G37*
D50*
X231140Y58420D02*
D03*
X177800D02*
D03*
X160020Y948430D02*
D03*
X349222Y58600D02*
D03*
X266220Y952320D02*
D03*
X370840Y948430D02*
D03*
D51*
X145020Y905230D02*
D03*
X355840D02*
D03*
D52*
X175020D02*
D03*
X145020Y875230D02*
D03*
X175020D02*
D03*
X385840D02*
D03*
X355840D02*
D03*
X385840Y905230D02*
D03*
D56*
X166770Y731520D02*
D03*
X437750D02*
D03*
X312820D02*
D03*
X93110D02*
D03*
D57*
X216770D02*
D03*
X387750D02*
D03*
X362820D02*
D03*
X143110D02*
D03*
D64*
X317822Y191448D02*
X321632D01*
X273950Y235320D02*
X317822Y191448D01*
X321632D02*
X322580Y190500D01*
X375920Y229870D02*
X463550D01*
X368300Y223520D02*
X466090D01*
X314960Y276860D02*
X368300Y223520D01*
X466090D02*
X483870Y241300D01*
X463550Y229870D02*
X477520Y243840D01*
X322580Y283210D02*
X375920Y229870D01*
X400891Y346710D02*
X439881Y385700D01*
X177800Y745490D02*
X194310Y728980D01*
X191770Y628650D02*
Y629584D01*
X194310Y632124D02*
Y728980D01*
X191770Y629584D02*
X194310Y632124D01*
X500380Y229870D02*
Y499080D01*
X495300Y234950D02*
Y544800D01*
X471170Y200660D02*
X500380Y229870D01*
Y499080D02*
X514000Y512700D01*
X495300Y544800D02*
X514000Y563500D01*
X468630Y208280D02*
X495300Y234950D01*
X266700Y224790D02*
X300990Y190500D01*
X266700Y645800D02*
X286000Y665100D01*
X266700Y224790D02*
Y645800D01*
X439881Y385700D02*
X464000D01*
X273950Y627650D02*
X286000Y639700D01*
X273950Y235320D02*
Y627650D01*
X286000Y411100D02*
X322580Y374520D01*
Y283210D02*
Y374520D01*
X244410Y849630D02*
X271300Y876520D01*
X149860Y849630D02*
X244410D01*
X271300Y876520D02*
Y879320D01*
X204470Y628650D02*
Y735330D01*
X144780Y797116D02*
X169736D01*
X187960Y815340D01*
X367030Y770890D02*
Y789940D01*
X351790Y805180D02*
X367030Y789940D01*
X182880Y756920D02*
X204470Y735330D01*
X135890Y787400D02*
X166370Y756920D01*
X125730Y782320D02*
X162560Y745490D01*
X177800D01*
X166370Y756920D02*
X182880D01*
X135890Y787400D02*
Y835660D01*
X125730Y782320D02*
Y842010D01*
X143510Y859790D02*
X224790D01*
X135890Y835660D02*
X149860Y849630D01*
X125730Y842010D02*
X143510Y859790D01*
X224790D02*
X241300Y876300D01*
Y879320D01*
X106680Y373380D02*
X116840Y383540D01*
X59006Y525780D02*
X213360D01*
X224790Y537210D02*
X242569D01*
X244604Y539245D01*
X213360Y525780D02*
X224790Y537210D01*
X396349Y469111D02*
X396349D01*
X465339Y538100D01*
X350520Y398780D02*
Y423281D01*
X396349Y469111D01*
X398780Y450850D02*
X461199Y513269D01*
X477520Y243840D02*
Y679420D01*
X461199Y513269D02*
X462518D01*
X477520Y679420D02*
X514000Y715900D01*
X398780Y400050D02*
Y450850D01*
X287320Y274020D02*
Y282780D01*
X360680Y200660D02*
X471170D01*
X287320Y274020D02*
X360680Y200660D01*
X286000Y284100D02*
X287320Y282780D01*
X299720Y271780D02*
X363220Y208280D01*
X299720Y271780D02*
Y321310D01*
X363220Y208280D02*
X468630D01*
X490220Y590520D02*
X514000Y614300D01*
X467360Y215900D02*
X490220Y238760D01*
Y590520D01*
X483870Y241300D02*
Y634970D01*
X514000Y665100D01*
X51690Y398400D02*
X75820D01*
X38990Y385700D02*
X51690Y398400D01*
X16000Y385700D02*
X38990D01*
X56297Y373380D02*
X106680D01*
X43217Y360300D02*
X56297Y373380D01*
X66000Y487300D02*
X83820Y469480D01*
X75820Y398400D02*
X83820Y406400D01*
Y469480D01*
X16000Y360300D02*
X43217D01*
X241598Y510298D02*
X244000Y512700D01*
X24105Y490879D02*
X59006Y525780D01*
X23084Y490879D02*
X24105D01*
X16000Y487300D02*
X19505D01*
X23084Y490879D01*
X314960Y276860D02*
Y356870D01*
X307340Y273050D02*
X364490Y215900D01*
X307340Y273050D02*
Y342900D01*
X364490Y215900D02*
X467360D01*
X286340Y385490D02*
X314960Y356870D01*
X293670Y356570D02*
X307340Y342900D01*
X288145Y332885D02*
X299720Y321310D01*
X293127Y356570D02*
X293670D01*
X286000Y360300D02*
X289397D01*
X293127Y356570D01*
X284699Y332885D02*
X288145D01*
X16000Y588900D02*
X19430D01*
X124460Y139700D02*
X173990Y189230D01*
X64770Y139700D02*
X124460D01*
X113030Y199390D02*
X152400D01*
X87630Y173990D02*
X113030Y199390D01*
X20002Y418607D02*
Y418782D01*
X63120Y461900D01*
X66000D01*
X16000Y411100D02*
Y414605D01*
X20002Y418607D01*
X66000Y411100D02*
X68200D01*
D65*
X323850Y769620D02*
X331470Y762000D01*
Y651980D02*
Y762000D01*
Y651980D02*
X343750Y639700D01*
X74930Y906780D02*
X148830D01*
X179070Y627421D02*
X179386Y627736D01*
Y685419D01*
X179070Y627380D02*
Y627421D01*
X141264Y729767D02*
Y731837D01*
X87630Y782320D02*
X87659Y782291D01*
X88740D02*
X136686Y734345D01*
X87659Y782291D02*
X88740D01*
X138756Y734345D02*
X141264Y731837D01*
X136686Y734345D02*
X138756D01*
X343750Y639700D02*
X464000D01*
X52070Y883920D02*
X74930Y906780D01*
D66*
X160190Y131600D02*
D03*
X190190D02*
D03*
X220190D02*
D03*
X250190D02*
D03*
X160190Y101600D02*
D03*
X190190D02*
D03*
X220190D02*
D03*
X349222D02*
D03*
X319222D02*
D03*
X379222Y131600D02*
D03*
X349222D02*
D03*
X319222D02*
D03*
X296220Y879320D02*
D03*
X266220D02*
D03*
X236220D02*
D03*
X296220Y909320D02*
D03*
X266220D02*
D03*
D67*
X250190Y101600D02*
D03*
X379222D02*
D03*
X236220Y909320D02*
D03*
D69*
X514000Y258700D02*
D03*
Y284100D02*
D03*
Y309500D02*
D03*
Y334900D02*
D03*
Y360300D02*
D03*
Y411100D02*
D03*
Y436500D02*
D03*
Y538100D02*
D03*
Y614300D02*
D03*
Y665100D02*
D03*
Y715900D02*
D03*
Y690500D02*
D03*
Y639700D02*
D03*
Y588900D02*
D03*
Y563500D02*
D03*
Y512700D02*
D03*
Y487300D02*
D03*
Y461900D02*
D03*
Y385700D02*
D03*
X16000Y614300D02*
D03*
Y538100D02*
D03*
Y512700D02*
D03*
Y487300D02*
D03*
Y436500D02*
D03*
Y411100D02*
D03*
Y360300D02*
D03*
Y309500D02*
D03*
Y284100D02*
D03*
Y334900D02*
D03*
Y385700D02*
D03*
Y461900D02*
D03*
Y563500D02*
D03*
Y588900D02*
D03*
Y639700D02*
D03*
Y665100D02*
D03*
Y690500D02*
D03*
Y715900D02*
D03*
Y741300D02*
D03*
D70*
X514000D02*
D03*
X16000Y258700D02*
D03*
D71*
X244000Y411100D02*
D03*
Y538100D02*
D03*
Y512700D02*
D03*
X464000Y741300D02*
D03*
Y715900D02*
D03*
Y690500D02*
D03*
Y665100D02*
D03*
Y639700D02*
D03*
Y614300D02*
D03*
Y588900D02*
D03*
Y563500D02*
D03*
Y538100D02*
D03*
Y512700D02*
D03*
Y487300D02*
D03*
Y461900D02*
D03*
Y436500D02*
D03*
Y411100D02*
D03*
Y385700D02*
D03*
Y360300D02*
D03*
Y334900D02*
D03*
Y309500D02*
D03*
Y284100D02*
D03*
X286000Y258700D02*
D03*
Y284100D02*
D03*
Y309500D02*
D03*
Y334900D02*
D03*
Y360300D02*
D03*
Y385700D02*
D03*
Y411100D02*
D03*
Y436500D02*
D03*
Y461900D02*
D03*
Y487300D02*
D03*
Y512700D02*
D03*
Y538100D02*
D03*
Y563500D02*
D03*
Y588900D02*
D03*
Y614300D02*
D03*
Y639700D02*
D03*
Y665100D02*
D03*
Y690500D02*
D03*
Y715900D02*
D03*
X244000Y741300D02*
D03*
Y715900D02*
D03*
Y690500D02*
D03*
Y665100D02*
D03*
Y639700D02*
D03*
Y614300D02*
D03*
Y588900D02*
D03*
Y563500D02*
D03*
Y487300D02*
D03*
Y461900D02*
D03*
Y436500D02*
D03*
Y385700D02*
D03*
Y360300D02*
D03*
Y334900D02*
D03*
Y309500D02*
D03*
Y284100D02*
D03*
X66000Y258700D02*
D03*
Y284100D02*
D03*
Y309500D02*
D03*
Y334900D02*
D03*
Y360300D02*
D03*
Y385700D02*
D03*
Y411100D02*
D03*
Y436500D02*
D03*
Y461900D02*
D03*
Y487300D02*
D03*
Y512700D02*
D03*
Y538100D02*
D03*
Y563500D02*
D03*
Y588900D02*
D03*
Y614300D02*
D03*
Y639700D02*
D03*
Y665100D02*
D03*
Y690500D02*
D03*
Y715900D02*
D03*
D72*
X464000Y258700D02*
D03*
X286000Y741300D02*
D03*
X244000Y258700D02*
D03*
X66000Y741300D02*
D03*
D73*
X180340Y685800D02*
D03*
X400050D02*
D03*
D74*
X154940D02*
D03*
X129540D02*
D03*
X374650D02*
D03*
X349250D02*
D03*
D75*
X470000Y945000D02*
D03*
X60000D02*
D03*
X470000Y55000D02*
D03*
X60000D02*
D03*
D76*
X100330Y788670D02*
D03*
X175260Y245110D02*
D03*
X214630Y280670D02*
D03*
X406400Y609600D02*
D03*
X391440Y609672D02*
D03*
X374650Y609600D02*
D03*
X163830Y617220D02*
D03*
X101600D02*
D03*
X121920D02*
D03*
X143510D02*
D03*
X312420Y425450D02*
D03*
X365760Y346710D02*
D03*
X240030Y215900D02*
D03*
X17780Y201930D02*
D03*
X41910Y275590D02*
D03*
X102870Y434340D02*
D03*
X40640Y708660D02*
D03*
X92710Y680720D02*
D03*
X477520Y883920D02*
D03*
X359410Y609600D02*
D03*
X307340Y220980D02*
D03*
X381000Y425450D02*
D03*
X113030Y284480D02*
D03*
X407670Y166370D02*
D03*
X386080Y252730D02*
D03*
X411480Y238760D02*
D03*
X431800Y178950D02*
D03*
X433070Y237490D02*
D03*
X389890Y355600D02*
D03*
X400891Y346710D02*
D03*
X374650Y252080D02*
D03*
X508000Y788670D02*
D03*
X438150Y839470D02*
D03*
X22860Y835660D02*
D03*
X294630Y836835D02*
D03*
X347980Y786130D02*
D03*
X316230Y400050D02*
D03*
X344170Y355600D02*
D03*
X245630Y839470D02*
D03*
X179070Y627380D02*
D03*
X204470Y628650D02*
D03*
X87630Y782320D02*
D03*
X162560Y342900D02*
D03*
X215900Y767080D02*
D03*
X187960Y815340D02*
D03*
X323850Y769620D02*
D03*
X367030Y770890D02*
D03*
X351790Y805180D02*
D03*
X191770Y403860D02*
D03*
Y628650D02*
D03*
X52070Y883920D02*
D03*
X127000Y415290D02*
D03*
X126880Y395130D02*
D03*
X116840Y383540D02*
D03*
X193040Y379730D02*
D03*
X182880Y354330D02*
D03*
X363220Y416560D02*
D03*
X398780Y400050D02*
D03*
X350520Y398780D02*
D03*
X341630Y208280D02*
D03*
X113030Y356870D02*
D03*
X173990Y189230D02*
D03*
X152400Y199390D02*
D03*
X73660Y151130D02*
D03*
X64770Y139700D02*
D03*
X87630Y173990D02*
D03*
X151130Y33020D02*
D03*
D77*
X322580Y190500D02*
D03*
X144780Y797116D02*
D03*
X300990Y190500D02*
D03*
M02*
