G04*
G04 #@! TF.GenerationSoftware,Altium Limited,Altium Designer,23.0.1 (38)*
G04*
G04 Layer_Color=8421504*
%FSLAX44Y44*%
%MOMM*%
G71*
G04*
G04 #@! TF.SameCoordinates,BC9D6512-4978-4A19-9F96-E8A3AF7CD3FB*
G04*
G04*
G04 #@! TF.FilePolarity,Positive*
G04*
G01*
G75*
%ADD15O,2.5000X0.7000*%
%ADD16R,0.8000X1.0000*%
%ADD17R,0.5851X1.3360*%
G04:AMPARAMS|DCode=18|XSize=1.336mm|YSize=0.5851mm|CornerRadius=0.2925mm|HoleSize=0mm|Usage=FLASHONLY|Rotation=90.000|XOffset=0mm|YOffset=0mm|HoleType=Round|Shape=RoundedRectangle|*
%AMROUNDEDRECTD18*
21,1,1.3360,0.0000,0,0,90.0*
21,1,0.7510,0.5851,0,0,90.0*
1,1,0.5851,0.0000,0.3755*
1,1,0.5851,0.0000,-0.3755*
1,1,0.5851,0.0000,-0.3755*
1,1,0.5851,0.0000,0.3755*
%
%ADD18ROUNDEDRECTD18*%
%ADD19R,1.0000X0.8000*%
%ADD20R,0.8500X0.7000*%
%ADD21R,0.7000X0.8500*%
%ADD22R,0.9000X1.5000*%
%ADD23R,0.7500X0.8500*%
%ADD24R,0.9000X1.0500*%
%ADD25R,1.1311X0.9121*%
%ADD26R,0.7000X0.7000*%
%ADD27R,1.0000X2.5000*%
%ADD28R,0.8000X0.8000*%
%ADD29R,0.9500X0.8000*%
%ADD30R,0.6000X0.8000*%
%ADD31R,0.7000X0.7000*%
G04:AMPARAMS|DCode=32|XSize=1.1mm|YSize=0.6mm|CornerRadius=0.051mm|HoleSize=0mm|Usage=FLASHONLY|Rotation=90.000|XOffset=0mm|YOffset=0mm|HoleType=Round|Shape=RoundedRectangle|*
%AMROUNDEDRECTD32*
21,1,1.1000,0.4980,0,0,90.0*
21,1,0.9980,0.6000,0,0,90.0*
1,1,0.1020,0.2490,0.4990*
1,1,0.1020,0.2490,-0.4990*
1,1,0.1020,-0.2490,-0.4990*
1,1,0.1020,-0.2490,0.4990*
%
%ADD32ROUNDEDRECTD32*%
%ADD33R,0.8500X0.7500*%
D15*
X245630Y825763D02*
D03*
Y813063D02*
D03*
Y800363D02*
D03*
Y787663D02*
D03*
X294630Y825763D02*
D03*
Y813063D02*
D03*
Y800363D02*
D03*
Y787663D02*
D03*
D16*
X141090Y394970D02*
D03*
X156090D02*
D03*
X141090Y415290D02*
D03*
X156090D02*
D03*
X218320Y403860D02*
D03*
X203320D02*
D03*
X218320Y355600D02*
D03*
X203320D02*
D03*
X322320Y827033D02*
D03*
X337320D02*
D03*
X322320Y805443D02*
D03*
X337320D02*
D03*
X202940D02*
D03*
X217940D02*
D03*
X202940Y827033D02*
D03*
X217940D02*
D03*
X368420Y308610D02*
D03*
X383420D02*
D03*
D17*
X466090Y157480D02*
D03*
X42570Y799859D02*
D03*
X457250Y805180D02*
D03*
D18*
X485090Y157480D02*
D03*
X475590Y178282D02*
D03*
X61570Y799859D02*
D03*
X52070Y820661D02*
D03*
X466750Y825982D02*
D03*
X476250Y805180D02*
D03*
D19*
X130810Y161530D02*
D03*
Y176530D02*
D03*
X22860Y821570D02*
D03*
Y806570D02*
D03*
X322580Y176410D02*
D03*
Y161410D02*
D03*
X302260Y176410D02*
D03*
Y161410D02*
D03*
X447040Y178950D02*
D03*
Y163950D02*
D03*
X152400Y176410D02*
D03*
X173990D02*
D03*
X346710Y297060D02*
D03*
Y282060D02*
D03*
X342900Y176290D02*
D03*
Y161290D02*
D03*
X281940Y176410D02*
D03*
Y161410D02*
D03*
X261620Y176410D02*
D03*
Y161410D02*
D03*
X173990Y161410D02*
D03*
X152400D02*
D03*
X438150Y826650D02*
D03*
Y811650D02*
D03*
D20*
X74930Y178970D02*
D03*
Y166470D02*
D03*
D21*
X43280Y205740D02*
D03*
X55780D02*
D03*
X38200Y139700D02*
D03*
X50700D02*
D03*
D22*
X42430Y157220D02*
D03*
X56605D02*
D03*
X42455Y188220D02*
D03*
X56605D02*
D03*
D23*
X421790Y387350D02*
D03*
X408790D02*
D03*
X384910D02*
D03*
X397410D02*
D03*
X326490D02*
D03*
X338990D02*
D03*
X363370D02*
D03*
X350370D02*
D03*
X112780Y342900D02*
D03*
X125780D02*
D03*
X150930D02*
D03*
X138430D02*
D03*
D24*
X404760Y368300D02*
D03*
X390260D02*
D03*
X345970Y369570D02*
D03*
X331470D02*
D03*
X137530Y325120D02*
D03*
X152030D02*
D03*
D25*
X417885Y303530D02*
D03*
X405075D02*
D03*
D26*
X217170Y784860D02*
D03*
X203170D02*
D03*
X322550Y786130D02*
D03*
X336550D02*
D03*
D27*
X495060Y205740D02*
D03*
X465060D02*
D03*
X42150Y848360D02*
D03*
X72150D02*
D03*
X457440Y853440D02*
D03*
X487440D02*
D03*
D28*
X516889Y161411D02*
D03*
Y176411D02*
D03*
X92711Y801489D02*
D03*
Y816489D02*
D03*
X508001Y806569D02*
D03*
Y821569D02*
D03*
D29*
X501650Y175410D02*
D03*
Y162410D02*
D03*
X78740Y815490D02*
D03*
Y802490D02*
D03*
X494030Y807420D02*
D03*
Y820420D02*
D03*
D30*
X205590Y386080D02*
D03*
X218590D02*
D03*
X205590Y372110D02*
D03*
X218590D02*
D03*
D31*
X346710Y266080D02*
D03*
Y252080D02*
D03*
D32*
X367080Y264830D02*
D03*
X376580D02*
D03*
X386080D02*
D03*
Y290830D02*
D03*
X367080D02*
D03*
D33*
X402590Y274170D02*
D03*
Y287170D02*
D03*
X416560Y287020D02*
D03*
Y274020D02*
D03*
M02*
