G04*
G04 #@! TF.GenerationSoftware,Altium Limited,Altium Designer,23.0.1 (38)*
G04*
G04 Layer_Color=255*
%FSLAX44Y44*%
%MOMM*%
G71*
G04*
G04 #@! TF.SameCoordinates,BC9D6512-4978-4A19-9F96-E8A3AF7CD3FB*
G04*
G04*
G04 #@! TF.FilePolarity,Positive*
G04*
G01*
G75*
%ADD50C,3.0000*%
%ADD51R,1.5700X1.5700*%
%ADD52C,1.5700*%
%ADD56R,1.2000X1.2000*%
%ADD57C,1.2000*%
%ADD66C,1.5200*%
%ADD67R,1.5200X1.5200*%
%ADD69C,1.6000*%
%ADD70R,1.6000X1.6000*%
%ADD71C,1.5600*%
%ADD72R,1.5600X1.5600*%
%ADD73R,1.6000X1.6000*%
%ADD74C,1.6000*%
%ADD75C,6.0000*%
D50*
X231140Y58420D02*
D03*
X177800D02*
D03*
X160020Y948430D02*
D03*
X349222Y58600D02*
D03*
X266220Y952320D02*
D03*
X370840Y948430D02*
D03*
D51*
X145020Y905230D02*
D03*
X355840D02*
D03*
D52*
X175020D02*
D03*
X145020Y875230D02*
D03*
X175020D02*
D03*
X385840D02*
D03*
X355840D02*
D03*
X385840Y905230D02*
D03*
D56*
X166770Y731520D02*
D03*
X437750D02*
D03*
X312820D02*
D03*
X93110D02*
D03*
D57*
X216770D02*
D03*
X387750D02*
D03*
X362820D02*
D03*
X143110D02*
D03*
D66*
X160190Y131600D02*
D03*
X190190D02*
D03*
X220190D02*
D03*
X250190D02*
D03*
X160190Y101600D02*
D03*
X190190D02*
D03*
X220190D02*
D03*
X349222D02*
D03*
X319222D02*
D03*
X379222Y131600D02*
D03*
X349222D02*
D03*
X319222D02*
D03*
X296220Y879320D02*
D03*
X266220D02*
D03*
X236220D02*
D03*
X296220Y909320D02*
D03*
X266220D02*
D03*
D67*
X250190Y101600D02*
D03*
X379222D02*
D03*
X236220Y909320D02*
D03*
D69*
X514000Y258700D02*
D03*
Y284100D02*
D03*
Y309500D02*
D03*
Y334900D02*
D03*
Y360300D02*
D03*
Y411100D02*
D03*
Y436500D02*
D03*
Y538100D02*
D03*
Y614300D02*
D03*
Y665100D02*
D03*
Y715900D02*
D03*
Y690500D02*
D03*
Y639700D02*
D03*
Y588900D02*
D03*
Y563500D02*
D03*
Y512700D02*
D03*
Y487300D02*
D03*
Y461900D02*
D03*
Y385700D02*
D03*
X16000Y614300D02*
D03*
Y538100D02*
D03*
Y512700D02*
D03*
Y487300D02*
D03*
Y436500D02*
D03*
Y411100D02*
D03*
Y360300D02*
D03*
Y309500D02*
D03*
Y284100D02*
D03*
Y334900D02*
D03*
Y385700D02*
D03*
Y461900D02*
D03*
Y563500D02*
D03*
Y588900D02*
D03*
Y639700D02*
D03*
Y665100D02*
D03*
Y690500D02*
D03*
Y715900D02*
D03*
Y741300D02*
D03*
D70*
X514000D02*
D03*
X16000Y258700D02*
D03*
D71*
X244000Y411100D02*
D03*
Y538100D02*
D03*
Y512700D02*
D03*
X464000Y741300D02*
D03*
Y715900D02*
D03*
Y690500D02*
D03*
Y665100D02*
D03*
Y639700D02*
D03*
Y614300D02*
D03*
Y588900D02*
D03*
Y563500D02*
D03*
Y538100D02*
D03*
Y512700D02*
D03*
Y487300D02*
D03*
Y461900D02*
D03*
Y436500D02*
D03*
Y411100D02*
D03*
Y385700D02*
D03*
Y360300D02*
D03*
Y334900D02*
D03*
Y309500D02*
D03*
Y284100D02*
D03*
X286000Y258700D02*
D03*
Y284100D02*
D03*
Y309500D02*
D03*
Y334900D02*
D03*
Y360300D02*
D03*
Y385700D02*
D03*
Y411100D02*
D03*
Y436500D02*
D03*
Y461900D02*
D03*
Y487300D02*
D03*
Y512700D02*
D03*
Y538100D02*
D03*
Y563500D02*
D03*
Y588900D02*
D03*
Y614300D02*
D03*
Y639700D02*
D03*
Y665100D02*
D03*
Y690500D02*
D03*
Y715900D02*
D03*
X244000Y741300D02*
D03*
Y715900D02*
D03*
Y690500D02*
D03*
Y665100D02*
D03*
Y639700D02*
D03*
Y614300D02*
D03*
Y588900D02*
D03*
Y563500D02*
D03*
Y487300D02*
D03*
Y461900D02*
D03*
Y436500D02*
D03*
Y385700D02*
D03*
Y360300D02*
D03*
Y334900D02*
D03*
Y309500D02*
D03*
Y284100D02*
D03*
X66000Y258700D02*
D03*
Y284100D02*
D03*
Y309500D02*
D03*
Y334900D02*
D03*
Y360300D02*
D03*
Y385700D02*
D03*
Y411100D02*
D03*
Y436500D02*
D03*
Y461900D02*
D03*
Y487300D02*
D03*
Y512700D02*
D03*
Y538100D02*
D03*
Y563500D02*
D03*
Y588900D02*
D03*
Y614300D02*
D03*
Y639700D02*
D03*
Y665100D02*
D03*
Y690500D02*
D03*
Y715900D02*
D03*
D72*
X464000Y258700D02*
D03*
X286000Y741300D02*
D03*
X244000Y258700D02*
D03*
X66000Y741300D02*
D03*
D73*
X180340Y685800D02*
D03*
X400050D02*
D03*
D74*
X154940D02*
D03*
X129540D02*
D03*
X374650D02*
D03*
X349250D02*
D03*
D75*
X470000Y945000D02*
D03*
X60000D02*
D03*
X470000Y55000D02*
D03*
X60000D02*
D03*
M02*
