G04*
G04 #@! TF.GenerationSoftware,Altium Limited,Altium Designer,23.0.1 (38)*
G04*
G04 Layer_Color=32896*
%FSLAX44Y44*%
%MOMM*%
G71*
G04*
G04 #@! TF.SameCoordinates,BC9D6512-4978-4A19-9F96-E8A3AF7CD3FB*
G04*
G04*
G04 #@! TF.FilePolarity,Positive*
G04*
G01*
G75*
%ADD11C,0.2000*%
%ADD14C,0.2540*%
%ADD79C,0.1524*%
G36*
X164454Y832304D02*
X164545Y832213D01*
X164581Y794986D01*
X164617Y794733D01*
X164545Y794479D01*
X164454Y794425D01*
X164055Y794388D01*
X163946Y794425D01*
X163874Y794388D01*
X123113Y794406D01*
X122805Y794388D01*
X122551Y794425D01*
X122479Y794533D01*
X122443Y794678D01*
X122461Y800170D01*
X122497Y800279D01*
X122533Y800351D01*
X122714Y800424D01*
X158183Y800406D01*
X158437Y800442D01*
X158564Y800605D01*
X158600Y809957D01*
X158527Y810247D01*
X158473Y810301D01*
X127336Y810337D01*
X126973Y810374D01*
X126828Y810410D01*
X126738Y810500D01*
X126702Y816083D01*
X126738Y816228D01*
X126865Y816318D01*
X158219Y816355D01*
X158473Y816391D01*
X158564Y816481D01*
X158600Y825870D01*
X158527Y826160D01*
X158437Y826250D01*
X122732Y826286D01*
X122587Y826323D01*
X122497Y826413D01*
X122461Y832068D01*
X122497Y832213D01*
X122551Y832267D01*
X122678Y832322D01*
X147997Y832304D01*
X164055D01*
X164200Y832340D01*
X164454Y832304D01*
D02*
G37*
G36*
X210724Y832286D02*
X211051Y832249D01*
X211268Y832213D01*
X211449Y832177D01*
X212029Y832032D01*
X212446Y831977D01*
X212591Y831941D01*
X212972Y831778D01*
X213316Y831651D01*
X213606Y831579D01*
X213860Y831397D01*
X214150Y831289D01*
X214331Y831216D01*
X214440Y831107D01*
X214639Y830981D01*
X214875Y830890D01*
X215056Y830709D01*
X215310Y830564D01*
X215527Y830346D01*
X215600Y830310D01*
X215672Y830238D01*
X215745Y830201D01*
X216035Y829911D01*
X216107Y829875D01*
X216451Y829531D01*
X216488Y829458D01*
X216778Y829168D01*
X216814Y829096D01*
X216923Y828987D01*
X217176Y828661D01*
X217213Y828588D01*
X217321Y828516D01*
X217503Y828189D01*
X217575Y828117D01*
X217612Y828045D01*
X217684Y827972D01*
X217793Y827791D01*
X217901Y827537D01*
X217938Y827465D01*
X218065Y827338D01*
X218137Y827156D01*
X218191Y826957D01*
X218300Y826703D01*
X218391Y826613D01*
X218463Y826432D01*
X218536Y826069D01*
X218590Y825870D01*
X218681Y825670D01*
X218735Y825471D01*
X218808Y825290D01*
X218844Y824818D01*
X218880Y824710D01*
X218916Y823912D01*
X218953Y823803D01*
X218934Y818819D01*
X218898Y818312D01*
X218844Y817678D01*
X218808Y817424D01*
X218771Y817279D01*
X218681Y816971D01*
X218536Y816572D01*
X218481Y816264D01*
X218373Y816010D01*
X218336Y815938D01*
X218282Y815883D01*
X218119Y815430D01*
X218046Y815249D01*
X217974Y815176D01*
X217720Y814705D01*
X217684Y814633D01*
X217630Y814615D01*
X217575Y814524D01*
X217394Y814198D01*
X217213Y814017D01*
X217068Y813763D01*
X216778Y813473D01*
X216742Y813400D01*
X216415Y813074D01*
X216379Y813002D01*
X216288Y812911D01*
X216216Y812875D01*
X215890Y812549D01*
X215817Y812512D01*
X215618Y812313D01*
X215273Y812077D01*
X215201Y812041D01*
X215056Y811896D01*
X214802Y811751D01*
X214730Y811715D01*
X214621Y811606D01*
X214367Y811461D01*
X214186Y811389D01*
X213932Y811207D01*
X213425Y811026D01*
X213117Y810863D01*
X212881Y810772D01*
X212627Y810736D01*
X211993Y810537D01*
X211794Y810482D01*
X211685Y810446D01*
X210960Y810410D01*
X210851Y810374D01*
X189211Y810337D01*
X182759D01*
X182397Y810301D01*
X182089Y810210D01*
X181744Y810084D01*
X181599Y810047D01*
X181418Y809975D01*
X181309Y809866D01*
X181055Y809721D01*
X180602Y809268D01*
X180566Y809196D01*
X180494Y809123D01*
X180457Y809051D01*
X180385Y809014D01*
X180258Y808815D01*
X180167Y808579D01*
X179986Y808181D01*
X179914Y807999D01*
X179877Y803432D01*
X179914Y802852D01*
X179950Y802707D01*
X180113Y802327D01*
X180204Y802091D01*
X180312Y801837D01*
X180494Y801656D01*
X180602Y801475D01*
X180693Y801384D01*
X180765Y801348D01*
X181019Y801094D01*
X181273Y800949D01*
X181382Y800840D01*
X181581Y800714D01*
X181780Y800659D01*
X182034Y800587D01*
X182215Y800514D01*
X182360Y800478D01*
X182469Y800442D01*
X209872Y800406D01*
X210362Y800460D01*
X210543Y800496D01*
X210888Y800623D01*
X211178Y800695D01*
X211359Y800768D01*
X211467Y800877D01*
X211794Y801058D01*
X211848Y801112D01*
X211884Y801185D01*
X212011Y801312D01*
X212084Y801348D01*
X212247Y801547D01*
X212283Y801620D01*
X212464Y801801D01*
X212573Y801982D01*
X212863Y802598D01*
X212899Y802961D01*
X212936Y803215D01*
X212972Y803360D01*
X213026Y803414D01*
X218681Y803450D01*
X218826Y803414D01*
X218934Y803305D01*
X218916Y802454D01*
X218880Y802309D01*
X218844Y801837D01*
X218808Y801475D01*
X218735Y801221D01*
X218699Y801076D01*
X218608Y800877D01*
X218572Y800732D01*
X218481Y800351D01*
X218191Y799735D01*
X218155Y799590D01*
X218046Y799336D01*
X218010Y799264D01*
X217920Y799173D01*
X217738Y798774D01*
X217575Y798575D01*
X217430Y798321D01*
X217249Y798140D01*
X217104Y797886D01*
X217031Y797814D01*
X216995Y797741D01*
X216778Y797524D01*
X216742Y797451D01*
X216379Y797089D01*
X216343Y797016D01*
X216252Y796926D01*
X216180Y796889D01*
X215980Y796690D01*
X215781Y796527D01*
X215708Y796491D01*
X215491Y796273D01*
X215165Y796092D01*
X214984Y795911D01*
X214657Y795730D01*
X214585Y795693D01*
X214422Y795530D01*
X214077Y795403D01*
X213896Y795294D01*
X213570Y795113D01*
X213280Y795041D01*
X212899Y794841D01*
X212519Y794751D01*
X212265Y794715D01*
X212120Y794678D01*
X211703Y794551D01*
X211558Y794515D01*
X211141Y794461D01*
X211033Y794425D01*
X183629Y794388D01*
X182179Y794425D01*
X181599Y794461D01*
X181454Y794497D01*
X181200Y794533D01*
X180784Y794660D01*
X180367Y794751D01*
X180113Y794787D01*
X179787Y794932D01*
X179515Y795059D01*
X179279Y795113D01*
X179025Y795222D01*
X178772Y795403D01*
X178627Y795440D01*
X178446Y795512D01*
X178337Y795621D01*
X177866Y795874D01*
X177793Y795947D01*
X177467Y796201D01*
X177394Y796237D01*
X177213Y796418D01*
X177141Y796454D01*
X177068Y796527D01*
X176996Y796563D01*
X176742Y796817D01*
X176669Y796853D01*
X176434Y797089D01*
X176398Y797161D01*
X176071Y797487D01*
X176035Y797560D01*
X175926Y797669D01*
X175673Y797995D01*
X175636Y798067D01*
X175455Y798249D01*
X175274Y798575D01*
X175165Y798684D01*
X174984Y799010D01*
X174911Y799191D01*
X174839Y799264D01*
X174803Y799336D01*
X174748Y799390D01*
X174621Y799735D01*
X174531Y799970D01*
X174386Y800188D01*
X174295Y800569D01*
X174241Y800768D01*
X174205Y800913D01*
X174023Y801420D01*
X173987Y801602D01*
X173933Y802345D01*
X173897Y802454D01*
X173860Y806948D01*
X173897Y808072D01*
X173933Y808434D01*
X173969Y808906D01*
X174005Y809268D01*
X174132Y809685D01*
X174241Y809975D01*
X174277Y810120D01*
X174313Y810301D01*
X174368Y810537D01*
X174531Y810809D01*
X174730Y811370D01*
X174785Y811425D01*
X174966Y811715D01*
X175056Y811950D01*
X175201Y812095D01*
X175383Y812422D01*
X175564Y812603D01*
X175709Y812857D01*
X175781Y812929D01*
X175818Y813002D01*
X176035Y813219D01*
X176071Y813292D01*
X176434Y813654D01*
X176470Y813727D01*
X176524Y813781D01*
X176597Y813817D01*
X176887Y814107D01*
X176959Y814143D01*
X177032Y814216D01*
X177104Y814252D01*
X177267Y814415D01*
X177612Y814651D01*
X177684Y814687D01*
X177739Y814742D01*
X177775Y814814D01*
X178156Y815013D01*
X178228Y815086D01*
X178301Y815122D01*
X178391Y815213D01*
X178572Y815285D01*
X178808Y815376D01*
X178862Y815430D01*
X179152Y815611D01*
X179297Y815648D01*
X179533Y815702D01*
X179805Y815865D01*
X179986Y815938D01*
X180167Y815974D01*
X180476Y816028D01*
X180620Y816065D01*
X180820Y816119D01*
X181055Y816209D01*
X181164Y816246D01*
X181527Y816282D01*
X181635Y816318D01*
X209872Y816355D01*
X210452Y816391D01*
X210742Y816463D01*
X210942Y816554D01*
X211286Y816681D01*
X211467Y816753D01*
X211558Y816844D01*
X211757Y817007D01*
X211830Y817043D01*
X212120Y817333D01*
X212283Y817533D01*
X212374Y817660D01*
X212446Y817696D01*
X212791Y818366D01*
X212863Y818548D01*
X212899Y818656D01*
X212936Y823441D01*
X212899Y823912D01*
X212827Y824166D01*
X212700Y824402D01*
X212609Y824637D01*
X212500Y824891D01*
X212301Y825090D01*
X212156Y825308D01*
X212084Y825344D01*
X212011Y825416D01*
X211939Y825453D01*
X211921Y825507D01*
X211830Y825598D01*
X211431Y825815D01*
X211377Y825870D01*
X211087Y826051D01*
X210543Y826160D01*
X210235Y826214D01*
X210126Y826250D01*
X182668Y826232D01*
X182451Y826196D01*
X182270Y826160D01*
X181672Y826033D01*
X181454Y825888D01*
X181055Y825670D01*
X181001Y825616D01*
X180965Y825543D01*
X180874Y825453D01*
X180802Y825416D01*
X180639Y825253D01*
X180530Y825072D01*
X180294Y824837D01*
X180204Y824601D01*
X179950Y824057D01*
X179914Y823767D01*
X179877Y823405D01*
X179787Y823314D01*
X174132Y823278D01*
X173969Y823332D01*
X173878Y823459D01*
X173897Y824130D01*
X173933Y824383D01*
X173969Y824855D01*
X174005Y825217D01*
X174132Y825634D01*
X174241Y825924D01*
X174277Y826069D01*
X174331Y826341D01*
X174476Y826667D01*
X174621Y826921D01*
X174694Y827211D01*
X174839Y827428D01*
X175093Y827899D01*
X175129Y827972D01*
X175201Y828045D01*
X175383Y828371D01*
X175509Y828498D01*
X175673Y828697D01*
X175709Y828770D01*
X175926Y828987D01*
X175963Y829059D01*
X176035Y829132D01*
X176071Y829204D01*
X176742Y829875D01*
X176814Y829911D01*
X177014Y830111D01*
X177213Y830274D01*
X177286Y830310D01*
X177431Y830455D01*
X177684Y830636D01*
X177757Y830673D01*
X177902Y830817D01*
X178156Y830962D01*
X178337Y831035D01*
X178446Y831144D01*
X178572Y831234D01*
X178917Y831361D01*
X179170Y831542D01*
X179461Y831651D01*
X179750Y831724D01*
X179950Y831814D01*
X180167Y831923D01*
X180312Y831959D01*
X180784Y832032D01*
X180965Y832068D01*
X181255Y832141D01*
X181490Y832195D01*
X181599Y832231D01*
X182034Y832267D01*
X182143Y832304D01*
X210724Y832286D01*
D02*
G37*
G36*
X139733Y781158D02*
X139823Y781067D01*
X139860Y779291D01*
X139896Y779146D01*
X139860Y778892D01*
X139823Y778747D01*
X139769Y778693D01*
X136434Y778657D01*
X135637D01*
X135456Y778584D01*
X135383Y778403D01*
X135347Y761113D01*
X135220Y761022D01*
X135075Y760986D01*
X133389Y761004D01*
X133244Y760968D01*
X132954Y761040D01*
X132864Y761203D01*
X132882Y761512D01*
X132864Y779835D01*
X132900Y780197D01*
X132864Y780306D01*
X132900Y780560D01*
X132864Y780668D01*
X132900Y781031D01*
X132991Y781122D01*
X133118Y781176D01*
X139334Y781158D01*
X139479Y781194D01*
X139733Y781158D01*
D02*
G37*
G36*
X143539Y763650D02*
X143630Y763523D01*
X143666Y761240D01*
X143630Y761095D01*
X143575Y761040D01*
X141400Y761004D01*
X141255Y761040D01*
X141165Y761131D01*
X141128Y763270D01*
X141201Y763559D01*
X141328Y763686D01*
X141618Y763723D01*
X141654D01*
X141817Y763704D01*
X143285Y763723D01*
X143539Y763650D01*
D02*
G37*
G36*
X211576Y781158D02*
X212084Y781085D01*
X212283Y781031D01*
X212573Y780922D01*
X212990Y780832D01*
X213135Y780795D01*
X213389Y780687D01*
X213588Y780560D01*
X213824Y780469D01*
X214005Y780397D01*
X214114Y780288D01*
X214512Y780070D01*
X214694Y779889D01*
X214875Y779780D01*
X215201Y779454D01*
X215273Y779418D01*
X215328Y779363D01*
X215364Y779291D01*
X215690Y778965D01*
X215727Y778892D01*
X215944Y778675D01*
X216125Y778349D01*
X216180Y778294D01*
X216343Y778095D01*
X216379Y778022D01*
X216524Y777660D01*
X216597Y777587D01*
X216723Y777388D01*
X216778Y777152D01*
X216814Y777007D01*
X216959Y776681D01*
X216995Y776536D01*
X217068Y776355D01*
X217104Y775847D01*
X217140Y775739D01*
X217176Y767619D01*
X217140Y766930D01*
X217104Y766133D01*
X217068Y765879D01*
X216995Y765589D01*
X216905Y765390D01*
X216832Y765209D01*
X216742Y764828D01*
X216669Y764647D01*
X216597Y764574D01*
X216506Y764447D01*
X216415Y764212D01*
X216343Y764031D01*
X216198Y763886D01*
X216017Y763559D01*
X215763Y763306D01*
X215727Y763233D01*
X215437Y762943D01*
X215346Y762816D01*
X215273Y762780D01*
X215038Y762544D01*
X214839Y762381D01*
X214766Y762345D01*
X214548Y762128D01*
X214222Y761946D01*
X214150Y761910D01*
X214077Y761838D01*
X213824Y761693D01*
X213497Y761548D01*
X213370Y761457D01*
X213189Y761385D01*
X212954Y761330D01*
X212809Y761294D01*
X212500Y761203D01*
X212319Y761131D01*
X212120Y761077D01*
X212011Y761040D01*
X198926Y761004D01*
X198346Y761040D01*
X198092Y761077D01*
X197838Y761149D01*
X197603Y761240D01*
X197313Y761312D01*
X197077Y761366D01*
X196823Y761439D01*
X196751Y761512D01*
X196678Y761548D01*
X196624Y761602D01*
X196388Y761693D01*
X196135Y761801D01*
X195990Y761946D01*
X195663Y762128D01*
X195591Y762164D01*
X195573Y762218D01*
X195518Y762273D01*
X195337Y762381D01*
X195011Y762708D01*
X194938Y762744D01*
X194848Y762834D01*
X194811Y762907D01*
X194522Y763197D01*
X194485Y763270D01*
X194231Y763523D01*
X194087Y763777D01*
X194050Y763849D01*
X193942Y763958D01*
X193815Y764158D01*
X193760Y764357D01*
X193615Y764574D01*
X193489Y764774D01*
X193452Y764919D01*
X193398Y765154D01*
X193271Y765462D01*
X193199Y765644D01*
X193126Y765934D01*
X193072Y766640D01*
X193035Y766894D01*
X193072Y767148D01*
X193162Y767239D01*
X195301Y767275D01*
X195446Y767239D01*
X195536Y767112D01*
X195573Y766640D01*
X195609Y766387D01*
X195772Y766006D01*
X195863Y765771D01*
X195899Y765626D01*
X195971Y765444D01*
X196080Y765336D01*
X196261Y765009D01*
X196515Y764756D01*
X196551Y764683D01*
X196714Y764520D01*
X196787Y764484D01*
X197005Y764266D01*
X197403Y764049D01*
X197458Y763994D01*
X197748Y763813D01*
X197983Y763759D01*
X198128Y763723D01*
X198454Y763578D01*
X198781Y763541D01*
X198889Y763505D01*
X210344Y763469D01*
X211033Y763505D01*
X211504Y763541D01*
X211794Y763614D01*
X212047Y763723D01*
X212337Y763795D01*
X212591Y763868D01*
X212700Y763976D01*
X213099Y764194D01*
X213171Y764230D01*
X213225Y764321D01*
X213425Y764484D01*
X213497Y764520D01*
X213552Y764574D01*
X213588Y764647D01*
X213660Y764719D01*
X213697Y764792D01*
X213751Y764810D01*
X213878Y764937D01*
X213914Y765009D01*
X214077Y765281D01*
X214240Y765481D01*
X214422Y765988D01*
X214548Y766224D01*
X214603Y766423D01*
X214639Y766532D01*
X214675Y774941D01*
X214639Y775413D01*
X214603Y775775D01*
X214422Y776174D01*
X214349Y776355D01*
X214313Y776500D01*
X214240Y776681D01*
X214204Y776754D01*
X214095Y776862D01*
X213914Y777189D01*
X213624Y777479D01*
X213588Y777551D01*
X213534Y777606D01*
X213352Y777714D01*
X213135Y777932D01*
X212736Y778149D01*
X212664Y778186D01*
X212591Y778258D01*
X212464Y778349D01*
X212229Y778403D01*
X212084Y778439D01*
X211830Y778512D01*
X211649Y778584D01*
X211395Y778621D01*
X211286Y778657D01*
X199868Y778693D01*
X199071Y778657D01*
X198563Y778584D01*
X198328Y778494D01*
X197947Y778403D01*
X197802Y778367D01*
X197621Y778294D01*
X197548Y778222D01*
X197077Y777968D01*
X196823Y777714D01*
X196751Y777678D01*
X196624Y777551D01*
X196588Y777479D01*
X196443Y777334D01*
X196425Y777316D01*
X196388Y777279D01*
X196153Y776935D01*
X196116Y776862D01*
X196044Y776790D01*
X195953Y776663D01*
X195863Y776428D01*
X195826Y776283D01*
X195609Y775811D01*
X195573Y775231D01*
X195500Y774977D01*
X195355Y774905D01*
X193960Y774923D01*
X193380Y774887D01*
X193126Y774959D01*
X193035Y775123D01*
X193053Y775394D01*
X193090Y775793D01*
X193126Y776228D01*
X193180Y776464D01*
X193380Y776953D01*
X193416Y777098D01*
X193470Y777334D01*
X193543Y777515D01*
X193615Y777587D01*
X193760Y777841D01*
X193869Y778095D01*
X193905Y778167D01*
X194014Y778276D01*
X194195Y778602D01*
X194449Y778856D01*
X194485Y778929D01*
X194775Y779219D01*
X194811Y779291D01*
X194938Y779418D01*
X195011Y779454D01*
X195210Y779653D01*
X195410Y779817D01*
X195482Y779853D01*
X195663Y780034D01*
X195845Y780143D01*
X196026Y780215D01*
X196080Y780270D01*
X196280Y780433D01*
X196461Y780505D01*
X196696Y780596D01*
X196986Y780777D01*
X197131Y780814D01*
X197367Y780868D01*
X197512Y780904D01*
X197711Y780958D01*
X197856Y780995D01*
X198038Y781067D01*
X198382Y781122D01*
X198491Y781158D01*
X209691Y781194D01*
X211576Y781158D01*
D02*
G37*
G36*
X166846D02*
X166991Y781122D01*
X167082Y781031D01*
X167118Y773165D01*
X167082Y772803D01*
X167154Y772513D01*
X167245Y772422D01*
X167372Y772368D01*
X185097Y772331D01*
X185296Y772350D01*
X185478Y772422D01*
X185586Y772603D01*
X185623Y772785D01*
X185605Y780886D01*
X185641Y781031D01*
X185768Y781122D01*
X187761Y781158D01*
X188015Y781122D01*
X188106Y781031D01*
X188142Y779436D01*
Y779400D01*
Y761530D01*
X188178Y761385D01*
X188142Y761131D01*
X188015Y761040D01*
X185985Y761004D01*
X185731Y761040D01*
X185586Y761221D01*
X185605Y769214D01*
X185641Y769323D01*
X185605Y769577D01*
X185387Y769758D01*
X185079Y769812D01*
X184970Y769776D01*
X167734Y769794D01*
X167390Y769776D01*
X167209Y769704D01*
X167118Y769577D01*
X167082Y769323D01*
X167118Y769214D01*
X167100Y761656D01*
X167118Y761167D01*
X166991Y761040D01*
X164816Y761004D01*
X164671Y761040D01*
X164617Y761095D01*
X164581Y780777D01*
X164617Y781031D01*
X164708Y781122D01*
X166520Y781158D01*
X166629Y781194D01*
X166846Y781158D01*
D02*
G37*
G36*
X154196Y781122D02*
X154286Y781031D01*
X154341Y780904D01*
X154323Y779472D01*
X154359Y779110D01*
X154323Y778856D01*
X154123Y778693D01*
X150136Y778657D01*
X149991Y778621D01*
X149882Y778439D01*
X149846Y761729D01*
X149864Y761167D01*
X149701Y761040D01*
X147562Y761004D01*
X147381Y761077D01*
X147309Y761149D01*
X147272Y761294D01*
X147290Y778312D01*
Y778349D01*
Y780850D01*
X147327Y780995D01*
X147454Y781122D01*
X153942Y781158D01*
X154196Y781122D01*
D02*
G37*
G36*
X365594Y860867D02*
X365847Y860758D01*
X366971Y860722D01*
X367080Y860758D01*
X367297Y860722D01*
X367460Y860668D01*
X367750Y860559D01*
X367932Y860523D01*
X368856Y860541D01*
X369110Y860505D01*
X369309Y860450D01*
X369490Y860414D01*
X369980Y860432D01*
X370360Y860269D01*
X371303Y860233D01*
X371720Y860178D01*
X371828Y860142D01*
X371937Y860178D01*
X372191Y860142D01*
X372372Y860070D01*
X372843Y860033D01*
X373061Y859888D01*
X373387Y859852D01*
X373641Y859816D01*
X373786Y859780D01*
X374039Y859671D01*
X374293Y859635D01*
X374402Y859671D01*
X374583Y859635D01*
X374782Y859544D01*
X374982Y859490D01*
X375598Y859417D01*
X375906Y859290D01*
X376323Y859236D01*
X376504Y859163D01*
X376830Y859127D01*
X376975Y859091D01*
X377229Y858982D01*
X377555Y858801D01*
X378063Y858765D01*
X378371Y858674D01*
X378733Y858529D01*
X378878Y858493D01*
X379060Y858456D01*
X379513Y858402D01*
X379767Y858293D01*
X379839Y858257D01*
X379893Y858203D01*
X380075Y858130D01*
X380220Y858094D01*
X380528Y858040D01*
X380800Y857877D01*
X381035Y857786D01*
X381180Y857750D01*
X381434Y857713D01*
X381688Y857605D01*
X381887Y857478D01*
X382195Y857423D01*
X382340Y857387D01*
X382594Y857278D01*
X382666Y857242D01*
X382757Y857152D01*
X382938Y857079D01*
X383174Y857025D01*
X383482Y856934D01*
X383844Y856789D01*
X384261Y856699D01*
X384442Y856626D01*
X384551Y856517D01*
X384878Y856336D01*
X385331Y856100D01*
X385711Y856010D01*
X385965Y855937D01*
X386219Y855756D01*
X386400Y855684D01*
X386690Y855611D01*
X386853Y855520D01*
X386889Y855448D01*
X387071Y855339D01*
X387215Y855303D01*
X387415Y855249D01*
X387687Y855085D01*
X388031Y854959D01*
X388212Y854886D01*
X388357Y854741D01*
X388557Y854614D01*
X388756Y854560D01*
X389028Y854397D01*
X389318Y854288D01*
X389553Y854234D01*
X389644Y854143D01*
X389735Y854016D01*
X389988Y853871D01*
X390206Y853726D01*
X390387Y853617D01*
X390750Y853472D01*
X390822Y853400D01*
X390949Y853309D01*
X391185Y853219D01*
X391366Y853146D01*
X391583Y852929D01*
X392236Y852566D01*
X392381Y852530D01*
X392508Y852403D01*
X392961Y852095D01*
X393033Y852059D01*
X393142Y851950D01*
X393686Y851660D01*
X394084Y851442D01*
X394302Y851225D01*
X394628Y851044D01*
X394701Y851008D01*
X394773Y850935D01*
X394954Y850826D01*
X395136Y850754D01*
X395262Y850627D01*
X395462Y850464D01*
X395534Y850428D01*
X395788Y850174D01*
X396042Y850029D01*
X396114Y849993D01*
X396259Y849848D01*
X396513Y849703D01*
X396803Y849413D01*
X397129Y849231D01*
X397202Y849195D01*
X397274Y849123D01*
X397347Y849086D01*
X397419Y849014D01*
X397492Y848978D01*
X397782Y848688D01*
X397854Y848651D01*
X398017Y848525D01*
X398217Y848361D01*
X398289Y848325D01*
X398398Y848216D01*
X398724Y847963D01*
X398869Y847745D01*
X399195Y847564D01*
X399268Y847528D01*
X399449Y847346D01*
X399522Y847310D01*
X399594Y847238D01*
X399667Y847202D01*
X399685Y847147D01*
X399957Y846875D01*
X400029Y846839D01*
X400102Y846767D01*
X400355Y846621D01*
X400518Y846458D01*
X400555Y846386D01*
X401334Y845607D01*
X401407Y845570D01*
X401497Y845480D01*
X401533Y845407D01*
X401733Y845208D01*
X401805Y845172D01*
X402059Y844990D01*
X402132Y844954D01*
X402548Y844537D01*
X402585Y844465D01*
X402784Y844265D01*
X402856Y844229D01*
X403273Y843812D01*
X403310Y843740D01*
X403455Y843595D01*
X403636Y843341D01*
X403672Y843269D01*
X403726Y843214D01*
X403799Y843178D01*
X403962Y843015D01*
X403998Y842942D01*
X404125Y842815D01*
X404343Y842779D01*
X404524Y842852D01*
X404596Y842888D01*
X404778Y843069D01*
X405430Y843432D01*
X405684Y843540D01*
X405756Y843577D01*
X405865Y843686D01*
X406264Y843903D01*
X406445Y844012D01*
X406699Y844157D01*
X406952Y844265D01*
X407025Y844338D01*
X407496Y844592D01*
X407641Y844737D01*
X408692Y845280D01*
X408765Y845317D01*
X408837Y845425D01*
X409091Y845570D01*
X409345Y845679D01*
X409599Y845860D01*
X409743Y845897D01*
X410015Y846060D01*
X410305Y846241D01*
X410505Y846295D01*
X410722Y846513D01*
X410976Y846658D01*
X411121Y846694D01*
X411338Y846839D01*
X411592Y846984D01*
X411665Y847020D01*
X411719Y847075D01*
X411918Y847238D01*
X411991Y847274D01*
X412353Y847419D01*
X412426Y847492D01*
X412498Y847528D01*
X412553Y847582D01*
X412952Y847727D01*
X413151Y847890D01*
X413477Y848072D01*
X413550Y848108D01*
X413658Y848216D01*
X413785Y848307D01*
X414184Y848452D01*
X414401Y848597D01*
X414637Y848688D01*
X414945Y848996D01*
X415289Y849123D01*
X415543Y849304D01*
X415616Y849340D01*
X415978Y849485D01*
X416051Y849521D01*
X416159Y849630D01*
X416413Y849775D01*
X416486Y849811D01*
X416667Y849993D01*
X416957Y850101D01*
X417102Y850138D01*
X417356Y850319D01*
X417682Y850500D01*
X417754Y850536D01*
X417918Y850699D01*
X418262Y850826D01*
X418443Y850899D01*
X418697Y851080D01*
X419132Y851116D01*
X419240Y851153D01*
X421198Y851189D01*
X421669Y851044D01*
X422467Y850681D01*
X422539Y850645D01*
X422811Y850373D01*
X423010Y850210D01*
X423318Y850047D01*
X423536Y849648D01*
X423663Y849521D01*
X423898Y849177D01*
X423935Y849105D01*
X423989Y849050D01*
X424170Y848760D01*
X424225Y848561D01*
X424279Y848506D01*
X424442Y848307D01*
X424623Y847981D01*
X424660Y847908D01*
X424732Y847836D01*
X425022Y847292D01*
X425167Y847038D01*
X425239Y846785D01*
X425330Y846694D01*
X425457Y846603D01*
X425602Y846350D01*
X425856Y845806D01*
X425928Y845625D01*
X426091Y845462D01*
X426255Y845262D01*
X426291Y845081D01*
X426255Y844936D01*
X426091Y844809D01*
X426019Y844773D01*
X425874Y844628D01*
X425620Y844447D01*
X425548Y844410D01*
X425384Y844284D01*
X425149Y844193D01*
X424968Y844120D01*
X424895Y844084D01*
X424786Y843976D01*
X424587Y843849D01*
X424351Y843758D01*
X424134Y843613D01*
X423808Y843432D01*
X423409Y843178D01*
X423264Y843142D01*
X423010Y843033D01*
X422793Y842815D01*
X422467Y842634D01*
X422394Y842598D01*
X422340Y842544D01*
X422050Y842435D01*
X421850Y842381D01*
X421633Y842163D01*
X421307Y841982D01*
X420690Y841656D01*
X420618Y841619D01*
X420491Y841492D01*
X420255Y841402D01*
X420074Y841329D01*
X420002Y841293D01*
X419893Y841184D01*
X419712Y841076D01*
X419458Y840894D01*
X419385Y840858D01*
X419331Y840804D01*
X419150Y840731D01*
X418914Y840677D01*
X418733Y840604D01*
X418679Y840550D01*
X418642Y840478D01*
X418552Y840387D01*
X418153Y840169D01*
X417899Y840024D01*
X417754Y839988D01*
X417501Y839807D01*
X417247Y839662D01*
X417011Y839571D01*
X416812Y839408D01*
X416558Y839263D01*
X416159Y839009D01*
X416014Y838973D01*
X415761Y838865D01*
X415688Y838792D01*
X415616Y838756D01*
X415543Y838683D01*
X415289Y838538D01*
X415000Y838357D01*
X414710Y838248D01*
X414528Y838176D01*
X414438Y838085D01*
X414401Y838013D01*
X414166Y837886D01*
X413984Y837813D01*
X413912Y837741D01*
X413586Y837560D01*
X413405Y837487D01*
X413332Y837415D01*
X413006Y837233D01*
X412752Y837161D01*
X412553Y836962D01*
X412263Y836780D01*
X412045Y836635D01*
X411701Y836508D01*
X411520Y836436D01*
X411375Y836291D01*
X410976Y836073D01*
X410904Y836037D01*
X410777Y835910D01*
X410541Y835820D01*
X410360Y835747D01*
X410287Y835711D01*
X410142Y835566D01*
X410070Y835530D01*
X409707Y835385D01*
X409599Y835276D01*
X409200Y835059D01*
X409091Y834950D01*
X409019Y834913D01*
X408964Y834859D01*
X408765Y834805D01*
X408439Y834660D01*
X408112Y834406D01*
X407605Y834116D01*
X407424Y834044D01*
X407242Y833935D01*
X406989Y833754D01*
X406844Y833717D01*
X406372Y833391D01*
X406227Y833355D01*
X406010Y833210D01*
X405883Y833119D01*
X405430Y832956D01*
X405249Y832775D01*
X405176Y832739D01*
X404886Y832557D01*
X404560Y832376D01*
X404234Y832231D01*
X404161Y832195D01*
X404089Y832122D01*
X403618Y831869D01*
X403509Y831760D01*
X403038Y831506D01*
X402838Y831379D01*
X402657Y831307D01*
X402458Y831252D01*
X402240Y831035D01*
X402113Y830944D01*
X401878Y830854D01*
X401624Y830673D01*
X401479Y830636D01*
X401298Y830564D01*
X401008Y830383D01*
X400790Y830455D01*
X400736Y830509D01*
X400392Y830636D01*
X400011Y830836D01*
X399775Y830926D01*
X399522Y831035D01*
X399377Y831180D01*
X399250Y831271D01*
X399050Y831325D01*
X398724Y831470D01*
X398670Y831524D01*
X398434Y831615D01*
X398253Y831687D01*
X398072Y831796D01*
X397383Y832159D01*
X397129Y832304D01*
X396948Y832376D01*
X396803Y832412D01*
X396586Y832557D01*
X396513Y832594D01*
X396259Y832702D01*
X396114Y832739D01*
X396006Y832847D01*
X395879Y832938D01*
X395661Y833047D01*
X395462Y833101D01*
X395190Y833264D01*
X394846Y833391D01*
X394664Y833464D01*
X394556Y833572D01*
X394302Y833717D01*
X393776Y833989D01*
X393305Y834170D01*
X393015Y834352D01*
X392780Y834442D01*
X392598Y834515D01*
X392490Y834623D01*
X392290Y834750D01*
X392091Y834805D01*
X391910Y834877D01*
X391601Y835040D01*
X391257Y835167D01*
X391112Y835312D01*
X391040Y835348D01*
X390985Y835403D01*
X390695Y835512D01*
X390514Y835584D01*
X390297Y835729D01*
X389825Y835910D01*
X389626Y836073D01*
X389336Y836182D01*
X389155Y836255D01*
X389082Y836327D01*
X388756Y836508D01*
X388502Y836581D01*
X388230Y836744D01*
X387995Y836835D01*
X387741Y836943D01*
X387542Y837143D01*
X387089Y837306D01*
X386817Y837469D01*
X386581Y837560D01*
X386400Y837632D01*
X386146Y837813D01*
X386074Y837850D01*
X385675Y838031D01*
X385602Y838067D01*
X385512Y838158D01*
X385059Y838321D01*
X384787Y838484D01*
X384551Y838575D01*
X384297Y838683D01*
X384189Y838792D01*
X384062Y838883D01*
X383826Y838973D01*
X383210Y839263D01*
X383065Y839299D01*
X382884Y839372D01*
X382775Y839481D01*
X382449Y839662D01*
X382268Y839734D01*
X382050Y839879D01*
X381869Y839952D01*
X381398Y840169D01*
X381216Y840278D01*
X381035Y840351D01*
X380836Y840441D01*
X380636Y840604D01*
X380238Y840749D01*
X379857Y840949D01*
X379622Y841039D01*
X379440Y841112D01*
X379368Y841148D01*
X379259Y841257D01*
X379005Y841402D01*
X378389Y841692D01*
X377990Y841873D01*
X377592Y842091D01*
X377410Y842163D01*
X377157Y842344D01*
X376867Y842453D01*
X376250Y842743D01*
X375997Y842852D01*
X375924Y842888D01*
X375761Y843051D01*
X375526Y843142D01*
X375344Y843214D01*
X375036Y843377D01*
X374800Y843468D01*
X374547Y843577D01*
X374293Y843758D01*
X374112Y843830D01*
X373876Y843957D01*
X373659Y844102D01*
X373459Y844157D01*
X373061Y844338D01*
X372861Y844465D01*
X372662Y844519D01*
X372281Y844791D01*
X372046Y844882D01*
X371865Y844954D01*
X371556Y845117D01*
X371212Y845244D01*
X370849Y845498D01*
X370777Y845534D01*
X370469Y845661D01*
X370251Y845806D01*
X370016Y845897D01*
X369871Y845933D01*
X369617Y846042D01*
X369545Y846114D01*
X369363Y846223D01*
X369110Y846332D01*
X369037Y846368D01*
X368965Y846440D01*
X368838Y846531D01*
X368602Y846621D01*
X368457Y846658D01*
X368276Y846730D01*
X368185Y846821D01*
X367895Y846930D01*
X367660Y847020D01*
X367605Y847075D01*
X367388Y847220D01*
X367152Y847310D01*
X366898Y847383D01*
X366645Y847528D01*
X366518Y847582D01*
X366282Y847636D01*
X366083Y847691D01*
X365702Y847782D01*
X365322Y847945D01*
X365177Y847981D01*
X364959Y848017D01*
X364778Y848053D01*
X364633Y848090D01*
X364452Y848126D01*
X363781Y848108D01*
X363382Y848289D01*
X362549Y848325D01*
X362186Y848289D01*
X361860Y848144D01*
X361606Y848108D01*
X361135Y848144D01*
X360990Y848108D01*
X360827Y848053D01*
X360555Y847999D01*
X360193Y847963D01*
X359921Y847800D01*
X359613Y847745D01*
X358888Y847528D01*
X358725Y847437D01*
X358543Y847365D01*
X358308Y847310D01*
X358126Y847238D01*
X357873Y847057D01*
X357691Y846984D01*
X357547Y846948D01*
X356930Y846658D01*
X356785Y846621D01*
X356532Y846513D01*
X356459Y846477D01*
X356368Y846386D01*
X355861Y846132D01*
X355644Y845987D01*
X355462Y845915D01*
X355317Y845879D01*
X355136Y845806D01*
X354774Y845589D01*
X354574Y845534D01*
X354320Y845353D01*
X354067Y845208D01*
X353596Y844990D01*
X353469Y844936D01*
X353233Y844845D01*
X353052Y844773D01*
X352943Y844664D01*
X352689Y844519D01*
X352454Y844429D01*
X352164Y844247D01*
X351928Y844157D01*
X351674Y844084D01*
X351620Y844030D01*
X351403Y843885D01*
X351058Y843758D01*
X350986Y843686D01*
X350913Y843649D01*
X350822Y843559D01*
X350587Y843468D01*
X349989Y843196D01*
X349645Y843069D01*
X349590Y843015D01*
X349391Y842852D01*
X349318Y842815D01*
X349300Y842797D01*
X349028Y842707D01*
X348811Y842562D01*
X348684Y842507D01*
X348448Y842417D01*
X348195Y842344D01*
X348086Y842236D01*
X348013Y842199D01*
X347959Y842145D01*
X347723Y842054D01*
X347542Y841982D01*
X347470Y841909D01*
X347216Y841764D01*
X347071Y841728D01*
X346817Y841619D01*
X346527Y841438D01*
X346382Y841402D01*
X346128Y841293D01*
X346020Y841184D01*
X345893Y841094D01*
X345657Y841003D01*
X345277Y840804D01*
X344823Y840641D01*
X344606Y840496D01*
X343990Y840169D01*
X343736Y840024D01*
X343591Y839988D01*
X343265Y839843D01*
X343174Y839753D01*
X342939Y839662D01*
X342685Y839553D01*
X342631Y839499D01*
X342341Y839318D01*
X342105Y839227D01*
X341797Y839064D01*
X341452Y838937D01*
X341271Y838865D01*
X341181Y838774D01*
X340891Y838593D01*
X340691Y838538D01*
X340401Y838357D01*
X340329Y838321D01*
X340148Y838248D01*
X339821Y838103D01*
X339495Y837922D01*
X339241Y837813D01*
X339169Y837777D01*
X339096Y837705D01*
X338969Y837614D01*
X338788Y837542D01*
X338589Y837487D01*
X338317Y837324D01*
X337864Y837161D01*
X337719Y837016D01*
X337393Y836835D01*
X337139Y836726D01*
X337066Y836690D01*
X337012Y836635D01*
X336559Y836472D01*
X336378Y836400D01*
X336305Y836327D01*
X336233Y836291D01*
X336178Y836236D01*
X335943Y836146D01*
X335761Y836073D01*
X335689Y836001D01*
X335562Y835910D01*
X335218Y835783D01*
X334765Y835548D01*
X334529Y835457D01*
X334348Y835385D01*
X334257Y835294D01*
X333967Y835113D01*
X333768Y835059D01*
X333550Y834913D01*
X333424Y834859D01*
X332971Y834696D01*
X332898Y834623D01*
X332499Y834406D01*
X332300Y834315D01*
X332082Y834170D01*
X331738Y834044D01*
X331539Y833953D01*
X331321Y833808D01*
X331086Y833717D01*
X330904Y833645D01*
X330796Y833536D01*
X330542Y833391D01*
X330089Y833192D01*
X329871Y833083D01*
X329672Y833029D01*
X329491Y832956D01*
X329382Y832847D01*
X329056Y832666D01*
X328874Y832594D01*
X328603Y832430D01*
X328367Y832340D01*
X328041Y832195D01*
X327642Y831977D01*
X327461Y831905D01*
X327406Y831851D01*
X327189Y831706D01*
X327008Y831633D01*
X326808Y831579D01*
X326536Y831416D01*
X326083Y831252D01*
X325993Y831162D01*
X325793Y830999D01*
X325503Y830890D01*
X325322Y830817D01*
X325068Y830673D01*
X324742Y830527D01*
X324670Y830491D01*
X324651Y830437D01*
X324561Y830383D01*
X324380Y830346D01*
X324235Y830491D01*
X323909Y830673D01*
X323691Y830817D01*
X323564Y830872D01*
X323329Y830962D01*
X323274Y831017D01*
X323184Y831144D01*
X322930Y831289D01*
X322169Y831651D01*
X321915Y831832D01*
X321589Y832014D01*
X321407Y832086D01*
X321299Y832195D01*
X320682Y832521D01*
X320628Y832576D01*
X320447Y832648D01*
X320247Y832702D01*
X319957Y832992D01*
X319885Y833029D01*
X319051Y833427D01*
X318906Y833572D01*
X318580Y833754D01*
X318399Y833826D01*
X318326Y833862D01*
X318254Y833935D01*
X317783Y834189D01*
X317710Y834225D01*
X317619Y834315D01*
X317384Y834406D01*
X317130Y834515D01*
X316894Y834750D01*
X316659Y834841D01*
X316278Y835040D01*
X316043Y835131D01*
X315825Y835348D01*
X315571Y835493D01*
X315318Y835602D01*
X314919Y835820D01*
X314738Y835928D01*
X314611Y836019D01*
X314103Y836273D01*
X313886Y836454D01*
X313234Y836780D01*
X312998Y836871D01*
X312835Y837034D01*
X312799Y837106D01*
X312672Y837197D01*
X312563Y837233D01*
X312019Y837487D01*
X311838Y837560D01*
X311747Y837650D01*
X311548Y837813D01*
X311421Y837868D01*
X311185Y837958D01*
X311022Y838049D01*
X310823Y838212D01*
X310207Y838538D01*
X309953Y838647D01*
X309881Y838683D01*
X309736Y838828D01*
X309536Y838955D01*
X309300Y839046D01*
X309029Y839209D01*
X308793Y839299D01*
X308521Y839571D01*
X308286Y839662D01*
X308104Y839734D01*
X307887Y839879D01*
X307488Y840097D01*
X307416Y840133D01*
X307325Y840224D01*
X307089Y840314D01*
X306908Y840387D01*
X306836Y840423D01*
X306691Y840568D01*
X305712Y841076D01*
X305585Y841202D01*
X305549Y841275D01*
X305494Y841293D01*
X305422Y841366D01*
X305277Y841402D01*
X305023Y841511D01*
X304552Y841764D01*
X304335Y841909D01*
X304008Y842091D01*
X303827Y842163D01*
X303718Y842272D01*
X303247Y842525D01*
X302848Y842743D01*
X302595Y842852D01*
X302414Y843033D01*
X301870Y843323D01*
X301471Y843540D01*
X301399Y843577D01*
X301254Y843722D01*
X301127Y843776D01*
X300891Y843867D01*
X300674Y844012D01*
X300130Y844302D01*
X299659Y844555D01*
X299586Y844592D01*
X299387Y844791D01*
X299260Y844990D01*
X299278Y845154D01*
X299459Y845335D01*
X299677Y845733D01*
X299749Y845806D01*
X299785Y845879D01*
X299840Y845933D01*
X299967Y846277D01*
X300039Y846458D01*
X300075Y846531D01*
X300166Y846621D01*
X300347Y846911D01*
X300510Y847111D01*
X300565Y847238D01*
X300655Y847473D01*
X300800Y847691D01*
X300891Y847818D01*
X300982Y848053D01*
X301054Y848235D01*
X301108Y848289D01*
X301181Y848325D01*
X301272Y848452D01*
X301670Y849213D01*
X301743Y849286D01*
X301779Y849358D01*
X301852Y849431D01*
X301960Y849612D01*
X302667Y850319D01*
X302993Y850500D01*
X303084Y850591D01*
X303283Y850754D01*
X303428Y850790D01*
X303827Y850971D01*
X304117Y851080D01*
X304262Y851116D01*
X304371Y851153D01*
X306220Y851189D01*
X306473Y851153D01*
X306727Y851080D01*
X306963Y850989D01*
X307307Y850863D01*
X307597Y850790D01*
X307778Y850718D01*
X307996Y850500D01*
X308177Y850391D01*
X308431Y850210D01*
X308503Y850174D01*
X308902Y849993D01*
X308974Y849920D01*
X309228Y849775D01*
X309482Y849666D01*
X309554Y849630D01*
X309699Y849485D01*
X310460Y849086D01*
X310606Y849050D01*
X310859Y848796D01*
X311040Y848688D01*
X311729Y848361D01*
X312200Y848035D01*
X312345Y847999D01*
X312418Y847926D01*
X312490Y847890D01*
X312527Y847818D01*
X312654Y847727D01*
X312889Y847636D01*
X313143Y847528D01*
X313469Y847346D01*
X313687Y847202D01*
X313759Y847165D01*
X313832Y847093D01*
X314448Y846767D01*
X314846Y846549D01*
X314919Y846513D01*
X314991Y846440D01*
X315318Y846259D01*
X315499Y846187D01*
X315571Y846150D01*
X315680Y846042D01*
X315934Y845897D01*
X316079Y845860D01*
X316333Y845679D01*
X316586Y845534D01*
X316677Y845443D01*
X316967Y845262D01*
X317166Y845208D01*
X317384Y845063D01*
X317710Y844882D01*
X317964Y844773D01*
X318073Y844664D01*
X318254Y844555D01*
X318507Y844374D01*
X318834Y844193D01*
X319196Y844084D01*
X319251Y844030D01*
X319450Y843867D01*
X319704Y843722D01*
X319776Y843686D01*
X319885Y843577D01*
X320356Y843323D01*
X320555Y843196D01*
X320700Y843160D01*
X320936Y843069D01*
X321027Y842979D01*
X321063Y842906D01*
X321117Y842852D01*
X321299Y842779D01*
X321444Y842815D01*
X321534Y842906D01*
X321571Y842979D01*
X322060Y843468D01*
X322132Y843504D01*
X322187Y843559D01*
X322223Y843631D01*
X322549Y843957D01*
X322585Y844030D01*
X322640Y844084D01*
X322712Y844120D01*
X322785Y844193D01*
X322857Y844229D01*
X322912Y844284D01*
X322948Y844356D01*
X323002Y844410D01*
X323129Y844501D01*
X323165Y844574D01*
X323274Y844682D01*
X323310Y844755D01*
X323365Y844809D01*
X323437Y844845D01*
X323800Y845208D01*
X323872Y845244D01*
X323890Y845298D01*
X323963Y845371D01*
X324053Y845498D01*
X324126Y845534D01*
X324217Y845625D01*
X324253Y845697D01*
X324325Y845770D01*
X324525Y845933D01*
X324597Y845969D01*
X324688Y846060D01*
X324887Y846223D01*
X324960Y846259D01*
X325250Y846549D01*
X325322Y846585D01*
X325902Y847165D01*
X326228Y847346D01*
X326772Y847890D01*
X327026Y848035D01*
X327098Y848072D01*
X327570Y848543D01*
X327696Y848633D01*
X327932Y848724D01*
X328095Y848887D01*
X328131Y848960D01*
X328331Y849123D01*
X328403Y849159D01*
X328476Y849231D01*
X328729Y849376D01*
X328983Y849485D01*
X329074Y849576D01*
X329110Y849648D01*
X329237Y849775D01*
X329309Y849811D01*
X329454Y849956D01*
X329781Y850138D01*
X329853Y850210D01*
X329926Y850246D01*
X329998Y850319D01*
X330071Y850355D01*
X330143Y850428D01*
X330216Y850464D01*
X330433Y850681D01*
X330759Y850863D01*
X330832Y850935D01*
X331231Y851153D01*
X331412Y851225D01*
X331521Y851334D01*
X331774Y851515D01*
X331847Y851551D01*
X331992Y851696D01*
X332391Y851914D01*
X332463Y851950D01*
X332536Y852022D01*
X332789Y852168D01*
X332952Y852258D01*
X332989Y852331D01*
X333079Y852421D01*
X333260Y852530D01*
X333405Y852566D01*
X333587Y852639D01*
X333695Y852747D01*
X333949Y852893D01*
X334130Y852965D01*
X334312Y853146D01*
X334638Y853327D01*
X334910Y853491D01*
X335109Y853545D01*
X335290Y853617D01*
X335363Y853654D01*
X335381Y853708D01*
X335508Y853835D01*
X336305Y854270D01*
X336559Y854342D01*
X336831Y854505D01*
X337066Y854596D01*
X337248Y854669D01*
X337356Y854777D01*
X337429Y854814D01*
X337520Y854904D01*
X337755Y854995D01*
X338371Y855285D01*
X338734Y855394D01*
X338843Y855502D01*
X339314Y855756D01*
X339368Y855810D01*
X339604Y855901D01*
X339749Y855937D01*
X340003Y856010D01*
X340238Y856100D01*
X340456Y856245D01*
X340691Y856336D01*
X340836Y856372D01*
X341017Y856445D01*
X341072Y856499D01*
X341362Y856680D01*
X341598Y856735D01*
X341742Y856771D01*
X342069Y856916D01*
X342304Y857007D01*
X342649Y857061D01*
X342939Y857133D01*
X343084Y857278D01*
X343210Y857369D01*
X343591Y857460D01*
X343972Y857659D01*
X344389Y857750D01*
X344642Y857786D01*
X345168Y858021D01*
X345404Y858076D01*
X345657Y858148D01*
X345984Y858366D01*
X346273Y858402D01*
X346708Y858475D01*
X346908Y858529D01*
X347143Y858620D01*
X347325Y858692D01*
X347470Y858728D01*
X347723Y858765D01*
X347868Y858801D01*
X348050Y858873D01*
X348485Y858910D01*
X348539Y858964D01*
X348756Y859109D01*
X348901Y859145D01*
X349228Y859182D01*
X349536Y859236D01*
X349717Y859308D01*
X350224Y859417D01*
X350424Y859471D01*
X350804Y859526D01*
X350949Y859562D01*
X351131Y859635D01*
X351493Y859671D01*
X351747Y859780D01*
X352291Y859816D01*
X352490Y859870D01*
X352726Y859961D01*
X352979Y859997D01*
X353124Y860033D01*
X353306Y860106D01*
X353414Y860142D01*
X354103Y860178D01*
X354212Y860214D01*
X355118Y860251D01*
X355589Y860396D01*
X355698Y860432D01*
X356024Y860396D01*
X356278Y860432D01*
X356459Y860505D01*
X357510Y860541D01*
X357619Y860505D01*
X357981Y860541D01*
X358199Y860686D01*
X359576Y860722D01*
X359866Y860795D01*
X360048Y860867D01*
X365231Y860903D01*
X365594Y860867D01*
D02*
G37*
G36*
X363817Y844012D02*
X364071Y843903D01*
X364289Y843867D01*
X364542Y843830D01*
X364687Y843794D01*
X364941Y843686D01*
X364995Y843631D01*
X365177Y843559D01*
X365467Y843450D01*
X365612Y843414D01*
X365811Y843359D01*
X366047Y843232D01*
X366282Y843142D01*
X366536Y843033D01*
X366645Y842924D01*
X366898Y842779D01*
X367225Y842634D01*
X367297Y842598D01*
X367352Y842544D01*
X367587Y842453D01*
X367732Y842417D01*
X367986Y842308D01*
X368058Y842236D01*
X368602Y841946D01*
X368801Y841819D01*
X369255Y841656D01*
X369472Y841511D01*
X369599Y841456D01*
X369943Y841329D01*
X369998Y841275D01*
X370197Y841112D01*
X370324Y841058D01*
X370614Y840949D01*
X370831Y840804D01*
X371067Y840713D01*
X371212Y840677D01*
X371393Y840604D01*
X371502Y840496D01*
X371756Y840351D01*
X371991Y840260D01*
X372281Y840079D01*
X372517Y839988D01*
X372916Y839807D01*
X373169Y839662D01*
X373423Y839553D01*
X373496Y839481D01*
X373822Y839299D01*
X374438Y839009D01*
X374583Y838973D01*
X374764Y838901D01*
X374837Y838865D01*
X374945Y838756D01*
X375018Y838719D01*
X375072Y838665D01*
X375308Y838575D01*
X375562Y838466D01*
X375816Y838321D01*
X375997Y838248D01*
X376142Y838212D01*
X376359Y838067D01*
X376613Y837922D01*
X376758Y837886D01*
X376975Y837741D01*
X377175Y837614D01*
X377410Y837523D01*
X377664Y837415D01*
X377918Y837270D01*
X378063Y837233D01*
X378244Y837161D01*
X378389Y837016D01*
X378462Y836980D01*
X378516Y836925D01*
X378915Y836780D01*
X379277Y836563D01*
X379422Y836526D01*
X379622Y836472D01*
X379839Y836327D01*
X380383Y836037D01*
X380582Y835910D01*
X380818Y835820D01*
X381506Y835493D01*
X381688Y835421D01*
X381796Y835312D01*
X381996Y835185D01*
X382340Y835059D01*
X382612Y834895D01*
X382956Y834769D01*
X383138Y834696D01*
X383210Y834660D01*
X383283Y834587D01*
X383609Y834406D01*
X383862Y834297D01*
X384062Y834170D01*
X384297Y834080D01*
X384624Y833935D01*
X384950Y833754D01*
X385204Y833645D01*
X385276Y833572D01*
X385476Y833446D01*
X385820Y833319D01*
X386092Y833156D01*
X386436Y833029D01*
X386617Y832956D01*
X386726Y832847D01*
X386926Y832720D01*
X387161Y832630D01*
X387542Y832430D01*
X387886Y832304D01*
X388140Y832159D01*
X388339Y832032D01*
X388539Y831977D01*
X388756Y831832D01*
X389082Y831651D01*
X389680Y831379D01*
X390025Y831252D01*
X390170Y831107D01*
X390242Y831071D01*
X390297Y831017D01*
X390641Y830890D01*
X391021Y830691D01*
X391257Y830600D01*
X391511Y830491D01*
X391583Y830419D01*
X391656Y830383D01*
X391710Y830328D01*
X391946Y830238D01*
X392127Y830165D01*
X392200Y830092D01*
X392272Y830056D01*
X392326Y830002D01*
X392671Y829875D01*
X392997Y829730D01*
X393051Y829676D01*
X393233Y829603D01*
X393468Y829512D01*
X393523Y829458D01*
X393722Y829295D01*
X393795Y829259D01*
X393976Y829186D01*
X394121Y829150D01*
X394501Y828951D01*
X394846Y828824D01*
X395208Y828570D01*
X395498Y828461D01*
X395679Y828353D01*
X395752Y828316D01*
X395806Y828262D01*
X396042Y828171D01*
X396803Y827809D01*
X396984Y827736D01*
X397057Y827664D01*
X397256Y827537D01*
X397601Y827410D01*
X397981Y827211D01*
X398325Y827084D01*
X398398Y827011D01*
X398470Y826975D01*
X398543Y826903D01*
X398724Y826794D01*
X398887Y826631D01*
X398923Y783677D01*
X398851Y783387D01*
X398779Y783206D01*
X398742Y782771D01*
X398597Y782445D01*
X398561Y782372D01*
X398507Y782318D01*
X398380Y781973D01*
X398307Y781792D01*
X398253Y781738D01*
X398108Y781520D01*
X398054Y781321D01*
X397927Y781194D01*
X397854Y781158D01*
X397691Y780995D01*
X397601Y780868D01*
X397528Y780832D01*
X397474Y780777D01*
X397437Y780705D01*
X397238Y780505D01*
X397165Y780469D01*
X397039Y780342D01*
X397002Y780270D01*
X396857Y780161D01*
X396658Y780107D01*
X396513Y780070D01*
X396368Y779925D01*
X396114Y779780D01*
X395969Y779744D01*
X395861Y779635D01*
X395607Y779454D01*
X395462Y779418D01*
X395281Y779345D01*
X395027Y779200D01*
X394628Y779055D01*
X394411Y778911D01*
X394084Y778729D01*
X393939Y778693D01*
X393867Y778621D01*
X393541Y778439D01*
X393359Y778367D01*
X393106Y778258D01*
X393033Y778222D01*
X392979Y778167D01*
X392526Y778004D01*
X392381Y777859D01*
X392308Y777823D01*
X392254Y777769D01*
X391801Y777606D01*
X391493Y777442D01*
X391257Y777352D01*
X391076Y777279D01*
X390967Y777171D01*
X390895Y777134D01*
X390840Y777080D01*
X390605Y776989D01*
X390405Y776899D01*
X390188Y776754D01*
X389952Y776663D01*
X389626Y776518D01*
X389300Y776337D01*
X389046Y776228D01*
X388974Y776192D01*
X388901Y776119D01*
X388774Y776029D01*
X388321Y775866D01*
X388013Y775703D01*
X387669Y775576D01*
X387524Y775431D01*
X387451Y775394D01*
X387397Y775340D01*
X386926Y775159D01*
X386708Y775014D01*
X386255Y774851D01*
X385856Y774597D01*
X385711Y774561D01*
X385494Y774416D01*
X385294Y774289D01*
X385113Y774216D01*
X384878Y774162D01*
X384588Y773981D01*
X384515Y773944D01*
X384152Y773800D01*
X384098Y773745D01*
X383899Y773582D01*
X383446Y773419D01*
X383228Y773274D01*
X383047Y773201D01*
X382848Y773147D01*
X382630Y773002D01*
X382014Y772676D01*
X381688Y772495D01*
X381543Y772458D01*
X381361Y772386D01*
X380963Y772168D01*
X380709Y772060D01*
X380600Y771951D01*
X380473Y771860D01*
X380129Y771733D01*
X379676Y771498D01*
X379477Y771443D01*
X379295Y771371D01*
X379187Y771262D01*
X378860Y771081D01*
X378625Y770990D01*
X378407Y770845D01*
X378063Y770718D01*
X377882Y770646D01*
X377265Y770320D01*
X377175Y770229D01*
X376957Y770084D01*
X376758Y770030D01*
X376087Y769722D01*
X375888Y769667D01*
X375743Y769522D01*
X375417Y769341D01*
X374728Y769015D01*
X374511Y768979D01*
X374293Y768833D01*
X373894Y768616D01*
X373568Y768399D01*
X373061Y768217D01*
X372789Y768054D01*
X372553Y767964D01*
X372372Y767891D01*
X372173Y767692D01*
X371991Y767619D01*
X371756Y767529D01*
X371448Y767365D01*
X371212Y767275D01*
X370958Y767202D01*
X370849Y767094D01*
X370523Y766912D01*
X370270Y766804D01*
X370143Y766677D01*
X369961Y766604D01*
X369762Y766550D01*
X369581Y766477D01*
X369363Y766332D01*
X369291Y766296D01*
X368928Y766151D01*
X368729Y765952D01*
X368276Y765789D01*
X367968Y765626D01*
X367732Y765535D01*
X367551Y765462D01*
X367478Y765426D01*
X367370Y765318D01*
X367188Y765209D01*
X366427Y764846D01*
X366174Y764774D01*
X365992Y764665D01*
X365666Y764484D01*
X365485Y764411D01*
X365412Y764375D01*
X365249Y764212D01*
X364796Y764049D01*
X364488Y763886D01*
X364252Y763795D01*
X364071Y763723D01*
X363872Y763523D01*
X363636Y763433D01*
X363237Y763251D01*
X362984Y763106D01*
X362585Y763070D01*
X362440Y763106D01*
X361751Y763433D01*
X361570Y763505D01*
X361461Y763614D01*
X361262Y763741D01*
X361026Y763831D01*
X360845Y763904D01*
X360773Y763940D01*
X360718Y763994D01*
X360156Y764194D01*
X360048Y764303D01*
X359431Y764629D01*
X359105Y764810D01*
X358960Y764846D01*
X358707Y764955D01*
X358308Y765173D01*
X358163Y765209D01*
X358090Y765281D01*
X358018Y765318D01*
X357909Y765426D01*
X357547Y765571D01*
X357293Y765680D01*
X357238Y765734D01*
X356785Y765898D01*
X356622Y765988D01*
X356405Y766169D01*
X356042Y766314D01*
X355825Y766459D01*
X355644Y766532D01*
X355444Y766586D01*
X355263Y766659D01*
X355190Y766731D01*
X354937Y766876D01*
X354683Y766985D01*
X354610Y767021D01*
X354447Y767184D01*
X354212Y767275D01*
X354067Y767311D01*
X353650Y767511D01*
X353414Y767601D01*
X353233Y767674D01*
X353142Y767764D01*
X352943Y767927D01*
X352907D01*
X352726Y768000D01*
X352272Y768235D01*
X352073Y768290D01*
X351819Y768399D01*
X351747Y768435D01*
X351656Y768525D01*
X351149Y768779D01*
X350931Y768924D01*
X350696Y769015D01*
X350152Y769268D01*
X349790Y769414D01*
X349590Y769613D01*
X349137Y769776D01*
X348865Y769939D01*
X348521Y770066D01*
X348340Y770138D01*
X348285Y770193D01*
X347995Y770374D01*
X347760Y770465D01*
X347506Y770646D01*
X347270Y770736D01*
X347035Y770791D01*
X346781Y770972D01*
X346708Y771008D01*
X346527Y771081D01*
X346273Y771190D01*
X346110Y771353D01*
X345766Y771480D01*
X345385Y771679D01*
X345150Y771770D01*
X344842Y771897D01*
X344805Y771969D01*
X344678Y772060D01*
X344606Y772096D01*
X343845Y772458D01*
X343482Y772567D01*
X343410Y772640D01*
X342794Y772966D01*
X342721Y773002D01*
X342631Y773093D01*
X342286Y773220D01*
X341906Y773419D01*
X341452Y773582D01*
X341217Y773818D01*
X340981Y773908D01*
X340564Y774108D01*
X340220Y774234D01*
X340039Y774307D01*
X339966Y774380D01*
X339767Y774506D01*
X339423Y774633D01*
X339169Y774814D01*
X339042Y774869D01*
X338698Y774996D01*
X338426Y775159D01*
X338245Y775231D01*
X338009Y775322D01*
X337954Y775376D01*
X337755Y775539D01*
X337393Y775684D01*
X337085Y775847D01*
X336740Y775974D01*
X336559Y776047D01*
X336450Y776156D01*
X336269Y776264D01*
X335798Y776482D01*
X335598Y776609D01*
X335399Y776663D01*
X335218Y776736D01*
X334855Y776953D01*
X334674Y777026D01*
X334475Y777116D01*
X334275Y777279D01*
X333913Y777424D01*
X333605Y777587D01*
X333152Y777750D01*
X333007Y777896D01*
X332753Y778040D01*
X332064Y778367D01*
X331919Y778403D01*
X331738Y778475D01*
X331484Y778657D01*
X331412Y778693D01*
X331049Y778838D01*
X330977Y778911D01*
X330904Y778947D01*
X330850Y779001D01*
X330614Y779092D01*
X329781Y779490D01*
X329599Y779672D01*
X329527Y779708D01*
X329473Y779762D01*
X329237Y779853D01*
X328965Y780052D01*
X328729Y780143D01*
X328548Y780215D01*
X328367Y780469D01*
X328294Y780505D01*
X328113Y780687D01*
X328041Y780723D01*
X327968Y780795D01*
X327896Y780832D01*
X327769Y780958D01*
X327733Y781031D01*
X327515Y781248D01*
X327334Y781575D01*
X327261Y781647D01*
X327080Y781973D01*
X327044Y782118D01*
X326899Y782336D01*
X326772Y782535D01*
X326718Y782771D01*
X326627Y783079D01*
X326591Y783297D01*
X326555Y783478D01*
X326500Y783677D01*
X326464Y783786D01*
X326482Y826033D01*
X326464Y826595D01*
X326591Y826721D01*
X326663Y826758D01*
X326736Y826830D01*
X326808Y826866D01*
X326917Y826975D01*
X326990Y827011D01*
X327044Y827066D01*
X327280Y827156D01*
X327660Y827356D01*
X328113Y827519D01*
X328276Y827609D01*
X328476Y827773D01*
X328657Y827845D01*
X328911Y827954D01*
X329110Y828081D01*
X329346Y828171D01*
X329599Y828280D01*
X329998Y828498D01*
X330252Y828606D01*
X330306Y828661D01*
X330524Y828806D01*
X330868Y828933D01*
X331140Y829096D01*
X331484Y829222D01*
X331665Y829295D01*
X331774Y829404D01*
X331901Y829494D01*
X332137Y829585D01*
X332318Y829658D01*
X332536Y829802D01*
X332934Y829948D01*
X333170Y830074D01*
X333387Y830219D01*
X333587Y830274D01*
X333949Y830527D01*
X334239Y830636D01*
X334565Y830781D01*
X334620Y830836D01*
X335073Y830999D01*
X335218Y831144D01*
X335290Y831180D01*
X335345Y831234D01*
X335526Y831307D01*
X335725Y831361D01*
X336015Y831542D01*
X336523Y831724D01*
X336595Y831796D01*
X336668Y831832D01*
X336758Y831923D01*
X337103Y832050D01*
X337375Y832249D01*
X337610Y832340D01*
X338299Y832666D01*
X338553Y832775D01*
X338625Y832811D01*
X338698Y832884D01*
X338951Y833029D01*
X339549Y833300D01*
X339894Y833427D01*
X340256Y833681D01*
X340329Y833717D01*
X340728Y833898D01*
X340800Y833935D01*
X340854Y833989D01*
X341090Y834080D01*
X341416Y834225D01*
X341670Y834370D01*
X342051Y834533D01*
X342250Y834696D01*
X342540Y834805D01*
X343156Y835095D01*
X343410Y835203D01*
X343482Y835240D01*
X343555Y835312D01*
X343881Y835493D01*
X344117Y835584D01*
X344334Y835729D01*
X344570Y835820D01*
X344896Y835965D01*
X345222Y836146D01*
X345476Y836255D01*
X345549Y836291D01*
X345621Y836363D01*
X345875Y836508D01*
X346128Y836581D01*
X346509Y836780D01*
X346853Y836907D01*
X346998Y837052D01*
X347198Y837179D01*
X347597Y837324D01*
X347814Y837469D01*
X348158Y837596D01*
X348340Y837668D01*
X348412Y837741D01*
X348485Y837777D01*
X348539Y837831D01*
X348720Y837904D01*
X348956Y837995D01*
X349010Y838049D01*
X349300Y838230D01*
X349500Y838285D01*
X349953Y838520D01*
X350188Y838611D01*
X350369Y838683D01*
X350569Y838883D01*
X350913Y839009D01*
X351167Y839118D01*
X351221Y839173D01*
X351566Y839299D01*
X351747Y839372D01*
X351856Y839481D01*
X352109Y839626D01*
X352508Y839807D01*
X352834Y839988D01*
X352979Y840024D01*
X353179Y840115D01*
X353396Y840260D01*
X353632Y840351D01*
X353813Y840423D01*
X353904Y840514D01*
X354121Y840659D01*
X354320Y840713D01*
X354574Y840822D01*
X354828Y840967D01*
X355190Y841112D01*
X355263Y841148D01*
X355426Y841311D01*
X355607Y841384D01*
X355843Y841474D01*
X356115Y841637D01*
X356296Y841710D01*
X356532Y841801D01*
X356713Y841909D01*
X356785Y841946D01*
X356840Y842000D01*
X357075Y842091D01*
X357257Y842163D01*
X357329Y842199D01*
X357402Y842272D01*
X357528Y842362D01*
X357981Y842525D01*
X358235Y842671D01*
X358308Y842707D01*
X358489Y842779D01*
X358634Y842815D01*
X358815Y842997D01*
X358888Y843033D01*
X358942Y843087D01*
X359123Y843160D01*
X359323Y843214D01*
X359468Y843251D01*
X359939Y843468D01*
X360229Y843504D01*
X360555Y843649D01*
X360809Y843794D01*
X361099Y843830D01*
X361353Y843867D01*
X361733Y844030D01*
X363201Y844012D01*
X363672Y844048D01*
X363817Y844012D01*
D02*
G37*
G36*
X232727Y832249D02*
X232763Y832177D01*
X233053Y831887D01*
X233089Y831814D01*
X233252Y831542D01*
X233325Y831506D01*
X233379Y831416D01*
X233524Y831162D01*
X233561Y831089D01*
X233706Y830944D01*
X233850Y830691D01*
X234068Y830473D01*
X234213Y830219D01*
X234249Y830147D01*
X234431Y829966D01*
X234576Y829712D01*
X234612Y829639D01*
X234720Y829531D01*
X234902Y829277D01*
X234938Y829204D01*
X235083Y829059D01*
X235264Y828733D01*
X235391Y828606D01*
X235627Y828262D01*
X235663Y828189D01*
X235717Y828171D01*
X235772Y828117D01*
X235953Y827791D01*
X236134Y827609D01*
X236315Y827283D01*
X236497Y827102D01*
X236642Y826848D01*
X236823Y826667D01*
X237004Y826341D01*
X237149Y826196D01*
X237330Y825870D01*
X237548Y825652D01*
X237693Y825398D01*
X237747Y825344D01*
X237910Y825145D01*
X238055Y824891D01*
X238092Y824818D01*
X238200Y824710D01*
X238382Y824456D01*
X238418Y824383D01*
X238563Y824239D01*
X238708Y823985D01*
X238780Y823912D01*
X238817Y823840D01*
X238962Y823695D01*
X238998Y823622D01*
X239161Y823350D01*
X239233Y823314D01*
X239433Y823006D01*
X239469Y822934D01*
X239650Y822752D01*
X239795Y822499D01*
X239831Y822426D01*
X239976Y822281D01*
X240121Y822027D01*
X240303Y821846D01*
X240484Y821520D01*
X240665Y821339D01*
X240846Y821012D01*
X241028Y820831D01*
X241173Y820577D01*
X241354Y820396D01*
X241535Y820070D01*
X241716Y819889D01*
X241861Y819635D01*
X241898Y819563D01*
X242079Y819381D01*
X242224Y819128D01*
X242369Y818982D01*
X242550Y818656D01*
X242677Y818529D01*
X242913Y818185D01*
X242949Y818113D01*
X243094Y817968D01*
X243239Y817714D01*
X243293Y817660D01*
X243456Y817460D01*
X243601Y817206D01*
X243728Y817079D01*
X243964Y816735D01*
X244000Y816663D01*
X244054Y816608D01*
X244127Y816572D01*
X244181Y816481D01*
X244326Y816228D01*
X244362Y816155D01*
X244507Y816010D01*
X244652Y815757D01*
X244870Y815539D01*
X245015Y815285D01*
X245051Y815213D01*
X245196Y815068D01*
X245377Y814742D01*
X245559Y814560D01*
X245704Y814307D01*
X245885Y814125D01*
X246066Y813799D01*
X246247Y813618D01*
X246392Y813364D01*
X246429Y813292D01*
X246537Y813183D01*
X246719Y812929D01*
X246755Y812857D01*
X246900Y812712D01*
X247081Y812385D01*
X247208Y812259D01*
X247444Y811914D01*
X247480Y811842D01*
X247589Y811769D01*
X247770Y811443D01*
X247951Y811262D01*
X248132Y810936D01*
X248313Y810754D01*
X248458Y810500D01*
X248549Y810410D01*
X248712Y810210D01*
X248857Y809957D01*
X248893Y809884D01*
X249038Y809739D01*
X249183Y809486D01*
X249401Y809268D01*
X249546Y809014D01*
X249582Y808942D01*
X249727Y808797D01*
X249908Y808471D01*
X250090Y808289D01*
X250235Y808036D01*
X250416Y807854D01*
X250597Y807528D01*
X250778Y807347D01*
X250923Y807093D01*
X250959Y807021D01*
X251014Y806966D01*
X251086Y806930D01*
X251250Y806658D01*
X251286Y806586D01*
X251467Y806404D01*
X251612Y806151D01*
X251648Y806078D01*
X251793Y805933D01*
X251938Y805679D01*
X252156Y805462D01*
X252301Y805208D01*
X252337Y805136D01*
X252482Y804991D01*
X252663Y804665D01*
X252844Y804483D01*
X252989Y804230D01*
X253171Y804048D01*
X253352Y803722D01*
X253406Y803668D01*
X253569Y803468D01*
X253714Y803215D01*
X253841Y803088D01*
X254023Y802798D01*
X254149Y802707D01*
X254312Y802725D01*
X254439Y802852D01*
X254476Y802925D01*
X254548Y802997D01*
X254675Y803196D01*
X254820Y803414D01*
X254892Y803450D01*
X255092Y803758D01*
X255128Y803831D01*
X255273Y803976D01*
X255454Y804302D01*
X255636Y804483D01*
X255781Y804737D01*
X255962Y804918D01*
X256143Y805245D01*
X256324Y805426D01*
X256469Y805679D01*
X256506Y805752D01*
X256614Y805861D01*
X256795Y806115D01*
X256832Y806187D01*
X257013Y806368D01*
X257158Y806622D01*
X257194Y806694D01*
X257285Y806785D01*
X257520Y807129D01*
X257557Y807202D01*
X257665Y807311D01*
X257847Y807564D01*
X257883Y807637D01*
X258028Y807782D01*
X258209Y808108D01*
X258336Y808235D01*
X258572Y808579D01*
X258608Y808652D01*
X258717Y808724D01*
X258898Y809051D01*
X258952Y809105D01*
X259115Y809304D01*
X259260Y809558D01*
X259442Y809739D01*
X259587Y809993D01*
X259677Y810084D01*
X259840Y810283D01*
X259985Y810537D01*
X260021Y810609D01*
X260166Y810754D01*
X260312Y811008D01*
X260493Y811189D01*
X260638Y811443D01*
X260710Y811515D01*
X260746Y811588D01*
X260855Y811697D01*
X261036Y812023D01*
X261145Y812132D01*
X261327Y812385D01*
X261363Y812458D01*
X261544Y812639D01*
X261725Y812965D01*
X261906Y813147D01*
X261943Y813219D01*
X262106Y813491D01*
X262178Y813527D01*
X262269Y813654D01*
X262414Y813908D01*
X262595Y814089D01*
X262740Y814343D01*
X262776Y814415D01*
X262921Y814560D01*
X263066Y814814D01*
X263284Y815032D01*
X263429Y815285D01*
X263465Y815358D01*
X263610Y815503D01*
X263791Y815829D01*
X263972Y816010D01*
X264118Y816264D01*
X264299Y816445D01*
X264480Y816771D01*
X264661Y816953D01*
X264842Y817279D01*
X265024Y817460D01*
X265169Y817714D01*
X265350Y817895D01*
X265531Y818221D01*
X265712Y818403D01*
X265857Y818656D01*
X266039Y818838D01*
X266220Y819164D01*
X266274Y819218D01*
X266437Y819417D01*
X266582Y819671D01*
X266764Y819853D01*
X266909Y820106D01*
X266999Y820197D01*
X267162Y820396D01*
X267325Y820704D01*
X267398Y820741D01*
X267597Y821049D01*
X267634Y821121D01*
X267815Y821302D01*
X267960Y821556D01*
X268032Y821629D01*
X268069Y821701D01*
X268177Y821810D01*
X268322Y822064D01*
X268358Y822136D01*
X268413Y822190D01*
X268485Y822227D01*
X268648Y822499D01*
X268685Y822571D01*
X268866Y822752D01*
X269011Y823006D01*
X269047Y823079D01*
X269192Y823223D01*
X269337Y823477D01*
X269555Y823695D01*
X269700Y823949D01*
X269736Y824021D01*
X269881Y824166D01*
X270062Y824492D01*
X270243Y824673D01*
X270388Y824927D01*
X270606Y825145D01*
X270751Y825398D01*
X270787Y825471D01*
X270932Y825616D01*
X271113Y825942D01*
X271295Y826123D01*
X271440Y826377D01*
X271621Y826558D01*
X271802Y826885D01*
X271983Y827066D01*
X272128Y827319D01*
X272165Y827392D01*
X272346Y827573D01*
X272491Y827827D01*
X272672Y828008D01*
X272817Y828262D01*
X272853Y828335D01*
X272998Y828480D01*
X273143Y828733D01*
X273361Y828951D01*
X273506Y829204D01*
X273542Y829277D01*
X273687Y829422D01*
X273868Y829748D01*
X274013Y829893D01*
X274194Y830147D01*
X274231Y830219D01*
X274376Y830364D01*
X274557Y830691D01*
X274629Y830763D01*
X274666Y830836D01*
X274720Y830854D01*
X274919Y831162D01*
X274956Y831234D01*
X275101Y831379D01*
X275246Y831633D01*
X275373Y831760D01*
X275608Y832104D01*
X275644Y832177D01*
X275771Y832267D01*
X280049Y832304D01*
X280230Y832231D01*
X280284Y832141D01*
X280320Y794914D01*
X280357Y794805D01*
X280320Y794551D01*
X280121Y794425D01*
X274829Y794388D01*
X274466Y794425D01*
X274321Y794461D01*
X274267Y794515D01*
X274231Y818692D01*
X274267Y819273D01*
X274231Y819526D01*
X274176Y819581D01*
X274068Y819617D01*
X273923Y819581D01*
X273723Y819200D01*
X273615Y819091D01*
X273470Y818838D01*
X273288Y818656D01*
X273107Y818330D01*
X273034Y818258D01*
X272998Y818185D01*
X272944Y818167D01*
X272889Y818076D01*
X272745Y817823D01*
X272563Y817641D01*
X272418Y817388D01*
X272273Y817243D01*
X272237Y817170D01*
X272165Y817098D01*
X272128Y817025D01*
X271965Y816753D01*
X271893Y816717D01*
X271693Y816409D01*
X271657Y816336D01*
X271476Y816155D01*
X271331Y815901D01*
X271295Y815829D01*
X271150Y815684D01*
X271005Y815430D01*
X270823Y815249D01*
X270642Y814923D01*
X270461Y814742D01*
X270316Y814488D01*
X270280Y814415D01*
X270171Y814307D01*
X269990Y814053D01*
X269953Y813980D01*
X269772Y813799D01*
X269591Y813473D01*
X269446Y813328D01*
X269265Y813002D01*
X269120Y812857D01*
X268939Y812603D01*
X268902Y812530D01*
X268757Y812385D01*
X268576Y812059D01*
X268395Y811878D01*
X268214Y811552D01*
X268032Y811370D01*
X267887Y811117D01*
X267779Y811008D01*
X267742Y810936D01*
X267688Y810881D01*
X267434Y810482D01*
X267362Y810446D01*
X267162Y810138D01*
X267126Y810066D01*
X266945Y809884D01*
X266800Y809631D01*
X266764Y809558D01*
X266655Y809449D01*
X266510Y809196D01*
X266292Y808978D01*
X266111Y808652D01*
X265930Y808471D01*
X265785Y808217D01*
X265749Y808144D01*
X265604Y807999D01*
X265459Y807746D01*
X265241Y807528D01*
X265096Y807274D01*
X265060Y807202D01*
X264915Y807057D01*
X264734Y806731D01*
X264552Y806550D01*
X264408Y806296D01*
X264226Y806115D01*
X264045Y805788D01*
X263991Y805734D01*
X263827Y805535D01*
X263683Y805281D01*
X263501Y805100D01*
X263356Y804846D01*
X263248Y804737D01*
X263211Y804665D01*
X263157Y804610D01*
X262939Y804248D01*
X262867Y804212D01*
X262776Y804085D01*
X262631Y803831D01*
X262414Y803613D01*
X262269Y803360D01*
X262233Y803287D01*
X262124Y803178D01*
X261979Y802925D01*
X261761Y802707D01*
X261580Y802381D01*
X261435Y802236D01*
X261254Y801910D01*
X261073Y801729D01*
X260928Y801475D01*
X260710Y801257D01*
X260565Y801004D01*
X260529Y800931D01*
X260384Y800786D01*
X260203Y800460D01*
X260021Y800279D01*
X259876Y800025D01*
X259695Y799844D01*
X259514Y799517D01*
X259333Y799336D01*
X259152Y799010D01*
X258970Y798829D01*
X258825Y798575D01*
X258771Y798521D01*
X258608Y798321D01*
X258463Y798067D01*
X258427Y797995D01*
X258372Y797977D01*
X258282Y797886D01*
X258100Y797560D01*
X257919Y797379D01*
X257774Y797125D01*
X257738Y797053D01*
X257684Y796998D01*
X257665Y796980D01*
X257593Y796908D01*
X257448Y796654D01*
X257230Y796436D01*
X257085Y796183D01*
X257049Y796110D01*
X256904Y795965D01*
X256723Y795639D01*
X256542Y795458D01*
X256397Y795204D01*
X256179Y794986D01*
X256034Y794733D01*
X255998Y794660D01*
X255944Y794606D01*
X255690Y794425D01*
X252971Y794388D01*
X252718Y794425D01*
X252627Y794515D01*
X252591Y794588D01*
X252518Y794660D01*
X252482Y794733D01*
X252428Y794751D01*
X252337Y794878D01*
X252192Y795131D01*
X252047Y795276D01*
X251866Y795603D01*
X251684Y795784D01*
X251539Y796038D01*
X251358Y796219D01*
X251177Y796545D01*
X251105Y796618D01*
X251068Y796690D01*
X250959Y796799D01*
X250815Y797053D01*
X250633Y797234D01*
X250488Y797487D01*
X250416Y797560D01*
X250380Y797633D01*
X250271Y797741D01*
X250090Y798067D01*
X249908Y798249D01*
X249763Y798502D01*
X249582Y798684D01*
X249401Y799010D01*
X249220Y799191D01*
X249075Y799445D01*
X249038Y799517D01*
X248857Y799699D01*
X248712Y799952D01*
X248531Y800134D01*
X248350Y800460D01*
X248168Y800641D01*
X248023Y800895D01*
X247987Y800967D01*
X247933Y800985D01*
X247842Y801076D01*
X247661Y801402D01*
X247516Y801547D01*
X247335Y801873D01*
X247153Y802055D01*
X247008Y802309D01*
X246827Y802490D01*
X246646Y802816D01*
X246465Y802997D01*
X246284Y803323D01*
X246102Y803505D01*
X245957Y803758D01*
X245776Y803940D01*
X245559Y804338D01*
X245377Y804520D01*
X245232Y804773D01*
X245015Y804991D01*
X244870Y805245D01*
X244834Y805317D01*
X244689Y805462D01*
X244544Y805716D01*
X244507Y805788D01*
X244453Y805843D01*
X244380Y805879D01*
X244217Y806151D01*
X244181Y806223D01*
X244000Y806404D01*
X243855Y806658D01*
X243819Y806731D01*
X243674Y806876D01*
X243529Y807129D01*
X243311Y807347D01*
X243166Y807601D01*
X243130Y807673D01*
X242985Y807818D01*
X242804Y808144D01*
X242623Y808326D01*
X242477Y808579D01*
X242296Y808761D01*
X242115Y809087D01*
X241934Y809268D01*
X241753Y809594D01*
X241571Y809775D01*
X241426Y810029D01*
X241336Y810120D01*
X241173Y810319D01*
X241028Y810573D01*
X240991Y810646D01*
X240846Y810790D01*
X240701Y811044D01*
X240574Y811171D01*
X240339Y811515D01*
X240303Y811588D01*
X240194Y811697D01*
X240049Y811950D01*
X239976Y812023D01*
X239940Y812095D01*
X239886Y812113D01*
X239686Y812422D01*
X239650Y812494D01*
X239469Y812675D01*
X239324Y812929D01*
X239288Y813002D01*
X239143Y813147D01*
X238998Y813400D01*
X238780Y813618D01*
X238635Y813872D01*
X238599Y813944D01*
X238454Y814089D01*
X238273Y814415D01*
X238092Y814596D01*
X237946Y814850D01*
X237765Y815032D01*
X237584Y815358D01*
X237403Y815539D01*
X237222Y815865D01*
X237040Y816047D01*
X236895Y816300D01*
X236714Y816481D01*
X236678Y816554D01*
X236497Y816844D01*
X236460Y816916D01*
X236406Y816935D01*
X236207Y817243D01*
X236170Y817315D01*
X235989Y817496D01*
X235844Y817750D01*
X235735Y817859D01*
X235699Y817931D01*
X235627Y818004D01*
X235590Y818076D01*
X235427Y818348D01*
X235355Y818384D01*
X235300Y818439D01*
X235156Y818692D01*
X235119Y818765D01*
X234938Y818946D01*
X234793Y819200D01*
X234757Y819273D01*
X234648Y819381D01*
X234503Y819635D01*
X234412Y819726D01*
X234304Y819762D01*
X234177Y819635D01*
X234195Y819146D01*
X234177Y795240D01*
X234213Y794769D01*
X234177Y794515D01*
X234086Y794425D01*
X233651Y794388D01*
X233542Y794425D01*
X233470Y794388D01*
X228921Y794406D01*
X228577Y794388D01*
X228323Y794425D01*
X228232Y794515D01*
X228196Y832032D01*
X228232Y832177D01*
X228341Y832286D01*
X228486Y832322D01*
X232020Y832304D01*
X232491Y832340D01*
X232727Y832249D01*
D02*
G37*
G36*
X279287Y781158D02*
X279414Y781031D01*
X279450Y761240D01*
X279414Y761095D01*
X279305Y761022D01*
X279124Y760986D01*
X277439Y761004D01*
X277330Y760968D01*
X277076Y761004D01*
X276986Y761095D01*
X276949Y774760D01*
X276986Y775449D01*
X276913Y775703D01*
X276804Y775775D01*
X276714Y775757D01*
X276659Y775703D01*
X276623Y775630D01*
X276551Y775449D01*
X276369Y775195D01*
X276261Y775014D01*
X276170Y774923D01*
X276007Y774724D01*
X275862Y774470D01*
X275826Y774398D01*
X275681Y774253D01*
X275536Y773999D01*
X275318Y773781D01*
X275173Y773528D01*
X275137Y773455D01*
X274992Y773310D01*
X274811Y772984D01*
X274629Y772803D01*
X274484Y772549D01*
X274303Y772368D01*
X274122Y772041D01*
X273941Y771860D01*
X273759Y771534D01*
X273669Y771443D01*
X273596Y771407D01*
X273433Y771135D01*
X273397Y771063D01*
X273252Y770918D01*
X273071Y770592D01*
X272889Y770410D01*
X272745Y770157D01*
X272563Y769975D01*
X272382Y769649D01*
X272237Y769504D01*
X272056Y769178D01*
X271838Y768960D01*
X271693Y768707D01*
X271512Y768525D01*
X271367Y768272D01*
X271331Y768199D01*
X271240Y768109D01*
X271005Y767764D01*
X270968Y767692D01*
X270823Y767547D01*
X270678Y767293D01*
X270588Y767202D01*
X270425Y767003D01*
X270280Y766749D01*
X270243Y766677D01*
X270189Y766659D01*
X269953Y766314D01*
X269917Y766242D01*
X269809Y766169D01*
X269627Y765843D01*
X269555Y765771D01*
X269519Y765698D01*
X269410Y765589D01*
X269265Y765336D01*
X269138Y765209D01*
X268902Y764864D01*
X268866Y764792D01*
X268812Y764774D01*
X268721Y764647D01*
X268540Y764321D01*
X268358Y764139D01*
X268214Y763886D01*
X267996Y763668D01*
X267851Y763415D01*
X267815Y763342D01*
X267670Y763197D01*
X267489Y762871D01*
X267307Y762690D01*
X267162Y762436D01*
X266981Y762254D01*
X266800Y761928D01*
X266619Y761747D01*
X266474Y761493D01*
X266383Y761366D01*
X266311Y761330D01*
X266256Y761240D01*
X266166Y761113D01*
X266039Y761022D01*
X265133Y760986D01*
X264969Y761004D01*
X264824Y761040D01*
X264607Y761258D01*
X264371Y761602D01*
X264335Y761675D01*
X264190Y761820D01*
X264045Y762073D01*
X263936Y762182D01*
X263900Y762254D01*
X263827Y762327D01*
X263683Y762581D01*
X263465Y762798D01*
X263320Y763052D01*
X263284Y763124D01*
X263175Y763197D01*
X262958Y763596D01*
X262849Y763704D01*
X262668Y763958D01*
X262631Y764031D01*
X262505Y764158D01*
X262269Y764502D01*
X262233Y764574D01*
X262088Y764719D01*
X261943Y764973D01*
X261906Y765046D01*
X261798Y765154D01*
X261616Y765408D01*
X261580Y765481D01*
X261399Y765662D01*
X261218Y765988D01*
X261036Y766169D01*
X261000Y766242D01*
X260837Y766514D01*
X260765Y766550D01*
X260565Y766858D01*
X260529Y766930D01*
X260348Y767112D01*
X260203Y767365D01*
X260166Y767438D01*
X260021Y767583D01*
X259876Y767837D01*
X259659Y768054D01*
X259514Y768308D01*
X259478Y768380D01*
X259333Y768525D01*
X259152Y768852D01*
X258970Y769033D01*
X258825Y769287D01*
X258644Y769468D01*
X258463Y769794D01*
X258282Y769975D01*
X258100Y770302D01*
X257919Y770483D01*
X257774Y770736D01*
X257720Y770791D01*
X257557Y770990D01*
X257412Y771244D01*
X257267Y771389D01*
X257230Y771461D01*
X257049Y771715D01*
X257013Y771788D01*
X256904Y771860D01*
X256723Y772187D01*
X256651Y772259D01*
X256614Y772331D01*
X256542Y772404D01*
X256397Y772658D01*
X256215Y772839D01*
X256070Y773093D01*
X255998Y773165D01*
X255962Y773238D01*
X255907Y773256D01*
X255817Y773383D01*
X255672Y773636D01*
X255636Y773709D01*
X255490Y773854D01*
X255345Y774108D01*
X255128Y774325D01*
X254983Y774579D01*
X254947Y774651D01*
X254766Y774833D01*
X254621Y775086D01*
X254584Y775159D01*
X254476Y775267D01*
X254331Y775521D01*
X254294Y775594D01*
X254240Y775648D01*
X254059Y775684D01*
X254004Y775630D01*
X253950Y775503D01*
X253968Y769287D01*
Y769250D01*
Y761240D01*
X253932Y761095D01*
X253841Y761040D01*
X251703Y761004D01*
X251558Y761040D01*
X251431Y761167D01*
X251449Y761584D01*
X251431Y780886D01*
X251503Y781067D01*
X251612Y781140D01*
X251829Y781176D01*
X252718Y781158D01*
X252971Y781194D01*
X253116Y781158D01*
X253298Y781085D01*
X253370Y781049D01*
X253388Y780995D01*
X253442Y780977D01*
X253569Y780814D01*
X253769Y780505D01*
X253841Y780469D01*
X253896Y780378D01*
X254041Y780125D01*
X254095Y780070D01*
X254258Y779871D01*
X254403Y779617D01*
X254530Y779490D01*
X254766Y779146D01*
X254802Y779074D01*
X254856Y779019D01*
X254929Y778983D01*
X254983Y778892D01*
X255128Y778639D01*
X255164Y778566D01*
X255237Y778494D01*
X255418Y778240D01*
X255454Y778167D01*
X255581Y778040D01*
X255817Y777696D01*
X255853Y777624D01*
X255998Y777479D01*
X256143Y777225D01*
X256179Y777152D01*
X256324Y777007D01*
X256469Y776754D01*
X256687Y776536D01*
X256832Y776283D01*
X256868Y776210D01*
X257049Y776029D01*
X257194Y775775D01*
X257230Y775703D01*
X257339Y775594D01*
X257520Y775340D01*
X257557Y775267D01*
X257702Y775123D01*
X257883Y774796D01*
X258064Y774615D01*
X258209Y774361D01*
X258390Y774180D01*
X258572Y773854D01*
X258753Y773673D01*
X258934Y773346D01*
X259115Y773165D01*
X259260Y772911D01*
X259442Y772730D01*
X259623Y772404D01*
X259768Y772259D01*
X259949Y771933D01*
X260094Y771788D01*
X260275Y771534D01*
X260312Y771461D01*
X260366Y771407D01*
X260529Y771208D01*
X260674Y770954D01*
X260710Y770882D01*
X260819Y770773D01*
X261000Y770519D01*
X261036Y770447D01*
X261181Y770302D01*
X261327Y770048D01*
X261399Y769975D01*
X261435Y769903D01*
X261580Y769758D01*
X261616Y769685D01*
X261779Y769414D01*
X261852Y769377D01*
X262051Y769069D01*
X262088Y768997D01*
X262269Y768815D01*
X262414Y768562D01*
X262450Y768489D01*
X262595Y768344D01*
X262740Y768090D01*
X262958Y767873D01*
X263103Y767619D01*
X263139Y767547D01*
X263284Y767402D01*
X263465Y767076D01*
X263646Y766894D01*
X263791Y766640D01*
X263972Y766459D01*
X264154Y766133D01*
X264335Y765952D01*
X264480Y765698D01*
X264516Y765626D01*
X264697Y765444D01*
X264842Y765191D01*
X264988Y765046D01*
X265205Y764647D01*
X265259Y764593D01*
X265441Y764556D01*
X265622Y764629D01*
X265676Y764683D01*
X265857Y765009D01*
X266075Y765227D01*
X266220Y765481D01*
X266365Y765626D01*
X266546Y765952D01*
X266619Y766024D01*
X266655Y766097D01*
X266764Y766206D01*
X266909Y766459D01*
X267054Y766604D01*
X267235Y766858D01*
X267271Y766930D01*
X267380Y767039D01*
X267416Y767112D01*
X267489Y767184D01*
X267525Y767257D01*
X267688Y767529D01*
X267760Y767565D01*
X267960Y767873D01*
X267996Y767945D01*
X268177Y768127D01*
X268322Y768380D01*
X268358Y768453D01*
X268503Y768598D01*
X268648Y768852D01*
X268866Y769069D01*
X269011Y769323D01*
X269047Y769395D01*
X269192Y769540D01*
X269373Y769867D01*
X269555Y770048D01*
X269700Y770302D01*
X269881Y770483D01*
X270062Y770809D01*
X270243Y770990D01*
X270425Y771317D01*
X270606Y771498D01*
X270751Y771751D01*
X270932Y771933D01*
X271113Y772259D01*
X271295Y772440D01*
X271440Y772694D01*
X271476Y772766D01*
X271530Y772821D01*
X271603Y772857D01*
X271766Y773129D01*
X271802Y773201D01*
X271947Y773346D01*
X272128Y773673D01*
X272310Y773854D01*
X272454Y774108D01*
X272636Y774289D01*
X272817Y774615D01*
X272871Y774669D01*
X273034Y774869D01*
X273179Y775123D01*
X273361Y775304D01*
X273506Y775557D01*
X273596Y775648D01*
X273759Y775847D01*
X273904Y776101D01*
X273941Y776174D01*
X274086Y776319D01*
X274231Y776572D01*
X274412Y776754D01*
X274557Y777007D01*
X274629Y777080D01*
X274666Y777152D01*
X274774Y777261D01*
X274956Y777587D01*
X275010Y777642D01*
X275082Y777678D01*
X275282Y777986D01*
X275318Y778059D01*
X275463Y778204D01*
X275644Y778530D01*
X275789Y778675D01*
X275934Y778929D01*
X276152Y779146D01*
X276188Y779219D01*
X276333Y779436D01*
X276369Y779509D01*
X276478Y779617D01*
X276659Y779943D01*
X276840Y780125D01*
X276986Y780378D01*
X277203Y780596D01*
X277384Y780922D01*
X277475Y781013D01*
X277547Y781049D01*
X277620Y781122D01*
X277964Y781176D01*
X278889Y781158D01*
X278997Y781194D01*
X279287Y781158D01*
D02*
G37*
G36*
X234720Y781067D02*
X234902Y780741D01*
X235047Y780596D01*
X235319Y780143D01*
X235391Y780107D01*
X235554Y779871D01*
X235590Y779726D01*
X235663Y779653D01*
X235699Y779581D01*
X235808Y779472D01*
X235953Y779219D01*
X235989Y779146D01*
X236134Y779001D01*
X236406Y778548D01*
X236569Y778349D01*
X236642Y778167D01*
X236823Y777986D01*
X237040Y777587D01*
X237149Y777479D01*
X237330Y777152D01*
X237512Y776971D01*
X237729Y776572D01*
X237874Y776428D01*
X238055Y776101D01*
X238092Y776029D01*
X238237Y775884D01*
X238382Y775630D01*
X238418Y775557D01*
X238526Y775449D01*
X238744Y775050D01*
X238925Y774869D01*
X239107Y774543D01*
X239215Y774434D01*
X239433Y774035D01*
X239614Y773854D01*
X239795Y773528D01*
X239904Y773419D01*
X240121Y773020D01*
X240303Y772839D01*
X240484Y772513D01*
X240520Y772440D01*
X240665Y772295D01*
X240846Y771969D01*
X240883Y771897D01*
X241028Y771751D01*
X241173Y771498D01*
X241209Y771425D01*
X241263Y771371D01*
X241426Y771171D01*
X241463Y771099D01*
X241535Y770918D01*
X241716Y770736D01*
X241861Y770483D01*
X241898Y770410D01*
X241952Y770356D01*
X242115Y770157D01*
X242151Y770084D01*
X242224Y769903D01*
X242314Y769812D01*
X242477Y769613D01*
X242550Y769432D01*
X242731Y769250D01*
X242913Y768924D01*
X242949Y768852D01*
X243057Y768743D01*
X243239Y768417D01*
X243329Y768326D01*
X243493Y768127D01*
X243529Y768054D01*
X243601Y767873D01*
X243674Y767801D01*
X243710Y767728D01*
X243764Y767710D01*
X243819Y767619D01*
X243964Y767365D01*
X244000Y767293D01*
X244199Y767094D01*
X244290Y766858D01*
X244362Y766786D01*
X244399Y766713D01*
X244471Y766640D01*
X244652Y766314D01*
X244834Y766133D01*
X245015Y765807D01*
X245051Y765734D01*
X245160Y765626D01*
X245341Y765299D01*
X245522Y765118D01*
X245704Y764792D01*
X245740Y764719D01*
X245849Y764611D01*
X246030Y764284D01*
X246211Y764103D01*
X246392Y763777D01*
X246429Y763704D01*
X246574Y763559D01*
X246755Y763233D01*
X246791Y763161D01*
X246990Y762961D01*
X247081Y762726D01*
X247226Y762581D01*
X247444Y762182D01*
X247589Y762037D01*
X247806Y761638D01*
X247860Y761584D01*
X247933Y761548D01*
X248096Y761348D01*
X248132Y761131D01*
X248023Y761022D01*
X247878Y760986D01*
X245432Y761004D01*
X245250Y761077D01*
X245178Y761113D01*
X245051Y761276D01*
X244870Y761602D01*
X244725Y761747D01*
X244507Y762146D01*
X244308Y762345D01*
X244217Y762581D01*
X244036Y762762D01*
X243819Y763161D01*
X243764Y763215D01*
X243601Y763415D01*
X243565Y763487D01*
X243493Y763668D01*
X243311Y763849D01*
X243166Y764103D01*
X243130Y764176D01*
X242985Y764321D01*
Y764357D01*
X242804Y764683D01*
X242623Y764864D01*
X242441Y765191D01*
X242405Y765263D01*
X242278Y765390D01*
X242206Y765426D01*
X242133Y765499D01*
X226003Y765535D01*
X225858Y765499D01*
X225586Y765227D01*
X225405Y764901D01*
X225260Y764756D01*
X225042Y764357D01*
X224988Y764303D01*
X224825Y764103D01*
X224680Y763849D01*
X224643Y763777D01*
X224571Y763741D01*
X224354Y763342D01*
X224209Y763197D01*
X224027Y762871D01*
X223991Y762798D01*
X223810Y762617D01*
X223629Y762291D01*
X223592Y762218D01*
X223484Y762110D01*
X223302Y761783D01*
X223121Y761602D01*
X222940Y761276D01*
X222904Y761203D01*
X222849Y761149D01*
X222777Y761113D01*
X222704Y761040D01*
X220602Y761004D01*
X220131Y760968D01*
X219895Y761058D01*
X219859Y761240D01*
X219895Y761385D01*
X219986Y761475D01*
X220058Y761512D01*
X220113Y761566D01*
X220221Y761747D01*
X220294Y761928D01*
X220439Y762073D01*
X220620Y762400D01*
X220693Y762472D01*
X220729Y762544D01*
X220801Y762617D01*
X220982Y762943D01*
X221164Y763124D01*
X221345Y763451D01*
X221381Y763523D01*
X221490Y763632D01*
X221671Y763958D01*
X221852Y764139D01*
X222034Y764466D01*
X222070Y764538D01*
X222215Y764683D01*
X222396Y765009D01*
X222432Y765082D01*
X222577Y765227D01*
X222722Y765481D01*
X222759Y765553D01*
X222867Y765662D01*
X223085Y766061D01*
X223266Y766242D01*
X223411Y766496D01*
X223447Y766568D01*
X223592Y766713D01*
X223774Y767039D01*
X223810Y767112D01*
X223955Y767257D01*
X224100Y767511D01*
X224136Y767583D01*
X224281Y767728D01*
X224317Y767801D01*
X224372Y767855D01*
X224462Y768090D01*
X224607Y768235D01*
X224789Y768562D01*
X224970Y768743D01*
X225006Y768815D01*
X225060Y768870D01*
X225151Y769105D01*
X225296Y769250D01*
X225568Y769704D01*
X225640Y769740D01*
X225804Y769975D01*
X225840Y770120D01*
X225912Y770193D01*
X225949Y770265D01*
X226003Y770283D01*
X226057Y770374D01*
X226202Y770628D01*
X226238Y770700D01*
X226383Y770845D01*
X226565Y771171D01*
X226601Y771244D01*
X226800Y771443D01*
X226891Y771679D01*
X227072Y771860D01*
X227290Y772259D01*
X227344Y772313D01*
X227507Y772513D01*
X227580Y772694D01*
X227761Y772875D01*
X227978Y773274D01*
X228123Y773419D01*
X228305Y773745D01*
X228341Y773818D01*
X228450Y773890D01*
X228667Y774289D01*
X228812Y774434D01*
X228993Y774760D01*
X229030Y774833D01*
X229174Y774977D01*
X229356Y775304D01*
X229501Y775449D01*
X229537Y775521D01*
X229591Y775576D01*
X229682Y775811D01*
X229863Y775993D01*
X230044Y776319D01*
X230189Y776464D01*
X230226Y776536D01*
X230280Y776591D01*
X230371Y776826D01*
X230552Y777007D01*
X230733Y777334D01*
X230878Y777479D01*
X230914Y777551D01*
X230969Y777606D01*
X231059Y777841D01*
X231150Y777932D01*
X231313Y778131D01*
X231458Y778385D01*
X231494Y778457D01*
X231603Y778566D01*
X231784Y778892D01*
X231821Y778965D01*
X231966Y779110D01*
X232147Y779436D01*
X232292Y779581D01*
X232509Y779980D01*
X232654Y780125D01*
X232836Y780451D01*
X233017Y780632D01*
X233198Y780958D01*
X233397Y781122D01*
X234521Y781158D01*
X234720Y781067D01*
D02*
G37*
G36*
X428574Y841094D02*
X428719Y840840D01*
X428864Y840695D01*
X428991Y840496D01*
X429045Y840296D01*
X429118Y840115D01*
X429191Y840043D01*
X429444Y839571D01*
X429481Y839499D01*
X429553Y839426D01*
X429771Y839028D01*
X429807Y838955D01*
X429916Y838846D01*
X430061Y838593D01*
X430097Y838375D01*
X430350Y838013D01*
X430477Y837813D01*
X430695Y837451D01*
X430785Y837215D01*
X430858Y837034D01*
X430985Y836798D01*
X431075Y836563D01*
X431112Y836200D01*
X431184Y835910D01*
X431275Y835711D01*
X431365Y835475D01*
X431329Y835330D01*
X431184Y835077D01*
X431148Y834170D01*
X431112Y834025D01*
X431075Y833772D01*
X431003Y833518D01*
X430894Y833409D01*
X430749Y833156D01*
X430640Y832902D01*
X430604Y832829D01*
X430495Y832720D01*
X430350Y832467D01*
X430133Y832249D01*
X430097Y832177D01*
X429952Y832032D01*
X429499Y831687D01*
X429426Y831651D01*
X429336Y831561D01*
X429136Y831397D01*
X428955Y831325D01*
X428701Y831252D01*
X428574Y831126D01*
X428230Y830890D01*
X427541Y830527D01*
X427487Y830473D01*
X427287Y830310D01*
X427106Y830238D01*
X426853Y830129D01*
X426762Y830038D01*
X426544Y829893D01*
X426363Y829821D01*
X426146Y829676D01*
X425910Y829585D01*
X425729Y829512D01*
X425656Y829476D01*
X425638Y829422D01*
X425566Y829349D01*
X425530Y829277D01*
X425439Y829222D01*
X425149Y829114D01*
X424841Y828951D01*
X424605Y828860D01*
X424442Y828697D01*
X424152Y828516D01*
X423953Y828461D01*
X423772Y828280D01*
X423590Y828171D01*
X423191Y827990D01*
X423065Y827899D01*
X422829Y827809D01*
X422648Y827628D01*
X422448Y827501D01*
X422213Y827410D01*
X421959Y827301D01*
X421560Y827084D01*
X421325Y826848D01*
X420872Y826685D01*
X420763Y826577D01*
X420147Y826250D01*
X420074Y826178D01*
X420002Y826142D01*
X419784Y825996D01*
X419712Y825960D01*
X419639Y825888D01*
X419385Y825743D01*
X419240Y825706D01*
X419059Y825634D01*
X418951Y825525D01*
X418824Y825435D01*
X418588Y825344D01*
X418334Y825163D01*
X417936Y824945D01*
X417863Y824909D01*
X417791Y824837D01*
X417591Y824710D01*
X417356Y824655D01*
X417102Y824474D01*
X416921Y824365D01*
X416667Y824184D01*
X416413Y824039D01*
X416159Y823930D01*
X416087Y823894D01*
X415960Y823767D01*
X415924Y823477D01*
X416105Y823079D01*
X416214Y822825D01*
X416341Y822517D01*
X416449Y822227D01*
X416504Y822027D01*
X416576Y821774D01*
X416685Y821520D01*
X416721Y821194D01*
X416758Y821049D01*
X416830Y820795D01*
X416903Y820505D01*
X417138Y820052D01*
X417174Y819907D01*
X417229Y819599D01*
X417392Y819073D01*
X417428Y818856D01*
X417464Y818674D01*
X417501Y818529D01*
X417591Y818113D01*
X417627Y817859D01*
X417791Y817587D01*
X417827Y817442D01*
X417881Y817098D01*
X417918Y816844D01*
X417954Y816699D01*
X418044Y816499D01*
X418099Y816300D01*
X418135Y816155D01*
X418207Y815974D01*
X418244Y815430D01*
X418280Y815322D01*
X418316Y814742D01*
X418389Y814488D01*
X418497Y814234D01*
X418534Y813908D01*
X418570Y813654D01*
X418606Y813509D01*
X418642Y813400D01*
X418606Y813183D01*
X418642Y812929D01*
X418824Y812675D01*
X418860Y811950D01*
X418932Y811769D01*
X418969Y810863D01*
X419005Y810609D01*
X419041Y810464D01*
X419114Y810210D01*
X419077Y809739D01*
X419114Y809486D01*
X419150Y809341D01*
X419222Y809159D01*
X419259Y808217D01*
X419222Y807528D01*
X419259Y807383D01*
X419295Y807274D01*
X419331Y801149D01*
X419295Y800786D01*
X419259Y800677D01*
X419222Y800315D01*
X419259Y800206D01*
X419240Y799608D01*
X419259Y799119D01*
X419222Y798974D01*
X419132Y798666D01*
X419095Y798339D01*
X419114Y797741D01*
X419041Y797451D01*
X419005Y797343D01*
X418969Y796581D01*
X418932Y796328D01*
X418896Y796219D01*
X418860Y795421D01*
X418824Y795276D01*
X418642Y795023D01*
X418606Y794551D01*
X418570Y794443D01*
X418516Y794098D01*
X418479Y793663D01*
X418334Y793301D01*
X418298Y792902D01*
X418262Y792685D01*
X418207Y792087D01*
X418099Y791833D01*
X418135Y791579D01*
X418099Y791434D01*
X417990Y791253D01*
X417936Y791126D01*
X417881Y790782D01*
X417809Y790492D01*
X417718Y790292D01*
X417646Y790111D01*
X417591Y789730D01*
X417555Y789585D01*
X417519Y789477D01*
X417482Y789078D01*
X417319Y788697D01*
X417247Y788407D01*
X417211Y788226D01*
X417102Y787936D01*
X417048Y787701D01*
X416884Y787393D01*
X416830Y787121D01*
X416794Y786976D01*
X416739Y786776D01*
X416667Y786595D01*
X416631Y786450D01*
X416576Y786178D01*
X416540Y786033D01*
X416449Y785725D01*
X416304Y785508D01*
X416232Y785326D01*
X416196Y785181D01*
X416141Y784946D01*
X415942Y784493D01*
X415851Y784257D01*
X415706Y783677D01*
X415616Y783514D01*
X415489Y783170D01*
X415416Y782916D01*
X415344Y782843D01*
X415308Y782771D01*
X415235Y782698D01*
X415126Y782408D01*
X414927Y781774D01*
X414764Y781321D01*
X414691Y781140D01*
X414583Y781031D01*
X414565Y781013D01*
X414438Y780814D01*
X414365Y780524D01*
X414075Y779907D01*
X414003Y779653D01*
X413894Y779472D01*
X413767Y779273D01*
X413676Y779037D01*
X413459Y778711D01*
X413314Y778312D01*
X413151Y778040D01*
X413060Y777805D01*
X412952Y777551D01*
X412915Y777479D01*
X412861Y777424D01*
X412698Y777225D01*
X412662Y777080D01*
X412553Y776826D01*
X412480Y776754D01*
X412335Y776500D01*
X412226Y776246D01*
X412190Y776174D01*
X412118Y776101D01*
X411936Y775775D01*
X411900Y775703D01*
X411792Y775594D01*
X411701Y775467D01*
X411610Y775231D01*
X411465Y774905D01*
X411284Y774579D01*
X411103Y774398D01*
X410958Y774144D01*
X410885Y773963D01*
X410740Y773745D01*
X410523Y773346D01*
X410432Y773256D01*
X410360Y773220D01*
X410323Y773147D01*
X410142Y772857D01*
X409907Y772513D01*
X409870Y772368D01*
X409689Y772187D01*
X409472Y771788D01*
X409327Y771643D01*
X409218Y771461D01*
X409146Y771280D01*
X408964Y771099D01*
X408765Y770791D01*
X408692Y770755D01*
X408565Y770628D01*
X408366Y770320D01*
X408221Y770102D01*
X408130Y769867D01*
X408040Y769776D01*
X407967Y769740D01*
X407877Y769649D01*
X407732Y769395D01*
X407641Y769305D01*
X407569Y769268D01*
X407442Y769033D01*
X407315Y768906D01*
X407079Y768562D01*
X407043Y768489D01*
X406789Y768235D01*
X406753Y768163D01*
X406536Y767982D01*
X406354Y767655D01*
X405919Y767221D01*
X405666Y766894D01*
X405629Y766822D01*
X405557Y766749D01*
X405521Y766677D01*
X405376Y766532D01*
X405339Y766459D01*
X405013Y766133D01*
X404977Y766061D01*
X404741Y765825D01*
X404669Y765789D01*
X404596Y765680D01*
X404524Y765644D01*
X404252Y765372D01*
X404216Y765299D01*
X403998Y765082D01*
X403962Y765009D01*
X403745Y764792D01*
X403636Y764611D01*
X403509Y764484D01*
X403436Y764447D01*
X403346Y764357D01*
X403310Y764284D01*
X402820Y763795D01*
X402748Y763759D01*
X402585Y763559D01*
X402494Y763433D01*
X402421Y763396D01*
X402222Y763197D01*
X402023Y763034D01*
X401950Y762998D01*
X401769Y762816D01*
X401697Y762780D01*
X401298Y762381D01*
X401225Y762345D01*
X400971Y762091D01*
X400808Y761892D01*
X400772Y761820D01*
X400718Y761765D01*
X400645Y761729D01*
X400392Y761475D01*
X399993Y761258D01*
X399902Y761167D01*
X399866Y761095D01*
X399522Y760750D01*
X399449Y760714D01*
X399395Y760660D01*
X399177Y760515D01*
X398978Y760351D01*
X398905Y760315D01*
X398779Y760152D01*
X398742Y760080D01*
X398652Y759989D01*
X398398Y759844D01*
X398072Y759590D01*
X397999Y759554D01*
X397746Y759300D01*
X397673Y759264D01*
X397601Y759192D01*
X397528Y759155D01*
X397383Y759010D01*
X397057Y758829D01*
X396984Y758757D01*
X396912Y758720D01*
X396549Y758358D01*
X396151Y758140D01*
X396042Y758032D01*
X395788Y757887D01*
X395661Y757760D01*
X395625Y757687D01*
X395552Y757615D01*
X395262Y757434D01*
X395063Y757270D01*
X394882Y757198D01*
X394646Y757071D01*
X394610Y756999D01*
X394556Y756944D01*
X394157Y756727D01*
X394084Y756691D01*
X394012Y756618D01*
X393758Y756473D01*
X393468Y756292D01*
X393069Y756074D01*
X392852Y755857D01*
X392598Y755712D01*
X392526Y755676D01*
X392453Y755603D01*
X392326Y755512D01*
X392091Y755422D01*
X391946Y755386D01*
X391819Y755259D01*
X391620Y755096D01*
X391547Y755059D01*
X391330Y754914D01*
X391203Y754824D01*
X390858Y754697D01*
X390641Y754552D01*
X390315Y754371D01*
X390133Y754298D01*
X389988Y754153D01*
X389916Y754117D01*
X389644Y753954D01*
X389427Y753809D01*
X389191Y753718D01*
X389046Y753682D01*
X388810Y753555D01*
X388611Y753392D01*
X388430Y753319D01*
X388230Y753229D01*
X388013Y753084D01*
X387777Y752993D01*
X387524Y752921D01*
X387270Y752739D01*
X387089Y752667D01*
X386400Y752341D01*
X386255Y752305D01*
X386074Y752232D01*
X385729Y752033D01*
X385457Y751978D01*
X385168Y751906D01*
X385041Y751779D01*
X384823Y751634D01*
X384588Y751543D01*
X384279Y751416D01*
X383989Y751308D01*
X383844Y751271D01*
X383573Y751217D01*
X383156Y751018D01*
X382974Y750945D01*
X382775Y750891D01*
X382376Y750637D01*
X382086Y750565D01*
X381724Y750528D01*
X381325Y750347D01*
X381090Y750257D01*
X380890Y750202D01*
X380636Y750093D01*
X380564Y750057D01*
X380510Y750003D01*
X380328Y749930D01*
X379803Y749840D01*
X379567Y749749D01*
X379277Y749640D01*
X378860Y749550D01*
X378715Y749513D01*
X378462Y749477D01*
X378135Y749332D01*
X378063Y749296D01*
X377882Y749223D01*
X377664Y749187D01*
X377374Y749115D01*
X376994Y748951D01*
X376722Y748897D01*
X376613Y748861D01*
X376033Y748825D01*
X375888Y748788D01*
X375779Y748752D01*
X375381Y748716D01*
X375054Y748571D01*
X374927Y748517D01*
X374112Y748390D01*
X373931Y748317D01*
X373913Y748263D01*
X373858Y748208D01*
X373822Y733927D01*
X373731Y733691D01*
X373695Y733329D01*
X373586Y733075D01*
X373296Y732531D01*
X373260Y732459D01*
X373151Y732350D01*
X373115Y732278D01*
X372970Y732060D01*
X372934Y731988D01*
X372843Y731897D01*
X372771Y731861D01*
X372608Y731697D01*
X372571Y731625D01*
X372372Y731426D01*
X372299Y731389D01*
X372155Y731244D01*
X371828Y731063D01*
X371611Y730918D01*
X371284Y730737D01*
X371103Y730665D01*
X370723Y730501D01*
X370541Y730429D01*
X369853Y730393D01*
X369508Y730338D01*
X369400Y730302D01*
X368983Y730320D01*
X365920Y730302D01*
X365811Y730338D01*
X365231Y730302D01*
X365050Y730375D01*
X364977Y730411D01*
X364887Y730538D01*
X364851Y759174D01*
X364887Y759318D01*
X364923Y759427D01*
X364959Y759500D01*
X365068Y759572D01*
X365304Y759663D01*
X365847Y759917D01*
X366210Y760025D01*
X366355Y760170D01*
X366681Y760351D01*
X366862Y760424D01*
X367152Y760605D01*
X367297Y760641D01*
X367478Y760714D01*
X367623Y760750D01*
X367696Y760823D01*
X368240Y761113D01*
X368312Y761149D01*
X368439Y761276D01*
X368675Y761366D01*
X368820Y761403D01*
X369200Y761602D01*
X369653Y761765D01*
X369798Y761910D01*
X370052Y762055D01*
X370741Y762381D01*
X370886Y762418D01*
X371121Y762508D01*
X371321Y762671D01*
X371393Y762708D01*
X371720Y762853D01*
X371792Y762925D01*
X371865Y762961D01*
X371919Y763016D01*
X372155Y763106D01*
X372408Y763179D01*
X372626Y763324D01*
X372916Y763433D01*
X373097Y763505D01*
X373206Y763614D01*
X373532Y763795D01*
X373768Y763886D01*
X373985Y764031D01*
X374221Y764121D01*
X374366Y764158D01*
X374619Y764266D01*
X374728Y764375D01*
X375199Y764629D01*
X375526Y764810D01*
X375671Y764846D01*
X375997Y764991D01*
X376069Y765027D01*
X376124Y765082D01*
X376468Y765209D01*
X376830Y765462D01*
X377193Y765608D01*
X377501Y765771D01*
X377845Y765898D01*
X378027Y765970D01*
X378135Y766079D01*
X378679Y766369D01*
X378752Y766405D01*
X378806Y766459D01*
X379150Y766586D01*
X379477Y766731D01*
X379803Y766912D01*
X379984Y766985D01*
X380093Y767094D01*
X380165Y767130D01*
X380220Y767184D01*
X380510Y767293D01*
X380709Y767347D01*
X380981Y767511D01*
X381216Y767601D01*
X381398Y767674D01*
X381470Y767710D01*
X381579Y767819D01*
X381905Y768000D01*
X382159Y768109D01*
X382231Y768145D01*
X382286Y768199D01*
X382576Y768308D01*
X382775Y768362D01*
X382993Y768507D01*
X383120Y768598D01*
X383355Y768689D01*
X383573Y768833D01*
X383699Y768924D01*
X384044Y769051D01*
X384660Y769341D01*
X384841Y769414D01*
X384914Y769450D01*
X385004Y769540D01*
X385222Y769685D01*
X385421Y769740D01*
X385602Y769812D01*
X385765Y769939D01*
X386001Y770030D01*
X386255Y770102D01*
X386509Y770283D01*
X386980Y770537D01*
X387179Y770664D01*
X387415Y770755D01*
X387560Y770791D01*
X387759Y770882D01*
X388049Y771063D01*
X388248Y771117D01*
X388629Y771389D01*
X388865Y771480D01*
X389046Y771552D01*
X389318Y771715D01*
X389517Y771770D01*
X389771Y771878D01*
X389843Y771915D01*
X390007Y772078D01*
X390369Y772223D01*
X390659Y772404D01*
X390895Y772495D01*
X391040Y772531D01*
X391221Y772603D01*
X391293Y772676D01*
X391547Y772821D01*
X391692Y772857D01*
X391910Y773002D01*
X392236Y773183D01*
X392852Y773473D01*
X392997Y773510D01*
X393251Y773618D01*
X393450Y773818D01*
X393686Y773908D01*
X394012Y774053D01*
X394066Y774108D01*
X394302Y774198D01*
X394701Y774380D01*
X395099Y774597D01*
X395299Y774688D01*
X395589Y774869D01*
X395824Y774959D01*
X396151Y775104D01*
X396205Y775159D01*
X396441Y775249D01*
X396622Y775322D01*
X396930Y775557D01*
X397274Y775684D01*
X397546Y775847D01*
X397782Y775938D01*
X398035Y776047D01*
X398108Y776083D01*
X398253Y776228D01*
X398507Y776373D01*
X398579Y776409D01*
X398797Y776554D01*
X399195Y776772D01*
X399268Y776808D01*
X399522Y777062D01*
X399594Y777098D01*
X399721Y777225D01*
X399920Y777388D01*
X399993Y777424D01*
X400138Y777569D01*
X400319Y777678D01*
X400482Y777841D01*
X400518Y777914D01*
X400845Y778240D01*
X400881Y778312D01*
X400990Y778421D01*
X401171Y778675D01*
X401207Y778747D01*
X401334Y778874D01*
X401570Y779219D01*
X401606Y779291D01*
X401715Y779400D01*
X401751Y779472D01*
X401805Y779527D01*
X401896Y779762D01*
X401968Y779943D01*
X402005Y780016D01*
X402168Y780179D01*
X402331Y780632D01*
X402512Y780922D01*
X402548Y781321D01*
X402585Y781466D01*
X402639Y781665D01*
X402693Y781901D01*
X402893Y782318D01*
X402947Y782662D01*
X402983Y782771D01*
X403019Y783278D01*
X402983Y783641D01*
X403019Y783895D01*
X403164Y784148D01*
X403201Y826558D01*
X403237Y826703D01*
X403346Y826885D01*
X403545Y827048D01*
X403618Y827084D01*
X404089Y827301D01*
X404415Y827483D01*
X404596Y827555D01*
X404705Y827664D01*
X404959Y827809D01*
X405140Y827881D01*
X405394Y828063D01*
X405575Y828171D01*
X405901Y828316D01*
X406391Y828588D01*
X406427Y828661D01*
X406572Y828806D01*
X406808Y828896D01*
X407569Y829259D01*
X407641Y829295D01*
X407786Y829440D01*
X407967Y829549D01*
X408366Y829730D01*
X408837Y829984D01*
X408910Y830020D01*
X408982Y830092D01*
X409055Y830129D01*
X409109Y830183D01*
X409454Y830310D01*
X409526Y830383D01*
X409599Y830419D01*
X409653Y830473D01*
X410269Y830836D01*
X410722Y830999D01*
X411012Y831289D01*
X411085Y831325D01*
X411701Y831615D01*
X411882Y831687D01*
X412027Y831832D01*
X412426Y832050D01*
X412607Y832159D01*
X412933Y832340D01*
X413115Y832412D01*
X413169Y832467D01*
X413386Y832612D01*
X413731Y832739D01*
X413785Y832793D01*
X413984Y832956D01*
X414492Y833246D01*
X414565Y833282D01*
X414746Y833355D01*
X415000Y833464D01*
X415072Y833500D01*
X415181Y833608D01*
X415434Y833754D01*
X415507Y833790D01*
X415561Y833844D01*
X415779Y833989D01*
X416123Y834116D01*
X416304Y834189D01*
X416413Y834297D01*
X416739Y834479D01*
X416794Y834533D01*
X416993Y834696D01*
X417120Y834750D01*
X417319Y834805D01*
X417537Y834950D01*
X417863Y835131D01*
X418044Y835203D01*
X418117Y835240D01*
X418226Y835348D01*
X418352Y835439D01*
X418588Y835530D01*
X418769Y835602D01*
X418878Y835711D01*
X419422Y836001D01*
X419893Y836255D01*
X420092Y836454D01*
X420328Y836545D01*
X420582Y836653D01*
X420980Y836871D01*
X421162Y837052D01*
X421488Y837233D01*
X421814Y837378D01*
X422358Y837668D01*
X422430Y837741D01*
X422557Y837831D01*
X422738Y837904D01*
X422974Y837995D01*
X423046Y838067D01*
X423119Y838103D01*
X423191Y838176D01*
X424098Y838647D01*
X424170Y838683D01*
X424315Y838828D01*
X425366Y839372D01*
X425439Y839408D01*
X425584Y839553D01*
X426345Y839952D01*
X426599Y840061D01*
X426708Y840169D01*
X426780Y840206D01*
X426834Y840260D01*
X427179Y840387D01*
X427541Y840749D01*
X427614Y840786D01*
X427723Y840894D01*
X427976Y841039D01*
X428158Y841112D01*
X428520Y841148D01*
X428574Y841094D01*
D02*
G37*
G36*
X297484Y841039D02*
X297701Y840894D01*
X298027Y840713D01*
X298263Y840586D01*
X298462Y840423D01*
X298535Y840387D01*
X298897Y840242D01*
X299006Y840133D01*
X299622Y839807D01*
X299876Y839662D01*
X299949Y839626D01*
X300039Y839535D01*
X300239Y839372D01*
X300746Y839191D01*
X300855Y839082D01*
X301254Y838865D01*
X301326Y838828D01*
X301471Y838683D01*
X301652Y838611D01*
X301906Y838502D01*
X301978Y838466D01*
X302051Y838393D01*
X302305Y838248D01*
X302486Y838176D01*
X302740Y837995D01*
X302812Y837958D01*
X303066Y837850D01*
X303211Y837705D01*
X303537Y837523D01*
X304008Y837306D01*
X304226Y837161D01*
X304298Y837125D01*
X304498Y836925D01*
X304969Y836744D01*
X305168Y836581D01*
X305241Y836545D01*
X305422Y836472D01*
X305603Y836363D01*
X305930Y836182D01*
X306111Y836110D01*
X306346Y835874D01*
X306691Y835747D01*
X306872Y835638D01*
X307198Y835457D01*
X307271Y835421D01*
X307416Y835276D01*
X307488Y835240D01*
X307542Y835185D01*
X307778Y835095D01*
X307978Y835004D01*
X308267Y834823D01*
X308503Y834732D01*
X308576Y834660D01*
X308648Y834623D01*
X308666Y834569D01*
X308757Y834515D01*
X308829Y834479D01*
X309192Y834333D01*
X309300Y834225D01*
X309500Y834098D01*
X309736Y834007D01*
X310098Y833790D01*
X310243Y833754D01*
X310551Y833446D01*
X310787Y833355D01*
X311113Y833210D01*
X311512Y832992D01*
X311584Y832956D01*
X311784Y832757D01*
X312128Y832630D01*
X312345Y832485D01*
X312889Y832195D01*
X313360Y831941D01*
X313596Y831706D01*
X313832Y831615D01*
X314013Y831542D01*
X314266Y831397D01*
X314520Y831289D01*
X314738Y831071D01*
X314865Y830981D01*
X315064Y830926D01*
X315245Y830854D01*
X315427Y830745D01*
X315680Y830600D01*
X316043Y830346D01*
X316115Y830310D01*
X316441Y830165D01*
X316514Y830129D01*
X316623Y830020D01*
X316876Y829875D01*
X317130Y829766D01*
X317529Y829549D01*
X317746Y829331D01*
X317928Y829222D01*
X318073Y829186D01*
X318399Y829041D01*
X318652Y828896D01*
X318924Y828733D01*
X319124Y828570D01*
X319305Y828498D01*
X319559Y828389D01*
X319667Y828280D01*
X320646Y827773D01*
X320773Y827646D01*
X320972Y827483D01*
X321117Y827446D01*
X321444Y827301D01*
X321770Y827120D01*
X321842Y827048D01*
X321915Y827011D01*
X322060Y826866D01*
X322223Y826667D01*
X322259Y826341D01*
X322223Y826232D01*
X322241Y785363D01*
X322223Y784910D01*
X322259Y784656D01*
X322295Y784511D01*
X322368Y784330D01*
X322404Y783061D01*
X322513Y782445D01*
X322549Y782336D01*
X322585Y781937D01*
X322658Y781647D01*
X322839Y781393D01*
X322912Y781067D01*
X323020Y780814D01*
X323238Y780415D01*
X323528Y779799D01*
X323600Y779509D01*
X323818Y779291D01*
X324035Y778892D01*
X324180Y778747D01*
X324325Y778494D01*
X324452Y778367D01*
X324525Y778331D01*
X324543Y778276D01*
X324978Y777841D01*
X325177Y777678D01*
X325250Y777642D01*
X325322Y777569D01*
X325395Y777533D01*
X325703Y777225D01*
X325739Y777152D01*
X325793Y777098D01*
X325866Y777062D01*
X326083Y776844D01*
X326337Y776699D01*
X326591Y776591D01*
X326663Y776554D01*
X326736Y776482D01*
X326990Y776337D01*
X327243Y776228D01*
X327388Y776083D01*
X328222Y775648D01*
X328476Y775539D01*
X328548Y775503D01*
X328621Y775431D01*
X328820Y775304D01*
X329056Y775213D01*
X329473Y774977D01*
X329672Y774923D01*
X329853Y774851D01*
X330034Y774742D01*
X330288Y774597D01*
X330542Y774488D01*
X330614Y774452D01*
X330741Y774325D01*
X330977Y774234D01*
X331122Y774198D01*
X331575Y773963D01*
X331919Y773836D01*
X332028Y773727D01*
X332282Y773546D01*
X332427Y773510D01*
X332608Y773437D01*
X332916Y773274D01*
X333152Y773183D01*
X333405Y773074D01*
X333478Y773002D01*
X333732Y772857D01*
X333913Y772785D01*
X334094Y772676D01*
X334294Y772549D01*
X334493Y772495D01*
X334892Y772313D01*
X335145Y772168D01*
X335399Y772060D01*
X335472Y772023D01*
X335544Y771951D01*
X335870Y771770D01*
X336015Y771733D01*
X336396Y771534D01*
X336632Y771443D01*
X336813Y771371D01*
X336922Y771262D01*
X337175Y771117D01*
X337574Y770936D01*
X337773Y770809D01*
X337973Y770755D01*
X338299Y770610D01*
X338698Y770392D01*
X338879Y770320D01*
X338988Y770211D01*
X339114Y770120D01*
X339350Y770030D01*
X339495Y769994D01*
X339876Y769794D01*
X340111Y769704D01*
X340347Y769577D01*
X340546Y769414D01*
X340728Y769341D01*
X340963Y769250D01*
X341181Y769105D01*
X341416Y769015D01*
X341561Y768979D01*
X341742Y768906D01*
X341815Y768833D01*
X342069Y768689D01*
X342322Y768580D01*
X342395Y768507D01*
X342721Y768326D01*
X342866Y768290D01*
X343555Y767964D01*
X343700Y767927D01*
X343936Y767692D01*
X344280Y767565D01*
X344534Y767456D01*
X344588Y767402D01*
X344932Y767275D01*
X345113Y767202D01*
X345186Y767166D01*
X345258Y767094D01*
X345585Y766912D01*
X345838Y766804D01*
X345947Y766695D01*
X346020Y766659D01*
X346201Y766586D01*
X346346Y766550D01*
X346600Y766441D01*
X346998Y766224D01*
X347180Y766151D01*
X347252Y766115D01*
X347415Y765952D01*
X347760Y765825D01*
X348013Y765716D01*
X348068Y765662D01*
X348249Y765589D01*
X348593Y765462D01*
X348702Y765354D01*
X349028Y765173D01*
X349355Y765027D01*
X349427Y764955D01*
X349935Y764774D01*
X350116Y764665D01*
X350188Y764629D01*
X350243Y764574D01*
X350478Y764484D01*
X350659Y764411D01*
X350768Y764303D01*
X350895Y764212D01*
X351239Y764085D01*
X351856Y763795D01*
X352037Y763723D01*
X352109Y763686D01*
X352218Y763578D01*
X352345Y763487D01*
X352689Y763360D01*
X352961Y763197D01*
X353306Y763070D01*
X353451Y763034D01*
X353505Y762980D01*
X353722Y762834D01*
X354121Y762653D01*
X354320Y762490D01*
X354610Y762381D01*
X355082Y762164D01*
X355154Y762128D01*
X355517Y761983D01*
X355607Y761892D01*
X355807Y761729D01*
X355952Y761693D01*
X356495Y761439D01*
X356677Y761366D01*
X356930Y761294D01*
X357039Y761185D01*
X357438Y760968D01*
X357619Y760895D01*
X357746Y760768D01*
X357927Y760696D01*
X358126Y760641D01*
X358308Y760569D01*
X358525Y760424D01*
X358598Y760388D01*
X358960Y760243D01*
X359069Y760134D01*
X359395Y759953D01*
X359540Y759917D01*
X359794Y759808D01*
X359848Y759753D01*
X360410Y759554D01*
X360537Y759391D01*
X360573Y755150D01*
Y755114D01*
Y730610D01*
X360537Y730465D01*
X360483Y730411D01*
X360301Y730302D01*
X359957Y730320D01*
X356822Y730302D01*
X356713Y730338D01*
X356242Y730302D01*
X356097Y730338D01*
X355988Y730375D01*
X355299Y730411D01*
X355045Y730447D01*
X354864Y730519D01*
X354774Y730610D01*
X354429Y730737D01*
X354175Y730846D01*
X354103Y730882D01*
X354030Y730954D01*
X353632Y731172D01*
X353559Y731208D01*
X353414Y731353D01*
X353342Y731389D01*
X353215Y731516D01*
X353179Y731589D01*
X352726Y732042D01*
X352653Y732078D01*
X352508Y732223D01*
X352417Y732459D01*
X352345Y732640D01*
X352272Y732712D01*
X352236Y732785D01*
X352164Y732858D01*
X352073Y733093D01*
X352019Y733292D01*
X351838Y733546D01*
X351801Y734054D01*
X351729Y734307D01*
X351693Y734416D01*
X351711Y734761D01*
X351693Y747574D01*
X351729Y747683D01*
X351693Y747864D01*
X351729Y747973D01*
X351693Y748154D01*
X351656Y748299D01*
X351602Y748353D01*
X351384Y748390D01*
X351239Y748426D01*
X351040Y748480D01*
X350895Y748517D01*
X350587Y748571D01*
X350224Y748716D01*
X350116Y748752D01*
X349681Y748788D01*
X349427Y748825D01*
X349228Y748879D01*
X348956Y748933D01*
X348557Y749115D01*
X348050Y749151D01*
X347905Y749187D01*
X347651Y749296D01*
X347252Y749513D01*
X346781Y749550D01*
X346491Y749622D01*
X346255Y749713D01*
X345802Y749876D01*
X345295Y749948D01*
X345077Y750093D01*
X344787Y750202D01*
X344534Y750275D01*
X344352Y750347D01*
X344298Y750402D01*
X344117Y750474D01*
X343845Y750528D01*
X343700Y750565D01*
X343446Y750601D01*
X343192Y750710D01*
X343102Y750800D01*
X342757Y750927D01*
X342304Y751163D01*
X341887Y751253D01*
X341742Y751290D01*
X341489Y751398D01*
X341235Y751471D01*
X341054Y751543D01*
X340800Y751652D01*
X340691Y751761D01*
X340438Y751942D01*
X340111Y751978D01*
X339658Y752214D01*
X339477Y752286D01*
X339278Y752341D01*
X339006Y752504D01*
X338770Y752595D01*
X338299Y752812D01*
X338172Y752903D01*
X337828Y753029D01*
X337574Y753138D01*
X337248Y753319D01*
X336994Y753428D01*
X336885Y753537D01*
X336813Y753573D01*
X336758Y753627D01*
X336523Y753718D01*
X336197Y753863D01*
X335870Y754044D01*
X335617Y754226D01*
X335290Y754407D01*
X335109Y754479D01*
X335037Y754516D01*
X334964Y754588D01*
X334765Y754715D01*
X334565Y754769D01*
X334348Y754914D01*
X334094Y755059D01*
X333985Y755168D01*
X333913Y755204D01*
X333840Y755277D01*
X333713Y755367D01*
X333369Y755494D01*
X333297Y755567D01*
X333224Y755603D01*
X333170Y755657D01*
X332735Y755875D01*
X332699Y755947D01*
X332572Y756074D01*
X332499Y756111D01*
X332209Y756292D01*
X332082Y756382D01*
X331738Y756509D01*
X331521Y756727D01*
X331267Y756872D01*
X331194Y756908D01*
X331140Y756962D01*
X331104Y757035D01*
X331013Y757089D01*
X330941Y757125D01*
X330614Y757270D01*
X330542Y757343D01*
X330288Y757488D01*
X330197Y757579D01*
X330161Y757651D01*
X329998Y757814D01*
X329926Y757850D01*
X329744Y757923D01*
X329654Y758014D01*
X329309Y758249D01*
X329237Y758285D01*
X329019Y758503D01*
X328893Y758594D01*
X328693Y758757D01*
X328367Y758938D01*
X328294Y758974D01*
X328204Y759065D01*
X328004Y759228D01*
X327932Y759264D01*
X327805Y759391D01*
X327769Y759463D01*
X327678Y759554D01*
X327425Y759699D01*
X327352Y759735D01*
X327171Y759917D01*
X327098Y759953D01*
X327044Y760007D01*
X327008Y760080D01*
X326917Y760170D01*
X326663Y760315D01*
X326591Y760388D01*
X326518Y760424D01*
X326464Y760478D01*
X326265Y760641D01*
X326192Y760678D01*
X326029Y760877D01*
X325830Y761040D01*
X325757Y761077D01*
X325540Y761294D01*
X325467Y761330D01*
X325213Y761584D01*
X325141Y761620D01*
X325014Y761747D01*
X324978Y761820D01*
X324905Y761892D01*
X324869Y761964D01*
X324815Y761983D01*
X324597Y762200D01*
X324271Y762454D01*
X324198Y762490D01*
X323981Y762708D01*
X323909Y762744D01*
X323854Y762798D01*
X323818Y762871D01*
X323764Y762889D01*
X323474Y763179D01*
X323401Y763215D01*
X323383Y763270D01*
X321770Y764883D01*
X321697Y764919D01*
X321552Y765136D01*
X321462Y765372D01*
X321335Y765499D01*
X321262Y765535D01*
X320936Y765861D01*
X320864Y765898D01*
X320845Y765952D01*
X320773Y766024D01*
X320737Y766097D01*
X320682Y766151D01*
X320555Y766242D01*
X320519Y766314D01*
X320374Y766459D01*
X320175Y766622D01*
X319939Y766967D01*
X319903Y767039D01*
X319831Y767112D01*
X319794Y767184D01*
X319740Y767239D01*
X319667Y767275D01*
X319504Y767438D01*
X319414Y767565D01*
X319069Y768018D01*
X319033Y768090D01*
X318906Y768217D01*
X318834Y768254D01*
X318779Y768308D01*
X318743Y768380D01*
X318634Y768489D01*
X318598Y768562D01*
X318489Y768670D01*
X318344Y768924D01*
X318308Y768997D01*
X318145Y769160D01*
X317891Y769558D01*
X317819Y769595D01*
X317619Y769867D01*
X317583Y769939D01*
X317438Y770084D01*
X317221Y770483D01*
X316786Y770918D01*
X316568Y771317D01*
X316423Y771461D01*
X316278Y771715D01*
X316151Y771842D01*
X316079Y771878D01*
X315843Y772331D01*
X315807Y772404D01*
X315735Y772476D01*
X315517Y772875D01*
X315481Y772948D01*
X315372Y773056D01*
X315336Y773129D01*
X315282Y773183D01*
X315191Y773419D01*
X315046Y773564D01*
X314828Y773963D01*
X314792Y774035D01*
X314647Y774180D01*
X314466Y774506D01*
X314357Y774615D01*
X314176Y774941D01*
X314085Y775141D01*
X313904Y775431D01*
X313850Y775630D01*
X313777Y775811D01*
X313687Y775902D01*
X313614Y775938D01*
X313560Y775993D01*
X313342Y776391D01*
X313197Y776645D01*
X313161Y776790D01*
X313088Y776971D01*
X312980Y777080D01*
X312726Y777551D01*
X312527Y777823D01*
X312436Y778059D01*
X312327Y778312D01*
X312291Y778385D01*
X312237Y778439D01*
X312110Y778784D01*
X312037Y778965D01*
X311892Y779110D01*
X311856Y779182D01*
X311784Y779255D01*
X311747Y779509D01*
X311675Y779799D01*
X311512Y780070D01*
X311421Y780306D01*
X311312Y780560D01*
X311240Y780632D01*
X311059Y780958D01*
X310823Y781412D01*
X310769Y781683D01*
X310732Y781828D01*
X310587Y782155D01*
X310551Y782227D01*
X310479Y782300D01*
X310406Y782481D01*
X310370Y782626D01*
X310297Y782880D01*
X310134Y783043D01*
X310062Y783224D01*
X310007Y783568D01*
X309935Y783858D01*
X309826Y784040D01*
X309736Y784275D01*
X309681Y784583D01*
X309500Y784982D01*
X309355Y785236D01*
X309319Y785453D01*
X309137Y785852D01*
X309047Y786087D01*
X309011Y786269D01*
X308956Y786577D01*
X308920Y786831D01*
X308884Y786976D01*
X308811Y787157D01*
X308757Y787211D01*
X308594Y787664D01*
X308557Y787809D01*
X308485Y788063D01*
X308449Y788208D01*
X308394Y788407D01*
X308322Y788589D01*
X308286Y788734D01*
X308231Y788933D01*
X308123Y789187D01*
X308086Y789694D01*
X307978Y789948D01*
X307941Y790347D01*
X307905Y790492D01*
X307778Y790727D01*
X307687Y790963D01*
X307651Y791108D01*
X307615Y791217D01*
X307579Y791507D01*
X307542Y791615D01*
X307506Y792050D01*
X307343Y792431D01*
X307307Y793047D01*
X307271Y793228D01*
X307216Y793573D01*
X307180Y793935D01*
X306999Y794189D01*
X307035Y794551D01*
X306890Y794878D01*
X306854Y795675D01*
X306763Y795874D01*
X306691Y796056D01*
X306709Y796690D01*
X306600Y796944D01*
X306564Y797741D01*
X306528Y797850D01*
X306491Y799517D01*
X306455Y799771D01*
X306383Y799952D01*
X306310Y800025D01*
X306274Y800496D01*
X306310Y800605D01*
X306274Y800641D01*
X306292Y802399D01*
X306274Y802635D01*
X306238Y802888D01*
X306201Y802997D01*
X306165Y804773D01*
X306201Y805027D01*
X306256Y805226D01*
X306292Y805371D01*
X306274Y808036D01*
X306310Y808181D01*
X306455Y808398D01*
X306491Y809957D01*
X306528Y810066D01*
X306564Y810899D01*
X306600Y811044D01*
X306673Y811226D01*
X306709Y811950D01*
X306745Y812095D01*
X306818Y812277D01*
X306854Y812893D01*
X306890Y813038D01*
X307035Y813364D01*
X306999Y813763D01*
X307089Y813962D01*
X307162Y814143D01*
X307216Y814415D01*
X307253Y814778D01*
X307289Y814886D01*
X307325Y815467D01*
X307452Y815775D01*
X307488Y816137D01*
X307561Y816427D01*
X307615Y816880D01*
X307724Y817134D01*
X307905Y817460D01*
X307941Y817895D01*
X308014Y818330D01*
X308086Y818620D01*
X308231Y819091D01*
X308304Y819381D01*
X308358Y819581D01*
X308394Y819726D01*
X308539Y820124D01*
X308594Y820360D01*
X308666Y820614D01*
X308920Y821157D01*
X308992Y821737D01*
X309101Y822100D01*
X309192Y822263D01*
X309282Y822499D01*
X309319Y822644D01*
X309391Y822897D01*
X309645Y823260D01*
X309681Y823695D01*
X309627Y823858D01*
X309373Y824003D01*
X309047Y824148D01*
X308648Y824365D01*
X308557Y824456D01*
X308521Y824528D01*
X308467Y824547D01*
X308412Y824601D01*
X308177Y824692D01*
X307996Y824764D01*
X307833Y824927D01*
X307597Y825018D01*
X307416Y825090D01*
X307361Y825145D01*
X307162Y825308D01*
X307089Y825344D01*
X306836Y825453D01*
X306763Y825525D01*
X306437Y825706D01*
X306183Y825779D01*
X305966Y825924D01*
X305712Y826105D01*
X305639Y826142D01*
X305531Y826250D01*
X305277Y826395D01*
X305132Y826432D01*
X304951Y826504D01*
X304842Y826613D01*
X304661Y826721D01*
X304480Y826794D01*
X303972Y827156D01*
X303501Y827410D01*
X303356Y827446D01*
X303157Y827537D01*
X303120Y827609D01*
X303030Y827700D01*
X302776Y827845D01*
X302323Y828081D01*
X302087Y828171D01*
X302015Y828244D01*
X301942Y828280D01*
X301888Y828335D01*
X301380Y828588D01*
X301344Y828661D01*
X301254Y828751D01*
X301072Y828860D01*
X300456Y829150D01*
X300275Y829222D01*
X300221Y829277D01*
X300021Y829440D01*
X299822Y829567D01*
X299622Y829621D01*
X299332Y829802D01*
X299006Y829984D01*
X298934Y830020D01*
X298807Y830147D01*
X298571Y830238D01*
X298317Y830346D01*
X298172Y830491D01*
X297774Y830709D01*
X297302Y830962D01*
X297067Y831198D01*
X296723Y831325D01*
X296541Y831397D01*
X296433Y831506D01*
X296179Y831651D01*
X295998Y831832D01*
X295925Y831869D01*
X295816Y831977D01*
X295744Y832014D01*
X295581Y832177D01*
X295544Y832249D01*
X295363Y832430D01*
X295327Y832503D01*
X295110Y832720D01*
X294747Y833409D01*
X294656Y833717D01*
X294511Y833935D01*
X294457Y834134D01*
X294421Y834279D01*
X294366Y834442D01*
X294330Y834660D01*
X294348Y836055D01*
X294529Y836454D01*
X294566Y836599D01*
X294747Y837070D01*
X295001Y837614D01*
X295110Y837868D01*
X295200Y837958D01*
X295273Y837995D01*
X295544Y838520D01*
X295690Y838774D01*
X295762Y838955D01*
X295853Y839118D01*
X296016Y839318D01*
X296052Y839390D01*
X296215Y839771D01*
X296378Y839970D01*
X296741Y840659D01*
X296904Y840931D01*
X296976Y840967D01*
X297031Y841021D01*
X297230Y841076D01*
X297484Y841039D01*
D02*
G37*
G36*
X157261Y22268D02*
X157525Y21880D01*
X157825Y21510D01*
X158125Y21192D01*
X158389Y20893D01*
X158512Y20787D01*
X158600Y20681D01*
X158689Y20593D01*
X158759Y20540D01*
X158794Y20505D01*
X158812Y20487D01*
X159288Y20082D01*
X159799Y19729D01*
X160293Y19394D01*
X160751Y19112D01*
X160945Y19007D01*
X161139Y18901D01*
X161315Y18795D01*
X161456Y18724D01*
X161579Y18672D01*
X161668Y18619D01*
X161721Y18601D01*
X161738Y18584D01*
Y16662D01*
X161386Y16803D01*
X161015Y16962D01*
X160663Y17138D01*
X160346Y17297D01*
X160063Y17455D01*
X159940Y17508D01*
X159834Y17579D01*
X159746Y17614D01*
X159693Y17649D01*
X159658Y17685D01*
X159641D01*
X159217Y17949D01*
X158847Y18196D01*
X158512Y18425D01*
X158248Y18636D01*
X158019Y18813D01*
X157860Y18936D01*
X157772Y19024D01*
X157737Y19059D01*
Y6350D01*
X155745D01*
Y22673D01*
X157032D01*
X157261Y22268D01*
D02*
G37*
G36*
X284849Y6350D02*
X282699D01*
Y14018D01*
X274255D01*
Y6350D01*
X272105D01*
Y22620D01*
X274255D01*
Y15939D01*
X282699D01*
Y22620D01*
X284849D01*
Y6350D01*
D02*
G37*
G36*
X248096Y11233D02*
X241944D01*
Y13242D01*
X248096D01*
Y11233D01*
D02*
G37*
G36*
X344360Y6350D02*
X342280D01*
Y20205D01*
X337591Y6350D01*
X335652D01*
X330893Y19976D01*
Y6350D01*
X328813D01*
Y22620D01*
X331721D01*
X335634Y11303D01*
X335740Y10986D01*
X335846Y10704D01*
X335934Y10422D01*
X336022Y10175D01*
X336093Y9928D01*
X336163Y9717D01*
X336234Y9523D01*
X336287Y9347D01*
X336339Y9206D01*
X336375Y9065D01*
X336410Y8959D01*
X336445Y8853D01*
X336463Y8783D01*
X336481Y8730D01*
X336498Y8712D01*
Y8694D01*
X336551Y8853D01*
X336604Y9029D01*
X336727Y9400D01*
X336851Y9805D01*
X336974Y10193D01*
X337098Y10545D01*
X337150Y10704D01*
X337186Y10827D01*
X337221Y10933D01*
X337256Y11021D01*
X337274Y11074D01*
Y11092D01*
X341134Y22620D01*
X344360D01*
Y6350D01*
D02*
G37*
G36*
X233253Y6350D02*
X231173D01*
Y20205D01*
X226484Y6350D01*
X224545D01*
X219786Y19976D01*
Y6350D01*
X217706D01*
Y22620D01*
X220614D01*
X224528Y11303D01*
X224633Y10986D01*
X224739Y10704D01*
X224827Y10422D01*
X224916Y10175D01*
X224986Y9928D01*
X225056Y9717D01*
X225127Y9523D01*
X225180Y9347D01*
X225233Y9206D01*
X225268Y9065D01*
X225303Y8959D01*
X225338Y8853D01*
X225356Y8783D01*
X225374Y8730D01*
X225391Y8712D01*
Y8694D01*
X225444Y8853D01*
X225497Y9029D01*
X225621Y9399D01*
X225744Y9805D01*
X225867Y10193D01*
X225991Y10545D01*
X226044Y10704D01*
X226079Y10827D01*
X226114Y10933D01*
X226149Y11021D01*
X226167Y11074D01*
Y11092D01*
X230028Y22620D01*
X233253D01*
Y6350D01*
D02*
G37*
G36*
X172967D02*
X170746D01*
X164400Y22620D01*
X166586D01*
X170975Y10792D01*
X171151Y10299D01*
X171328Y9823D01*
X171486Y9364D01*
X171610Y8959D01*
X171663Y8783D01*
X171715Y8624D01*
X171751Y8483D01*
X171786Y8360D01*
X171821Y8271D01*
X171839Y8183D01*
X171856Y8148D01*
Y8130D01*
X171997Y8606D01*
X172138Y9082D01*
X172279Y9523D01*
X172403Y9928D01*
X172473Y10122D01*
X172526Y10281D01*
X172579Y10422D01*
X172614Y10545D01*
X172650Y10651D01*
X172685Y10722D01*
X172703Y10775D01*
Y10792D01*
X176933Y22620D01*
X179278D01*
X172967Y6350D01*
D02*
G37*
G36*
X365760Y6350D02*
X363609D01*
Y12960D01*
X359449D01*
X358815Y12978D01*
X358251Y13031D01*
X357722Y13101D01*
X357228Y13190D01*
X356805Y13295D01*
X356400Y13419D01*
X356065Y13542D01*
X355747Y13683D01*
X355483Y13807D01*
X355254Y13930D01*
X355060Y14053D01*
X354919Y14159D01*
X354796Y14265D01*
X354725Y14335D01*
X354672Y14371D01*
X354655Y14388D01*
X354426Y14670D01*
X354214Y14952D01*
X354038Y15252D01*
X353897Y15552D01*
X353756Y15851D01*
X353650Y16133D01*
X353562Y16415D01*
X353491Y16680D01*
X353438Y16944D01*
X353403Y17173D01*
X353368Y17367D01*
X353350Y17543D01*
X353332Y17702D01*
Y17808D01*
Y17879D01*
Y17896D01*
X353350Y18337D01*
X353403Y18760D01*
X353491Y19130D01*
X353579Y19465D01*
X353685Y19729D01*
X353720Y19853D01*
X353756Y19941D01*
X353791Y20011D01*
X353826Y20064D01*
X353844Y20099D01*
Y20117D01*
X354038Y20487D01*
X354249Y20787D01*
X354478Y21069D01*
X354672Y21281D01*
X354866Y21457D01*
X355007Y21580D01*
X355113Y21668D01*
X355131Y21686D01*
X355148D01*
X355466Y21880D01*
X355800Y22039D01*
X356135Y22180D01*
X356453Y22285D01*
X356735Y22373D01*
X356858Y22391D01*
X356964Y22426D01*
X357034Y22444D01*
X357105D01*
X357140Y22462D01*
X357158D01*
X357316Y22497D01*
X357510Y22515D01*
X357898Y22550D01*
X358303Y22585D01*
X358709Y22603D01*
X359062Y22620D01*
X365760D01*
Y6350D01*
D02*
G37*
G36*
X350283D02*
X348009D01*
Y8624D01*
X350283D01*
Y6350D01*
D02*
G37*
G36*
X324987D02*
X322837D01*
Y22620D01*
X324987D01*
Y6350D01*
D02*
G37*
G36*
X320810D02*
X318536D01*
X316773Y11268D01*
X309933D01*
X308047Y6350D01*
X305597D01*
X312260Y22620D01*
X314587D01*
X320810Y6350D01*
D02*
G37*
G36*
X303517D02*
X301366D01*
Y22620D01*
X303517D01*
Y6350D01*
D02*
G37*
G36*
X297665D02*
X287493Y6350D01*
Y8271D01*
X295514Y8271D01*
Y22620D01*
X297665D01*
Y6350D01*
D02*
G37*
G36*
X268473Y6350D02*
X256328D01*
Y8271D01*
X266323D01*
Y13806D01*
X257315D01*
Y15728D01*
X266323D01*
Y20699D01*
X256698D01*
Y22620D01*
X268473D01*
Y6350D01*
D02*
G37*
G36*
X199038D02*
X186893D01*
Y8271D01*
X196888D01*
Y13806D01*
X187880D01*
Y15728D01*
X196888D01*
Y20699D01*
X187263D01*
Y22620D01*
X199038D01*
Y6350D01*
D02*
G37*
G36*
X209227Y22885D02*
X209791Y22814D01*
X210285Y22726D01*
X210514Y22673D01*
X210725Y22620D01*
X210919Y22567D01*
X211095Y22515D01*
X211254Y22462D01*
X211378Y22426D01*
X211466Y22391D01*
X211554Y22356D01*
X211589Y22338D01*
X211607D01*
X212083Y22109D01*
X212488Y21845D01*
X212841Y21580D01*
X213123Y21316D01*
X213352Y21069D01*
X213528Y20875D01*
X213581Y20805D01*
X213616Y20752D01*
X213651Y20717D01*
Y20699D01*
X213881Y20293D01*
X214057Y19888D01*
X214163Y19518D01*
X214251Y19165D01*
X214304Y18848D01*
X214321Y18724D01*
Y18619D01*
X214339Y18531D01*
Y18460D01*
Y18425D01*
Y18407D01*
X214321Y18002D01*
X214251Y17614D01*
X214163Y17262D01*
X214057Y16962D01*
X213951Y16715D01*
X213863Y16521D01*
X213828Y16451D01*
X213792Y16398D01*
X213775Y16380D01*
Y16363D01*
X213546Y16045D01*
X213264Y15746D01*
X212982Y15499D01*
X212682Y15270D01*
X212435Y15093D01*
X212224Y14970D01*
X212136Y14935D01*
X212083Y14899D01*
X212047Y14864D01*
X212030D01*
X211853Y14776D01*
X211642Y14688D01*
X211413Y14600D01*
X211166Y14512D01*
X210655Y14335D01*
X210126Y14177D01*
X209879Y14106D01*
X209668Y14036D01*
X209456Y13983D01*
X209262Y13930D01*
X209121Y13895D01*
X208998Y13859D01*
X208927Y13842D01*
X208910D01*
X208504Y13754D01*
X208134Y13648D01*
X207817Y13577D01*
X207517Y13489D01*
X207253Y13419D01*
X207006Y13366D01*
X206812Y13295D01*
X206618Y13242D01*
X206477Y13207D01*
X206336Y13154D01*
X206230Y13119D01*
X206160Y13101D01*
X206089Y13084D01*
X206054Y13066D01*
X206019Y13048D01*
X205666Y12890D01*
X205366Y12731D01*
X205102Y12572D01*
X204908Y12431D01*
X204750Y12291D01*
X204644Y12185D01*
X204573Y12114D01*
X204556Y12097D01*
X204397Y11885D01*
X204291Y11656D01*
X204203Y11427D01*
X204150Y11215D01*
X204115Y11039D01*
X204097Y10880D01*
Y10792D01*
Y10775D01*
Y10757D01*
X204115Y10493D01*
X204168Y10228D01*
X204256Y9999D01*
X204326Y9787D01*
X204415Y9611D01*
X204503Y9470D01*
X204556Y9399D01*
X204573Y9364D01*
X204767Y9135D01*
X204979Y8941D01*
X205225Y8765D01*
X205455Y8624D01*
X205666Y8518D01*
X205825Y8430D01*
X205895Y8395D01*
X205948Y8377D01*
X205966Y8360D01*
X205983D01*
X206336Y8236D01*
X206706Y8148D01*
X207076Y8095D01*
X207411Y8060D01*
X207693Y8025D01*
X207817D01*
X207922Y8007D01*
X208134D01*
X208645Y8025D01*
X209104Y8077D01*
X209544Y8166D01*
X209914Y8254D01*
X210073Y8289D01*
X210214Y8324D01*
X210338Y8377D01*
X210443Y8412D01*
X210531Y8448D01*
X210584Y8465D01*
X210620Y8483D01*
X210637D01*
X211025Y8677D01*
X211360Y8888D01*
X211642Y9082D01*
X211871Y9294D01*
X212047Y9470D01*
X212171Y9611D01*
X212259Y9699D01*
X212276Y9735D01*
X212453Y10052D01*
X212594Y10387D01*
X212700Y10722D01*
X212788Y11039D01*
X212858Y11339D01*
X212876Y11444D01*
X212894Y11550D01*
X212911Y11638D01*
X212929Y11709D01*
Y11744D01*
Y11762D01*
X214956Y11585D01*
X214938Y11286D01*
X214903Y10986D01*
X214797Y10440D01*
X214656Y9928D01*
X214586Y9699D01*
X214498Y9505D01*
X214427Y9311D01*
X214339Y9135D01*
X214268Y8994D01*
X214198Y8871D01*
X214145Y8765D01*
X214110Y8694D01*
X214092Y8659D01*
X214074Y8642D01*
X213740Y8183D01*
X213352Y7795D01*
X212964Y7461D01*
X212594Y7196D01*
X212259Y6985D01*
X212118Y6914D01*
X211994Y6844D01*
X211889Y6791D01*
X211818Y6755D01*
X211765Y6720D01*
X211748D01*
X211148Y6509D01*
X210531Y6350D01*
X209914Y6244D01*
X209333Y6174D01*
X209051Y6138D01*
X208804Y6121D01*
X208592Y6103D01*
X208398D01*
X208240Y6086D01*
X208028D01*
X207394Y6121D01*
X206812Y6191D01*
X206283Y6280D01*
X206036Y6350D01*
X205825Y6403D01*
X205613Y6456D01*
X205437Y6526D01*
X205278Y6579D01*
X205155Y6614D01*
X205049Y6667D01*
X204979Y6685D01*
X204926Y6720D01*
X204908D01*
X204415Y6985D01*
X203992Y7267D01*
X203621Y7566D01*
X203322Y7848D01*
X203075Y8113D01*
X202916Y8307D01*
X202846Y8395D01*
X202810Y8448D01*
X202775Y8483D01*
Y8500D01*
X202634Y8712D01*
X202528Y8941D01*
X202334Y9364D01*
X202194Y9770D01*
X202105Y10140D01*
X202052Y10475D01*
X202035Y10598D01*
Y10722D01*
X202017Y10810D01*
Y10880D01*
Y10915D01*
Y10933D01*
X202052Y11409D01*
X202123Y11850D01*
X202229Y12238D01*
X202352Y12572D01*
X202493Y12855D01*
X202546Y12978D01*
X202599Y13066D01*
X202634Y13137D01*
X202669Y13190D01*
X202705Y13225D01*
Y13242D01*
X202846Y13419D01*
X202987Y13595D01*
X203322Y13930D01*
X203657Y14212D01*
X204009Y14441D01*
X204309Y14635D01*
X204450Y14723D01*
X204573Y14776D01*
X204661Y14829D01*
X204732Y14864D01*
X204785Y14899D01*
X204802D01*
X204996Y14987D01*
X205243Y15076D01*
X205490Y15164D01*
X205772Y15252D01*
X206371Y15411D01*
X206971Y15569D01*
X207253Y15657D01*
X207517Y15710D01*
X207764Y15781D01*
X207975Y15816D01*
X208152Y15869D01*
X208275Y15904D01*
X208363Y15922D01*
X208398D01*
X208874Y16027D01*
X209297Y16151D01*
X209668Y16257D01*
X210020Y16363D01*
X210320Y16468D01*
X210584Y16556D01*
X210813Y16645D01*
X211007Y16733D01*
X211166Y16821D01*
X211307Y16891D01*
X211413Y16944D01*
X211501Y16997D01*
X211571Y17050D01*
X211607Y17085D01*
X211642Y17103D01*
X211853Y17332D01*
X211994Y17561D01*
X212100Y17808D01*
X212188Y18037D01*
X212224Y18231D01*
X212241Y18390D01*
X212259Y18495D01*
Y18513D01*
Y18531D01*
X212241Y18724D01*
X212224Y18901D01*
X212118Y19218D01*
X211977Y19518D01*
X211818Y19765D01*
X211660Y19976D01*
X211518Y20135D01*
X211413Y20223D01*
X211395Y20258D01*
X211378D01*
X211201Y20382D01*
X210990Y20505D01*
X210549Y20681D01*
X210091Y20805D01*
X209615Y20893D01*
X209403Y20928D01*
X209192Y20946D01*
X209015Y20963D01*
X208857D01*
X208716Y20981D01*
X208204D01*
X207887Y20946D01*
X207588Y20910D01*
X207306Y20858D01*
X207059Y20805D01*
X206830Y20734D01*
X206618Y20664D01*
X206424Y20593D01*
X206266Y20505D01*
X206124Y20434D01*
X206001Y20364D01*
X205895Y20311D01*
X205825Y20258D01*
X205754Y20223D01*
X205737Y20205D01*
X205719Y20188D01*
X205543Y20029D01*
X205384Y19870D01*
X205137Y19500D01*
X204926Y19112D01*
X204785Y18742D01*
X204679Y18407D01*
X204644Y18266D01*
X204608Y18125D01*
X204591Y18019D01*
Y17949D01*
X204573Y17896D01*
Y17878D01*
X202511Y18037D01*
X202564Y18566D01*
X202669Y19042D01*
X202793Y19483D01*
X202934Y19853D01*
X203022Y20011D01*
X203075Y20170D01*
X203145Y20293D01*
X203198Y20399D01*
X203251Y20487D01*
X203286Y20540D01*
X203304Y20575D01*
X203322Y20593D01*
X203621Y20998D01*
X203956Y21333D01*
X204309Y21633D01*
X204661Y21880D01*
X204961Y22056D01*
X205102Y22127D01*
X205208Y22197D01*
X205296Y22250D01*
X205384Y22268D01*
X205419Y22303D01*
X205437D01*
X205966Y22497D01*
X206512Y22655D01*
X207059Y22761D01*
X207552Y22832D01*
X207781Y22849D01*
X207975Y22867D01*
X208169Y22885D01*
X208328Y22902D01*
X208628D01*
X209227Y22885D01*
D02*
G37*
%LPC*%
G36*
X364615Y832702D02*
X360900Y832684D01*
X360537Y832612D01*
X360211Y832576D01*
X359576Y832594D01*
X359286Y832521D01*
X359105Y832449D01*
X358562Y832412D01*
X358308Y832376D01*
X358199Y832340D01*
X357510Y832304D01*
X357257Y832195D01*
X356858Y832159D01*
X356604Y832050D01*
X356242Y832014D01*
X356097Y831977D01*
X355897Y831923D01*
X355680Y831814D01*
X355480Y831760D01*
X355172Y831669D01*
X354955Y831633D01*
X354592Y831561D01*
X354393Y831506D01*
X354067Y831361D01*
X353922Y831325D01*
X353668Y831289D01*
X353360Y831162D01*
X353161Y830999D01*
X352834Y830926D01*
X352581Y830890D01*
X352291Y830709D01*
X351964Y830636D01*
X351511Y830437D01*
X351149Y830292D01*
X350913Y830201D01*
X350696Y830056D01*
X350442Y829911D01*
X350297Y829875D01*
X349844Y829639D01*
X349500Y829512D01*
X349336Y829422D01*
X349300Y829349D01*
X349246Y829331D01*
X349191Y829277D01*
X348847Y829150D01*
X348593Y828969D01*
X348412Y828860D01*
X348158Y828788D01*
X348104Y828733D01*
X347887Y828552D01*
X347651Y828461D01*
X347560Y828371D01*
X347361Y828208D01*
X347252Y828171D01*
X346980Y828008D01*
X346636Y827773D01*
X346509Y827682D01*
X346473Y827609D01*
X346020Y827374D01*
X345965Y827319D01*
X345766Y827156D01*
X345694Y827120D01*
X345476Y826903D01*
X345222Y826758D01*
X345023Y826558D01*
X344624Y826305D01*
X344588Y826232D01*
X344352Y825996D01*
X344280Y825960D01*
X344171Y825852D01*
X343917Y825706D01*
X343700Y825489D01*
X343627Y825453D01*
X343555Y825380D01*
X343482Y825344D01*
X343428Y825253D01*
X343392Y825181D01*
X342902Y824692D01*
X342830Y824655D01*
X342775Y824601D01*
X342739Y824528D01*
X341887Y823677D01*
X341815Y823640D01*
X341724Y823550D01*
X341688Y823477D01*
X341199Y822988D01*
X341126Y822952D01*
X340999Y822788D01*
X340963Y822716D01*
X340891Y822535D01*
X340746Y822390D01*
X340655Y822263D01*
X340583Y822227D01*
X340474Y822118D01*
X340238Y821774D01*
X340202Y821701D01*
X339984Y821484D01*
X339948Y821411D01*
X339694Y821049D01*
X339658Y820976D01*
X339495Y820813D01*
X339423Y820777D01*
X339296Y820614D01*
X339223Y820432D01*
X339078Y820215D01*
X338897Y819889D01*
X338861Y819816D01*
X338680Y819635D01*
X338643Y819563D01*
X338462Y819309D01*
X338208Y818838D01*
X338136Y818656D01*
X338063Y818584D01*
X337810Y818113D01*
X337665Y817968D01*
X337302Y817279D01*
X337266Y817206D01*
X337193Y817025D01*
X337121Y816771D01*
X336885Y816536D01*
X336758Y816191D01*
X336559Y815811D01*
X336468Y815394D01*
X336360Y815140D01*
X336287Y815068D01*
X336142Y814814D01*
X336070Y814524D01*
X335979Y814325D01*
X335834Y814107D01*
X335798Y813962D01*
X335743Y813618D01*
X335671Y813328D01*
X335544Y813092D01*
X335472Y812911D01*
X335417Y812712D01*
X335345Y812422D01*
X335145Y812005D01*
X335109Y811860D01*
X335019Y811443D01*
X334982Y811298D01*
X334946Y811044D01*
X334892Y810845D01*
X334819Y810664D01*
X334765Y810210D01*
X334729Y810102D01*
X334692Y809775D01*
X334656Y809522D01*
X334602Y809467D01*
X334439Y809268D01*
X334402Y809014D01*
X334439Y808906D01*
X334420Y808743D01*
X334384Y808561D01*
X334312Y808126D01*
X334330Y807709D01*
X334294Y807564D01*
X334148Y807238D01*
X334112Y806404D01*
X334148Y806260D01*
X334112Y806006D01*
X334076Y805897D01*
X334040Y802200D01*
X334076Y802091D01*
X334112Y800822D01*
X334185Y800532D01*
X334275Y800333D01*
X334312Y800188D01*
X334348Y799572D01*
X334384Y799390D01*
X334439Y799046D01*
X334402Y798937D01*
X334475Y798647D01*
X334620Y798502D01*
X334656Y798321D01*
X334692Y797959D01*
X334729Y797850D01*
X334765Y797379D01*
X334801Y797234D01*
X334892Y797034D01*
X334964Y796744D01*
X335000Y796563D01*
X335091Y796038D01*
X335127Y795893D01*
X335182Y795693D01*
X335399Y795331D01*
X335490Y794914D01*
X335689Y794497D01*
X335725Y794352D01*
X335780Y794008D01*
X335816Y793863D01*
X335888Y793681D01*
X335979Y793591D01*
X336070Y793355D01*
X336106Y793210D01*
X336178Y792956D01*
X336378Y792685D01*
X336450Y792503D01*
X336487Y792358D01*
X336541Y792123D01*
X336704Y791851D01*
X336831Y791507D01*
X336903Y791325D01*
X337103Y791126D01*
X337266Y790673D01*
X337447Y790383D01*
X337483Y790238D01*
X337556Y790057D01*
X337810Y789803D01*
X337846Y789730D01*
X337991Y789404D01*
X338172Y789078D01*
X338281Y788824D01*
X338335Y788770D01*
X338571Y788426D01*
X338607Y788353D01*
X338788Y788172D01*
X338879Y788045D01*
X338969Y787809D01*
X339078Y787701D01*
X339114Y787628D01*
X339169Y787574D01*
X339296Y787229D01*
X339386Y787139D01*
X339459Y787103D01*
X339568Y786994D01*
X339912Y786541D01*
X339948Y786468D01*
X340021Y786396D01*
X340057Y786323D01*
X340148Y786233D01*
X340401Y785834D01*
X340474Y785798D01*
X340673Y785598D01*
X340709Y785526D01*
X340854Y785381D01*
X340999Y785127D01*
X341090Y785036D01*
X341162Y785000D01*
X341271Y784891D01*
X341416Y784674D01*
X341489Y784638D01*
X342177Y783949D01*
X342250Y783913D01*
X342377Y783749D01*
X342413Y783677D01*
X342467Y783623D01*
X342540Y783586D01*
X342667Y783460D01*
X342703Y783387D01*
X342939Y783224D01*
X343102Y783025D01*
X343138Y782952D01*
X343192Y782898D01*
X343265Y782861D01*
X343319Y782807D01*
X343355Y782735D01*
X343482Y782608D01*
X343555Y782571D01*
X343790Y782336D01*
X343990Y782173D01*
X344062Y782137D01*
X344280Y781919D01*
X344352Y781883D01*
X344570Y781665D01*
X344642Y781629D01*
X344715Y781557D01*
X344787Y781520D01*
X344860Y781448D01*
X344932Y781412D01*
X345077Y781267D01*
X345404Y781013D01*
X345657Y780868D01*
X345911Y780614D01*
X346237Y780433D01*
X346310Y780360D01*
X346382Y780324D01*
X346455Y780252D01*
X346781Y780070D01*
X346853Y780034D01*
X346926Y779962D01*
X346998Y779925D01*
X347216Y779780D01*
X347288Y779744D01*
X347379Y779653D01*
X347578Y779490D01*
X347832Y779345D01*
X348050Y779200D01*
X348195Y779164D01*
X348412Y779019D01*
X348485Y778983D01*
X348575Y778892D01*
X349083Y778639D01*
X349300Y778494D01*
X349536Y778403D01*
X349862Y778258D01*
X349935Y778222D01*
X349989Y778167D01*
X350224Y778077D01*
X350406Y778004D01*
X350478Y777968D01*
X350551Y777896D01*
X350877Y777714D01*
X351113Y777624D01*
X351566Y777460D01*
X351747Y777388D01*
X352127Y777225D01*
X352417Y777044D01*
X352979Y776917D01*
X353215Y776790D01*
X353396Y776717D01*
X353813Y776627D01*
X353958Y776591D01*
X354284Y776446D01*
X354411Y776391D01*
X355009Y776264D01*
X355462Y776065D01*
X355879Y775974D01*
X355988Y775938D01*
X356459Y775902D01*
X356640Y775829D01*
X356785Y775793D01*
X356894Y775757D01*
X357003Y775793D01*
X357148Y775757D01*
X357329Y775684D01*
X357836Y775648D01*
X358036Y775594D01*
X358271Y775503D01*
X358380Y775467D01*
X358670Y775503D01*
X358924Y775467D01*
X359141Y775322D01*
X360338Y775286D01*
X360483Y775249D01*
X360591Y775213D01*
X364651Y775177D01*
X364796Y775213D01*
X364905Y775249D01*
X366174Y775286D01*
X366355Y775358D01*
X366427Y775394D01*
X366500Y775467D01*
X367116Y775503D01*
X367261Y775539D01*
X367442Y775612D01*
X368022Y775648D01*
X368203Y775721D01*
X368602Y775757D01*
X368783Y775829D01*
X368910Y775884D01*
X369381Y775920D01*
X369617Y775974D01*
X370052Y776083D01*
X370251Y776174D01*
X370596Y776301D01*
X370886Y776373D01*
X371194Y776464D01*
X371375Y776536D01*
X371955Y776681D01*
X372191Y776736D01*
X372463Y776899D01*
X372644Y776971D01*
X373024Y777062D01*
X373206Y777134D01*
X373278Y777207D01*
X373405Y777297D01*
X373641Y777388D01*
X373894Y777424D01*
X374202Y777587D01*
X374547Y777714D01*
X374692Y777750D01*
X374837Y777896D01*
X375163Y778077D01*
X375779Y778367D01*
X376178Y778548D01*
X376577Y778765D01*
X376722Y778802D01*
X376830Y778911D01*
X377229Y779128D01*
X377410Y779237D01*
X377610Y779363D01*
X377845Y779454D01*
X377918Y779527D01*
X377990Y779563D01*
X378135Y779708D01*
X378462Y779889D01*
X378534Y779962D01*
X379005Y780215D01*
X379205Y780415D01*
X379422Y780560D01*
X379622Y780723D01*
X379803Y780832D01*
X380020Y781049D01*
X380419Y781267D01*
X380491Y781303D01*
X380510Y781357D01*
X380854Y781702D01*
X380926Y781738D01*
X380981Y781792D01*
X381216Y781883D01*
X381343Y782010D01*
X381380Y782082D01*
X381670Y782372D01*
X381706Y782445D01*
X381760Y782499D01*
X381833Y782535D01*
X382159Y782861D01*
X382231Y782898D01*
X382304Y782970D01*
X382376Y783007D01*
X382431Y783061D01*
X382467Y783133D01*
X382521Y783151D01*
X382594Y783224D01*
X382666Y783260D01*
X382956Y783550D01*
X383029Y783586D01*
X383210Y783768D01*
X383446Y784112D01*
X383482Y784184D01*
X383573Y784275D01*
X383699Y784366D01*
X383736Y784438D01*
X383844Y784547D01*
X383881Y784620D01*
X383935Y784638D01*
X384098Y784801D01*
X384134Y784873D01*
X384261Y785000D01*
X384334Y785036D01*
X384424Y785127D01*
X384461Y785200D01*
X384551Y785290D01*
X384624Y785326D01*
X384678Y785381D01*
X384896Y785779D01*
X385041Y785924D01*
X385222Y786178D01*
X385258Y786251D01*
X385385Y786341D01*
X385548Y786541D01*
X385584Y786613D01*
X385765Y786867D01*
X385802Y786939D01*
X385874Y787012D01*
X385910Y787084D01*
X386128Y787302D01*
X386309Y787628D01*
X386382Y787701D01*
X386527Y787954D01*
X386672Y788172D01*
X386708Y788244D01*
X386781Y788317D01*
X386962Y788643D01*
X387107Y788788D01*
X387197Y788915D01*
X387288Y789150D01*
X387433Y789368D01*
X387524Y789495D01*
X387614Y789730D01*
X387687Y789912D01*
X387723Y789984D01*
X387795Y790057D01*
X387977Y790383D01*
X388049Y790564D01*
X388158Y790673D01*
X388303Y790927D01*
X388448Y791253D01*
X388593Y791507D01*
X388665Y791797D01*
X388738Y791978D01*
X388792Y792032D01*
X388974Y792322D01*
X389046Y792612D01*
X389100Y792812D01*
X389227Y793047D01*
X389354Y793391D01*
X389390Y793537D01*
X389463Y793718D01*
X389535Y793790D01*
X389717Y794116D01*
X389789Y794406D01*
X389952Y794932D01*
X390133Y795657D01*
X390170Y795838D01*
X390224Y796038D01*
X390278Y796092D01*
X390405Y796436D01*
X390460Y796636D01*
X390496Y796817D01*
X390568Y797107D01*
X390659Y797343D01*
X390732Y797633D01*
X390768Y798104D01*
X390804Y798357D01*
X390877Y798647D01*
X390913Y798756D01*
X390895Y798919D01*
X390913Y799046D01*
X391021Y799300D01*
X391058Y799735D01*
X391094Y800097D01*
X391130Y800242D01*
X391166Y800351D01*
X391203Y800605D01*
X391166Y801076D01*
X391203Y801221D01*
X391384Y801620D01*
X391420Y806078D01*
X391203Y806550D01*
X391221Y807329D01*
X391203Y807456D01*
X391166Y807601D01*
X391094Y807782D01*
X391058Y808398D01*
X391021Y808652D01*
X390967Y808706D01*
X390895Y808887D01*
X390913Y809196D01*
X390877Y809341D01*
X390804Y809522D01*
X390768Y809957D01*
X390732Y810102D01*
X390695Y810464D01*
X390659Y810609D01*
X390496Y810917D01*
X390460Y811099D01*
X390423Y811425D01*
X390369Y811660D01*
X390297Y811842D01*
X390224Y811914D01*
X390170Y812041D01*
X390133Y812186D01*
X390097Y812403D01*
X390025Y812693D01*
X389988Y812875D01*
X389934Y813110D01*
X389880Y813165D01*
X389807Y813346D01*
X389717Y813763D01*
X389644Y813944D01*
X389572Y814017D01*
X389481Y814143D01*
X389354Y814488D01*
X389191Y814905D01*
X389028Y815358D01*
X388992Y815503D01*
X388919Y815684D01*
X388738Y815938D01*
X388702Y816010D01*
X388520Y816409D01*
X388430Y816536D01*
X388303Y816880D01*
X388230Y817061D01*
X388067Y817297D01*
X387940Y817641D01*
X387850Y817804D01*
X387687Y818004D01*
X387650Y818076D01*
X387433Y818548D01*
X387215Y818946D01*
X387034Y819128D01*
X386817Y819526D01*
X386781Y819599D01*
X386708Y819671D01*
X386599Y819853D01*
X386527Y820034D01*
X386400Y820161D01*
X386164Y820505D01*
X386128Y820577D01*
X386055Y820650D01*
X385802Y820976D01*
X385765Y821049D01*
X385584Y821302D01*
X385548Y821375D01*
X385367Y821556D01*
X385186Y821810D01*
X385149Y821882D01*
X385059Y821973D01*
X384986Y822009D01*
X384823Y822245D01*
X384787Y822317D01*
X384569Y822535D01*
X384424Y822788D01*
X384334Y822879D01*
X384261Y822915D01*
X383808Y823369D01*
X383772Y823441D01*
X383645Y823568D01*
X383518Y823659D01*
X383083Y824239D01*
X382884Y824402D01*
X382811Y824438D01*
X382630Y824619D01*
X382558Y824655D01*
X382304Y824909D01*
X382231Y824945D01*
X382068Y825108D01*
X382032Y825181D01*
X381869Y825344D01*
X381796Y825380D01*
X381670Y825507D01*
X381633Y825580D01*
X381361Y825779D01*
X381289Y825815D01*
X381144Y825960D01*
X381071Y825996D01*
X380890Y826178D01*
X380818Y826214D01*
X380800Y826268D01*
X380709Y826359D01*
X380636Y826395D01*
X380546Y826486D01*
X380201Y826721D01*
X380129Y826758D01*
X380002Y826885D01*
X379911Y827011D01*
X379585Y827193D01*
X379513Y827265D01*
X379114Y827483D01*
X379023Y827573D01*
X378987Y827646D01*
X378933Y827700D01*
X378534Y827918D01*
X378462Y827990D01*
X377990Y828244D01*
X377918Y828280D01*
X377845Y828353D01*
X377392Y828624D01*
X377193Y828788D01*
X376794Y829005D01*
X376667Y829096D01*
X376432Y829186D01*
X376178Y829295D01*
X376105Y829331D01*
X376033Y829404D01*
X375779Y829549D01*
X375453Y829694D01*
X375381Y829730D01*
X375326Y829784D01*
X374982Y829911D01*
X374782Y830002D01*
X374492Y830183D01*
X374311Y830256D01*
X374112Y830310D01*
X373822Y830491D01*
X373532Y830600D01*
X373296Y830691D01*
X372789Y830872D01*
X372644Y830908D01*
X372263Y830999D01*
X371865Y831252D01*
X371176Y831397D01*
X370994Y831470D01*
X370958D01*
X370940Y831488D01*
X370541Y831633D01*
X370125Y831687D01*
X369835Y831760D01*
X369635Y831851D01*
X369454Y831923D01*
X369146Y831977D01*
X369001Y832014D01*
X368747Y832122D01*
X368348Y832159D01*
X368095Y832267D01*
X367660Y832304D01*
X367406Y832340D01*
X367297Y832376D01*
X366572Y832412D01*
X366246Y832557D01*
X365159Y832594D01*
X364724Y832666D01*
X364615Y832702D01*
D02*
G37*
G36*
X233905Y777497D02*
X233724Y777207D01*
X233561Y777007D01*
X233416Y776754D01*
X233379Y776681D01*
X233198Y776500D01*
X233035Y776192D01*
X232872Y775993D01*
X232727Y775739D01*
X232691Y775666D01*
X232509Y775485D01*
X232328Y775159D01*
X232292Y775086D01*
X232183Y774977D01*
X232002Y774651D01*
X231821Y774470D01*
X231639Y774144D01*
X231603Y774071D01*
X231549Y774017D01*
X231386Y773818D01*
X231349Y773673D01*
X231132Y773455D01*
X230951Y773129D01*
X230914Y773056D01*
X230806Y772948D01*
X230769Y772875D01*
X230697Y772803D01*
X230661Y772658D01*
X230480Y772476D01*
X230262Y772078D01*
X230117Y771933D01*
X229900Y771534D01*
X229755Y771389D01*
X229573Y771063D01*
X229428Y770918D01*
X229211Y770519D01*
X229066Y770374D01*
X228885Y770048D01*
X228740Y769903D01*
X228522Y769504D01*
X228377Y769359D01*
X228196Y769033D01*
X228051Y768888D01*
X227870Y768562D01*
X227688Y768308D01*
X227652Y768163D01*
X227688Y768054D01*
X227833Y768018D01*
X239958Y768036D01*
X240103Y768000D01*
X240248Y768036D01*
X240303Y768090D01*
X240339Y768199D01*
X240303Y768344D01*
X240230Y768417D01*
X240013Y768815D01*
X239831Y768997D01*
X239686Y769250D01*
X239650Y769323D01*
X239505Y769468D01*
X239469Y769540D01*
X239415Y769595D01*
X239324Y769830D01*
X239179Y769975D01*
X238998Y770302D01*
X238817Y770483D01*
X238780Y770555D01*
X238726Y770610D01*
X238635Y770845D01*
X238490Y770990D01*
X238309Y771317D01*
X238237Y771389D01*
X238200Y771461D01*
X238146Y771480D01*
X238128Y771534D01*
X238037Y771625D01*
X237946Y771860D01*
X237874Y771933D01*
X237838Y772005D01*
X237783Y772023D01*
X237729Y772114D01*
X237584Y772368D01*
X237548Y772440D01*
X237403Y772585D01*
X237222Y772911D01*
X237185Y772984D01*
X237077Y773093D01*
X236895Y773419D01*
X236714Y773600D01*
X236533Y773926D01*
X236497Y773999D01*
X236388Y774108D01*
X236207Y774434D01*
X236025Y774615D01*
X235844Y774941D01*
X235808Y775014D01*
X235699Y775123D01*
X235572Y775322D01*
X235554Y775340D01*
X235445Y775557D01*
X235300Y775703D01*
X235119Y776029D01*
X235065Y776083D01*
X234902Y776283D01*
X234865Y776355D01*
X234793Y776536D01*
X234612Y776717D01*
X234431Y777044D01*
X234358Y777116D01*
X234322Y777189D01*
X234249Y777261D01*
X234213Y777334D01*
X234086Y777460D01*
X233905Y777497D01*
D02*
G37*
G36*
X363609Y20699D02*
X358938D01*
X358727Y20681D01*
X358515D01*
X358339Y20664D01*
X358162Y20646D01*
X358022Y20628D01*
X357898D01*
X357687Y20593D01*
X357546Y20558D01*
X357457Y20540D01*
X357440D01*
X357140Y20435D01*
X356876Y20293D01*
X356646Y20135D01*
X356435Y19976D01*
X356294Y19835D01*
X356171Y19712D01*
X356100Y19624D01*
X356082Y19588D01*
X355906Y19306D01*
X355783Y19007D01*
X355677Y18725D01*
X355624Y18442D01*
X355589Y18213D01*
X355554Y18019D01*
Y17949D01*
Y17896D01*
Y17861D01*
Y17843D01*
X355571Y17579D01*
X355589Y17350D01*
X355695Y16909D01*
X355836Y16539D01*
X355994Y16221D01*
X356153Y15975D01*
X356294Y15798D01*
X356347Y15746D01*
X356400Y15693D01*
X356417Y15675D01*
X356435Y15657D01*
X356611Y15516D01*
X356823Y15411D01*
X357034Y15305D01*
X357263Y15217D01*
X357757Y15076D01*
X358251Y14987D01*
X358480Y14952D01*
X358709Y14917D01*
X358903Y14899D01*
X359079D01*
X359220Y14882D01*
X363609D01*
Y20699D01*
D02*
G37*
G36*
X313477Y20928D02*
X313318Y20399D01*
X313124Y19835D01*
X312930Y19271D01*
X312754Y18725D01*
X312666Y18478D01*
X312577Y18249D01*
X312507Y18037D01*
X312437Y17879D01*
X312384Y17720D01*
X312348Y17614D01*
X312313Y17543D01*
Y17526D01*
X310603Y13013D01*
X316156D01*
X314358Y17790D01*
X314164Y18372D01*
X313988Y18936D01*
X313829Y19465D01*
X313759Y19712D01*
X313706Y19941D01*
X313653Y20152D01*
X313600Y20346D01*
X313565Y20505D01*
X313529Y20664D01*
X313512Y20769D01*
X313494Y20858D01*
X313477Y20910D01*
Y20928D01*
D02*
G37*
%LPD*%
D11*
X527450Y244500D02*
Y755500D01*
X500550D02*
X527450D01*
X500550Y244500D02*
Y755500D01*
Y244500D02*
X527450D01*
X2550Y755500D02*
X29450D01*
Y244500D02*
Y755500D01*
X2550Y244500D02*
X29450D01*
X2550D02*
Y755500D01*
D14*
X519004Y764542D02*
Y774698D01*
X513926D01*
X512233Y773006D01*
Y769620D01*
X513926Y767927D01*
X519004D01*
X502076Y764542D02*
X508847D01*
X502076Y771313D01*
Y773006D01*
X503769Y774698D01*
X507154D01*
X508847Y773006D01*
X24551Y762002D02*
Y772158D01*
X19473D01*
X17780Y770466D01*
Y767080D01*
X19473Y765387D01*
X24551D01*
X14394Y762002D02*
X11009D01*
X12702D01*
Y772158D01*
X14394Y770466D01*
D79*
X494030Y261199D02*
Y267970D01*
X487259Y261199D01*
X485566D01*
X483873Y262892D01*
Y266277D01*
X485566Y267970D01*
Y257813D02*
X483873Y256120D01*
Y252735D01*
X485566Y251042D01*
X492337D01*
X494030Y252735D01*
Y256120D01*
X492337Y257813D01*
X485566D01*
X494030Y742950D02*
Y739564D01*
Y741257D01*
X483873D01*
X485566Y742950D01*
X494030Y519430D02*
Y516044D01*
Y517737D01*
X483873D01*
X485566Y519430D01*
Y510966D02*
X483873Y509273D01*
Y505888D01*
X485566Y504195D01*
X492337D01*
X494030Y505888D01*
Y509273D01*
X492337Y510966D01*
X485566D01*
X34290Y481330D02*
Y484716D01*
Y483023D01*
X44447D01*
X42754Y481330D01*
Y489794D02*
X44447Y491487D01*
Y494872D01*
X42754Y496565D01*
X35983D01*
X34290Y494872D01*
Y491487D01*
X35983Y489794D01*
X42754D01*
X34290Y256540D02*
Y259926D01*
Y258233D01*
X44447D01*
X42754Y256540D01*
X34290Y742101D02*
Y735330D01*
X41061Y742101D01*
X42754D01*
X44447Y740408D01*
Y737023D01*
X42754Y735330D01*
Y745487D02*
X44447Y747179D01*
Y750565D01*
X42754Y752258D01*
X35983D01*
X34290Y750565D01*
Y747179D01*
X35983Y745487D01*
X42754D01*
M02*
