G04*
G04 #@! TF.GenerationSoftware,Altium Limited,Altium Designer,23.0.1 (38)*
G04*
G04 Layer_Physical_Order=2*
G04 Layer_Color=16711680*
%FSLAX44Y44*%
%MOMM*%
G71*
G04*
G04 #@! TF.SameCoordinates,4F8D76B3-19B9-4F14-BD17-49225F6037FE*
G04*
G04*
G04 #@! TF.FilePolarity,Positive*
G04*
G01*
G75*
%ADD27C,0.5080*%
%ADD47C,0.3048*%
%ADD49C,1.5000*%
%ADD50R,1.5000X1.5000*%
%ADD51C,1.8000*%
%ADD52R,1.5000X1.5000*%
%ADD53C,1.5200*%
%ADD54C,3.0000*%
%ADD55R,1.5200X1.5200*%
%ADD56C,6.0000*%
%ADD57C,0.6000*%
G36*
X40064Y754754D02*
X308802D01*
X308809Y754754D01*
X310063Y754754D01*
X311326Y754737D01*
X315503Y754408D01*
X320809Y753135D01*
X325850Y751047D01*
X330503Y748196D01*
X334652Y744652D01*
X338196Y740503D01*
X341047Y735850D01*
X343135Y730809D01*
X344409Y725503D01*
X344737Y721326D01*
X344754Y720063D01*
D01*
X344754Y718809D01*
Y425508D01*
X343484Y425080D01*
X342228Y426337D01*
X340360Y427110D01*
Y421640D01*
Y416170D01*
X342228Y416943D01*
X343484Y418200D01*
X344754Y417772D01*
Y41325D01*
X344754Y41318D01*
X344754Y40064D01*
X344737Y38801D01*
X344409Y34624D01*
X343135Y29318D01*
X341047Y24277D01*
X338196Y19624D01*
X334652Y15475D01*
X330503Y11931D01*
X325850Y9080D01*
X320809Y6992D01*
X315503Y5718D01*
X310360Y5314D01*
X310063Y5372D01*
X40064D01*
X39767Y5314D01*
X34624Y5718D01*
X29318Y6992D01*
X24277Y9080D01*
X19624Y11931D01*
X15475Y15475D01*
X11931Y19624D01*
X9080Y24277D01*
X6992Y29318D01*
X5718Y34624D01*
X5314Y39767D01*
X5372Y40064D01*
Y720063D01*
X5314Y720360D01*
X5718Y725503D01*
X6992Y730809D01*
X9080Y735850D01*
X11931Y740503D01*
X15475Y744652D01*
X19624Y748196D01*
X24277Y751047D01*
X29318Y753135D01*
X34624Y754409D01*
X39767Y754813D01*
X40064Y754754D01*
D02*
G37*
%LPC*%
G36*
X257810Y730640D02*
Y726440D01*
X262010D01*
X261237Y728308D01*
X259678Y729867D01*
X257810Y730640D01*
D02*
G37*
G36*
X255270D02*
X253402Y729867D01*
X251843Y728308D01*
X251070Y726440D01*
X255270D01*
Y730640D01*
D02*
G37*
G36*
X205740D02*
Y726440D01*
X209940D01*
X209167Y728308D01*
X207608Y729867D01*
X205740Y730640D01*
D02*
G37*
G36*
X203200D02*
X201332Y729867D01*
X199773Y728308D01*
X199000Y726440D01*
X203200D01*
Y730640D01*
D02*
G37*
G36*
X312561Y752540D02*
X311270D01*
Y721270D01*
X342540D01*
Y722561D01*
X341739Y727620D01*
X340156Y732491D01*
X337831Y737055D01*
X334820Y741198D01*
X331198Y744820D01*
X327055Y747831D01*
X322491Y750156D01*
X317620Y751739D01*
X312561Y752540D01*
D02*
G37*
G36*
X308730D02*
X307439D01*
X302380Y751739D01*
X297509Y750156D01*
X292945Y747831D01*
X288802Y744820D01*
X285180Y741198D01*
X282169Y737055D01*
X279844Y732491D01*
X278261Y727620D01*
X277460Y722561D01*
Y721270D01*
X308730D01*
Y752540D01*
D02*
G37*
G36*
X42561D02*
X41270D01*
Y721270D01*
X72540D01*
Y722561D01*
X71739Y727620D01*
X70156Y732491D01*
X67831Y737055D01*
X64820Y741198D01*
X61198Y744820D01*
X57055Y747831D01*
X52491Y750156D01*
X47620Y751739D01*
X42561Y752540D01*
D02*
G37*
G36*
X38730D02*
X37439D01*
X32380Y751739D01*
X27509Y750156D01*
X22945Y747831D01*
X18802Y744820D01*
X15180Y741198D01*
X12169Y737055D01*
X9844Y732491D01*
X8261Y727620D01*
X7460Y722561D01*
Y721270D01*
X38730D01*
Y752540D01*
D02*
G37*
G36*
X262010Y723900D02*
X257810D01*
Y719700D01*
X259678Y720473D01*
X261237Y722032D01*
X262010Y723900D01*
D02*
G37*
G36*
X255270D02*
X251070D01*
X251843Y722032D01*
X253402Y720473D01*
X255270Y719700D01*
Y723900D01*
D02*
G37*
G36*
X209940D02*
X205740D01*
Y719700D01*
X207608Y720473D01*
X209167Y722032D01*
X209940Y723900D01*
D02*
G37*
G36*
X203200D02*
X199000D01*
X199773Y722032D01*
X201332Y720473D01*
X203200Y719700D01*
Y723900D01*
D02*
G37*
G36*
X175667Y748552D02*
X172313D01*
X169022Y747897D01*
X165922Y746614D01*
X163133Y744750D01*
X160760Y742377D01*
X158896Y739588D01*
X157612Y736488D01*
X156958Y733197D01*
Y729843D01*
X157612Y726552D01*
X158896Y723452D01*
X160760Y720663D01*
X163133Y718290D01*
X165922Y716426D01*
X169022Y715143D01*
X172313Y714488D01*
X175667D01*
X178958Y715143D01*
X182058Y716426D01*
X184847Y718290D01*
X187220Y720663D01*
X189084Y723452D01*
X190368Y726552D01*
X191022Y729843D01*
Y733197D01*
X190368Y736488D01*
X189084Y739588D01*
X187220Y742377D01*
X184847Y744750D01*
X182058Y746614D01*
X178958Y747897D01*
X175667Y748552D01*
D02*
G37*
G36*
X342540Y718730D02*
X311270D01*
Y687460D01*
X312561D01*
X317620Y688261D01*
X322491Y689844D01*
X327055Y692169D01*
X331198Y695180D01*
X334820Y698802D01*
X337831Y702945D01*
X340156Y707509D01*
X341739Y712380D01*
X342540Y717439D01*
Y718730D01*
D02*
G37*
G36*
X308730D02*
X277460D01*
Y717439D01*
X278261Y712380D01*
X279844Y707509D01*
X282169Y702945D01*
X285180Y698802D01*
X288802Y695180D01*
X292945Y692169D01*
X297509Y689844D01*
X302380Y688261D01*
X307439Y687460D01*
X308730D01*
Y718730D01*
D02*
G37*
G36*
X72540D02*
X41270D01*
Y687460D01*
X42561D01*
X47620Y688261D01*
X52491Y689844D01*
X57055Y692169D01*
X61198Y695180D01*
X64820Y698802D01*
X67831Y702945D01*
X70156Y707509D01*
X71739Y712380D01*
X72540Y717439D01*
Y718730D01*
D02*
G37*
G36*
X38730D02*
X7460D01*
Y717439D01*
X8261Y712380D01*
X9844Y707509D01*
X12169Y702945D01*
X15180Y698802D01*
X18802Y695180D01*
X22945Y692169D01*
X27509Y689844D01*
X32380Y688261D01*
X37439Y687460D01*
X38730D01*
Y718730D01*
D02*
G37*
G36*
X187660Y709512D02*
X135890D01*
X134106Y709157D01*
X132594Y708146D01*
X80524Y656076D01*
X79513Y654564D01*
X79158Y652780D01*
Y464820D01*
X79513Y463036D01*
X80524Y461524D01*
X105854Y436194D01*
X106224Y435300D01*
X107640Y433884D01*
X109489Y433118D01*
X111491D01*
X112385Y433488D01*
X125069D01*
X128714Y429844D01*
X129084Y428950D01*
X130500Y427534D01*
X132349Y426768D01*
X134351D01*
X136200Y427534D01*
X137616Y428950D01*
X138382Y430799D01*
Y432801D01*
X137616Y434650D01*
X136200Y436066D01*
X135306Y436436D01*
X130296Y441446D01*
X128784Y442457D01*
X127000Y442812D01*
X112421D01*
X88482Y466751D01*
Y497908D01*
X89710Y498008D01*
X90553Y495972D01*
X92112Y494413D01*
X93980Y493640D01*
Y499110D01*
Y504580D01*
X92112Y503807D01*
X90553Y502248D01*
X89710Y500212D01*
X88482Y500312D01*
Y650849D01*
X106220Y668588D01*
X107490Y668062D01*
Y666918D01*
X108333Y664882D01*
X109892Y663323D01*
X111760Y662550D01*
Y668020D01*
X113030D01*
Y669290D01*
X118500D01*
X117727Y671158D01*
X116168Y672717D01*
X114132Y673560D01*
X112989D01*
X112462Y674830D01*
X137821Y700188D01*
X185729D01*
X194358Y691560D01*
Y678888D01*
X213622D01*
Y698152D01*
X200950D01*
X190956Y708146D01*
X189444Y709157D01*
X189148Y709216D01*
X187660Y709512D01*
D02*
G37*
G36*
X145258Y698152D02*
X142722D01*
X140272Y697496D01*
X138076Y696227D01*
X136283Y694434D01*
X135014Y692238D01*
X134358Y689788D01*
Y687252D01*
X135014Y684802D01*
X136283Y682606D01*
X138076Y680813D01*
X140272Y679544D01*
X142722Y678888D01*
X145258D01*
X147708Y679544D01*
X149904Y680813D01*
X151698Y682606D01*
X152966Y684802D01*
X153622Y687252D01*
Y689788D01*
X152966Y692238D01*
X151698Y694434D01*
X149904Y696227D01*
X147708Y697496D01*
X145258Y698152D01*
D02*
G37*
G36*
X25400Y673490D02*
Y669290D01*
X29600D01*
X28827Y671158D01*
X27268Y672717D01*
X25400Y673490D01*
D02*
G37*
G36*
X22860D02*
X20992Y672717D01*
X19433Y671158D01*
X18660Y669290D01*
X22860D01*
Y673490D01*
D02*
G37*
G36*
X118500Y666750D02*
X114300D01*
Y662550D01*
X116168Y663323D01*
X117727Y664882D01*
X118500Y666750D01*
D02*
G37*
G36*
X29600D02*
X25400D01*
Y662550D01*
X27268Y663323D01*
X28827Y664882D01*
X29600Y666750D01*
D02*
G37*
G36*
X22860D02*
X18660D01*
X19433Y664882D01*
X20992Y663323D01*
X22860Y662550D01*
Y666750D01*
D02*
G37*
G36*
X175258Y698152D02*
X172722D01*
X170272Y697496D01*
X168076Y696227D01*
X166283Y694434D01*
X165014Y692238D01*
X164358Y689788D01*
Y687252D01*
X165014Y684802D01*
X166283Y682606D01*
X168076Y680813D01*
X170272Y679544D01*
X172722Y678888D01*
X175258D01*
X176655Y679262D01*
X184568Y671349D01*
Y661163D01*
X183298Y660996D01*
X182966Y662238D01*
X181698Y664434D01*
X179904Y666227D01*
X177708Y667496D01*
X175258Y668152D01*
X172722D01*
X170272Y667496D01*
X168076Y666227D01*
X166283Y664434D01*
X165014Y662238D01*
X164358Y659788D01*
Y657252D01*
X165014Y654802D01*
X166283Y652606D01*
X168076Y650813D01*
X170272Y649544D01*
X172722Y648888D01*
X175258D01*
X177708Y649544D01*
X179904Y650813D01*
X181698Y652606D01*
X182966Y654802D01*
X183298Y656044D01*
X184568Y655877D01*
Y652171D01*
X179584Y647186D01*
X178573Y645674D01*
X178218Y643890D01*
Y588663D01*
X177151Y588366D01*
X176948Y588358D01*
X175570Y589736D01*
X173721Y590502D01*
X171719D01*
X169870Y589736D01*
X168454Y588320D01*
X167688Y586471D01*
Y584469D01*
X168454Y582620D01*
X169870Y581204D01*
X170339Y581010D01*
X170646Y580702D01*
Y432509D01*
X150086Y411948D01*
X149127Y411757D01*
X147614Y410747D01*
X140284Y403416D01*
X139390Y403046D01*
X137974Y401630D01*
X137604Y400736D01*
X109988Y373120D01*
X108977Y371608D01*
X108622Y369824D01*
Y282855D01*
X22104Y196336D01*
X21093Y194824D01*
X20738Y193040D01*
Y129540D01*
X21093Y127756D01*
X22104Y126244D01*
X32779Y115568D01*
X32148Y113212D01*
Y110308D01*
X32900Y107502D01*
X34352Y104986D01*
X36406Y102932D01*
X38922Y101480D01*
X41728Y100728D01*
X44632D01*
X47438Y101480D01*
X49954Y102932D01*
X52008Y104986D01*
X53460Y107502D01*
X54212Y110308D01*
Y113212D01*
X53460Y116018D01*
X52008Y118534D01*
X49954Y120588D01*
X47438Y122040D01*
X44632Y122792D01*
X41728D01*
X39372Y122161D01*
X30062Y131471D01*
Y191109D01*
X107449Y268497D01*
X108622Y268011D01*
Y262636D01*
X108977Y260852D01*
X109988Y259340D01*
X156724Y212604D01*
X158236Y211593D01*
X160020Y211238D01*
X232410D01*
X234194Y211593D01*
X235706Y212604D01*
X249676Y226574D01*
X250687Y228086D01*
X251042Y229870D01*
Y236865D01*
X251412Y237759D01*
Y239761D01*
X250646Y241610D01*
X249230Y243026D01*
X247381Y243792D01*
X245379D01*
X243530Y243026D01*
X242114Y241610D01*
X241348Y239761D01*
Y237759D01*
X241718Y236865D01*
Y231801D01*
X230479Y220562D01*
X161951D01*
X117946Y264567D01*
Y367893D01*
X144196Y394144D01*
X145090Y394514D01*
X146506Y395930D01*
X146876Y396824D01*
X153006Y402953D01*
X153965Y403144D01*
X155477Y404154D01*
X177045Y425723D01*
X178218Y425237D01*
Y418491D01*
X170764Y411036D01*
X169870Y410666D01*
X168454Y409250D01*
X167688Y407401D01*
Y405399D01*
X168454Y403550D01*
X169870Y402134D01*
X170764Y401764D01*
X231558Y340969D01*
Y325745D01*
X231188Y324851D01*
Y322849D01*
X231954Y321000D01*
X233370Y319584D01*
X235219Y318818D01*
X237221D01*
X239070Y319584D01*
X240486Y321000D01*
X241252Y322849D01*
Y324851D01*
X240882Y325745D01*
Y342900D01*
X240527Y344684D01*
X239516Y346196D01*
X179312Y406400D01*
X186176Y413264D01*
X187187Y414776D01*
X187542Y416560D01*
Y540168D01*
X245755D01*
X246649Y539798D01*
X248651D01*
X250500Y540564D01*
X251916Y541980D01*
X252682Y543829D01*
Y545831D01*
X251916Y547680D01*
X250500Y549096D01*
X248651Y549862D01*
X246649D01*
X245755Y549492D01*
X187542D01*
Y641959D01*
X192526Y646944D01*
X193537Y648456D01*
X193892Y650240D01*
Y654338D01*
X193907Y654344D01*
X195162Y654547D01*
X196283Y652606D01*
X198076Y650813D01*
X200272Y649544D01*
X202722Y648888D01*
X205258D01*
X207708Y649544D01*
X209904Y650813D01*
X211698Y652606D01*
X212966Y654802D01*
X213622Y657252D01*
Y659788D01*
X212966Y662238D01*
X211698Y664434D01*
X209904Y666227D01*
X207708Y667496D01*
X205258Y668152D01*
X202722D01*
X200272Y667496D01*
X198076Y666227D01*
X196283Y664434D01*
X195162Y662493D01*
X193907Y662696D01*
X193892Y662702D01*
Y673280D01*
X193537Y675064D01*
X192526Y676576D01*
X183248Y685855D01*
X183622Y687252D01*
Y689788D01*
X182966Y692238D01*
X181698Y694434D01*
X179904Y696227D01*
X177708Y697496D01*
X175258Y698152D01*
D02*
G37*
G36*
X145325Y668660D02*
X145260D01*
Y659790D01*
X154130D01*
Y659855D01*
X153439Y662434D01*
X152104Y664746D01*
X150216Y666634D01*
X147904Y667969D01*
X145325Y668660D01*
D02*
G37*
G36*
X142720D02*
X142655D01*
X140076Y667969D01*
X137764Y666634D01*
X135876Y664746D01*
X134541Y662434D01*
X133850Y659855D01*
Y659790D01*
X142720D01*
Y668660D01*
D02*
G37*
G36*
X295910Y660790D02*
Y656590D01*
X300110D01*
X299337Y658458D01*
X297778Y660017D01*
X295910Y660790D01*
D02*
G37*
G36*
X293370D02*
X291502Y660017D01*
X289943Y658458D01*
X289170Y656590D01*
X293370D01*
Y660790D01*
D02*
G37*
G36*
X300110Y654050D02*
X295910D01*
Y649850D01*
X297778Y650623D01*
X299337Y652182D01*
X300110Y654050D01*
D02*
G37*
G36*
X293370D02*
X289170D01*
X289943Y652182D01*
X291502Y650623D01*
X293370Y649850D01*
Y654050D01*
D02*
G37*
G36*
X154130Y657250D02*
X145260D01*
Y648380D01*
X145325D01*
X147904Y649071D01*
X150216Y650406D01*
X152104Y652294D01*
X153439Y654606D01*
X154130Y657185D01*
Y657250D01*
D02*
G37*
G36*
X142720D02*
X133850D01*
Y657185D01*
X134541Y654606D01*
X135876Y652294D01*
X137764Y650406D01*
X140076Y649071D01*
X142655Y648380D01*
X142720D01*
Y657250D01*
D02*
G37*
G36*
X101600Y650630D02*
Y646430D01*
X105800D01*
X105027Y648298D01*
X103468Y649857D01*
X101600Y650630D01*
D02*
G37*
G36*
X99060D02*
X97192Y649857D01*
X95633Y648298D01*
X94860Y646430D01*
X99060D01*
Y650630D01*
D02*
G37*
G36*
X105800Y643890D02*
X101600D01*
Y639690D01*
X103468Y640463D01*
X105027Y642022D01*
X105800Y643890D01*
D02*
G37*
G36*
X99060D02*
X94860D01*
X95633Y642022D01*
X97192Y640463D01*
X99060Y639690D01*
Y643890D01*
D02*
G37*
G36*
X318770Y622690D02*
Y618490D01*
X322970D01*
X322197Y620358D01*
X320638Y621917D01*
X318770Y622690D01*
D02*
G37*
G36*
X316230D02*
X314362Y621917D01*
X312803Y620358D01*
X312030Y618490D01*
X316230D01*
Y622690D01*
D02*
G37*
G36*
X322970Y615950D02*
X318770D01*
Y611750D01*
X320638Y612523D01*
X322197Y614082D01*
X322970Y615950D01*
D02*
G37*
G36*
X316230D02*
X312030D01*
X312803Y614082D01*
X314362Y612523D01*
X316230Y611750D01*
Y615950D01*
D02*
G37*
G36*
X198120Y606180D02*
Y601980D01*
X202320D01*
X201547Y603848D01*
X199988Y605407D01*
X198120Y606180D01*
D02*
G37*
G36*
X195580D02*
X193712Y605407D01*
X192153Y603848D01*
X191380Y601980D01*
X195580D01*
Y606180D01*
D02*
G37*
G36*
X202320Y599440D02*
X198120D01*
Y595240D01*
X199988Y596013D01*
X201547Y597572D01*
X202320Y599440D01*
D02*
G37*
G36*
X195580D02*
X191380D01*
X192153Y597572D01*
X193712Y596013D01*
X195580Y595240D01*
Y599440D01*
D02*
G37*
G36*
X140090Y532520D02*
Y528320D01*
X144291D01*
X143517Y530188D01*
X141959Y531747D01*
X140090Y532520D01*
D02*
G37*
G36*
X137550D02*
X135682Y531747D01*
X134124Y530188D01*
X133350Y528320D01*
X137550D01*
Y532520D01*
D02*
G37*
G36*
X162950Y529980D02*
Y525780D01*
X167151D01*
X166377Y527648D01*
X164818Y529207D01*
X162950Y529980D01*
D02*
G37*
G36*
X160410D02*
X158542Y529207D01*
X156984Y527648D01*
X156210Y525780D01*
X160410D01*
Y529980D01*
D02*
G37*
G36*
X144291Y525780D02*
X140090D01*
Y521580D01*
X141959Y522353D01*
X143517Y523912D01*
X144291Y525780D01*
D02*
G37*
G36*
X137550D02*
X133350D01*
X134124Y523912D01*
X135682Y522353D01*
X137550Y521580D01*
Y525780D01*
D02*
G37*
G36*
X318770Y524900D02*
Y520700D01*
X322970D01*
X322197Y522568D01*
X320638Y524127D01*
X318770Y524900D01*
D02*
G37*
G36*
X316230D02*
X314362Y524127D01*
X312803Y522568D01*
X312030Y520700D01*
X316230D01*
Y524900D01*
D02*
G37*
G36*
X209550D02*
Y520700D01*
X213750D01*
X212977Y522568D01*
X211418Y524127D01*
X209550Y524900D01*
D02*
G37*
G36*
X207010D02*
X205142Y524127D01*
X203583Y522568D01*
X202810Y520700D01*
X207010D01*
Y524900D01*
D02*
G37*
G36*
X278130Y523630D02*
Y519430D01*
X282330D01*
X281557Y521298D01*
X279998Y522857D01*
X278130Y523630D01*
D02*
G37*
G36*
X275590D02*
X273722Y522857D01*
X272163Y521298D01*
X271390Y519430D01*
X275590D01*
Y523630D01*
D02*
G37*
G36*
X167151Y523240D02*
X162950D01*
Y519040D01*
X164818Y519813D01*
X166377Y521372D01*
X167151Y523240D01*
D02*
G37*
G36*
X160410D02*
X156210D01*
X156984Y521372D01*
X158542Y519813D01*
X160410Y519040D01*
Y523240D01*
D02*
G37*
G36*
X322970Y518160D02*
X318770D01*
Y513960D01*
X320638Y514733D01*
X322197Y516292D01*
X322970Y518160D01*
D02*
G37*
G36*
X316230D02*
X312030D01*
X312803Y516292D01*
X314362Y514733D01*
X316230Y513960D01*
Y518160D01*
D02*
G37*
G36*
X213750D02*
X209550D01*
Y513960D01*
X211418Y514733D01*
X212977Y516292D01*
X213750Y518160D01*
D02*
G37*
G36*
X207010D02*
X202810D01*
X203583Y516292D01*
X205142Y514733D01*
X207010Y513960D01*
Y518160D01*
D02*
G37*
G36*
X282330Y516890D02*
X278130D01*
Y512690D01*
X279998Y513463D01*
X281557Y515022D01*
X282330Y516890D01*
D02*
G37*
G36*
X275590D02*
X271390D01*
X272163Y515022D01*
X273722Y513463D01*
X275590Y512690D01*
Y516890D01*
D02*
G37*
G36*
X245878Y527235D02*
X243876D01*
X242026Y526469D01*
X240611Y525054D01*
X239845Y523204D01*
Y522299D01*
X222822Y505276D01*
X218121D01*
X217480Y505916D01*
X215631Y506682D01*
X213629D01*
X211780Y505916D01*
X210364Y504500D01*
X209598Y502651D01*
Y500649D01*
X210364Y498800D01*
X211780Y497384D01*
X213629Y496618D01*
X215631D01*
X217480Y497384D01*
X218121Y498024D01*
X224323D01*
X224324Y498024D01*
X225711Y498300D01*
X226887Y499086D01*
X244972Y517171D01*
X245878D01*
X247727Y517937D01*
X249143Y519353D01*
X249909Y521202D01*
Y523204D01*
X249143Y525054D01*
X247727Y526469D01*
X245878Y527235D01*
D02*
G37*
G36*
X29210Y505850D02*
Y501650D01*
X33410D01*
X32637Y503518D01*
X31078Y505077D01*
X29210Y505850D01*
D02*
G37*
G36*
X26670D02*
X24802Y505077D01*
X23243Y503518D01*
X22470Y501650D01*
X26670D01*
Y505850D01*
D02*
G37*
G36*
X96520Y504580D02*
Y500380D01*
X100720D01*
X99947Y502248D01*
X98388Y503807D01*
X96520Y504580D01*
D02*
G37*
G36*
X26670Y499110D02*
X22470D01*
X23243Y497242D01*
X24802Y495683D01*
X26670Y494910D01*
Y499110D01*
D02*
G37*
G36*
X33410D02*
X29210D01*
Y494910D01*
X31078Y495683D01*
X32637Y497242D01*
X33410Y499110D01*
D02*
G37*
G36*
X100720Y497840D02*
X96520D01*
Y493640D01*
X98388Y494413D01*
X99947Y495972D01*
X100720Y497840D01*
D02*
G37*
G36*
X130810Y494420D02*
Y490220D01*
X135010D01*
X134237Y492088D01*
X132678Y493647D01*
X130810Y494420D01*
D02*
G37*
G36*
X128270D02*
X126402Y493647D01*
X124843Y492088D01*
X124070Y490220D01*
X128270D01*
Y494420D01*
D02*
G37*
G36*
X322580Y493150D02*
Y488950D01*
X326780D01*
X326007Y490818D01*
X324448Y492377D01*
X322580Y493150D01*
D02*
G37*
G36*
X320040D02*
X318172Y492377D01*
X316613Y490818D01*
X315840Y488950D01*
X320040D01*
Y493150D01*
D02*
G37*
G36*
X135010Y487680D02*
X130810D01*
Y483480D01*
X132678Y484253D01*
X134237Y485812D01*
X135010Y487680D01*
D02*
G37*
G36*
X128270D02*
X124070D01*
X124843Y485812D01*
X126402Y484253D01*
X128270Y483480D01*
Y487680D01*
D02*
G37*
G36*
X326780Y486410D02*
X322580D01*
Y482210D01*
X324448Y482983D01*
X326007Y484542D01*
X326780Y486410D01*
D02*
G37*
G36*
X320040D02*
X315840D01*
X316613Y484542D01*
X318172Y482983D01*
X320040Y482210D01*
Y486410D01*
D02*
G37*
G36*
X241300Y460130D02*
Y455930D01*
X245500D01*
X244727Y457798D01*
X243168Y459357D01*
X241300Y460130D01*
D02*
G37*
G36*
X238760D02*
X236892Y459357D01*
X235333Y457798D01*
X234560Y455930D01*
X238760D01*
Y460130D01*
D02*
G37*
G36*
X245500Y453390D02*
X241300D01*
Y449190D01*
X243168Y449963D01*
X244727Y451522D01*
X245500Y453390D01*
D02*
G37*
G36*
X238760D02*
X234560D01*
X235333Y451522D01*
X236892Y449963D01*
X238760Y449190D01*
Y453390D01*
D02*
G37*
G36*
X158750Y446160D02*
Y441960D01*
X162950D01*
X162177Y443828D01*
X160618Y445387D01*
X158750Y446160D01*
D02*
G37*
G36*
X156210D02*
X154342Y445387D01*
X152783Y443828D01*
X152010Y441960D01*
X156210D01*
Y446160D01*
D02*
G37*
G36*
X162950Y439420D02*
X158750D01*
Y435220D01*
X160618Y435993D01*
X162177Y437552D01*
X162950Y439420D01*
D02*
G37*
G36*
X156210D02*
X152010D01*
X152783Y437552D01*
X154342Y435993D01*
X156210Y435220D01*
Y439420D01*
D02*
G37*
G36*
X30480Y434730D02*
Y430530D01*
X34680D01*
X33907Y432398D01*
X32348Y433957D01*
X30480Y434730D01*
D02*
G37*
G36*
X27940D02*
X26072Y433957D01*
X24513Y432398D01*
X23740Y430530D01*
X27940D01*
Y434730D01*
D02*
G37*
G36*
X83820Y433460D02*
Y429260D01*
X88020D01*
X87247Y431128D01*
X85688Y432687D01*
X83820Y433460D01*
D02*
G37*
G36*
X81280D02*
X79412Y432687D01*
X77853Y431128D01*
X77080Y429260D01*
X81280D01*
Y433460D01*
D02*
G37*
G36*
X307340Y428380D02*
Y424180D01*
X311540D01*
X310767Y426048D01*
X309208Y427607D01*
X307340Y428380D01*
D02*
G37*
G36*
X304800D02*
X302932Y427607D01*
X301373Y426048D01*
X300600Y424180D01*
X304800D01*
Y428380D01*
D02*
G37*
G36*
X279400D02*
Y424180D01*
X283600D01*
X282827Y426048D01*
X281268Y427607D01*
X279400Y428380D01*
D02*
G37*
G36*
X276860D02*
X274992Y427607D01*
X273433Y426048D01*
X272660Y424180D01*
X276860D01*
Y428380D01*
D02*
G37*
G36*
X34680Y427990D02*
X30480D01*
Y423790D01*
X32348Y424563D01*
X33907Y426122D01*
X34680Y427990D01*
D02*
G37*
G36*
X27940D02*
X23740D01*
X24513Y426122D01*
X26072Y424563D01*
X27940Y423790D01*
Y427990D01*
D02*
G37*
G36*
X337820Y427110D02*
X335952Y426337D01*
X334393Y424778D01*
X333620Y422910D01*
X337820D01*
Y427110D01*
D02*
G37*
G36*
X88020Y426720D02*
X83820D01*
Y422520D01*
X85688Y423293D01*
X87247Y424852D01*
X88020Y426720D01*
D02*
G37*
G36*
X81280D02*
X77080D01*
X77853Y424852D01*
X79412Y423293D01*
X81280Y422520D01*
Y426720D01*
D02*
G37*
G36*
X199390Y422030D02*
Y417830D01*
X203590D01*
X202817Y419698D01*
X201258Y421257D01*
X199390Y422030D01*
D02*
G37*
G36*
X196850D02*
X194982Y421257D01*
X193423Y419698D01*
X192650Y417830D01*
X196850D01*
Y422030D01*
D02*
G37*
G36*
X311540Y421640D02*
X307340D01*
Y417440D01*
X309208Y418213D01*
X310767Y419772D01*
X311540Y421640D01*
D02*
G37*
G36*
X304800D02*
X300600D01*
X301373Y419772D01*
X302932Y418213D01*
X304800Y417440D01*
Y421640D01*
D02*
G37*
G36*
X283600D02*
X279400D01*
Y417440D01*
X281268Y418213D01*
X282827Y419772D01*
X283600Y421640D01*
D02*
G37*
G36*
X276860D02*
X272660D01*
X273433Y419772D01*
X274992Y418213D01*
X276860Y417440D01*
Y421640D01*
D02*
G37*
G36*
X337820Y420370D02*
X333620D01*
X334393Y418502D01*
X335952Y416943D01*
X337820Y416170D01*
Y420370D01*
D02*
G37*
G36*
X254000Y418220D02*
Y414020D01*
X258200D01*
X257427Y415888D01*
X255868Y417447D01*
X254000Y418220D01*
D02*
G37*
G36*
X251460D02*
X249592Y417447D01*
X248033Y415888D01*
X247260Y414020D01*
X251460D01*
Y418220D01*
D02*
G37*
G36*
X203590Y415290D02*
X199390D01*
Y411090D01*
X201258Y411863D01*
X202817Y413422D01*
X203590Y415290D01*
D02*
G37*
G36*
X196850D02*
X192650D01*
X193423Y413422D01*
X194982Y411863D01*
X196850Y411090D01*
Y415290D01*
D02*
G37*
G36*
X258200Y411480D02*
X254000D01*
Y407280D01*
X255868Y408053D01*
X257427Y409612D01*
X258200Y411480D01*
D02*
G37*
G36*
X251460D02*
X247260D01*
X248033Y409612D01*
X249592Y408053D01*
X251460Y407280D01*
Y411480D01*
D02*
G37*
G36*
X234950Y378850D02*
Y374650D01*
X239150D01*
X238377Y376518D01*
X236818Y378077D01*
X234950Y378850D01*
D02*
G37*
G36*
X232410D02*
X230542Y378077D01*
X228983Y376518D01*
X228210Y374650D01*
X232410D01*
Y378850D01*
D02*
G37*
G36*
X20320D02*
Y374650D01*
X24520D01*
X23747Y376518D01*
X22188Y378077D01*
X20320Y378850D01*
D02*
G37*
G36*
X17780D02*
X15912Y378077D01*
X14353Y376518D01*
X13580Y374650D01*
X17780D01*
Y378850D01*
D02*
G37*
G36*
X252730Y376310D02*
Y372110D01*
X256930D01*
X256157Y373978D01*
X254598Y375537D01*
X252730Y376310D01*
D02*
G37*
G36*
X250190D02*
X248322Y375537D01*
X246763Y373978D01*
X245990Y372110D01*
X250190D01*
Y376310D01*
D02*
G37*
G36*
X24520Y372110D02*
X20320D01*
Y367910D01*
X22188Y368683D01*
X23747Y370242D01*
X24520Y372110D01*
D02*
G37*
G36*
X17780D02*
X13580D01*
X14353Y370242D01*
X15912Y368683D01*
X17780Y367910D01*
Y372110D01*
D02*
G37*
G36*
X239150D02*
X234950D01*
Y367910D01*
X236818Y368683D01*
X238377Y370242D01*
X239150Y372110D01*
D02*
G37*
G36*
X232410D02*
X228210D01*
X228983Y370242D01*
X230542Y368683D01*
X232410Y367910D01*
Y372110D01*
D02*
G37*
G36*
X256930Y369570D02*
X252730D01*
Y365370D01*
X254598Y366143D01*
X256157Y367702D01*
X256930Y369570D01*
D02*
G37*
G36*
X250190D02*
X245990D01*
X246763Y367702D01*
X248322Y366143D01*
X250190Y365370D01*
Y369570D01*
D02*
G37*
G36*
X208332Y359290D02*
X208280D01*
Y350520D01*
X217050D01*
Y350572D01*
X216366Y353125D01*
X215044Y355415D01*
X213175Y357284D01*
X210885Y358606D01*
X208332Y359290D01*
D02*
G37*
G36*
X205740D02*
X205688D01*
X203135Y358606D01*
X200845Y357284D01*
X198976Y355415D01*
X197654Y353125D01*
X196970Y350572D01*
Y350520D01*
X205740D01*
Y359290D01*
D02*
G37*
G36*
X182865Y358782D02*
X180355D01*
X177931Y358132D01*
X175757Y356878D01*
X173983Y355103D01*
X172728Y352929D01*
X172078Y350505D01*
Y347995D01*
X172728Y345571D01*
X173983Y343397D01*
X175757Y341623D01*
X177931Y340368D01*
X180355Y339718D01*
X182865D01*
X185289Y340368D01*
X187463Y341623D01*
X189237Y343397D01*
X190492Y345571D01*
X191142Y347995D01*
Y350505D01*
X190492Y352929D01*
X189237Y355103D01*
X187463Y356878D01*
X185289Y358132D01*
X182865Y358782D01*
D02*
G37*
G36*
X157465D02*
X154955D01*
X152531Y358132D01*
X150357Y356878D01*
X148582Y355103D01*
X147328Y352929D01*
X146678Y350505D01*
Y347995D01*
X147328Y345571D01*
X148582Y343397D01*
X150357Y341623D01*
X152531Y340368D01*
X154955Y339718D01*
X157465D01*
X159889Y340368D01*
X162063Y341623D01*
X163838Y343397D01*
X165092Y345571D01*
X165742Y347995D01*
Y350505D01*
X165092Y352929D01*
X163838Y355103D01*
X162063Y356878D01*
X159889Y358132D01*
X157465Y358782D01*
D02*
G37*
G36*
X132065D02*
X129555D01*
X127131Y358132D01*
X124957Y356878D01*
X123182Y355103D01*
X121928Y352929D01*
X121278Y350505D01*
Y347995D01*
X121928Y345571D01*
X123182Y343397D01*
X124957Y341623D01*
X127131Y340368D01*
X129555Y339718D01*
X132065D01*
X134489Y340368D01*
X136663Y341623D01*
X138438Y343397D01*
X139692Y345571D01*
X140342Y347995D01*
Y350505D01*
X139692Y352929D01*
X138438Y355103D01*
X136663Y356878D01*
X134489Y358132D01*
X132065Y358782D01*
D02*
G37*
G36*
X217050Y347980D02*
X208280D01*
Y339210D01*
X208332D01*
X210885Y339894D01*
X213175Y341216D01*
X215044Y343085D01*
X216366Y345375D01*
X217050Y347928D01*
Y347980D01*
D02*
G37*
G36*
X205740D02*
X196970D01*
Y347928D01*
X197654Y345375D01*
X198976Y343085D01*
X200845Y341216D01*
X203135Y339894D01*
X205688Y339210D01*
X205740D01*
Y347980D01*
D02*
G37*
G36*
X302260Y325510D02*
Y321310D01*
X306460D01*
X305687Y323178D01*
X304128Y324737D01*
X302260Y325510D01*
D02*
G37*
G36*
X299720D02*
X297852Y324737D01*
X296293Y323178D01*
X295520Y321310D01*
X299720D01*
Y325510D01*
D02*
G37*
G36*
X89170Y324240D02*
Y320040D01*
X93370D01*
X92597Y321908D01*
X91038Y323467D01*
X89170Y324240D01*
D02*
G37*
G36*
X86630D02*
X84762Y323467D01*
X83203Y321908D01*
X82430Y320040D01*
X86630D01*
Y324240D01*
D02*
G37*
G36*
X72390Y321700D02*
Y317500D01*
X76590D01*
X75817Y319368D01*
X74258Y320927D01*
X72390Y321700D01*
D02*
G37*
G36*
X69850D02*
X67982Y320927D01*
X66423Y319368D01*
X65650Y317500D01*
X69850D01*
Y321700D01*
D02*
G37*
G36*
X306460Y318770D02*
X302260D01*
Y314570D01*
X304128Y315343D01*
X305687Y316902D01*
X306460Y318770D01*
D02*
G37*
G36*
X299720D02*
X295520D01*
X296293Y316902D01*
X297852Y315343D01*
X299720Y314570D01*
Y318770D01*
D02*
G37*
G36*
X93370Y317500D02*
X89170D01*
Y313300D01*
X91038Y314073D01*
X92597Y315632D01*
X93370Y317500D01*
D02*
G37*
G36*
X86630D02*
X82430D01*
X83203Y315632D01*
X84762Y314073D01*
X86630Y313300D01*
Y317500D01*
D02*
G37*
G36*
X199390Y316620D02*
Y312420D01*
X203590D01*
X202817Y314288D01*
X201258Y315847D01*
X199390Y316620D01*
D02*
G37*
G36*
X196850D02*
X194982Y315847D01*
X193423Y314288D01*
X192650Y312420D01*
X196850D01*
Y316620D01*
D02*
G37*
G36*
X76590Y314960D02*
X72390D01*
Y310760D01*
X74258Y311533D01*
X75817Y313092D01*
X76590Y314960D01*
D02*
G37*
G36*
X69850D02*
X65650D01*
X66423Y313092D01*
X67982Y311533D01*
X69850Y310760D01*
Y314960D01*
D02*
G37*
G36*
X158750Y314080D02*
Y309880D01*
X162950D01*
X162177Y311748D01*
X160618Y313307D01*
X158750Y314080D01*
D02*
G37*
G36*
X156210D02*
X154342Y313307D01*
X152783Y311748D01*
X152010Y309880D01*
X156210D01*
Y314080D01*
D02*
G37*
G36*
X203590Y309880D02*
X199390D01*
Y305680D01*
X201258Y306453D01*
X202817Y308012D01*
X203590Y309880D01*
D02*
G37*
G36*
X196850D02*
X192650D01*
X193423Y308012D01*
X194982Y306453D01*
X196850Y305680D01*
Y309880D01*
D02*
G37*
G36*
X162950Y307340D02*
X158750D01*
Y303140D01*
X160618Y303913D01*
X162177Y305472D01*
X162950Y307340D01*
D02*
G37*
G36*
X156210D02*
X152010D01*
X152783Y305472D01*
X154342Y303913D01*
X156210Y303140D01*
Y307340D01*
D02*
G37*
G36*
X247650Y303920D02*
Y299720D01*
X251850D01*
X251077Y301588D01*
X249518Y303147D01*
X247650Y303920D01*
D02*
G37*
G36*
X245110D02*
X243242Y303147D01*
X241683Y301588D01*
X240910Y299720D01*
X245110D01*
Y303920D01*
D02*
G37*
G36*
X251850Y297180D02*
X247650D01*
Y292980D01*
X249518Y293753D01*
X251077Y295312D01*
X251850Y297180D01*
D02*
G37*
G36*
X245110D02*
X240910D01*
X241683Y295312D01*
X243242Y293753D01*
X245110Y292980D01*
Y297180D01*
D02*
G37*
G36*
X29210Y288680D02*
Y284480D01*
X33410D01*
X32637Y286348D01*
X31078Y287907D01*
X29210Y288680D01*
D02*
G37*
G36*
X26670D02*
X24802Y287907D01*
X23243Y286348D01*
X22470Y284480D01*
X26670D01*
Y288680D01*
D02*
G37*
G36*
X321516Y287410D02*
Y283210D01*
X325716D01*
X324943Y285078D01*
X323384Y286637D01*
X321516Y287410D01*
D02*
G37*
G36*
X318976D02*
X317108Y286637D01*
X315549Y285078D01*
X314776Y283210D01*
X318976D01*
Y287410D01*
D02*
G37*
G36*
X26670Y281940D02*
X22470D01*
X23243Y280072D01*
X24802Y278513D01*
X26670Y277740D01*
Y281940D01*
D02*
G37*
G36*
X33410D02*
X29210D01*
Y277740D01*
X31078Y278513D01*
X32637Y280072D01*
X33410Y281940D01*
D02*
G37*
G36*
X325716Y280670D02*
X321516D01*
Y276470D01*
X323384Y277243D01*
X324943Y278802D01*
X325716Y280670D01*
D02*
G37*
G36*
X318976D02*
X314776D01*
X315549Y278802D01*
X317108Y277243D01*
X318976Y276470D01*
Y280670D01*
D02*
G37*
G36*
X208332Y283090D02*
X208280D01*
Y274320D01*
X217050D01*
Y274372D01*
X216366Y276925D01*
X215044Y279215D01*
X213175Y281084D01*
X210885Y282406D01*
X208332Y283090D01*
D02*
G37*
G36*
X205740D02*
X205688D01*
X203135Y282406D01*
X200845Y281084D01*
X198976Y279215D01*
X197654Y276925D01*
X196970Y274372D01*
Y274320D01*
X205740D01*
Y283090D01*
D02*
G37*
G36*
X57150Y277250D02*
Y273050D01*
X61350D01*
X60577Y274918D01*
X59018Y276477D01*
X57150Y277250D01*
D02*
G37*
G36*
X54610D02*
X52742Y276477D01*
X51183Y274918D01*
X50410Y273050D01*
X54610D01*
Y277250D01*
D02*
G37*
G36*
Y270510D02*
X50410D01*
X51183Y268642D01*
X52742Y267083D01*
X54610Y266310D01*
Y270510D01*
D02*
G37*
G36*
X61350D02*
X57150D01*
Y266310D01*
X59018Y267083D01*
X60577Y268642D01*
X61350Y270510D01*
D02*
G37*
G36*
X182865Y282582D02*
X180355D01*
X177931Y281932D01*
X175757Y280678D01*
X173983Y278903D01*
X172728Y276729D01*
X172078Y274305D01*
Y271795D01*
X172728Y269371D01*
X173983Y267197D01*
X175757Y265422D01*
X177931Y264168D01*
X180355Y263518D01*
X182865D01*
X185289Y264168D01*
X187463Y265422D01*
X189237Y267197D01*
X190492Y269371D01*
X191142Y271795D01*
Y274305D01*
X190492Y276729D01*
X189237Y278903D01*
X187463Y280678D01*
X185289Y281932D01*
X182865Y282582D01*
D02*
G37*
G36*
X157465D02*
X154955D01*
X152531Y281932D01*
X150357Y280678D01*
X148582Y278903D01*
X147328Y276729D01*
X146678Y274305D01*
Y271795D01*
X147328Y269371D01*
X148582Y267197D01*
X150357Y265422D01*
X152531Y264168D01*
X154955Y263518D01*
X157465D01*
X159889Y264168D01*
X162063Y265422D01*
X163838Y267197D01*
X165092Y269371D01*
X165742Y271795D01*
Y274305D01*
X165092Y276729D01*
X163838Y278903D01*
X162063Y280678D01*
X159889Y281932D01*
X157465Y282582D01*
D02*
G37*
G36*
X140342D02*
X121278D01*
Y263518D01*
X140342D01*
Y282582D01*
D02*
G37*
G36*
X217050Y271780D02*
X208280D01*
Y263010D01*
X208332D01*
X210885Y263694D01*
X213175Y265016D01*
X215044Y266885D01*
X216366Y269175D01*
X217050Y271728D01*
Y271780D01*
D02*
G37*
G36*
X205740D02*
X196970D01*
Y271728D01*
X197654Y269175D01*
X198976Y266885D01*
X200845Y265016D01*
X203135Y263694D01*
X205688Y263010D01*
X205740D01*
Y271780D01*
D02*
G37*
G36*
X196850Y264550D02*
Y260350D01*
X201050D01*
X200277Y262218D01*
X198718Y263777D01*
X196850Y264550D01*
D02*
G37*
G36*
X194310D02*
X192442Y263777D01*
X190883Y262218D01*
X190110Y260350D01*
X194310D01*
Y264550D01*
D02*
G37*
G36*
X201050Y257810D02*
X196850D01*
Y253610D01*
X198718Y254383D01*
X200277Y255942D01*
X201050Y257810D01*
D02*
G37*
G36*
X194310D02*
X190110D01*
X190883Y255942D01*
X192442Y254383D01*
X194310Y253610D01*
Y257810D01*
D02*
G37*
G36*
X331470Y239150D02*
Y234950D01*
X335670D01*
X334897Y236818D01*
X333338Y238377D01*
X331470Y239150D01*
D02*
G37*
G36*
X328930D02*
X327062Y238377D01*
X325503Y236818D01*
X324730Y234950D01*
X328930D01*
Y239150D01*
D02*
G37*
G36*
X284480D02*
Y234950D01*
X288680D01*
X287907Y236818D01*
X286348Y238377D01*
X284480Y239150D01*
D02*
G37*
G36*
X281940D02*
X280072Y238377D01*
X278513Y236818D01*
X277740Y234950D01*
X281940D01*
Y239150D01*
D02*
G37*
G36*
X335670Y232410D02*
X331470D01*
Y228210D01*
X333338Y228983D01*
X334897Y230542D01*
X335670Y232410D01*
D02*
G37*
G36*
X328930D02*
X324730D01*
X325503Y230542D01*
X327062Y228983D01*
X328930Y228210D01*
Y232410D01*
D02*
G37*
G36*
X288680D02*
X284480D01*
Y228210D01*
X286348Y228983D01*
X287907Y230542D01*
X288680Y232410D01*
D02*
G37*
G36*
X281940D02*
X277740D01*
X278513Y230542D01*
X280072Y228983D01*
X281940Y228210D01*
Y232410D01*
D02*
G37*
G36*
X25400Y228990D02*
Y224790D01*
X29600D01*
X28827Y226658D01*
X27268Y228217D01*
X25400Y228990D01*
D02*
G37*
G36*
X22860D02*
X20992Y228217D01*
X19433Y226658D01*
X18660Y224790D01*
X22860D01*
Y228990D01*
D02*
G37*
G36*
X29600Y222250D02*
X25400D01*
Y218050D01*
X27268Y218823D01*
X28827Y220382D01*
X29600Y222250D01*
D02*
G37*
G36*
X22860D02*
X18660D01*
X19433Y220382D01*
X20992Y218823D01*
X22860Y218050D01*
Y222250D01*
D02*
G37*
G36*
X241300Y209940D02*
Y205740D01*
X245500D01*
X244727Y207608D01*
X243168Y209167D01*
X241300Y209940D01*
D02*
G37*
G36*
X238760D02*
X236892Y209167D01*
X235333Y207608D01*
X234560Y205740D01*
X238760D01*
Y209940D01*
D02*
G37*
G36*
X102870D02*
Y205740D01*
X107070D01*
X106297Y207608D01*
X104738Y209167D01*
X102870Y209940D01*
D02*
G37*
G36*
X100330D02*
X98462Y209167D01*
X96903Y207608D01*
X96130Y205740D01*
X100330D01*
Y209940D01*
D02*
G37*
G36*
X245500Y203200D02*
X241300D01*
Y199000D01*
X243168Y199773D01*
X244727Y201332D01*
X245500Y203200D01*
D02*
G37*
G36*
X238760D02*
X234560D01*
X235333Y201332D01*
X236892Y199773D01*
X238760Y199000D01*
Y203200D01*
D02*
G37*
G36*
X107070D02*
X102870D01*
Y199000D01*
X104738Y199773D01*
X106297Y201332D01*
X107070Y203200D01*
D02*
G37*
G36*
X100330D02*
X96130D01*
X96903Y201332D01*
X98462Y199773D01*
X100330Y199000D01*
Y203200D01*
D02*
G37*
G36*
X163882Y206890D02*
X163830D01*
Y198120D01*
X172600D01*
Y198172D01*
X171916Y200725D01*
X170594Y203015D01*
X168725Y204884D01*
X166435Y206206D01*
X163882Y206890D01*
D02*
G37*
G36*
X161290D02*
X161238D01*
X158685Y206206D01*
X156395Y204884D01*
X154526Y203015D01*
X153204Y200725D01*
X152520Y198172D01*
Y198120D01*
X161290D01*
Y206890D01*
D02*
G37*
G36*
X222892Y206382D02*
X203828D01*
Y187318D01*
X222892D01*
Y206382D01*
D02*
G37*
G36*
X189215D02*
X186705D01*
X184281Y205732D01*
X182107Y204478D01*
X180333Y202703D01*
X179078Y200529D01*
X178428Y198105D01*
Y195595D01*
X179078Y193171D01*
X180333Y190997D01*
X182107Y189223D01*
X184281Y187968D01*
X186705Y187318D01*
X189215D01*
X191639Y187968D01*
X193813Y189223D01*
X195588Y190997D01*
X196842Y193171D01*
X197492Y195595D01*
Y198105D01*
X196842Y200529D01*
X195588Y202703D01*
X193813Y204478D01*
X191639Y205732D01*
X189215Y206382D01*
D02*
G37*
G36*
X138415D02*
X135905D01*
X133481Y205732D01*
X131307Y204478D01*
X129532Y202703D01*
X128278Y200529D01*
X127628Y198105D01*
Y195595D01*
X128278Y193171D01*
X129532Y190997D01*
X131307Y189223D01*
X133481Y187968D01*
X135905Y187318D01*
X138415D01*
X140839Y187968D01*
X143013Y189223D01*
X144788Y190997D01*
X146042Y193171D01*
X146692Y195595D01*
Y198105D01*
X146042Y200529D01*
X144788Y202703D01*
X143013Y204478D01*
X140839Y205732D01*
X138415Y206382D01*
D02*
G37*
G36*
X172600Y195580D02*
X163830D01*
Y186810D01*
X163882D01*
X166435Y187494D01*
X168725Y188816D01*
X170594Y190685D01*
X171916Y192975D01*
X172600Y195528D01*
Y195580D01*
D02*
G37*
G36*
X161290D02*
X152520D01*
Y195528D01*
X153204Y192975D01*
X154526Y190685D01*
X156395Y188816D01*
X158685Y187494D01*
X161238Y186810D01*
X161290D01*
Y195580D01*
D02*
G37*
G36*
X67089Y219662D02*
X65087D01*
X63238Y218896D01*
X61822Y217480D01*
X61056Y215631D01*
Y213629D01*
X61822Y211780D01*
X63238Y210364D01*
X64091Y210011D01*
X99487Y174615D01*
X99874Y173680D01*
X101290Y172264D01*
X103139Y171498D01*
X105141D01*
X106990Y172264D01*
X108406Y173680D01*
X109172Y175529D01*
Y177531D01*
X108406Y179380D01*
X106990Y180796D01*
X106137Y181149D01*
X70741Y216545D01*
X70354Y217480D01*
X68938Y218896D01*
X67089Y219662D01*
D02*
G37*
G36*
X308859Y174100D02*
X308610D01*
Y163830D01*
X318880D01*
Y164079D01*
X318093Y167014D01*
X316574Y169646D01*
X314426Y171794D01*
X311794Y173314D01*
X308859Y174100D01*
D02*
G37*
G36*
X44699D02*
X44450D01*
Y163830D01*
X54720D01*
Y164079D01*
X53934Y167014D01*
X52414Y169646D01*
X50266Y171794D01*
X47634Y173314D01*
X44699Y174100D01*
D02*
G37*
G36*
X172720Y168030D02*
Y163830D01*
X176920D01*
X176147Y165698D01*
X174588Y167257D01*
X172720Y168030D01*
D02*
G37*
G36*
X170180D02*
X168312Y167257D01*
X166753Y165698D01*
X165980Y163830D01*
X170180D01*
Y168030D01*
D02*
G37*
G36*
X41910Y174100D02*
X41661D01*
X38726Y173314D01*
X36094Y171794D01*
X33946Y169646D01*
X32427Y167014D01*
X31640Y164079D01*
Y163830D01*
X41910D01*
Y174100D01*
D02*
G37*
G36*
X306070D02*
X305821D01*
X302886Y173314D01*
X300254Y171794D01*
X298106Y169646D01*
X296586Y167014D01*
X295800Y164079D01*
Y163830D01*
X306070D01*
Y174100D01*
D02*
G37*
G36*
X256540Y166760D02*
Y162560D01*
X260740D01*
X259967Y164428D01*
X258408Y165987D01*
X256540Y166760D01*
D02*
G37*
G36*
X254000D02*
X252132Y165987D01*
X250573Y164428D01*
X249800Y162560D01*
X254000D01*
Y166760D01*
D02*
G37*
G36*
X66040D02*
Y162560D01*
X70240D01*
X69467Y164428D01*
X67908Y165987D01*
X66040Y166760D01*
D02*
G37*
G36*
X63500D02*
X61632Y165987D01*
X60073Y164428D01*
X59300Y162560D01*
X63500D01*
Y166760D01*
D02*
G37*
G36*
X239730Y166460D02*
Y162260D01*
X243930D01*
X243157Y164128D01*
X241598Y165687D01*
X239730Y166460D01*
D02*
G37*
G36*
X237190D02*
X235322Y165687D01*
X233763Y164128D01*
X232990Y162260D01*
X237190D01*
Y166460D01*
D02*
G37*
G36*
X106380D02*
Y162260D01*
X110580D01*
X109807Y164128D01*
X108248Y165687D01*
X106380Y166460D01*
D02*
G37*
G36*
X103840D02*
X101972Y165687D01*
X100413Y164128D01*
X99640Y162260D01*
X103840D01*
Y166460D01*
D02*
G37*
G36*
X176920Y161290D02*
X172720D01*
Y157090D01*
X174588Y157863D01*
X176147Y159422D01*
X176920Y161290D01*
D02*
G37*
G36*
X170180D02*
X165980D01*
X166753Y159422D01*
X168312Y157863D01*
X170180Y157090D01*
Y161290D01*
D02*
G37*
G36*
X70240Y160020D02*
X66040D01*
Y155820D01*
X67908Y156593D01*
X69467Y158152D01*
X70240Y160020D01*
D02*
G37*
G36*
X63500D02*
X59300D01*
X60073Y158152D01*
X61632Y156593D01*
X63500Y155820D01*
Y160020D01*
D02*
G37*
G36*
X260740D02*
X256540D01*
Y155820D01*
X258408Y156593D01*
X259967Y158152D01*
X260740Y160020D01*
D02*
G37*
G36*
X254000D02*
X249800D01*
X250573Y158152D01*
X252132Y156593D01*
X254000Y155820D01*
Y160020D01*
D02*
G37*
G36*
X243930Y159720D02*
X239730D01*
Y155520D01*
X241598Y156293D01*
X243157Y157852D01*
X243930Y159720D01*
D02*
G37*
G36*
X237190D02*
X232990D01*
X233763Y157852D01*
X235322Y156293D01*
X237190Y155520D01*
Y159720D01*
D02*
G37*
G36*
X110580D02*
X106380D01*
Y155520D01*
X108248Y156293D01*
X109807Y157852D01*
X110580Y159720D01*
D02*
G37*
G36*
X103840D02*
X99640D01*
X100413Y157852D01*
X101972Y156293D01*
X103840Y155520D01*
Y159720D01*
D02*
G37*
G36*
X318880Y161290D02*
X308610D01*
Y151020D01*
X308859D01*
X311794Y151806D01*
X314426Y153326D01*
X316574Y155474D01*
X318093Y158106D01*
X318880Y161041D01*
Y161290D01*
D02*
G37*
G36*
X306070D02*
X295800D01*
Y161041D01*
X296586Y158106D01*
X298106Y155474D01*
X300254Y153326D01*
X302886Y151806D01*
X305821Y151020D01*
X306070D01*
Y161290D01*
D02*
G37*
G36*
X54720D02*
X44450D01*
Y151020D01*
X44699D01*
X47634Y151806D01*
X50266Y153326D01*
X52414Y155474D01*
X53934Y158106D01*
X54720Y161041D01*
Y161290D01*
D02*
G37*
G36*
X41910D02*
X31640D01*
Y161041D01*
X32427Y158106D01*
X33946Y155474D01*
X36094Y153326D01*
X38726Y151806D01*
X41661Y151020D01*
X41910D01*
Y161290D01*
D02*
G37*
G36*
X308792Y148192D02*
X305888D01*
X303082Y147440D01*
X300566Y145988D01*
X298512Y143934D01*
X297060Y141418D01*
X296308Y138612D01*
Y135708D01*
X297060Y132902D01*
X298512Y130386D01*
X300566Y128332D01*
X303082Y126880D01*
X305888Y126128D01*
X308792D01*
X311598Y126880D01*
X314114Y128332D01*
X316168Y130386D01*
X317620Y132902D01*
X318372Y135708D01*
Y138612D01*
X317620Y141418D01*
X316168Y143934D01*
X314114Y145988D01*
X311598Y147440D01*
X308792Y148192D01*
D02*
G37*
G36*
X44632D02*
X41728D01*
X38922Y147440D01*
X36406Y145988D01*
X34352Y143934D01*
X32900Y141418D01*
X32148Y138612D01*
Y135708D01*
X32900Y132902D01*
X34352Y130386D01*
X36406Y128332D01*
X38922Y126880D01*
X41728Y126128D01*
X44632D01*
X47438Y126880D01*
X49954Y128332D01*
X52008Y130386D01*
X53460Y132902D01*
X54212Y135708D01*
Y138612D01*
X53460Y141418D01*
X52008Y143934D01*
X49954Y145988D01*
X47438Y147440D01*
X44632Y148192D01*
D02*
G37*
G36*
X64770Y127390D02*
Y123190D01*
X68970D01*
X68197Y125058D01*
X66638Y126617D01*
X64770Y127390D01*
D02*
G37*
G36*
X62230D02*
X60362Y126617D01*
X58803Y125058D01*
X58030Y123190D01*
X62230D01*
Y127390D01*
D02*
G37*
G36*
X292100Y126120D02*
Y121920D01*
X296300D01*
X295527Y123788D01*
X293968Y125347D01*
X292100Y126120D01*
D02*
G37*
G36*
X289560D02*
X287692Y125347D01*
X286133Y123788D01*
X285360Y121920D01*
X289560D01*
Y126120D01*
D02*
G37*
G36*
X162560Y124850D02*
Y120650D01*
X166760D01*
X165987Y122518D01*
X164428Y124077D01*
X162560Y124850D01*
D02*
G37*
G36*
X160020D02*
X158152Y124077D01*
X156593Y122518D01*
X155820Y120650D01*
X160020D01*
Y124850D01*
D02*
G37*
G36*
X68970Y120650D02*
X64770D01*
Y116450D01*
X66638Y117223D01*
X68197Y118782D01*
X68970Y120650D01*
D02*
G37*
G36*
X62230D02*
X58030D01*
X58803Y118782D01*
X60362Y117223D01*
X62230Y116450D01*
Y120650D01*
D02*
G37*
G36*
X296300Y119380D02*
X292100D01*
Y115180D01*
X293968Y115953D01*
X295527Y117512D01*
X296300Y119380D01*
D02*
G37*
G36*
X289560D02*
X285360D01*
X286133Y117512D01*
X287692Y115953D01*
X289560Y115180D01*
Y119380D01*
D02*
G37*
G36*
X166760Y118110D02*
X162560D01*
Y113910D01*
X164428Y114683D01*
X165987Y116242D01*
X166760Y118110D01*
D02*
G37*
G36*
X160020D02*
X155820D01*
X156593Y116242D01*
X158152Y114683D01*
X160020Y113910D01*
Y118110D01*
D02*
G37*
G36*
X21590Y114690D02*
Y110490D01*
X25790D01*
X25017Y112358D01*
X23458Y113917D01*
X21590Y114690D01*
D02*
G37*
G36*
X19050D02*
X17182Y113917D01*
X15623Y112358D01*
X14850Y110490D01*
X19050D01*
Y114690D01*
D02*
G37*
G36*
X190500Y109610D02*
Y105410D01*
X194700D01*
X193927Y107278D01*
X192368Y108837D01*
X190500Y109610D01*
D02*
G37*
G36*
X187960D02*
X186092Y108837D01*
X184533Y107278D01*
X183760Y105410D01*
X187960D01*
Y109610D01*
D02*
G37*
G36*
X25790Y107950D02*
X21590D01*
Y103750D01*
X23458Y104523D01*
X25017Y106082D01*
X25790Y107950D01*
D02*
G37*
G36*
X19050D02*
X14850D01*
X15623Y106082D01*
X17182Y104523D01*
X19050Y103750D01*
Y107950D01*
D02*
G37*
G36*
X58976Y105966D02*
Y101766D01*
X63176D01*
X62403Y103634D01*
X60844Y105192D01*
X58976Y105966D01*
D02*
G37*
G36*
X56436D02*
X54568Y105192D01*
X53009Y103634D01*
X52236Y101766D01*
X56436D01*
Y105966D01*
D02*
G37*
G36*
X294735Y105706D02*
Y101505D01*
X298935D01*
X298161Y103373D01*
X296603Y104932D01*
X294735Y105706D01*
D02*
G37*
G36*
X292195D02*
X290326Y104932D01*
X288768Y103373D01*
X287994Y101505D01*
X292195D01*
Y105706D01*
D02*
G37*
G36*
X308792Y122792D02*
X305888D01*
X303082Y122040D01*
X300566Y120588D01*
X298512Y118534D01*
X297060Y116018D01*
X296308Y113212D01*
Y110308D01*
X297060Y107502D01*
X298512Y104986D01*
X300566Y102932D01*
X303082Y101480D01*
X305888Y100728D01*
X308792D01*
X311598Y101480D01*
X314114Y102932D01*
X316168Y104986D01*
X317620Y107502D01*
X318372Y110308D01*
Y113212D01*
X317620Y116018D01*
X316168Y118534D01*
X314114Y120588D01*
X311598Y122040D01*
X308792Y122792D01*
D02*
G37*
G36*
X194700Y102870D02*
X190500D01*
Y98670D01*
X192368Y99443D01*
X193927Y101002D01*
X194700Y102870D01*
D02*
G37*
G36*
X187960D02*
X183760D01*
X184533Y101002D01*
X186092Y99443D01*
X187960Y98670D01*
Y102870D01*
D02*
G37*
G36*
X63176Y99226D02*
X58976D01*
Y95025D01*
X60844Y95799D01*
X62403Y97357D01*
X63176Y99226D01*
D02*
G37*
G36*
X56436D02*
X52236D01*
X53009Y97357D01*
X54568Y95799D01*
X56436Y95025D01*
Y99226D01*
D02*
G37*
G36*
X298935Y98965D02*
X294735D01*
Y94765D01*
X296603Y95539D01*
X298161Y97097D01*
X298935Y98965D01*
D02*
G37*
G36*
X292195D02*
X287994D01*
X288768Y97097D01*
X290326Y95539D01*
X292195Y94765D01*
Y98965D01*
D02*
G37*
G36*
X261620Y85480D02*
Y81280D01*
X265820D01*
X265047Y83148D01*
X263488Y84707D01*
X261620Y85480D01*
D02*
G37*
G36*
X259080D02*
X257212Y84707D01*
X255653Y83148D01*
X254880Y81280D01*
X259080D01*
Y85480D01*
D02*
G37*
G36*
X87630Y81670D02*
Y77470D01*
X91830D01*
X91057Y79338D01*
X89498Y80897D01*
X87630Y81670D01*
D02*
G37*
G36*
X85090D02*
X83222Y80897D01*
X81663Y79338D01*
X80890Y77470D01*
X85090D01*
Y81670D01*
D02*
G37*
G36*
X265820Y78740D02*
X261620D01*
Y74540D01*
X263488Y75313D01*
X265047Y76872D01*
X265820Y78740D01*
D02*
G37*
G36*
X259080D02*
X254880D01*
X255653Y76872D01*
X257212Y75313D01*
X259080Y74540D01*
Y78740D01*
D02*
G37*
G36*
X91830Y74930D02*
X87630D01*
Y70730D01*
X89498Y71503D01*
X91057Y73062D01*
X91830Y74930D01*
D02*
G37*
G36*
X85090D02*
X80890D01*
X81663Y73062D01*
X83222Y71503D01*
X85090Y70730D01*
Y74930D01*
D02*
G37*
G36*
X108837Y56853D02*
Y52652D01*
X113037D01*
X112263Y54520D01*
X110705Y56079D01*
X108837Y56853D01*
D02*
G37*
G36*
X106297D02*
X104428Y56079D01*
X102870Y54520D01*
X102096Y52652D01*
X106297D01*
Y56853D01*
D02*
G37*
G36*
X240030Y55000D02*
Y50800D01*
X244230D01*
X243457Y52668D01*
X241898Y54227D01*
X240030Y55000D01*
D02*
G37*
G36*
X237490D02*
X235622Y54227D01*
X234063Y52668D01*
X233290Y50800D01*
X237490D01*
Y55000D01*
D02*
G37*
G36*
X113037Y50112D02*
X108837D01*
Y45912D01*
X110705Y46686D01*
X112263Y48244D01*
X113037Y50112D01*
D02*
G37*
G36*
X106297D02*
X102096D01*
X102870Y48244D01*
X104428Y46686D01*
X106297Y45912D01*
Y50112D01*
D02*
G37*
G36*
X244230Y48260D02*
X240030D01*
Y44060D01*
X241898Y44833D01*
X243457Y46392D01*
X244230Y48260D01*
D02*
G37*
G36*
X237490D02*
X233290D01*
X234063Y46392D01*
X235622Y44833D01*
X237490Y44060D01*
Y48260D01*
D02*
G37*
G36*
X312561Y72540D02*
X311270D01*
Y41270D01*
X342540D01*
Y42561D01*
X341739Y47620D01*
X340156Y52491D01*
X337831Y57055D01*
X334820Y61198D01*
X331198Y64820D01*
X327055Y67831D01*
X322491Y70156D01*
X317620Y71739D01*
X312561Y72540D01*
D02*
G37*
G36*
X308730D02*
X307439D01*
X302380Y71739D01*
X297509Y70156D01*
X292945Y67831D01*
X288802Y64820D01*
X285180Y61198D01*
X282169Y57055D01*
X279844Y52491D01*
X278261Y47620D01*
X277460Y42561D01*
Y41270D01*
X308730D01*
Y72540D01*
D02*
G37*
G36*
X42561D02*
X41270D01*
Y41270D01*
X72540D01*
Y42561D01*
X71739Y47620D01*
X70156Y52491D01*
X67831Y57055D01*
X64820Y61198D01*
X61198Y64820D01*
X57055Y67831D01*
X52491Y70156D01*
X47620Y71739D01*
X42561Y72540D01*
D02*
G37*
G36*
X38730D02*
X37439D01*
X32380Y71739D01*
X27509Y70156D01*
X22945Y67831D01*
X18802Y64820D01*
X15180Y61198D01*
X12169Y57055D01*
X9844Y52491D01*
X8261Y47620D01*
X7460Y42561D01*
Y41270D01*
X38730D01*
Y72540D01*
D02*
G37*
G36*
X266700Y29600D02*
Y25400D01*
X270900D01*
X270127Y27268D01*
X268568Y28827D01*
X266700Y29600D01*
D02*
G37*
G36*
X264160D02*
X262292Y28827D01*
X260733Y27268D01*
X259960Y25400D01*
X264160D01*
Y29600D01*
D02*
G37*
G36*
X81280Y27060D02*
Y22860D01*
X85480D01*
X84707Y24728D01*
X83148Y26287D01*
X81280Y27060D01*
D02*
G37*
G36*
X78740D02*
X76872Y26287D01*
X75313Y24728D01*
X74540Y22860D01*
X78740D01*
Y27060D01*
D02*
G37*
G36*
X270900Y22860D02*
X266700D01*
Y18660D01*
X268568Y19433D01*
X270127Y20992D01*
X270900Y22860D01*
D02*
G37*
G36*
X264160D02*
X259960D01*
X260733Y20992D01*
X262292Y19433D01*
X264160Y18660D01*
Y22860D01*
D02*
G37*
G36*
X85480Y20320D02*
X81280D01*
Y16120D01*
X83148Y16893D01*
X84707Y18452D01*
X85480Y20320D01*
D02*
G37*
G36*
X78740D02*
X74540D01*
X75313Y18452D01*
X76872Y16893D01*
X78740Y16120D01*
Y20320D01*
D02*
G37*
G36*
X342540Y38730D02*
X311270D01*
Y7460D01*
X312561D01*
X317620Y8261D01*
X322491Y9844D01*
X327055Y12169D01*
X331198Y15180D01*
X334820Y18802D01*
X337831Y22945D01*
X340156Y27509D01*
X341739Y32380D01*
X342540Y37439D01*
Y38730D01*
D02*
G37*
G36*
X308730D02*
X277460D01*
Y37439D01*
X278261Y32380D01*
X279844Y27509D01*
X282169Y22945D01*
X285180Y18802D01*
X288802Y15180D01*
X292945Y12169D01*
X297509Y9844D01*
X302380Y8261D01*
X307439Y7460D01*
X308730D01*
Y38730D01*
D02*
G37*
G36*
X72540D02*
X41270D01*
Y7460D01*
X42561D01*
X47620Y8261D01*
X52491Y9844D01*
X57055Y12169D01*
X61198Y15180D01*
X64820Y18802D01*
X67831Y22945D01*
X70156Y27509D01*
X71739Y32380D01*
X72540Y37439D01*
Y38730D01*
D02*
G37*
G36*
X38730D02*
X7460D01*
Y37439D01*
X8261Y32380D01*
X9844Y27509D01*
X12169Y22945D01*
X15180Y18802D01*
X18802Y15180D01*
X22945Y12169D01*
X27509Y9844D01*
X32380Y8261D01*
X37439Y7460D01*
X38730D01*
Y38730D01*
D02*
G37*
%LPD*%
D27*
X66264Y214430D02*
Y214454D01*
Y214430D02*
X104140Y176554D01*
Y176530D02*
Y176554D01*
X182880Y643890D02*
X189230Y650240D01*
Y673280D01*
X182880Y544830D02*
Y643890D01*
X173990Y688520D02*
X189230Y673280D01*
X172720Y585221D02*
Y585470D01*
Y585221D02*
X175308Y582633D01*
Y430578D02*
Y582633D01*
X135890Y704850D02*
X187660D01*
X83820Y652780D02*
X135890Y704850D01*
X83820Y464820D02*
Y652780D01*
X152181Y407450D02*
X175308Y430578D01*
X83820Y464820D02*
X110490Y438150D01*
X142240Y398780D02*
X150911Y407450D01*
X113284Y369824D02*
X142240Y398780D01*
X182880Y544830D02*
X247650D01*
X182880Y416560D02*
Y544830D01*
X150911Y407450D02*
X152181D01*
X113284Y262636D02*
Y369824D01*
X172720Y406400D02*
X182880Y416560D01*
X25400Y193040D02*
X112776Y280416D01*
X113284Y262636D02*
X160020Y215900D01*
X110739Y438150D02*
X127000D01*
X133350Y431800D01*
X160020Y215900D02*
X232410D01*
X246380Y229870D02*
Y238760D01*
X232410Y215900D02*
X246380Y229870D01*
X25400Y129540D02*
Y193040D01*
X172720Y406400D02*
X236220Y342900D01*
Y323850D02*
Y342900D01*
X187660Y704850D02*
X203990Y688520D01*
X25400Y129540D02*
X43180Y111760D01*
D47*
X224324Y501650D02*
X244877Y522203D01*
X214630Y501650D02*
X224324D01*
D49*
X207010Y349250D02*
D03*
X181610D02*
D03*
X156210D02*
D03*
X130810D02*
D03*
X207010Y273050D02*
D03*
X181610D02*
D03*
X156210D02*
D03*
X137160Y196850D02*
D03*
X162560D02*
D03*
X187960D02*
D03*
D50*
X130810Y273050D02*
D03*
D51*
X43180Y111760D02*
D03*
Y137160D02*
D03*
Y162560D02*
D03*
X307340D02*
D03*
Y137160D02*
D03*
Y111760D02*
D03*
D52*
X213360Y196850D02*
D03*
D53*
X143990Y658520D02*
D03*
X173990D02*
D03*
X203990D02*
D03*
X143990Y688520D02*
D03*
X173990D02*
D03*
D54*
Y731520D02*
D03*
D55*
X203990Y688520D02*
D03*
D56*
X310000Y720000D02*
D03*
Y40000D02*
D03*
X40000Y720000D02*
D03*
Y40000D02*
D03*
D57*
X104140Y176530D02*
D03*
X66088Y214630D02*
D03*
X157480Y440690D02*
D03*
X107567Y51382D02*
D03*
X138820Y527050D02*
D03*
X100330Y645160D02*
D03*
X172720Y585470D02*
D03*
X113030Y668020D02*
D03*
X247650Y544830D02*
D03*
X182880D02*
D03*
X244877Y522203D02*
D03*
X208280Y519430D02*
D03*
X317500D02*
D03*
X321310Y487680D02*
D03*
X339090Y421640D02*
D03*
X294640Y655320D02*
D03*
X317500Y617220D02*
D03*
X142240Y398780D02*
D03*
X87900Y318770D02*
D03*
X293465Y100235D02*
D03*
X195580Y259080D02*
D03*
X246380Y298450D02*
D03*
X238760Y49530D02*
D03*
X57706Y100496D02*
D03*
X320246Y281940D02*
D03*
X19050Y373380D02*
D03*
X265430Y24130D02*
D03*
X20320Y109220D02*
D03*
X86360Y76200D02*
D03*
X189230Y104140D02*
D03*
X161290Y119380D02*
D03*
X95250Y499110D02*
D03*
X198120Y416560D02*
D03*
X233680Y373380D02*
D03*
X157480Y308610D02*
D03*
X240030Y204470D02*
D03*
X101600D02*
D03*
X290830Y120650D02*
D03*
X63500Y121920D02*
D03*
X64770Y161290D02*
D03*
X80010Y21590D02*
D03*
X260350Y80010D02*
D03*
X255270Y161290D02*
D03*
X330200Y233680D02*
D03*
X283210D02*
D03*
X24130Y223520D02*
D03*
X55880Y271780D02*
D03*
X198120Y311150D02*
D03*
X82550Y427990D02*
D03*
X306070Y422910D02*
D03*
X278130D02*
D03*
X276860Y518160D02*
D03*
X161680Y524510D02*
D03*
X27940Y500380D02*
D03*
X204470Y725170D02*
D03*
X256540D02*
D03*
X29210Y429260D02*
D03*
X24130Y668020D02*
D03*
X196850Y600710D02*
D03*
X105110Y160990D02*
D03*
X171450Y162560D02*
D03*
X238460Y160990D02*
D03*
X300990Y320040D02*
D03*
X129540Y488950D02*
D03*
X240030Y454660D02*
D03*
X252730Y412750D02*
D03*
X251460Y370840D02*
D03*
X71120Y316230D02*
D03*
X27940Y283210D02*
D03*
X246380Y238760D02*
D03*
X110490Y438150D02*
D03*
X172720Y406400D02*
D03*
X133350Y431800D02*
D03*
X236220Y323850D02*
D03*
X214630Y501650D02*
D03*
M02*
