G04*
G04 #@! TF.GenerationSoftware,Altium Limited,Altium Designer,23.0.1 (38)*
G04*
G04 Layer_Color=65535*
%FSLAX44Y44*%
%MOMM*%
G71*
G04*
G04 #@! TF.SameCoordinates,4F8D76B3-19B9-4F14-BD17-49225F6037FE*
G04*
G04*
G04 #@! TF.FilePolarity,Positive*
G04*
G01*
G75*
%ADD10C,0.2500*%
%ADD11C,0.6000*%
%ADD12C,0.2000*%
%ADD13C,0.2540*%
G36*
X340360Y666739D02*
X330196D01*
X330224Y666711D01*
X330295Y666640D01*
X330393Y666513D01*
X330534Y666330D01*
X330704Y666118D01*
X330887Y665851D01*
X331084Y665555D01*
X331296Y665216D01*
Y665202D01*
X331324Y665174D01*
X331352Y665132D01*
X331380Y665061D01*
X331437Y664977D01*
X331479Y664878D01*
X331606Y664652D01*
X331733Y664399D01*
X331874Y664117D01*
X332001Y663821D01*
X332113Y663539D01*
X330577D01*
X330563Y663553D01*
X330549Y663595D01*
X330506Y663666D01*
X330464Y663764D01*
X330407Y663877D01*
X330323Y664018D01*
X330238Y664173D01*
X330154Y664328D01*
X329928Y664695D01*
X329660Y665089D01*
X329378Y665498D01*
X329054Y665879D01*
X329040Y665893D01*
X329012Y665921D01*
X328970Y665977D01*
X328899Y666048D01*
X328815Y666118D01*
X328730Y666217D01*
X328490Y666429D01*
X328237Y666668D01*
X327940Y666908D01*
X327630Y667119D01*
X327306Y667303D01*
Y668332D01*
X340360D01*
Y666739D01*
D02*
G37*
G36*
Y656335D02*
Y654559D01*
X327349Y649512D01*
Y651387D01*
X336808Y654770D01*
X336822D01*
X336864Y654784D01*
X336920Y654813D01*
X337005Y654841D01*
X337104Y654869D01*
X337216Y654911D01*
X337343Y654954D01*
X337498Y655010D01*
X337822Y655109D01*
X338175Y655221D01*
X338556Y655334D01*
X338936Y655447D01*
X338922D01*
X338894Y655461D01*
X338823Y655475D01*
X338753Y655503D01*
X338654Y655532D01*
X338541Y655560D01*
X338415Y655602D01*
X338274Y655644D01*
X337949Y655743D01*
X337583Y655870D01*
X337202Y656011D01*
X336808Y656152D01*
X327349Y659662D01*
Y661410D01*
X340360Y656335D01*
D02*
G37*
G36*
Y633709D02*
X327349D01*
Y643126D01*
X328885D01*
Y635429D01*
X332860D01*
Y642633D01*
X334397D01*
Y635429D01*
X338823D01*
Y643422D01*
X340360D01*
Y633709D01*
D02*
G37*
G36*
X336864Y631313D02*
X336963D01*
X337061Y631299D01*
X337329Y631256D01*
X337625Y631186D01*
X337949Y631073D01*
X338288Y630918D01*
X338471Y630834D01*
X338640Y630721D01*
X338654D01*
X338683Y630693D01*
X338725Y630664D01*
X338795Y630608D01*
X338950Y630481D01*
X339162Y630284D01*
X339387Y630044D01*
X339627Y629748D01*
X339852Y629410D01*
X340064Y629015D01*
Y629001D01*
X340092Y628959D01*
X340106Y628902D01*
X340149Y628818D01*
X340177Y628719D01*
X340219Y628592D01*
X340275Y628451D01*
X340318Y628282D01*
X340360Y628113D01*
X340416Y627916D01*
X340487Y627493D01*
X340543Y627027D01*
X340572Y626520D01*
Y626351D01*
X340557Y626224D01*
Y626069D01*
X340543Y625900D01*
X340529Y625702D01*
X340501Y625477D01*
X340445Y625012D01*
X340360Y624518D01*
X340233Y624025D01*
X340064Y623545D01*
Y623531D01*
X340036Y623489D01*
X340008Y623433D01*
X339965Y623348D01*
X339909Y623250D01*
X339852Y623137D01*
X339683Y622869D01*
X339472Y622573D01*
X339204Y622263D01*
X338894Y621953D01*
X338527Y621685D01*
X338513Y621671D01*
X338485Y621656D01*
X338429Y621628D01*
X338344Y621586D01*
X338246Y621530D01*
X338133Y621473D01*
X337992Y621403D01*
X337837Y621346D01*
X337682Y621276D01*
X337498Y621219D01*
X337090Y621107D01*
X336652Y621022D01*
X336413Y620994D01*
X336173Y620980D01*
X336032Y622601D01*
X336046D01*
X336074D01*
X336131Y622615D01*
X336201Y622629D01*
X336286Y622643D01*
X336371Y622657D01*
X336610Y622714D01*
X336864Y622784D01*
X337132Y622869D01*
X337400Y622982D01*
X337653Y623123D01*
X337682Y623137D01*
X337752Y623207D01*
X337865Y623306D01*
X338006Y623447D01*
X338175Y623630D01*
X338330Y623856D01*
X338499Y624123D01*
X338654Y624434D01*
Y624448D01*
X338668Y624476D01*
X338683Y624518D01*
X338711Y624589D01*
X338739Y624673D01*
X338781Y624772D01*
X338809Y624885D01*
X338838Y625012D01*
X338908Y625308D01*
X338979Y625660D01*
X339021Y626027D01*
X339035Y626435D01*
Y626604D01*
X339021Y626689D01*
Y626788D01*
X338993Y627013D01*
X338964Y627281D01*
X338922Y627577D01*
X338852Y627873D01*
X338753Y628155D01*
Y628169D01*
X338739Y628183D01*
X338725Y628226D01*
X338697Y628282D01*
X338626Y628409D01*
X338541Y628578D01*
X338429Y628761D01*
X338288Y628959D01*
X338133Y629128D01*
X337949Y629283D01*
X337921Y629297D01*
X337865Y629339D01*
X337752Y629410D01*
X337611Y629480D01*
X337442Y629537D01*
X337259Y629607D01*
X337047Y629650D01*
X336836Y629664D01*
X336822D01*
X336808D01*
X336737D01*
X336610Y629650D01*
X336469Y629621D01*
X336300Y629579D01*
X336117Y629509D01*
X335933Y629424D01*
X335764Y629297D01*
X335750Y629283D01*
X335694Y629227D01*
X335609Y629142D01*
X335496Y629015D01*
X335384Y628860D01*
X335257Y628649D01*
X335130Y628409D01*
X335003Y628127D01*
X334989Y628099D01*
X334975Y628071D01*
X334961Y628014D01*
X334947Y627958D01*
X334919Y627873D01*
X334876Y627761D01*
X334848Y627648D01*
X334806Y627493D01*
X334749Y627338D01*
X334707Y627140D01*
X334651Y626929D01*
X334580Y626689D01*
X334524Y626435D01*
X334439Y626139D01*
X334369Y625815D01*
Y625801D01*
X334355Y625745D01*
X334327Y625646D01*
X334298Y625533D01*
X334256Y625378D01*
X334214Y625209D01*
X334157Y625040D01*
X334101Y624842D01*
X333974Y624420D01*
X333833Y624011D01*
X333763Y623813D01*
X333692Y623630D01*
X333622Y623461D01*
X333551Y623320D01*
Y623306D01*
X333523Y623278D01*
X333495Y623235D01*
X333467Y623165D01*
X333368Y622996D01*
X333227Y622798D01*
X333044Y622559D01*
X332846Y622333D01*
X332607Y622108D01*
X332353Y621924D01*
X332339D01*
X332325Y621910D01*
X332282Y621882D01*
X332226Y621854D01*
X332071Y621783D01*
X331874Y621699D01*
X331634Y621614D01*
X331352Y621544D01*
X331042Y621487D01*
X330718Y621473D01*
X330704D01*
X330675D01*
X330619D01*
X330549Y621487D01*
X330464D01*
X330365Y621501D01*
X330112Y621544D01*
X329829Y621614D01*
X329534Y621699D01*
X329209Y621840D01*
X328885Y622023D01*
X328871D01*
X328843Y622051D01*
X328801Y622079D01*
X328744Y622122D01*
X328589Y622263D01*
X328392Y622446D01*
X328180Y622672D01*
X327969Y622953D01*
X327757Y623278D01*
X327574Y623658D01*
Y623672D01*
X327560Y623701D01*
X327532Y623771D01*
X327504Y623842D01*
X327475Y623940D01*
X327433Y624067D01*
X327391Y624208D01*
X327349Y624363D01*
X327306Y624532D01*
X327264Y624715D01*
X327193Y625110D01*
X327137Y625561D01*
X327123Y626041D01*
Y626280D01*
X327137Y626407D01*
X327151Y626562D01*
X327165Y626717D01*
X327179Y626901D01*
X327236Y627295D01*
X327320Y627732D01*
X327447Y628169D01*
X327602Y628592D01*
Y628606D01*
X327630Y628634D01*
X327645Y628705D01*
X327687Y628775D01*
X327743Y628860D01*
X327800Y628973D01*
X327940Y629212D01*
X328138Y629494D01*
X328378Y629776D01*
X328645Y630044D01*
X328970Y630284D01*
X328984Y630298D01*
X329012Y630312D01*
X329054Y630340D01*
X329125Y630382D01*
X329209Y630425D01*
X329308Y630481D01*
X329435Y630523D01*
X329562Y630594D01*
X329858Y630707D01*
X330210Y630805D01*
X330591Y630890D01*
X331014Y630932D01*
X331141Y629283D01*
X331127D01*
X331084Y629269D01*
X331028D01*
X330943Y629255D01*
X330830Y629227D01*
X330718Y629198D01*
X330450Y629114D01*
X330154Y629001D01*
X329844Y628832D01*
X329548Y628634D01*
X329421Y628508D01*
X329294Y628367D01*
X329280Y628353D01*
X329266Y628339D01*
X329238Y628282D01*
X329195Y628226D01*
X329153Y628141D01*
X329096Y628042D01*
X329040Y627930D01*
X328970Y627803D01*
X328913Y627648D01*
X328857Y627479D01*
X328801Y627295D01*
X328758Y627098D01*
X328716Y626872D01*
X328688Y626633D01*
X328660Y626379D01*
Y625970D01*
X328674Y625857D01*
Y625731D01*
X328688Y625590D01*
X328702Y625420D01*
X328730Y625251D01*
X328801Y624871D01*
X328899Y624504D01*
X329040Y624152D01*
X329139Y623983D01*
X329238Y623842D01*
Y623827D01*
X329266Y623813D01*
X329336Y623729D01*
X329463Y623616D01*
X329632Y623489D01*
X329829Y623362D01*
X330069Y623250D01*
X330323Y623165D01*
X330464Y623151D01*
X330619Y623137D01*
X330633D01*
X330647D01*
X330732Y623151D01*
X330859Y623165D01*
X331014Y623193D01*
X331197Y623264D01*
X331394Y623348D01*
X331578Y623461D01*
X331761Y623630D01*
X331775Y623658D01*
X331803Y623686D01*
X331845Y623743D01*
X331888Y623813D01*
X331930Y623898D01*
X331986Y624011D01*
X332057Y624138D01*
X332127Y624293D01*
X332198Y624476D01*
X332268Y624687D01*
X332353Y624927D01*
X332438Y625209D01*
X332522Y625505D01*
X332621Y625843D01*
X332705Y626224D01*
Y626252D01*
X332719Y626323D01*
X332748Y626421D01*
X332790Y626562D01*
X332818Y626731D01*
X332874Y626929D01*
X332917Y627140D01*
X332987Y627366D01*
X333114Y627845D01*
X333241Y628324D01*
X333312Y628550D01*
X333382Y628747D01*
X333452Y628945D01*
X333523Y629100D01*
Y629114D01*
X333551Y629156D01*
X333579Y629212D01*
X333622Y629283D01*
X333664Y629382D01*
X333734Y629494D01*
X333890Y629734D01*
X334073Y630016D01*
X334298Y630284D01*
X334566Y630552D01*
X334707Y630664D01*
X334848Y630777D01*
X334862D01*
X334890Y630805D01*
X334933Y630834D01*
X334989Y630862D01*
X335060Y630904D01*
X335158Y630946D01*
X335384Y631059D01*
X335652Y631158D01*
X335962Y631242D01*
X336314Y631299D01*
X336695Y631327D01*
X336709D01*
X336737D01*
X336794D01*
X336864Y631313D01*
D02*
G37*
G36*
X340360Y617117D02*
X329463D01*
X340360Y613311D01*
Y611760D01*
X329280Y608011D01*
X340360D01*
Y606347D01*
X327349D01*
Y608927D01*
X336568Y612014D01*
X336582D01*
X336624Y612028D01*
X336695Y612056D01*
X336779Y612085D01*
X336878Y612113D01*
X337005Y612155D01*
X337287Y612254D01*
X337597Y612352D01*
X337921Y612451D01*
X338217Y612550D01*
X338358Y612592D01*
X338485Y612634D01*
X338471D01*
X338457Y612649D01*
X338415Y612663D01*
X338358Y612677D01*
X338274Y612705D01*
X338189Y612733D01*
X338076Y612761D01*
X337963Y612804D01*
X337822Y612846D01*
X337668Y612902D01*
X337498Y612959D01*
X337301Y613015D01*
X337104Y613086D01*
X336878Y613156D01*
X336652Y613241D01*
X336399Y613325D01*
X327349Y616455D01*
Y618781D01*
X340360D01*
Y617117D01*
D02*
G37*
G36*
X336455Y594478D02*
X334848D01*
Y599397D01*
X336455D01*
Y594478D01*
D02*
G37*
G36*
X340360Y578181D02*
X327349D01*
Y587598D01*
X328885D01*
Y579901D01*
X332860D01*
Y587105D01*
X334397D01*
Y579901D01*
X338823D01*
Y587894D01*
X340360D01*
Y578181D01*
D02*
G37*
G36*
Y573558D02*
X334228D01*
Y566805D01*
X340360D01*
Y565085D01*
X327349D01*
Y566805D01*
X332691D01*
Y573558D01*
X327349D01*
Y575277D01*
X340360D01*
Y573558D01*
D02*
G37*
G36*
Y554837D02*
X327349D01*
Y556557D01*
X338823D01*
Y562971D01*
X340360D01*
Y554837D01*
D02*
G37*
G36*
Y550157D02*
X327349D01*
Y551876D01*
X340360D01*
Y550157D01*
D02*
G37*
G36*
Y546534D02*
X336427Y545025D01*
Y539556D01*
X340360Y538146D01*
Y536327D01*
X327349Y541304D01*
Y543164D01*
X340360Y548493D01*
Y546534D01*
D02*
G37*
G36*
Y532986D02*
X327349D01*
Y534706D01*
X340360D01*
Y532986D01*
D02*
G37*
G36*
Y528264D02*
X329463D01*
X340360Y524458D01*
Y522907D01*
X329280Y519157D01*
X340360D01*
Y517494D01*
X327349D01*
Y520074D01*
X336568Y523161D01*
X336582D01*
X336624Y523175D01*
X336695Y523203D01*
X336779Y523231D01*
X336878Y523259D01*
X337005Y523302D01*
X337287Y523400D01*
X337597Y523499D01*
X337921Y523598D01*
X338217Y523696D01*
X338358Y523739D01*
X338485Y523781D01*
X338471D01*
X338457Y523795D01*
X338415Y523809D01*
X338358Y523823D01*
X338274Y523852D01*
X338189Y523880D01*
X338076Y523908D01*
X337963Y523950D01*
X337822Y523993D01*
X337668Y524049D01*
X337498Y524105D01*
X337301Y524162D01*
X337104Y524232D01*
X336878Y524303D01*
X336652Y524387D01*
X336399Y524472D01*
X327349Y527601D01*
Y529927D01*
X340360D01*
Y528264D01*
D02*
G37*
G36*
Y512757D02*
X338541D01*
Y514576D01*
X340360D01*
Y512757D01*
D02*
G37*
G36*
X331408Y510304D02*
X331549Y510290D01*
X331704Y510262D01*
X331888Y510234D01*
X332099Y510191D01*
X332311Y510135D01*
X332536Y510065D01*
X332762Y509980D01*
X333001Y509867D01*
X333241Y509754D01*
X333481Y509613D01*
X333706Y509444D01*
X333932Y509261D01*
X333946Y509247D01*
X333974Y509205D01*
X334030Y509148D01*
X334115Y509050D01*
X334200Y508937D01*
X334298Y508782D01*
X334397Y508599D01*
X334496Y508387D01*
X334608Y508133D01*
X334707Y507865D01*
X334806Y507541D01*
X334890Y507203D01*
X334961Y506808D01*
X335017Y506385D01*
X335060Y505934D01*
X335074Y505427D01*
Y502100D01*
X340360D01*
Y500380D01*
X327349D01*
Y505737D01*
X327363Y506019D01*
X327377Y506343D01*
X327405Y506667D01*
X327433Y506977D01*
X327447Y507132D01*
X327475Y507259D01*
Y507273D01*
X327489Y507302D01*
Y507358D01*
X327504Y507414D01*
X327532Y507499D01*
X327546Y507598D01*
X327616Y507823D01*
X327701Y508077D01*
X327814Y508345D01*
X327940Y508613D01*
X328096Y508866D01*
Y508881D01*
X328110Y508895D01*
X328180Y508979D01*
X328279Y509092D01*
X328420Y509247D01*
X328589Y509402D01*
X328815Y509585D01*
X329054Y509754D01*
X329350Y509910D01*
X329364D01*
X329393Y509924D01*
X329435Y509952D01*
X329491Y509980D01*
X329562Y510008D01*
X329660Y510036D01*
X329872Y510121D01*
X330140Y510191D01*
X330436Y510262D01*
X330774Y510304D01*
X331127Y510318D01*
X331141D01*
X331197D01*
X331282D01*
X331408Y510304D01*
D02*
G37*
%LPC*%
G36*
X335031Y544490D02*
X331423Y543122D01*
X331408D01*
X331352Y543094D01*
X331267Y543066D01*
X331141Y543023D01*
X331014Y542967D01*
X330844Y542911D01*
X330661Y542840D01*
X330464Y542770D01*
X330027Y542629D01*
X329576Y542474D01*
X329125Y542319D01*
X328702Y542192D01*
X328716D01*
X328758Y542178D01*
X328829Y542164D01*
X328913Y542149D01*
X329040Y542121D01*
X329167Y542093D01*
X329322Y542051D01*
X329491Y542008D01*
X329674Y541966D01*
X329872Y541910D01*
X330295Y541783D01*
X330746Y541642D01*
X331211Y541487D01*
X335031Y540049D01*
Y544490D01*
D02*
G37*
G36*
X331169Y508542D02*
X331155D01*
X331127D01*
X331084D01*
X331028D01*
X330873Y508514D01*
X330690Y508486D01*
X330464Y508443D01*
X330238Y508359D01*
X329999Y508260D01*
X329773Y508119D01*
X329745Y508105D01*
X329674Y508049D01*
X329576Y507950D01*
X329463Y507837D01*
X329336Y507668D01*
X329209Y507485D01*
X329096Y507273D01*
X329012Y507034D01*
Y507020D01*
X328998Y506949D01*
X328970Y506836D01*
X328941Y506667D01*
Y506569D01*
X328927Y506456D01*
X328913Y506315D01*
X328899Y506174D01*
Y506005D01*
X328885Y505835D01*
Y502100D01*
X333537D01*
Y505610D01*
X333523Y505723D01*
Y505864D01*
X333509Y506019D01*
X333481Y506202D01*
X333452Y506385D01*
X333382Y506780D01*
X333269Y507175D01*
X333199Y507358D01*
X333114Y507527D01*
X333030Y507696D01*
X332917Y507837D01*
X332903Y507851D01*
X332889Y507865D01*
X332846Y507908D01*
X332804Y507950D01*
X332663Y508063D01*
X332466Y508190D01*
X332212Y508317D01*
X331916Y508429D01*
X331563Y508514D01*
X331380Y508528D01*
X331169Y508542D01*
D02*
G37*
%LPD*%
D10*
X181100Y441780D02*
G03*
X181100Y441780I-1250J0D01*
G01*
X119060Y273050D02*
G03*
X119060Y273050I-1250J0D01*
G01*
X128510Y544850D02*
G03*
X128510Y544850I-1250J0D01*
G01*
X285240Y303350D02*
G03*
X285240Y303350I-1250J0D01*
G01*
X145650Y82550D02*
G03*
X145650Y82550I-1250J0D01*
G01*
X55370Y298270D02*
G03*
X55370Y298270I-1250J0D01*
G01*
D11*
X130910Y294650D02*
G03*
X130910Y294650I-3000J0D01*
G01*
X158650Y106550D02*
G03*
X158650Y106550I-3000J0D01*
G01*
D12*
X117910Y304800D02*
G03*
X117910Y317500I0J6350D01*
G01*
X227010Y580540D02*
X232730D01*
X215370Y567540D02*
Y571771D01*
X236510Y567540D02*
X244370D01*
X215370D02*
X223230D01*
X244370D02*
Y571771D01*
X290510Y581810D02*
X296230D01*
X278870Y568810D02*
Y573041D01*
X300010Y568810D02*
X307870D01*
X278870D02*
X286730D01*
X307870D02*
Y573041D01*
X212350Y454280D02*
Y470280D01*
X181350Y454280D02*
Y470280D01*
X212350D01*
X181350Y454280D02*
X212350D01*
X219910Y284650D02*
Y337650D01*
X117910Y317500D02*
Y337650D01*
Y284650D02*
Y304800D01*
Y337650D02*
X219910D01*
X117910Y284650D02*
X219910D01*
X81760Y545350D02*
X97760D01*
Y610350D01*
X81760D02*
X97760D01*
X285490Y315850D02*
X316490D01*
X285490Y331850D02*
X316490D01*
X285490Y315850D02*
Y331850D01*
X316490Y315850D02*
Y331850D01*
X196650Y96550D02*
Y126550D01*
X145650Y96550D02*
Y126550D01*
X196650D01*
X145650Y96550D02*
X196650D01*
X55620Y310770D02*
X86620D01*
X55620Y326770D02*
X86620D01*
X55620Y310770D02*
Y326770D01*
X86620Y310770D02*
Y326770D01*
X103279Y617650D02*
X127861D01*
X103279Y639650D02*
X127861D01*
X71529D02*
X96111D01*
X71529Y617650D02*
X96111D01*
X102009Y538050D02*
X126591D01*
X102009Y516050D02*
X126591D01*
D13*
X128906Y218439D02*
X127637Y219709D01*
X125098D01*
X123828Y218439D01*
Y213361D01*
X125098Y212091D01*
X127637D01*
X128906Y213361D01*
X131446Y212091D02*
X133985D01*
X132715D01*
Y219709D01*
X131446Y218439D01*
X142872Y219709D02*
X140333Y218439D01*
X137794Y215900D01*
Y213361D01*
X139063Y212091D01*
X141602D01*
X142872Y213361D01*
Y214630D01*
X141602Y215900D01*
X137794D01*
X251463Y543561D02*
Y551179D01*
X255272D01*
X256542Y549909D01*
Y547370D01*
X255272Y546100D01*
X251463D01*
X254002D02*
X256542Y543561D01*
X262890D02*
Y551179D01*
X259081Y547370D01*
X264159D01*
X266698Y544831D02*
X267968Y543561D01*
X270507D01*
X271777Y544831D01*
Y549909D01*
X270507Y551179D01*
X267968D01*
X266698Y549909D01*
Y548640D01*
X267968Y547370D01*
X271777D01*
X266703Y637541D02*
Y645159D01*
X270512D01*
X271782Y643889D01*
Y641350D01*
X270512Y640080D01*
X266703D01*
X269242D02*
X271782Y637541D01*
X278130D02*
Y645159D01*
X274321Y641350D01*
X279399D01*
X287017Y637541D02*
X281938D01*
X287017Y642620D01*
Y643889D01*
X285747Y645159D01*
X283208D01*
X281938Y643889D01*
X189233Y543561D02*
Y551179D01*
X193042D01*
X194312Y549909D01*
Y547370D01*
X193042Y546100D01*
X189233D01*
X191772D02*
X194312Y543561D01*
X196851Y549909D02*
X198120Y551179D01*
X200660D01*
X201929Y549909D01*
Y548640D01*
X200660Y547370D01*
X199390D01*
X200660D01*
X201929Y546100D01*
Y544831D01*
X200660Y543561D01*
X198120D01*
X196851Y544831D01*
X204468Y549909D02*
X205738Y551179D01*
X208277D01*
X209547Y549909D01*
Y548640D01*
X208277Y547370D01*
X209547Y546100D01*
Y544831D01*
X208277Y543561D01*
X205738D01*
X204468Y544831D01*
Y546100D01*
X205738Y547370D01*
X204468Y548640D01*
Y549909D01*
X205738Y547370D02*
X208277D01*
X190503Y637691D02*
Y645309D01*
X194312D01*
X195582Y644039D01*
Y641500D01*
X194312Y640230D01*
X190503D01*
X193043D02*
X195582Y637691D01*
X198121Y644039D02*
X199390Y645309D01*
X201930D01*
X203199Y644039D01*
Y642770D01*
X201930Y641500D01*
X200660D01*
X201930D01*
X203199Y640230D01*
Y638961D01*
X201930Y637691D01*
X199390D01*
X198121Y638961D01*
X209547Y637691D02*
Y645309D01*
X205738Y641500D01*
X210817D01*
X284480Y544831D02*
Y549909D01*
X283211Y551179D01*
X280672D01*
X279402Y549909D01*
Y544831D01*
X280672Y543561D01*
X283211D01*
X281941Y546100D02*
X284480Y543561D01*
X283211D02*
X284480Y544831D01*
X292098Y543561D02*
X287020D01*
X292098Y548640D01*
Y549909D01*
X290828Y551179D01*
X288289D01*
X287020Y549909D01*
X229870Y544831D02*
Y549909D01*
X228600Y551179D01*
X226061D01*
X224792Y549909D01*
Y544831D01*
X226061Y543561D01*
X228600D01*
X227331Y546100D02*
X229870Y543561D01*
X228600D02*
X229870Y544831D01*
X232409Y543561D02*
X234948D01*
X233679D01*
Y551179D01*
X232409Y549909D01*
X171615Y576579D02*
Y568961D01*
Y576579D02*
X174880D01*
X175968Y576216D01*
X176331Y575854D01*
X176694Y575128D01*
Y574403D01*
X176331Y573677D01*
X175968Y573314D01*
X174880Y572951D01*
X171615D01*
X174155D02*
X176694Y568961D01*
X178399Y575128D02*
X179125Y575491D01*
X180213Y576579D01*
Y568961D01*
X184349Y574765D02*
Y575128D01*
X184711Y575854D01*
X185074Y576216D01*
X185800Y576579D01*
X187251D01*
X187976Y576216D01*
X188339Y575854D01*
X188702Y575128D01*
Y574403D01*
X188339Y573677D01*
X187614Y572589D01*
X183986Y568961D01*
X189065D01*
X328931Y357888D02*
X336549D01*
X328931D02*
Y361153D01*
X329294Y362241D01*
X329656Y362604D01*
X330382Y362967D01*
X331107D01*
X331833Y362604D01*
X332196Y362241D01*
X332559Y361153D01*
Y357888D01*
Y360427D02*
X336549Y362967D01*
X328931Y365397D02*
Y369388D01*
X331833Y367211D01*
Y368300D01*
X332196Y369025D01*
X332559Y369388D01*
X333647Y369751D01*
X334372D01*
X335461Y369388D01*
X336186Y368662D01*
X336549Y367574D01*
Y366486D01*
X336186Y365397D01*
X335824Y365035D01*
X335098Y364672D01*
X331470Y376172D02*
X332559Y375809D01*
X333284Y375084D01*
X333647Y373995D01*
Y373633D01*
X333284Y372544D01*
X332559Y371819D01*
X331470Y371456D01*
X331107D01*
X330019Y371819D01*
X329294Y372544D01*
X328931Y373633D01*
Y373995D01*
X329294Y375084D01*
X330019Y375809D01*
X331470Y376172D01*
X333284D01*
X335098Y375809D01*
X336186Y375084D01*
X336549Y373995D01*
Y373270D01*
X336186Y372182D01*
X335461Y371819D01*
X241048Y384809D02*
Y377191D01*
Y384809D02*
X244313D01*
X245401Y384446D01*
X245764Y384084D01*
X246127Y383358D01*
Y382632D01*
X245764Y381907D01*
X245401Y381544D01*
X244313Y381181D01*
X241048D01*
X243587D02*
X246127Y377191D01*
X248557Y384809D02*
X252548D01*
X250371Y381907D01*
X251460D01*
X252185Y381544D01*
X252548Y381181D01*
X252911Y380093D01*
Y379367D01*
X252548Y378279D01*
X251822Y377554D01*
X250734Y377191D01*
X249646D01*
X248557Y377554D01*
X248195Y377916D01*
X247832Y378642D01*
X258969Y383721D02*
X258606Y384446D01*
X257518Y384809D01*
X256793D01*
X255704Y384446D01*
X254979Y383358D01*
X254616Y381544D01*
Y379730D01*
X254979Y378279D01*
X255704Y377554D01*
X256793Y377191D01*
X257155D01*
X258244Y377554D01*
X258969Y378279D01*
X259332Y379367D01*
Y379730D01*
X258969Y380819D01*
X258244Y381544D01*
X257155Y381907D01*
X256793D01*
X255704Y381544D01*
X254979Y380819D01*
X254616Y379730D01*
X266267Y538479D02*
Y530861D01*
Y538479D02*
X269532D01*
X270620Y538116D01*
X270983Y537754D01*
X271346Y537028D01*
Y536302D01*
X270983Y535577D01*
X270620Y535214D01*
X269532Y534851D01*
X266267D01*
X268806D02*
X271346Y530861D01*
X276678Y538479D02*
X273051Y533400D01*
X278492D01*
X276678Y538479D02*
Y530861D01*
X280560Y538479D02*
X284551D01*
X282374Y535577D01*
X283462D01*
X284188Y535214D01*
X284551Y534851D01*
X284914Y533763D01*
Y533037D01*
X284551Y531949D01*
X283825Y531224D01*
X282737Y530861D01*
X281648D01*
X280560Y531224D01*
X280197Y531586D01*
X279834Y532312D01*
X189917Y538479D02*
Y530861D01*
Y538479D02*
X193182D01*
X194270Y538116D01*
X194633Y537754D01*
X194995Y537028D01*
Y536302D01*
X194633Y535577D01*
X194270Y535214D01*
X193182Y534851D01*
X189917D01*
X192456D02*
X194995Y530861D01*
X197426Y538479D02*
X201417D01*
X199240Y535577D01*
X200328D01*
X201054Y535214D01*
X201417Y534851D01*
X201779Y533763D01*
Y533037D01*
X201417Y531949D01*
X200691Y531224D01*
X199603Y530861D01*
X198514D01*
X197426Y531224D01*
X197063Y531586D01*
X196701Y532312D01*
X207838Y538479D02*
X204210D01*
X203847Y535214D01*
X204210Y535577D01*
X205298Y535940D01*
X206387D01*
X207475Y535577D01*
X208201Y534851D01*
X208563Y533763D01*
Y533037D01*
X208201Y531949D01*
X207475Y531224D01*
X206387Y530861D01*
X205298D01*
X204210Y531224D01*
X203847Y531586D01*
X203485Y532312D01*
X89737Y269239D02*
Y261621D01*
Y269239D02*
X93002D01*
X94090Y268876D01*
X94453Y268514D01*
X94816Y267788D01*
Y267062D01*
X94453Y266337D01*
X94090Y265974D01*
X93002Y265611D01*
X89737D01*
X92276D02*
X94816Y261621D01*
X96883Y267425D02*
Y267788D01*
X97246Y268514D01*
X97609Y268876D01*
X98334Y269239D01*
X99786D01*
X100511Y268876D01*
X100874Y268514D01*
X101237Y267788D01*
Y267062D01*
X100874Y266337D01*
X100148Y265249D01*
X96521Y261621D01*
X101600D01*
X103667Y267425D02*
Y267788D01*
X104030Y268514D01*
X104393Y268876D01*
X105118Y269239D01*
X106570D01*
X107295Y268876D01*
X107658Y268514D01*
X108021Y267788D01*
Y267062D01*
X107658Y266337D01*
X106932Y265249D01*
X103305Y261621D01*
X108384D01*
X11359Y384809D02*
Y377191D01*
Y384809D02*
X14624D01*
X15712Y384446D01*
X16075Y384084D01*
X16438Y383358D01*
Y382632D01*
X16075Y381907D01*
X15712Y381544D01*
X14624Y381181D01*
X11359D01*
X13899D02*
X16438Y377191D01*
X18506Y382995D02*
Y383358D01*
X18869Y384084D01*
X19231Y384446D01*
X19957Y384809D01*
X21408D01*
X22134Y384446D01*
X22496Y384084D01*
X22859Y383358D01*
Y382632D01*
X22496Y381907D01*
X21771Y380819D01*
X18143Y377191D01*
X23222D01*
X24927Y383358D02*
X25653Y383721D01*
X26741Y384809D01*
Y377191D01*
X88901Y449999D02*
X96519D01*
X88901D02*
Y453264D01*
X89264Y454352D01*
X89626Y454715D01*
X90352Y455078D01*
X91077D01*
X91803Y454715D01*
X92166Y454352D01*
X92529Y453264D01*
Y449999D01*
Y452538D02*
X96519Y455078D01*
X88901Y458596D02*
X89264Y457508D01*
X89989Y457145D01*
X90715D01*
X91440Y457508D01*
X91803Y458234D01*
X92166Y459685D01*
X92529Y460773D01*
X93254Y461499D01*
X93980Y461861D01*
X95068D01*
X95794Y461499D01*
X96156Y461136D01*
X96519Y460048D01*
Y458596D01*
X96156Y457508D01*
X95794Y457145D01*
X95068Y456783D01*
X93980D01*
X93254Y457145D01*
X92529Y457871D01*
X92166Y458959D01*
X91803Y460410D01*
X91440Y461136D01*
X90715Y461499D01*
X89989D01*
X89264Y461136D01*
X88901Y460048D01*
Y458596D01*
X189649Y408939D02*
Y401321D01*
Y408939D02*
X192914D01*
X194002Y408576D01*
X194365Y408214D01*
X194727Y407488D01*
Y406763D01*
X194365Y406037D01*
X194002Y405674D01*
X192914Y405311D01*
X189649D01*
X192188D02*
X194727Y401321D01*
X200786Y408939D02*
X197158D01*
X196795Y405674D01*
X197158Y406037D01*
X198246Y406400D01*
X199335D01*
X200423Y406037D01*
X201149Y405311D01*
X201511Y404223D01*
Y403498D01*
X201149Y402409D01*
X200423Y401684D01*
X199335Y401321D01*
X198246D01*
X197158Y401684D01*
X196795Y402046D01*
X196433Y402772D01*
X172050Y600709D02*
Y593091D01*
Y600709D02*
X175315D01*
X176403Y600346D01*
X176766Y599984D01*
X177129Y599258D01*
Y598532D01*
X176766Y597807D01*
X176403Y597444D01*
X175315Y597081D01*
X172050D01*
X174589D02*
X177129Y593091D01*
X183550Y598170D02*
X183187Y597081D01*
X182462Y596356D01*
X181373Y595993D01*
X181011D01*
X179922Y596356D01*
X179197Y597081D01*
X178834Y598170D01*
Y598532D01*
X179197Y599621D01*
X179922Y600346D01*
X181011Y600709D01*
X181373D01*
X182462Y600346D01*
X183187Y599621D01*
X183550Y598170D01*
Y596356D01*
X183187Y594542D01*
X182462Y593454D01*
X181373Y593091D01*
X180648D01*
X179559Y593454D01*
X179197Y594179D01*
X13245Y80138D02*
X12519Y79775D01*
X11794Y79050D01*
X11431Y78324D01*
Y76873D01*
X11794Y76147D01*
X12519Y75422D01*
X13245Y75059D01*
X14333Y74696D01*
X16147D01*
X17235Y75059D01*
X17961Y75422D01*
X18686Y76147D01*
X19049Y76873D01*
Y78324D01*
X18686Y79050D01*
X17961Y79775D01*
X17235Y80138D01*
X12882Y82278D02*
X12519Y83004D01*
X11431Y84092D01*
X19049D01*
X11431Y88591D02*
Y92581D01*
X14333Y90405D01*
Y91493D01*
X14696Y92218D01*
X15059Y92581D01*
X16147Y92944D01*
X16873D01*
X17961Y92581D01*
X18686Y91856D01*
X19049Y90767D01*
Y89679D01*
X18686Y88591D01*
X18324Y88228D01*
X17598Y87865D01*
X16638Y396965D02*
X16275Y397691D01*
X15549Y398416D01*
X14824Y398779D01*
X13373D01*
X12647Y398416D01*
X11922Y397691D01*
X11559Y396965D01*
X11196Y395877D01*
Y394063D01*
X11559Y392975D01*
X11922Y392249D01*
X12647Y391524D01*
X13373Y391161D01*
X14824D01*
X15549Y391524D01*
X16275Y392249D01*
X16638Y392975D01*
X18778Y397328D02*
X19504Y397691D01*
X20592Y398779D01*
Y391161D01*
X26542Y398779D02*
X25453Y398416D01*
X24728Y397328D01*
X24365Y395514D01*
Y394426D01*
X24728Y392612D01*
X25453Y391524D01*
X26542Y391161D01*
X27267D01*
X28356Y391524D01*
X29081Y392612D01*
X29444Y394426D01*
Y395514D01*
X29081Y397328D01*
X28356Y398416D01*
X27267Y398779D01*
X26542D01*
X255833Y426175D02*
X255470Y426901D01*
X254744Y427626D01*
X254019Y427989D01*
X252568D01*
X251842Y427626D01*
X251117Y426901D01*
X250754Y426175D01*
X250391Y425087D01*
Y423273D01*
X250754Y422185D01*
X251117Y421459D01*
X251842Y420734D01*
X252568Y420371D01*
X254019D01*
X254744Y420734D01*
X255470Y421459D01*
X255833Y422185D01*
X262326Y426901D02*
X261964Y427626D01*
X260875Y427989D01*
X260150D01*
X259061Y427626D01*
X258336Y426538D01*
X257973Y424724D01*
Y422910D01*
X258336Y421459D01*
X259061Y420734D01*
X260150Y420371D01*
X260513D01*
X261601Y420734D01*
X262326Y421459D01*
X262689Y422547D01*
Y422910D01*
X262326Y423999D01*
X261601Y424724D01*
X260513Y425087D01*
X260150D01*
X259061Y424724D01*
X258336Y423999D01*
X257973Y422910D01*
X238761Y429425D02*
X246379D01*
X238761D02*
Y432690D01*
X239124Y433778D01*
X239486Y434141D01*
X240212Y434504D01*
X240938D01*
X241663Y434141D01*
X242026Y433778D01*
X242389Y432690D01*
Y429425D01*
Y431965D02*
X246379Y434504D01*
X240212Y436209D02*
X239849Y436935D01*
X238761Y438023D01*
X246379D01*
X238761Y443610D02*
X239124Y442522D01*
X239849Y442159D01*
X240575D01*
X241300Y442522D01*
X241663Y443247D01*
X242026Y444698D01*
X242389Y445787D01*
X243114Y446512D01*
X243840Y446875D01*
X244928D01*
X245654Y446512D01*
X246016Y446149D01*
X246379Y445061D01*
Y443610D01*
X246016Y442522D01*
X245654Y442159D01*
X244928Y441796D01*
X243840D01*
X243114Y442159D01*
X242389Y442884D01*
X242026Y443973D01*
X241663Y445424D01*
X241300Y446149D01*
X240575Y446512D01*
X239849D01*
X239124Y446149D01*
X238761Y445061D01*
Y443610D01*
X216737Y645159D02*
Y637541D01*
Y645159D02*
X220002D01*
X221090Y644796D01*
X221453Y644434D01*
X221815Y643708D01*
Y642982D01*
X221453Y642257D01*
X221090Y641894D01*
X220002Y641531D01*
X216737D01*
X219276D02*
X221815Y637541D01*
X223883Y643345D02*
Y643708D01*
X224246Y644434D01*
X224609Y644796D01*
X225334Y645159D01*
X226786D01*
X227511Y644796D01*
X227874Y644434D01*
X228237Y643708D01*
Y642982D01*
X227874Y642257D01*
X227148Y641169D01*
X223521Y637541D01*
X228599D01*
X234658Y645159D02*
X231030D01*
X230667Y641894D01*
X231030Y642257D01*
X232118Y642620D01*
X233207D01*
X234295Y642257D01*
X235021Y641531D01*
X235383Y640443D01*
Y639717D01*
X235021Y638629D01*
X234295Y637904D01*
X233207Y637541D01*
X232118D01*
X231030Y637904D01*
X230667Y638266D01*
X230305Y638992D01*
X242137Y645159D02*
Y637541D01*
Y645159D02*
X245402D01*
X246490Y644796D01*
X246853Y644434D01*
X247215Y643708D01*
Y642982D01*
X246853Y642257D01*
X246490Y641894D01*
X245402Y641531D01*
X242137D01*
X244676D02*
X247215Y637541D01*
X249283Y643345D02*
Y643708D01*
X249646Y644434D01*
X250009Y644796D01*
X250734Y645159D01*
X252186D01*
X252911Y644796D01*
X253274Y644434D01*
X253637Y643708D01*
Y642982D01*
X253274Y642257D01*
X252548Y641169D01*
X248921Y637541D01*
X254000D01*
X256430Y645159D02*
X260421D01*
X258244Y642257D01*
X259332D01*
X260058Y641894D01*
X260421Y641531D01*
X260784Y640443D01*
Y639717D01*
X260421Y638629D01*
X259695Y637904D01*
X258607Y637541D01*
X257518D01*
X256430Y637904D01*
X256067Y638266D01*
X255704Y638992D01*
X89737Y284479D02*
Y276861D01*
Y284479D02*
X93002D01*
X94090Y284116D01*
X94453Y283754D01*
X94816Y283028D01*
Y282302D01*
X94453Y281577D01*
X94090Y281214D01*
X93002Y280851D01*
X89737D01*
X92276D02*
X94816Y276861D01*
X97246Y284479D02*
X101237D01*
X99060Y281577D01*
X100148D01*
X100874Y281214D01*
X101237Y280851D01*
X101600Y279763D01*
Y279037D01*
X101237Y277949D01*
X100511Y277224D01*
X99423Y276861D01*
X98334D01*
X97246Y277224D01*
X96883Y277586D01*
X96521Y278312D01*
X103667Y282665D02*
Y283028D01*
X104030Y283754D01*
X104393Y284116D01*
X105118Y284479D01*
X106570D01*
X107295Y284116D01*
X107658Y283754D01*
X108021Y283028D01*
Y282302D01*
X107658Y281577D01*
X106932Y280489D01*
X103305Y276861D01*
X108384D01*
X325957Y284479D02*
Y276861D01*
Y284479D02*
X329222D01*
X330310Y284116D01*
X330673Y283754D01*
X331035Y283028D01*
Y282302D01*
X330673Y281577D01*
X330310Y281214D01*
X329222Y280851D01*
X325957D01*
X328496D02*
X331035Y276861D01*
X336368Y284479D02*
X332741Y279400D01*
X338182D01*
X336368Y284479D02*
Y276861D01*
X341338Y284479D02*
X340250Y284116D01*
X339887Y283391D01*
Y282665D01*
X340250Y281940D01*
X340976Y281577D01*
X342427Y281214D01*
X343515Y280851D01*
X344241Y280126D01*
X344604Y279400D01*
Y278312D01*
X344241Y277586D01*
X343878Y277224D01*
X342790Y276861D01*
X341338D01*
X340250Y277224D01*
X339887Y277586D01*
X339524Y278312D01*
Y279400D01*
X339887Y280126D01*
X340613Y280851D01*
X341701Y281214D01*
X343152Y281577D01*
X343878Y281940D01*
X344241Y282665D01*
Y283391D01*
X343878Y284116D01*
X342790Y284479D01*
X341338D01*
X284699Y289559D02*
Y284118D01*
X285062Y283029D01*
X285787Y282304D01*
X286876Y281941D01*
X287601D01*
X288690Y282304D01*
X289415Y283029D01*
X289778Y284118D01*
Y289559D01*
X296235D02*
X292608D01*
X292245Y286294D01*
X292608Y286657D01*
X293696Y287020D01*
X294784D01*
X295873Y286657D01*
X296598Y285931D01*
X296961Y284843D01*
Y284118D01*
X296598Y283029D01*
X295873Y282304D01*
X294784Y281941D01*
X293696D01*
X292608Y282304D01*
X292245Y282666D01*
X291882Y283392D01*
X182192Y426719D02*
Y421278D01*
X182554Y420189D01*
X183280Y419464D01*
X184368Y419101D01*
X185094D01*
X186182Y419464D01*
X186908Y420189D01*
X187270Y421278D01*
Y426719D01*
X189375Y425268D02*
X190100Y425631D01*
X191189Y426719D01*
Y419101D01*
X95469Y364489D02*
Y359048D01*
X95832Y357959D01*
X96557Y357234D01*
X97646Y356871D01*
X98371D01*
X99460Y357234D01*
X100185Y357959D01*
X100548Y359048D01*
Y364489D01*
X103378D02*
X107368D01*
X105191Y361587D01*
X106280D01*
X107005Y361224D01*
X107368Y360861D01*
X107731Y359773D01*
Y359048D01*
X107368Y357959D01*
X106643Y357234D01*
X105554Y356871D01*
X104466D01*
X103378Y357234D01*
X103015Y357596D01*
X102652Y358322D01*
X177838Y120649D02*
Y115208D01*
X178200Y114119D01*
X178926Y113394D01*
X180014Y113031D01*
X180740D01*
X181828Y113394D01*
X182554Y114119D01*
X182917Y115208D01*
Y120649D01*
X188648D02*
X185021Y115570D01*
X190462D01*
X188648Y120649D02*
Y113031D01*
X226279Y269239D02*
Y263797D01*
X226642Y262709D01*
X227367Y261984D01*
X228456Y261621D01*
X229181D01*
X230270Y261984D01*
X230995Y262709D01*
X231358Y263797D01*
Y269239D01*
X233825Y267425D02*
Y267788D01*
X234188Y268514D01*
X234550Y268876D01*
X235276Y269239D01*
X236727D01*
X237453Y268876D01*
X237815Y268514D01*
X238178Y267788D01*
Y267062D01*
X237815Y266337D01*
X237090Y265249D01*
X233462Y261621D01*
X238541D01*
X285317Y401319D02*
Y393701D01*
Y401319D02*
X288582D01*
X289670Y400956D01*
X290033Y400594D01*
X290396Y399868D01*
Y399142D01*
X290033Y398417D01*
X289670Y398054D01*
X288582Y397691D01*
X285317D01*
X287856D02*
X290396Y393701D01*
X295728Y401319D02*
X292101Y396240D01*
X297542D01*
X295728Y401319D02*
Y393701D01*
X303964Y401319D02*
X300336Y393701D01*
X298885Y401319D02*
X303964D01*
X231921Y220979D02*
Y213361D01*
Y220979D02*
X235186D01*
X236274Y220616D01*
X236637Y220254D01*
X237000Y219528D01*
Y218803D01*
X236637Y218077D01*
X236274Y217714D01*
X235186Y217351D01*
X231921D01*
X234461D02*
X237000Y213361D01*
X238705Y219528D02*
X239431Y219891D01*
X240519Y220979D01*
Y213361D01*
X309447Y401199D02*
Y393581D01*
Y401199D02*
X312712D01*
X313800Y400836D01*
X314163Y400474D01*
X314526Y399748D01*
Y399022D01*
X314163Y398297D01*
X313800Y397934D01*
X312712Y397571D01*
X309447D01*
X311986D02*
X314526Y393581D01*
X319858Y401199D02*
X316231Y396120D01*
X321672D01*
X319858Y401199D02*
Y393581D01*
X327368Y401199D02*
X323740D01*
X323377Y397934D01*
X323740Y398297D01*
X324828Y398660D01*
X325917D01*
X327005Y398297D01*
X327731Y397571D01*
X328093Y396483D01*
Y395757D01*
X327731Y394669D01*
X327005Y393944D01*
X325917Y393581D01*
X324828D01*
X323740Y393944D01*
X323377Y394306D01*
X323014Y395032D01*
X75948Y397509D02*
Y389891D01*
Y397509D02*
X79213D01*
X80301Y397146D01*
X80664Y396784D01*
X81027Y396058D01*
Y395332D01*
X80664Y394607D01*
X80301Y394244D01*
X79213Y393881D01*
X75948D01*
X78487D02*
X81027Y389891D01*
X83095Y395695D02*
Y396058D01*
X83457Y396784D01*
X83820Y397146D01*
X84546Y397509D01*
X85997D01*
X86722Y397146D01*
X87085Y396784D01*
X87448Y396058D01*
Y395332D01*
X87085Y394607D01*
X86360Y393519D01*
X82732Y389891D01*
X87811D01*
X94232Y394970D02*
X93869Y393881D01*
X93144Y393156D01*
X92055Y392793D01*
X91693D01*
X90604Y393156D01*
X89879Y393881D01*
X89516Y394970D01*
Y395332D01*
X89879Y396421D01*
X90604Y397146D01*
X91693Y397509D01*
X92055D01*
X93144Y397146D01*
X93869Y396421D01*
X94232Y394970D01*
Y393156D01*
X93869Y391342D01*
X93144Y390254D01*
X92055Y389891D01*
X91330D01*
X90241Y390254D01*
X89879Y390979D01*
X91441Y92277D02*
X99059D01*
X91441D02*
Y95542D01*
X91804Y96630D01*
X92166Y96993D01*
X92892Y97355D01*
X93617D01*
X94343Y96993D01*
X94706Y96630D01*
X95069Y95542D01*
Y92277D01*
Y94816D02*
X99059Y97355D01*
X93255Y99423D02*
X92892D01*
X92166Y99786D01*
X91804Y100149D01*
X91441Y100874D01*
Y102326D01*
X91804Y103051D01*
X92166Y103414D01*
X92892Y103777D01*
X93617D01*
X94343Y103414D01*
X95431Y102688D01*
X99059Y99061D01*
Y104139D01*
X91441Y110924D02*
X99059Y107296D01*
X91441Y105844D02*
Y110924D01*
X166607Y414019D02*
Y406401D01*
Y414019D02*
X169872D01*
X170961Y413656D01*
X171323Y413294D01*
X171686Y412568D01*
Y411842D01*
X171323Y411117D01*
X170961Y410754D01*
X169872Y410391D01*
X166607D01*
X169147D02*
X171686Y406401D01*
X177019Y414019D02*
X173391Y408940D01*
X178833D01*
X177019Y414019D02*
Y406401D01*
X150207Y538479D02*
Y530861D01*
Y538479D02*
X153472D01*
X154560Y538116D01*
X154923Y537754D01*
X155286Y537028D01*
Y536302D01*
X154923Y535577D01*
X154560Y535214D01*
X153472Y534851D01*
X150207D01*
X152746D02*
X155286Y530861D01*
X156990Y537028D02*
X157716Y537391D01*
X158804Y538479D01*
Y530861D01*
X167293Y535940D02*
X166931Y534851D01*
X166205Y534126D01*
X165117Y533763D01*
X164754D01*
X163666Y534126D01*
X162940Y534851D01*
X162577Y535940D01*
Y536302D01*
X162940Y537391D01*
X163666Y538116D01*
X164754Y538479D01*
X165117D01*
X166205Y538116D01*
X166931Y537391D01*
X167293Y535940D01*
Y534126D01*
X166931Y532312D01*
X166205Y531224D01*
X165117Y530861D01*
X164391D01*
X163303Y531224D01*
X162940Y531949D01*
X205125Y158749D02*
Y151131D01*
Y158749D02*
X208390D01*
X209478Y158386D01*
X209841Y158024D01*
X210204Y157298D01*
Y156573D01*
X209841Y155847D01*
X209478Y155484D01*
X208390Y155121D01*
X205125D01*
X207665D02*
X210204Y151131D01*
X215537Y158749D02*
X211909Y153670D01*
X217351D01*
X215537Y158749D02*
Y151131D01*
X222321Y158749D02*
X218693Y153670D01*
X224135D01*
X222321Y158749D02*
Y151131D01*
X32768Y384809D02*
Y377191D01*
Y384809D02*
X36033D01*
X37121Y384446D01*
X37484Y384084D01*
X37847Y383358D01*
Y382632D01*
X37484Y381907D01*
X37121Y381544D01*
X36033Y381181D01*
X32768D01*
X35307D02*
X37847Y377191D01*
X39915Y382995D02*
Y383358D01*
X40278Y384084D01*
X40640Y384446D01*
X41366Y384809D01*
X42817D01*
X43542Y384446D01*
X43905Y384084D01*
X44268Y383358D01*
Y382632D01*
X43905Y381907D01*
X43180Y380819D01*
X39552Y377191D01*
X44631D01*
X50689Y383721D02*
X50326Y384446D01*
X49238Y384809D01*
X48513D01*
X47424Y384446D01*
X46699Y383358D01*
X46336Y381544D01*
Y379730D01*
X46699Y378279D01*
X47424Y377554D01*
X48513Y377191D01*
X48875D01*
X49964Y377554D01*
X50689Y378279D01*
X51052Y379367D01*
Y379730D01*
X50689Y380819D01*
X49964Y381544D01*
X48875Y381907D01*
X48513D01*
X47424Y381544D01*
X46699Y380819D01*
X46336Y379730D01*
X196851Y10997D02*
X204469D01*
X196851D02*
Y14262D01*
X197214Y15350D01*
X197576Y15713D01*
X198302Y16076D01*
X199028D01*
X199753Y15713D01*
X200116Y15350D01*
X200479Y14262D01*
Y10997D01*
Y13536D02*
X204469Y16076D01*
X196851Y18506D02*
Y22497D01*
X199753Y20320D01*
Y21408D01*
X200116Y22134D01*
X200479Y22497D01*
X201567Y22859D01*
X202292D01*
X203381Y22497D01*
X204106Y21771D01*
X204469Y20683D01*
Y19594D01*
X204106Y18506D01*
X203744Y18143D01*
X203018Y17780D01*
X196851Y29643D02*
X204469Y26016D01*
X196851Y24564D02*
Y29643D01*
X256107Y283209D02*
Y275591D01*
Y283209D02*
X259372D01*
X260460Y282846D01*
X260823Y282484D01*
X261185Y281758D01*
Y281033D01*
X260823Y280307D01*
X260460Y279944D01*
X259372Y279581D01*
X256107D01*
X258646D02*
X261185Y275591D01*
X267244Y283209D02*
X263616D01*
X263253Y279944D01*
X263616Y280307D01*
X264704Y280670D01*
X265793D01*
X266881Y280307D01*
X267607Y279581D01*
X267969Y278493D01*
Y277768D01*
X267607Y276679D01*
X266881Y275954D01*
X265793Y275591D01*
X264704D01*
X263616Y275954D01*
X263253Y276316D01*
X262891Y277042D01*
X271851Y283209D02*
X270763Y282846D01*
X270037Y281758D01*
X269674Y279944D01*
Y278856D01*
X270037Y277042D01*
X270763Y275954D01*
X271851Y275591D01*
X272577D01*
X273665Y275954D01*
X274391Y277042D01*
X274753Y278856D01*
Y279944D01*
X274391Y281758D01*
X273665Y282846D01*
X272577Y283209D01*
X271851D01*
X152401Y10997D02*
X160019D01*
X152401D02*
Y14262D01*
X152764Y15350D01*
X153126Y15713D01*
X153852Y16076D01*
X154578D01*
X155303Y15713D01*
X155666Y15350D01*
X156029Y14262D01*
Y10997D01*
Y13536D02*
X160019Y16076D01*
X152401Y18506D02*
Y22497D01*
X155303Y20320D01*
Y21408D01*
X155666Y22134D01*
X156029Y22497D01*
X157117Y22859D01*
X157843D01*
X158931Y22497D01*
X159656Y21771D01*
X160019Y20683D01*
Y19594D01*
X159656Y18506D01*
X159294Y18143D01*
X158568Y17780D01*
X152401Y26741D02*
X152764Y25653D01*
X153852Y24927D01*
X155666Y24564D01*
X156754D01*
X158568Y24927D01*
X159656Y25653D01*
X160019Y26741D01*
Y27467D01*
X159656Y28555D01*
X158568Y29281D01*
X156754Y29643D01*
X155666D01*
X153852Y29281D01*
X152764Y28555D01*
X152401Y27467D01*
Y26741D01*
X218605Y510539D02*
Y502921D01*
Y510539D02*
X221870D01*
X222959Y510176D01*
X223321Y509814D01*
X223684Y509088D01*
Y508363D01*
X223321Y507637D01*
X222959Y507274D01*
X221870Y506911D01*
X218605D01*
X221145D02*
X223684Y502921D01*
X225389Y509088D02*
X226115Y509451D01*
X227203Y510539D01*
Y502921D01*
X235329Y510539D02*
X231702D01*
X231339Y507274D01*
X231702Y507637D01*
X232790Y508000D01*
X233878D01*
X234967Y507637D01*
X235692Y506911D01*
X236055Y505823D01*
Y505098D01*
X235692Y504009D01*
X234967Y503284D01*
X233878Y502921D01*
X232790D01*
X231702Y503284D01*
X231339Y503646D01*
X230976Y504372D01*
X118947Y422909D02*
Y415291D01*
Y422909D02*
X122212D01*
X123300Y422546D01*
X123663Y422184D01*
X124025Y421458D01*
Y420732D01*
X123663Y420007D01*
X123300Y419644D01*
X122212Y419281D01*
X118947D01*
X121486D02*
X124025Y415291D01*
X126093Y421095D02*
Y421458D01*
X126456Y422184D01*
X126819Y422546D01*
X127544Y422909D01*
X128996D01*
X129721Y422546D01*
X130084Y422184D01*
X130447Y421458D01*
Y420732D01*
X130084Y420007D01*
X129358Y418919D01*
X125731Y415291D01*
X130809D01*
X134691Y422909D02*
X133603Y422546D01*
X132877Y421458D01*
X132514Y419644D01*
Y418556D01*
X132877Y416742D01*
X133603Y415654D01*
X134691Y415291D01*
X135417D01*
X136505Y415654D01*
X137231Y416742D01*
X137593Y418556D01*
Y419644D01*
X137231Y421458D01*
X136505Y422546D01*
X135417Y422909D01*
X134691D01*
X53269Y397509D02*
Y389891D01*
Y397509D02*
X56534D01*
X57622Y397146D01*
X57985Y396784D01*
X58348Y396058D01*
Y395332D01*
X57985Y394607D01*
X57622Y394244D01*
X56534Y393881D01*
X53269D01*
X55809D02*
X58348Y389891D01*
X60779Y397509D02*
X64769D01*
X62593Y394607D01*
X63681D01*
X64406Y394244D01*
X64769Y393881D01*
X65132Y392793D01*
Y392067D01*
X64769Y390979D01*
X64044Y390254D01*
X62955Y389891D01*
X61867D01*
X60779Y390254D01*
X60416Y390616D01*
X60053Y391342D01*
X66837Y396058D02*
X67563Y396421D01*
X68651Y397509D01*
Y389891D01*
X120217Y156209D02*
Y148591D01*
Y156209D02*
X123482D01*
X124570Y155846D01*
X124933Y155484D01*
X125295Y154758D01*
Y154032D01*
X124933Y153307D01*
X124570Y152944D01*
X123482Y152581D01*
X120217D01*
X122756D02*
X125295Y148591D01*
X127363Y154395D02*
Y154758D01*
X127726Y155484D01*
X128089Y155846D01*
X128814Y156209D01*
X130266D01*
X130991Y155846D01*
X131354Y155484D01*
X131717Y154758D01*
Y154032D01*
X131354Y153307D01*
X130628Y152219D01*
X127001Y148591D01*
X132079D01*
X135598Y156209D02*
X134510Y155846D01*
X134147Y155121D01*
Y154395D01*
X134510Y153670D01*
X135236Y153307D01*
X136687Y152944D01*
X137775Y152581D01*
X138501Y151856D01*
X138863Y151130D01*
Y150042D01*
X138501Y149316D01*
X138138Y148954D01*
X137050Y148591D01*
X135598D01*
X134510Y148954D01*
X134147Y149316D01*
X133785Y150042D01*
Y151130D01*
X134147Y151856D01*
X134873Y152581D01*
X135961Y152944D01*
X137412Y153307D01*
X138138Y153670D01*
X138501Y154395D01*
Y155121D01*
X138138Y155846D01*
X137050Y156209D01*
X135598D01*
X8891Y286587D02*
X16509D01*
X8891D02*
Y289852D01*
X9254Y290940D01*
X9616Y291303D01*
X10342Y291665D01*
X11068D01*
X11793Y291303D01*
X12156Y290940D01*
X12519Y289852D01*
Y286587D01*
Y289126D02*
X16509Y291665D01*
X8891Y294096D02*
Y298087D01*
X11793Y295910D01*
Y296998D01*
X12156Y297724D01*
X12519Y298087D01*
X13607Y298449D01*
X14332D01*
X15421Y298087D01*
X16146Y297361D01*
X16509Y296273D01*
Y295184D01*
X16146Y294096D01*
X15784Y293733D01*
X15058Y293371D01*
X8891Y300880D02*
Y304871D01*
X11793Y302694D01*
Y303782D01*
X12156Y304508D01*
X12519Y304871D01*
X13607Y305233D01*
X14332D01*
X15421Y304871D01*
X16146Y304145D01*
X16509Y303057D01*
Y301968D01*
X16146Y300880D01*
X15784Y300517D01*
X15058Y300154D01*
X262457Y374649D02*
Y367031D01*
Y374649D02*
X265722D01*
X266810Y374286D01*
X267173Y373924D01*
X267535Y373198D01*
Y372472D01*
X267173Y371747D01*
X266810Y371384D01*
X265722Y371021D01*
X262457D01*
X264996D02*
X267535Y367031D01*
X272868Y374649D02*
X269241Y369570D01*
X274682D01*
X272868Y374649D02*
Y367031D01*
X278201Y374649D02*
X277113Y374286D01*
X276387Y373198D01*
X276024Y371384D01*
Y370296D01*
X276387Y368482D01*
X277113Y367394D01*
X278201Y367031D01*
X278927D01*
X280015Y367394D01*
X280741Y368482D01*
X281103Y370296D01*
Y371384D01*
X280741Y373198D01*
X280015Y374286D01*
X278927Y374649D01*
X278201D01*
X130811Y10815D02*
X138429D01*
X130811D02*
Y14080D01*
X131174Y15168D01*
X131536Y15531D01*
X132262Y15894D01*
X132987D01*
X133713Y15531D01*
X134076Y15168D01*
X134439Y14080D01*
Y10815D01*
Y13355D02*
X138429Y15894D01*
X132625Y17962D02*
X132262D01*
X131536Y18325D01*
X131174Y18687D01*
X130811Y19413D01*
Y20864D01*
X131174Y21590D01*
X131536Y21953D01*
X132262Y22315D01*
X132987D01*
X133713Y21953D01*
X134801Y21227D01*
X138429Y17599D01*
Y22678D01*
X130811Y28011D02*
X135890Y24383D01*
Y29825D01*
X130811Y28011D02*
X138429D01*
X173991Y11178D02*
X181609D01*
X173991D02*
Y14443D01*
X174354Y15531D01*
X174716Y15894D01*
X175442Y16257D01*
X176168D01*
X176893Y15894D01*
X177256Y15531D01*
X177619Y14443D01*
Y11178D01*
Y13717D02*
X181609Y16257D01*
X173991Y21590D02*
X179070Y17962D01*
Y23404D01*
X173991Y21590D02*
X181609D01*
X175079Y29099D02*
X174354Y28737D01*
X173991Y27648D01*
Y26923D01*
X174354Y25834D01*
X175442Y25109D01*
X177256Y24746D01*
X179070D01*
X180521Y25109D01*
X181246Y25834D01*
X181609Y26923D01*
Y27285D01*
X181246Y28374D01*
X180521Y29099D01*
X179433Y29462D01*
X179070D01*
X177981Y29099D01*
X177256Y28374D01*
X176893Y27285D01*
Y26923D01*
X177256Y25834D01*
X177981Y25109D01*
X179070Y24746D01*
X77635Y220979D02*
Y213361D01*
Y220979D02*
X80900D01*
X81988Y220616D01*
X82351Y220254D01*
X82714Y219528D01*
Y218803D01*
X82351Y218077D01*
X81988Y217714D01*
X80900Y217351D01*
X77635D01*
X80175D02*
X82714Y213361D01*
X84419Y219528D02*
X85145Y219891D01*
X86233Y220979D01*
Y213361D01*
X92183Y220979D02*
X91094Y220616D01*
X90369Y219528D01*
X90006Y217714D01*
Y216626D01*
X90369Y214812D01*
X91094Y213724D01*
X92183Y213361D01*
X92908D01*
X93996Y213724D01*
X94722Y214812D01*
X95085Y216626D01*
Y217714D01*
X94722Y219528D01*
X93996Y220616D01*
X92908Y220979D01*
X92183D01*
X241465Y510539D02*
Y502921D01*
Y510539D02*
X244730D01*
X245819Y510176D01*
X246181Y509814D01*
X246544Y509088D01*
Y508363D01*
X246181Y507637D01*
X245819Y507274D01*
X244730Y506911D01*
X241465D01*
X244005D02*
X246544Y502921D01*
X248249Y509088D02*
X248975Y509451D01*
X250063Y510539D01*
Y502921D01*
X258915Y510539D02*
X255287Y502921D01*
X253836Y510539D02*
X258915D01*
X101601Y448838D02*
X109219D01*
X101601D02*
Y452103D01*
X101964Y453191D01*
X102326Y453554D01*
X103052Y453917D01*
X103778D01*
X104503Y453554D01*
X104866Y453191D01*
X105229Y452103D01*
Y448838D01*
Y451377D02*
X109219Y453917D01*
X103052Y455622D02*
X102689Y456347D01*
X101601Y457435D01*
X109219D01*
X103052Y461208D02*
X102689Y461934D01*
X101601Y463022D01*
X109219D01*
X171869Y624839D02*
Y617221D01*
Y624839D02*
X175134D01*
X176222Y624476D01*
X176585Y624114D01*
X176947Y623388D01*
Y622663D01*
X176585Y621937D01*
X176222Y621574D01*
X175134Y621211D01*
X171869D01*
X174408D02*
X176947Y617221D01*
X183731Y624839D02*
X180104Y617221D01*
X178653Y624839D02*
X183731D01*
X146469Y407669D02*
Y400051D01*
Y407669D02*
X149734D01*
X150822Y407306D01*
X151185Y406944D01*
X151547Y406218D01*
Y405493D01*
X151185Y404767D01*
X150822Y404404D01*
X149734Y404041D01*
X146469D01*
X149008D02*
X151547Y400051D01*
X153615Y405855D02*
Y406218D01*
X153978Y406944D01*
X154341Y407306D01*
X155066Y407669D01*
X156518D01*
X157243Y407306D01*
X157606Y406944D01*
X157969Y406218D01*
Y405493D01*
X157606Y404767D01*
X156880Y403679D01*
X153253Y400051D01*
X158331D01*
X226061Y341614D02*
X233679D01*
X226061D02*
Y344879D01*
X226424Y345967D01*
X226786Y346330D01*
X227512Y346693D01*
X228237D01*
X228963Y346330D01*
X229326Y345967D01*
X229689Y344879D01*
Y341614D01*
Y344153D02*
X233679Y346693D01*
X227512Y348398D02*
X227149Y349123D01*
X226061Y350212D01*
X233679D01*
X226061Y357612D02*
X231140Y353985D01*
Y359426D01*
X226061Y357612D02*
X233679D01*
X74931Y450180D02*
X82549D01*
X74931D02*
Y453445D01*
X75294Y454533D01*
X75656Y454896D01*
X76382Y455259D01*
X77108D01*
X77833Y454896D01*
X78196Y454533D01*
X78559Y453445D01*
Y450180D01*
Y452719D02*
X82549Y455259D01*
X76019Y461317D02*
X75294Y460955D01*
X74931Y459866D01*
Y459141D01*
X75294Y458052D01*
X76382Y457327D01*
X78196Y456964D01*
X80010D01*
X81461Y457327D01*
X82186Y458052D01*
X82549Y459141D01*
Y459503D01*
X82186Y460592D01*
X81461Y461317D01*
X80372Y461680D01*
X80010D01*
X78921Y461317D01*
X78196Y460592D01*
X77833Y459503D01*
Y459141D01*
X78196Y458052D01*
X78921Y457327D01*
X80010Y456964D01*
X148937Y221099D02*
Y213481D01*
Y221099D02*
X152202D01*
X153290Y220736D01*
X153653Y220374D01*
X154016Y219648D01*
Y218923D01*
X153653Y218197D01*
X153290Y217834D01*
X152202Y217471D01*
X148937D01*
X151476D02*
X154016Y213481D01*
X155721Y219648D02*
X156446Y220011D01*
X157534Y221099D01*
Y213481D01*
X165661Y220011D02*
X165298Y220736D01*
X164210Y221099D01*
X163484D01*
X162396Y220736D01*
X161670Y219648D01*
X161307Y217834D01*
Y216020D01*
X161670Y214569D01*
X162396Y213844D01*
X163484Y213481D01*
X163847D01*
X164935Y213844D01*
X165661Y214569D01*
X166024Y215658D01*
Y216020D01*
X165661Y217109D01*
X164935Y217834D01*
X163847Y218197D01*
X163484D01*
X162396Y217834D01*
X161670Y217109D01*
X161307Y216020D01*
X243841Y93909D02*
X251459D01*
X243841D02*
Y97174D01*
X244204Y98262D01*
X244566Y98625D01*
X245292Y98988D01*
X246017D01*
X246743Y98625D01*
X247106Y98262D01*
X247469Y97174D01*
Y93909D01*
Y96448D02*
X251459Y98988D01*
X243841Y104321D02*
X248920Y100693D01*
Y106135D01*
X243841Y104321D02*
X251459D01*
X245292Y107477D02*
X244929Y108203D01*
X243841Y109291D01*
X251459D01*
X213779Y220979D02*
Y213361D01*
Y220979D02*
X217044D01*
X218132Y220616D01*
X218495Y220254D01*
X218857Y219528D01*
Y218803D01*
X218495Y218077D01*
X218132Y217714D01*
X217044Y217351D01*
X213779D01*
X216318D02*
X218857Y213361D01*
X221288Y220979D02*
X225279D01*
X223102Y218077D01*
X224190D01*
X224916Y217714D01*
X225279Y217351D01*
X225641Y216263D01*
Y215537D01*
X225279Y214449D01*
X224553Y213724D01*
X223465Y213361D01*
X222376D01*
X221288Y213724D01*
X220925Y214086D01*
X220563Y214812D01*
X100495Y220979D02*
Y213361D01*
Y220979D02*
X103760D01*
X104848Y220616D01*
X105211Y220254D01*
X105574Y219528D01*
Y218803D01*
X105211Y218077D01*
X104848Y217714D01*
X103760Y217351D01*
X100495D01*
X103035D02*
X105574Y213361D01*
X107279Y219528D02*
X108005Y219891D01*
X109093Y220979D01*
Y213361D01*
X113591Y220979D02*
X117582D01*
X115405Y218077D01*
X116494D01*
X117219Y217714D01*
X117582Y217351D01*
X117945Y216263D01*
Y215537D01*
X117582Y214449D01*
X116856Y213724D01*
X115768Y213361D01*
X114680D01*
X113591Y213724D01*
X113229Y214086D01*
X112866Y214812D01*
X17364Y538479D02*
Y530861D01*
X24402Y536665D02*
X24039Y537391D01*
X23314Y538116D01*
X22588Y538479D01*
X21137D01*
X20411Y538116D01*
X19686Y537391D01*
X19323Y536665D01*
X18960Y535577D01*
Y533763D01*
X19323Y532675D01*
X19686Y531949D01*
X20411Y531224D01*
X21137Y530861D01*
X22588D01*
X23314Y531224D01*
X24039Y531949D01*
X24402Y532675D01*
X26542Y537028D02*
X27268Y537391D01*
X28356Y538479D01*
Y530861D01*
X82931Y650965D02*
X82568Y651691D01*
X81843Y652416D01*
X81117Y652779D01*
X79666D01*
X78941Y652416D01*
X78215Y651691D01*
X77852Y650965D01*
X77490Y649877D01*
Y648063D01*
X77852Y646975D01*
X78215Y646249D01*
X78941Y645524D01*
X79666Y645161D01*
X81117D01*
X81843Y645524D01*
X82568Y646249D01*
X82931Y646975D01*
X89425Y652779D02*
X85797D01*
X85434Y649514D01*
X85797Y649877D01*
X86885Y650240D01*
X87974D01*
X89062Y649877D01*
X89788Y649151D01*
X90150Y648063D01*
Y647337D01*
X89788Y646249D01*
X89062Y645524D01*
X87974Y645161D01*
X86885D01*
X85797Y645524D01*
X85434Y645886D01*
X85072Y646612D01*
X122301Y482055D02*
X121938Y482781D01*
X121213Y483506D01*
X120487Y483869D01*
X119036D01*
X118311Y483506D01*
X117585Y482781D01*
X117222Y482055D01*
X116860Y480967D01*
Y479153D01*
X117222Y478065D01*
X117585Y477339D01*
X118311Y476614D01*
X119036Y476251D01*
X120487D01*
X121213Y476614D01*
X121938Y477339D01*
X122301Y478065D01*
X125167Y483869D02*
X129158D01*
X126981Y480967D01*
X128069D01*
X128795Y480604D01*
X129158Y480241D01*
X129521Y479153D01*
Y478428D01*
X129158Y477339D01*
X128432Y476614D01*
X127344Y476251D01*
X126256D01*
X125167Y476614D01*
X124804Y476976D01*
X124442Y477702D01*
X221525Y52198D02*
X220799Y51835D01*
X220074Y51109D01*
X219711Y50384D01*
Y48933D01*
X220074Y48207D01*
X220799Y47482D01*
X221525Y47119D01*
X222613Y46756D01*
X224427D01*
X225515Y47119D01*
X226241Y47482D01*
X226966Y48207D01*
X227329Y48933D01*
Y50384D01*
X226966Y51109D01*
X226241Y51835D01*
X225515Y52198D01*
X221162Y54338D02*
X220799Y55064D01*
X219711Y56152D01*
X227329D01*
X221525Y60288D02*
X221162D01*
X220436Y60651D01*
X220074Y61013D01*
X219711Y61739D01*
Y63190D01*
X220074Y63916D01*
X220436Y64278D01*
X221162Y64641D01*
X221887D01*
X222613Y64278D01*
X223701Y63553D01*
X227329Y59925D01*
Y65004D01*
X246326Y395695D02*
X245964Y396421D01*
X245238Y397146D01*
X244513Y397509D01*
X243061D01*
X242336Y397146D01*
X241610Y396421D01*
X241248Y395695D01*
X240885Y394607D01*
Y392793D01*
X241248Y391705D01*
X241610Y390979D01*
X242336Y390254D01*
X243061Y389891D01*
X244513D01*
X245238Y390254D01*
X245964Y390979D01*
X246326Y391705D01*
X248467Y396058D02*
X249192Y396421D01*
X250281Y397509D01*
Y389891D01*
X257681Y397509D02*
X254054Y392430D01*
X259495D01*
X257681Y397509D02*
Y389891D01*
X105955Y99550D02*
X105229Y99187D01*
X104504Y98462D01*
X104141Y97736D01*
Y96285D01*
X104504Y95560D01*
X105229Y94834D01*
X105955Y94471D01*
X107043Y94109D01*
X108857D01*
X109945Y94471D01*
X110671Y94834D01*
X111396Y95560D01*
X111759Y96285D01*
Y97736D01*
X111396Y98462D01*
X110671Y99187D01*
X109945Y99550D01*
X105592Y101691D02*
X105229Y102416D01*
X104141Y103505D01*
X111759D01*
X105592Y107277D02*
X105229Y108003D01*
X104141Y109091D01*
X111759D01*
X232955Y97918D02*
X232229Y97555D01*
X231504Y96829D01*
X231141Y96104D01*
Y94653D01*
X231504Y93927D01*
X232229Y93202D01*
X232955Y92839D01*
X234043Y92476D01*
X235857D01*
X236945Y92839D01*
X237671Y93202D01*
X238396Y93927D01*
X238759Y94653D01*
Y96104D01*
X238396Y96829D01*
X237671Y97555D01*
X236945Y97918D01*
X232592Y100058D02*
X232229Y100784D01*
X231141Y101872D01*
X238759D01*
X231141Y109998D02*
Y106370D01*
X234406Y106008D01*
X234043Y106370D01*
X233680Y107459D01*
Y108547D01*
X234043Y109635D01*
X234769Y110361D01*
X235857Y110724D01*
X236583D01*
X237671Y110361D01*
X238396Y109635D01*
X238759Y108547D01*
Y107459D01*
X238396Y106370D01*
X238034Y106008D01*
X237308Y105645D01*
X333285Y83113D02*
X332559Y82750D01*
X331834Y82024D01*
X331471Y81299D01*
Y79848D01*
X331834Y79122D01*
X332559Y78397D01*
X333285Y78034D01*
X334373Y77671D01*
X336187D01*
X337275Y78034D01*
X338001Y78397D01*
X338726Y79122D01*
X339089Y79848D01*
Y81299D01*
X338726Y82024D01*
X338001Y82750D01*
X337275Y83113D01*
X334010Y89969D02*
X335099Y89606D01*
X335824Y88881D01*
X336187Y87793D01*
Y87430D01*
X335824Y86341D01*
X335099Y85616D01*
X334010Y85253D01*
X333647D01*
X332559Y85616D01*
X331834Y86341D01*
X331471Y87430D01*
Y87793D01*
X331834Y88881D01*
X332559Y89606D01*
X334010Y89969D01*
X335824D01*
X337638Y89606D01*
X338726Y88881D01*
X339089Y87793D01*
Y87067D01*
X338726Y85978D01*
X338001Y85616D01*
X113230Y650965D02*
X112867Y651691D01*
X112142Y652416D01*
X111416Y652779D01*
X109965D01*
X109239Y652416D01*
X108514Y651691D01*
X108151Y650965D01*
X107788Y649877D01*
Y648063D01*
X108151Y646975D01*
X108514Y646249D01*
X109239Y645524D01*
X109965Y645161D01*
X111416D01*
X112142Y645524D01*
X112867Y646249D01*
X113230Y646975D01*
X118998Y652779D02*
X115370Y647700D01*
X120812D01*
X118998Y652779D02*
Y645161D01*
X121195Y57531D02*
X120469Y57168D01*
X119744Y56443D01*
X119381Y55717D01*
Y54266D01*
X119744Y53541D01*
X120469Y52815D01*
X121195Y52452D01*
X122283Y52090D01*
X124097D01*
X125185Y52452D01*
X125911Y52815D01*
X126636Y53541D01*
X126999Y54266D01*
Y55717D01*
X126636Y56443D01*
X125911Y57168D01*
X125185Y57531D01*
X119381Y61486D02*
X119744Y60397D01*
X120469Y60034D01*
X121195D01*
X121920Y60397D01*
X122283Y61123D01*
X122646Y62574D01*
X123009Y63662D01*
X123734Y64388D01*
X124460Y64750D01*
X125548D01*
X126274Y64388D01*
X126636Y64025D01*
X126999Y62937D01*
Y61486D01*
X126636Y60397D01*
X126274Y60034D01*
X125548Y59672D01*
X124460D01*
X123734Y60034D01*
X123009Y60760D01*
X122646Y61848D01*
X122283Y63299D01*
X121920Y64025D01*
X121195Y64388D01*
X120469D01*
X119744Y64025D01*
X119381Y62937D01*
Y61486D01*
X101981Y376645D02*
X101618Y377371D01*
X100893Y378096D01*
X100167Y378459D01*
X98716D01*
X97991Y378096D01*
X97265Y377371D01*
X96902Y376645D01*
X96539Y375557D01*
Y373743D01*
X96902Y372655D01*
X97265Y371929D01*
X97991Y371204D01*
X98716Y370841D01*
X100167D01*
X100893Y371204D01*
X101618Y371929D01*
X101981Y372655D01*
X104484Y376645D02*
Y377008D01*
X104847Y377734D01*
X105210Y378096D01*
X105935Y378459D01*
X107387D01*
X108112Y378096D01*
X108475Y377734D01*
X108838Y377008D01*
Y376283D01*
X108475Y375557D01*
X107749Y374469D01*
X104122Y370841D01*
X109200D01*
X203944Y219165D02*
X203581Y219891D01*
X202855Y220616D01*
X202130Y220979D01*
X200679D01*
X199953Y220616D01*
X199228Y219891D01*
X198865Y219165D01*
X198502Y218077D01*
Y216263D01*
X198865Y215175D01*
X199228Y214449D01*
X199953Y213724D01*
X200679Y213361D01*
X202130D01*
X202855Y213724D01*
X203581Y214449D01*
X203944Y215175D01*
X206084Y219528D02*
X206810Y219891D01*
X207898Y220979D01*
Y213361D01*
X89281Y527775D02*
X88918Y528501D01*
X88193Y529226D01*
X87467Y529589D01*
X86016D01*
X85291Y529226D01*
X84565Y528501D01*
X84202Y527775D01*
X83840Y526687D01*
Y524873D01*
X84202Y523785D01*
X84565Y523059D01*
X85291Y522334D01*
X86016Y521971D01*
X87467D01*
X88193Y522334D01*
X88918Y523059D01*
X89281Y523785D01*
X96501Y529589D02*
X92873Y521971D01*
X91422Y529589D02*
X96501D01*
M02*
