G04*
G04 #@! TF.GenerationSoftware,Altium Limited,Altium Designer,23.0.1 (38)*
G04*
G04 Layer_Color=32896*
%FSLAX44Y44*%
%MOMM*%
G71*
G04*
G04 #@! TF.SameCoordinates,4F8D76B3-19B9-4F14-BD17-49225F6037FE*
G04*
G04*
G04 #@! TF.FilePolarity,Positive*
G04*
G01*
G75*
%ADD12C,0.2000*%
%ADD13C,0.2540*%
%ADD58C,0.1000*%
%ADD59C,0.1270*%
G36*
X224223Y596324D02*
X224331Y596216D01*
X224403Y595928D01*
X224331Y595641D01*
X224223Y595533D01*
X224079Y595461D01*
X223827Y595209D01*
X223755Y595065D01*
X223539Y594561D01*
X223251Y594273D01*
X222891Y593625D01*
X222603Y593338D01*
X222172Y592546D01*
X221884Y592258D01*
X221524Y591610D01*
X221236Y591323D01*
X220804Y590531D01*
X220516Y590243D01*
X220157Y589595D01*
X219869Y589308D01*
X219437Y588516D01*
X219329Y588408D01*
X219005Y588012D01*
X218717Y587508D01*
X218645Y587364D01*
X218429Y587149D01*
X218070Y586501D01*
X217782Y586213D01*
X217350Y585421D01*
X216990Y585061D01*
X216630Y584414D01*
X216558Y584270D01*
X216450Y584234D01*
X216342Y584054D01*
X215982Y583406D01*
X215623Y583046D01*
X215263Y582399D01*
X215191Y582255D01*
X215083Y582147D01*
X214759Y581751D01*
X214687Y581463D01*
X214327Y581103D01*
X213895Y580312D01*
X213608Y580024D01*
X213176Y579232D01*
X212960Y579088D01*
X212528Y578297D01*
X212240Y578009D01*
X211808Y577217D01*
X211377Y576785D01*
X211305Y576641D01*
X211017Y576353D01*
X210657Y576282D01*
X209973Y576390D01*
X209829Y576533D01*
X209685Y576605D01*
X209650Y576713D01*
X209541Y576749D01*
X209362Y577001D01*
X209290Y577145D01*
X208966Y577685D01*
X208822Y577757D01*
X208786Y577865D01*
X208606Y578045D01*
X208426Y578512D01*
X208282Y578656D01*
X208210Y578800D01*
X208102Y578836D01*
X207706Y579592D01*
X207347Y579952D01*
X206987Y580600D01*
X206915Y580743D01*
X206699Y580959D01*
X206339Y581607D01*
X205979Y581967D01*
X205619Y582615D01*
X205547Y582758D01*
X205331Y582974D01*
X204972Y583622D01*
X204684Y583910D01*
X204144Y584810D01*
X203784Y585241D01*
X203748Y585277D01*
X203532Y585781D01*
X203172Y586141D01*
X202885Y586645D01*
X202813Y586789D01*
X202597Y587005D01*
X202165Y587796D01*
X201733Y588228D01*
X201661Y588372D01*
X201517Y588732D01*
X201229Y589020D01*
X200798Y589811D01*
X200438Y590171D01*
X200114Y590783D01*
X199790Y591179D01*
X199430Y591826D01*
X199322Y591934D01*
X198998Y592330D01*
X198710Y592834D01*
X198639Y592978D01*
X198423Y593194D01*
X197991Y593985D01*
X197703Y594273D01*
X197343Y594921D01*
X197019Y595245D01*
X196695Y595641D01*
X196623Y596000D01*
X196695Y596216D01*
X197055Y596360D01*
X198459Y596324D01*
X198675Y596396D01*
X199250Y596324D01*
X199430Y596144D01*
X199646Y595784D01*
X199934Y595497D01*
X200366Y594705D01*
X200654Y594417D01*
X201014Y593769D01*
X201121Y593661D01*
X201445Y593266D01*
X201805Y592618D01*
X201877Y592474D01*
X201985Y592438D01*
X202417Y592006D01*
X202669Y591826D01*
X218249Y591862D01*
X218609Y592006D01*
X218933Y592402D01*
X219005Y592546D01*
X219293Y592834D01*
X219653Y593482D01*
X219941Y593769D01*
X220373Y594561D01*
X220660Y594849D01*
X221020Y595497D01*
X221236Y595713D01*
X221308Y595857D01*
X221560Y596108D01*
X222064Y596396D01*
X222999Y596324D01*
X223719Y596396D01*
X224223Y596324D01*
D02*
G37*
G36*
X192557D02*
X192917Y596180D01*
X193061Y595964D01*
X193025Y577361D01*
X193097Y577145D01*
X193025Y576641D01*
X192701Y576390D01*
X191622Y576317D01*
X191118Y576461D01*
X190794Y576785D01*
X190506Y577289D01*
X190362Y577433D01*
X190290Y577577D01*
X190182Y577613D01*
X190075Y577721D01*
X189715Y578369D01*
X189355Y578728D01*
X189067Y579232D01*
X188995Y579376D01*
X188707Y579664D01*
X188419Y580168D01*
X187987Y580600D01*
X187700Y581103D01*
X187628Y581247D01*
X187340Y581535D01*
X186980Y582183D01*
X186620Y582543D01*
X186332Y583046D01*
X185900Y583478D01*
X185613Y583982D01*
X185541Y584126D01*
X185253Y584414D01*
X184893Y585061D01*
X184533Y585421D01*
X184245Y585925D01*
X183885Y586285D01*
X183526Y586933D01*
X183166Y587292D01*
X182806Y587940D01*
X182518Y588156D01*
X182158Y588804D01*
X181978Y588984D01*
X181511Y589667D01*
X181439Y589811D01*
X181079Y590171D01*
X180791Y590675D01*
X180647Y590819D01*
X180575Y590963D01*
X180467Y590999D01*
X180359Y591179D01*
X180287Y591323D01*
X179999Y591754D01*
X179927Y591898D01*
X179783Y592042D01*
X179495Y592546D01*
X179172Y592798D01*
X178956Y592726D01*
X178848Y592618D01*
X178776Y592474D01*
X178632Y592330D01*
X178560Y592186D01*
X178344Y591970D01*
X178056Y591466D01*
X177912Y591323D01*
X177840Y591179D01*
X177624Y590963D01*
X177336Y590459D01*
X176977Y590099D01*
X176689Y589595D01*
X176545Y589451D01*
X176473Y589308D01*
X176329Y589235D01*
X175897Y588444D01*
X175681Y588228D01*
X175321Y587724D01*
X175249Y587580D01*
X174818Y587149D01*
X174530Y586645D01*
X174458Y586501D01*
X174170Y586213D01*
X173882Y585709D01*
X173810Y585565D01*
X173594Y585349D01*
X173234Y584846D01*
X173162Y584702D01*
X172803Y584342D01*
X172443Y583694D01*
X172083Y583334D01*
X172011Y583190D01*
X171687Y582651D01*
X171543Y582579D01*
X171363Y582327D01*
X171075Y581823D01*
X170788Y581535D01*
X170428Y580887D01*
X170068Y580528D01*
X169780Y580024D01*
X169348Y579592D01*
X169060Y579088D01*
X168988Y578944D01*
X168700Y578656D01*
X168341Y578009D01*
X167981Y577649D01*
X167693Y577145D01*
X166937Y576390D01*
X165786Y576317D01*
X165282Y576461D01*
X165174Y576569D01*
X165102Y582543D01*
Y582615D01*
Y595857D01*
X165174Y596144D01*
X165354Y596252D01*
X167441Y596324D01*
X167693Y596072D01*
X167765Y595641D01*
X167693Y595425D01*
X167729Y583946D01*
X167693Y582687D01*
X167765Y582183D01*
X168017Y582003D01*
X168269Y582111D01*
X168700Y582902D01*
X168772Y583046D01*
X168916Y583190D01*
X169204Y583694D01*
X169492Y583982D01*
X169852Y584486D01*
X169924Y584630D01*
X170140Y584846D01*
X170212Y584990D01*
X170356Y585133D01*
X170644Y585637D01*
X170716Y585781D01*
X170931Y585925D01*
X171219Y586429D01*
X171363Y586573D01*
X171435Y586717D01*
X171723Y587005D01*
X172011Y587508D01*
X172083Y587652D01*
X172371Y587940D01*
X172659Y588444D01*
X173090Y588876D01*
X173378Y589380D01*
X173450Y589523D01*
X173738Y589811D01*
X174098Y590459D01*
X174458Y590819D01*
X174746Y591323D01*
X175105Y591682D01*
X175465Y592330D01*
X175825Y592690D01*
X176185Y593338D01*
X176545Y593698D01*
X176833Y594201D01*
X177192Y594561D01*
X177552Y595209D01*
X177768Y595425D01*
X178128Y595928D01*
X178200Y596072D01*
X178380Y596252D01*
X179531Y596324D01*
X179927Y596144D01*
X180287Y595497D01*
X180647Y595137D01*
X181007Y594489D01*
X181367Y594129D01*
X181654Y593625D01*
X182014Y593266D01*
X182374Y592618D01*
X182626Y592366D01*
X183094Y591682D01*
X183166Y591539D01*
X183382Y591395D01*
X183741Y590747D01*
X184101Y590387D01*
X184389Y589883D01*
X184461Y589739D01*
X184821Y589380D01*
X185109Y588876D01*
X185469Y588516D01*
X185541Y588372D01*
X185900Y587796D01*
X185972Y587652D01*
X186188Y587436D01*
X186476Y586933D01*
X186800Y586609D01*
X187268Y585925D01*
X187340Y585781D01*
X187448Y585745D01*
X187484Y585637D01*
X187628Y585493D01*
X187915Y584990D01*
X187987Y584846D01*
X188203Y584630D01*
X188563Y584126D01*
X188635Y583982D01*
X188815Y583802D01*
X189139Y583406D01*
X189211Y583262D01*
X189715Y582543D01*
X189859Y582183D01*
X190039Y582003D01*
X190326Y581931D01*
X190434Y582039D01*
X190542Y582291D01*
X190506Y595857D01*
X190578Y596144D01*
X190686Y596252D01*
X190938Y596360D01*
X192557Y596324D01*
D02*
G37*
G36*
X215947Y563795D02*
X216054Y563687D01*
X216126Y563112D01*
X216054Y562608D01*
X216126Y562392D01*
X216091Y527884D01*
X216126Y527344D01*
X216054Y526624D01*
X215803Y526373D01*
X212060Y526301D01*
X211772Y526373D01*
X211557Y526445D01*
X211413Y526517D01*
X211233Y526768D01*
X211161Y526912D01*
X210801Y527272D01*
X210513Y527776D01*
X210153Y528136D01*
X209793Y528783D01*
X209685Y528891D01*
X209362Y529287D01*
X209074Y529791D01*
X208714Y530151D01*
X208426Y530655D01*
X208282Y530799D01*
X208210Y530942D01*
X208102Y530979D01*
X207994Y531158D01*
X207706Y531662D01*
X207634Y531806D01*
X207418Y532022D01*
X207059Y532526D01*
X206987Y532670D01*
X206627Y533030D01*
X206267Y533677D01*
X205907Y534037D01*
X205835Y534181D01*
X205511Y534721D01*
X205368Y534793D01*
X204972Y535405D01*
X204900Y535548D01*
X204540Y535908D01*
X204252Y536412D01*
X204180Y536556D01*
X203892Y536844D01*
X203604Y537348D01*
X203172Y537779D01*
X202885Y538283D01*
X202813Y538427D01*
X202525Y538715D01*
X202165Y539363D01*
X201805Y539723D01*
X201517Y540226D01*
X201157Y540586D01*
X200798Y541234D01*
X200438Y541594D01*
X200078Y542241D01*
X199718Y542601D01*
X199430Y543105D01*
X199142Y543393D01*
X198926Y543753D01*
X198639Y544184D01*
X198567Y544328D01*
X198459Y544364D01*
X198063Y544976D01*
X197991Y545120D01*
X197703Y545408D01*
X197415Y545912D01*
X197199Y546128D01*
X197127Y546271D01*
X196983Y546415D01*
X196695Y546919D01*
X196264Y547351D01*
X195976Y547855D01*
X195904Y547999D01*
X195544Y548358D01*
X195256Y548862D01*
X195184Y549006D01*
X194896Y549294D01*
X194608Y549798D01*
X194177Y550230D01*
X193889Y550733D01*
X193817Y550877D01*
X193529Y551165D01*
X193169Y551813D01*
X192809Y552173D01*
X192521Y552677D01*
X192162Y553036D01*
X191802Y553684D01*
X191442Y554044D01*
X191082Y554692D01*
X190974Y554799D01*
X190650Y555195D01*
X190578Y555339D01*
X190398Y555519D01*
X190003Y555483D01*
X189643Y554979D01*
X189571Y554836D01*
X189355Y554620D01*
X189283Y554476D01*
X188995Y554044D01*
X188923Y553900D01*
X188815Y553864D01*
X188707Y553684D01*
X188419Y553180D01*
X187987Y552748D01*
X187700Y552245D01*
X187520Y551993D01*
X187376Y551921D01*
X187268Y551741D01*
X186980Y551237D01*
X186908Y551093D01*
X186620Y550805D01*
X186332Y550302D01*
X185900Y549870D01*
X185613Y549366D01*
X185541Y549222D01*
X185253Y548934D01*
X184893Y548287D01*
X184533Y547927D01*
X184245Y547423D01*
X183813Y546991D01*
X183526Y546487D01*
X183454Y546343D01*
X183094Y545984D01*
X183022Y545840D01*
X182698Y545300D01*
X182554Y545228D01*
X182158Y544616D01*
X182086Y544472D01*
X181798Y544184D01*
X181439Y543537D01*
X181079Y543177D01*
X180791Y542673D01*
X180431Y542313D01*
X180071Y541666D01*
X179711Y541306D01*
X179424Y540802D01*
X179352Y540658D01*
X179136Y540442D01*
X178776Y539938D01*
X178704Y539794D01*
X178344Y539435D01*
X177984Y538787D01*
X177624Y538427D01*
X177336Y537923D01*
X177264Y537779D01*
X177049Y537564D01*
X176689Y537060D01*
X176617Y536916D01*
X176329Y536628D01*
X175969Y535980D01*
X175609Y535620D01*
X175321Y535117D01*
X175070Y534865D01*
X174602Y534181D01*
X174530Y534037D01*
X174242Y533749D01*
X173882Y533102D01*
X173522Y532742D01*
X173234Y532238D01*
X173054Y532058D01*
X172731Y531662D01*
X172443Y531158D01*
X172371Y531015D01*
X172083Y530727D01*
X171795Y530223D01*
X171435Y529863D01*
X171147Y529359D01*
X170859Y529071D01*
X170788Y528927D01*
X170644Y528783D01*
X170572Y528640D01*
X170248Y528100D01*
X170104Y528028D01*
X169708Y527416D01*
X169636Y527272D01*
X169276Y526912D01*
X169204Y526768D01*
X168808Y526373D01*
X164850Y526301D01*
X164562Y526373D01*
X164526Y526481D01*
X164382Y526624D01*
Y526697D01*
X164310Y563400D01*
X164382Y563687D01*
X164490Y563795D01*
X169672Y563867D01*
X170176Y563795D01*
X170428Y563543D01*
X170392Y562716D01*
X170428Y541953D01*
X170356Y539723D01*
X170536Y539255D01*
X170679Y539183D01*
X171003Y539291D01*
X171435Y540082D01*
X171543Y540190D01*
X172011Y540874D01*
X172083Y541018D01*
X172191Y541054D01*
X172299Y541162D01*
X172659Y541810D01*
X173018Y542169D01*
X173378Y542817D01*
X173738Y543177D01*
X174026Y543681D01*
X174206Y543861D01*
X174530Y544256D01*
X174818Y544760D01*
X174890Y544904D01*
X174998Y544940D01*
X175177Y545192D01*
X175465Y545696D01*
X175897Y546128D01*
X176185Y546631D01*
X176257Y546775D01*
X176545Y547063D01*
X176833Y547567D01*
X176905Y547711D01*
X177120Y547927D01*
X177480Y548430D01*
X177552Y548574D01*
X177912Y548934D01*
X178200Y549438D01*
X178272Y549582D01*
X178632Y549942D01*
X178920Y550446D01*
X178992Y550589D01*
X179208Y550805D01*
X179567Y551309D01*
X179639Y551453D01*
X179927Y551741D01*
X180287Y552389D01*
X180647Y552748D01*
X180935Y553252D01*
X181295Y553612D01*
X181654Y554260D01*
X182014Y554620D01*
X182374Y555267D01*
X182734Y555627D01*
X183022Y556131D01*
X183382Y556491D01*
X183741Y557138D01*
X183921Y557318D01*
X184389Y558002D01*
X184461Y558146D01*
X184713Y558398D01*
X185181Y559081D01*
X185253Y559225D01*
X185361Y559261D01*
X185541Y559513D01*
X185828Y560017D01*
X185900Y560161D01*
X186188Y560449D01*
X186476Y560953D01*
X186908Y561384D01*
X187196Y561888D01*
X187268Y562032D01*
X187556Y562320D01*
X187844Y562824D01*
X187987Y562968D01*
X188060Y563112D01*
X188167Y563148D01*
X188203Y563256D01*
X188347Y563400D01*
X188419Y563543D01*
X188671Y563795D01*
X191478Y563867D01*
X191766Y563795D01*
X192018Y563471D01*
X192090Y563327D01*
X192449Y562968D01*
X192737Y562464D01*
X192845Y562356D01*
X193169Y561960D01*
X193457Y561456D01*
X193529Y561312D01*
X193709Y561204D01*
X194213Y560413D01*
X194357Y560341D01*
X194536Y560089D01*
X194824Y559585D01*
X194896Y559441D01*
X195184Y559154D01*
X195472Y558650D01*
X195904Y558218D01*
X196192Y557714D01*
X196264Y557570D01*
X196552Y557282D01*
X196911Y556635D01*
X197271Y556275D01*
X197559Y555771D01*
X197919Y555411D01*
X198279Y554763D01*
X198639Y554404D01*
X198926Y553900D01*
X198998Y553756D01*
X199358Y553396D01*
X199646Y552892D01*
X199934Y552604D01*
X200294Y551957D01*
X200546Y551705D01*
X201014Y551021D01*
X201085Y550877D01*
X201301Y550661D01*
X201661Y550158D01*
X201733Y550014D01*
X202021Y549726D01*
X202381Y549078D01*
X202633Y548826D01*
X203100Y548143D01*
X203172Y547999D01*
X203532Y547639D01*
X203820Y547135D01*
X203892Y546991D01*
X204180Y546703D01*
X204468Y546199D01*
X204720Y545948D01*
X205187Y545264D01*
X205259Y545120D01*
X205547Y544832D01*
X205907Y544184D01*
X206123Y543969D01*
X206483Y543465D01*
X206555Y543321D01*
X206915Y542961D01*
X207275Y542313D01*
X207562Y542025D01*
X207922Y541378D01*
X208282Y541018D01*
X208642Y540514D01*
X208714Y540370D01*
X208858Y540226D01*
X209290Y539435D01*
X209613Y539183D01*
X209901Y539255D01*
X209973Y539399D01*
X210045Y539687D01*
X210009Y563400D01*
X210081Y563687D01*
X210261Y563795D01*
X215659Y563867D01*
X215947Y563795D01*
D02*
G37*
G36*
X88818Y627162D02*
X89105Y627090D01*
X90653Y626838D01*
X91156Y626622D01*
X91300Y626550D01*
X91588Y626262D01*
X92092Y625975D01*
X92416Y625579D01*
X92488Y625435D01*
X92848Y625075D01*
X93099Y624679D01*
X93207Y624283D01*
X93279Y623995D01*
X93423Y623636D01*
X93603Y623240D01*
X93711Y622556D01*
X93639Y622340D01*
X93675Y611077D01*
X93639Y609890D01*
X93783Y609530D01*
X93855Y609386D01*
X94035Y609206D01*
X94539Y608918D01*
X95978Y608774D01*
X96482Y608703D01*
X97130Y608415D01*
X97381Y608235D01*
X97669Y608163D01*
X98677Y608091D01*
X99145Y607983D01*
X99432Y607695D01*
X99577Y607623D01*
X99684Y607515D01*
X100224Y607407D01*
X100944Y607335D01*
X101304Y607191D01*
X101448Y607119D01*
X101592Y606975D01*
X101951Y606759D01*
X102383Y606688D01*
X102887Y606615D01*
X103247Y606472D01*
X103391Y606400D01*
X103607Y606184D01*
X103858Y606076D01*
X104146Y606004D01*
X104506Y605932D01*
X104902Y605824D01*
X105046Y605680D01*
X105694Y605320D01*
X105982Y605248D01*
X106485Y605104D01*
X106629Y604960D01*
X106773Y604888D01*
X106881Y604780D01*
X107349Y604600D01*
X107637Y604529D01*
X108176Y604133D01*
X108644Y603953D01*
X109004Y603809D01*
X109292Y603521D01*
X109652Y603305D01*
X110156Y603161D01*
X110587Y602729D01*
X110947Y602585D01*
X111451Y602441D01*
X111703Y602189D01*
X112099Y601866D01*
X112387Y601794D01*
X112746Y601434D01*
X113106Y601218D01*
X113610Y601074D01*
X113718Y600966D01*
X113790Y600822D01*
X113970Y600642D01*
X114618Y600282D01*
X114761Y600210D01*
X114977Y599995D01*
X115481Y599707D01*
X115841Y599347D01*
X116345Y599059D01*
X116489Y598915D01*
X117136Y598411D01*
X117280Y598339D01*
X117460Y598159D01*
X117532Y598016D01*
X117784Y597836D01*
X117928Y597764D01*
X118144Y597548D01*
X118792Y597044D01*
X118935Y596972D01*
X119295Y596612D01*
X119799Y596324D01*
X120051Y596000D01*
X120123Y595857D01*
X120231Y595748D01*
X120375Y595677D01*
X120771Y595281D01*
X120843Y595137D01*
X121166Y594957D01*
X121490Y594633D01*
X121562Y594489D01*
X121670Y594381D01*
X121814Y594309D01*
X122858Y593266D01*
X122930Y593122D01*
X123253Y592870D01*
X123577Y592474D01*
X123649Y592330D01*
X123757Y592222D01*
X124009Y592042D01*
X124081Y591898D01*
X124477Y591502D01*
X124621Y591431D01*
X124873Y591107D01*
X124945Y590963D01*
X125377Y590531D01*
X125736Y589883D01*
X126096Y589523D01*
X126312Y589164D01*
X126816Y588660D01*
X127032Y588300D01*
X127356Y587976D01*
X127500Y587904D01*
X127895Y587149D01*
X128183Y586861D01*
X128471Y586357D01*
X128831Y585997D01*
X129191Y585349D01*
X129263Y585205D01*
X129479Y584990D01*
X129910Y584198D01*
X129982Y584054D01*
X130198Y583838D01*
X130630Y583046D01*
X130954Y582723D01*
X131134Y582255D01*
X131278Y581895D01*
X131566Y581607D01*
X131782Y581247D01*
X131925Y580672D01*
X132105Y580492D01*
X132249Y580420D01*
X132429Y580168D01*
X132501Y579880D01*
X132573Y579376D01*
X132825Y579124D01*
X132969Y579052D01*
X133149Y578872D01*
X133221Y578081D01*
X133293Y577865D01*
X133365Y577721D01*
X133473Y577685D01*
X133653Y577505D01*
X133869Y577145D01*
X133940Y576857D01*
X134012Y576353D01*
X134372Y575850D01*
X134588Y575490D01*
X134660Y574842D01*
X134840Y574374D01*
X135128Y573943D01*
X135272Y573583D01*
X135380Y572899D01*
X135560Y572431D01*
X135920Y571856D01*
X136028Y571172D01*
X136100Y570884D01*
X136279Y570416D01*
X136495Y569841D01*
X136567Y569553D01*
X136675Y569013D01*
X136891Y568293D01*
X137071Y567826D01*
X137143Y567538D01*
X137287Y566746D01*
X137359Y566170D01*
X137431Y565810D01*
X137503Y565522D01*
X137575Y565091D01*
X137647Y564803D01*
X137863Y564227D01*
X137935Y563867D01*
X138043Y562536D01*
X138115Y561384D01*
X138223Y561061D01*
X138366Y560701D01*
X138474Y559945D01*
X138618Y559585D01*
X138690Y554836D01*
X138762Y554620D01*
X138690Y551813D01*
X138618Y548287D01*
X138294Y547531D01*
X138223Y547171D01*
X138079Y546020D01*
X137971Y544328D01*
X137899Y543825D01*
X137827Y543537D01*
X137719Y543141D01*
X137503Y542565D01*
X137323Y541450D01*
X137179Y540586D01*
X136783Y539327D01*
X136711Y539039D01*
X136603Y538571D01*
X136459Y537995D01*
X136100Y537204D01*
X136028Y536628D01*
X135884Y536052D01*
X135740Y535692D01*
X135380Y535117D01*
X135308Y534613D01*
X135380Y534325D01*
X135848Y534073D01*
X136279Y533785D01*
X136675Y533533D01*
X137143Y533353D01*
X137431Y533066D01*
X137791Y532850D01*
X138294Y532634D01*
X138439Y532490D01*
X139086Y532130D01*
X139446Y531986D01*
X139590Y531914D01*
X139806Y531698D01*
X140166Y531482D01*
X140669Y531338D01*
X140849Y531087D01*
X140921Y530942D01*
X141389Y530691D01*
X141893Y530619D01*
X142253Y530259D01*
X142505Y530079D01*
X142900Y529971D01*
X143188Y529899D01*
X143548Y529539D01*
X144052Y529251D01*
X144412Y529107D01*
X144556Y529035D01*
X144700Y528891D01*
X145203Y528604D01*
X145563Y528460D01*
X145779Y528244D01*
X146283Y527956D01*
X146787Y527740D01*
X146931Y527596D01*
X147902Y527056D01*
X148298Y526732D01*
X148442Y526660D01*
X148802Y526517D01*
X149053Y526265D01*
X149125Y526121D01*
X149377Y525869D01*
X149521Y525797D01*
X149701Y525545D01*
X149845Y525185D01*
X150349Y524465D01*
X150421Y523890D01*
X150493Y523674D01*
X150421Y521803D01*
X150277Y521299D01*
X150061Y521083D01*
X149881Y520831D01*
X149773Y520435D01*
X149234Y519680D01*
X149053Y519212D01*
X148910Y518852D01*
X148694Y518636D01*
X148478Y518276D01*
X148262Y517773D01*
X148082Y517593D01*
X147938Y517521D01*
X147794Y517377D01*
X147362Y517305D01*
X146571Y517665D01*
X146427Y517737D01*
X146319Y517845D01*
X146247Y517989D01*
X145887Y518204D01*
X145275Y518312D01*
X145023Y518564D01*
X144951Y518708D01*
X144592Y518924D01*
X144052Y519032D01*
X143692Y519392D01*
X143188Y519680D01*
X142828Y519824D01*
X142612Y520040D01*
X142577Y520076D01*
X142469Y520112D01*
X142325Y520256D01*
X142037Y520327D01*
X141677Y520471D01*
X141533Y520543D01*
X141209Y520867D01*
X140741Y521047D01*
X140382Y521191D01*
X140166Y521407D01*
X139914Y521587D01*
X139230Y521839D01*
X139122Y521947D01*
X138726Y522271D01*
X138582Y522342D01*
X138079Y522558D01*
X137935Y522630D01*
X137791Y522774D01*
X137539Y522954D01*
X136855Y523206D01*
X136387Y523674D01*
X135992Y523782D01*
X135632Y523926D01*
X135524Y524034D01*
X135128Y524358D01*
X134768Y524501D01*
X134372Y524681D01*
X133976Y525005D01*
X133257Y525293D01*
X133113Y525365D01*
X132789Y525689D01*
X132429Y525833D01*
X132033Y525941D01*
X131782Y526193D01*
X131710Y526337D01*
X131602Y526373D01*
X131494Y526481D01*
X131206Y526553D01*
X130810Y526660D01*
X130630Y526840D01*
X130234Y527164D01*
X129515Y527452D01*
X129371Y527524D01*
X129227Y527668D01*
X128723Y527956D01*
X128363Y528100D01*
X128183Y528280D01*
X127607Y528640D01*
X127212Y528748D01*
X126996Y528964D01*
X126348Y529323D01*
X125988Y529467D01*
X125772Y529683D01*
X125520Y529863D01*
X125053Y530043D01*
X124693Y530187D01*
X124405Y530475D01*
X123685Y530763D01*
X123541Y530835D01*
X123433Y530942D01*
X123362Y531087D01*
X122930Y531518D01*
X122858Y572899D01*
X122714Y574123D01*
X122786Y574338D01*
X122714Y574914D01*
X122390Y575670D01*
X122210Y576426D01*
X122138Y576929D01*
X121886Y577397D01*
X121562Y577793D01*
X121490Y578081D01*
X121346Y578441D01*
X121059Y578728D01*
X120986Y578872D01*
X120879Y578980D01*
X120771Y579376D01*
X120627Y579520D01*
X120231Y579844D01*
X120087Y579916D01*
X119979Y580024D01*
X119907Y580168D01*
X119655Y580348D01*
X119511Y580420D01*
X118935Y580995D01*
X118792Y581067D01*
X118432Y581211D01*
X117928Y581571D01*
X117568Y581787D01*
X117064Y582003D01*
X116920Y582147D01*
X116417Y582435D01*
X116129Y582507D01*
X115625Y582723D01*
X115481Y582867D01*
X114977Y583154D01*
X114690Y583226D01*
X114330Y583370D01*
X114186Y583442D01*
X113898Y583730D01*
X113646Y583838D01*
X113178Y583946D01*
X112890Y584018D01*
X112458Y584450D01*
X112207Y584558D01*
X111739Y584666D01*
X111379Y584810D01*
X110983Y585205D01*
X110587Y585313D01*
X110084Y585457D01*
X109940Y585601D01*
X109436Y585961D01*
X109004Y586033D01*
X108644Y586177D01*
X108320Y586501D01*
X107421Y586825D01*
X107277Y586969D01*
X107133Y587041D01*
X107025Y587149D01*
X106125Y587472D01*
X106018Y587580D01*
X105586Y587868D01*
X105226Y588012D01*
X104830Y588120D01*
X104686Y588264D01*
X104542Y588336D01*
X104362Y588516D01*
X103895Y588696D01*
X103391Y588840D01*
X102779Y589308D01*
X102383Y589416D01*
X102095Y589487D01*
X101771Y589667D01*
X101340Y590027D01*
X100944Y590135D01*
X100440Y590279D01*
X100260Y590459D01*
X99864Y590783D01*
X99432Y590855D01*
X99073Y590999D01*
X98929Y591071D01*
X98893Y591179D01*
X98461Y591466D01*
X97993Y591575D01*
X97633Y591718D01*
X97417Y591934D01*
X97166Y592114D01*
X96770Y592222D01*
X96266Y592438D01*
X96014Y592690D01*
X95546Y592870D01*
X95043Y593086D01*
X94899Y593158D01*
X94719Y593338D01*
X94251Y593518D01*
X93747Y593733D01*
X93603Y593805D01*
X93387Y594021D01*
X93135Y594129D01*
X92740Y594237D01*
X92344Y594417D01*
X91948Y594741D01*
X91588Y594885D01*
X91084Y595029D01*
X90365Y595533D01*
X89789Y595677D01*
X89429Y595821D01*
X89069Y596180D01*
X88818Y596288D01*
X88422Y596396D01*
X88062Y596540D01*
X87918Y596612D01*
X87882Y596720D01*
X87774Y596756D01*
X87630Y596900D01*
X87270Y597044D01*
X86658Y597224D01*
X86227Y597584D01*
X85327Y597907D01*
X85147Y598087D01*
X84895Y598483D01*
X84823Y598771D01*
X84859Y625651D01*
X84787Y625867D01*
X84859Y626442D01*
X84931Y626946D01*
X85183Y627198D01*
X88818Y627162D01*
D02*
G37*
G36*
X80217Y627054D02*
X80541Y626658D01*
X80613Y599023D01*
X80541Y598519D01*
X80182Y598159D01*
X79786Y597836D01*
X79498Y597764D01*
X78994Y597548D01*
X78850Y597476D01*
X78598Y597224D01*
X78130Y597044D01*
X77555Y596900D01*
X77375Y596720D01*
X77303Y596576D01*
X77051Y596396D01*
X76547Y596324D01*
X76079Y596144D01*
X76007Y596000D01*
X75719Y595713D01*
X75324Y595605D01*
X74820Y595533D01*
X74316Y595029D01*
X73668Y594885D01*
X73381Y594813D01*
X73093Y594525D01*
X72841Y594345D01*
X72445Y594237D01*
X71977Y594057D01*
X71581Y593733D01*
X71006Y593518D01*
X70646Y593374D01*
X70502Y593230D01*
X70358Y593158D01*
X70250Y593050D01*
X69782Y592870D01*
X69278Y592654D01*
X69135Y592582D01*
X68955Y592402D01*
X68595Y592258D01*
X68199Y592150D01*
X67767Y591862D01*
X67371Y591610D01*
X66976Y591502D01*
X66472Y591287D01*
X66256Y591071D01*
X66004Y590891D01*
X65464Y590783D01*
X65068Y590603D01*
X64889Y590351D01*
X64745Y590279D01*
X64601Y590135D01*
X64025Y590063D01*
X63665Y589919D01*
X63629Y589811D01*
X63305Y589487D01*
X62874Y589416D01*
X62586Y589343D01*
X62370Y589272D01*
X62226Y589200D01*
X62190Y589092D01*
X62082Y588984D01*
X61830Y588804D01*
X61434Y588696D01*
X60930Y588552D01*
X60571Y588192D01*
X60319Y588084D01*
X59923Y587976D01*
X59527Y587796D01*
X59131Y587472D01*
X58987Y587400D01*
X58484Y587257D01*
X57692Y586753D01*
X57404Y586681D01*
X57044Y586537D01*
X56540Y586177D01*
X55965Y585961D01*
X55605Y585817D01*
X55461Y585673D01*
X55317Y585601D01*
X55209Y585493D01*
X54525Y585241D01*
X54237Y585169D01*
X54130Y585061D01*
X53734Y584738D01*
X53482Y584630D01*
X52870Y584522D01*
X52294Y583946D01*
X51791Y583874D01*
X51287Y583730D01*
X51107Y583550D01*
X51035Y583406D01*
X50927Y583370D01*
X50783Y583226D01*
X50279Y583154D01*
X49920Y583010D01*
X49704Y582794D01*
X49200Y582507D01*
X48624Y582363D01*
X48408Y582147D01*
X48264Y582075D01*
X48156Y581967D01*
X47688Y581787D01*
X47329Y581643D01*
X47113Y581427D01*
X46465Y581067D01*
X46213Y580815D01*
X45817Y580492D01*
X45673Y580420D01*
X44846Y579592D01*
X44774Y579448D01*
X44522Y579196D01*
X44270Y579016D01*
X44054Y578656D01*
X43910Y578297D01*
X43514Y577757D01*
X43334Y577289D01*
X43263Y577001D01*
X42867Y576030D01*
X42795Y575742D01*
X42723Y575382D01*
X42651Y574590D01*
X42579Y573583D01*
X42507Y532778D01*
X42543Y531734D01*
X42039Y531230D01*
X41967Y531087D01*
X41679Y530799D01*
X41391Y530727D01*
X40924Y530619D01*
X40384Y530079D01*
X39844Y529971D01*
X39556Y529899D01*
X39448Y529791D01*
X39376Y529647D01*
X39232Y529503D01*
X39196Y529467D01*
X39125Y529395D01*
X38765Y529251D01*
X38261Y529107D01*
X38045Y528891D01*
X37253Y528460D01*
X37109Y528388D01*
X36965Y528244D01*
X36462Y527956D01*
X35958Y527740D01*
X35634Y527416D01*
X35166Y527236D01*
X34806Y527092D01*
X34662Y527020D01*
X34519Y526876D01*
X34267Y526697D01*
X33799Y526517D01*
X33619Y526337D01*
X33223Y526013D01*
X32576Y525869D01*
X32144Y525437D01*
X31784Y525221D01*
X31208Y525077D01*
X30848Y524717D01*
X30489Y524501D01*
X29913Y524358D01*
X29625Y524070D01*
X29373Y523890D01*
X28905Y523710D01*
X28617Y523638D01*
X28114Y523134D01*
X27826Y523062D01*
X27322Y522846D01*
X27178Y522702D01*
X26674Y522415D01*
X26314Y522271D01*
X26098Y522055D01*
X25955Y521983D01*
X25847Y521875D01*
X25379Y521695D01*
X25019Y521551D01*
X24803Y521335D01*
X24011Y520903D01*
X23867Y520831D01*
X23616Y520579D01*
X22716Y520256D01*
X22536Y520076D01*
X22464Y519932D01*
X22284Y519824D01*
X22032Y519716D01*
X21565Y519608D01*
X21313Y519356D01*
X21241Y519212D01*
X21061Y519032D01*
X20629Y518960D01*
X20125Y518816D01*
X20017Y518708D01*
X19945Y518564D01*
X19765Y518384D01*
X19514Y518276D01*
X18974Y518168D01*
X18722Y517917D01*
X18326Y517593D01*
X18182Y517521D01*
X18038Y517377D01*
X17894Y517305D01*
X17750Y517161D01*
X17535Y517089D01*
X17247Y517161D01*
X16995Y517701D01*
X16779Y517917D01*
X16707Y518060D01*
X16599Y518168D01*
X16347Y518852D01*
X16167Y519032D01*
X15843Y519428D01*
X15699Y520076D01*
X15519Y520256D01*
X15160Y520687D01*
X15052Y521083D01*
X14908Y521659D01*
X14620Y522091D01*
X14476Y522450D01*
X14404Y522666D01*
X14440Y522918D01*
X14512Y523278D01*
X14584Y524214D01*
X14944Y524646D01*
X15124Y525113D01*
X15196Y525401D01*
X15447Y525653D01*
X15771Y526049D01*
X15843Y526193D01*
X15951Y526301D01*
X16743Y526732D01*
X16959Y526948D01*
X17606Y527308D01*
X17966Y527452D01*
X18182Y527668D01*
X18686Y527956D01*
X19046Y528100D01*
X19262Y528316D01*
X19406Y528388D01*
X19514Y528496D01*
X19981Y528676D01*
X20341Y528820D01*
X20557Y529035D01*
X21061Y529323D01*
X21421Y529467D01*
X21529Y529575D01*
X21924Y529899D01*
X22212Y529971D01*
X22572Y530115D01*
X22860Y530403D01*
X23112Y530583D01*
X23508Y530691D01*
X23796Y530763D01*
X24048Y531015D01*
X24119Y531158D01*
X24299Y531338D01*
X24659Y531410D01*
X25163Y531554D01*
X25271Y531662D01*
X25343Y531806D01*
X25451Y531914D01*
X25811Y532130D01*
X26098Y532202D01*
X26314Y532274D01*
X26458Y532346D01*
X26566Y532454D01*
X26962Y532778D01*
X27250Y532850D01*
X27754Y533209D01*
X28114Y533425D01*
X28473Y533569D01*
X28905Y533857D01*
X29517Y534253D01*
X29733Y534613D01*
X29661Y534901D01*
X29373Y535836D01*
X29085Y536340D01*
X28941Y536988D01*
X28869Y537491D01*
X28797Y537779D01*
X28401Y538679D01*
X28293Y539075D01*
X28221Y539363D01*
X28149Y540298D01*
X27646Y541378D01*
X27574Y541594D01*
X27502Y543177D01*
X27430Y543896D01*
X27142Y544544D01*
X26962Y545012D01*
X26890Y545300D01*
X26818Y547171D01*
X26746Y548610D01*
X26602Y549186D01*
X26638Y550230D01*
X26566Y550518D01*
X26278Y550949D01*
X26207Y556635D01*
X26566Y557570D01*
X26638Y557786D01*
X26566Y558290D01*
X26638Y558794D01*
X26782Y559154D01*
X26854Y562392D01*
X26926Y562896D01*
X27106Y563363D01*
X27250Y563723D01*
X27394Y564299D01*
X27502Y564983D01*
X27574Y566566D01*
X27718Y566926D01*
X27970Y567394D01*
X28114Y567753D01*
X28186Y568113D01*
X28293Y569229D01*
X28617Y569769D01*
X28761Y570128D01*
X28833Y570416D01*
X28905Y570776D01*
X29013Y571532D01*
X29481Y572431D01*
X29589Y572899D01*
X29661Y573187D01*
X29805Y573547D01*
X29877Y573691D01*
X29985Y573799D01*
X30129Y574159D01*
X30237Y574770D01*
X30884Y576138D01*
X30956Y576426D01*
X31100Y576929D01*
X31316Y577145D01*
X31496Y577397D01*
X31604Y578009D01*
X31748Y578369D01*
X32180Y578800D01*
X32324Y579448D01*
X32468Y579808D01*
X32576Y579916D01*
X32719Y579988D01*
X32899Y580240D01*
X32971Y580528D01*
X33115Y581031D01*
X33547Y581463D01*
X33691Y581823D01*
X33835Y582327D01*
X34267Y582758D01*
X34375Y583010D01*
X34483Y583478D01*
X35022Y584018D01*
X35202Y584486D01*
X35490Y584774D01*
X35922Y585565D01*
X36138Y585781D01*
X36498Y586429D01*
X36642Y586573D01*
X36714Y586717D01*
X36821Y586753D01*
X36930Y586861D01*
X37289Y587508D01*
X37577Y587796D01*
X37937Y588444D01*
X38009Y588588D01*
X38117Y588624D01*
X38441Y588948D01*
X38513Y589092D01*
X38837Y589416D01*
X38981Y589487D01*
X39088Y589595D01*
X39376Y590099D01*
X39736Y590459D01*
X40024Y590963D01*
X40096Y591107D01*
X40348Y591359D01*
X40492Y591431D01*
X40600Y591539D01*
X40672Y591682D01*
X41068Y592078D01*
X41212Y592150D01*
X41319Y592258D01*
X41391Y592402D01*
X41643Y592654D01*
X41967Y593050D01*
X42039Y593194D01*
X42759Y593913D01*
X42831Y594057D01*
X42939Y594093D01*
X43407Y594561D01*
X43478Y594705D01*
X43946Y595029D01*
X44090Y595101D01*
X44774Y595784D01*
X44846Y595928D01*
X45026Y596108D01*
X45673Y596468D01*
X46033Y596828D01*
X46393Y597044D01*
X47041Y597692D01*
X47185Y597764D01*
X47688Y598267D01*
X48048Y598483D01*
X48336Y598771D01*
X48840Y599131D01*
X48984Y599203D01*
X49272Y599491D01*
X50063Y599923D01*
X50171Y600031D01*
X50243Y600174D01*
X50351Y600282D01*
X50999Y600642D01*
X51107Y600750D01*
X51179Y600894D01*
X51395Y601038D01*
X51791Y601146D01*
X52078Y601218D01*
X52258Y601398D01*
X52438Y601650D01*
X52942Y601938D01*
X53302Y602082D01*
X53518Y602298D01*
X54022Y602585D01*
X54381Y602729D01*
X54597Y602945D01*
X54849Y603125D01*
X55533Y603377D01*
X55821Y603665D01*
X56325Y603953D01*
X56972Y604241D01*
X57368Y604492D01*
X57836Y604672D01*
X58196Y604816D01*
X58771Y605176D01*
X59059Y605248D01*
X59995Y605680D01*
X60247Y605860D01*
X61002Y606040D01*
X61362Y606184D01*
X61506Y606256D01*
X61686Y606436D01*
X62046Y606580D01*
X63089Y606759D01*
X63521Y607047D01*
X63917Y607299D01*
X64673Y607407D01*
X64960Y607479D01*
X65464Y607695D01*
X66112Y608055D01*
X67263Y608127D01*
X67767Y608343D01*
X68415Y608703D01*
X68631Y608774D01*
X69782Y608847D01*
X70286Y608918D01*
X70790Y609062D01*
X71438Y609350D01*
X71617Y609530D01*
X71689Y623492D01*
X71761Y624427D01*
X72481Y625435D01*
X72553Y625579D01*
X72733Y625759D01*
X73237Y626119D01*
X73381Y626190D01*
X73740Y626550D01*
X74244Y626838D01*
X75396Y626910D01*
X75899Y627126D01*
X79642Y627198D01*
X80217Y627054D01*
D02*
G37*
G36*
X83384Y594309D02*
X84104Y594093D01*
X84248Y593949D01*
X84895Y593590D01*
X85543Y593302D01*
X86191Y592942D01*
X86838Y592654D01*
X86982Y592582D01*
X87162Y592402D01*
X87522Y592258D01*
X87918Y592150D01*
X88242Y591970D01*
X88673Y591610D01*
X89141Y591502D01*
X89429Y591431D01*
X89861Y590999D01*
X90113Y590891D01*
X90796Y590783D01*
X91048Y590531D01*
X91120Y590387D01*
X91372Y590207D01*
X91804Y590135D01*
X92308Y589991D01*
X92416Y589883D01*
X92488Y589739D01*
X92812Y589487D01*
X93387Y589416D01*
X93747Y589272D01*
X93891Y589056D01*
X94287Y588804D01*
X94755Y588696D01*
X95043Y588624D01*
X95366Y588300D01*
X95798Y588084D01*
X96266Y587976D01*
X96698Y587688D01*
X97202Y587400D01*
X97993Y587041D01*
X98245Y586861D01*
X98713Y586681D01*
X99073Y586537D01*
X99577Y586177D01*
X100044Y585997D01*
X100440Y585889D01*
X100728Y585601D01*
X100872Y585529D01*
X101016Y585385D01*
X101520Y585313D01*
X101879Y585169D01*
X102023Y585098D01*
X102059Y584990D01*
X102383Y584666D01*
X102959Y584594D01*
X103247Y584522D01*
X103427Y584342D01*
X103499Y584198D01*
X103822Y583946D01*
X104398Y583874D01*
X104686Y583802D01*
X105190Y583298D01*
X105550Y583226D01*
X106053Y583082D01*
X106161Y582974D01*
X106593Y582615D01*
X107061Y582507D01*
X107421Y582363D01*
X107565Y582291D01*
X107709Y582147D01*
X108212Y581859D01*
X108500Y581787D01*
X108860Y581643D01*
X109004Y581499D01*
X109256Y581319D01*
X110156Y580995D01*
X110300Y580851D01*
X110443Y580779D01*
X110551Y580672D01*
X111235Y580420D01*
X111595Y580276D01*
X111703Y580168D01*
X112099Y579844D01*
X112530Y579772D01*
X112890Y579628D01*
X113178Y579340D01*
X113430Y579160D01*
X114042Y579052D01*
X114330Y578980D01*
X114438Y578872D01*
X114509Y578728D01*
X114761Y578476D01*
X115337Y578333D01*
X115661Y578225D01*
X115841Y577973D01*
X116489Y577613D01*
X116741Y577361D01*
X116812Y577217D01*
X116920Y577181D01*
X117388Y576713D01*
X117460Y576569D01*
X117748Y576282D01*
X118036Y575778D01*
X118252Y575274D01*
X118540Y574770D01*
X118612Y544112D01*
Y544040D01*
Y533102D01*
X118684Y531950D01*
X118612Y531662D01*
X118504Y531554D01*
X118144Y531338D01*
X117892Y531087D01*
X117820Y530942D01*
X117712Y530907D01*
X117604Y530799D01*
X116777Y530619D01*
X116489Y530331D01*
X115985Y530043D01*
X115697Y529971D01*
X115193Y529827D01*
X114977Y529611D01*
X114581Y529359D01*
X114186Y529251D01*
X113826Y529107D01*
X113682Y528964D01*
X113538Y528891D01*
X113430Y528783D01*
X113070Y528640D01*
X112674Y528532D01*
X112243Y528244D01*
X111739Y527956D01*
X111379Y527884D01*
X110947Y527596D01*
X110551Y527344D01*
X110156Y527236D01*
X109796Y527092D01*
X109580Y526876D01*
X109328Y526697D01*
X108572Y526517D01*
X108033Y525977D01*
X107421Y525869D01*
X107133Y525797D01*
X106881Y525545D01*
X106809Y525401D01*
X106701Y525365D01*
X106593Y525257D01*
X105910Y525149D01*
X105586Y524969D01*
X105514Y524825D01*
X105190Y524574D01*
X104830Y524501D01*
X104542Y524430D01*
X104326Y524358D01*
X104182Y524286D01*
X103966Y524070D01*
X103715Y523890D01*
X103319Y523782D01*
X102851Y523602D01*
X102455Y523278D01*
X102311Y523206D01*
X101951Y523062D01*
X101304Y522774D01*
X100908Y522522D01*
X100224Y522271D01*
X99720Y521911D01*
X99145Y521695D01*
X98785Y521551D01*
X98677Y521443D01*
X98245Y521155D01*
X97849Y521047D01*
X97489Y520903D01*
X97346Y520831D01*
X96986Y520471D01*
X96122Y520256D01*
X95618Y519752D01*
X95259Y519680D01*
X94755Y519608D01*
X94503Y519356D01*
X94431Y519212D01*
X94251Y519032D01*
X93819Y518960D01*
X93315Y518888D01*
X93063Y518636D01*
X92668Y518312D01*
X92236Y518240D01*
X91876Y518097D01*
X91732Y518024D01*
X91588Y517881D01*
X91336Y517701D01*
X90869Y517521D01*
X90365Y517305D01*
X89861Y516945D01*
X89573Y516873D01*
X89213Y516729D01*
X88853Y516513D01*
X88350Y516225D01*
X87702Y515938D01*
X87558Y515866D01*
X87414Y515722D01*
X86838Y515506D01*
X86371Y515326D01*
X85975Y515002D01*
X85723Y514894D01*
X85039Y514786D01*
X84535Y514570D01*
X84391Y514498D01*
X84284Y514390D01*
X83924Y514246D01*
X82053Y514174D01*
X81369Y514210D01*
X80901Y514390D01*
X80469Y514678D01*
X79894Y514822D01*
X79426Y514930D01*
X78994Y515218D01*
X78490Y515506D01*
X78202Y515578D01*
X77842Y515722D01*
X77735Y515830D01*
X77303Y516117D01*
X76907Y516225D01*
X76547Y516369D01*
X76403Y516513D01*
X75756Y516873D01*
X75252Y517017D01*
X74928Y517341D01*
X74460Y517521D01*
X73956Y517665D01*
X73561Y518060D01*
X73093Y518240D01*
X72589Y518312D01*
X72085Y518816D01*
X71725Y518888D01*
X71150Y519032D01*
X70646Y519536D01*
X69998Y519680D01*
X69782Y519752D01*
X69638Y519824D01*
X69422Y520040D01*
X68919Y520327D01*
X68631Y520399D01*
X68271Y520543D01*
X68127Y520615D01*
X67875Y520867D01*
X67407Y521047D01*
X66760Y521335D01*
X66364Y521587D01*
X65896Y521767D01*
X65500Y521947D01*
X64925Y522307D01*
X64241Y522558D01*
X64097Y522702D01*
X63449Y523062D01*
X63161Y523134D01*
X62945Y523206D01*
X62801Y523278D01*
X62586Y523494D01*
X62334Y523674D01*
X61578Y523854D01*
X61074Y524358D01*
X60715Y524430D01*
X60139Y524574D01*
X59959Y524753D01*
X59563Y525077D01*
X59203Y525149D01*
X58699Y525293D01*
X58232Y525761D01*
X57764Y525869D01*
X57260Y526013D01*
X56900Y526373D01*
X55893Y526732D01*
X55749Y526876D01*
X55353Y527128D01*
X54669Y527380D01*
X54309Y527596D01*
X54057Y527776D01*
X53590Y527956D01*
X53086Y528172D01*
X52870Y528388D01*
X52618Y528496D01*
X52150Y528676D01*
X51863Y528748D01*
X51647Y528964D01*
X51251Y529215D01*
X50783Y529323D01*
X50423Y529467D01*
X50315Y529575D01*
X50243Y529719D01*
X49991Y529899D01*
X49632Y529971D01*
X49344Y530043D01*
X49020Y530151D01*
X48840Y530403D01*
X48588Y530583D01*
X48048Y530691D01*
X47761Y530763D01*
X47257Y531266D01*
X47113Y531338D01*
X46861Y531590D01*
X46789Y573259D01*
X46861Y574842D01*
X46933Y575346D01*
X47077Y575706D01*
X47221Y575850D01*
X47653Y576641D01*
X47904Y576893D01*
X48048Y576965D01*
X48300Y577289D01*
X48372Y577433D01*
X48732Y577649D01*
X49200Y577757D01*
X49452Y578009D01*
X49524Y578153D01*
X49883Y578369D01*
X50351Y578476D01*
X50675Y578585D01*
X50855Y578836D01*
X50999Y578908D01*
X51107Y579016D01*
X51503Y579124D01*
X52007Y579196D01*
X52366Y579556D01*
X52618Y579736D01*
X53086Y579844D01*
X53446Y579988D01*
X53662Y580204D01*
X53806Y580276D01*
X53914Y580384D01*
X54309Y580492D01*
X54813Y580708D01*
X54957Y580851D01*
X55101Y580923D01*
X55209Y581031D01*
X55605Y581139D01*
X55965Y581283D01*
X56468Y581643D01*
X57044Y581859D01*
X57404Y582003D01*
X57548Y582147D01*
X57944Y582399D01*
X58340Y582507D01*
X58699Y582651D01*
X58843Y582723D01*
X58987Y582867D01*
X59383Y583118D01*
X59779Y583226D01*
X60139Y583370D01*
X60283Y583442D01*
X60391Y583550D01*
X60786Y583874D01*
X61362Y583946D01*
X61722Y584090D01*
X61830Y584270D01*
X62226Y584594D01*
X62730Y584666D01*
X63017Y584738D01*
X63521Y585241D01*
X64169Y585385D01*
X64565Y585565D01*
X64637Y585709D01*
X64745Y585745D01*
X64889Y585889D01*
X65140Y585997D01*
X65608Y586105D01*
X66040Y586393D01*
X66436Y586645D01*
X66904Y586753D01*
X67623Y587257D01*
X67911Y587328D01*
X68271Y587472D01*
X68775Y587832D01*
X69351Y588048D01*
X69710Y588192D01*
X69854Y588264D01*
X70106Y588516D01*
X70574Y588696D01*
X71078Y588840D01*
X71222Y588984D01*
X71725Y589343D01*
X72301Y589487D01*
X72517Y589559D01*
X72661Y589631D01*
X72985Y589955D01*
X73453Y590135D01*
X74028Y590279D01*
X74208Y590459D01*
X74604Y590783D01*
X75468Y590999D01*
X75863Y591395D01*
X76331Y591575D01*
X76835Y591718D01*
X77159Y592042D01*
X78058Y592366D01*
X78562Y592726D01*
X78922Y592870D01*
X79390Y593050D01*
X80073Y593518D01*
X80505Y593590D01*
X80937Y593877D01*
X81189Y594057D01*
X81657Y594237D01*
X82017Y594381D01*
X82233Y594597D01*
X82592Y594669D01*
X83384Y594309D01*
D02*
G37*
G36*
X121166Y527452D02*
X121526Y527308D01*
X122030Y527092D01*
X122174Y526948D01*
X122210Y526912D01*
X122246Y526876D01*
X122750Y526589D01*
X123253Y526373D01*
X123577Y526049D01*
X123937Y525905D01*
X124333Y525797D01*
X124477Y525653D01*
X124621Y525581D01*
X124873Y525329D01*
X125556Y525077D01*
X125844Y524789D01*
X126096Y524609D01*
X126492Y524501D01*
X126888Y524322D01*
X126960Y524178D01*
X127248Y523890D01*
X128003Y523710D01*
X128183Y523530D01*
X128579Y523206D01*
X129299Y522918D01*
X129407Y522810D01*
X129838Y522522D01*
X130306Y522342D01*
X130810Y521983D01*
X131170Y521767D01*
X131674Y521551D01*
X131997Y521227D01*
X132465Y521047D01*
X132825Y520903D01*
X132969Y520831D01*
X133185Y520615D01*
X133545Y520399D01*
X133905Y520256D01*
X134049Y520112D01*
X134192Y520040D01*
X134228Y519932D01*
X134624Y519752D01*
X135128Y519608D01*
X135236Y519500D01*
X135416Y519248D01*
X135668Y519068D01*
X136423Y518888D01*
X136891Y518420D01*
X137251Y518276D01*
X137719Y518168D01*
X137899Y517989D01*
X137971Y517845D01*
X138115Y517701D01*
X138474Y517557D01*
X138942Y517449D01*
X139230Y517161D01*
X140022Y516729D01*
X140166Y516657D01*
X140310Y516513D01*
X140562Y516333D01*
X141245Y516081D01*
X141389Y515938D01*
X141893Y515578D01*
X142181Y515506D01*
X142900Y515002D01*
X143476Y514786D01*
X143764Y514498D01*
X144268Y514210D01*
X144771Y514066D01*
X145131Y513707D01*
X145275Y513635D01*
X145527Y513383D01*
X145599Y512951D01*
X145203Y512627D01*
X145059Y512555D01*
X144951Y512375D01*
X144880Y511943D01*
X144735Y511584D01*
X144628Y511548D01*
X144412Y511332D01*
X144232Y510864D01*
X144088Y510504D01*
X143944Y510360D01*
X143872Y510216D01*
X143656Y510000D01*
X143584Y509712D01*
X143260Y509173D01*
X142936Y508777D01*
X142864Y508633D01*
X142577Y508345D01*
X142181Y508021D01*
X142037Y507949D01*
X141677Y507805D01*
X141173Y507301D01*
X137935Y507229D01*
X137539Y507409D01*
X137359Y507661D01*
X137215Y507733D01*
X137107Y507841D01*
X136711Y507949D01*
X136351Y508093D01*
X135956Y508489D01*
X135272Y508741D01*
X135092Y508921D01*
X134516Y509281D01*
X134121Y509389D01*
X133905Y509604D01*
X133113Y510036D01*
X132789Y510216D01*
X132393Y510540D01*
X131818Y510756D01*
X131674Y510900D01*
X131170Y511260D01*
X130882Y511332D01*
X130522Y511476D01*
X130342Y511656D01*
X130270Y511799D01*
X130126Y511871D01*
X129658Y512051D01*
X129371Y512123D01*
X128831Y512663D01*
X128435Y512771D01*
X128075Y512915D01*
X127931Y512987D01*
X127859Y513131D01*
X127356Y513419D01*
X126852Y513635D01*
X126708Y513707D01*
X126456Y513958D01*
X125772Y514210D01*
X125413Y514570D01*
X125161Y514750D01*
X124765Y514858D01*
X124441Y515038D01*
X124369Y515182D01*
X124189Y515362D01*
X123829Y515434D01*
X123541Y515362D01*
X122786Y514606D01*
X122714Y514462D01*
X122534Y514282D01*
X122390Y514210D01*
X122210Y514030D01*
X122138Y513886D01*
X121814Y513563D01*
X121562Y513383D01*
X121490Y513239D01*
X121095Y512843D01*
X120951Y512771D01*
X120771Y512591D01*
X120699Y512447D01*
X120519Y512267D01*
X120015Y511979D01*
X119871Y511835D01*
X119727Y511763D01*
X119691Y511656D01*
X119583Y511548D01*
X119439Y511476D01*
X119295Y511332D01*
X119151Y511260D01*
X118576Y510684D01*
X118432Y510612D01*
X118180Y510360D01*
X117784Y510036D01*
X117640Y509964D01*
X117280Y509604D01*
X116777Y509245D01*
X116633Y509173D01*
X116345Y508885D01*
X116093Y508705D01*
X115625Y508525D01*
X115373Y508273D01*
X114977Y507949D01*
X114833Y507877D01*
X114581Y507625D01*
X114509Y507481D01*
X114258Y507229D01*
X113826Y507158D01*
X113538Y507086D01*
X113178Y506726D01*
X112674Y506438D01*
X112494Y506258D01*
X112099Y505934D01*
X111379Y505646D01*
X111019Y505286D01*
X110875Y505215D01*
X110515Y505070D01*
X110120Y504891D01*
X109688Y504531D01*
X109004Y504279D01*
X108860Y504135D01*
X108212Y503775D01*
X107709Y503631D01*
X107493Y503415D01*
X107097Y503163D01*
X106629Y503055D01*
X106269Y502911D01*
X106161Y502804D01*
X106089Y502660D01*
X105982Y502624D01*
X105838Y502480D01*
X105262Y502408D01*
X104758Y502264D01*
X104614Y502120D01*
X104110Y501760D01*
X103391Y501688D01*
X102887Y501544D01*
X102707Y501364D01*
X102635Y501220D01*
X102311Y501040D01*
X101735Y500968D01*
X101232Y500896D01*
X100944Y500825D01*
X100836Y500717D01*
X100260Y500357D01*
X99577Y500249D01*
X99073Y500177D01*
X98785Y500105D01*
X98245Y499781D01*
X97885Y499637D01*
X97202Y499529D01*
X96338Y499385D01*
X95870Y499205D01*
X95510Y499061D01*
X95223Y498989D01*
X94359Y498845D01*
X93999Y498773D01*
X93423Y498629D01*
X93063Y498558D01*
X92596Y498450D01*
X92380Y498378D01*
X91660Y498306D01*
X91444Y498234D01*
X89933Y498162D01*
X89357Y498018D01*
X88997Y497874D01*
X88422Y497802D01*
X87486Y497730D01*
X87270Y497658D01*
X81225Y497586D01*
X78346Y497658D01*
X76907Y497802D01*
X75683Y497946D01*
X75324Y498090D01*
X74244Y498162D01*
X73956Y498234D01*
X73237Y498306D01*
X72733Y498378D01*
X72013Y498593D01*
X71689Y498702D01*
X71258Y498773D01*
X70610Y498845D01*
X70250Y498917D01*
X69566Y499025D01*
X69099Y499205D01*
X68523Y499421D01*
X68163Y499493D01*
X67335Y499601D01*
X67048Y499673D01*
X66688Y499817D01*
X66040Y500177D01*
X65248Y500249D01*
X64960Y500321D01*
X64457Y500465D01*
X64349Y500573D01*
X63953Y500896D01*
X63089Y500968D01*
X62801Y501040D01*
X62442Y501184D01*
X62046Y501580D01*
X61650Y501688D01*
X60930Y501760D01*
X60679Y502012D01*
X60283Y502336D01*
X59563Y502408D01*
X59059Y502624D01*
X58915Y502696D01*
X58771Y502840D01*
X58520Y503019D01*
X58052Y503127D01*
X57692Y503271D01*
X57548Y503343D01*
X57404Y503487D01*
X57008Y503739D01*
X56540Y503847D01*
X56037Y504207D01*
X55533Y504495D01*
X55173Y504639D01*
X54849Y504963D01*
X54489Y505107D01*
X54093Y505215D01*
X53806Y505502D01*
X53014Y505934D01*
X52798Y506150D01*
X52402Y506402D01*
X52007Y506510D01*
X51755Y506762D01*
X51575Y507014D01*
X51215Y507229D01*
X50711Y507374D01*
X50423Y507661D01*
X49776Y508021D01*
X49668Y508129D01*
X49596Y508273D01*
X49416Y508453D01*
X48912Y508741D01*
X48552Y509101D01*
X48408Y509173D01*
X47976Y509460D01*
X47832Y509533D01*
X47796Y509640D01*
X47473Y509892D01*
X47329Y509964D01*
X46825Y510468D01*
X46465Y510684D01*
X45889Y511260D01*
X45745Y511332D01*
X45170Y511907D01*
X44918Y512087D01*
X44846Y512231D01*
X44450Y512627D01*
X44198Y512807D01*
X44126Y512951D01*
X43982Y513095D01*
X43910Y513239D01*
X43299Y513563D01*
X42903Y513958D01*
X42507Y514282D01*
X42183Y514678D01*
X41895Y515182D01*
X41715Y515362D01*
X41212Y515434D01*
X40924Y515362D01*
X40708Y515146D01*
X39772Y514642D01*
X39484Y514354D01*
X38693Y514066D01*
X38441Y513815D01*
X38369Y513671D01*
X38189Y513563D01*
X37613Y513419D01*
X37397Y513347D01*
X37253Y513275D01*
X37217Y513167D01*
X36858Y512807D01*
X36462Y512699D01*
X36174Y512627D01*
X35706Y512159D01*
X35346Y512015D01*
X34950Y511907D01*
X34662Y511619D01*
X34159Y511332D01*
X33799Y511188D01*
X33367Y510900D01*
X33007Y510684D01*
X32648Y510540D01*
X32468Y510360D01*
X31892Y510000D01*
X31496Y509892D01*
X30884Y509425D01*
X30417Y509245D01*
X30057Y508885D01*
X29697Y508669D01*
X29121Y508525D01*
X28617Y508021D01*
X27754Y507805D01*
X27646Y507697D01*
X27574Y507553D01*
X27322Y507301D01*
X27034Y507229D01*
X26818Y507158D01*
X26674Y507229D01*
X25055Y507194D01*
X24083Y507229D01*
X23724Y507374D01*
X23544Y507553D01*
X23148Y507877D01*
X22860Y507949D01*
X22248Y508561D01*
X21888Y509209D01*
X21816Y509352D01*
X21493Y509676D01*
X21313Y510144D01*
X21169Y510504D01*
X20989Y510684D01*
X20845Y510756D01*
X20665Y511008D01*
X20593Y511440D01*
X20521Y511727D01*
X20341Y511907D01*
X20197Y511979D01*
X20089Y512087D01*
X19585Y513023D01*
X19765Y513419D01*
X20053Y513851D01*
X20305Y514030D01*
X20593Y514102D01*
X21061Y514210D01*
X21313Y514462D01*
X21709Y514786D01*
X21996Y514858D01*
X22356Y515002D01*
X22752Y515398D01*
X23220Y515578D01*
X23580Y515722D01*
X23724Y515866D01*
X24659Y516369D01*
X24803Y516441D01*
X24947Y516585D01*
X25199Y516765D01*
X25883Y517017D01*
X26170Y517305D01*
X26422Y517485D01*
X27106Y517737D01*
X27322Y517953D01*
X27826Y518240D01*
X28186Y518384D01*
X28473Y518672D01*
X28725Y518852D01*
X29193Y518960D01*
X29589Y519140D01*
X29661Y519284D01*
X29769Y519392D01*
X30021Y519572D01*
X30308Y519644D01*
X30704Y519752D01*
X31064Y520112D01*
X31424Y520327D01*
X32000Y520471D01*
X32180Y520651D01*
X32252Y520795D01*
X32396Y520939D01*
X32863Y521119D01*
X33223Y521263D01*
X33367Y521407D01*
X34015Y521767D01*
X34375Y521911D01*
X34627Y522163D01*
X35634Y522666D01*
X36030Y522990D01*
X36318Y523062D01*
X37253Y523710D01*
X37541Y523782D01*
X37901Y523926D01*
X38009Y524034D01*
X38405Y524358D01*
X38693Y524430D01*
X39053Y524574D01*
X39196Y524646D01*
X39304Y524825D01*
X39376Y524969D01*
X39484Y525077D01*
X40132Y525221D01*
X40420Y525293D01*
X40528Y525401D01*
X40600Y525545D01*
X40924Y525869D01*
X41355Y525941D01*
X41715Y526085D01*
X41823Y526193D01*
X41895Y526337D01*
X42003Y526373D01*
X42111Y526481D01*
X42795Y526732D01*
X43011Y526948D01*
X43946Y527452D01*
X44090Y527524D01*
X44270Y527704D01*
X44666Y527812D01*
X45026Y527668D01*
X45170Y527596D01*
X45278Y527488D01*
X45745Y527308D01*
X46249Y527092D01*
X46393Y527020D01*
X46609Y526805D01*
X46861Y526697D01*
X47257Y526589D01*
X47617Y526445D01*
X47724Y526337D01*
X48120Y526013D01*
X48696Y525869D01*
X49056Y525725D01*
X49272Y525509D01*
X49668Y525257D01*
X50135Y525149D01*
X50495Y525005D01*
X50711Y524789D01*
X51107Y524538D01*
X51575Y524430D01*
X51863Y524358D01*
X52078Y524142D01*
X52222Y524070D01*
X52366Y523926D01*
X52618Y523818D01*
X52906Y523746D01*
X53302Y523638D01*
X53518Y523422D01*
X54166Y523062D01*
X54669Y522918D01*
X54813Y522774D01*
X55461Y522415D01*
X55965Y522271D01*
X56073Y522163D01*
X56504Y521875D01*
X56972Y521695D01*
X57332Y521551D01*
X57476Y521407D01*
X57980Y521119D01*
X58555Y520975D01*
X58843Y520687D01*
X59095Y520507D01*
X59563Y520399D01*
X59923Y520256D01*
X60067Y520183D01*
X60175Y520076D01*
X60247Y519932D01*
X60535Y519788D01*
X61074Y519680D01*
X61434Y519536D01*
X61722Y519248D01*
X61974Y519068D01*
X62370Y518960D01*
X62874Y518816D01*
X63089Y518600D01*
X63341Y518420D01*
X63809Y518240D01*
X64313Y518097D01*
X64529Y517881D01*
X64925Y517629D01*
X65320Y517521D01*
X65680Y517377D01*
X65824Y517233D01*
X65968Y517161D01*
X66076Y517053D01*
X66544Y516873D01*
X67048Y516657D01*
X67192Y516585D01*
X67371Y516405D01*
X68271Y516081D01*
X68379Y515974D01*
X68811Y515686D01*
X69278Y515506D01*
X69566Y515434D01*
X69710Y515290D01*
X70214Y514930D01*
X70646Y514858D01*
X71006Y514714D01*
X71438Y514282D01*
X72085Y514138D01*
X72481Y513958D01*
X72553Y513815D01*
X72841Y513599D01*
X73237Y513491D01*
X73524Y513419D01*
X73740Y513347D01*
X73884Y513275D01*
X74244Y512915D01*
X74496Y512807D01*
X74964Y512699D01*
X75324Y512555D01*
X75648Y512231D01*
X76331Y511979D01*
X76691Y511835D01*
X76835Y511763D01*
X77087Y511511D01*
X77555Y511332D01*
X78130Y511188D01*
X78634Y510828D01*
X78886Y510720D01*
X79354Y510612D01*
X79642Y510540D01*
X80146Y510396D01*
X80505Y510252D01*
X81369Y510180D01*
X81585Y510108D01*
X83096Y510036D01*
X83312Y510108D01*
X84464Y510180D01*
X85399Y510540D01*
X85687Y510612D01*
X86191Y510684D01*
X87234Y511224D01*
X87702Y511332D01*
X88206Y511476D01*
X88638Y511907D01*
X89285Y512051D01*
X89573Y512123D01*
X89753Y512303D01*
X89825Y512447D01*
X89969Y512591D01*
X90365Y512699D01*
X90869Y512771D01*
X91444Y513347D01*
X91876Y513419D01*
X92380Y513563D01*
X92668Y513851D01*
X92812Y513922D01*
X92920Y514030D01*
X93315Y514138D01*
X93819Y514282D01*
X94035Y514498D01*
X94287Y514678D01*
X94971Y514930D01*
X95330Y515074D01*
X95474Y515218D01*
X95978Y515506D01*
X96266Y515578D01*
X96662Y515758D01*
X97238Y516117D01*
X97921Y516369D01*
X98065Y516513D01*
X98317Y516693D01*
X98785Y516873D01*
X99289Y517089D01*
X99432Y517161D01*
X99720Y517449D01*
X100296Y517593D01*
X100656Y517737D01*
X100764Y517845D01*
X100836Y517989D01*
X101052Y518133D01*
X101448Y518240D01*
X101951Y518312D01*
X102131Y518492D01*
X102203Y518636D01*
X102455Y518888D01*
X103103Y518960D01*
X103391Y519032D01*
X103499Y519140D01*
X103571Y519284D01*
X103679Y519392D01*
X103930Y519572D01*
X104758Y519752D01*
X105046Y520040D01*
X105442Y520291D01*
X105910Y520399D01*
X106269Y520543D01*
X106413Y520687D01*
X107061Y521047D01*
X107709Y521335D01*
X108500Y521767D01*
X109004Y521983D01*
X109148Y522055D01*
X109328Y522235D01*
X110012Y522486D01*
X110372Y522630D01*
X110515Y522774D01*
X111019Y523062D01*
X111595Y523206D01*
X111775Y523386D01*
X112171Y523710D01*
X112674Y523782D01*
X113070Y523962D01*
X113250Y524214D01*
X113502Y524394D01*
X114330Y524501D01*
X114581Y524753D01*
X114654Y524897D01*
X114833Y525077D01*
X115265Y525149D01*
X115841Y525293D01*
X115949Y525401D01*
X116021Y525545D01*
X116345Y525797D01*
X117208Y526013D01*
X117604Y526409D01*
X117964Y526553D01*
X118432Y526660D01*
X118863Y526948D01*
X119367Y527236D01*
X119871Y527452D01*
X120015Y527524D01*
X120231Y527740D01*
X120663Y527812D01*
X121166Y527452D01*
D02*
G37*
G36*
X278845Y596324D02*
X279097Y596072D01*
X279169Y595569D01*
X279097Y595065D01*
X279169Y594849D01*
X279133Y577685D01*
X279169Y577073D01*
X279097Y576569D01*
X278917Y576390D01*
X277262Y576317D01*
X276974Y576390D01*
X276794Y576569D01*
X276722Y584558D01*
X276579Y584917D01*
X276327Y585098D01*
X274671Y585169D01*
X274599D01*
X259594Y585133D01*
X259127Y585169D01*
X258623Y585098D01*
X258371Y584846D01*
X258299Y577289D01*
X258371Y577073D01*
X258227Y576497D01*
X258119Y576390D01*
X256536Y576317D01*
X256032Y576461D01*
X255924Y576569D01*
X255852Y594993D01*
X255780Y595713D01*
X255852Y596000D01*
X256104Y596252D01*
X256464Y596324D01*
X256680Y596396D01*
X257040Y596324D01*
X257543Y596396D01*
X258047Y596324D01*
X258227Y596144D01*
X258335Y595892D01*
X258299Y588804D01*
X258371Y587868D01*
X258623Y587616D01*
X275967Y587544D01*
X276471Y587688D01*
X276651Y587940D01*
X276722Y595497D01*
X276651Y595713D01*
X276794Y596144D01*
X277118Y596324D01*
X277334Y596396D01*
X277982Y596324D01*
X278198Y596396D01*
X278845Y596324D01*
D02*
G37*
G36*
X302379Y596252D02*
X302523Y595892D01*
X302486Y595137D01*
Y595065D01*
Y594129D01*
X302414Y593841D01*
X302307Y593733D01*
X302055Y593625D01*
X300579Y593661D01*
X300292Y593733D01*
X300184Y593841D01*
X300004Y594093D01*
X299932Y595677D01*
X299968Y596000D01*
X300219Y596252D01*
X300939Y596324D01*
X301875Y596396D01*
X302379Y596252D01*
D02*
G37*
G36*
X246532Y596180D02*
X247072Y595857D01*
X247756Y595605D01*
X248116Y595389D01*
X248763Y594885D01*
X248907Y594813D01*
X249087Y594633D01*
X249159Y594489D01*
X249375Y594273D01*
X249447Y594129D01*
X249555Y594093D01*
X249663Y593985D01*
X250095Y593194D01*
X250491Y592654D01*
X250634Y592294D01*
X250742Y591610D01*
X250814Y591323D01*
X250886Y591107D01*
X250958Y590459D01*
X250707Y590207D01*
X249483Y590135D01*
X249267Y590063D01*
X248763Y590135D01*
X248512Y590387D01*
X248440Y590819D01*
X248368Y591107D01*
X248296Y591323D01*
X248008Y591826D01*
X247792Y592330D01*
X247396Y592726D01*
X247252Y592798D01*
X246820Y593230D01*
X246676Y593302D01*
X246568Y593410D01*
X246208Y593554D01*
X245921Y593625D01*
X245309Y593733D01*
X245093Y593805D01*
X232895Y593769D01*
X232463Y593698D01*
X231851Y593590D01*
X231491Y593446D01*
X231347Y593374D01*
X231060Y593086D01*
X230916Y593014D01*
X230232Y592330D01*
X229980Y591934D01*
X229728Y591251D01*
X229512Y590747D01*
X229440Y583046D01*
X229512Y582111D01*
X229692Y581499D01*
X230016Y580600D01*
X230448Y580168D01*
X230520Y580024D01*
X230916Y579700D01*
X231060Y579628D01*
X231455Y579232D01*
X231815Y579088D01*
X232499Y578980D01*
X232715Y578908D01*
X245345Y578944D01*
X246029Y579052D01*
X246532Y579268D01*
X246676Y579340D01*
X246964Y579628D01*
X247108Y579700D01*
X247648Y580240D01*
X248152Y581175D01*
X248260Y581283D01*
X248440Y581751D01*
X248512Y582255D01*
X248763Y582507D01*
X250131Y582579D01*
X250707Y582435D01*
X250886Y582255D01*
X250958Y581895D01*
X250778Y581283D01*
X250707Y580851D01*
X250599Y580168D01*
X250239Y579664D01*
X249879Y579016D01*
X249807Y578872D01*
X249303Y578369D01*
X249123Y578117D01*
X248475Y577613D01*
X248332Y577541D01*
X248224Y577433D01*
X247828Y577109D01*
X247252Y576893D01*
X246317Y576461D01*
X246101Y576390D01*
X233219Y576317D01*
X232067Y576390D01*
X231779Y576461D01*
X231276Y576605D01*
X231168Y576713D01*
X230700Y576893D01*
X230052Y577181D01*
X229404Y577685D01*
X229260Y577757D01*
X228649Y578369D01*
X228577Y578512D01*
X228433Y578656D01*
X228361Y578800D01*
X228073Y579088D01*
X227569Y580024D01*
X227317Y580420D01*
X227209Y580959D01*
X227137Y581175D01*
X227065Y590387D01*
X227209Y591826D01*
X227389Y592438D01*
X227749Y593014D01*
X227929Y593482D01*
X228361Y593913D01*
X228433Y594057D01*
X228577Y594201D01*
X228757Y594453D01*
X228901Y594525D01*
X229260Y594885D01*
X229620Y595101D01*
X229908Y595389D01*
X230160Y595569D01*
X230628Y595748D01*
X231563Y596180D01*
X231779Y596252D01*
X234442Y596324D01*
X245525D01*
X246532Y596180D01*
D02*
G37*
G36*
X310583Y596252D02*
X310691Y596144D01*
X310763Y576857D01*
X310691Y576569D01*
X310511Y576390D01*
X304106Y576317D01*
X303854Y576569D01*
X303782Y578153D01*
X303926Y578728D01*
X304034Y578836D01*
X306984Y578908D01*
X307200Y578836D01*
X307776Y578908D01*
X308100Y579232D01*
X308172Y592186D01*
Y592258D01*
Y594633D01*
X308100Y595784D01*
X308172Y596072D01*
X308352Y596252D01*
X309791Y596324D01*
X310007Y596396D01*
X310583Y596252D01*
D02*
G37*
G36*
X295038Y596324D02*
X295578Y596360D01*
X296045Y596324D01*
X296405Y596180D01*
X296549Y595892D01*
X296513Y576857D01*
X296441Y576569D01*
X296189Y576390D01*
X290144Y576317D01*
X289640Y576533D01*
X289604Y576569D01*
X289533Y578009D01*
X289604Y578512D01*
X290000Y578836D01*
X293527Y578908D01*
X293815Y578980D01*
X294030Y579196D01*
X294102Y579484D01*
X294066Y595857D01*
X294138Y596144D01*
X294390Y596324D01*
X294822Y596396D01*
X295038Y596324D01*
D02*
G37*
G36*
X320910Y563759D02*
X321090Y563507D01*
X321054Y558362D01*
X320910Y558002D01*
X320802Y557894D01*
X286474Y557822D01*
X285754Y557894D01*
X285394Y557750D01*
X285287Y557570D01*
X285215Y548502D01*
X285287Y548214D01*
X285394Y548107D01*
X316052Y548035D01*
X316556Y547963D01*
X316664Y547855D01*
X316844Y547603D01*
X316808Y543465D01*
X316880Y543249D01*
X316808Y542673D01*
X316736Y542457D01*
X316664Y542313D01*
X316556Y542277D01*
X316412Y542133D01*
X286546Y542061D01*
X285826Y542133D01*
X285538Y542061D01*
X285287Y541810D01*
X285215Y532886D01*
X285287Y532382D01*
X285430Y532238D01*
X285718Y532166D01*
X294534Y532202D01*
X320514D01*
X320802Y532130D01*
X321018Y531914D01*
X321090Y531626D01*
X321054Y527560D01*
X321126Y527344D01*
X321054Y526840D01*
X320982Y526553D01*
X320730Y526373D01*
X279997Y526301D01*
X279709Y526373D01*
X279385Y526481D01*
X279205Y526732D01*
X279133Y527092D01*
X279169Y562824D01*
X279097Y563112D01*
X279169Y563615D01*
X279421Y563795D01*
X320586Y563867D01*
X320910Y563759D01*
D02*
G37*
G36*
X262509Y563795D02*
X263013Y563723D01*
X263624Y563471D01*
X263984Y563327D01*
X264380Y563220D01*
X264668Y563148D01*
X265028Y563004D01*
X265172Y562860D01*
X266107Y562356D01*
X266287Y562176D01*
X266683Y561852D01*
X266827Y561780D01*
X267619Y560989D01*
X267943Y560593D01*
X268015Y560449D01*
X268374Y560089D01*
X268806Y559297D01*
X268878Y559154D01*
X269130Y558902D01*
X269382Y558218D01*
X269454Y557930D01*
X269778Y557102D01*
X269886Y556707D01*
X269958Y556491D01*
X270030Y551741D01*
X269958Y549942D01*
X269886Y549222D01*
X269814Y548934D01*
X269634Y548538D01*
X269418Y547963D01*
X269310Y547495D01*
X269166Y547135D01*
X269094Y546991D01*
X268950Y546847D01*
X268770Y546595D01*
X268590Y546128D01*
X268158Y545696D01*
X268086Y545552D01*
X267943Y545408D01*
X267871Y545264D01*
X267115Y544508D01*
X266971Y544436D01*
X266467Y543932D01*
X265963Y543645D01*
X265748Y543429D01*
X265244Y543141D01*
X264596Y542853D01*
X264452Y542781D01*
X264344Y542673D01*
X263984Y542529D01*
X263624Y542457D01*
X263193Y542385D01*
X262833Y542313D01*
X261933Y542205D01*
X261717Y542133D01*
X234226Y542061D01*
X233722Y541989D01*
X233219Y541846D01*
X232931Y541773D01*
X232571Y541630D01*
X232031Y541090D01*
X231959Y540946D01*
X231671Y540658D01*
X231383Y540154D01*
X231311Y539938D01*
X231239Y536052D01*
X231311Y534469D01*
X231455Y533893D01*
X231815Y533533D01*
X232031Y533173D01*
X232211Y532994D01*
X233578Y532274D01*
X260638Y532202D01*
X261573Y532274D01*
X262509Y532706D01*
X262869Y532850D01*
X263049Y533030D01*
X263121Y533173D01*
X263624Y533677D01*
X263768Y534037D01*
X263840Y534325D01*
X263984Y534829D01*
X264236Y535081D01*
X264488Y535189D01*
X264848Y535261D01*
X268266Y535225D01*
X269418Y535297D01*
X269706Y535225D01*
X269886Y535045D01*
X269958Y533965D01*
X269814Y533102D01*
X269634Y532706D01*
X269382Y532022D01*
X269238Y531446D01*
X268950Y531015D01*
X268770Y530763D01*
X268590Y530295D01*
X268266Y529971D01*
X267943Y529575D01*
X267871Y529431D01*
X267763Y529323D01*
X267619Y529251D01*
X267439Y529071D01*
X267367Y528927D01*
X266971Y528604D01*
X266719Y528424D01*
X266647Y528280D01*
X266467Y528100D01*
X265963Y527812D01*
X265819Y527740D01*
X265496Y527416D01*
X264812Y527164D01*
X263912Y526697D01*
X263373Y526589D01*
X263157Y526517D01*
X262077Y526445D01*
X261861Y526373D01*
X258551Y526301D01*
X258479D01*
X234046Y526337D01*
X232211Y526517D01*
X231923Y526589D01*
X231419Y526660D01*
X230916Y526876D01*
X230772Y526948D01*
X230664Y527056D01*
X229764Y527380D01*
X229656Y527488D01*
X228972Y527956D01*
X228829Y528028D01*
X228325Y528532D01*
X228181Y528604D01*
X228037Y528748D01*
X227677Y529179D01*
X227533Y529251D01*
X227353Y529431D01*
X227137Y529791D01*
X226777Y530151D01*
X226202Y531230D01*
X225842Y531734D01*
X225770Y532166D01*
X225698Y532454D01*
X225590Y532850D01*
X225338Y533533D01*
X225266Y533749D01*
X225194Y538859D01*
X225266Y540442D01*
X225338Y540730D01*
X225446Y541126D01*
X225662Y541702D01*
X225842Y542529D01*
X225986Y542889D01*
X226130Y543033D01*
X226634Y543969D01*
X226706Y544112D01*
X226993Y544400D01*
X227209Y544760D01*
X227857Y545408D01*
X227929Y545552D01*
X228325Y545876D01*
X228469Y545948D01*
X228901Y546379D01*
X229692Y546811D01*
X229836Y546883D01*
X230088Y547135D01*
X230772Y547387D01*
X231060Y547459D01*
X231851Y547819D01*
X232139Y547891D01*
X232355Y547963D01*
X260998Y548035D01*
X261717Y548107D01*
X262221Y548322D01*
X262869Y548682D01*
X263121Y548934D01*
X263193Y549078D01*
X263552Y549438D01*
X263732Y549690D01*
X263840Y550158D01*
X263912Y550373D01*
X263984Y554979D01*
X263912Y555267D01*
X263840Y555771D01*
X263768Y556059D01*
X263624Y556419D01*
X263552Y556563D01*
X263373Y556743D01*
X263229Y556815D01*
X262545Y557498D01*
X262185Y557642D01*
X261573Y557750D01*
X261357Y557822D01*
X233830Y557786D01*
X233147Y557678D01*
X232787Y557534D01*
X232643Y557462D01*
X231887Y556707D01*
X231815Y556563D01*
X231599Y556347D01*
X231419Y556095D01*
X231311Y555411D01*
X231239Y555123D01*
X231060Y554943D01*
X225950Y554871D01*
X225446Y554943D01*
X225266Y555123D01*
X225194Y555555D01*
X225338Y556563D01*
X225410Y556851D01*
X225590Y557246D01*
X225662Y557534D01*
X225770Y558002D01*
X225842Y558290D01*
X225986Y558650D01*
X226058Y558794D01*
X226274Y559010D01*
X226382Y559261D01*
X226562Y559729D01*
X226706Y559873D01*
X227209Y560521D01*
X227281Y560665D01*
X228253Y561636D01*
X228613Y561852D01*
X228972Y562212D01*
X229908Y562716D01*
X230052Y562860D01*
X230448Y563112D01*
X230844Y563220D01*
X231347Y563363D01*
X231743Y563543D01*
X232211Y563723D01*
X232427Y563795D01*
X261142Y563867D01*
X262509Y563795D01*
D02*
G37*
%LPC*%
G36*
X204792Y589416D02*
X204432Y589272D01*
X204324Y589092D01*
X204468Y588588D01*
X204828Y588228D01*
X205187Y587580D01*
X205475Y587292D01*
X205907Y586501D01*
X206195Y586213D01*
X206555Y585565D01*
X206843Y585277D01*
X207275Y584486D01*
X207598Y584162D01*
X207634Y584126D01*
X207994Y583406D01*
X208282Y583118D01*
X208642Y582471D01*
X208930Y582183D01*
X209362Y581391D01*
X209650Y581103D01*
X209829Y580851D01*
X210009Y580384D01*
X210117Y580276D01*
X210405Y580204D01*
X210765Y580348D01*
X211017Y580600D01*
X211233Y580959D01*
X211413Y581283D01*
X211737Y581679D01*
X212096Y582327D01*
X212384Y582615D01*
X212744Y583262D01*
X212888Y583406D01*
X212960Y583550D01*
X213104Y583694D01*
X213464Y584342D01*
X213824Y584702D01*
X214183Y585349D01*
X214255Y585493D01*
X214471Y585709D01*
X214831Y586357D01*
X215119Y586645D01*
X215551Y587436D01*
X215839Y587724D01*
X216198Y588372D01*
X216378Y588552D01*
X216702Y588948D01*
X216666Y589200D01*
X216414Y589380D01*
X206375Y589343D01*
X204792Y589416D01*
D02*
G37*
G36*
X84391Y582579D02*
X83708Y582543D01*
X82664Y582579D01*
X81945Y582507D01*
X81729Y582579D01*
X80577Y582507D01*
X78994Y582435D01*
X78058Y582363D01*
X77339Y582147D01*
X76979Y582003D01*
X76763Y581931D01*
X76187Y581859D01*
X75899Y581787D01*
X75396Y581715D01*
X75108Y581643D01*
X74784Y581535D01*
X74064Y581247D01*
X73705Y581175D01*
X73237Y581067D01*
X72733Y580851D01*
X72625Y580743D01*
X72265Y580600D01*
X71509Y580420D01*
X71150Y580276D01*
X70790Y579916D01*
X70538Y579808D01*
X69926Y579700D01*
X69566Y579340D01*
X69314Y579160D01*
X68775Y579052D01*
X68487Y578980D01*
X68235Y578728D01*
X68163Y578585D01*
X67983Y578476D01*
X67623Y578333D01*
X67335Y578261D01*
X66976Y577901D01*
X66328Y577541D01*
X66220Y577433D01*
X66148Y577289D01*
X66040Y577181D01*
X65392Y576821D01*
X65248Y576749D01*
X65068Y576569D01*
X64673Y576246D01*
X64529Y576174D01*
X63953Y575598D01*
X63809Y575526D01*
X63233Y574950D01*
X63089Y574878D01*
X62838Y574626D01*
X62765Y574482D01*
X62262Y574123D01*
X62046Y573763D01*
X61902Y573619D01*
X61830Y573475D01*
X61614Y573331D01*
X61542Y573187D01*
X61218Y572863D01*
X60966Y572683D01*
X60894Y572539D01*
X60750Y572395D01*
X60679Y572251D01*
X60535Y572108D01*
X60463Y571964D01*
X60247Y571748D01*
X59887Y571100D01*
X59527Y570740D01*
X59239Y570236D01*
X59167Y570092D01*
X59059Y569985D01*
X58915Y569912D01*
X58735Y569661D01*
X58663Y569517D01*
X58520Y569013D01*
X58268Y568761D01*
X58124Y568689D01*
X57980Y568473D01*
X57800Y567718D01*
X57224Y567142D01*
X57152Y566566D01*
X57008Y566206D01*
X56900Y566098D01*
X56756Y566026D01*
X56576Y565774D01*
X56504Y565271D01*
X56432Y564983D01*
X56288Y564623D01*
X56217Y564479D01*
X56037Y564299D01*
X55785Y563615D01*
X55713Y563112D01*
X55389Y562356D01*
X55245Y561996D01*
X55137Y561456D01*
X55065Y561169D01*
X54993Y560665D01*
X54705Y559945D01*
X54633Y559513D01*
X54561Y559297D01*
X54489Y558074D01*
X54417Y557858D01*
X54345Y556563D01*
X54273Y556347D01*
X54201Y552461D01*
X54273Y551741D01*
X54345Y551453D01*
X54417Y550949D01*
X54489Y549582D01*
X54561Y549294D01*
X54633Y548790D01*
X54777Y548214D01*
X54885Y547819D01*
X54957Y547531D01*
X55209Y546343D01*
X55353Y545840D01*
X55533Y545444D01*
X55677Y545084D01*
X55857Y544256D01*
X55929Y543969D01*
X56288Y543465D01*
X56396Y543213D01*
X56504Y542745D01*
Y542673D01*
X56648Y542241D01*
X56828Y542061D01*
X57116Y541630D01*
X57224Y541162D01*
X57404Y540766D01*
X57764Y540334D01*
X57944Y539866D01*
X58088Y539507D01*
X58232Y539363D01*
X58591Y538859D01*
X58663Y538571D01*
X59023Y538211D01*
X59455Y537420D01*
X59527Y537276D01*
X59815Y536988D01*
X60031Y536628D01*
X60355Y536304D01*
X60679Y535908D01*
X60750Y535764D01*
X61254Y535261D01*
X61326Y535117D01*
X61506Y534937D01*
X61650Y534865D01*
X61902Y534613D01*
X61974Y534469D01*
X62118Y534325D01*
X62190Y534181D01*
X62298Y534073D01*
X62442Y534001D01*
X62658Y533713D01*
X62801Y533641D01*
X62945Y533497D01*
X63089Y533425D01*
X63341Y533173D01*
X63413Y533030D01*
X63737Y532778D01*
X63881Y532706D01*
X64061Y532526D01*
X64133Y532382D01*
X64385Y532202D01*
X64529Y532130D01*
X64781Y531878D01*
X64852Y531734D01*
X65248Y531410D01*
X65392Y531338D01*
X65860Y530871D01*
X66328Y530691D01*
X66652Y530511D01*
X66832Y530259D01*
X67227Y530007D01*
X67623Y529899D01*
X67767Y529755D01*
X67911Y529683D01*
X68127Y529467D01*
X68271Y529395D01*
X68883Y529143D01*
X69278Y528820D01*
X70070Y528532D01*
X70862Y528028D01*
X71150Y527956D01*
X71797Y527668D01*
X72193Y527416D01*
X72733Y527308D01*
X73309Y527164D01*
X74064Y526768D01*
X74460Y526660D01*
X74748Y526589D01*
X75468Y526517D01*
X76259Y526157D01*
X76727Y525977D01*
X78850Y525869D01*
X79066Y525797D01*
X80146Y525725D01*
X80649Y525581D01*
X80793Y525437D01*
X84176Y525365D01*
X84967Y525725D01*
X86047Y525797D01*
X86263Y525869D01*
X88206Y525941D01*
X88709Y526013D01*
X89609Y526481D01*
X90221Y526589D01*
X91228Y526732D01*
X91660Y527020D01*
X92128Y527200D01*
X92596Y527308D01*
X92884Y527380D01*
X93243Y527524D01*
X93387Y527596D01*
X93495Y527704D01*
X93855Y527848D01*
X94251Y527956D01*
X94611Y528100D01*
X95150Y528496D01*
X95546Y528604D01*
X95906Y528748D01*
X96050Y528820D01*
X96374Y529143D01*
X96842Y529323D01*
X97130Y529395D01*
X97381Y529647D01*
X97453Y529791D01*
X97633Y529899D01*
X97993Y530043D01*
X98281Y530115D01*
X98461Y530295D01*
X98857Y530619D01*
X99073Y530691D01*
X99468Y531087D01*
X99541Y531230D01*
X100368Y531626D01*
X100764Y532022D01*
X101196Y532310D01*
X101268Y532454D01*
X101520Y532706D01*
X101664Y532778D01*
X102059Y533173D01*
X102239Y533425D01*
X102383Y533497D01*
X102707Y533821D01*
X102779Y533965D01*
X103031Y534217D01*
X103175Y534289D01*
X103283Y534397D01*
X103355Y534541D01*
X103679Y534865D01*
X103822Y534937D01*
X104290Y535548D01*
X104362Y535692D01*
X104542Y535872D01*
X104866Y536268D01*
X104938Y536412D01*
X105370Y536844D01*
X105658Y537348D01*
X105730Y537491D01*
X106018Y537779D01*
X106377Y538427D01*
X106593Y538643D01*
X106881Y539147D01*
X107097Y539650D01*
X107205Y539758D01*
X107349Y539830D01*
X107529Y540082D01*
X107601Y540370D01*
X107745Y540874D01*
X107853Y540982D01*
X107997Y541054D01*
X108248Y541306D01*
X108320Y541738D01*
X108392Y542241D01*
X108572Y542565D01*
X108716Y542637D01*
X108932Y542997D01*
X109040Y543393D01*
X109112Y543896D01*
X109256Y544256D01*
X109508Y544508D01*
X109652Y544868D01*
X109760Y545480D01*
X109832Y545984D01*
X109904Y546271D01*
X110300Y547027D01*
X110372Y547387D01*
X110479Y548287D01*
X110623Y549150D01*
X110767Y549510D01*
X110839Y550230D01*
X110911Y550446D01*
X110983Y551669D01*
X111055Y551885D01*
X111127Y555339D01*
X111055Y555555D01*
X110983Y557426D01*
X110875Y557822D01*
X110731Y558398D01*
X110587Y559118D01*
X110479Y560017D01*
X110407Y560305D01*
X110336Y560809D01*
X110264Y561097D01*
X110120Y561456D01*
X109940Y561852D01*
X109760Y562608D01*
X109688Y563112D01*
X109472Y563615D01*
X109400Y563759D01*
X109256Y563903D01*
X109148Y564155D01*
X109040Y564767D01*
X108896Y565271D01*
X108716Y565451D01*
X108428Y565882D01*
X108320Y566350D01*
X108176Y566854D01*
X108069Y566962D01*
X107745Y567358D01*
X107637Y567610D01*
X107529Y568005D01*
X107133Y568401D01*
X106953Y568869D01*
X106809Y569229D01*
X106449Y569589D01*
X106233Y569949D01*
X106089Y570308D01*
X105802Y570596D01*
X105514Y571100D01*
X105226Y571388D01*
X104866Y571892D01*
X104794Y572035D01*
X104686Y572144D01*
X104542Y572215D01*
X104362Y572395D01*
X104290Y572539D01*
X104146Y572683D01*
X104074Y572827D01*
X103966Y572935D01*
X103715Y573115D01*
X103643Y573259D01*
X103391Y573511D01*
X103247Y573583D01*
X102923Y573907D01*
X102851Y574051D01*
X102527Y574374D01*
X102383Y574446D01*
X102347Y574554D01*
X101556Y575346D01*
X101160Y575670D01*
X101016Y575742D01*
X100836Y575922D01*
X100764Y576066D01*
X100296Y576390D01*
X100152Y576461D01*
X100116Y576569D01*
X100008Y576677D01*
X99756Y576857D01*
X99325Y577145D01*
X99253Y577289D01*
X99037Y577505D01*
X98569Y577685D01*
X98281Y577757D01*
X98101Y577937D01*
X98029Y578081D01*
X97921Y578189D01*
X97561Y578405D01*
X97202Y578549D01*
X97058Y578620D01*
X96914Y578764D01*
X96662Y578944D01*
X96194Y579124D01*
X95834Y579268D01*
X95690Y579412D01*
X95043Y579772D01*
X94755Y579844D01*
X94359Y580024D01*
X93783Y580384D01*
X93315Y580492D01*
X92416Y580887D01*
X92056Y581031D01*
X91588Y581139D01*
X91300Y581211D01*
X90689Y581463D01*
X90329Y581607D01*
X90041Y581679D01*
X89285Y581787D01*
X88422Y582003D01*
X88026Y582111D01*
X87450Y582327D01*
X86119Y582435D01*
X85903Y582507D01*
X85507Y582471D01*
X84607Y582507D01*
X84391Y582579D01*
D02*
G37*
%LPD*%
D12*
X43180Y189560D02*
G03*
X43180Y190560I0J500D01*
G01*
D02*
G03*
X43180Y189560I0J-500D01*
G01*
D02*
G03*
X43180Y190560I0J500D01*
G01*
X307340Y189560D02*
G03*
X307340Y190560I0J500D01*
G01*
D02*
G03*
X307340Y189560I0J-500D01*
G01*
D02*
G03*
X307340Y190560I0J500D01*
G01*
X226060Y184150D02*
Y209550D01*
X124460D02*
X226060D01*
X124460Y184150D02*
X226060D01*
X124460D02*
Y209550D01*
D13*
X105483Y744399D02*
Y738595D01*
X105845Y737506D01*
X106208Y737144D01*
X106934Y736781D01*
X107659D01*
X108385Y737144D01*
X108748Y737506D01*
X109110Y738595D01*
Y739320D01*
X103524Y742948D02*
X102798Y743311D01*
X101710Y744399D01*
Y736781D01*
X118599Y195399D02*
X115334D01*
X114246Y195761D01*
X113883Y196124D01*
X113520Y196850D01*
Y197938D01*
X113883Y198664D01*
X114246Y199026D01*
X115334Y199389D01*
X118599D01*
Y191771D01*
X111815Y197938D02*
X111089Y198301D01*
X110001Y199389D01*
Y191771D01*
X79175Y195579D02*
Y189775D01*
X79538Y188686D01*
X79901Y188324D01*
X80626Y187961D01*
X81352D01*
X82077Y188324D01*
X82440Y188686D01*
X82803Y189775D01*
Y190500D01*
X76853Y193765D02*
Y194128D01*
X76491Y194854D01*
X76128Y195216D01*
X75402Y195579D01*
X73951D01*
X73225Y195216D01*
X72863Y194854D01*
X72500Y194128D01*
Y193403D01*
X72863Y192677D01*
X73588Y191589D01*
X77216Y187961D01*
X72137D01*
X277295Y191769D02*
Y185965D01*
X277658Y184876D01*
X278021Y184514D01*
X278746Y184151D01*
X279472D01*
X280197Y184514D01*
X280560Y184876D01*
X280923Y185965D01*
Y186690D01*
X274611Y191769D02*
X270620D01*
X272797Y188867D01*
X271708D01*
X270983Y188504D01*
X270620Y188141D01*
X270257Y187053D01*
Y186327D01*
X270620Y185239D01*
X271346Y184514D01*
X272434Y184151D01*
X273522D01*
X274611Y184514D01*
X274973Y184876D01*
X275336Y185602D01*
D58*
X10680Y177560D02*
X75680D01*
Y96760D02*
Y177560D01*
X10680Y96760D02*
X75680D01*
X10680D02*
Y177560D01*
X274840Y96760D02*
Y177560D01*
Y96760D02*
X339840D01*
Y177560D01*
X274840D02*
X339840D01*
D59*
X227990Y688520D02*
X232990Y691520D01*
X227990Y688520D02*
X232990Y685520D01*
Y691520D01*
X215990Y678420D02*
X223240D01*
X124740D02*
X131990D01*
X223240D02*
Y777520D01*
X124740D02*
X223240D01*
X124740Y678420D02*
Y777520D01*
M02*
