G04*
G04 #@! TF.GenerationSoftware,Altium Limited,Altium Designer,23.0.1 (38)*
G04*
G04 Layer_Color=8421504*
%FSLAX44Y44*%
%MOMM*%
G71*
G04*
G04 #@! TF.SameCoordinates,4F8D76B3-19B9-4F14-BD17-49225F6037FE*
G04*
G04*
G04 #@! TF.FilePolarity,Positive*
G04*
G01*
G75*
%ADD14R,1.5000X1.4000*%
%ADD15R,1.0000X0.8000*%
G04:AMPARAMS|DCode=16|XSize=1.5242mm|YSize=0.578mm|CornerRadius=0.289mm|HoleSize=0mm|Usage=FLASHONLY|Rotation=270.000|XOffset=0mm|YOffset=0mm|HoleType=Round|Shape=RoundedRectangle|*
%AMROUNDEDRECTD16*
21,1,1.5242,0.0000,0,0,270.0*
21,1,0.9463,0.5780,0,0,270.0*
1,1,0.5780,0.0000,-0.4731*
1,1,0.5780,0.0000,0.4731*
1,1,0.5780,0.0000,0.4731*
1,1,0.5780,0.0000,-0.4731*
%
%ADD16ROUNDEDRECTD16*%
%ADD17R,0.5780X1.5242*%
%ADD18R,0.8000X0.6000*%
%ADD19O,0.3000X1.7000*%
%ADD20R,1.4000X1.5000*%
%ADD21R,5.9500X5.5500*%
%ADD22R,2.8500X1.0000*%
%ADD23R,0.8000X1.0000*%
%ADD24O,0.3500X2.0000*%
%ADD25R,0.6000X0.8000*%
%ADD26R,1.0057X1.3082*%
%ADD27C,0.5080*%
D14*
X133350Y230530D02*
D03*
Y249530D02*
D03*
X238460Y124910D02*
D03*
Y143910D02*
D03*
X105110Y124910D02*
D03*
Y143910D02*
D03*
X126700Y98190D02*
D03*
Y79190D02*
D03*
X215600Y98190D02*
D03*
Y79190D02*
D03*
X125730Y393040D02*
D03*
Y374040D02*
D03*
X181610Y245720D02*
D03*
Y226720D02*
D03*
D15*
X199390Y581540D02*
D03*
Y566540D02*
D03*
X261620Y582810D02*
D03*
Y567810D02*
D03*
X167640Y449580D02*
D03*
Y464580D02*
D03*
X226060Y490100D02*
D03*
Y475100D02*
D03*
X330200Y330320D02*
D03*
Y345320D02*
D03*
Y296150D02*
D03*
Y311150D02*
D03*
X316230Y365880D02*
D03*
Y380880D02*
D03*
X294640Y365880D02*
D03*
Y380880D02*
D03*
X271780Y332620D02*
D03*
Y317620D02*
D03*
X102870Y64890D02*
D03*
Y79890D02*
D03*
X240030Y62350D02*
D03*
Y77350D02*
D03*
X250190Y625990D02*
D03*
Y610990D02*
D03*
X226060Y625990D02*
D03*
Y610990D02*
D03*
X62230Y363340D02*
D03*
Y378340D02*
D03*
X83820Y363340D02*
D03*
Y378340D02*
D03*
X100330Y309880D02*
D03*
Y294880D02*
D03*
Y344050D02*
D03*
Y329050D02*
D03*
X20320Y331350D02*
D03*
Y316350D02*
D03*
X41910Y331350D02*
D03*
Y316350D02*
D03*
X250190Y332620D02*
D03*
Y317620D02*
D03*
X129240Y135680D02*
D03*
Y120680D02*
D03*
X214330Y136830D02*
D03*
Y121830D02*
D03*
X205440Y56820D02*
D03*
Y41820D02*
D03*
X139400Y56820D02*
D03*
Y41820D02*
D03*
X183850Y56820D02*
D03*
Y41820D02*
D03*
X160990Y56820D02*
D03*
Y41820D02*
D03*
X144780Y464700D02*
D03*
Y449700D02*
D03*
X247650Y474980D02*
D03*
Y489980D02*
D03*
X123190Y464700D02*
D03*
Y449700D02*
D03*
X226060Y454420D02*
D03*
Y439420D02*
D03*
X215900Y388500D02*
D03*
Y373500D02*
D03*
X172720Y388500D02*
D03*
Y373500D02*
D03*
X151130Y388500D02*
D03*
Y373500D02*
D03*
X207010Y247530D02*
D03*
Y232530D02*
D03*
X229870Y247530D02*
D03*
Y232530D02*
D03*
X194310Y388500D02*
D03*
Y373500D02*
D03*
X87630Y233800D02*
D03*
Y248800D02*
D03*
X109220Y248800D02*
D03*
Y233800D02*
D03*
X157480Y248800D02*
D03*
Y233800D02*
D03*
D16*
X229870Y564938D02*
D03*
X220370Y583142D02*
D03*
X293370Y566208D02*
D03*
X283870Y584412D02*
D03*
D17*
X239370Y583142D02*
D03*
X302870Y584412D02*
D03*
D18*
X208280Y610720D02*
D03*
Y623720D02*
D03*
X267970Y610720D02*
D03*
Y623720D02*
D03*
D19*
X206850Y482780D02*
D03*
X201850D02*
D03*
X196850D02*
D03*
X191850D02*
D03*
X186850D02*
D03*
X206850Y441780D02*
D03*
X201850D02*
D03*
X196850D02*
D03*
X191850D02*
D03*
X186850D02*
D03*
X290990Y303350D02*
D03*
X295990D02*
D03*
X300990D02*
D03*
X305990D02*
D03*
X310990D02*
D03*
X290990Y344350D02*
D03*
X295990D02*
D03*
X300990D02*
D03*
X305990D02*
D03*
X310990D02*
D03*
X61120Y298270D02*
D03*
X66120D02*
D03*
X71120D02*
D03*
X76120D02*
D03*
X81120D02*
D03*
X61120Y339270D02*
D03*
X66120D02*
D03*
X71120D02*
D03*
X76120D02*
D03*
X81120D02*
D03*
D20*
X33680Y85090D02*
D03*
X52680D02*
D03*
X250850Y355600D02*
D03*
X269850D02*
D03*
X215290Y412750D02*
D03*
X234290D02*
D03*
X297840Y85090D02*
D03*
X316840D02*
D03*
X19710Y355600D02*
D03*
X38710D02*
D03*
X144780Y488950D02*
D03*
X163780D02*
D03*
D21*
X48260Y577850D02*
D03*
D22*
X115760Y600750D02*
D03*
Y577850D02*
D03*
Y554950D02*
D03*
D23*
X272930Y297180D02*
D03*
X257930D02*
D03*
X161170Y574040D02*
D03*
X146170D02*
D03*
X43060Y295910D02*
D03*
X28060D02*
D03*
X161170Y596900D02*
D03*
X146170D02*
D03*
X161170Y551180D02*
D03*
X146170D02*
D03*
X161170Y621030D02*
D03*
X146170D02*
D03*
X168790Y429260D02*
D03*
X153790D02*
D03*
D24*
X190650Y140550D02*
D03*
X184150D02*
D03*
X177650D02*
D03*
X171150D02*
D03*
X164650D02*
D03*
X158150D02*
D03*
X151650D02*
D03*
X190650Y82550D02*
D03*
X184150D02*
D03*
X177650D02*
D03*
X171150D02*
D03*
X164650D02*
D03*
X158150D02*
D03*
X151650D02*
D03*
D25*
X228750Y534670D02*
D03*
X215750D02*
D03*
X242420D02*
D03*
X255420D02*
D03*
D26*
X108308Y628650D02*
D03*
X122832D02*
D03*
X91082D02*
D03*
X76558D02*
D03*
X121562Y527050D02*
D03*
X107038D02*
D03*
D27*
X121968Y424132D02*
X139700Y406400D01*
M02*
