G04*
G04 #@! TF.GenerationSoftware,Altium Limited,Altium Designer,23.0.1 (38)*
G04*
G04 Layer_Physical_Order=1*
G04 Layer_Color=255*
%FSLAX44Y44*%
%MOMM*%
G71*
G04*
G04 #@! TF.SameCoordinates,B26DCD0B-EA3B-4DC6-9C7F-F6099DF497CD*
G04*
G04*
G04 #@! TF.FilePolarity,Positive*
G04*
G01*
G75*
%ADD18R,0.8000X1.0000*%
%ADD19R,0.8500X0.7500*%
%ADD20R,2.8000X1.6000*%
%ADD21R,1.4000X1.5000*%
%ADD22R,0.7500X0.8500*%
%ADD23R,0.8000X0.8000*%
%ADD24R,2.4741X0.6221*%
G04:AMPARAMS|DCode=25|XSize=2.4741mm|YSize=0.6221mm|CornerRadius=0.3111mm|HoleSize=0mm|Usage=FLASHONLY|Rotation=0.000|XOffset=0mm|YOffset=0mm|HoleType=Round|Shape=RoundedRectangle|*
%AMROUNDEDRECTD25*
21,1,2.4741,0.0000,0,0,0.0*
21,1,1.8519,0.6221,0,0,0.0*
1,1,0.6221,0.9260,0.0000*
1,1,0.6221,-0.9260,0.0000*
1,1,0.6221,-0.9260,0.0000*
1,1,0.6221,0.9260,0.0000*
%
%ADD25ROUNDEDRECTD25*%
G04:AMPARAMS|DCode=26|XSize=0.76mm|YSize=0.6604mm|CornerRadius=0.0825mm|HoleSize=0mm|Usage=FLASHONLY|Rotation=270.000|XOffset=0mm|YOffset=0mm|HoleType=Round|Shape=RoundedRectangle|*
%AMROUNDEDRECTD26*
21,1,0.7600,0.4953,0,0,270.0*
21,1,0.5949,0.6604,0,0,270.0*
1,1,0.1651,-0.2477,-0.2975*
1,1,0.1651,-0.2477,0.2975*
1,1,0.1651,0.2477,0.2975*
1,1,0.1651,0.2477,-0.2975*
%
%ADD26ROUNDEDRECTD26*%
G04:AMPARAMS|DCode=27|XSize=1.9mm|YSize=0.6mm|CornerRadius=0.075mm|HoleSize=0mm|Usage=FLASHONLY|Rotation=180.000|XOffset=0mm|YOffset=0mm|HoleType=Round|Shape=RoundedRectangle|*
%AMROUNDEDRECTD27*
21,1,1.9000,0.4500,0,0,180.0*
21,1,1.7500,0.6000,0,0,180.0*
1,1,0.1500,-0.8750,0.2250*
1,1,0.1500,0.8750,0.2250*
1,1,0.1500,0.8750,-0.2250*
1,1,0.1500,-0.8750,-0.2250*
%
%ADD27ROUNDEDRECTD27*%
%ADD28R,0.8000X0.8000*%
%ADD29R,1.5000X1.4000*%
%ADD30R,1.0000X0.8000*%
%ADD31R,0.8000X0.6000*%
%ADD32R,0.9500X0.8000*%
%ADD33R,1.1000X1.0000*%
%ADD34R,1.0000X3.5000*%
%ADD35R,5.0800X1.7780*%
%ADD36R,0.8000X0.9500*%
%ADD37R,0.9000X1.0500*%
%ADD38R,0.7500X0.9000*%
%ADD39R,0.5500X1.0500*%
%ADD40R,1.1500X2.7000*%
%ADD41R,2.7000X1.1500*%
%ADD47R,2.0250X3.1000*%
%ADD51R,1.7500X0.8000*%
%ADD54R,1.7500X0.7000*%
%ADD55R,0.7000X1.8000*%
%ADD56R,0.8000X1.8000*%
%ADD60R,3.9624X3.9624*%
%ADD64C,1.5700*%
%ADD68R,1.5700X1.5700*%
%ADD69C,3.0000*%
%ADD74C,0.6350*%
%ADD75C,0.3048*%
%ADD76C,0.5080*%
%ADD77C,0.3448*%
%ADD78C,0.3448*%
%ADD79R,1.5600X1.5600*%
%ADD80C,1.5600*%
%ADD81C,2.5000*%
%ADD82C,2.0500*%
%ADD83R,2.0500X2.0500*%
%ADD84C,6.0000*%
%ADD85C,0.6500*%
G36*
X489698Y998709D02*
X495944Y997078D01*
X501924Y994644D01*
X507534Y991450D01*
X512680Y987550D01*
X517271Y983012D01*
X521231Y977912D01*
X524490Y972339D01*
X526993Y966388D01*
X528697Y960161D01*
X529574Y953765D01*
X529590Y950537D01*
X529590Y950537D01*
X529590Y950537D01*
Y774700D01*
Y774195D01*
X529203Y773261D01*
X528489Y772547D01*
X527555Y772160D01*
X461010D01*
X460762Y772136D01*
X460304Y771946D01*
X459954Y771596D01*
X459764Y771138D01*
X459740Y770890D01*
Y727336D01*
X457708Y726501D01*
X456670Y727539D01*
X454660Y728371D01*
Y722630D01*
Y716889D01*
X456670Y717721D01*
X457708Y718759D01*
X459740Y717924D01*
Y596900D01*
X345440D01*
X325120Y576580D01*
X320875D01*
X320033Y578612D01*
X343093Y601671D01*
X376206D01*
X376206Y601671D01*
X377296Y601888D01*
X378220Y602506D01*
X385642Y609928D01*
X385642Y609928D01*
X385916Y610337D01*
X392729Y617150D01*
X401240D01*
Y627690D01*
X388700D01*
Y621179D01*
X381614Y614092D01*
X381340Y613683D01*
X375026Y607369D01*
X348665D01*
X347823Y609401D01*
X348002Y609580D01*
X348690Y611241D01*
Y612286D01*
X353554Y617150D01*
X360600D01*
Y618535D01*
X368380D01*
Y617150D01*
X380920D01*
Y627690D01*
X368380D01*
Y626305D01*
X360600D01*
Y627690D01*
X348060D01*
Y622644D01*
X342132Y616716D01*
X340280Y617737D01*
Y627690D01*
X327740D01*
Y617150D01*
X331161D01*
Y605700D01*
X327201Y601739D01*
X325189Y602602D01*
X325189Y603485D01*
Y612329D01*
X322768D01*
Y620481D01*
X322768Y620481D01*
X322551Y621571D01*
X322250Y622022D01*
Y628690D01*
X310210D01*
Y618150D01*
X317071D01*
Y612329D01*
X314649D01*
Y601789D01*
X323359D01*
X324377Y601789D01*
X325239Y599778D01*
X313780Y588319D01*
X299969D01*
X299565Y590351D01*
X300460Y590721D01*
X302089Y592350D01*
X302921Y594360D01*
X291439D01*
X292271Y592350D01*
X293900Y590721D01*
X294795Y590351D01*
X294391Y588319D01*
X268981D01*
X268139Y590351D01*
X296209Y618420D01*
X304720D01*
Y628960D01*
X292180D01*
Y622449D01*
X282516Y612785D01*
X282005Y613019D01*
X280840Y613982D01*
X280979Y614680D01*
Y618420D01*
X284400D01*
Y628960D01*
X271860D01*
Y618420D01*
X275281D01*
Y615860D01*
X259170Y599749D01*
X167640D01*
X167640Y599749D01*
X166550Y599532D01*
X165626Y598914D01*
X165626Y598914D01*
X161126Y594415D01*
X156205D01*
X155363Y596447D01*
X163765Y604849D01*
X163765Y604849D01*
X164146Y605420D01*
X166868Y608141D01*
X168990D01*
Y605720D01*
X181530D01*
Y616260D01*
X168990D01*
Y613839D01*
X165688D01*
X165688Y613839D01*
X164598Y613622D01*
X163674Y613004D01*
X159736Y609067D01*
X157708Y609565D01*
X157400Y609773D01*
Y616260D01*
X144860D01*
Y613552D01*
X140071D01*
X140071Y613552D01*
X138981Y613335D01*
X138056Y612718D01*
X138056Y612718D01*
X133877Y608539D01*
X132000Y609316D01*
Y616380D01*
X119460D01*
Y614876D01*
X117943Y613631D01*
X116853Y613414D01*
X115929Y612797D01*
X115929Y612797D01*
X109902Y606770D01*
X107870Y607611D01*
Y616380D01*
X95330D01*
Y608909D01*
X95320Y608859D01*
X92356Y605895D01*
X83740D01*
Y616380D01*
X71200D01*
Y611483D01*
X48246D01*
X24114Y635614D01*
X24452Y636199D01*
X25070Y638506D01*
Y640894D01*
X24452Y643201D01*
X23258Y645269D01*
X21569Y646958D01*
X19501Y648152D01*
X17194Y648770D01*
X14806D01*
X12499Y648152D01*
X10431Y646958D01*
X8742Y645269D01*
X7548Y643201D01*
X6930Y640894D01*
Y638506D01*
X7548Y636199D01*
X8742Y634131D01*
X10431Y632442D01*
X12499Y631248D01*
X14806Y630630D01*
X17194D01*
X19501Y631248D01*
X20086Y631586D01*
X31740Y619931D01*
X30898Y617900D01*
X30629D01*
X28501Y617018D01*
X27065Y615583D01*
X26443Y615555D01*
X26283Y615578D01*
X24931Y616013D01*
X24452Y617801D01*
X23258Y619869D01*
X21569Y621558D01*
X19501Y622752D01*
X17194Y623370D01*
X14806D01*
X12499Y622752D01*
X10431Y621558D01*
X8742Y619869D01*
X7548Y617801D01*
X6930Y615494D01*
Y613106D01*
X7548Y610799D01*
X8742Y608731D01*
X10431Y607042D01*
X12499Y605848D01*
X14806Y605230D01*
X17194D01*
X19501Y605848D01*
X20086Y606186D01*
X25240Y601032D01*
X26164Y600414D01*
X27254Y600197D01*
X27694Y598233D01*
X27707Y598165D01*
X27231Y597968D01*
X25602Y596339D01*
X25152Y595252D01*
X24524Y594993D01*
X22843Y594884D01*
X21569Y596158D01*
X19501Y597352D01*
X17194Y597970D01*
X14806D01*
X12499Y597352D01*
X10431Y596158D01*
X8742Y594469D01*
X7548Y592401D01*
X6930Y590094D01*
Y587706D01*
X7548Y585399D01*
X8742Y583331D01*
X10431Y581642D01*
X12499Y580448D01*
X14806Y579830D01*
X17194D01*
X19501Y580448D01*
X21569Y581642D01*
X22086Y582159D01*
X22971Y581568D01*
X24062Y581351D01*
X24062Y581351D01*
X34699D01*
X35540Y579319D01*
X25489Y569268D01*
X23258Y569069D01*
X21569Y570758D01*
X19501Y571952D01*
X17194Y572570D01*
X14806D01*
X12499Y571952D01*
X10431Y570758D01*
X8742Y569069D01*
X7548Y567001D01*
X6930Y564694D01*
Y562306D01*
X7548Y559999D01*
X8742Y557931D01*
X10431Y556242D01*
X12499Y555048D01*
X14806Y554430D01*
X16668D01*
X17478Y553054D01*
X17595Y552484D01*
X15306Y550195D01*
X14688Y549271D01*
X14471Y548180D01*
X14472Y548180D01*
Y547080D01*
X12499Y546552D01*
X10431Y545358D01*
X8742Y543669D01*
X7548Y541601D01*
X6930Y539294D01*
Y536906D01*
X7548Y534599D01*
X8742Y532531D01*
X10431Y530842D01*
X12499Y529648D01*
X14806Y529030D01*
X17194D01*
X19501Y529648D01*
X21569Y530842D01*
X23258Y532531D01*
X24075Y533947D01*
X26107Y533402D01*
Y519938D01*
X24927Y519366D01*
X24075Y519248D01*
X22349Y520974D01*
X19991Y522335D01*
X17361Y523040D01*
X17270D01*
Y512700D01*
Y502360D01*
X17361D01*
X19991Y503065D01*
X22349Y504426D01*
X24075Y506152D01*
X24927Y506034D01*
X26107Y505462D01*
Y491998D01*
X24075Y491453D01*
X23258Y492869D01*
X21569Y494558D01*
X19501Y495752D01*
X17194Y496370D01*
X14806D01*
X12499Y495752D01*
X10431Y494558D01*
X8742Y492869D01*
X7548Y490801D01*
X6930Y488494D01*
Y486106D01*
X7548Y483799D01*
X8742Y481731D01*
X10431Y480042D01*
X12499Y478848D01*
X14806Y478230D01*
X17194D01*
X19501Y478848D01*
X21569Y480042D01*
X23258Y481731D01*
X24075Y483147D01*
X26107Y482602D01*
Y466598D01*
X24075Y466053D01*
X23258Y467469D01*
X21569Y469158D01*
X19501Y470352D01*
X17194Y470970D01*
X14806D01*
X12499Y470352D01*
X10431Y469158D01*
X8742Y467469D01*
X7548Y465401D01*
X6930Y463094D01*
Y460706D01*
X7548Y458399D01*
X8742Y456331D01*
X10431Y454642D01*
X12499Y453448D01*
X14806Y452830D01*
X17194D01*
X19501Y453448D01*
X21569Y454642D01*
X23258Y456331D01*
X24075Y457747D01*
X26107Y457202D01*
Y441198D01*
X24075Y440653D01*
X23258Y442069D01*
X21569Y443758D01*
X19501Y444952D01*
X17194Y445570D01*
X14806D01*
X12499Y444952D01*
X10431Y443758D01*
X8742Y442069D01*
X7548Y440001D01*
X6930Y437694D01*
Y435306D01*
X7548Y432999D01*
X8742Y430931D01*
X10431Y429242D01*
X12499Y428048D01*
X14806Y427430D01*
X17194D01*
X19501Y428048D01*
X21569Y429242D01*
X23258Y430931D01*
X24075Y432347D01*
X26107Y431802D01*
Y425236D01*
X20086Y419214D01*
X19501Y419552D01*
X17194Y420170D01*
X14806D01*
X12499Y419552D01*
X10431Y418358D01*
X8742Y416669D01*
X7548Y414601D01*
X6930Y412294D01*
Y409906D01*
X7548Y407599D01*
X8742Y405531D01*
X10431Y403842D01*
X12499Y402648D01*
X14806Y402030D01*
X17194D01*
X19501Y402648D01*
X21569Y403842D01*
X23258Y405531D01*
X24452Y407599D01*
X25070Y409906D01*
Y412294D01*
X24452Y414601D01*
X24114Y415186D01*
X29663Y420734D01*
X31695Y419893D01*
Y405424D01*
X20086Y393814D01*
X19501Y394152D01*
X17194Y394770D01*
X14806D01*
X12499Y394152D01*
X10431Y392958D01*
X8742Y391269D01*
X7548Y389201D01*
X6930Y386894D01*
Y384506D01*
X7548Y382199D01*
X8742Y380131D01*
X10431Y378442D01*
X12499Y377248D01*
X14806Y376630D01*
X17194D01*
X19501Y377248D01*
X21569Y378442D01*
X23258Y380131D01*
X24452Y382199D01*
X25059Y384467D01*
X25844Y384851D01*
X27102Y385079D01*
X28470Y383711D01*
X30598Y382830D01*
X31627D01*
X32469Y380798D01*
X20086Y368414D01*
X19501Y368752D01*
X17194Y369370D01*
X14806D01*
X12499Y368752D01*
X10431Y367558D01*
X8742Y365869D01*
X7548Y363801D01*
X6930Y361494D01*
Y359106D01*
X7548Y356799D01*
X8742Y354731D01*
X10431Y353042D01*
X12499Y351848D01*
X14806Y351230D01*
X17194D01*
X19501Y351848D01*
X21569Y353042D01*
X23258Y354731D01*
X24452Y356799D01*
X25070Y359106D01*
Y361494D01*
X24452Y363801D01*
X24114Y364386D01*
X27768Y368040D01*
X29801Y367198D01*
Y365848D01*
X30682Y363719D01*
X32311Y362091D01*
X34439Y361209D01*
X35407D01*
X36248Y359177D01*
X20086Y343014D01*
X19501Y343352D01*
X17194Y343970D01*
X14806D01*
X12499Y343352D01*
X10431Y342158D01*
X8742Y340469D01*
X7548Y338401D01*
X6930Y336094D01*
Y333706D01*
X7548Y331399D01*
X8742Y329331D01*
X10431Y327642D01*
X12499Y326448D01*
X14806Y325830D01*
X17194D01*
X19501Y326448D01*
X21569Y327642D01*
X23258Y329331D01*
X24452Y331399D01*
X25070Y333706D01*
Y336094D01*
X24452Y338401D01*
X24114Y338986D01*
X47498Y362369D01*
X48467Y362210D01*
X49530Y361635D01*
Y241300D01*
X0D01*
Y949960D01*
Y953206D01*
X847Y959643D01*
X2528Y965915D01*
X5013Y971913D01*
X8259Y977536D01*
X12211Y982687D01*
X16803Y987278D01*
X21953Y991231D01*
X27576Y994477D01*
X33575Y996962D01*
X39846Y998642D01*
X46283Y999490D01*
X49530D01*
X49530Y999490D01*
X480064Y999490D01*
X483292Y999511D01*
X489698Y998709D01*
D02*
G37*
G36*
X530860Y50860D02*
X530860Y47629D01*
X530017Y41223D01*
X528345Y34981D01*
X525872Y29012D01*
X522642Y23416D01*
X518708Y18289D01*
X514139Y13720D01*
X509013Y9787D01*
X503417Y6556D01*
X497447Y4083D01*
X491205Y2411D01*
X484799Y1568D01*
X481568Y1568D01*
X48558D01*
X45380Y1568D01*
X39077Y2398D01*
X32937Y4043D01*
X27064Y6476D01*
X21558Y9655D01*
X16515Y13525D01*
X12019Y18020D01*
X8150Y23063D01*
X4971Y28568D01*
X2538Y34442D01*
X893Y40582D01*
X63Y46885D01*
X63Y50063D01*
X0Y59690D01*
Y237490D01*
X53340D01*
Y399498D01*
X55372Y400339D01*
X104666Y351046D01*
X104666Y351046D01*
X105590Y350428D01*
X106680Y350211D01*
X207710D01*
X207710Y350211D01*
X208800Y350428D01*
X209724Y351046D01*
X217124Y358445D01*
X219335Y357168D01*
X222837Y356230D01*
X226463D01*
X229965Y357168D01*
X233105Y358981D01*
X235669Y361545D01*
X237482Y364685D01*
X238420Y368187D01*
Y371813D01*
X237482Y375315D01*
X235669Y378455D01*
X233105Y381019D01*
X231702Y381829D01*
X232246Y383861D01*
X286760D01*
X293095Y377526D01*
X291818Y375315D01*
X290880Y371813D01*
Y368187D01*
X291818Y364685D01*
X293631Y361545D01*
X296195Y358981D01*
X299335Y357168D01*
X302837Y356230D01*
X306463D01*
X309965Y357168D01*
X313105Y358981D01*
X315669Y361545D01*
X317482Y364685D01*
X318420Y368187D01*
Y371813D01*
X317482Y375315D01*
X315669Y378455D01*
X313105Y381019D01*
X309965Y382832D01*
X306463Y383770D01*
X302837D01*
X299335Y382832D01*
X297124Y381555D01*
X289955Y388724D01*
X289955Y388724D01*
X289030Y389342D01*
X287940Y389558D01*
X287940Y389558D01*
X262225D01*
X261585Y391590D01*
X262404Y392410D01*
X263092Y394071D01*
Y395485D01*
X264171Y396221D01*
X264970Y396482D01*
X266972Y394480D01*
X266972Y394480D01*
X267896Y393862D01*
X268986Y393645D01*
X329436D01*
X331800Y391281D01*
Y384770D01*
X343840D01*
Y395310D01*
X335829D01*
X333937Y397201D01*
X334779Y399233D01*
X354328D01*
X362280Y391281D01*
Y384770D01*
X374320D01*
Y395310D01*
X366309D01*
X358829Y402789D01*
X359671Y404821D01*
X381240D01*
X391490Y394571D01*
Y384770D01*
X403530D01*
Y395310D01*
X398809D01*
X384434Y409684D01*
X383510Y410302D01*
X382420Y410519D01*
X382420Y410519D01*
X365750D01*
Y419100D01*
X356210D01*
Y421640D01*
X365750D01*
Y430410D01*
X362732D01*
X361779Y432330D01*
X362611Y434340D01*
X351129D01*
X351961Y432330D01*
X351008Y430410D01*
X346986D01*
X346670Y430410D01*
X344712Y430589D01*
Y432787D01*
X345218Y433293D01*
X345906Y434954D01*
Y436753D01*
X345218Y438414D01*
X343947Y439686D01*
X342285Y440374D01*
X340487D01*
X338826Y439686D01*
X337554Y438414D01*
X336866Y436753D01*
Y434954D01*
X336943Y434769D01*
Y429140D01*
X331764D01*
X330816Y431172D01*
X330942Y431360D01*
X331159Y432450D01*
Y443810D01*
X338386D01*
Y454350D01*
X322269D01*
X321440Y456247D01*
X322416Y457455D01*
X326334D01*
X326334Y457455D01*
X326609Y457510D01*
X338386D01*
Y467050D01*
X322163D01*
X321375Y468877D01*
X322464Y470210D01*
X338386D01*
Y479750D01*
X318346D01*
Y474239D01*
X316550Y472443D01*
X314518Y473284D01*
Y473710D01*
X308610D01*
X302702D01*
Y472334D01*
X302410Y471629D01*
X308151D01*
Y469089D01*
X302410D01*
X303242Y467079D01*
X303549Y466772D01*
X302708Y464740D01*
X296870D01*
Y452200D01*
X306030D01*
X306872Y450168D01*
X306596Y449892D01*
X305978Y448968D01*
X305761Y447877D01*
X303769Y447480D01*
X301200D01*
Y436440D01*
X303362D01*
X303900Y435479D01*
X304188Y434408D01*
X303613Y433548D01*
X303352Y432234D01*
Y430530D01*
X309260D01*
Y427990D01*
X303352D01*
Y426286D01*
X303613Y424972D01*
X304188Y424112D01*
X303740Y422080D01*
X303740D01*
X303740Y412139D01*
X302260Y411285D01*
X300780Y412139D01*
Y422080D01*
X290740D01*
Y421483D01*
X288730Y421430D01*
Y421430D01*
X282375D01*
X282000Y421505D01*
X281858D01*
X281199Y422358D01*
X282197Y424390D01*
X288730D01*
Y425507D01*
X290762Y425707D01*
X290810Y425468D01*
X291273Y424775D01*
X291966Y424312D01*
X292784Y424149D01*
X297736D01*
X298554Y424312D01*
X299247Y424775D01*
X299710Y425468D01*
X299873Y426286D01*
Y432234D01*
X299710Y433052D01*
X299247Y433745D01*
X298554Y434208D01*
X297736Y434371D01*
X296764D01*
Y436440D01*
X298240D01*
Y447480D01*
X288200D01*
Y436440D01*
X288200D01*
X288147Y434430D01*
X277690D01*
Y427689D01*
X275813Y426911D01*
X272413Y430310D01*
Y438335D01*
X272490Y438521D01*
Y440319D01*
X271802Y441981D01*
X270530Y443252D01*
X268869Y443940D01*
X267071D01*
X265410Y443252D01*
X264138Y441981D01*
X263450Y440319D01*
Y438521D01*
X264138Y436860D01*
X264644Y436353D01*
Y428701D01*
X264915Y427338D01*
X264827Y427213D01*
X262905Y426474D01*
X256849Y432531D01*
Y447130D01*
X265023Y455305D01*
X281870D01*
Y452200D01*
X292410D01*
Y464740D01*
X281870D01*
Y461002D01*
X263844D01*
X263843Y461002D01*
X262753Y460785D01*
X261829Y460168D01*
X261829Y460168D01*
X253293Y451632D01*
X251261Y452473D01*
Y468139D01*
X273273Y490151D01*
X275150Y489374D01*
Y482810D01*
X286190D01*
Y484906D01*
X290590D01*
Y482160D01*
X292261D01*
Y480091D01*
X292134D01*
X291316Y479928D01*
X290623Y479465D01*
X290160Y478772D01*
X289997Y477954D01*
Y472006D01*
X290160Y471188D01*
X290623Y470495D01*
X291316Y470032D01*
X292134Y469869D01*
X297087D01*
X297904Y470032D01*
X298597Y470495D01*
X299060Y471188D01*
X299223Y472006D01*
Y477954D01*
X299060Y478772D01*
X298597Y479465D01*
X297959Y479892D01*
Y482160D01*
X300630D01*
Y493200D01*
X290590D01*
Y490604D01*
X286190D01*
Y492850D01*
X278626D01*
X277849Y494727D01*
X280987Y497865D01*
X287324D01*
X287324Y497865D01*
X287599Y497920D01*
X295070D01*
Y510460D01*
X284530D01*
Y503563D01*
X279807D01*
X278716Y503346D01*
X277792Y502728D01*
X277792Y502728D01*
X247705Y472641D01*
X245673Y473483D01*
Y518504D01*
X264535Y537366D01*
X266257Y536215D01*
X265990Y535569D01*
Y533771D01*
X266678Y532109D01*
X267950Y530838D01*
X269611Y530150D01*
X271409D01*
X273071Y530838D01*
X273494Y531261D01*
X276420D01*
Y528530D01*
X287460D01*
Y530626D01*
X289997D01*
Y530425D01*
X290160Y529608D01*
X290623Y528915D01*
X291316Y528452D01*
X292134Y528289D01*
X292336D01*
Y526220D01*
X290740D01*
Y515180D01*
X300780D01*
Y526220D01*
X298034D01*
Y528538D01*
X298597Y528915D01*
X299060Y529608D01*
X299223Y530425D01*
Y536375D01*
X299060Y537192D01*
X298597Y537885D01*
X297904Y538348D01*
X297087Y538511D01*
X292134D01*
X291316Y538348D01*
X290623Y537885D01*
X290160Y537192D01*
X289997Y536375D01*
Y536324D01*
X287460D01*
Y538570D01*
X276420D01*
Y536959D01*
X274455D01*
X274342Y537230D01*
X273071Y538502D01*
X271409Y539190D01*
X269611D01*
X268965Y538923D01*
X267814Y540645D01*
X274230Y547061D01*
X284410D01*
Y543640D01*
X294950D01*
Y551224D01*
X295170Y551372D01*
X297533Y553734D01*
X299410Y552956D01*
Y543640D01*
X309950D01*
Y546086D01*
X322376D01*
X327351Y541110D01*
Y531550D01*
X318346D01*
Y521010D01*
X338386D01*
Y531550D01*
X333049D01*
Y542290D01*
X333049Y542290D01*
X332832Y543380D01*
X332214Y544304D01*
X332214Y544304D01*
X325570Y550949D01*
X324646Y551566D01*
X323556Y551783D01*
X323555Y551783D01*
X309950D01*
Y556180D01*
X311082Y557743D01*
X450541D01*
X451390Y555719D01*
X440810Y545139D01*
X428060D01*
Y548560D01*
X417520D01*
Y536020D01*
X427943D01*
X428272Y535941D01*
X429820Y535363D01*
Y533771D01*
X430147Y532982D01*
X429155Y530950D01*
X425010D01*
Y528704D01*
X422473D01*
Y528755D01*
X422310Y529572D01*
X421847Y530265D01*
X421154Y530728D01*
X420336Y530891D01*
X415383D01*
X414566Y530728D01*
X413873Y530265D01*
X413410Y529572D01*
X413247Y528755D01*
Y522805D01*
X413410Y521988D01*
X413873Y521295D01*
X414436Y520918D01*
Y518600D01*
X411690D01*
Y507560D01*
X421730D01*
Y518600D01*
X420134D01*
Y520669D01*
X420336D01*
X421154Y520832D01*
X421847Y521295D01*
X422310Y521988D01*
X422473Y522805D01*
Y523006D01*
X425010D01*
Y520910D01*
X436050D01*
Y527881D01*
X436105Y528156D01*
Y530508D01*
X436900Y530838D01*
X438172Y532109D01*
X438860Y533771D01*
Y535569D01*
X438172Y537230D01*
X437993Y537409D01*
X438835Y539441D01*
X441990D01*
X441990Y539441D01*
X441990Y539441D01*
X447130D01*
X484831Y501740D01*
Y395310D01*
X481660D01*
Y384770D01*
X493700D01*
Y395310D01*
X490529D01*
Y502920D01*
X490529Y502920D01*
X490312Y504010D01*
X489694Y504934D01*
X450324Y544304D01*
X450372Y546643D01*
X509914Y606186D01*
X510499Y605848D01*
X512806Y605230D01*
X515194D01*
X517501Y605848D01*
X519569Y607042D01*
X521258Y608731D01*
X522452Y610799D01*
X523070Y613106D01*
Y615494D01*
X522452Y617801D01*
X521258Y619869D01*
X519569Y621558D01*
X517501Y622752D01*
X515194Y623370D01*
X512806D01*
X510499Y622752D01*
X508431Y621558D01*
X506742Y619869D01*
X506532Y619506D01*
X504500Y620050D01*
Y631703D01*
X506532Y632545D01*
X507651Y631426D01*
X510009Y630065D01*
X512639Y629360D01*
X512730D01*
Y639700D01*
Y650040D01*
X512639D01*
X510009Y649335D01*
X507651Y647974D01*
X506532Y646855D01*
X504500Y647697D01*
Y651572D01*
X509914Y656986D01*
X510499Y656648D01*
X512806Y656030D01*
X515194D01*
X517501Y656648D01*
X519569Y657842D01*
X521258Y659531D01*
X522452Y661599D01*
X523070Y663906D01*
Y666294D01*
X522452Y668601D01*
X521258Y670669D01*
X519569Y672358D01*
X517501Y673552D01*
X515194Y674170D01*
X512806D01*
X510499Y673552D01*
X508431Y672358D01*
X506742Y670669D01*
X505548Y668601D01*
X504930Y666294D01*
Y663906D01*
X505548Y661599D01*
X505886Y661014D01*
X500944Y656073D01*
X498912Y656915D01*
Y696784D01*
X509914Y707786D01*
X510499Y707448D01*
X512806Y706830D01*
X515194D01*
X517501Y707448D01*
X519569Y708642D01*
X521258Y710331D01*
X522452Y712399D01*
X523070Y714706D01*
Y717094D01*
X522452Y719401D01*
X521258Y721469D01*
X519569Y723158D01*
X517501Y724352D01*
X515194Y724970D01*
X512806D01*
X510499Y724352D01*
X508431Y723158D01*
X506742Y721469D01*
X505548Y719401D01*
X504930Y717094D01*
Y714706D01*
X505548Y712399D01*
X505886Y711814D01*
X494049Y699978D01*
X493432Y699054D01*
X493215Y697964D01*
X493215Y697964D01*
Y616624D01*
X445860Y569269D01*
X279400D01*
X279400Y569269D01*
X278310Y569052D01*
X277386Y568434D01*
X277386Y568434D01*
X235222Y526270D01*
X234604Y525346D01*
X234387Y524256D01*
X234387Y524256D01*
Y456540D01*
X232758Y456049D01*
X232355Y456027D01*
X231161Y457222D01*
X229499Y457910D01*
X227701D01*
X226823Y457546D01*
X222090D01*
Y460178D01*
X220945D01*
Y466168D01*
X222320D01*
Y478708D01*
X211780D01*
Y466168D01*
X213175D01*
Y462154D01*
X211143Y461209D01*
X210860Y461448D01*
X210544Y461448D01*
X205840D01*
Y454658D01*
Y447868D01*
X210860Y447868D01*
X212366Y449138D01*
X212892Y449138D01*
X222090D01*
Y449777D01*
X225820D01*
X226040Y449558D01*
X227701Y448870D01*
X229499D01*
X231161Y449558D01*
X232355Y450753D01*
X232758Y450731D01*
X234387Y450240D01*
Y447728D01*
X233751Y445959D01*
X232355Y445959D01*
X228481D01*
Y439419D01*
X227211D01*
Y438149D01*
X220671D01*
Y435533D01*
X219592Y433780D01*
X219360D01*
X217481Y434149D01*
X217481Y435812D01*
Y444689D01*
X206941D01*
Y442268D01*
X201000D01*
Y445438D01*
X190460D01*
Y438657D01*
X188428Y437701D01*
X188000Y438055D01*
Y445438D01*
X177460D01*
Y442267D01*
X168980D01*
Y445688D01*
X158440D01*
Y433148D01*
X168980D01*
Y436570D01*
X177460D01*
Y433398D01*
X183224D01*
X199981Y416642D01*
X199981Y416642D01*
X200905Y416024D01*
X201995Y415807D01*
X201995Y415807D01*
X224883D01*
X224883Y415807D01*
X225973Y416024D01*
X226897Y416642D01*
X237943Y427688D01*
X239975Y426846D01*
Y422656D01*
X239975Y422656D01*
X239982Y422620D01*
X238454Y421143D01*
X238259Y421080D01*
X236591D01*
X234930Y420392D01*
X233658Y419120D01*
X232970Y417459D01*
Y415661D01*
X233658Y413999D01*
X234930Y412728D01*
X236031Y412272D01*
X254052Y394250D01*
Y394071D01*
X254740Y392410D01*
X255559Y391590D01*
X254919Y389558D01*
X90720D01*
X70159Y410120D01*
Y421399D01*
X71130Y423028D01*
X72191Y423028D01*
X76957D01*
Y420293D01*
X76730Y420199D01*
X75101Y418570D01*
X74269Y416560D01*
X85751D01*
X84919Y418570D01*
X83290Y420199D01*
X83063Y420293D01*
Y423028D01*
X90210Y423028D01*
X91716Y424298D01*
X92242Y424298D01*
X102446D01*
X105311Y421433D01*
X106572Y420591D01*
X108058Y420295D01*
X113137D01*
X114671Y419660D01*
X116469D01*
X118131Y420348D01*
X119402Y421619D01*
X120090Y423281D01*
Y425079D01*
X119402Y426740D01*
X118131Y428012D01*
X116469Y428700D01*
X114671D01*
X113137Y428065D01*
X109667D01*
X107940Y429792D01*
Y441066D01*
X109923Y441957D01*
X111750Y440130D01*
X112674Y439512D01*
X113764Y439296D01*
X114210Y437336D01*
Y433898D01*
X123908D01*
X124250Y433898D01*
X125940Y433073D01*
Y432628D01*
X129737D01*
Y426216D01*
X128441Y424920D01*
X127609Y422910D01*
X139091D01*
X138259Y424920D01*
X136630Y426549D01*
X135843Y426875D01*
Y432628D01*
X138520D01*
Y438148D01*
X132230D01*
Y439418D01*
X130960D01*
Y446208D01*
X125940D01*
Y445764D01*
X124250Y444938D01*
X123908Y444938D01*
X117279D01*
X117004Y444993D01*
X117004Y444993D01*
X114944D01*
X108040Y451897D01*
Y454380D01*
X110550Y456890D01*
X117579D01*
X117617Y456700D01*
X118064Y456032D01*
X118732Y455586D01*
X119520Y455429D01*
X137020D01*
X137808Y455586D01*
X138476Y456032D01*
X138923Y456700D01*
X138961Y456890D01*
X143602D01*
X145861Y454630D01*
Y445688D01*
X143440D01*
Y433148D01*
X153980D01*
Y445688D01*
X151559D01*
Y455810D01*
X151342Y456900D01*
X150724Y457824D01*
X150724Y457824D01*
X146796Y461753D01*
X145872Y462370D01*
X144782Y462587D01*
X144782Y462587D01*
X138961D01*
X138923Y462776D01*
X138476Y463445D01*
X137808Y463891D01*
X137020Y464048D01*
X119520D01*
X118732Y463891D01*
X118064Y463445D01*
X117617Y462776D01*
X117579Y462587D01*
X109370D01*
X109370Y462587D01*
X108280Y462370D01*
X107356Y461753D01*
X107356Y461753D01*
X104511Y458908D01*
X98000D01*
Y452579D01*
X95968Y451551D01*
X95157Y452147D01*
X95104Y452232D01*
X95040Y452554D01*
Y458908D01*
X85000D01*
Y447868D01*
X88068D01*
X88483Y447247D01*
X90859Y444872D01*
X89748Y443108D01*
X81940D01*
Y433068D01*
X79400D01*
Y443108D01*
X72191D01*
X71130Y443108D01*
X70159Y444738D01*
Y464910D01*
X75708Y470460D01*
X77099D01*
X78760Y471148D01*
X79744Y472131D01*
X83750D01*
Y468710D01*
X94290D01*
Y481250D01*
X83750D01*
Y477829D01*
X79744D01*
X78760Y478812D01*
X77099Y479500D01*
X75301D01*
X73639Y478812D01*
X72368Y477541D01*
X71680Y475879D01*
Y474488D01*
X66603Y469412D01*
X64571Y470253D01*
Y502502D01*
X77378Y515310D01*
X83750D01*
Y511890D01*
X94290D01*
Y524430D01*
X83750D01*
Y521007D01*
X78047D01*
X77205Y523039D01*
X88526Y534360D01*
X110489D01*
X110893Y532328D01*
X110470Y532152D01*
X109198Y530881D01*
X108510Y529219D01*
Y527421D01*
X108907Y526462D01*
X108004Y524688D01*
X107717Y524430D01*
X98750D01*
Y511890D01*
X100986D01*
Y503088D01*
X98000D01*
Y490048D01*
X105511D01*
X112436Y483124D01*
X112436Y483124D01*
X113360Y482506D01*
X114450Y482290D01*
X114450Y482290D01*
X117579D01*
X117617Y482100D01*
X118064Y481432D01*
X118732Y480986D01*
X119520Y480829D01*
X137020D01*
X137808Y480986D01*
X138476Y481432D01*
X138923Y482100D01*
X139080Y482888D01*
Y487388D01*
X138923Y488176D01*
X138476Y488845D01*
X137808Y489291D01*
X137020Y489448D01*
X119520D01*
X118732Y489291D01*
X118064Y488845D01*
X117617Y488176D01*
X117579Y487987D01*
X115630D01*
X109540Y494077D01*
Y503088D01*
X106684D01*
Y511890D01*
X109290D01*
Y522944D01*
X109380Y523062D01*
X111322Y524135D01*
X112131Y523800D01*
X113929D01*
X114419Y524003D01*
X118520Y519901D01*
Y512390D01*
X128488D01*
X128560Y512390D01*
X130520D01*
X130592Y512390D01*
X131014D01*
X131621Y511327D01*
X131974Y510358D01*
X131370Y508899D01*
Y507101D01*
X132058Y505440D01*
X131181Y503443D01*
X129540D01*
Y497838D01*
Y492234D01*
X137020D01*
X138304Y492489D01*
X139392Y493216D01*
X141498Y492930D01*
X143508Y492097D01*
Y497838D01*
Y503579D01*
X141498Y502747D01*
X141354Y502727D01*
X140506Y503429D01*
X139722Y505440D01*
X140410Y507101D01*
Y508899D01*
X139806Y510358D01*
X139896Y510606D01*
X140560Y512390D01*
X140560Y512390D01*
X140560Y512390D01*
Y523930D01*
X130592D01*
X130520Y523930D01*
X129721D01*
X128698Y525962D01*
X129276Y526741D01*
X140908D01*
X147250Y520400D01*
Y511888D01*
X157790D01*
Y519473D01*
X158010Y519620D01*
X160373Y521982D01*
X162250Y521205D01*
Y511888D01*
X168761D01*
X174521Y506128D01*
Y502148D01*
X168620D01*
X167832Y501991D01*
X167164Y501545D01*
X166717Y500877D01*
X166560Y500088D01*
Y495588D01*
X166717Y494800D01*
X167164Y494132D01*
X167832Y493686D01*
X168620Y493529D01*
X186120D01*
X186908Y493686D01*
X187576Y494132D01*
X188023Y494800D01*
X188179Y495588D01*
Y500088D01*
X188023Y500877D01*
X187576Y501545D01*
X186908Y501991D01*
X186120Y502148D01*
X180219D01*
Y507308D01*
X180219Y507308D01*
X180002Y508399D01*
X179384Y509323D01*
X179384Y509323D01*
X172790Y515917D01*
Y524428D01*
X165474D01*
X164696Y526306D01*
X165844Y527454D01*
X165844Y527454D01*
X166462Y528378D01*
X166679Y529468D01*
Y531188D01*
X169100D01*
Y543228D01*
X158560D01*
Y531188D01*
X158648D01*
X159489Y529156D01*
X154771Y524438D01*
X154721Y524428D01*
X151279D01*
X146551Y529156D01*
X147393Y531188D01*
X155600D01*
Y543228D01*
X145060D01*
Y540057D01*
X87346D01*
X86256Y539840D01*
X85331Y539223D01*
X85331Y539223D01*
X55372Y509263D01*
X53340Y510105D01*
Y529590D01*
X77470Y553720D01*
X124460D01*
X135890Y565150D01*
X219710D01*
X227330Y572770D01*
X328930D01*
X349250Y593090D01*
X463550D01*
Y768350D01*
X530860D01*
X530860Y50860D01*
D02*
G37*
G36*
X220671Y575001D02*
X215900Y570230D01*
X175705D01*
X175130Y571293D01*
X174971Y572262D01*
X179742Y577033D01*
X219830D01*
X220671Y575001D01*
D02*
G37*
G36*
X128813Y569837D02*
X129482Y567632D01*
X120650Y558800D01*
X74930D01*
X50601Y534471D01*
X48569Y535312D01*
Y537300D01*
X72350Y561081D01*
X118507D01*
X118507Y561081D01*
X119597Y561298D01*
X120521Y561916D01*
X128504Y569898D01*
X128813Y569837D01*
D02*
G37*
G36*
X297281Y561539D02*
X291931Y556190D01*
X291881Y556180D01*
X284410D01*
Y552759D01*
X273050D01*
X273050Y552759D01*
X272540Y552657D01*
X271504Y554495D01*
X280580Y563571D01*
X296439D01*
X297281Y561539D01*
D02*
G37*
G36*
X206941Y434149D02*
X213537D01*
X214379Y432117D01*
X213531Y431270D01*
X212699Y429260D01*
X218440D01*
Y426720D01*
X212699D01*
X213531Y424710D01*
X214705Y423537D01*
X214061Y421505D01*
X203175D01*
X193159Y431521D01*
X193936Y433398D01*
X201000D01*
Y436570D01*
X206941D01*
Y434149D01*
D02*
G37*
G36*
X328940Y426396D02*
Y412551D01*
X328940Y411600D01*
X327356Y410519D01*
X315596D01*
X313780Y411040D01*
X313780Y412551D01*
Y415092D01*
X315146Y416437D01*
X316236Y416654D01*
X317160Y417272D01*
X327063Y427174D01*
X328940Y426396D01*
D02*
G37*
G36*
X112598Y381829D02*
X111195Y381019D01*
X108631Y378455D01*
X106818Y375315D01*
X106158Y372849D01*
X98823D01*
X89842Y381829D01*
X90684Y383861D01*
X112054D01*
X112598Y381829D01*
D02*
G37*
G36*
X217598D02*
X216195Y381019D01*
X213631Y378455D01*
X211818Y375315D01*
X210880Y371813D01*
Y368187D01*
X211818Y364685D01*
X213095Y362474D01*
X206530Y355909D01*
X126847D01*
X126303Y357941D01*
X128105Y358981D01*
X130669Y361545D01*
X132482Y364685D01*
X133420Y368187D01*
Y371813D01*
X132482Y375315D01*
X130669Y378455D01*
X128105Y381019D01*
X126702Y381829D01*
X127246Y383861D01*
X217054D01*
X217598Y381829D01*
D02*
G37*
%LPC*%
G36*
X352084Y983190D02*
X351670D01*
Y971670D01*
X363190D01*
Y972084D01*
X362318Y975337D01*
X360635Y978253D01*
X358253Y980635D01*
X355337Y982318D01*
X352084Y983190D01*
D02*
G37*
G36*
X301284D02*
X300870D01*
Y971670D01*
X312390D01*
Y972084D01*
X311518Y975337D01*
X309835Y978253D01*
X307453Y980635D01*
X304537Y982318D01*
X301284Y983190D01*
D02*
G37*
G36*
X232084D02*
X231670D01*
Y971670D01*
X243190D01*
Y972084D01*
X242318Y975337D01*
X240634Y978253D01*
X238253Y980635D01*
X235337Y982318D01*
X232084Y983190D01*
D02*
G37*
G36*
X181284D02*
X180870D01*
Y971670D01*
X192390D01*
Y972084D01*
X191518Y975337D01*
X189834Y978253D01*
X187453Y980635D01*
X184537Y982318D01*
X181284Y983190D01*
D02*
G37*
G36*
X349130D02*
X348716D01*
X345463Y982318D01*
X342547Y980635D01*
X340165Y978253D01*
X338482Y975337D01*
X337610Y972084D01*
Y971670D01*
X349130D01*
Y983190D01*
D02*
G37*
G36*
X298330D02*
X297916D01*
X294663Y982318D01*
X291747Y980635D01*
X289366Y978253D01*
X287682Y975337D01*
X286810Y972084D01*
Y971670D01*
X298330D01*
Y983190D01*
D02*
G37*
G36*
X229130D02*
X228716D01*
X225463Y982318D01*
X222547Y980635D01*
X220165Y978253D01*
X218482Y975337D01*
X217610Y972084D01*
Y971670D01*
X229130D01*
Y983190D01*
D02*
G37*
G36*
X178330D02*
X177916D01*
X174663Y982318D01*
X171747Y980635D01*
X169365Y978253D01*
X167682Y975337D01*
X166810Y972084D01*
Y971670D01*
X178330D01*
Y983190D01*
D02*
G37*
G36*
X363190Y969130D02*
X351670D01*
Y957610D01*
X352084D01*
X355337Y958482D01*
X358253Y960165D01*
X360635Y962547D01*
X362318Y965463D01*
X363190Y968716D01*
Y969130D01*
D02*
G37*
G36*
X349130D02*
X337610D01*
Y968716D01*
X338482Y965463D01*
X340165Y962547D01*
X342547Y960165D01*
X345463Y958482D01*
X348716Y957610D01*
X349130D01*
Y969130D01*
D02*
G37*
G36*
X312390D02*
X300870D01*
Y957610D01*
X301284D01*
X304537Y958482D01*
X307453Y960165D01*
X309835Y962547D01*
X311518Y965463D01*
X312390Y968716D01*
Y969130D01*
D02*
G37*
G36*
X298330D02*
X286810D01*
Y968716D01*
X287682Y965463D01*
X289366Y962547D01*
X291747Y960165D01*
X294663Y958482D01*
X297916Y957610D01*
X298330D01*
Y969130D01*
D02*
G37*
G36*
X243190D02*
X231670D01*
Y957610D01*
X232084D01*
X235337Y958482D01*
X238253Y960165D01*
X240634Y962547D01*
X242318Y965463D01*
X243190Y968716D01*
Y969130D01*
D02*
G37*
G36*
X229130D02*
X217610D01*
Y968716D01*
X218482Y965463D01*
X220165Y962547D01*
X222547Y960165D01*
X225463Y958482D01*
X228716Y957610D01*
X229130D01*
Y969130D01*
D02*
G37*
G36*
X192390D02*
X180870D01*
Y957610D01*
X181284D01*
X184537Y958482D01*
X187453Y960165D01*
X189834Y962547D01*
X191518Y965463D01*
X192390Y968716D01*
Y969130D01*
D02*
G37*
G36*
X178330D02*
X166810D01*
Y968716D01*
X167682Y965463D01*
X169365Y962547D01*
X171747Y960165D01*
X174663Y958482D01*
X177916Y957610D01*
X178330D01*
Y969130D01*
D02*
G37*
G36*
X472561Y977540D02*
X471270D01*
Y946270D01*
X502540D01*
Y947561D01*
X501739Y952620D01*
X500156Y957491D01*
X497831Y962055D01*
X494820Y966198D01*
X491198Y969820D01*
X487055Y972831D01*
X482491Y975156D01*
X477620Y976739D01*
X472561Y977540D01*
D02*
G37*
G36*
X468730D02*
X467439D01*
X462380Y976739D01*
X457509Y975156D01*
X452945Y972831D01*
X448802Y969820D01*
X445180Y966198D01*
X442169Y962055D01*
X439844Y957491D01*
X438261Y952620D01*
X437460Y947561D01*
Y946270D01*
X468730D01*
Y977540D01*
D02*
G37*
G36*
X62561D02*
X61270D01*
Y946270D01*
X92540D01*
Y947561D01*
X91739Y952620D01*
X90156Y957491D01*
X87831Y962055D01*
X84820Y966198D01*
X81198Y969820D01*
X77055Y972831D01*
X72491Y975156D01*
X67620Y976739D01*
X62561Y977540D01*
D02*
G37*
G36*
X58730D02*
X57439D01*
X52380Y976739D01*
X47509Y975156D01*
X42945Y972831D01*
X38802Y969820D01*
X35180Y966198D01*
X32169Y962055D01*
X29844Y957491D01*
X28261Y952620D01*
X27460Y947561D01*
Y946270D01*
X58730D01*
Y977540D01*
D02*
G37*
G36*
X257810Y943001D02*
Y938530D01*
X262281D01*
X261449Y940540D01*
X259820Y942169D01*
X257810Y943001D01*
D02*
G37*
G36*
X255270D02*
X253260Y942169D01*
X251631Y940540D01*
X250799Y938530D01*
X255270D01*
Y943001D01*
D02*
G37*
G36*
X262281Y935990D02*
X250799D01*
X251539Y934202D01*
X251160Y933178D01*
X250568Y932170D01*
X246500D01*
Y923900D01*
X266580D01*
Y932170D01*
X262512D01*
X261920Y933178D01*
X261541Y934202D01*
X262281Y935990D01*
D02*
G37*
G36*
X111791Y927730D02*
Y923259D01*
X116262D01*
X115429Y925269D01*
X113800Y926898D01*
X111791Y927730D01*
D02*
G37*
G36*
X109251D02*
X107241Y926898D01*
X105612Y925269D01*
X104780Y923259D01*
X109251D01*
Y927730D01*
D02*
G37*
G36*
X352084Y932390D02*
X351670D01*
Y920870D01*
X363190D01*
Y921284D01*
X362318Y924537D01*
X360635Y927453D01*
X358253Y929835D01*
X355337Y931518D01*
X352084Y932390D01*
D02*
G37*
G36*
X301284D02*
X300870D01*
Y920870D01*
X312390D01*
Y921284D01*
X311518Y924537D01*
X309835Y927453D01*
X307453Y929835D01*
X304537Y931518D01*
X301284Y932390D01*
D02*
G37*
G36*
X232084D02*
X231670D01*
Y920870D01*
X243190D01*
Y921284D01*
X242318Y924537D01*
X240634Y927453D01*
X238253Y929835D01*
X235337Y931518D01*
X232084Y932390D01*
D02*
G37*
G36*
X181284D02*
X180870D01*
Y920870D01*
X192390D01*
Y921284D01*
X191518Y924537D01*
X189834Y927453D01*
X187453Y929835D01*
X184537Y931518D01*
X181284Y932390D01*
D02*
G37*
G36*
X349130D02*
X348716D01*
X345463Y931518D01*
X342547Y929835D01*
X340165Y927453D01*
X338482Y924537D01*
X337610Y921284D01*
Y920870D01*
X349130D01*
Y932390D01*
D02*
G37*
G36*
X298330D02*
X297916D01*
X294663Y931518D01*
X291747Y929835D01*
X289366Y927453D01*
X287682Y924537D01*
X286810Y921284D01*
Y920870D01*
X298330D01*
Y932390D01*
D02*
G37*
G36*
X229130D02*
X228716D01*
X225463Y931518D01*
X222547Y929835D01*
X220165Y927453D01*
X218482Y924537D01*
X217610Y921284D01*
Y920870D01*
X229130D01*
Y932390D01*
D02*
G37*
G36*
X178330D02*
X177916D01*
X174663Y931518D01*
X171747Y929835D01*
X169365Y927453D01*
X167682Y924537D01*
X166810Y921284D01*
Y920870D01*
X178330D01*
Y932390D01*
D02*
G37*
G36*
X116262Y920719D02*
X111791D01*
Y916248D01*
X113800Y917081D01*
X115429Y918709D01*
X116262Y920719D01*
D02*
G37*
G36*
X109251D02*
X104780D01*
X105612Y918709D01*
X107241Y917081D01*
X109251Y916248D01*
Y920719D01*
D02*
G37*
G36*
X502540Y943730D02*
X471270D01*
Y912460D01*
X472561D01*
X477620Y913261D01*
X482491Y914844D01*
X487055Y917169D01*
X491198Y920180D01*
X494820Y923802D01*
X497831Y927945D01*
X500156Y932509D01*
X501739Y937380D01*
X502540Y942439D01*
Y943730D01*
D02*
G37*
G36*
X468730D02*
X437460D01*
Y942439D01*
X438261Y937380D01*
X439844Y932509D01*
X442169Y927945D01*
X445180Y923802D01*
X448802Y920180D01*
X452945Y917169D01*
X457509Y914844D01*
X462380Y913261D01*
X467439Y912460D01*
X468730D01*
Y943730D01*
D02*
G37*
G36*
X92540D02*
X61270D01*
Y912460D01*
X62561D01*
X67620Y913261D01*
X72491Y914844D01*
X77055Y917169D01*
X81198Y920180D01*
X84820Y923802D01*
X87831Y927945D01*
X90156Y932509D01*
X91739Y937380D01*
X92540Y942439D01*
Y943730D01*
D02*
G37*
G36*
X58730D02*
X27460D01*
Y942439D01*
X28261Y937380D01*
X29844Y932509D01*
X32169Y927945D01*
X35180Y923802D01*
X38802Y920180D01*
X42945Y917169D01*
X47509Y914844D01*
X52380Y913261D01*
X57439Y912460D01*
X58730D01*
Y943730D01*
D02*
G37*
G36*
X363190Y918330D02*
X351670D01*
Y906810D01*
X352084D01*
X355337Y907682D01*
X358253Y909365D01*
X360635Y911747D01*
X362318Y914663D01*
X363190Y917916D01*
Y918330D01*
D02*
G37*
G36*
X349130D02*
X337610D01*
Y917916D01*
X338482Y914663D01*
X340165Y911747D01*
X342547Y909365D01*
X345463Y907682D01*
X348716Y906810D01*
X349130D01*
Y918330D01*
D02*
G37*
G36*
X312390D02*
X300870D01*
Y906810D01*
X301284D01*
X304537Y907682D01*
X307453Y909365D01*
X309835Y911747D01*
X311518Y914663D01*
X312390Y917916D01*
Y918330D01*
D02*
G37*
G36*
X298330D02*
X286810D01*
Y917916D01*
X287682Y914663D01*
X289366Y911747D01*
X291747Y909365D01*
X294663Y907682D01*
X297916Y906810D01*
X298330D01*
Y918330D01*
D02*
G37*
G36*
X243190D02*
X231670D01*
Y906810D01*
X232084D01*
X235337Y907682D01*
X238253Y909365D01*
X240634Y911747D01*
X242318Y914663D01*
X243190Y917916D01*
Y918330D01*
D02*
G37*
G36*
X229130D02*
X217610D01*
Y917916D01*
X218482Y914663D01*
X220165Y911747D01*
X222547Y909365D01*
X225463Y907682D01*
X228716Y906810D01*
X229130D01*
Y918330D01*
D02*
G37*
G36*
X192390D02*
X180870D01*
Y906810D01*
X181284D01*
X184537Y907682D01*
X187453Y909365D01*
X189834Y911747D01*
X191518Y914663D01*
X192390Y917916D01*
Y918330D01*
D02*
G37*
G36*
X178330D02*
X166810D01*
Y917916D01*
X167682Y914663D01*
X169365Y911747D01*
X171747Y909365D01*
X174663Y907682D01*
X177916Y906810D01*
X178330D01*
Y918330D01*
D02*
G37*
G36*
X43180Y902361D02*
Y897890D01*
X47651D01*
X46819Y899900D01*
X45190Y901529D01*
X43180Y902361D01*
D02*
G37*
G36*
X40640D02*
X38630Y901529D01*
X37001Y899900D01*
X36169Y897890D01*
X40640D01*
Y902361D01*
D02*
G37*
G36*
X15240D02*
Y897890D01*
X19711D01*
X18879Y899900D01*
X17250Y901529D01*
X15240Y902361D01*
D02*
G37*
G36*
X12700D02*
X10690Y901529D01*
X9061Y899900D01*
X8229Y897890D01*
X12700D01*
Y902361D01*
D02*
G37*
G36*
X300990Y896011D02*
Y891540D01*
X305461D01*
X304629Y893550D01*
X303000Y895179D01*
X300990Y896011D01*
D02*
G37*
G36*
X298450D02*
X296440Y895179D01*
X294811Y893550D01*
X293979Y891540D01*
X298450D01*
Y896011D01*
D02*
G37*
G36*
X47651Y895350D02*
X43180D01*
Y890879D01*
X45190Y891711D01*
X46819Y893340D01*
X47651Y895350D01*
D02*
G37*
G36*
X40640D02*
X36169D01*
X36182Y895319D01*
X33663Y892800D01*
X29210D01*
Y884530D01*
X37980D01*
Y888483D01*
X40453Y890956D01*
X40640Y890879D01*
Y895350D01*
D02*
G37*
G36*
X12700D02*
X8229D01*
X9061Y893340D01*
X10690Y891711D01*
X12700Y890879D01*
Y895350D01*
D02*
G37*
G36*
X19711D02*
X15240D01*
Y890879D01*
X15427Y890956D01*
X17900Y888483D01*
Y884530D01*
X26670D01*
Y892800D01*
X22217D01*
X19698Y895319D01*
X19711Y895350D01*
D02*
G37*
G36*
X305461Y889000D02*
X300990D01*
Y884529D01*
X303000Y885361D01*
X304629Y886990D01*
X305461Y889000D01*
D02*
G37*
G36*
X298450D02*
X293979D01*
X294811Y886990D01*
X296440Y885361D01*
X298450Y884529D01*
Y889000D01*
D02*
G37*
G36*
X424872Y888969D02*
X420401D01*
Y884498D01*
X422411Y885331D01*
X424039Y886960D01*
X424872Y888969D01*
D02*
G37*
G36*
X417861D02*
X413390D01*
X414222Y886960D01*
X415851Y885331D01*
X417861Y884498D01*
Y888969D01*
D02*
G37*
G36*
X336520Y956520D02*
X313480D01*
Y933480D01*
X321947D01*
Y905630D01*
X322180Y904462D01*
X322841Y903472D01*
X340729Y885584D01*
X341720Y884922D01*
X342888Y884689D01*
X350110D01*
Y864070D01*
X364150D01*
Y864629D01*
X366182Y865471D01*
X381021Y850632D01*
Y850516D01*
X381080Y850221D01*
Y842970D01*
X393620D01*
Y850318D01*
X395652Y851676D01*
X396080Y851499D01*
Y855970D01*
X391609D01*
X391786Y855542D01*
X390428Y853510D01*
X386596D01*
X386232Y854055D01*
X368191Y872096D01*
X367200Y872758D01*
X366032Y872990D01*
X364150D01*
Y882439D01*
X366032D01*
X367200Y882672D01*
X368191Y883334D01*
X382234Y897377D01*
X415923D01*
X416327Y895345D01*
X415851Y895148D01*
X414222Y893519D01*
X413390Y891509D01*
X424872D01*
X424039Y893519D01*
X422411Y895148D01*
X421934Y895345D01*
X422338Y897377D01*
X425456D01*
X447709Y875124D01*
X446510Y873589D01*
X444500Y874421D01*
Y868680D01*
X443230D01*
Y867410D01*
X437489D01*
X438229Y865622D01*
X437850Y864598D01*
X437258Y863590D01*
X433190D01*
Y855320D01*
X443230D01*
Y852780D01*
X433190D01*
Y844510D01*
X433190D01*
X434460Y843004D01*
Y826780D01*
X452000D01*
Y838037D01*
X452195Y838168D01*
X458088Y844061D01*
X458750Y845052D01*
X458983Y846220D01*
Y871220D01*
X458750Y872388D01*
X458088Y873379D01*
X428879Y902589D01*
X427888Y903250D01*
X426720Y903483D01*
X380970D01*
X379802Y903250D01*
X378811Y902589D01*
X366182Y889959D01*
X364150Y890801D01*
Y893610D01*
X350110D01*
Y890795D01*
X344152D01*
X328053Y906894D01*
Y933480D01*
X336520D01*
Y956520D01*
D02*
G37*
G36*
X441960Y874421D02*
X439950Y873589D01*
X438321Y871960D01*
X437489Y869950D01*
X441960D01*
Y874421D01*
D02*
G37*
G36*
X96400Y900505D02*
X66040D01*
X64553Y900209D01*
X63293Y899367D01*
X39857Y875931D01*
X37980Y876709D01*
Y881990D01*
X17900D01*
Y873720D01*
X17900D01*
X19170Y872214D01*
Y861484D01*
X13253Y855567D01*
X12411Y854307D01*
X12115Y852820D01*
Y749530D01*
X10431Y748558D01*
X8742Y746869D01*
X7548Y744801D01*
X6930Y742494D01*
Y740106D01*
X7548Y737799D01*
X8742Y735731D01*
X10431Y734042D01*
X12499Y732848D01*
X14806Y732230D01*
X17194D01*
X19501Y732848D01*
X21569Y734042D01*
X23258Y735731D01*
X23375Y735933D01*
X26090Y736575D01*
X26361Y736397D01*
Y722698D01*
X24329Y722153D01*
X24274Y722249D01*
X22349Y724174D01*
X19991Y725535D01*
X17361Y726240D01*
X17270D01*
Y715900D01*
Y705560D01*
X17361D01*
X19991Y706265D01*
X22349Y707626D01*
X24274Y709551D01*
X24329Y709647D01*
X26361Y709102D01*
Y704890D01*
X20086Y698614D01*
X19501Y698952D01*
X17194Y699570D01*
X14806D01*
X12499Y698952D01*
X10431Y697758D01*
X8742Y696069D01*
X7548Y694001D01*
X6930Y691694D01*
Y689306D01*
X7548Y686999D01*
X8742Y684931D01*
X10431Y683242D01*
X12499Y682048D01*
X14806Y681430D01*
X17194D01*
X19501Y682048D01*
X21569Y683242D01*
X23258Y684931D01*
X24452Y686999D01*
X25070Y689306D01*
Y691694D01*
X24452Y694001D01*
X24114Y694586D01*
X30679Y701151D01*
X32711Y700380D01*
Y685840D01*
X20086Y673214D01*
X19501Y673552D01*
X17194Y674170D01*
X14806D01*
X12499Y673552D01*
X10431Y672358D01*
X8742Y670669D01*
X7548Y668601D01*
X6930Y666294D01*
Y663906D01*
X7548Y661599D01*
X8742Y659531D01*
X10431Y657842D01*
X12499Y656648D01*
X14806Y656030D01*
X17194D01*
X19501Y656648D01*
X21569Y657842D01*
X23258Y659531D01*
X24452Y661599D01*
X25070Y663906D01*
Y666294D01*
X24452Y668601D01*
X24114Y669186D01*
X37574Y682646D01*
X37574Y682646D01*
X38192Y683570D01*
X38409Y684660D01*
X38409Y684660D01*
Y817970D01*
X56624Y836186D01*
X56624Y836186D01*
X57242Y837110D01*
X57459Y838200D01*
Y865665D01*
X59163Y867369D01*
X61040Y866591D01*
Y859480D01*
X73580D01*
Y870020D01*
X64469D01*
X63691Y871897D01*
X70325Y878531D01*
X76290D01*
X82769Y872052D01*
X81928Y870020D01*
X81360D01*
Y859480D01*
X93900D01*
Y870020D01*
X91407D01*
X90162Y871536D01*
X89945Y872627D01*
X89328Y873551D01*
X89328Y873551D01*
X80792Y882087D01*
X81633Y884119D01*
X92292D01*
X104359Y872052D01*
X103518Y870020D01*
X101680D01*
Y859480D01*
X114220D01*
Y870020D01*
X110799D01*
Y872490D01*
X110799Y872490D01*
X110582Y873580D01*
X109964Y874504D01*
X109964Y874504D01*
X95486Y888982D01*
X94562Y889600D01*
X93472Y889817D01*
X93472Y889817D01*
X68811D01*
X67795Y891849D01*
X68459Y892735D01*
X94791D01*
X122000Y865526D01*
Y859480D01*
X134540D01*
Y870020D01*
X128494D01*
X99147Y899367D01*
X97887Y900209D01*
X96400Y900505D01*
D02*
G37*
G36*
X216520Y956520D02*
X193480D01*
Y933480D01*
X201947D01*
Y869300D01*
X202180Y868132D01*
X202841Y867141D01*
X203280Y866703D01*
Y859480D01*
X215820D01*
Y861697D01*
X220860D01*
X222028Y861930D01*
X223018Y862591D01*
X225615Y865188D01*
X236041D01*
X236150Y865210D01*
X254800D01*
Y873259D01*
X255688Y873436D01*
X256679Y874098D01*
X258699Y876117D01*
X259360Y877108D01*
X259593Y878276D01*
Y895360D01*
X265310D01*
X265310Y911584D01*
X266580Y913090D01*
X266580Y913406D01*
Y921360D01*
X246500D01*
X246500Y913090D01*
X247770Y911584D01*
X247770Y911058D01*
Y895360D01*
X253487D01*
Y879540D01*
X253256Y879309D01*
X244056D01*
X243761Y879250D01*
X225260D01*
Y871293D01*
X224351D01*
X223183Y871061D01*
X222192Y870399D01*
X219596Y867803D01*
X215820D01*
Y870020D01*
X208542D01*
X208432Y870185D01*
X208053Y870564D01*
Y933480D01*
X216520D01*
Y956520D01*
D02*
G37*
G36*
X175180Y870020D02*
X162640D01*
Y859480D01*
X175180D01*
Y870020D01*
D02*
G37*
G36*
X154860D02*
X142320D01*
Y859480D01*
X154860D01*
Y870020D01*
D02*
G37*
G36*
X496601Y860421D02*
Y855949D01*
X501072D01*
X500239Y857959D01*
X498610Y859588D01*
X496601Y860421D01*
D02*
G37*
G36*
X494061D02*
X492051Y859588D01*
X490422Y857959D01*
X489590Y855949D01*
X494061D01*
Y860421D01*
D02*
G37*
G36*
X501072Y853409D02*
X496601D01*
Y848938D01*
X498610Y849771D01*
X500239Y851400D01*
X501072Y853409D01*
D02*
G37*
G36*
X494061D02*
X489590D01*
X490422Y851400D01*
X492051Y849771D01*
X494061Y848938D01*
Y853409D01*
D02*
G37*
G36*
X325310Y848970D02*
X314770D01*
Y848585D01*
X304990D01*
Y848970D01*
X294450D01*
Y848125D01*
X288770D01*
X287284Y847829D01*
X286023Y846987D01*
X285567Y846530D01*
X284851D01*
X283190Y845842D01*
X281918Y844570D01*
X281230Y842909D01*
Y841111D01*
X281918Y839449D01*
X283190Y838178D01*
X284851Y837490D01*
X286649D01*
X288311Y838178D01*
X289582Y839449D01*
X289659Y839635D01*
X290379Y840355D01*
X298260D01*
X298635Y840430D01*
X304990D01*
Y840815D01*
X314770D01*
Y840430D01*
X325310D01*
Y848970D01*
D02*
G37*
G36*
X396650Y893610D02*
X382610D01*
Y864070D01*
X393399D01*
X393917Y862586D01*
X393960Y862038D01*
X392441Y860520D01*
X391609Y858510D01*
X397350D01*
Y857240D01*
X398620D01*
Y851499D01*
X399408Y851825D01*
X401440Y850487D01*
Y844510D01*
X401440D01*
X402710Y843004D01*
Y838103D01*
X393620D01*
Y838510D01*
X381080D01*
Y838510D01*
X379191Y838856D01*
X370760Y847287D01*
Y853510D01*
X358220D01*
Y842970D01*
X366443D01*
X368871Y840542D01*
X368029Y838510D01*
X358220D01*
Y827970D01*
X361437D01*
Y825890D01*
X361670Y824722D01*
X362332Y823732D01*
X370430Y815633D01*
Y808233D01*
X364050D01*
X362882Y808000D01*
X361891Y807338D01*
X336648Y782095D01*
X335986Y781104D01*
X335846Y780400D01*
X332070D01*
Y781670D01*
X326800D01*
Y770130D01*
X324260D01*
Y781670D01*
X318990D01*
Y780400D01*
X310071Y780400D01*
X309207Y782410D01*
X314954Y788157D01*
X329080D01*
X330248Y788390D01*
X331239Y789052D01*
X338407Y796220D01*
X346630D01*
Y806760D01*
X334090D01*
Y800537D01*
X328470Y794917D01*
X326362Y795658D01*
X326310Y796220D01*
X326310D01*
Y806760D01*
X313770D01*
Y803812D01*
X313309Y801863D01*
X312218Y801646D01*
X311294Y801028D01*
X311294Y801028D01*
X308022Y797756D01*
X305990Y798598D01*
Y806760D01*
X293450D01*
Y800249D01*
X289476Y796275D01*
X285670D01*
Y806760D01*
X273130D01*
Y801842D01*
X272144Y801646D01*
X271220Y801028D01*
X271220Y801028D01*
X258598Y788406D01*
X257980Y787482D01*
X257763Y786392D01*
X257763Y786392D01*
Y780400D01*
X254760D01*
Y759860D01*
X264300D01*
Y759860D01*
X265260D01*
Y759860D01*
X275800D01*
Y759860D01*
X276260D01*
Y759860D01*
X285228D01*
X286800Y759860D01*
X288832Y759860D01*
X296228D01*
X297800Y759860D01*
X299832Y759860D01*
X307228D01*
X308800Y759860D01*
X310832Y759860D01*
X317484D01*
X318990Y758590D01*
X318990D01*
X319995Y756558D01*
X319789Y756060D01*
X331271D01*
X331065Y756558D01*
X332070Y758590D01*
X332070D01*
X333576Y759860D01*
X339984D01*
X341490Y758590D01*
X341978Y756558D01*
X341789Y756100D01*
X353271D01*
X353082Y756558D01*
X353570Y758590D01*
X353570D01*
Y768860D01*
X347530D01*
Y771400D01*
X353570D01*
Y781670D01*
X347512D01*
X346734Y783547D01*
X365314Y802127D01*
X370430D01*
Y791257D01*
X370430Y790410D01*
X369484Y788770D01*
X368830Y788499D01*
X367201Y786870D01*
X366369Y784860D01*
X377851D01*
X377019Y786870D01*
X375511Y788378D01*
X375560Y788966D01*
X376085Y790410D01*
X384470D01*
Y819950D01*
X374747D01*
X368759Y825938D01*
X369601Y827970D01*
X370760D01*
Y835779D01*
X372792Y836621D01*
X377052Y832361D01*
X378043Y831699D01*
X379211Y831467D01*
X381080D01*
Y827970D01*
X393620D01*
Y831997D01*
X402710D01*
Y826780D01*
X420250D01*
Y837222D01*
X421174D01*
X422342Y837454D01*
X423333Y838116D01*
X428879Y843661D01*
X429540Y844652D01*
X429773Y845820D01*
Y863310D01*
X429540Y864478D01*
X428879Y865469D01*
X420752Y873595D01*
X419762Y874256D01*
X418594Y874489D01*
X396650D01*
Y893610D01*
D02*
G37*
G36*
X266731Y845181D02*
Y840709D01*
X271202D01*
X270369Y842719D01*
X268741Y844348D01*
X266731Y845181D01*
D02*
G37*
G36*
X264191D02*
X262181Y844348D01*
X260552Y842719D01*
X259720Y840709D01*
X264191D01*
Y845181D01*
D02*
G37*
G36*
X271202Y838169D02*
X266731D01*
Y833698D01*
X268741Y834531D01*
X270369Y836160D01*
X271202Y838169D01*
D02*
G37*
G36*
X264191D02*
X259720D01*
X260552Y836160D01*
X262181Y834531D01*
X264191Y833698D01*
Y838169D01*
D02*
G37*
G36*
X325310Y835970D02*
X314770D01*
Y832990D01*
X314095Y832856D01*
X313171Y832238D01*
X313171Y832238D01*
X312172Y831239D01*
X312049Y831290D01*
X310251D01*
X308589Y830602D01*
X307318Y829331D01*
X306988Y828623D01*
X304990Y829020D01*
X304990Y829462D01*
Y835970D01*
X294450D01*
Y834082D01*
X291148D01*
X291148Y834082D01*
X290058Y833866D01*
X289134Y833248D01*
X289134Y833248D01*
X288291Y832406D01*
X287919Y832560D01*
X286121D01*
X284459Y831872D01*
X283188Y830601D01*
X282500Y828939D01*
Y827141D01*
X283188Y825480D01*
X284459Y824208D01*
X285402Y823818D01*
X285413Y823755D01*
X284802Y821908D01*
X283878Y821760D01*
X283687Y821760D01*
X273130D01*
Y819227D01*
X271098Y817979D01*
X270504Y818225D01*
X268706D01*
X267045Y817537D01*
X265773Y816265D01*
X265085Y814604D01*
Y812805D01*
X265773Y811144D01*
X267045Y809873D01*
X268706Y809184D01*
X270504D01*
X272166Y809873D01*
X273437Y811144D01*
X273469Y811220D01*
X285670D01*
Y819967D01*
X285670Y821643D01*
X285749Y821972D01*
X286327Y823520D01*
X287919Y823520D01*
X289580Y824208D01*
X290852Y825480D01*
X291540Y827141D01*
Y827597D01*
X292328Y828385D01*
X294450D01*
Y827430D01*
X296871D01*
Y821760D01*
X293450D01*
Y811220D01*
X305990D01*
Y821760D01*
X302569D01*
Y827414D01*
X304596Y827430D01*
X304990Y827430D01*
X306263Y826695D01*
X307056Y824843D01*
X307318Y824210D01*
X308589Y822938D01*
X310251Y822250D01*
X311941D01*
X312098Y822208D01*
X313770Y820763D01*
Y811220D01*
X326310D01*
Y821760D01*
X322889D01*
Y827430D01*
X325310D01*
Y835970D01*
D02*
G37*
G36*
X353959Y823670D02*
X352161D01*
X350499Y822982D01*
X349228Y821711D01*
X349190Y821618D01*
X346630D01*
Y821760D01*
X342931D01*
X342636Y821819D01*
X342341Y821760D01*
X334090D01*
Y811220D01*
X346630D01*
Y815513D01*
X350304D01*
X350499Y815318D01*
X352161Y814630D01*
X353959D01*
X355620Y815318D01*
X356892Y816590D01*
X357580Y818251D01*
Y820049D01*
X356892Y821711D01*
X355620Y822982D01*
X353959Y823670D01*
D02*
G37*
G36*
X193430Y834140D02*
X187160D01*
Y815370D01*
X193430D01*
Y834140D01*
D02*
G37*
G36*
X184620D02*
X178350D01*
Y815370D01*
X184620D01*
Y834140D01*
D02*
G37*
G36*
X416970Y819950D02*
X402930D01*
Y808232D01*
X397040D01*
X396260Y809012D01*
X394599Y809700D01*
X392801D01*
X391139Y809012D01*
X389868Y807740D01*
X389180Y806079D01*
Y804281D01*
X389868Y802619D01*
X391139Y801348D01*
X392801Y800660D01*
X394599D01*
X396260Y801348D01*
X397040Y802128D01*
X402930D01*
Y790410D01*
X416970D01*
Y802127D01*
X424190D01*
Y796410D01*
X440414Y796410D01*
X441920Y795140D01*
X442236Y795140D01*
X450190D01*
Y805180D01*
Y815220D01*
X441920Y815220D01*
X440414Y813950D01*
X439888Y813950D01*
X424190D01*
Y808233D01*
X416970D01*
Y819950D01*
D02*
G37*
G36*
X467360Y810921D02*
Y806450D01*
X471831D01*
X470999Y808460D01*
X469370Y810089D01*
X467360Y810921D01*
D02*
G37*
G36*
X195500Y870020D02*
X182960D01*
Y859480D01*
X191183D01*
X193611Y857052D01*
X192769Y855020D01*
X182960D01*
Y844480D01*
X190773D01*
X200351Y834902D01*
X199620Y832870D01*
X199620D01*
Y795330D01*
X211383D01*
X212160Y795330D01*
X213823Y794439D01*
X214141Y793670D01*
X215770Y792041D01*
X217780Y791209D01*
Y796950D01*
Y802691D01*
X215770Y801859D01*
X214192Y800281D01*
X213914Y800290D01*
X212160Y800756D01*
Y832870D01*
X207870D01*
Y834752D01*
X207638Y835920D01*
X206976Y836911D01*
X195500Y848387D01*
Y852289D01*
X197532Y853131D01*
X200795Y849868D01*
X201786Y849206D01*
X202954Y848973D01*
X203280D01*
Y844480D01*
X215820D01*
Y846697D01*
X220996D01*
X225260Y842433D01*
Y832710D01*
X231897D01*
Y824220D01*
X226180D01*
X226180Y807996D01*
X224910Y806490D01*
X224910Y806174D01*
Y802152D01*
X222878Y801311D01*
X222330Y801859D01*
X220320Y802691D01*
Y796950D01*
Y791209D01*
X222330Y792041D01*
X222878Y792589D01*
X224910Y791748D01*
Y787410D01*
X233680D01*
Y796950D01*
X234950D01*
Y798220D01*
X244990D01*
X244990Y806490D01*
X243720Y807996D01*
X243720Y808522D01*
Y824220D01*
X238003D01*
Y832710D01*
X254800D01*
Y846750D01*
X229577D01*
X224419Y851908D01*
X223428Y852570D01*
X222260Y852803D01*
X215820D01*
Y855020D01*
X207569D01*
X207274Y855079D01*
X204218D01*
X195500Y863797D01*
Y870020D01*
D02*
G37*
G36*
X471831Y803910D02*
X467360D01*
Y799439D01*
X469370Y800271D01*
X470999Y801900D01*
X471831Y803910D01*
D02*
G37*
G36*
X452730Y815220D02*
Y805180D01*
Y795140D01*
X461000D01*
Y799208D01*
X462008Y799800D01*
X463032Y800179D01*
X464820Y799439D01*
Y805180D01*
Y810921D01*
X463032Y810181D01*
X462008Y810560D01*
X461000Y811152D01*
Y815220D01*
X452730D01*
D02*
G37*
G36*
X175180Y855020D02*
X162640D01*
Y844480D01*
X163041D01*
Y832870D01*
X159620D01*
Y795330D01*
X172160D01*
Y832870D01*
X168739D01*
Y844480D01*
X175180D01*
Y855020D01*
D02*
G37*
G36*
X154860D02*
X142320D01*
Y844480D01*
X143041D01*
Y832870D01*
X139620D01*
Y795330D01*
X152160D01*
Y832870D01*
X148739D01*
Y844480D01*
X154860D01*
Y855020D01*
D02*
G37*
G36*
X134540Y855020D02*
X122000D01*
Y844480D01*
X123195D01*
Y832870D01*
X119620D01*
Y795330D01*
X132160D01*
Y832870D01*
X130965D01*
Y844480D01*
X134540D01*
Y855020D01*
D02*
G37*
G36*
X114220Y855020D02*
X101680D01*
Y844480D01*
X103041D01*
Y832870D01*
X99620D01*
Y795330D01*
X112160D01*
Y832870D01*
X108739D01*
Y844480D01*
X114220D01*
Y855020D01*
D02*
G37*
G36*
X93900D02*
X81360D01*
Y844480D01*
X83041D01*
Y832870D01*
X79620D01*
Y795330D01*
X92160D01*
Y832870D01*
X88739D01*
Y844480D01*
X93900D01*
Y855020D01*
D02*
G37*
G36*
X73580D02*
X61040D01*
Y844480D01*
X63041D01*
Y832870D01*
X59620D01*
Y795330D01*
X72160D01*
Y832870D01*
X68739D01*
Y844480D01*
X73580D01*
Y855020D01*
D02*
G37*
G36*
X193430Y812830D02*
X185890D01*
X178350D01*
Y794060D01*
X182837D01*
Y791603D01*
X182610Y791509D01*
X180981Y789880D01*
X180149Y787870D01*
X191631D01*
X190799Y789880D01*
X189170Y791509D01*
X188943Y791603D01*
Y794060D01*
X193430D01*
Y812830D01*
D02*
G37*
G36*
X244990Y795680D02*
X236220D01*
Y787410D01*
X244990D01*
Y795680D01*
D02*
G37*
G36*
X191631Y785330D02*
X187160D01*
Y780859D01*
X189170Y781691D01*
X190799Y783320D01*
X191631Y785330D01*
D02*
G37*
G36*
X184620D02*
X180149D01*
X180981Y783320D01*
X182610Y781691D01*
X184620Y780859D01*
Y785330D01*
D02*
G37*
G36*
X377851Y782320D02*
X366369D01*
X367109Y780532D01*
X366730Y779508D01*
X366138Y778500D01*
X362070D01*
Y770230D01*
X382150D01*
Y778500D01*
X378082D01*
X377490Y779508D01*
X377111Y780532D01*
X377851Y782320D01*
D02*
G37*
G36*
X453390Y779780D02*
X400050D01*
Y763489D01*
X389370Y752809D01*
X380880D01*
X380880Y757914D01*
X382150Y759420D01*
X382150Y759736D01*
Y767690D01*
X362070D01*
X362070Y759420D01*
X363340Y757914D01*
X363340Y757388D01*
Y741690D01*
X369261D01*
Y731710D01*
X365840D01*
Y721170D01*
X378380D01*
Y721170D01*
X380412Y721729D01*
X387041Y715100D01*
Y689610D01*
X387041Y689610D01*
X387258Y688520D01*
X387876Y687596D01*
X394903Y680568D01*
X394195Y678802D01*
X392231Y678597D01*
X380530Y690298D01*
X379606Y690916D01*
X378516Y691133D01*
X378380Y693074D01*
Y696030D01*
X365840D01*
Y685490D01*
X374311D01*
X374586Y685435D01*
X374586Y685435D01*
X377336D01*
X389146Y673626D01*
X390070Y673008D01*
X391160Y672791D01*
X391160Y672791D01*
X400050D01*
Y665480D01*
X453390D01*
Y685800D01*
X400050D01*
Y685800D01*
X398018Y685511D01*
X392739Y690790D01*
Y716280D01*
X392739Y716280D01*
X392522Y717370D01*
X391904Y718294D01*
X391904Y718294D01*
X381911Y728288D01*
X380987Y728905D01*
X379897Y729122D01*
X378380Y730367D01*
Y731710D01*
X374959D01*
Y741690D01*
X380880D01*
Y747111D01*
X390550D01*
X390550Y747111D01*
X391640Y747328D01*
X392564Y747946D01*
X404079Y759460D01*
X453390D01*
Y779780D01*
D02*
G37*
G36*
X427990Y755041D02*
Y750570D01*
X432461D01*
X431629Y752580D01*
X430000Y754209D01*
X427990Y755041D01*
D02*
G37*
G36*
X425450D02*
X423440Y754209D01*
X421811Y752580D01*
X420979Y750570D01*
X425450D01*
Y755041D01*
D02*
G37*
G36*
X353271Y753560D02*
X348800D01*
Y749089D01*
X350810Y749921D01*
X352439Y751550D01*
X353271Y753560D01*
D02*
G37*
G36*
X346260D02*
X341789D01*
X342621Y751550D01*
X344250Y749921D01*
X346260Y749089D01*
Y753560D01*
D02*
G37*
G36*
X331271Y753520D02*
X326800D01*
Y749049D01*
X328810Y749881D01*
X330439Y751510D01*
X331271Y753520D01*
D02*
G37*
G36*
X324260D02*
X319789D01*
X320621Y751510D01*
X322250Y749881D01*
X324260Y749049D01*
Y753520D01*
D02*
G37*
G36*
X14730Y726240D02*
X14639D01*
X12009Y725535D01*
X9651Y724174D01*
X7726Y722249D01*
X6365Y719891D01*
X5660Y717261D01*
Y717170D01*
X14730D01*
Y726240D01*
D02*
G37*
G36*
X432461Y748030D02*
X420979D01*
X421400Y747014D01*
X420195Y744982D01*
X404368D01*
Y723900D01*
X426720D01*
Y721360D01*
X404368D01*
Y700278D01*
X420195D01*
X421400Y698246D01*
X420979Y697230D01*
X432461D01*
X432040Y698246D01*
X433246Y700278D01*
X449072D01*
Y716105D01*
X451104Y717310D01*
X452120Y716889D01*
Y722630D01*
Y728371D01*
X451104Y727950D01*
X449072Y729156D01*
Y744982D01*
X433246D01*
X432040Y747014D01*
X432461Y748030D01*
D02*
G37*
G36*
X378380Y716710D02*
X365840D01*
Y712384D01*
X364039Y711813D01*
X362949Y711596D01*
X362025Y710978D01*
X362025Y710978D01*
X358666Y707619D01*
X358048Y706695D01*
X357831Y705604D01*
X357831Y705604D01*
Y670560D01*
X357831Y670560D01*
X358048Y669470D01*
X358666Y668546D01*
X367772Y659439D01*
X366931Y657407D01*
X357542D01*
X352121Y662828D01*
X352300Y664860D01*
X352300D01*
Y685400D01*
X342760D01*
Y685400D01*
X341800D01*
Y685400D01*
X332832D01*
X331260Y685400D01*
X329228Y685400D01*
X325797D01*
X324851Y687432D01*
X325018Y687630D01*
X326019D01*
X327681Y688318D01*
X328952Y689589D01*
X329640Y691251D01*
Y693049D01*
X328952Y694710D01*
X327681Y695982D01*
X326019Y696670D01*
X324221D01*
X322560Y695982D01*
X321288Y694710D01*
X320919Y693819D01*
X320777Y693724D01*
X314648Y687595D01*
X313986Y686604D01*
X313754Y685436D01*
Y685400D01*
X309260D01*
X309260Y685400D01*
X308800D01*
Y685400D01*
X307228Y685400D01*
X299832D01*
X298260Y685400D01*
X296228Y685400D01*
X287260D01*
X287260Y685400D01*
X286800D01*
Y685400D01*
X285228Y685400D01*
X277832D01*
X276260Y685400D01*
X274228Y685400D01*
X265570D01*
Y686670D01*
X264292D01*
X263451Y688702D01*
X264439Y689690D01*
X265271Y691700D01*
X253789D01*
X254621Y689690D01*
X255609Y688702D01*
X254768Y686670D01*
X253490D01*
Y676400D01*
X259530D01*
Y675130D01*
X260800D01*
Y663590D01*
X265570D01*
Y664860D01*
X267681D01*
Y646290D01*
X267681Y646290D01*
X267898Y645200D01*
X268516Y644276D01*
X271850Y640941D01*
X271860Y640891D01*
Y633420D01*
X284400D01*
Y643960D01*
X276816D01*
X276668Y644180D01*
X276668Y644180D01*
X273379Y647470D01*
Y663423D01*
X274816Y664860D01*
X275800D01*
X277832Y664860D01*
X281157D01*
Y653134D01*
X281157Y653134D01*
X281374Y652044D01*
X281992Y651120D01*
X292170Y640941D01*
X292180Y640891D01*
Y633420D01*
X304720D01*
Y640496D01*
X306597Y641274D01*
X310210Y637661D01*
Y631150D01*
X322250D01*
Y639704D01*
X322250Y640454D01*
X323993Y641976D01*
X324449Y641952D01*
X327740Y638661D01*
Y632150D01*
X340280D01*
Y640726D01*
X340280Y641658D01*
X341967Y643028D01*
X342351Y642998D01*
X347467Y637882D01*
X347467Y637882D01*
X348060Y637486D01*
Y632150D01*
X360600D01*
Y642690D01*
X352129D01*
X351854Y642745D01*
X351854Y642745D01*
X350662D01*
X330942Y662464D01*
X331580Y664445D01*
X333255Y664434D01*
X334150Y663344D01*
X334367Y662253D01*
X334984Y661329D01*
X349358Y646956D01*
X349358Y646956D01*
X350282Y646338D01*
X351372Y646121D01*
X361920D01*
X368370Y639671D01*
X368380Y639621D01*
Y632150D01*
X380920D01*
Y640741D01*
X380920Y641911D01*
X382562Y643089D01*
X382918Y643023D01*
X388060Y637882D01*
X388060Y637882D01*
X388700Y637454D01*
Y632150D01*
X401240D01*
Y642690D01*
X392769D01*
X392494Y642745D01*
X392494Y642745D01*
X391254D01*
X378733Y655265D01*
X379575Y657297D01*
X391494D01*
X411270Y637521D01*
Y628510D01*
X419310D01*
Y641550D01*
X415299D01*
X394688Y662160D01*
X393764Y662778D01*
X392674Y662995D01*
X392674Y662995D01*
X380161D01*
X379319Y665027D01*
X379752Y665460D01*
X380440Y667121D01*
Y668919D01*
X379752Y670581D01*
X378480Y671852D01*
X378388Y671890D01*
Y673484D01*
X378380Y673527D01*
Y681030D01*
X365840D01*
Y674444D01*
X363808Y673358D01*
X363529Y673544D01*
Y704425D01*
X365219Y706115D01*
X369634D01*
X369634Y706115D01*
X369909Y706170D01*
X378380D01*
Y716710D01*
D02*
G37*
G36*
X14730Y714630D02*
X5660D01*
Y714539D01*
X6365Y711909D01*
X7726Y709551D01*
X9651Y707626D01*
X12009Y706265D01*
X14639Y705560D01*
X14730D01*
Y714630D01*
D02*
G37*
G36*
X94011Y702941D02*
Y698469D01*
X98482D01*
X97649Y700479D01*
X96020Y702108D01*
X94011Y702941D01*
D02*
G37*
G36*
X91471D02*
X89461Y702108D01*
X87832Y700479D01*
X87000Y698469D01*
X91471D01*
Y702941D01*
D02*
G37*
G36*
X260800Y698711D02*
Y694240D01*
X265271D01*
X264439Y696250D01*
X262810Y697879D01*
X260800Y698711D01*
D02*
G37*
G36*
X258260D02*
X256250Y697879D01*
X254621Y696250D01*
X253789Y694240D01*
X258260D01*
Y698711D01*
D02*
G37*
G36*
X98482Y695929D02*
X94011D01*
Y691458D01*
X96020Y692291D01*
X97649Y693920D01*
X98482Y695929D01*
D02*
G37*
G36*
X91471D02*
X87000D01*
X87832Y693920D01*
X89461Y692291D01*
X91471Y691458D01*
Y695929D01*
D02*
G37*
G36*
X432461Y694690D02*
X427990D01*
Y690219D01*
X430000Y691051D01*
X431629Y692680D01*
X432461Y694690D01*
D02*
G37*
G36*
X425450D02*
X420979D01*
X421811Y692680D01*
X423440Y691051D01*
X425450Y690219D01*
Y694690D01*
D02*
G37*
G36*
X207160Y692661D02*
Y688190D01*
X211631D01*
X210799Y690200D01*
X209170Y691829D01*
X207160Y692661D01*
D02*
G37*
G36*
X204620D02*
X202610Y691829D01*
X200981Y690200D01*
X200149Y688190D01*
X204620D01*
Y692661D01*
D02*
G37*
G36*
X67160Y691691D02*
Y687220D01*
X71631D01*
X70799Y689230D01*
X69170Y690859D01*
X67160Y691691D01*
D02*
G37*
G36*
X64620D02*
X62610Y690859D01*
X60981Y689230D01*
X60149Y687220D01*
X64620D01*
Y691691D01*
D02*
G37*
G36*
X215529Y714450D02*
X213731D01*
X212069Y713762D01*
X210798Y712490D01*
X210110Y710829D01*
Y709031D01*
X210798Y707370D01*
X212069Y706098D01*
X213604Y705462D01*
X241804Y677262D01*
X242923Y676514D01*
X243820Y675618D01*
X245481Y674930D01*
X247279D01*
X248941Y675618D01*
X250212Y676889D01*
X250900Y678551D01*
Y680349D01*
X250212Y682010D01*
X248941Y683282D01*
X247279Y683970D01*
X246084D01*
X219098Y710956D01*
X218462Y712490D01*
X217190Y713762D01*
X215529Y714450D01*
D02*
G37*
G36*
X258260Y673860D02*
X253490D01*
Y663590D01*
X258260D01*
Y673860D01*
D02*
G37*
G36*
X211631Y685650D02*
X200149D01*
X200981Y683640D01*
X202610Y682011D01*
X202837Y681917D01*
Y679140D01*
X198350D01*
Y660370D01*
X205890D01*
X213430D01*
Y679140D01*
X208943D01*
Y681917D01*
X209170Y682011D01*
X210799Y683640D01*
X211631Y685650D01*
D02*
G37*
G36*
X71631Y684680D02*
X60149D01*
X60981Y682670D01*
X62480Y681172D01*
X62422Y680546D01*
X61891Y679140D01*
X58350D01*
Y660370D01*
X65890D01*
X73430D01*
Y679140D01*
X69889D01*
X69358Y680546D01*
X69300Y681172D01*
X70799Y682670D01*
X71631Y684680D01*
D02*
G37*
G36*
X439420Y657251D02*
Y652780D01*
X443891D01*
X443059Y654790D01*
X441430Y656419D01*
X439420Y657251D01*
D02*
G37*
G36*
X436880D02*
X434870Y656419D01*
X433241Y654790D01*
X432409Y652780D01*
X436880D01*
Y657251D01*
D02*
G37*
G36*
X257841Y645790D02*
Y641319D01*
X262312D01*
X261479Y643329D01*
X259851Y644958D01*
X257841Y645790D01*
D02*
G37*
G36*
X255301D02*
X253291Y644958D01*
X251662Y643329D01*
X250830Y641319D01*
X255301D01*
Y645790D01*
D02*
G37*
G36*
X213430Y657830D02*
X207160D01*
Y639060D01*
X213430D01*
Y657830D01*
D02*
G37*
G36*
X204620D02*
X198350D01*
Y639060D01*
X204620D01*
Y657830D01*
D02*
G37*
G36*
X73430D02*
X67160D01*
Y639060D01*
X73430D01*
Y657830D01*
D02*
G37*
G36*
X64620D02*
X58350D01*
Y639060D01*
X64620D01*
Y657830D01*
D02*
G37*
G36*
X47021Y641981D02*
Y637509D01*
X51492D01*
X50659Y639519D01*
X49030Y641148D01*
X47021Y641981D01*
D02*
G37*
G36*
X44481D02*
X42471Y641148D01*
X40842Y639519D01*
X40009Y637509D01*
X44481D01*
Y641981D01*
D02*
G37*
G36*
X443891Y650240D02*
X432409D01*
X433241Y648230D01*
X434870Y646601D01*
X435097Y646507D01*
Y643880D01*
X428110D01*
Y635610D01*
X448190D01*
Y643880D01*
X441203D01*
Y646507D01*
X441430Y646601D01*
X443059Y648230D01*
X443891Y650240D01*
D02*
G37*
G36*
X262312Y638779D02*
X257841D01*
Y634308D01*
X259851Y635141D01*
X261479Y636769D01*
X262312Y638779D01*
D02*
G37*
G36*
X255301D02*
X250830D01*
X251662Y636769D01*
X253291Y635141D01*
X255301Y634308D01*
Y638779D01*
D02*
G37*
G36*
X51492Y634969D02*
X47021D01*
Y630498D01*
X49030Y631331D01*
X50659Y632960D01*
X51492Y634969D01*
D02*
G37*
G36*
X44481D02*
X40009D01*
X40842Y632960D01*
X42471Y631331D01*
X44481Y630498D01*
Y634969D01*
D02*
G37*
G36*
X132160Y677870D02*
X119620D01*
Y640330D01*
X122881D01*
Y631380D01*
X119460D01*
Y620840D01*
X132000D01*
Y631380D01*
X128579D01*
Y640330D01*
X132160D01*
Y677870D01*
D02*
G37*
G36*
X112160D02*
X99620D01*
Y640330D01*
X103041D01*
Y631541D01*
X102933Y631380D01*
X95330D01*
Y620840D01*
X107870D01*
Y628311D01*
X107873Y628326D01*
X107904Y628357D01*
X107904Y628357D01*
X108522Y629281D01*
X108739Y630372D01*
Y640330D01*
X112160D01*
Y677870D01*
D02*
G37*
G36*
X92160D02*
X79620D01*
Y640330D01*
X83041D01*
Y634710D01*
X79711Y631380D01*
X71200D01*
Y620840D01*
X83740D01*
Y627351D01*
X87904Y631516D01*
X87904Y631516D01*
X88522Y632440D01*
X88739Y633530D01*
X88739Y633530D01*
Y640330D01*
X92160D01*
Y677870D01*
D02*
G37*
G36*
X192160D02*
X179620D01*
Y640330D01*
X182473D01*
X183718Y638814D01*
X183935Y637723D01*
X184552Y636799D01*
X193110Y628241D01*
X193120Y628191D01*
Y620720D01*
X205660D01*
Y631260D01*
X198076D01*
X197928Y631480D01*
X197928Y631480D01*
X191111Y638298D01*
X191952Y640330D01*
X192160D01*
Y677870D01*
D02*
G37*
G36*
X172160D02*
X159620D01*
Y640330D01*
X162273D01*
X163518Y638814D01*
X163735Y637723D01*
X164352Y636799D01*
X168190Y632961D01*
X168990Y631260D01*
Y620720D01*
X181530D01*
Y631260D01*
X175389D01*
Y632640D01*
X175172Y633730D01*
X174555Y634654D01*
X174554Y634654D01*
X170911Y638298D01*
X171752Y640330D01*
X172160D01*
Y677870D01*
D02*
G37*
G36*
X152160D02*
X139620D01*
Y640330D01*
X140683D01*
X141928Y638814D01*
X142145Y637723D01*
X142762Y636799D01*
X146269Y633292D01*
X145428Y631260D01*
X144860D01*
Y620720D01*
X157400D01*
Y631260D01*
X154907D01*
X153662Y632776D01*
X153445Y633867D01*
X152828Y634791D01*
X152828Y634791D01*
X149321Y638298D01*
X150162Y640330D01*
X152160D01*
Y677870D01*
D02*
G37*
G36*
X218471Y624201D02*
Y619729D01*
X222942D01*
X222109Y621739D01*
X220480Y623368D01*
X218471Y624201D01*
D02*
G37*
G36*
X215931D02*
X213921Y623368D01*
X212292Y621739D01*
X211460Y619729D01*
X215931D01*
Y624201D01*
D02*
G37*
G36*
X222942Y617189D02*
X218471D01*
Y612718D01*
X220480Y613551D01*
X222109Y615179D01*
X222942Y617189D01*
D02*
G37*
G36*
X215931D02*
X211460D01*
X212292Y615179D01*
X213921Y613551D01*
X215931Y612718D01*
Y617189D01*
D02*
G37*
G36*
X448190Y633070D02*
X428110D01*
X428110Y624800D01*
X429380Y623294D01*
X429380Y622768D01*
Y612564D01*
X427731Y610915D01*
X419310D01*
Y613550D01*
X411270D01*
Y610930D01*
X405060D01*
X403489Y611580D01*
X401691D01*
X400029Y610892D01*
X398758Y609621D01*
X398070Y607959D01*
Y606161D01*
X398758Y604500D01*
X400029Y603228D01*
X401691Y602540D01*
X403489D01*
X404987Y603160D01*
X411270D01*
Y600510D01*
X419310D01*
Y603145D01*
X429340D01*
X430827Y603441D01*
X432087Y604283D01*
X434874Y607070D01*
X446920D01*
X446920Y623294D01*
X448190Y624800D01*
X448190Y625116D01*
Y633070D01*
D02*
G37*
G36*
X311459Y613599D02*
X306189D01*
Y608329D01*
X311459D01*
Y613599D01*
D02*
G37*
G36*
X303649D02*
X298379D01*
Y608329D01*
X303649D01*
Y613599D01*
D02*
G37*
G36*
X205660Y616260D02*
X193120D01*
Y605720D01*
X205660D01*
Y616260D01*
D02*
G37*
G36*
X311459Y605789D02*
X298379D01*
Y601452D01*
X298332Y601420D01*
X296028D01*
X293900Y600539D01*
X292271Y598910D01*
X291439Y596900D01*
X302921D01*
X302876Y597009D01*
X305218Y599352D01*
X305880Y600342D01*
X305915Y600519D01*
X311459D01*
Y605789D01*
D02*
G37*
G36*
X14730Y523040D02*
X14639D01*
X12009Y522335D01*
X9651Y520974D01*
X7726Y519049D01*
X6365Y516691D01*
X5660Y514061D01*
Y513970D01*
X14730D01*
Y523040D01*
D02*
G37*
G36*
Y511430D02*
X5660D01*
Y511339D01*
X6365Y508709D01*
X7726Y506351D01*
X9651Y504426D01*
X12009Y503065D01*
X14639Y502360D01*
X14730D01*
Y511430D01*
D02*
G37*
G36*
X17361Y319840D02*
X17270D01*
Y310770D01*
X26340D01*
Y310861D01*
X25635Y313491D01*
X24274Y315849D01*
X22349Y317774D01*
X19991Y319135D01*
X17361Y319840D01*
D02*
G37*
G36*
X14730D02*
X14639D01*
X12009Y319135D01*
X9651Y317774D01*
X7726Y315849D01*
X6365Y313491D01*
X5660Y310861D01*
Y310770D01*
X14730D01*
Y319840D01*
D02*
G37*
G36*
X26340Y308230D02*
X17270D01*
Y299160D01*
X17361D01*
X19991Y299865D01*
X22349Y301226D01*
X24274Y303151D01*
X25635Y305509D01*
X26340Y308139D01*
Y308230D01*
D02*
G37*
G36*
X14730D02*
X5660D01*
Y308139D01*
X6365Y305509D01*
X7726Y303151D01*
X9651Y301226D01*
X12009Y299865D01*
X14639Y299160D01*
X14730D01*
Y308230D01*
D02*
G37*
G36*
X17361Y294440D02*
X17270D01*
Y285370D01*
X26340D01*
Y285461D01*
X25635Y288091D01*
X24274Y290449D01*
X22349Y292374D01*
X19991Y293735D01*
X17361Y294440D01*
D02*
G37*
G36*
X14730D02*
X14639D01*
X12009Y293735D01*
X9651Y292374D01*
X7726Y290449D01*
X6365Y288091D01*
X5660Y285461D01*
Y285370D01*
X14730D01*
Y294440D01*
D02*
G37*
G36*
X26340Y282830D02*
X17270D01*
Y273760D01*
X17361D01*
X19991Y274465D01*
X22349Y275826D01*
X24274Y277751D01*
X25635Y280109D01*
X26340Y282739D01*
Y282830D01*
D02*
G37*
G36*
X14730D02*
X5660D01*
Y282739D01*
X6365Y280109D01*
X7726Y277751D01*
X9651Y275826D01*
X12009Y274465D01*
X14639Y273760D01*
X14730D01*
Y282830D01*
D02*
G37*
G36*
X26340Y269040D02*
X17270D01*
Y259970D01*
X26340D01*
Y269040D01*
D02*
G37*
G36*
X14730D02*
X5660D01*
Y259970D01*
X14730D01*
Y269040D01*
D02*
G37*
G36*
X26340Y257430D02*
X17270D01*
Y248360D01*
X26340D01*
Y257430D01*
D02*
G37*
G36*
X14730D02*
X5660D01*
Y248360D01*
X14730D01*
Y257430D01*
D02*
G37*
%LPD*%
G36*
X45919Y868132D02*
Y842428D01*
X27196Y823704D01*
X26578Y822780D01*
X26361Y821690D01*
X26361Y821690D01*
Y746202D01*
X26090Y746025D01*
X23375Y746667D01*
X23258Y746869D01*
X21569Y748558D01*
X19885Y749530D01*
Y851211D01*
X24664Y855990D01*
X36710D01*
Y864835D01*
X38140D01*
X39627Y865131D01*
X40887Y865973D01*
X43935Y869022D01*
X45919Y868132D01*
D02*
G37*
%LPC*%
G36*
X29241Y845181D02*
Y840709D01*
X33712D01*
X32879Y842719D01*
X31251Y844348D01*
X29241Y845181D01*
D02*
G37*
G36*
X26701D02*
X24691Y844348D01*
X23062Y842719D01*
X22229Y840709D01*
X26701D01*
Y845181D01*
D02*
G37*
G36*
X33712Y838169D02*
X29241D01*
Y833698D01*
X31251Y834531D01*
X32879Y836160D01*
X33712Y838169D01*
D02*
G37*
G36*
X26701D02*
X22229D01*
X23062Y836160D01*
X24691Y834531D01*
X26701Y833698D01*
Y838169D01*
D02*
G37*
%LPD*%
G36*
X303157Y664424D02*
X303374Y663334D01*
X303992Y662410D01*
X322512Y643889D01*
X322536Y643433D01*
X321014Y641690D01*
X320389Y641690D01*
X314239D01*
X295379Y660550D01*
Y663423D01*
X296816Y664860D01*
X297800D01*
X301191Y664860D01*
X303157Y664424D01*
D02*
G37*
G36*
X319800Y664860D02*
Y664860D01*
X320260D01*
X322174Y664576D01*
X323185Y663344D01*
X323402Y662253D01*
X324020Y661329D01*
X340588Y644761D01*
X340618Y644377D01*
X339248Y642690D01*
X338453Y642690D01*
X331769D01*
X311476Y662983D01*
X312254Y664860D01*
X318228D01*
X319800Y664860D01*
D02*
G37*
%LPC*%
G36*
X524340Y751640D02*
X515270D01*
Y742570D01*
X524340D01*
Y751640D01*
D02*
G37*
G36*
X512730D02*
X503660D01*
Y742570D01*
X512730D01*
Y751640D01*
D02*
G37*
G36*
X524340Y740030D02*
X515270D01*
Y730960D01*
X524340D01*
Y740030D01*
D02*
G37*
G36*
X512730D02*
X503660D01*
Y730960D01*
X512730D01*
Y740030D01*
D02*
G37*
G36*
X515361Y700840D02*
X515270D01*
Y691770D01*
X524340D01*
Y691861D01*
X523635Y694491D01*
X522274Y696849D01*
X520349Y698774D01*
X517991Y700135D01*
X515361Y700840D01*
D02*
G37*
G36*
X512730D02*
X512639D01*
X510009Y700135D01*
X507651Y698774D01*
X505726Y696849D01*
X504365Y694491D01*
X503660Y691861D01*
Y691770D01*
X512730D01*
Y700840D01*
D02*
G37*
G36*
X524340Y689230D02*
X515270D01*
Y680160D01*
X515361D01*
X517991Y680865D01*
X520349Y682226D01*
X522274Y684151D01*
X523635Y686509D01*
X524340Y689139D01*
Y689230D01*
D02*
G37*
G36*
X512730D02*
X503660D01*
Y689139D01*
X504365Y686509D01*
X505726Y684151D01*
X507651Y682226D01*
X510009Y680865D01*
X512639Y680160D01*
X512730D01*
Y689230D01*
D02*
G37*
G36*
X515361Y650040D02*
X515270D01*
Y640970D01*
X524340D01*
Y641061D01*
X523635Y643691D01*
X522274Y646049D01*
X520349Y647974D01*
X517991Y649335D01*
X515361Y650040D01*
D02*
G37*
G36*
X524340Y638430D02*
X515270D01*
Y629360D01*
X515361D01*
X517991Y630065D01*
X520349Y631426D01*
X522274Y633351D01*
X523635Y635709D01*
X524340Y638339D01*
Y638430D01*
D02*
G37*
G36*
X515361Y599240D02*
X515270D01*
Y590170D01*
X524340D01*
Y590261D01*
X523635Y592891D01*
X522274Y595249D01*
X520349Y597174D01*
X517991Y598535D01*
X515361Y599240D01*
D02*
G37*
G36*
X512730D02*
X512639D01*
X510009Y598535D01*
X507651Y597174D01*
X505726Y595249D01*
X504365Y592891D01*
X503660Y590261D01*
Y590170D01*
X512730D01*
Y599240D01*
D02*
G37*
G36*
X524340Y587630D02*
X515270D01*
Y578560D01*
X515361D01*
X517991Y579265D01*
X520349Y580626D01*
X522274Y582551D01*
X523635Y584909D01*
X524340Y587539D01*
Y587630D01*
D02*
G37*
G36*
X512730D02*
X503660D01*
Y587539D01*
X504365Y584909D01*
X505726Y582551D01*
X507651Y580626D01*
X510009Y579265D01*
X512639Y578560D01*
X512730D01*
Y587630D01*
D02*
G37*
G36*
X515194Y572570D02*
X512806D01*
X510499Y571952D01*
X508431Y570758D01*
X506742Y569069D01*
X505548Y567001D01*
X504930Y564694D01*
Y562306D01*
X505548Y559999D01*
X506742Y557931D01*
X508431Y556242D01*
X510499Y555048D01*
X512806Y554430D01*
X515194D01*
X517501Y555048D01*
X519569Y556242D01*
X521258Y557931D01*
X522452Y559999D01*
X523070Y562306D01*
Y564694D01*
X522452Y567001D01*
X521258Y569069D01*
X519569Y570758D01*
X517501Y571952D01*
X515194Y572570D01*
D02*
G37*
G36*
X413060Y548560D02*
X402520D01*
Y547679D01*
X384863D01*
X384863Y547679D01*
X383773Y547462D01*
X382848Y546844D01*
X369982Y533978D01*
X369364Y533054D01*
X369147Y531963D01*
X369147Y531963D01*
Y520597D01*
X369147Y520597D01*
X369364Y519506D01*
X369982Y518582D01*
X372362Y516202D01*
X372362Y516202D01*
X372505Y516106D01*
X374846Y513765D01*
Y508310D01*
X391304D01*
X392184Y506339D01*
X391297Y505205D01*
X386786D01*
X386786Y505205D01*
X386511Y505150D01*
X374846D01*
Y495610D01*
X394886D01*
Y500265D01*
X395000Y500342D01*
X402219Y507560D01*
X408730D01*
Y517936D01*
X408730Y518473D01*
X408733Y518635D01*
X408888Y520566D01*
X409507Y521492D01*
X409768Y522805D01*
Y524510D01*
X403860D01*
Y525780D01*
X402590D01*
Y532186D01*
X401483D01*
X395680Y537989D01*
Y538362D01*
X395023Y539949D01*
X395962Y541981D01*
X402520D01*
Y536020D01*
X413060D01*
Y548560D01*
D02*
G37*
G36*
X320040Y542599D02*
X318950Y542382D01*
X318286Y541938D01*
X313802D01*
X313801Y541938D01*
X312711Y541721D01*
X311787Y541104D01*
X311787Y541104D01*
X310489Y539806D01*
X309880D01*
Y534670D01*
X314518D01*
Y535777D01*
X314981Y536241D01*
X319379D01*
X319379Y536241D01*
X320470Y536458D01*
X321394Y537075D01*
X322054Y537736D01*
X322672Y538660D01*
X322889Y539750D01*
X322672Y540840D01*
X322054Y541764D01*
X321130Y542382D01*
X320040Y542599D01*
D02*
G37*
G36*
X515361Y548440D02*
X515270D01*
Y539370D01*
X524340D01*
Y539461D01*
X523635Y542091D01*
X522274Y544449D01*
X520349Y546374D01*
X517991Y547735D01*
X515361Y548440D01*
D02*
G37*
G36*
X512730D02*
X512639D01*
X510009Y547735D01*
X507651Y546374D01*
X505726Y544449D01*
X504365Y542091D01*
X503660Y539461D01*
Y539370D01*
X512730D01*
Y548440D01*
D02*
G37*
G36*
X307340Y539806D02*
X306133D01*
X304820Y539545D01*
X303707Y538801D01*
X302963Y537688D01*
X302702Y536375D01*
Y534670D01*
X307340D01*
Y539806D01*
D02*
G37*
G36*
X524340Y536830D02*
X515270D01*
Y527760D01*
X515361D01*
X517991Y528465D01*
X520349Y529826D01*
X522274Y531751D01*
X523635Y534109D01*
X524340Y536739D01*
Y536830D01*
D02*
G37*
G36*
X512730D02*
X503660D01*
Y536739D01*
X504365Y534109D01*
X505726Y531751D01*
X507651Y529826D01*
X510009Y528465D01*
X512639Y527760D01*
X512730D01*
Y536830D01*
D02*
G37*
G36*
X406337Y532186D02*
X405130D01*
Y527050D01*
X409768D01*
Y528755D01*
X409507Y530068D01*
X408763Y531181D01*
X407650Y531925D01*
X406337Y532186D01*
D02*
G37*
G36*
X214661Y531491D02*
Y527019D01*
X219132D01*
X218299Y529029D01*
X216670Y530658D01*
X214661Y531491D01*
D02*
G37*
G36*
X212121D02*
X210111Y530658D01*
X208482Y529029D01*
X207649Y527019D01*
X212121D01*
Y531491D01*
D02*
G37*
G36*
X219132Y524479D02*
X214661D01*
Y520008D01*
X216670Y520841D01*
X218299Y522469D01*
X219132Y524479D01*
D02*
G37*
G36*
X212121D02*
X207649D01*
X208482Y522469D01*
X210111Y520841D01*
X212121Y520008D01*
Y524479D01*
D02*
G37*
G36*
X355631Y514981D02*
Y510509D01*
X360102D01*
X359269Y512519D01*
X357640Y514148D01*
X355631Y514981D01*
D02*
G37*
G36*
X353091D02*
X351081Y514148D01*
X349452Y512519D01*
X348619Y510509D01*
X353091D01*
Y514981D01*
D02*
G37*
G36*
X314518Y532130D02*
X308610D01*
X302702D01*
Y530425D01*
X302963Y529112D01*
X303582Y528186D01*
X303737Y526255D01*
X303740Y526093D01*
X303740Y525556D01*
Y515180D01*
X309751D01*
X313866Y511066D01*
X313866Y511066D01*
X314790Y510448D01*
X315880Y510231D01*
X316909D01*
X317271Y509869D01*
X317189Y507532D01*
X316669Y507039D01*
X310070D01*
Y510460D01*
X299530D01*
Y497920D01*
X310070D01*
Y501341D01*
X318070D01*
X318346Y501065D01*
Y495610D01*
X338386D01*
Y505150D01*
X322657D01*
X321673Y506319D01*
X322390Y508310D01*
X338386D01*
Y517850D01*
X318346D01*
Y517516D01*
X316314Y516675D01*
X313780Y519209D01*
Y525734D01*
X313780Y526220D01*
X313682Y528252D01*
X314257Y529112D01*
X314518Y530425D01*
Y532130D01*
D02*
G37*
G36*
X287460Y525570D02*
X276420D01*
Y521024D01*
X271845Y516449D01*
X271003Y515188D01*
X270707Y513702D01*
Y512050D01*
X270488Y511830D01*
X269800Y510169D01*
Y508371D01*
X270488Y506710D01*
X271759Y505438D01*
X273421Y504750D01*
X275219D01*
X276880Y505438D01*
X278152Y506710D01*
X278840Y508371D01*
Y510169D01*
X278476Y511047D01*
Y512093D01*
X281914Y515530D01*
X287460D01*
Y525570D01*
D02*
G37*
G36*
X515194Y521770D02*
X512806D01*
X510499Y521152D01*
X508431Y519958D01*
X506742Y518269D01*
X505548Y516201D01*
X504930Y513894D01*
Y511506D01*
X505548Y509199D01*
X506742Y507131D01*
X508431Y505442D01*
X510499Y504248D01*
X512806Y503630D01*
X515194D01*
X517501Y504248D01*
X519569Y505442D01*
X521258Y507131D01*
X522452Y509199D01*
X523070Y511506D01*
Y513894D01*
X522452Y516201D01*
X521258Y518269D01*
X519569Y519958D01*
X517501Y521152D01*
X515194Y521770D01*
D02*
G37*
G36*
X360102Y507969D02*
X355631D01*
Y503498D01*
X357640Y504331D01*
X359269Y505960D01*
X360102Y507969D01*
D02*
G37*
G36*
X353091D02*
X348619D01*
X349452Y505960D01*
X351081Y504331D01*
X353091Y503498D01*
Y507969D01*
D02*
G37*
G36*
X95040Y503088D02*
X83500D01*
Y499417D01*
X81015D01*
X80032Y500400D01*
X78371Y501088D01*
X76572D01*
X74911Y500400D01*
X73640Y499129D01*
X72951Y497467D01*
Y495669D01*
X73640Y494008D01*
X74911Y492736D01*
X76572Y492048D01*
X78371D01*
X80032Y492736D01*
X81015Y493720D01*
X83500D01*
Y490048D01*
X95040D01*
Y503088D01*
D02*
G37*
G36*
X127000Y503443D02*
X119520D01*
X118236Y503187D01*
X117148Y502460D01*
X116421Y501372D01*
X116166Y500088D01*
Y499108D01*
X127000D01*
Y503443D01*
D02*
G37*
G36*
X146048Y503579D02*
Y499108D01*
X150520D01*
X149687Y501118D01*
X148058Y502747D01*
X146048Y503579D01*
D02*
G37*
G36*
X127000Y496568D02*
X116166D01*
Y495588D01*
X116421Y494305D01*
X117148Y493216D01*
X118236Y492489D01*
X119520Y492234D01*
X127000D01*
Y496568D01*
D02*
G37*
G36*
X150520Y496568D02*
X146048D01*
Y492097D01*
X148058Y492930D01*
X149687Y494558D01*
X150520Y496568D01*
D02*
G37*
G36*
X413060Y502840D02*
X402520D01*
Y495739D01*
X402456Y495726D01*
X401532Y495108D01*
X401532Y495108D01*
X396952Y490529D01*
X394886D01*
Y492450D01*
X374846D01*
Y482910D01*
X394886D01*
Y484831D01*
X398132D01*
X398132Y484831D01*
X399960Y483283D01*
Y478569D01*
X399220Y477829D01*
X394886D01*
Y479750D01*
X374846D01*
Y470210D01*
X392266D01*
X393507Y468374D01*
X392984Y467050D01*
X374846D01*
Y457510D01*
X386567D01*
X386842Y457455D01*
X386842Y457455D01*
X392718D01*
X393604Y456321D01*
X392724Y454350D01*
X374846D01*
Y443810D01*
X387011D01*
X387286Y443755D01*
X387286Y443755D01*
X392036D01*
X399960Y435831D01*
Y429841D01*
X399960Y428820D01*
X399089Y427149D01*
X398927Y427041D01*
X396980Y426549D01*
X394970Y427381D01*
Y421640D01*
Y415899D01*
X396980Y416731D01*
X398927Y416239D01*
X400040Y415495D01*
X401353Y415234D01*
X402560D01*
Y421640D01*
X403830D01*
Y422910D01*
X409738D01*
Y424614D01*
X409477Y425928D01*
X408902Y426788D01*
X409190Y427859D01*
X409728Y428820D01*
X410000D01*
Y439860D01*
X403989D01*
X395230Y448618D01*
X394886Y448848D01*
Y452922D01*
X396918Y453763D01*
X398370Y452312D01*
X398370Y452312D01*
X399294Y451694D01*
X400384Y451477D01*
X402520D01*
Y444580D01*
X413060D01*
Y457120D01*
X405589D01*
X405314Y457175D01*
X405314Y457175D01*
X401564D01*
X399256Y459483D01*
X399336Y459676D01*
X400690Y461215D01*
X402004Y460954D01*
X403210D01*
Y467360D01*
X404480D01*
Y468630D01*
X410388D01*
Y470335D01*
X410127Y471648D01*
X409552Y472508D01*
X410000Y474540D01*
X410000D01*
Y485580D01*
X402934D01*
X402093Y487612D01*
X404726Y490245D01*
X405314D01*
X405314Y490245D01*
X405589Y490300D01*
X413060D01*
Y502840D01*
D02*
G37*
G36*
X515361Y497640D02*
X515270D01*
Y488570D01*
X524340D01*
Y488661D01*
X523635Y491291D01*
X522274Y493649D01*
X520349Y495574D01*
X517991Y496935D01*
X515361Y497640D01*
D02*
G37*
G36*
X512730D02*
X512639D01*
X510009Y496935D01*
X507651Y495574D01*
X505726Y493649D01*
X504365Y491291D01*
X503660Y488661D01*
Y488570D01*
X512730D01*
Y497640D01*
D02*
G37*
G36*
X153701Y488311D02*
Y483839D01*
X158172D01*
X157339Y485849D01*
X155710Y487478D01*
X153701Y488311D01*
D02*
G37*
G36*
X151161D02*
X149151Y487478D01*
X147522Y485849D01*
X146690Y483839D01*
X151161D01*
Y488311D01*
D02*
G37*
G36*
X313630Y493200D02*
X303590D01*
Y482747D01*
X303590Y482160D01*
X303549Y480145D01*
X302963Y479268D01*
X302702Y477954D01*
Y476250D01*
X308610D01*
X314518D01*
Y477954D01*
X314257Y479268D01*
X313671Y480145D01*
X313630Y482160D01*
X313630Y482747D01*
Y484831D01*
X318346D01*
Y482910D01*
X338386D01*
Y492450D01*
X318346D01*
Y490529D01*
X313630D01*
Y493200D01*
D02*
G37*
G36*
X186120Y489448D02*
X168620D01*
X167832Y489291D01*
X167164Y488845D01*
X166717Y488176D01*
X166560Y487388D01*
Y482888D01*
X166717Y482100D01*
X167164Y481432D01*
X167832Y480986D01*
X168620Y480829D01*
X186120D01*
X186908Y480986D01*
X187576Y481432D01*
X188023Y482100D01*
X188179Y482888D01*
Y487388D01*
X188023Y488176D01*
X187576Y488845D01*
X186908Y489291D01*
X186120Y489448D01*
D02*
G37*
G36*
X286190Y479850D02*
X275150D01*
Y478790D01*
X270553D01*
X270530Y478812D01*
X268869Y479500D01*
X267071D01*
X265410Y478812D01*
X264138Y477541D01*
X263450Y475879D01*
Y474081D01*
X264138Y472420D01*
X265410Y471148D01*
X267071Y470460D01*
X268869D01*
X270222Y471020D01*
X275150D01*
Y469810D01*
X286190D01*
Y479850D01*
D02*
G37*
G36*
X524340Y486030D02*
X515270D01*
Y476960D01*
X515361D01*
X517991Y477665D01*
X520349Y479026D01*
X522274Y480951D01*
X523635Y483309D01*
X524340Y485939D01*
Y486030D01*
D02*
G37*
G36*
X512730D02*
X503660D01*
Y485939D01*
X504365Y483309D01*
X505726Y480951D01*
X507651Y479026D01*
X510009Y477665D01*
X512639Y476960D01*
X512730D01*
Y486030D01*
D02*
G37*
G36*
X158172Y481299D02*
X153701D01*
Y476828D01*
X155710Y477661D01*
X157339Y479290D01*
X158172Y481299D01*
D02*
G37*
G36*
X151161D02*
X146690D01*
X147522Y479290D01*
X149151Y477661D01*
X151161Y476828D01*
Y481299D01*
D02*
G37*
G36*
X207320Y478708D02*
X196780D01*
Y476323D01*
X187309D01*
X186908Y476591D01*
X186120Y476748D01*
X168620D01*
X167832Y476591D01*
X167164Y476145D01*
X166717Y475476D01*
X166560Y474688D01*
Y470188D01*
X166717Y469400D01*
X167164Y468732D01*
X167832Y468286D01*
X168620Y468129D01*
X186120D01*
X186908Y468286D01*
X187309Y468554D01*
X196780D01*
Y466168D01*
X207320D01*
Y478708D01*
D02*
G37*
G36*
X109290Y481250D02*
X98750D01*
Y468710D01*
X109290D01*
Y469591D01*
X117579D01*
X117617Y469400D01*
X118064Y468732D01*
X118732Y468286D01*
X119520Y468129D01*
X137020D01*
X137808Y468286D01*
X138476Y468732D01*
X138923Y469400D01*
X139080Y470188D01*
Y474688D01*
X138923Y475476D01*
X138476Y476145D01*
X137808Y476591D01*
X137020Y476748D01*
X119520D01*
X118732Y476591D01*
X118064Y476145D01*
X117617Y475476D01*
X117580Y475289D01*
X109290D01*
Y481250D01*
D02*
G37*
G36*
X436050Y517950D02*
X425010D01*
Y507910D01*
X431365D01*
X431740Y507835D01*
X435951D01*
X438051Y505735D01*
X438128Y505550D01*
X438751Y504927D01*
X437909Y502895D01*
X425266D01*
X424991Y502840D01*
X417520D01*
Y490300D01*
X428060D01*
Y491512D01*
X448043D01*
X458023Y481532D01*
X457182Y479500D01*
X456301D01*
X454640Y478812D01*
X453368Y477541D01*
X452680Y475879D01*
Y474081D01*
X453368Y472420D01*
X452672Y470487D01*
X440892Y458707D01*
X438860Y459369D01*
X438172Y461031D01*
X436951Y462252D01*
Y464138D01*
X436951Y464138D01*
X436734Y465228D01*
X436117Y466152D01*
X436117Y466152D01*
X436050Y466219D01*
Y470462D01*
X438082Y471304D01*
X439321Y470065D01*
X439398Y469879D01*
X440670Y468608D01*
X442331Y467920D01*
X444129D01*
X445790Y468608D01*
X447062Y469879D01*
X447750Y471541D01*
Y473339D01*
X447062Y475000D01*
X445790Y476272D01*
X444129Y476960D01*
X443413D01*
X438627Y481747D01*
X437366Y482589D01*
X436050Y482851D01*
Y485230D01*
X425032D01*
X425010Y485230D01*
X423000Y485283D01*
Y485580D01*
X412960D01*
Y474540D01*
X415381D01*
Y472347D01*
X415186Y472308D01*
X414493Y471845D01*
X414030Y471152D01*
X413867Y470335D01*
Y464385D01*
X414030Y463568D01*
X414493Y462875D01*
X415186Y462412D01*
X416003Y462249D01*
X420956D01*
X421774Y462412D01*
X422467Y462875D01*
X422930Y463568D01*
X422978Y463807D01*
X425010Y463607D01*
Y462190D01*
X428956D01*
X429053Y462118D01*
X430147Y460158D01*
X429820Y459369D01*
X429820Y457777D01*
X428272Y457199D01*
X427943Y457120D01*
X426267Y457120D01*
X417520D01*
Y444580D01*
X428060D01*
Y445461D01*
X434430D01*
X444656Y435235D01*
X443505Y433513D01*
X442859Y433780D01*
X441061D01*
X439399Y433092D01*
X438128Y431820D01*
X438051Y431635D01*
X437927Y431511D01*
X436050Y432289D01*
Y439510D01*
X425010D01*
Y439510D01*
X423000Y439563D01*
Y439860D01*
X412960D01*
Y428820D01*
X415056D01*
Y426692D01*
X414536Y426588D01*
X413843Y426125D01*
X413380Y425432D01*
X413217Y424614D01*
Y419931D01*
X413203Y419862D01*
X413203Y419862D01*
Y418502D01*
X411226Y416525D01*
X410587Y416828D01*
X409550Y417723D01*
X409738Y418666D01*
Y420370D01*
X405100D01*
Y415234D01*
X405743D01*
X406148Y413202D01*
X405109Y412772D01*
X403838Y411501D01*
X403150Y409839D01*
Y408041D01*
X403838Y406380D01*
X405109Y405108D01*
X406771Y404420D01*
X408569D01*
X410230Y405108D01*
X411502Y406380D01*
X412190Y408041D01*
Y409431D01*
X418066Y415308D01*
X418066Y415308D01*
X418684Y416232D01*
X418743Y416529D01*
X420307D01*
X421124Y416692D01*
X421817Y417155D01*
X422280Y417848D01*
X422443Y418666D01*
Y424614D01*
X422280Y425432D01*
X421817Y426125D01*
X421124Y426588D01*
X420754Y426662D01*
Y428820D01*
X423000D01*
Y429417D01*
X425010Y429470D01*
Y429470D01*
X432023D01*
X433021Y427438D01*
X432362Y426585D01*
X431740D01*
X431365Y426510D01*
X425010D01*
Y416470D01*
X436050D01*
Y419102D01*
X436096Y419111D01*
X437357Y419953D01*
X442143Y424740D01*
X442859D01*
X444520Y425428D01*
X445143Y426051D01*
X447175Y425209D01*
Y413254D01*
X429231Y395310D01*
X421970D01*
Y384770D01*
X434010D01*
Y392031D01*
X452038Y410060D01*
X452038Y410060D01*
X452656Y410984D01*
X452873Y412074D01*
X452873Y412074D01*
Y433896D01*
X452873Y433896D01*
X452656Y434986D01*
X452038Y435910D01*
X452038Y435910D01*
X439332Y448616D01*
X439384Y449141D01*
X458554Y468311D01*
X458554Y468311D01*
X459171Y469235D01*
X459388Y470326D01*
Y470994D01*
X459761Y471148D01*
X461032Y472420D01*
X461209Y472847D01*
X463241Y472443D01*
Y398840D01*
X459711Y395310D01*
X452450D01*
Y384770D01*
X464490D01*
Y392031D01*
X468104Y395646D01*
X468722Y396570D01*
X468939Y397660D01*
X468939Y397660D01*
Y477494D01*
X468722Y478584D01*
X468104Y479509D01*
X468104Y479509D01*
X452515Y495098D01*
X452786Y496189D01*
X453258Y497229D01*
X454680Y497818D01*
X455952Y499090D01*
X456640Y500751D01*
Y502549D01*
X455952Y504211D01*
X454680Y505482D01*
X453019Y506170D01*
X451221D01*
X449560Y505482D01*
X448288Y504211D01*
X447888Y503246D01*
X446016D01*
X445275Y505033D01*
X445792Y505550D01*
X446480Y507211D01*
Y509009D01*
X445792Y510671D01*
X444520Y511942D01*
X442859Y512630D01*
X442143D01*
X440307Y514467D01*
X439046Y515309D01*
X437560Y515605D01*
X436050D01*
Y517950D01*
D02*
G37*
G36*
X350551Y470531D02*
Y466059D01*
X355022D01*
X354189Y468069D01*
X352561Y469698D01*
X350551Y470531D01*
D02*
G37*
G36*
X348011D02*
X346001Y469698D01*
X344372Y468069D01*
X343540Y466059D01*
X348011D01*
Y470531D01*
D02*
G37*
G36*
X410388Y466090D02*
X405750D01*
Y460954D01*
X406956D01*
X408270Y461215D01*
X409383Y461959D01*
X410127Y463072D01*
X410388Y464385D01*
Y466090D01*
D02*
G37*
G36*
X198280Y461448D02*
X196248Y460122D01*
X195578Y460400D01*
Y454658D01*
Y448917D01*
X196248Y449194D01*
X198280Y447868D01*
Y447868D01*
X203300D01*
Y454658D01*
Y461448D01*
X198280D01*
Y461448D01*
D02*
G37*
G36*
X355022Y463519D02*
X350551D01*
Y459048D01*
X352561Y459881D01*
X354189Y461510D01*
X355022Y463519D01*
D02*
G37*
G36*
X348011D02*
X343540D01*
X344372Y461510D01*
X346001Y459881D01*
X348011Y459048D01*
Y463519D01*
D02*
G37*
G36*
X515194Y470970D02*
X512806D01*
X510499Y470352D01*
X508431Y469158D01*
X506742Y467469D01*
X505548Y465401D01*
X504930Y463094D01*
Y460706D01*
X505548Y458399D01*
X506742Y456331D01*
X508431Y454642D01*
X510499Y453448D01*
X512806Y452830D01*
X515194D01*
X517501Y453448D01*
X519569Y454642D01*
X521258Y456331D01*
X522452Y458399D01*
X523070Y460706D01*
Y463094D01*
X522452Y465401D01*
X521258Y467469D01*
X519569Y469158D01*
X517501Y470352D01*
X515194Y470970D01*
D02*
G37*
G36*
X186120Y464048D02*
X168620D01*
X167832Y463891D01*
X167164Y463445D01*
X166717Y462776D01*
X166560Y461988D01*
Y457488D01*
X166717Y456700D01*
X167164Y456032D01*
X167832Y455586D01*
X168620Y455429D01*
X186120D01*
X186486Y455502D01*
X187917Y454729D01*
X188518Y454217D01*
Y453507D01*
X189400Y451379D01*
X191028Y449750D01*
X193038Y448917D01*
Y454658D01*
Y460400D01*
X191028Y459567D01*
X190212Y458750D01*
X188179Y459592D01*
Y461988D01*
X188023Y462776D01*
X187576Y463445D01*
X186908Y463891D01*
X186120Y464048D01*
D02*
G37*
G36*
X225941Y445959D02*
X220671D01*
Y440689D01*
X225941D01*
Y445959D01*
D02*
G37*
G36*
X138520Y446208D02*
X133500D01*
Y440688D01*
X138520D01*
Y446208D01*
D02*
G37*
G36*
X358140Y441351D02*
Y436880D01*
X362611D01*
X361779Y438890D01*
X360150Y440519D01*
X358140Y441351D01*
D02*
G37*
G36*
X355600D02*
X353590Y440519D01*
X351961Y438890D01*
X351129Y436880D01*
X355600D01*
Y441351D01*
D02*
G37*
G36*
X515194Y445570D02*
X512806D01*
X510499Y444952D01*
X508431Y443758D01*
X506742Y442069D01*
X505548Y440001D01*
X504930Y437694D01*
Y435306D01*
X505548Y432999D01*
X506742Y430931D01*
X508431Y429242D01*
X510499Y428048D01*
X512806Y427430D01*
X515194D01*
X517501Y428048D01*
X519569Y429242D01*
X521258Y430931D01*
X522452Y432999D01*
X523070Y435306D01*
Y437694D01*
X522452Y440001D01*
X521258Y442069D01*
X519569Y443758D01*
X517501Y444952D01*
X515194Y445570D01*
D02*
G37*
G36*
X392430Y427381D02*
X390420Y426549D01*
X388791Y424920D01*
X387959Y422910D01*
X392430D01*
Y427381D01*
D02*
G37*
G36*
Y420370D02*
X387959D01*
X388791Y418360D01*
X390420Y416731D01*
X392430Y415899D01*
Y420370D01*
D02*
G37*
G36*
X139091D02*
X134620D01*
Y415899D01*
X136630Y416731D01*
X138259Y418360D01*
X139091Y420370D01*
D02*
G37*
G36*
X132080D02*
X127609D01*
X128441Y418360D01*
X130070Y416731D01*
X132080Y415899D01*
Y420370D01*
D02*
G37*
G36*
X515361Y421440D02*
X515270D01*
Y412370D01*
X524340D01*
Y412461D01*
X523635Y415091D01*
X522274Y417449D01*
X520349Y419374D01*
X517991Y420735D01*
X515361Y421440D01*
D02*
G37*
G36*
X512730D02*
X512639D01*
X510009Y420735D01*
X507651Y419374D01*
X505726Y417449D01*
X504365Y415091D01*
X503660Y412461D01*
Y412370D01*
X512730D01*
Y421440D01*
D02*
G37*
G36*
X99091Y415920D02*
Y411449D01*
X103562D01*
X102729Y413459D01*
X101101Y415088D01*
X99091Y415920D01*
D02*
G37*
G36*
X96551D02*
X94541Y415088D01*
X92912Y413459D01*
X92079Y411449D01*
X96551D01*
Y415920D01*
D02*
G37*
G36*
X85751Y414020D02*
X81280D01*
Y409549D01*
X83290Y410381D01*
X84919Y412010D01*
X85751Y414020D01*
D02*
G37*
G36*
X78740D02*
X74269D01*
X75101Y412010D01*
X76730Y410381D01*
X78740Y409549D01*
Y414020D01*
D02*
G37*
G36*
X103562Y408909D02*
X99091D01*
Y404438D01*
X101101Y405271D01*
X102729Y406899D01*
X103562Y408909D01*
D02*
G37*
G36*
X96551D02*
X92079D01*
X92912Y406899D01*
X94541Y405271D01*
X96551Y404438D01*
Y408909D01*
D02*
G37*
G36*
X524340Y409830D02*
X515270D01*
Y400760D01*
X515361D01*
X517991Y401465D01*
X520349Y402826D01*
X522274Y404751D01*
X523635Y407109D01*
X524340Y409739D01*
Y409830D01*
D02*
G37*
G36*
X512730D02*
X503660D01*
Y409739D01*
X504365Y407109D01*
X505726Y404751D01*
X507651Y402826D01*
X510009Y401465D01*
X512639Y400760D01*
X512730D01*
Y409830D01*
D02*
G37*
G36*
X515194Y394770D02*
X512806D01*
X510499Y394152D01*
X508431Y392958D01*
X506742Y391269D01*
X505548Y389201D01*
X504930Y386894D01*
Y384506D01*
X505548Y382199D01*
X506742Y380131D01*
X508431Y378442D01*
X510499Y377248D01*
X512806Y376630D01*
X515194D01*
X517501Y377248D01*
X519569Y378442D01*
X521258Y380131D01*
X522452Y382199D01*
X523070Y384506D01*
Y386894D01*
X522452Y389201D01*
X521258Y391269D01*
X519569Y392958D01*
X517501Y394152D01*
X515194Y394770D01*
D02*
G37*
G36*
X403530Y382310D02*
X391490D01*
Y371770D01*
X394661D01*
Y369639D01*
X392240D01*
Y359099D01*
X402780D01*
Y369639D01*
X400359D01*
Y371770D01*
X403530D01*
Y382310D01*
D02*
G37*
G36*
X374320D02*
X362280D01*
Y371770D01*
X365452D01*
Y369639D01*
X363031D01*
Y359099D01*
X373571D01*
Y369639D01*
X371149D01*
Y371770D01*
X374320D01*
Y382310D01*
D02*
G37*
G36*
X343840D02*
X331800D01*
Y371770D01*
X334971D01*
Y369639D01*
X332550D01*
Y359099D01*
X343090D01*
Y369639D01*
X340669D01*
Y371770D01*
X343840D01*
Y382310D01*
D02*
G37*
G36*
X493700D02*
X481660D01*
Y371770D01*
X483892D01*
Y368999D01*
X481471D01*
Y358459D01*
X492011D01*
Y368999D01*
X489590D01*
Y371770D01*
X493700D01*
Y382310D01*
D02*
G37*
G36*
X464490D02*
X452450D01*
Y371770D01*
X455952D01*
Y368999D01*
X453531D01*
Y358459D01*
X464071D01*
Y368999D01*
X461650D01*
Y371770D01*
X464490D01*
Y382310D01*
D02*
G37*
G36*
X434010D02*
X421970D01*
Y371770D01*
X425472D01*
Y368999D01*
X423051D01*
Y358459D01*
X433591D01*
Y368999D01*
X431170D01*
Y371770D01*
X434010D01*
Y382310D01*
D02*
G37*
G36*
X515194Y369370D02*
X512806D01*
X510499Y368752D01*
X508431Y367558D01*
X506742Y365869D01*
X505548Y363801D01*
X504930Y361494D01*
Y359106D01*
X505548Y356799D01*
X506742Y354731D01*
X508431Y353042D01*
X510499Y351848D01*
X512806Y351230D01*
X515194D01*
X517501Y351848D01*
X519569Y353042D01*
X521258Y354731D01*
X522452Y356799D01*
X523070Y359106D01*
Y361494D01*
X522452Y363801D01*
X521258Y365869D01*
X519569Y367558D01*
X517501Y368752D01*
X515194Y369370D01*
D02*
G37*
G36*
X404050Y355909D02*
X398780D01*
Y350639D01*
X404050D01*
Y355909D01*
D02*
G37*
G36*
X374841D02*
X369571D01*
Y350639D01*
X374841D01*
Y355909D01*
D02*
G37*
G36*
X344360D02*
X339090D01*
Y350639D01*
X344360D01*
Y355909D01*
D02*
G37*
G36*
X396240D02*
X390970D01*
Y350639D01*
X396240D01*
Y355909D01*
D02*
G37*
G36*
X367031D02*
X361761D01*
Y350639D01*
X367031D01*
Y355909D01*
D02*
G37*
G36*
X336550D02*
X331280D01*
Y350639D01*
X336550D01*
Y355909D01*
D02*
G37*
G36*
X493281Y355269D02*
X488011D01*
Y349999D01*
X493281D01*
Y355269D01*
D02*
G37*
G36*
X465341D02*
X460071D01*
Y349999D01*
X465341D01*
Y355269D01*
D02*
G37*
G36*
X434861D02*
X429591D01*
Y349999D01*
X434861D01*
Y355269D01*
D02*
G37*
G36*
X485471D02*
X480201D01*
Y349999D01*
X485471D01*
Y355269D01*
D02*
G37*
G36*
X457531D02*
X452261D01*
Y349999D01*
X457531D01*
Y355269D01*
D02*
G37*
G36*
X427051D02*
X421781D01*
Y349999D01*
X427051D01*
Y355269D01*
D02*
G37*
G36*
X336550Y348099D02*
X331280D01*
Y346858D01*
X328699Y344277D01*
X328504Y344472D01*
X326494Y345305D01*
Y339563D01*
X325224D01*
Y338293D01*
X319483D01*
X320316Y336284D01*
X321945Y334655D01*
X324073Y333773D01*
X323905Y331811D01*
X323819D01*
Y326160D01*
X321279D01*
Y331811D01*
X307639D01*
Y331811D01*
X305607Y331662D01*
X305030Y331901D01*
Y326160D01*
X302490D01*
Y331901D01*
X300480Y331069D01*
X298851Y329440D01*
X298004Y327395D01*
X296092Y326772D01*
X294710Y327889D01*
Y337740D01*
X284170D01*
Y325200D01*
X285273D01*
X285373Y324696D01*
X286355Y323225D01*
X294169Y315412D01*
X293327Y313380D01*
X284170D01*
Y300840D01*
X289301D01*
X292585Y297555D01*
X292585Y297555D01*
X294056Y296573D01*
X295790Y296228D01*
X295790Y296228D01*
X322549D01*
X322879Y296294D01*
X331809D01*
X332820Y294615D01*
Y294205D01*
X332734Y294062D01*
X331035Y292526D01*
X322879D01*
X322549Y292592D01*
X289403D01*
X287669Y292247D01*
X286199Y291265D01*
X285216Y289794D01*
X285154Y289480D01*
X284050D01*
Y276940D01*
X294590D01*
Y283528D01*
X322549D01*
X322879Y283594D01*
X331809D01*
X333518Y283934D01*
X334967Y284902D01*
X335936Y286351D01*
X336275Y288060D01*
X337104Y289070D01*
X342178D01*
Y282588D01*
X340970Y281380D01*
X340478D01*
X338350Y280499D01*
X336721Y278870D01*
X335889Y276860D01*
X341630D01*
Y274320D01*
X335761D01*
X335179Y273450D01*
X330210D01*
Y267682D01*
X324706D01*
X324590Y267799D01*
X322580Y268631D01*
Y262890D01*
Y257149D01*
X324590Y257981D01*
X325227Y258618D01*
X330210D01*
Y253370D01*
X338480D01*
Y263410D01*
X341020D01*
Y253370D01*
X349290D01*
Y253370D01*
X350480Y254640D01*
X354963D01*
Y238731D01*
X353086Y237953D01*
X345265Y245775D01*
X343794Y246757D01*
X342060Y247102D01*
X271780D01*
X271720Y247090D01*
X270881D01*
X270105Y246769D01*
X270046Y246757D01*
X269995Y246723D01*
X269219Y246402D01*
X268626Y245809D01*
X268575Y245775D01*
X268541Y245724D01*
X267948Y245131D01*
X267627Y244355D01*
X267593Y244304D01*
X267581Y244245D01*
X267315Y243603D01*
X267260Y243469D01*
X266255Y243594D01*
Y243594D01*
X266255Y243594D01*
X265327Y245242D01*
Y266053D01*
X267359Y266742D01*
X268500Y265601D01*
X270510Y264769D01*
Y270510D01*
X271780D01*
Y271780D01*
X277850D01*
X278027Y272672D01*
Y275670D01*
X280860D01*
Y281940D01*
X274320D01*
X267780D01*
Y276281D01*
X267359Y275868D01*
X265327Y276720D01*
Y295336D01*
X265327Y295337D01*
X264982Y297071D01*
X264000Y298541D01*
X264000Y298541D01*
X254602Y307939D01*
Y313610D01*
X254602Y313610D01*
X254257Y315344D01*
X253275Y316815D01*
X253275Y316815D01*
X243790Y326299D01*
Y332430D01*
X233250D01*
Y319890D01*
X237381D01*
X243129Y314142D01*
X242287Y312110D01*
X233370D01*
Y299570D01*
X237501D01*
X243249Y293822D01*
X242407Y291790D01*
X233370D01*
Y284577D01*
X230787Y281994D01*
X228910Y282772D01*
Y291790D01*
X218370D01*
Y290052D01*
X205349D01*
X204136Y291265D01*
X202666Y292247D01*
X200932Y292592D01*
X200648D01*
X199821Y292757D01*
X181302D01*
X180291Y294435D01*
Y294845D01*
X180377Y294988D01*
X182076Y296523D01*
X190315D01*
X191801Y296228D01*
X219560D01*
X221294Y296573D01*
X222765Y297555D01*
X224779Y299570D01*
X228910D01*
Y312110D01*
X220158D01*
X218487Y312110D01*
X218186Y312179D01*
X217540Y312420D01*
X210820D01*
Y313690D01*
X209550D01*
Y319431D01*
X207540Y318599D01*
X207164Y318222D01*
X203209D01*
X202026Y319013D01*
X199821Y319451D01*
X191831D01*
Y313690D01*
X189291D01*
Y319451D01*
X182706D01*
X181053Y321009D01*
X181302Y321923D01*
X190315D01*
X191801Y321628D01*
X218250D01*
Y319890D01*
X228790D01*
Y332430D01*
X218250D01*
Y330692D01*
X200648D01*
X199821Y330857D01*
X181302D01*
X179592Y330517D01*
X178143Y329548D01*
X177175Y328099D01*
X176835Y326390D01*
X176006Y325380D01*
X170933D01*
Y327783D01*
X171309Y328159D01*
X172142Y330169D01*
X160660D01*
X161492Y328159D01*
X161869Y327783D01*
Y325380D01*
X157150D01*
Y329227D01*
X157309Y329385D01*
X158141Y331395D01*
X152400D01*
Y332665D01*
X151130D01*
Y338406D01*
X149120Y337574D01*
X147491Y335945D01*
X146610Y333817D01*
Y332041D01*
X143510D01*
Y326390D01*
Y320739D01*
X151746D01*
X151955Y320138D01*
X151882Y319823D01*
X150492Y318157D01*
X132980D01*
X132477Y318056D01*
X124753D01*
X115629Y327180D01*
X115520Y327729D01*
Y337740D01*
X104980D01*
Y325200D01*
X106298D01*
X106303Y325176D01*
X106961Y324191D01*
X107128Y323351D01*
X108110Y321880D01*
X115099Y314892D01*
X114257Y312860D01*
X105100D01*
Y300320D01*
X109010D01*
X111710Y297620D01*
X111710Y297620D01*
X113180Y296637D01*
X114915Y296292D01*
X143156D01*
X143479Y296228D01*
X144965Y296523D01*
X151500D01*
X152510Y294845D01*
Y294435D01*
X152425Y294292D01*
X150726Y292757D01*
X132980D01*
X132154Y292592D01*
X111075D01*
X109341Y292247D01*
X107870Y291265D01*
X107045Y290440D01*
X106404Y289480D01*
X105100D01*
Y276940D01*
X115640D01*
Y283528D01*
X126696D01*
X127126Y282637D01*
X127319Y281496D01*
X125932Y280109D01*
X125099Y278099D01*
X136582D01*
X135749Y280109D01*
X134363Y281496D01*
X134555Y282637D01*
X134986Y283528D01*
X143479D01*
X144965Y283824D01*
X151500D01*
X153209Y284163D01*
X154658Y285132D01*
X155626Y286581D01*
X155966Y288290D01*
X156795Y289300D01*
X161838D01*
Y281786D01*
X161461Y281410D01*
X160629Y279400D01*
X172111D01*
X171279Y281410D01*
X170902Y281786D01*
Y289300D01*
X176006D01*
X176835Y288290D01*
X177175Y286581D01*
X178143Y285132D01*
X179592Y284163D01*
X181302Y283824D01*
X190315D01*
X191801Y283528D01*
X199054D01*
X200267Y282315D01*
X200267Y282315D01*
X201737Y281333D01*
X203472Y280988D01*
X218370D01*
Y279250D01*
X225388D01*
X226166Y277373D01*
X215465Y266672D01*
X181600D01*
Y270910D01*
X169380D01*
X168976Y272942D01*
X169650Y273221D01*
X171279Y274850D01*
X172111Y276860D01*
X160629D01*
X161461Y274850D01*
X162099Y274212D01*
X161258Y272180D01*
X155600D01*
Y262140D01*
Y252100D01*
X163870Y252100D01*
X165376Y253370D01*
X165902Y253370D01*
X175191D01*
X182068Y246493D01*
Y228230D01*
X171330D01*
Y209690D01*
X201870D01*
Y228230D01*
X191132D01*
Y248370D01*
X191132Y248370D01*
X190787Y250104D01*
X189805Y251575D01*
X189805Y251575D01*
X185649Y255731D01*
X186426Y257608D01*
X217342D01*
X219077Y257953D01*
X220547Y258935D01*
X232634Y271023D01*
X235068Y270582D01*
X235435Y270032D01*
X238054Y267413D01*
X238358Y266679D01*
X238951Y266086D01*
X238985Y266035D01*
X239036Y266001D01*
X239629Y265408D01*
X240405Y265087D01*
X240456Y265053D01*
X240515Y265041D01*
X241291Y264720D01*
X242130D01*
X242190Y264708D01*
X242250Y264720D01*
X243089D01*
X243865Y265041D01*
X243924Y265053D01*
X243975Y265087D01*
X244750Y265408D01*
X245341Y265998D01*
X245360Y265998D01*
X245778Y265919D01*
X247373Y265157D01*
Y128388D01*
X246480Y128148D01*
X244400Y126948D01*
X243541Y126088D01*
X230535Y139095D01*
X229064Y140077D01*
X227330Y140422D01*
X46327D01*
X35358Y151391D01*
Y151674D01*
X35271Y152112D01*
Y157769D01*
X24731D01*
Y157032D01*
X20269D01*
Y157771D01*
X9729D01*
Y147231D01*
X15386D01*
X15824Y147144D01*
X16262Y147231D01*
X20269D01*
Y147968D01*
X24731D01*
Y147229D01*
X27007D01*
X27621Y146309D01*
X41245Y132685D01*
X41245Y132685D01*
X42716Y131703D01*
X44450Y131358D01*
X169200D01*
X169490Y129332D01*
X167120Y127964D01*
X165186Y126030D01*
X163818Y123660D01*
X163110Y121018D01*
Y120920D01*
X173500D01*
X183890D01*
Y121018D01*
X183182Y123660D01*
X181814Y126030D01*
X179880Y127964D01*
X177510Y129332D01*
X177800Y131358D01*
X225453D01*
X238576Y118234D01*
X240047Y117252D01*
X241266Y117009D01*
X241502Y116130D01*
X242702Y114050D01*
X244400Y112352D01*
X246480Y111152D01*
X248799Y110530D01*
X251201D01*
X253520Y111152D01*
X255600Y112352D01*
X257298Y114050D01*
X258498Y116130D01*
X259120Y118449D01*
Y120851D01*
X258498Y123170D01*
X257298Y125250D01*
X256437Y126110D01*
Y133930D01*
X258469Y134772D01*
X271199Y122042D01*
X270880Y120851D01*
Y118449D01*
X271502Y116130D01*
X272702Y114050D01*
X274400Y112352D01*
X275055Y111974D01*
X274511Y109942D01*
X265760D01*
X265760Y109942D01*
X264026Y109597D01*
X262555Y108615D01*
X252711Y98770D01*
X240880D01*
Y80530D01*
X259120D01*
Y92361D01*
X267637Y100878D01*
X304800D01*
X306534Y101223D01*
X308005Y102205D01*
X440085Y234285D01*
X440085Y234285D01*
X440119Y234336D01*
X440712Y234930D01*
X441033Y235705D01*
X441067Y235756D01*
X441079Y235815D01*
X441400Y236591D01*
Y237430D01*
X441412Y237490D01*
X441412Y237490D01*
Y294640D01*
X441412Y294640D01*
X441067Y296374D01*
X440085Y297845D01*
X440085Y297845D01*
X434632Y303297D01*
X435474Y305329D01*
X435522D01*
X437650Y306211D01*
X439279Y307840D01*
X440161Y309968D01*
Y311286D01*
X442193Y312128D01*
X443778Y310543D01*
Y233017D01*
X304943Y94182D01*
X287914D01*
X287298Y95250D01*
X285600Y96948D01*
X283520Y98148D01*
X281201Y98770D01*
X278799D01*
X276480Y98148D01*
X274400Y96948D01*
X272702Y95250D01*
X271502Y93170D01*
X270880Y90851D01*
Y88449D01*
X271502Y86130D01*
X272702Y84050D01*
X274400Y82352D01*
X276480Y81152D01*
X278799Y80530D01*
X281201D01*
X283520Y81152D01*
X285600Y82352D01*
X287298Y84050D01*
X287914Y85118D01*
X306820D01*
X308554Y85463D01*
X310025Y86445D01*
X345586Y122007D01*
X347408Y120955D01*
X347380Y120851D01*
Y118449D01*
X348002Y116130D01*
X349202Y114050D01*
X350900Y112352D01*
X352980Y111152D01*
X355299Y110530D01*
X357701D01*
X360020Y111152D01*
X362100Y112352D01*
X363798Y114050D01*
X364999Y116130D01*
X365620Y118449D01*
Y120851D01*
X364999Y123170D01*
X363798Y125250D01*
X362100Y126948D01*
X360020Y128148D01*
X357701Y128770D01*
X355299D01*
X355195Y128742D01*
X354143Y130564D01*
X448310Y224731D01*
X480468Y192573D01*
Y173270D01*
X478230D01*
Y161302D01*
X478230Y160730D01*
Y159270D01*
X478230Y158698D01*
Y146730D01*
X491770D01*
Y148217D01*
X494731D01*
Y147229D01*
X505271D01*
Y147968D01*
X509729D01*
Y147231D01*
X520269D01*
Y157771D01*
X509729D01*
Y157032D01*
X505271D01*
Y157769D01*
X494731D01*
Y157769D01*
X492705Y157784D01*
X491770Y158719D01*
X491770Y160730D01*
X491770Y161302D01*
Y173270D01*
X489532D01*
Y194450D01*
X489532Y194450D01*
X489187Y196184D01*
X488205Y197655D01*
X488205Y197655D01*
X452842Y233017D01*
Y312420D01*
X452842Y312420D01*
X452497Y314154D01*
X451515Y315625D01*
X451515Y315625D01*
X436505Y330635D01*
X435034Y331617D01*
X433300Y331962D01*
X422980D01*
Y333700D01*
X415663D01*
X415300Y334405D01*
X415041Y335732D01*
X416389Y337080D01*
X416567Y337511D01*
X419952D01*
X419952Y337511D01*
X421042Y337728D01*
X421966Y338346D01*
X425810Y342189D01*
X427051D01*
Y347459D01*
X421781D01*
Y346218D01*
X418772Y343209D01*
X416567D01*
X416389Y343640D01*
X414760Y345269D01*
X412750Y346101D01*
Y340360D01*
X411480D01*
Y339090D01*
X405739D01*
X406571Y337080D01*
X407695Y335957D01*
X407919Y335732D01*
X407660Y334405D01*
X407296Y333700D01*
X406100Y333700D01*
X406100Y333700D01*
X406096Y333700D01*
X397440D01*
Y330692D01*
X370871D01*
X370541Y330626D01*
X361611D01*
X359902Y330286D01*
X358453Y329318D01*
X357485Y327869D01*
X357145Y326160D01*
X356316Y325150D01*
X352722D01*
X352157Y326056D01*
X351727Y327182D01*
X352451Y328930D01*
X340969D01*
X341693Y327182D01*
X341263Y326056D01*
X340698Y325150D01*
X337460D01*
Y331811D01*
X326544D01*
X326376Y333773D01*
X328504Y334655D01*
X330133Y336284D01*
X331015Y338412D01*
Y338535D01*
X335309Y342829D01*
X336550D01*
Y348099D01*
D02*
G37*
G36*
X396240D02*
X390970D01*
Y346858D01*
X387465Y343353D01*
X386820Y343999D01*
X384810Y344831D01*
Y339090D01*
Y333349D01*
X386820Y334181D01*
X388449Y335810D01*
X388994Y337127D01*
X389906Y337736D01*
X394999Y342829D01*
X396240D01*
Y348099D01*
D02*
G37*
G36*
X485471Y347459D02*
X480201D01*
Y346218D01*
X477088Y343105D01*
X475720Y344472D01*
X473710Y345305D01*
Y339563D01*
Y333822D01*
X475720Y334655D01*
X477349Y336284D01*
X477801Y337375D01*
X478236D01*
X478236Y337375D01*
X479326Y337592D01*
X480250Y338210D01*
X484230Y342189D01*
X485471D01*
Y347459D01*
D02*
G37*
G36*
X367031Y348099D02*
X361761D01*
Y346858D01*
X357976Y343073D01*
X357739D01*
X356340Y344472D01*
X354330Y345305D01*
Y339563D01*
X353060D01*
Y338293D01*
X347319D01*
X347431Y338022D01*
X346073Y335990D01*
X345558D01*
X343430Y335109D01*
X341801Y333480D01*
X340969Y331470D01*
X352451D01*
X352339Y331741D01*
X353697Y333773D01*
X354212D01*
X356340Y334655D01*
X357969Y336284D01*
X358421Y337375D01*
X359156D01*
X359156Y337375D01*
X360246Y337592D01*
X361170Y338210D01*
X365789Y342829D01*
X367031D01*
Y348099D01*
D02*
G37*
G36*
X404050D02*
X398780D01*
Y342829D01*
X404050D01*
Y348099D01*
D02*
G37*
G36*
X374841D02*
X369571D01*
Y342829D01*
X374841D01*
Y348099D01*
D02*
G37*
G36*
X344360D02*
X339090D01*
Y342829D01*
X344360D01*
Y348099D01*
D02*
G37*
G36*
X457531Y347459D02*
X452261D01*
Y346218D01*
X448642Y342599D01*
X447909D01*
X446510Y343999D01*
X444500Y344831D01*
Y339090D01*
Y333349D01*
X446510Y334181D01*
X448139Y335810D01*
X448591Y336902D01*
X449822D01*
X449822Y336902D01*
X450912Y337119D01*
X451837Y337736D01*
X456290Y342189D01*
X457531D01*
Y347459D01*
D02*
G37*
G36*
X493281D02*
X488011D01*
Y342189D01*
X493281D01*
Y347459D01*
D02*
G37*
G36*
X434861D02*
X429591D01*
Y342189D01*
X434861D01*
Y347459D01*
D02*
G37*
G36*
X410210Y346101D02*
X408200Y345269D01*
X406571Y343640D01*
X405739Y341630D01*
X410210D01*
Y346101D01*
D02*
G37*
G36*
X465341Y347459D02*
X460071D01*
Y342189D01*
X463561D01*
X465061Y342189D01*
X466522Y340834D01*
X471170D01*
Y345305D01*
X469160Y344472D01*
X467531Y342843D01*
X467373Y342461D01*
X465341Y342865D01*
X465341Y344088D01*
X465341Y344088D01*
X465341Y344105D01*
Y347459D01*
D02*
G37*
G36*
X351790Y345305D02*
X349780Y344472D01*
X348151Y342843D01*
X347319Y340834D01*
X351790D01*
Y345305D01*
D02*
G37*
G36*
X323954D02*
X321945Y344472D01*
X320316Y342843D01*
X319483Y340834D01*
X323954D01*
Y345305D01*
D02*
G37*
G36*
X441960Y344831D02*
X439950Y343999D01*
X438321Y342370D01*
X437489Y340360D01*
X441960D01*
Y344831D01*
D02*
G37*
G36*
X382270D02*
X380260Y343999D01*
X378631Y342370D01*
X377799Y340360D01*
X382270D01*
Y344831D01*
D02*
G37*
G36*
X515361Y345240D02*
X515270D01*
Y336170D01*
X524340D01*
Y336261D01*
X523635Y338891D01*
X522274Y341249D01*
X520349Y343174D01*
X517991Y344535D01*
X515361Y345240D01*
D02*
G37*
G36*
X512730D02*
X512639D01*
X510009Y344535D01*
X507651Y343174D01*
X505726Y341249D01*
X504365Y338891D01*
X503660Y336261D01*
Y336170D01*
X512730D01*
Y345240D01*
D02*
G37*
G36*
X153670Y338406D02*
Y333935D01*
X158141D01*
X157309Y335945D01*
X155680Y337574D01*
X153670Y338406D01*
D02*
G37*
G36*
X471170Y338293D02*
X466699D01*
X467531Y336284D01*
X469160Y334655D01*
X471170Y333822D01*
Y338293D01*
D02*
G37*
G36*
X382270Y337820D02*
X377799D01*
X378631Y335810D01*
X380260Y334181D01*
X382270Y333349D01*
Y337820D01*
D02*
G37*
G36*
X441960D02*
X437489D01*
X438321Y335810D01*
X439950Y334181D01*
X441960Y333349D01*
Y337820D01*
D02*
G37*
G36*
X167671Y337180D02*
Y332709D01*
X172142D01*
X171309Y334719D01*
X169681Y336348D01*
X167671Y337180D01*
D02*
G37*
G36*
X165131D02*
X163121Y336348D01*
X161492Y334719D01*
X160660Y332709D01*
X165131D01*
Y337180D01*
D02*
G37*
G36*
X257841Y334641D02*
Y330169D01*
X262312D01*
X261479Y332179D01*
X259851Y333808D01*
X257841Y334641D01*
D02*
G37*
G36*
X255301D02*
X253291Y333808D01*
X251662Y332179D01*
X250830Y330169D01*
X255301D01*
Y334641D01*
D02*
G37*
G36*
X140970Y332041D02*
X127330D01*
Y327660D01*
X140970D01*
Y332041D01*
D02*
G37*
G36*
X524340Y333630D02*
X515270D01*
Y324560D01*
X515361D01*
X517991Y325265D01*
X520349Y326626D01*
X522274Y328551D01*
X523635Y330909D01*
X524340Y333539D01*
Y333630D01*
D02*
G37*
G36*
X512730D02*
X503660D01*
Y333539D01*
X504365Y330909D01*
X505726Y328551D01*
X507651Y326626D01*
X510009Y325265D01*
X512639Y324560D01*
X512730D01*
Y333630D01*
D02*
G37*
G36*
X262312Y327629D02*
X257841D01*
Y323158D01*
X259851Y323991D01*
X261479Y325620D01*
X262312Y327629D01*
D02*
G37*
G36*
X255301D02*
X250830D01*
X251662Y325620D01*
X253291Y323991D01*
X255301Y323158D01*
Y327629D01*
D02*
G37*
G36*
X140970Y325120D02*
X127330D01*
Y320739D01*
X140970D01*
Y325120D01*
D02*
G37*
G36*
X480091Y324481D02*
Y320009D01*
X484562D01*
X483729Y322019D01*
X482100Y323648D01*
X480091Y324481D01*
D02*
G37*
G36*
X477551D02*
X475541Y323648D01*
X473912Y322019D01*
X473079Y320009D01*
X477551D01*
Y324481D01*
D02*
G37*
G36*
X279710Y337740D02*
X269170D01*
Y325200D01*
X269848D01*
Y321055D01*
X269800Y320939D01*
Y320140D01*
X269788Y320081D01*
Y320040D01*
X269800Y319980D01*
Y319141D01*
X270121Y318365D01*
X270133Y318306D01*
X270167Y318255D01*
X270488Y317479D01*
X271081Y316886D01*
X271115Y316835D01*
X271166Y316801D01*
X271759Y316208D01*
X272535Y315887D01*
X272586Y315853D01*
X272645Y315841D01*
X273421Y315520D01*
X274260D01*
X274320Y315508D01*
X274380Y315520D01*
X275219D01*
X275995Y315841D01*
X276054Y315853D01*
X276105Y315887D01*
X276880Y316208D01*
X277474Y316801D01*
X277525Y316835D01*
X277559Y316886D01*
X278152Y317479D01*
X278473Y318255D01*
X278507Y318306D01*
X278510Y318321D01*
X278567Y318406D01*
X278596Y318551D01*
X278840Y319141D01*
Y319779D01*
X278912Y320141D01*
Y325200D01*
X279710D01*
Y337740D01*
D02*
G37*
G36*
X212090Y319431D02*
Y314960D01*
X216561D01*
X215729Y316970D01*
X214100Y318599D01*
X212090Y319431D01*
D02*
G37*
G36*
X484562Y317469D02*
X480091D01*
Y312998D01*
X482100Y313831D01*
X483729Y315459D01*
X484562Y317469D01*
D02*
G37*
G36*
X477551D02*
X473079D01*
X473912Y315459D01*
X475541Y313831D01*
X477551Y312998D01*
Y317469D01*
D02*
G37*
G36*
X515194Y318570D02*
X512806D01*
X510499Y317952D01*
X508431Y316758D01*
X506742Y315069D01*
X505548Y313001D01*
X504930Y310694D01*
Y308306D01*
X505548Y305999D01*
X506742Y303931D01*
X508431Y302242D01*
X510499Y301048D01*
X512806Y300430D01*
X515194D01*
X517501Y301048D01*
X519569Y302242D01*
X521258Y303931D01*
X522452Y305999D01*
X523070Y308306D01*
Y310694D01*
X522452Y313001D01*
X521258Y315069D01*
X519569Y316758D01*
X517501Y317952D01*
X515194Y318570D01*
D02*
G37*
G36*
X95250Y349972D02*
X95190Y349960D01*
X94351D01*
X93575Y349639D01*
X93516Y349627D01*
X93465Y349593D01*
X92690Y349272D01*
X92096Y348679D01*
X92045Y348645D01*
X92011Y348594D01*
X91418Y348000D01*
X91097Y347225D01*
X91063Y347174D01*
X91051Y347115D01*
X90730Y346339D01*
Y345500D01*
X90718Y345440D01*
Y337740D01*
X89980D01*
Y325200D01*
X92635D01*
X94222Y324125D01*
X94222Y324125D01*
X94222D01*
X94351Y323290D01*
X94229Y323240D01*
X93575Y322969D01*
X93516Y322957D01*
X93465Y322923D01*
X92690Y322602D01*
X92096Y322009D01*
X92045Y321975D01*
X92011Y321924D01*
X91418Y321330D01*
X91097Y320555D01*
X91063Y320504D01*
X91051Y320444D01*
X90730Y319669D01*
Y318830D01*
X90718Y318770D01*
X90730Y318710D01*
Y317871D01*
X90778Y317755D01*
Y312860D01*
X90100D01*
Y300320D01*
X100640D01*
Y312860D01*
X99842D01*
Y318710D01*
X99770Y319071D01*
Y319669D01*
X99541Y320221D01*
X99497Y320444D01*
X99371Y320633D01*
X99082Y321330D01*
X98549Y321864D01*
X98515Y321915D01*
X98515Y321915D01*
X98455Y321975D01*
X98404Y322009D01*
X97810Y322602D01*
X97035Y322923D01*
X96984Y322957D01*
X96924Y322969D01*
X96271Y323240D01*
X96149Y323290D01*
X96278Y324125D01*
X96278D01*
X96278Y324125D01*
X97865Y325200D01*
X100520D01*
Y337740D01*
X99782D01*
Y345440D01*
X99770Y345500D01*
Y346339D01*
X99449Y347115D01*
X99437Y347174D01*
X99403Y347225D01*
X99082Y348000D01*
X98489Y348594D01*
X98455Y348645D01*
X98404Y348679D01*
X97810Y349272D01*
X97035Y349593D01*
X96984Y349627D01*
X96925Y349639D01*
X96149Y349960D01*
X95310D01*
X95250Y349972D01*
D02*
G37*
G36*
X94100Y290750D02*
X88830D01*
Y289262D01*
X88012Y288722D01*
X86798Y288244D01*
X85090Y288951D01*
Y283210D01*
Y277469D01*
X86798Y278176D01*
X88012Y277698D01*
X88830Y277158D01*
Y275670D01*
X94100D01*
Y283210D01*
Y290750D01*
D02*
G37*
G36*
X101910D02*
X96640D01*
Y284480D01*
X101910D01*
Y290750D01*
D02*
G37*
G36*
X82550Y288951D02*
X80540Y288119D01*
X78911Y286490D01*
X78079Y284480D01*
X82550D01*
Y288951D01*
D02*
G37*
G36*
X279710Y313380D02*
X269170D01*
Y300840D01*
X269817D01*
Y298120D01*
X269800Y298079D01*
Y297240D01*
X269788Y297180D01*
X269800Y297120D01*
Y296281D01*
X270121Y295506D01*
X270133Y295446D01*
X270167Y295395D01*
X270488Y294620D01*
X271081Y294026D01*
X271115Y293975D01*
X271166Y293941D01*
X271759Y293348D01*
X272535Y293027D01*
X272586Y292993D01*
X272645Y292981D01*
X273299Y292710D01*
X273421Y292660D01*
X273292Y291825D01*
X273292D01*
X273292Y291825D01*
X271705Y290750D01*
X267780D01*
Y284480D01*
X274320D01*
X280860D01*
Y290750D01*
X276935D01*
X275348Y291825D01*
X275348Y291825D01*
X275348D01*
X275219Y292660D01*
X275341Y292710D01*
X275994Y292981D01*
X276054Y292993D01*
X276105Y293027D01*
X276880Y293348D01*
X277474Y293941D01*
X277525Y293975D01*
X277553Y294004D01*
X277587Y294055D01*
X278152Y294620D01*
X278458Y295357D01*
X278536Y295474D01*
X278563Y295612D01*
X278840Y296281D01*
Y297004D01*
X278881Y297209D01*
X278881Y297209D01*
Y300840D01*
X279710D01*
Y313380D01*
D02*
G37*
G36*
X82550Y281940D02*
X78079D01*
X78911Y279930D01*
X80540Y278301D01*
X82550Y277469D01*
Y281940D01*
D02*
G37*
G36*
X101910D02*
X96640D01*
Y275670D01*
X101910D01*
Y281940D01*
D02*
G37*
G36*
X515194Y293170D02*
X512806D01*
X510499Y292552D01*
X508431Y291358D01*
X506742Y289669D01*
X505548Y287601D01*
X504930Y285294D01*
Y282906D01*
X505548Y280599D01*
X506742Y278531D01*
X508431Y276842D01*
X510499Y275648D01*
X512806Y275030D01*
X515194D01*
X517501Y275648D01*
X519569Y276842D01*
X521258Y278531D01*
X522452Y280599D01*
X523070Y282906D01*
Y285294D01*
X522452Y287601D01*
X521258Y289669D01*
X519569Y291358D01*
X517501Y292552D01*
X515194Y293170D01*
D02*
G37*
G36*
X478821Y278761D02*
Y274289D01*
X483292D01*
X482459Y276299D01*
X480830Y277928D01*
X478821Y278761D01*
D02*
G37*
G36*
X476281D02*
X474271Y277928D01*
X472642Y276299D01*
X471810Y274289D01*
X476281D01*
Y278761D01*
D02*
G37*
G36*
X136582Y275559D02*
X132111D01*
Y271088D01*
X134121Y271921D01*
X135749Y273549D01*
X136582Y275559D01*
D02*
G37*
G36*
X129571D02*
X125099D01*
X125932Y273549D01*
X127561Y271921D01*
X129571Y271088D01*
Y275559D01*
D02*
G37*
G36*
X483292Y271749D02*
X478821D01*
Y267278D01*
X480830Y268111D01*
X482459Y269739D01*
X483292Y271749D01*
D02*
G37*
G36*
X476281D02*
X471810D01*
X472642Y269739D01*
X474271Y268111D01*
X476281Y267278D01*
Y271749D01*
D02*
G37*
G36*
X153060Y272180D02*
X144790D01*
Y266862D01*
X142758Y266751D01*
X142460Y267049D01*
X140450Y267881D01*
Y262140D01*
Y256399D01*
X142460Y257231D01*
X142758Y257529D01*
X144790Y257418D01*
Y252100D01*
X153060D01*
Y262140D01*
Y272180D01*
D02*
G37*
G36*
X277521Y269240D02*
X273050D01*
Y264769D01*
X275060Y265601D01*
X276689Y267230D01*
X277521Y269240D01*
D02*
G37*
G36*
X320040Y268631D02*
X318030Y267799D01*
X316401Y266170D01*
X315569Y264160D01*
X320040D01*
Y268631D01*
D02*
G37*
G36*
X137910Y267881D02*
X135900Y267049D01*
X134271Y265420D01*
X133439Y263410D01*
X137910D01*
Y267881D01*
D02*
G37*
G36*
X320040Y261620D02*
X315569D01*
X316401Y259610D01*
X318030Y257981D01*
X320040Y257149D01*
Y261620D01*
D02*
G37*
G36*
X137910Y260870D02*
X133439D01*
X134271Y258860D01*
X135900Y257231D01*
X137910Y256399D01*
Y260870D01*
D02*
G37*
G36*
X515194Y267770D02*
X512806D01*
X510499Y267152D01*
X508431Y265958D01*
X506742Y264269D01*
X505548Y262201D01*
X504930Y259894D01*
Y257506D01*
X505548Y255199D01*
X506742Y253131D01*
X508431Y251442D01*
X510499Y250248D01*
X512806Y249630D01*
X515194D01*
X517501Y250248D01*
X519569Y251442D01*
X521258Y253131D01*
X522452Y255199D01*
X523070Y257506D01*
Y259894D01*
X522452Y262201D01*
X521258Y264269D01*
X519569Y265958D01*
X517501Y267152D01*
X515194Y267770D01*
D02*
G37*
G36*
X481361Y241931D02*
Y237459D01*
X485832D01*
X484999Y239469D01*
X483371Y241098D01*
X481361Y241931D01*
D02*
G37*
G36*
X478821D02*
X476811Y241098D01*
X475182Y239469D01*
X474350Y237459D01*
X478821D01*
Y241931D01*
D02*
G37*
G36*
X485832Y234919D02*
X481361D01*
Y230448D01*
X483371Y231281D01*
X484999Y232910D01*
X485832Y234919D01*
D02*
G37*
G36*
X478821D02*
X474350D01*
X475182Y232910D01*
X476811Y231281D01*
X478821Y230448D01*
Y234919D01*
D02*
G37*
G36*
X142330Y229500D02*
X127060D01*
Y223492D01*
X121044D01*
X119380Y224181D01*
Y218440D01*
Y212699D01*
X121390Y213531D01*
X122287Y214428D01*
X127060D01*
Y208420D01*
X136679D01*
X138037Y206388D01*
X137769Y205740D01*
X149251D01*
X148983Y206388D01*
X150340Y208420D01*
X160140D01*
Y217690D01*
X143600D01*
Y218960D01*
X142330D01*
Y229500D01*
D02*
G37*
G36*
X160140D02*
X144870D01*
Y220230D01*
X160140D01*
Y229500D01*
D02*
G37*
G36*
X116840Y224181D02*
X114830Y223349D01*
X113201Y221720D01*
X112369Y219710D01*
X116840D01*
Y224181D01*
D02*
G37*
G36*
Y217170D02*
X112369D01*
X113201Y215160D01*
X114830Y213531D01*
X116840Y212699D01*
Y217170D01*
D02*
G37*
G36*
X232441Y203831D02*
Y199359D01*
X236912D01*
X236079Y201369D01*
X234450Y202998D01*
X232441Y203831D01*
D02*
G37*
G36*
X229901D02*
X227891Y202998D01*
X226262Y201369D01*
X225429Y199359D01*
X229901D01*
Y203831D01*
D02*
G37*
G36*
X149251Y203200D02*
X144780D01*
Y198729D01*
X146790Y199561D01*
X148419Y201190D01*
X149251Y203200D01*
D02*
G37*
G36*
X142240D02*
X137769D01*
X138601Y201190D01*
X140230Y199561D01*
X142240Y198729D01*
Y203200D01*
D02*
G37*
G36*
X441991Y200021D02*
Y195549D01*
X446462D01*
X445629Y197559D01*
X444001Y199188D01*
X441991Y200021D01*
D02*
G37*
G36*
X439451D02*
X437441Y199188D01*
X435812Y197559D01*
X434980Y195549D01*
X439451D01*
Y200021D01*
D02*
G37*
G36*
X104171D02*
Y195549D01*
X108642D01*
X107809Y197559D01*
X106180Y199188D01*
X104171Y200021D01*
D02*
G37*
G36*
X101631D02*
X99621Y199188D01*
X97992Y197559D01*
X97160Y195549D01*
X101631D01*
Y200021D01*
D02*
G37*
G36*
X236912Y196819D02*
X232441D01*
Y192348D01*
X234450Y193181D01*
X236079Y194809D01*
X236912Y196819D01*
D02*
G37*
G36*
X229901D02*
X225429D01*
X226262Y194809D01*
X227891Y193181D01*
X229901Y192348D01*
Y196819D01*
D02*
G37*
G36*
X446462Y193009D02*
X441991D01*
Y188538D01*
X444001Y189371D01*
X445629Y191000D01*
X446462Y193009D01*
D02*
G37*
G36*
X439451D02*
X434980D01*
X435812Y191000D01*
X437441Y189371D01*
X439451Y188538D01*
Y193009D01*
D02*
G37*
G36*
X108642D02*
X104171D01*
Y188538D01*
X106180Y189371D01*
X107809Y191000D01*
X108642Y193009D01*
D02*
G37*
G36*
X101631D02*
X97160D01*
X97992Y191000D01*
X99621Y189371D01*
X101631Y188538D01*
Y193009D01*
D02*
G37*
G36*
X499110Y184872D02*
X499050Y184860D01*
X498211D01*
X497435Y184539D01*
X497376Y184527D01*
X497325Y184493D01*
X496549Y184172D01*
X495956Y183579D01*
X495905Y183545D01*
X495871Y183494D01*
X495278Y182901D01*
X494957Y182125D01*
X494923Y182074D01*
X494911Y182015D01*
X494590Y181239D01*
Y180400D01*
X494578Y180340D01*
X494590Y180280D01*
Y179441D01*
X494894Y178707D01*
Y172769D01*
X494731D01*
Y162229D01*
X505271D01*
Y162968D01*
X509729D01*
Y162231D01*
X520269D01*
Y172771D01*
X509729D01*
Y172032D01*
X505271D01*
Y172769D01*
X503958D01*
Y180024D01*
X503613Y181759D01*
X503092Y182537D01*
X502942Y182901D01*
X502664Y183178D01*
X502630Y183229D01*
X502630Y183229D01*
X502315Y183545D01*
X502264Y183579D01*
X501670Y184172D01*
X500895Y184493D01*
X500844Y184527D01*
X500784Y184539D01*
X500009Y184860D01*
X499170D01*
X499110Y184872D01*
D02*
G37*
G36*
X403891Y156840D02*
Y152369D01*
X408362D01*
X407529Y154379D01*
X405900Y156008D01*
X403891Y156840D01*
D02*
G37*
G36*
X401351D02*
X399341Y156008D01*
X397712Y154379D01*
X396880Y152369D01*
X401351D01*
Y156840D01*
D02*
G37*
G36*
X408362Y149829D02*
X403891D01*
Y145358D01*
X405900Y146191D01*
X407529Y147819D01*
X408362Y149829D01*
D02*
G37*
G36*
X401351D02*
X396880D01*
X397712Y147819D01*
X399341Y146191D01*
X401351Y145358D01*
Y149829D01*
D02*
G37*
G36*
X19869Y176903D02*
X18135Y176558D01*
X16664Y175575D01*
X13860Y172771D01*
X9729D01*
Y162231D01*
X20269D01*
Y166362D01*
X21746Y167838D01*
X23252D01*
X24731Y166360D01*
Y162229D01*
X35271D01*
Y162717D01*
X41793D01*
X43230Y161281D01*
X43230Y159270D01*
X43230Y158698D01*
Y146730D01*
X50225D01*
X52840Y144115D01*
X52840Y144115D01*
X54310Y143133D01*
X56045Y142788D01*
X238314D01*
X238373Y142800D01*
X239659D01*
X241320Y143488D01*
X242592Y144760D01*
X243280Y146421D01*
Y148219D01*
X242592Y149881D01*
X241320Y151152D01*
X239659Y151840D01*
X238373D01*
X238314Y151852D01*
X58325D01*
X56770Y153407D01*
Y158698D01*
X56770Y159270D01*
Y160730D01*
X56770Y161302D01*
Y173270D01*
X43230D01*
Y171782D01*
X35271D01*
Y172769D01*
X31140D01*
X28334Y175575D01*
X26864Y176558D01*
X25129Y176903D01*
X19869D01*
X19869Y176903D01*
D02*
G37*
G36*
X387868Y130040D02*
X387770D01*
Y120920D01*
X396890D01*
Y121018D01*
X396182Y123660D01*
X394814Y126030D01*
X392880Y127964D01*
X390510Y129332D01*
X387868Y130040D01*
D02*
G37*
G36*
X385230D02*
X385132D01*
X382490Y129332D01*
X380120Y127964D01*
X378186Y126030D01*
X376818Y123660D01*
X376110Y121018D01*
Y120920D01*
X385230D01*
Y130040D01*
D02*
G37*
G36*
X74961Y125091D02*
Y120619D01*
X79432D01*
X78599Y122629D01*
X76971Y124258D01*
X74961Y125091D01*
D02*
G37*
G36*
X72421D02*
X70411Y124258D01*
X68782Y122629D01*
X67950Y120619D01*
X72421D01*
Y125091D01*
D02*
G37*
G36*
X463550Y122581D02*
Y118110D01*
X468021D01*
X467189Y120120D01*
X465560Y121749D01*
X463550Y122581D01*
D02*
G37*
G36*
X461010D02*
X459000Y121749D01*
X457371Y120120D01*
X456539Y118110D01*
X461010D01*
Y122581D01*
D02*
G37*
G36*
X79432Y118079D02*
X74961D01*
Y113608D01*
X76971Y114441D01*
X78599Y116069D01*
X79432Y118079D01*
D02*
G37*
G36*
X72421D02*
X67950D01*
X68782Y116069D01*
X70411Y114441D01*
X72421Y113608D01*
Y118079D01*
D02*
G37*
G36*
X468021Y115570D02*
X463550D01*
Y111099D01*
X465560Y111931D01*
X467189Y113560D01*
X468021Y115570D01*
D02*
G37*
G36*
X461010D02*
X456539D01*
X457371Y113560D01*
X459000Y111931D01*
X461010Y111099D01*
Y115570D01*
D02*
G37*
G36*
X144701Y128770D02*
X142299D01*
X139980Y128148D01*
X137900Y126948D01*
X136202Y125250D01*
X135001Y123170D01*
X134380Y120851D01*
Y118449D01*
X135001Y116130D01*
X136202Y114050D01*
X137900Y112352D01*
X139980Y111152D01*
X142299Y110530D01*
X144701D01*
X147020Y111152D01*
X149100Y112352D01*
X150798Y114050D01*
X151999Y116130D01*
X152620Y118449D01*
Y120851D01*
X151999Y123170D01*
X150798Y125250D01*
X149100Y126948D01*
X147020Y128148D01*
X144701Y128770D01*
D02*
G37*
G36*
X396890Y118380D02*
X387770D01*
Y109260D01*
X387868D01*
X390510Y109968D01*
X392880Y111336D01*
X394814Y113270D01*
X396182Y115640D01*
X396890Y118282D01*
Y118380D01*
D02*
G37*
G36*
X385230D02*
X376110D01*
Y118282D01*
X376818Y115640D01*
X378186Y113270D01*
X380120Y111336D01*
X382490Y109968D01*
X385132Y109260D01*
X385230D01*
Y118380D01*
D02*
G37*
G36*
X183890D02*
X174770D01*
Y109260D01*
X174868D01*
X177510Y109968D01*
X179880Y111336D01*
X181814Y113270D01*
X183182Y115640D01*
X183890Y118282D01*
Y118380D01*
D02*
G37*
G36*
X172230D02*
X163110D01*
Y118282D01*
X163818Y115640D01*
X165186Y113270D01*
X167120Y111336D01*
X169490Y109968D01*
X172132Y109260D01*
X172230D01*
Y118380D01*
D02*
G37*
G36*
X387868Y100040D02*
X387770D01*
Y90920D01*
X396890D01*
Y91018D01*
X396182Y93660D01*
X394814Y96030D01*
X392880Y97964D01*
X390510Y99332D01*
X387868Y100040D01*
D02*
G37*
G36*
X174868D02*
X174770D01*
Y90920D01*
X183890D01*
Y91018D01*
X183182Y93660D01*
X181814Y96030D01*
X179880Y97964D01*
X177510Y99332D01*
X174868Y100040D01*
D02*
G37*
G36*
X385230D02*
X385132D01*
X382490Y99332D01*
X380120Y97964D01*
X378186Y96030D01*
X376818Y93660D01*
X376110Y91018D01*
Y90920D01*
X385230D01*
Y100040D01*
D02*
G37*
G36*
X172230D02*
X172132D01*
X169490Y99332D01*
X167120Y97964D01*
X165186Y96030D01*
X163818Y93660D01*
X163110Y91018D01*
Y90920D01*
X172230D01*
Y100040D01*
D02*
G37*
G36*
X365620Y98770D02*
X347380D01*
Y80530D01*
X365620D01*
Y98770D01*
D02*
G37*
G36*
X152620D02*
X134380D01*
Y80530D01*
X152620D01*
Y98770D01*
D02*
G37*
G36*
X396890Y88380D02*
X387770D01*
Y79260D01*
X387868D01*
X390510Y79968D01*
X392880Y81336D01*
X394814Y83270D01*
X396182Y85640D01*
X396890Y88282D01*
Y88380D01*
D02*
G37*
G36*
X385230D02*
X376110D01*
Y88282D01*
X376818Y85640D01*
X378186Y83270D01*
X380120Y81336D01*
X382490Y79968D01*
X385132Y79260D01*
X385230D01*
Y88380D01*
D02*
G37*
G36*
X183890D02*
X174770D01*
Y79260D01*
X174868D01*
X177510Y79968D01*
X179880Y81336D01*
X181814Y83270D01*
X183182Y85640D01*
X183890Y88282D01*
Y88380D01*
D02*
G37*
G36*
X172230D02*
X163110D01*
Y88282D01*
X163818Y85640D01*
X165186Y83270D01*
X167120Y81336D01*
X169490Y79968D01*
X172132Y79260D01*
X172230D01*
Y88380D01*
D02*
G37*
G36*
X472561Y87540D02*
X471270D01*
Y56270D01*
X502540D01*
Y57561D01*
X501739Y62620D01*
X500156Y67491D01*
X497831Y72055D01*
X494820Y76198D01*
X491198Y79820D01*
X487055Y82831D01*
X482491Y85156D01*
X477620Y86739D01*
X472561Y87540D01*
D02*
G37*
G36*
X468730D02*
X467439D01*
X462380Y86739D01*
X457509Y85156D01*
X452945Y82831D01*
X448802Y79820D01*
X445180Y76198D01*
X442169Y72055D01*
X439844Y67491D01*
X438261Y62620D01*
X437460Y57561D01*
Y56270D01*
X468730D01*
Y87540D01*
D02*
G37*
G36*
X62561D02*
X61270D01*
Y56270D01*
X92540D01*
Y57561D01*
X91739Y62620D01*
X90156Y67491D01*
X87831Y72055D01*
X84820Y76198D01*
X81198Y79820D01*
X77055Y82831D01*
X72491Y85156D01*
X67620Y86739D01*
X62561Y87540D01*
D02*
G37*
G36*
X58730D02*
X57439D01*
X52380Y86739D01*
X47509Y85156D01*
X42945Y82831D01*
X38802Y79820D01*
X35180Y76198D01*
X32169Y72055D01*
X29844Y67491D01*
X28261Y62620D01*
X27460Y57561D01*
Y56270D01*
X58730D01*
Y87540D01*
D02*
G37*
G36*
X373102Y62720D02*
X369897D01*
X366754Y62095D01*
X363793Y60868D01*
X361129Y59088D01*
X358862Y56821D01*
X357082Y54157D01*
X355855Y51196D01*
X355230Y48053D01*
Y44847D01*
X355855Y41704D01*
X357082Y38743D01*
X358862Y36079D01*
X361129Y33812D01*
X363793Y32032D01*
X366754Y30805D01*
X369897Y30180D01*
X373102D01*
X376246Y30805D01*
X379207Y32032D01*
X381871Y33812D01*
X384138Y36079D01*
X385918Y38743D01*
X387145Y41704D01*
X387770Y44847D01*
Y48053D01*
X387145Y51196D01*
X385918Y54157D01*
X384138Y56821D01*
X381871Y59088D01*
X379207Y60868D01*
X376246Y62095D01*
X373102Y62720D01*
D02*
G37*
G36*
X266602D02*
X263398D01*
X260254Y62095D01*
X257293Y60868D01*
X254629Y59088D01*
X252362Y56821D01*
X250582Y54157D01*
X249355Y51196D01*
X248730Y48053D01*
Y44847D01*
X249355Y41704D01*
X250582Y38743D01*
X252362Y36079D01*
X254629Y33812D01*
X257293Y32032D01*
X260254Y30805D01*
X263398Y30180D01*
X266602D01*
X269746Y30805D01*
X272707Y32032D01*
X275371Y33812D01*
X277638Y36079D01*
X279418Y38743D01*
X280645Y41704D01*
X281270Y44847D01*
Y48053D01*
X280645Y51196D01*
X279418Y54157D01*
X277638Y56821D01*
X275371Y59088D01*
X272707Y60868D01*
X269746Y62095D01*
X266602Y62720D01*
D02*
G37*
G36*
X160102D02*
X156897D01*
X153754Y62095D01*
X150793Y60868D01*
X148128Y59088D01*
X145862Y56821D01*
X144082Y54157D01*
X142855Y51196D01*
X142230Y48053D01*
Y44847D01*
X142855Y41704D01*
X144082Y38743D01*
X145862Y36079D01*
X148128Y33812D01*
X150793Y32032D01*
X153754Y30805D01*
X156897Y30180D01*
X160102D01*
X163246Y30805D01*
X166207Y32032D01*
X168871Y33812D01*
X171138Y36079D01*
X172918Y38743D01*
X174145Y41704D01*
X174770Y44847D01*
Y48053D01*
X174145Y51196D01*
X172918Y54157D01*
X171138Y56821D01*
X168871Y59088D01*
X166207Y60868D01*
X163246Y62095D01*
X160102Y62720D01*
D02*
G37*
G36*
X502540Y53730D02*
X471270D01*
Y22460D01*
X472561D01*
X477620Y23261D01*
X482491Y24844D01*
X487055Y27169D01*
X491198Y30180D01*
X494820Y33802D01*
X497831Y37945D01*
X500156Y42509D01*
X501739Y47380D01*
X502540Y52439D01*
Y53730D01*
D02*
G37*
G36*
X468730D02*
X437460D01*
Y52439D01*
X438261Y47380D01*
X439844Y42509D01*
X442169Y37945D01*
X445180Y33802D01*
X448802Y30180D01*
X452945Y27169D01*
X457509Y24844D01*
X462380Y23261D01*
X467439Y22460D01*
X468730D01*
Y53730D01*
D02*
G37*
G36*
X92540D02*
X61270D01*
Y22460D01*
X62561D01*
X67620Y23261D01*
X72491Y24844D01*
X77055Y27169D01*
X81198Y30180D01*
X84820Y33802D01*
X87831Y37945D01*
X90156Y42509D01*
X91739Y47380D01*
X92540Y52439D01*
Y53730D01*
D02*
G37*
G36*
X58730D02*
X27460D01*
Y52439D01*
X28261Y47380D01*
X29844Y42509D01*
X32169Y37945D01*
X35180Y33802D01*
X38802Y30180D01*
X42945Y27169D01*
X47509Y24844D01*
X52380Y23261D01*
X57439Y22460D01*
X58730D01*
Y53730D01*
D02*
G37*
%LPD*%
G36*
X410328Y334570D02*
X410768D01*
X412440Y333700D01*
X412440Y332538D01*
Y321160D01*
X422980D01*
Y322898D01*
X431423D01*
X435379Y318941D01*
X434538Y316910D01*
X433219D01*
X431091Y316028D01*
X429462Y314399D01*
X428581Y312271D01*
Y311497D01*
X428516Y311372D01*
X426548Y309987D01*
X425945Y310107D01*
X422980D01*
Y313380D01*
X412440D01*
Y300840D01*
X422980D01*
X422980Y300840D01*
Y300840D01*
X422980Y300840D01*
X424795Y300316D01*
X432348Y292763D01*
Y239367D01*
X302923Y109942D01*
X285489D01*
X284945Y111974D01*
X285600Y112352D01*
X287298Y114050D01*
X288498Y116130D01*
X289120Y118449D01*
Y120851D01*
X288498Y123170D01*
X287298Y125250D01*
X285600Y126948D01*
X283520Y128148D01*
X281201Y128770D01*
X278799D01*
X277608Y128451D01*
X265327Y140732D01*
Y239898D01*
X266255Y241546D01*
X266255Y241546D01*
Y241546D01*
X267260Y241671D01*
X267315Y241537D01*
X267581Y240895D01*
X267593Y240836D01*
X267627Y240785D01*
X267948Y240009D01*
X268541Y239416D01*
X268575Y239365D01*
X268626Y239331D01*
X269219Y238738D01*
X269995Y238417D01*
X270046Y238383D01*
X270105Y238371D01*
X270881Y238050D01*
X271720D01*
X271780Y238038D01*
X340183D01*
X350400Y227821D01*
Y209690D01*
X380940D01*
Y228230D01*
X364027D01*
Y254640D01*
X367020D01*
Y258878D01*
X397682D01*
X399417Y259223D01*
X400887Y260205D01*
X412529Y271848D01*
X414963Y271407D01*
X415330Y270857D01*
X418774Y267413D01*
X419078Y266679D01*
X419671Y266086D01*
X419705Y266035D01*
X419756Y266001D01*
X420350Y265408D01*
X421125Y265087D01*
X421176Y265053D01*
X421235Y265041D01*
X422011Y264720D01*
X422850D01*
X422910Y264708D01*
X422970Y264720D01*
X423809D01*
X424585Y265041D01*
X424644Y265053D01*
X424695Y265087D01*
X425471Y265408D01*
X426064Y266001D01*
X426115Y266035D01*
X426149Y266086D01*
X426742Y266679D01*
X427063Y267455D01*
X427097Y267506D01*
X427109Y267565D01*
X427430Y268341D01*
Y269180D01*
X427442Y269240D01*
Y269687D01*
X427430Y269746D01*
Y270139D01*
X427280Y270502D01*
X427097Y271421D01*
X426115Y272891D01*
X426115Y272891D01*
X423067Y275939D01*
Y284695D01*
X422980Y285133D01*
Y291790D01*
X412440D01*
Y285133D01*
X412353Y284695D01*
Y284490D01*
X409857Y281994D01*
X407980Y282772D01*
Y291790D01*
X403588D01*
X402904Y292247D01*
X401170Y292592D01*
X370871D01*
X370541Y292526D01*
X361611D01*
X360600Y294205D01*
Y294615D01*
X360686Y294758D01*
X362385Y296294D01*
X370541D01*
X370871Y296228D01*
X397360D01*
X399094Y296573D01*
X400565Y297555D01*
X403849Y300840D01*
X407980D01*
Y313380D01*
X398303D01*
X397440Y313380D01*
X396543Y315040D01*
X395839Y316740D01*
X394210Y318369D01*
X392200Y319201D01*
Y313460D01*
X389660D01*
Y319201D01*
X387650Y318369D01*
X387273Y317992D01*
X383518D01*
X382335Y318783D01*
X380130Y319221D01*
X372141D01*
Y313460D01*
X369601D01*
Y319221D01*
X363015D01*
X361362Y320779D01*
X361611Y321693D01*
X370541D01*
X370871Y321628D01*
X397440D01*
Y321160D01*
X407980D01*
Y331819D01*
X407980Y333343D01*
X409306Y334698D01*
X409805Y334786D01*
X410328Y334570D01*
D02*
G37*
G36*
X357145Y288060D02*
X357485Y286351D01*
X358453Y284902D01*
X359902Y283934D01*
X361611Y283594D01*
X370541D01*
X370871Y283528D01*
X397440D01*
Y279250D01*
X404458D01*
X405236Y277373D01*
X395805Y267942D01*
X367020D01*
Y272180D01*
X350796D01*
X349290Y273450D01*
X349290D01*
X348058Y274972D01*
X347891Y275482D01*
X349915Y277506D01*
X349915Y277506D01*
X350897Y278976D01*
X351242Y280711D01*
X351242Y280711D01*
Y289070D01*
X356316D01*
X357145Y288060D01*
D02*
G37*
%LPC*%
G36*
X321400Y229500D02*
X306130D01*
Y223492D01*
X299046D01*
X298670Y223869D01*
X296660Y224701D01*
Y218960D01*
Y213219D01*
X298670Y214051D01*
X299046Y214428D01*
X306130D01*
Y208420D01*
X316917D01*
X317671Y206480D01*
X316839Y204470D01*
X328321D01*
X327489Y206480D01*
X328243Y208420D01*
X339210D01*
Y217690D01*
X322670D01*
Y218960D01*
X321400D01*
Y229500D01*
D02*
G37*
G36*
X339210D02*
X323940D01*
Y220230D01*
X339210D01*
Y229500D01*
D02*
G37*
G36*
X294120Y224701D02*
X292110Y223869D01*
X290481Y222240D01*
X289649Y220230D01*
X294120D01*
Y224701D01*
D02*
G37*
G36*
Y217690D02*
X289649D01*
X290481Y215680D01*
X292110Y214051D01*
X294120Y213219D01*
Y217690D01*
D02*
G37*
G36*
X328321Y201930D02*
X323850D01*
Y197459D01*
X325860Y198291D01*
X327489Y199920D01*
X328321Y201930D01*
D02*
G37*
G36*
X321310D02*
X316839D01*
X317671Y199920D01*
X319300Y198291D01*
X321310Y197459D01*
Y201930D01*
D02*
G37*
G36*
X292131Y149221D02*
Y144749D01*
X296602D01*
X295769Y146759D01*
X294140Y148388D01*
X292131Y149221D01*
D02*
G37*
G36*
X289591D02*
X287581Y148388D01*
X285952Y146759D01*
X285119Y144749D01*
X289591D01*
Y149221D01*
D02*
G37*
G36*
X296602Y142209D02*
X292131D01*
Y137738D01*
X294140Y138571D01*
X295769Y140199D01*
X296602Y142209D01*
D02*
G37*
G36*
X289591D02*
X285119D01*
X285952Y140199D01*
X287581Y138571D01*
X289591Y137738D01*
Y142209D01*
D02*
G37*
G36*
X161321Y372741D02*
Y368269D01*
X165792D01*
X164959Y370279D01*
X163330Y371908D01*
X161321Y372741D01*
D02*
G37*
G36*
X158781D02*
X156771Y371908D01*
X155142Y370279D01*
X154310Y368269D01*
X158781D01*
Y372741D01*
D02*
G37*
G36*
X165792Y365729D02*
X161321D01*
Y361258D01*
X163330Y362091D01*
X164959Y363719D01*
X165792Y365729D01*
D02*
G37*
G36*
X158781D02*
X154310D01*
X155142Y363719D01*
X156771Y362091D01*
X158781Y361258D01*
Y365729D01*
D02*
G37*
%LPD*%
D18*
X289320Y283210D02*
D03*
X274320D02*
D03*
X104020Y518160D02*
D03*
X89020D02*
D03*
X95370Y283210D02*
D03*
X422790Y450850D02*
D03*
X407790D02*
D03*
X95250Y331470D02*
D03*
X110250D02*
D03*
X274440D02*
D03*
X289440D02*
D03*
X274440Y307110D02*
D03*
X289440D02*
D03*
X422790Y542290D02*
D03*
X407790D02*
D03*
X104020Y474980D02*
D03*
X89020D02*
D03*
X304680Y549910D02*
D03*
X289680D02*
D03*
X304800Y504190D02*
D03*
X289800D02*
D03*
X407790Y496570D02*
D03*
X422790D02*
D03*
X287140Y458470D02*
D03*
X302140D02*
D03*
X402710Y307110D02*
D03*
X417710D02*
D03*
X402710Y327430D02*
D03*
X417710D02*
D03*
X402710Y285520D02*
D03*
X417710D02*
D03*
X217050Y472438D02*
D03*
X202050D02*
D03*
X163710Y439418D02*
D03*
X148710D02*
D03*
X152520Y518158D02*
D03*
X167520D02*
D03*
X223640Y285520D02*
D03*
X238640D02*
D03*
X223640Y305840D02*
D03*
X238640D02*
D03*
X110370Y306590D02*
D03*
X95370D02*
D03*
X110370Y283210D02*
D03*
X223520Y326160D02*
D03*
X238520D02*
D03*
D19*
X283210Y429410D02*
D03*
Y416410D02*
D03*
X281940Y520550D02*
D03*
Y533550D02*
D03*
X430530Y525930D02*
D03*
Y512930D02*
D03*
Y434490D02*
D03*
Y421490D02*
D03*
Y467210D02*
D03*
Y480210D02*
D03*
X280670Y474830D02*
D03*
Y487830D02*
D03*
D20*
X143600Y218960D02*
D03*
X322670D02*
D03*
X365670D02*
D03*
X186600D02*
D03*
D21*
X154330Y262140D02*
D03*
X339750Y263410D02*
D03*
X80670Y433068D02*
D03*
X356210Y420370D02*
D03*
X337210D02*
D03*
X99670Y433068D02*
D03*
X358750Y263410D02*
D03*
X173330Y262140D02*
D03*
X432460Y805180D02*
D03*
X451460D02*
D03*
D22*
X132230Y439418D02*
D03*
X204570Y454658D02*
D03*
X308610Y487680D02*
D03*
X295610D02*
D03*
X308760Y520700D02*
D03*
X295760D02*
D03*
X403710Y513080D02*
D03*
X416710D02*
D03*
X404980Y434340D02*
D03*
X417980D02*
D03*
X404980Y480060D02*
D03*
X417980D02*
D03*
X295760Y416560D02*
D03*
X308760D02*
D03*
X293220Y441960D02*
D03*
X306220D02*
D03*
X217070Y454658D02*
D03*
X119230Y439418D02*
D03*
X103020Y453388D02*
D03*
X90020D02*
D03*
D23*
X227211Y439419D02*
D03*
X212211D02*
D03*
X304919Y607059D02*
D03*
X319919D02*
D03*
D24*
X322549Y326160D02*
D03*
X142240Y326390D02*
D03*
D25*
X370871Y313460D02*
D03*
X190561Y313690D02*
D03*
Y326390D02*
D03*
Y300990D02*
D03*
Y288290D02*
D03*
X142240D02*
D03*
Y300990D02*
D03*
Y313690D02*
D03*
X370871Y326160D02*
D03*
Y300760D02*
D03*
Y288060D02*
D03*
X322549D02*
D03*
Y300760D02*
D03*
Y313460D02*
D03*
D26*
X309260Y429260D02*
D03*
X404480Y467360D02*
D03*
X403830Y421640D02*
D03*
X403860Y525780D02*
D03*
X308610Y533400D02*
D03*
Y474980D02*
D03*
X294610D02*
D03*
Y533400D02*
D03*
X417860Y525780D02*
D03*
X417830Y421640D02*
D03*
X418480Y467360D02*
D03*
X295260Y429260D02*
D03*
D27*
X128270Y497838D02*
D03*
Y459738D02*
D03*
Y472438D02*
D03*
Y485138D02*
D03*
X177370Y497838D02*
D03*
Y485138D02*
D03*
Y459738D02*
D03*
Y472438D02*
D03*
D28*
X368301Y349369D02*
D03*
X486741Y348729D02*
D03*
X428321D02*
D03*
X458801D02*
D03*
X337820Y349369D02*
D03*
X397510D02*
D03*
Y364369D02*
D03*
X337820D02*
D03*
X458801Y363729D02*
D03*
X428321D02*
D03*
X486741D02*
D03*
X368301Y364369D02*
D03*
X500001Y167499D02*
D03*
Y152499D02*
D03*
X514999Y152501D02*
D03*
Y167501D02*
D03*
X30001Y152499D02*
D03*
Y167499D02*
D03*
X14999Y167501D02*
D03*
Y152501D02*
D03*
D29*
X256540Y922630D02*
D03*
Y903630D02*
D03*
X234950Y796950D02*
D03*
Y815950D02*
D03*
X27940Y883260D02*
D03*
Y864260D02*
D03*
X438150Y634340D02*
D03*
Y615340D02*
D03*
X372110Y749960D02*
D03*
Y768960D02*
D03*
X443230Y835050D02*
D03*
Y854050D02*
D03*
X411480Y835050D02*
D03*
Y854050D02*
D03*
D30*
X189230Y849750D02*
D03*
Y864750D02*
D03*
X394970Y637420D02*
D03*
Y622420D02*
D03*
X279400Y816490D02*
D03*
Y801490D02*
D03*
X199390Y625990D02*
D03*
Y610990D02*
D03*
X278130Y638690D02*
D03*
Y623690D02*
D03*
X128270Y864750D02*
D03*
Y849750D02*
D03*
X209550Y864750D02*
D03*
Y849750D02*
D03*
X372110Y690760D02*
D03*
Y675760D02*
D03*
X374650Y637420D02*
D03*
Y622420D02*
D03*
X354330Y637420D02*
D03*
Y622420D02*
D03*
X334010Y622420D02*
D03*
Y637420D02*
D03*
X298450Y623690D02*
D03*
Y638690D02*
D03*
X372110Y711440D02*
D03*
Y726440D02*
D03*
X340360Y816490D02*
D03*
Y801490D02*
D03*
X299720Y816490D02*
D03*
Y801490D02*
D03*
X387350Y848240D02*
D03*
Y833240D02*
D03*
X364490Y848240D02*
D03*
Y833240D02*
D03*
X320040Y816490D02*
D03*
Y801490D02*
D03*
X151130Y625990D02*
D03*
Y610990D02*
D03*
X77470Y626110D02*
D03*
Y611110D02*
D03*
X175260Y625990D02*
D03*
Y610990D02*
D03*
X101600Y626110D02*
D03*
Y611110D02*
D03*
X125730Y626110D02*
D03*
Y611110D02*
D03*
X67310Y864750D02*
D03*
Y849750D02*
D03*
X107950Y864750D02*
D03*
Y849750D02*
D03*
X148590Y864750D02*
D03*
Y849750D02*
D03*
X168910Y864750D02*
D03*
Y849750D02*
D03*
X87630Y864750D02*
D03*
Y849750D02*
D03*
D31*
X299720Y844700D02*
D03*
X320040D02*
D03*
Y831700D02*
D03*
X299720D02*
D03*
D32*
X427990Y377040D02*
D03*
Y390040D02*
D03*
X397510Y377040D02*
D03*
Y390040D02*
D03*
X337820Y377040D02*
D03*
Y390040D02*
D03*
X458470Y377040D02*
D03*
Y390040D02*
D03*
X487680Y377040D02*
D03*
Y390040D02*
D03*
X368300Y377040D02*
D03*
Y390040D02*
D03*
X316230Y623420D02*
D03*
Y636420D02*
D03*
D33*
X50000Y153000D02*
D03*
Y167000D02*
D03*
X485000Y167000D02*
D03*
Y153000D02*
D03*
D34*
X65890Y814100D02*
D03*
X85890D02*
D03*
X105890D02*
D03*
X125890D02*
D03*
X145890D02*
D03*
X165890D02*
D03*
X185890D02*
D03*
X205890D02*
D03*
Y659100D02*
D03*
X185890D02*
D03*
X165890D02*
D03*
X145890D02*
D03*
X125890D02*
D03*
X105890D02*
D03*
X85890D02*
D03*
X65890D02*
D03*
D35*
X426720Y675640D02*
D03*
Y769620D02*
D03*
D36*
X182730Y439418D02*
D03*
X195730D02*
D03*
X150330Y537208D02*
D03*
X163830D02*
D03*
D37*
X103770Y496568D02*
D03*
X89270D02*
D03*
D38*
X123540Y518160D02*
D03*
X135540D02*
D03*
D39*
X415290Y635030D02*
D03*
Y607030D02*
D03*
D40*
X409950Y805180D02*
D03*
X377450D02*
D03*
X389630Y878840D02*
D03*
X357130D02*
D03*
D41*
X240030Y839730D02*
D03*
Y872230D02*
D03*
D47*
X346710Y307110D02*
D03*
X166401Y307340D02*
D03*
D51*
X384866Y526280D02*
D03*
X328366Y449080D02*
D03*
Y526280D02*
D03*
X384866Y449080D02*
D03*
D54*
X328366Y462280D02*
D03*
Y474980D02*
D03*
Y487680D02*
D03*
Y500380D02*
D03*
Y513080D02*
D03*
X384866D02*
D03*
Y500380D02*
D03*
Y487680D02*
D03*
Y474980D02*
D03*
Y462280D02*
D03*
D55*
X259530Y770130D02*
D03*
X347530D02*
D03*
Y675130D02*
D03*
X259530D02*
D03*
D56*
X270530Y770130D02*
D03*
X281530D02*
D03*
X292530D02*
D03*
X303530D02*
D03*
X314530D02*
D03*
X325530D02*
D03*
X336530D02*
D03*
Y675130D02*
D03*
X325530D02*
D03*
X314530D02*
D03*
X303530D02*
D03*
X292530D02*
D03*
X281530D02*
D03*
X270530D02*
D03*
D60*
X426720Y722630D02*
D03*
D64*
X386500Y89650D02*
D03*
Y119650D02*
D03*
X173500Y89650D02*
D03*
Y119650D02*
D03*
X280000D02*
D03*
X250000D02*
D03*
X280000Y89650D02*
D03*
X143500Y119650D02*
D03*
X356500D02*
D03*
D68*
X250000Y89650D02*
D03*
X143500D02*
D03*
X356500D02*
D03*
D69*
X265000Y46450D02*
D03*
X158500D02*
D03*
X371500D02*
D03*
D74*
X322670Y218960D02*
X324105D01*
X328930Y223785D01*
X274320Y297180D02*
X274349Y297209D01*
Y307019D02*
X274440Y307110D01*
X274349Y297209D02*
Y307019D01*
X321351Y262890D02*
X321611Y263150D01*
X339490D01*
X321310Y262890D02*
X321351D01*
X346710Y280711D02*
Y330200D01*
X341630Y275631D02*
X346710Y280711D01*
X341630Y275590D02*
Y275631D01*
X95250Y331470D02*
Y345440D01*
X274440Y329705D02*
Y331470D01*
X274320Y320081D02*
X274380Y320141D01*
X274320Y320040D02*
Y320081D01*
X274380Y320141D02*
Y329645D01*
X274440Y329705D01*
X271780Y270510D02*
Y270956D01*
X273495Y272672D02*
Y282385D01*
X271780Y270956D02*
X273495Y272672D01*
Y282385D02*
X274320Y283210D01*
X166370Y278130D02*
Y307309D01*
X166401Y307340D01*
Y331439D01*
X166370Y331470D02*
X166401Y331439D01*
X118110Y218440D02*
X118151D01*
X118671Y218960D02*
X143600D01*
X118151Y218440D02*
X118671Y218960D01*
X139180Y262140D02*
X154330D01*
X190561Y313690D02*
X210820D01*
X322580Y218870D02*
X322670Y218960D01*
X322580Y203200D02*
Y218870D01*
X339490Y263150D02*
X339750Y263410D01*
X303760Y326160D02*
X322549D01*
X370871Y313460D02*
X390930D01*
X295390Y218960D02*
X322670D01*
X143510Y204470D02*
Y204511D01*
X143600Y204601D02*
Y218960D01*
X143510Y204511D02*
X143600Y204601D01*
X401170Y288060D02*
X402710Y286520D01*
Y285520D02*
Y286520D01*
X370871Y288060D02*
X401170D01*
X289403D02*
X322549D01*
X370871Y326160D02*
X401440D01*
X289560Y326430D02*
X302530Y313460D01*
X322549D01*
X289560Y326430D02*
Y327430D01*
X359495Y223785D02*
Y262665D01*
X271780Y242570D02*
X342060D01*
X358750Y262910D02*
Y263410D01*
X342060Y242570D02*
X360170Y224460D01*
X265760Y105410D02*
X304800D01*
X436880Y237490D01*
X19869Y172371D02*
X25129D01*
X14999Y167501D02*
X19869Y172371D01*
X25129D02*
X30250Y167250D01*
X56045Y147320D02*
X238314D01*
X50500Y153000D02*
X52325Y151175D01*
Y151040D02*
Y151175D01*
X50000Y153000D02*
X50500D01*
X52325Y151040D02*
X56045Y147320D01*
X95310Y306650D02*
Y318710D01*
X95250Y318770D02*
X95310Y318710D01*
Y306650D02*
X95370Y306590D01*
X122876Y313524D02*
X134284D01*
X110490Y326910D02*
X111315Y326085D01*
Y325085D02*
X122876Y313524D01*
X111315Y325085D02*
Y326085D01*
X237815Y283695D02*
X238640D01*
X260795Y138855D02*
X280000Y119650D01*
X251905Y124085D02*
Y291575D01*
X250070Y306062D02*
X260795Y295337D01*
X15000Y152500D02*
X15824Y151676D01*
X250000Y119650D02*
Y122180D01*
X260795Y138855D02*
Y295337D01*
X238640Y273237D02*
X242190Y269687D01*
X239465Y304015D02*
X251905Y291575D01*
X242190Y269240D02*
Y269687D01*
X250000Y122180D02*
X251905Y124085D01*
X238640Y273237D02*
Y283695D01*
X191801Y326160D02*
X223520D01*
X239345Y324335D02*
X250070Y313610D01*
Y306062D02*
Y313610D01*
X418535Y274062D02*
Y284695D01*
Y274062D02*
X422910Y269687D01*
Y269240D02*
Y269687D01*
X239345Y324335D02*
Y325335D01*
X238520Y326160D02*
X239345Y325335D01*
X499426Y168074D02*
Y180024D01*
Y168074D02*
X500001Y167499D01*
X499110Y180340D02*
X499426Y180024D01*
X500001Y167499D02*
X500002Y167500D01*
X514998D01*
X514999Y167501D01*
X485000Y167000D02*
Y194450D01*
X448310Y231140D02*
X485000Y194450D01*
X306820Y89650D02*
X448310Y231140D01*
Y312420D01*
X280000Y89650D02*
X306820D01*
X433300Y327430D02*
X448310Y312420D01*
X514998Y152500D02*
X514999Y152501D01*
X500002Y152500D02*
X514998D01*
X500001Y152499D02*
X500002Y152500D01*
X485000Y153000D02*
X485250Y152750D01*
X499750D01*
X500001Y152499D01*
X30250Y167250D02*
X49750D01*
X50000Y167000D01*
X248211Y121439D02*
X250000Y119650D01*
X44450Y135890D02*
X227330D01*
X241781Y121439D01*
X248211D01*
X30826Y149514D02*
X44450Y135890D01*
X250000Y89650D02*
X265760Y105410D01*
X14999Y152501D02*
X15000Y152500D01*
X30000D01*
X30001Y152499D01*
X30826Y149514D02*
Y151674D01*
X30001Y152499D02*
X30826Y151674D01*
X217342Y262140D02*
X237815Y282613D01*
X360170Y224460D02*
X365670Y218960D01*
X238640Y305840D02*
X239465Y305015D01*
Y304015D02*
Y305015D01*
X358750Y263410D02*
X359495Y262665D01*
X417710Y285520D02*
X418535Y284695D01*
X436880Y237490D02*
Y294640D01*
X418535Y305575D02*
X425945D01*
X436880Y294640D01*
X110250Y287235D02*
X111075Y288060D01*
X110250Y286270D02*
Y287235D01*
X111075Y288060D02*
X143479D01*
X417710Y306400D02*
Y307110D01*
Y306400D02*
X418535Y305575D01*
X417710Y327430D02*
X433300D01*
X173330Y262140D02*
X217342D01*
X173330Y261640D02*
Y262140D01*
X186600Y218960D02*
Y248370D01*
X173330Y261640D02*
X186600Y248370D01*
X397682Y263410D02*
X416885Y282613D01*
Y284695D01*
X358750Y263410D02*
X397682D01*
X416885Y284695D02*
X417710Y285520D01*
X370871Y300760D02*
X397360D01*
X402710Y306110D01*
X289440D02*
X290265Y305285D01*
X291265D02*
X295790Y300760D01*
X322549D01*
X289440Y306110D02*
Y307110D01*
X290265Y305285D02*
X291265D01*
X191801Y288060D02*
X200932D01*
X203472Y285520D02*
X223640D01*
X200932Y288060D02*
X203472Y285520D01*
X111195Y304544D02*
Y305765D01*
X114915Y300824D02*
X143415D01*
X111195Y304544D02*
X114915Y300824D01*
X110370Y306590D02*
X111195Y305765D01*
X143415Y300824D02*
X143479Y300760D01*
X223640Y304840D02*
Y305840D01*
X191801Y300760D02*
X219560D01*
X223640Y304840D01*
D75*
X419952Y340360D02*
X428321Y348729D01*
X411480Y340360D02*
X419952D01*
X390499Y536549D02*
X393091D01*
X401584Y528056D01*
X389890Y528756D02*
Y535279D01*
X402082Y528056D02*
X403860Y526278D01*
Y525780D02*
Y526278D01*
X389890Y535279D02*
Y537210D01*
X401584Y528056D02*
X402082D01*
X371996Y531963D02*
X384863Y544830D01*
X407790Y542290D02*
Y542354D01*
X405314Y544830D02*
X407790Y542354D01*
X384863Y544830D02*
X405314D01*
X287020Y828040D02*
X287954D01*
X291148Y831234D01*
X299720Y816490D02*
Y830224D01*
Y831700D01*
X299254Y831234D02*
X299720Y831700D01*
X291148Y831234D02*
X299254D01*
X320040Y816490D02*
Y830224D01*
X311731Y826770D02*
X315185Y830224D01*
X320040D02*
Y831700D01*
X315185Y830224D02*
X318564D01*
X311150Y826770D02*
X311731D01*
X308151Y470359D02*
X308381Y470588D01*
Y474751D01*
X316230Y468094D02*
Y468094D01*
X304616Y461876D02*
X310012D01*
X308381Y474751D02*
X308610Y474980D01*
X310012Y461876D02*
X316230Y468094D01*
Y468094D02*
X323116Y474980D01*
X328310D01*
X434102Y458708D02*
Y464138D01*
Y458708D02*
X434340Y458470D01*
X430955Y467285D02*
X434102Y464138D01*
X456539Y470326D02*
Y474319D01*
X423096Y451156D02*
X437370D01*
X418555Y467285D02*
X430955D01*
X456539Y474319D02*
X457200Y474980D01*
X437370Y451156D02*
X456539Y470326D01*
X422790Y450850D02*
X423096Y451156D01*
X399954Y467332D02*
X404453D01*
X404480Y467360D01*
X399926Y467305D02*
X399954Y467332D01*
X114791Y527659D02*
X123540Y518910D01*
X113030Y528320D02*
X113691Y527659D01*
X114791D01*
X123540Y518160D02*
Y518910D01*
X356870Y421030D02*
Y435610D01*
X309260Y429260D02*
Y429396D01*
X311038Y431174D02*
X314334D01*
X309260Y429396D02*
X311038Y431174D01*
X314334D02*
X320040Y436880D01*
X305656Y548934D02*
X323556D01*
X330200Y542290D01*
Y528114D02*
Y542290D01*
X313801Y539089D02*
X319379D01*
X308610Y533898D02*
X313801Y539089D01*
X319379D02*
X320040Y539750D01*
X328310Y432450D02*
Y449080D01*
X315146Y419286D02*
X328310Y432450D01*
X310836Y419286D02*
X315146D01*
X308610Y417060D02*
X310836Y419286D01*
X328366Y526280D02*
X330200Y528114D01*
X356210Y420370D02*
X356870Y421030D01*
X384810Y526280D02*
X387414D01*
X389890Y528756D01*
X393700Y421640D02*
X403830D01*
X308610Y533400D02*
Y533898D01*
X224735Y434285D02*
Y436943D01*
X227211Y439419D01*
X218440Y427990D02*
X224735Y434285D01*
X353721Y340224D02*
X359156D01*
X368301Y349369D01*
X353060Y339563D02*
X353721Y340224D01*
X325885D02*
X328675D01*
X325224Y339563D02*
X325885Y340224D01*
X328675D02*
X337820Y349369D01*
X384201Y339751D02*
X387891D01*
X383540Y339090D02*
X384201Y339751D01*
X387891D02*
X397399Y349259D01*
X443891Y339751D02*
X449822D01*
X458801Y348729D01*
X443230Y339090D02*
X443891Y339751D01*
X472440Y339563D02*
X473101Y340224D01*
X478236D01*
X486741Y348729D01*
X248412Y469319D02*
X279807Y500714D01*
X242824Y519684D02*
X273050Y549910D01*
X237236Y524256D02*
X279400Y566420D01*
X242824Y422656D02*
Y519684D01*
X224883Y418656D02*
X237236Y431009D01*
X248412Y429036D02*
Y469319D01*
X254000Y431351D02*
X277681Y407670D01*
X254000Y448310D02*
X263843Y458153D01*
X254000Y431351D02*
Y448310D01*
X248412Y429036D02*
X275366Y402082D01*
X237236Y431009D02*
Y524256D01*
X275366Y402082D02*
X355508D01*
X242824Y422656D02*
X268986Y396494D01*
X277681Y407670D02*
X382420D01*
X67310Y408940D02*
Y466090D01*
Y408940D02*
X89540Y386710D01*
X287940D01*
X56134Y403606D02*
Y505997D01*
Y403606D02*
X106680Y353060D01*
X207710D01*
X97643Y370000D02*
X119650D01*
X61722Y405921D02*
X97643Y370000D01*
X61722Y405921D02*
Y503682D01*
X87346Y537208D02*
X150330D01*
X170688Y591058D02*
X264818D01*
X297450Y623690D01*
X298450D01*
X173990Y585470D02*
X314960D01*
X334010Y604520D01*
Y622420D01*
X178562Y579882D02*
X317275D01*
X341913Y604520D02*
X376206D01*
X317275Y579882D02*
X341913Y604520D01*
X168910Y580390D02*
X173990Y585470D01*
X260350Y596900D02*
X278130Y614680D01*
X167640Y596900D02*
X260350D01*
X162306Y591566D02*
X167640Y596900D01*
X165608Y585978D02*
X170688Y591058D01*
X278130Y614680D02*
Y623690D01*
X116192Y569518D02*
X127064Y580390D01*
X118507Y563930D02*
X128617Y574040D01*
X124749Y585978D02*
X165608D01*
X122435Y591566D02*
X162306D01*
X113877Y575106D02*
X124749Y585978D01*
X111563Y580694D02*
X122435Y591566D01*
X109248Y586282D02*
X120120Y597154D01*
X152041D01*
X161751Y606863D01*
X127064Y580390D02*
X168910D01*
X128617Y574040D02*
X172720D01*
X178562Y579882D01*
X201995Y418656D02*
X224883D01*
X185206Y435445D02*
X201995Y418656D01*
X263843Y458153D02*
X286824D01*
X302140Y459400D02*
X304616Y461876D01*
X302140Y458470D02*
Y459400D01*
X386842Y460304D02*
X394406D01*
X384866Y462280D02*
X386842Y460304D01*
X400384Y454326D02*
X405314D01*
X394406Y460304D02*
X400384Y454326D01*
X304680Y549910D02*
X305656Y548934D01*
X384810Y474980D02*
X400400D01*
X404980Y479560D01*
X407790Y450850D02*
Y451850D01*
X405314Y454326D02*
X407790Y451850D01*
X382420Y407670D02*
X397510Y392580D01*
X207710Y353060D02*
X224650Y370000D01*
X392674Y660146D02*
X415290Y637530D01*
X356362Y654558D02*
X375412D01*
X371094Y660146D02*
X392674D01*
X375412Y654558D02*
X390074Y639896D01*
X360680Y670560D02*
X371094Y660146D01*
X390074Y639896D02*
X392494D01*
X394970Y637420D01*
X269605Y813705D02*
X270266Y814365D01*
X277275D02*
X279400Y816490D01*
X270266Y814365D02*
X277275D01*
X144782Y459738D02*
X148710Y455810D01*
Y439418D02*
Y455810D01*
X128270Y459738D02*
X144782D01*
X109370D02*
X128270D01*
X279807Y500714D02*
X287324D01*
X268986Y396494D02*
X330616D01*
X355508Y402082D02*
X367550Y390040D01*
X286824Y458153D02*
X287140Y458470D01*
X287940Y386710D02*
X304650Y370000D01*
X279400Y566420D02*
X447040D01*
X431216Y393266D02*
X450024Y412074D01*
X435610Y448310D02*
X450024Y433896D01*
Y412074D02*
Y433896D01*
X422790Y496570D02*
X424060Y497840D01*
X425266Y500046D02*
X449176D01*
X424060Y498840D02*
X425266Y500046D01*
X450780Y501650D02*
X452120D01*
X424060Y496570D02*
Y497840D01*
Y498840D01*
X449176Y500046D02*
X450780Y501650D01*
X425266Y494361D02*
X449223D01*
X466090Y477494D01*
Y397660D02*
Y477494D01*
X458470Y390040D02*
X466090Y397660D01*
X424060Y495567D02*
Y496570D01*
X487680Y390040D02*
Y502920D01*
X448310Y542290D02*
X487680Y502920D01*
X185206Y435445D02*
Y436942D01*
X182730Y439418D02*
X185206Y436942D01*
X416052Y417322D02*
Y419862D01*
X417830Y421640D01*
X407670Y408940D02*
X416052Y417322D01*
X417905Y421217D02*
Y434265D01*
X422790Y450786D02*
Y450850D01*
X330616Y396494D02*
X337070Y390040D01*
X425266Y448310D02*
X435610D01*
X422790Y450786D02*
X425266Y448310D01*
X424060Y495567D02*
X425266Y494361D01*
X441990Y542290D02*
X448310D01*
X422790D02*
X441990D01*
X514000Y614300D01*
X451372Y560592D02*
X501652Y610872D01*
Y652752D01*
X300362Y560592D02*
X451372D01*
X56134Y505997D02*
X87346Y537208D01*
X67310Y466090D02*
X76200Y474980D01*
X61722Y503682D02*
X76198Y518158D01*
X501652Y652752D02*
X514000Y665100D01*
X447040Y566420D02*
X496064Y615444D01*
Y697964D01*
X514000Y715900D01*
X293156Y553386D02*
X300362Y560592D01*
X289680Y550910D02*
X292156Y553386D01*
X293156D01*
X289680Y549910D02*
Y550910D01*
X195730Y439418D02*
X195731Y439419D01*
X195580Y439420D02*
X195582Y439418D01*
X195730D01*
X195731Y439419D02*
X212211D01*
X282015Y533475D02*
X294535D01*
X374424Y518216D02*
X379560Y513080D01*
X374377Y518216D02*
X374424D01*
X273050Y549910D02*
X289680D01*
X371996Y520597D02*
Y531963D01*
X270510Y534670D02*
X271070Y534110D01*
X371996Y520597D02*
X374377Y518216D01*
X281380Y534110D02*
X282015Y533475D01*
X271070Y534110D02*
X281380D01*
X431720Y527120D02*
X432220D01*
X433256Y528156D02*
Y532652D01*
X434340Y533736D02*
Y534670D01*
X432220Y527120D02*
X433256Y528156D01*
Y532652D02*
X434340Y533736D01*
X430530Y525930D02*
X431720Y527120D01*
X430455Y525855D02*
X430530Y525930D01*
X428740Y390040D02*
X431216Y392516D01*
Y393266D01*
X427990Y390040D02*
X428740D01*
X486741Y363729D02*
Y376101D01*
X487680Y377040D01*
X457530D02*
X458801Y375769D01*
X457530Y377040D02*
Y378901D01*
X458801Y364960D02*
Y375769D01*
X368301Y364369D02*
Y377039D01*
X397510Y364369D02*
Y377040D01*
X429260Y378191D02*
X429261Y378190D01*
X428321Y366150D02*
Y378191D01*
X294535Y533475D02*
X295185Y532825D01*
X337070Y390040D02*
X337820D01*
X289800Y503190D02*
Y504190D01*
X287324Y500714D02*
X289800Y503190D01*
X367550Y390040D02*
X368300D01*
X337820Y364869D02*
Y377040D01*
Y377041D02*
X337821Y377040D01*
X127080Y848560D02*
X128270Y849750D01*
X125890Y847370D02*
X127080Y848560D01*
X77472Y496568D02*
X89270D01*
X135540Y518160D02*
X135715Y517985D01*
Y508175D02*
Y517985D01*
Y508175D02*
X135890Y508000D01*
X76200Y474980D02*
X89020D01*
X28956Y550926D02*
X58724Y580694D01*
X28956Y424056D02*
Y550926D01*
X45720Y364620D02*
Y538480D01*
X40132Y384432D02*
Y543052D01*
X16000Y360300D02*
X40132Y384432D01*
X16000Y385700D02*
X34544Y404244D01*
X16000Y334900D02*
X45720Y364620D01*
X34544Y404244D02*
Y547624D01*
X62026Y575106D01*
X16000Y411100D02*
X28956Y424056D01*
X40132Y543052D02*
X66598Y569518D01*
X45720Y538480D02*
X71170Y563930D01*
X177370Y497838D02*
Y507308D01*
X167520Y517158D02*
X177370Y507308D01*
X163710Y439418D02*
X182730D01*
X98124Y608634D02*
X100600Y611110D01*
X27254Y603046D02*
X93536D01*
X100600Y611110D02*
X101600D01*
X98124Y607634D02*
Y608634D01*
X93536Y603046D02*
X98124Y607634D01*
X376206Y604520D02*
X383628Y611942D01*
Y612078D02*
X393970Y622420D01*
X383628Y611942D02*
Y612078D01*
X393970Y622420D02*
X394970D01*
X69145Y881380D02*
X77470D01*
X54610Y838200D02*
Y866845D01*
X48768Y841248D02*
Y868905D01*
X54610Y866845D02*
X69145Y881380D01*
X48768Y868905D02*
X66831Y886968D01*
X93472D01*
X27940Y864260D02*
X32400Y868720D01*
X77470Y881380D02*
X87313Y871536D01*
Y865067D02*
Y871536D01*
X93472Y886968D02*
X107950Y872490D01*
X87313Y865067D02*
X87630Y864750D01*
X29210Y703710D02*
Y821690D01*
X35560Y819150D02*
X54610Y838200D01*
X16000Y665100D02*
X35560Y684660D01*
Y819150D01*
X29210Y821690D02*
X48768Y841248D01*
X16000Y690500D02*
X29210Y703710D01*
X318564Y830224D02*
X320040Y831700D01*
X76198Y518158D02*
X88900D01*
X71170Y563930D02*
X118507D01*
X260612Y786392D02*
X273234Y799014D01*
X276924D01*
X260612Y771212D02*
Y786392D01*
X276924Y799014D02*
X279400Y801490D01*
X259530Y770130D02*
X260612Y771212D01*
X62026Y575106D02*
X113877D01*
X66598Y569518D02*
X116192D01*
X58724Y580694D02*
X111563D01*
X270530Y646290D02*
X274654Y642166D01*
X294974Y641166D02*
Y642166D01*
Y641166D02*
X297450Y638690D01*
X274654Y641166D02*
Y642166D01*
X270530Y646290D02*
Y675130D01*
X284006Y653134D02*
X294974Y642166D01*
X284006Y653134D02*
Y672654D01*
X48818Y597458D02*
X104619D01*
X16000Y588900D02*
X19361D01*
X24062Y584200D02*
X35560D01*
X48818Y597458D01*
X19361Y588900D02*
X24062Y584200D01*
X25575Y565325D02*
X52120Y591870D01*
X16000Y563500D02*
X17825Y565325D01*
X25575D01*
X52120Y591870D02*
X106934D01*
X27940Y864260D02*
X31986Y860213D01*
X17320Y548180D02*
X20776Y551636D01*
X20914D01*
X16000Y538100D02*
X17320Y539420D01*
X20914Y551636D02*
X55560Y586282D01*
X17320Y539420D02*
Y548180D01*
X55560Y586282D02*
X109248D01*
X316230Y623420D02*
X316231Y623419D01*
X316980Y623420D02*
X319919Y620481D01*
Y607059D02*
Y620481D01*
X106934Y591870D02*
X117806Y602742D01*
X132109D01*
X140071Y610704D01*
X104619Y597458D02*
X117943Y610782D01*
X316230Y623420D02*
X316980D01*
X140071Y610704D02*
X150843D01*
X16000Y614300D02*
X27254Y603046D01*
X117943Y610782D02*
X125402D01*
X125730Y611110D01*
X47066Y608634D02*
X74994D01*
X16000Y639700D02*
X47066Y608634D01*
X74994D02*
X77470Y611110D01*
X150843Y610704D02*
X151130Y610990D01*
X165688D02*
X175260D01*
X161751Y607053D02*
X165688Y610990D01*
X161751Y606863D02*
Y607053D01*
X107950Y864750D02*
Y872490D01*
X144776Y638814D02*
X150814Y632776D01*
X144776Y657987D02*
X145890Y659100D01*
X144776Y638814D02*
Y657987D01*
X142088Y529590D02*
X152520Y519158D01*
X122855Y525445D02*
X127000Y529590D01*
X142088D01*
X122855Y518743D02*
Y525445D01*
X152520Y518158D02*
Y519158D01*
X417905Y434265D02*
X417980Y434340D01*
X418055Y434415D01*
X430455D02*
X430530Y434490D01*
X418055Y434415D02*
X430455D01*
X417980Y480060D02*
X418230Y479810D01*
Y467610D02*
X418480Y467360D01*
X418230Y467610D02*
Y479810D01*
X418480Y467360D02*
X418555Y467285D01*
X417285Y525205D02*
X417860Y525780D01*
X416710Y513080D02*
X417285Y513655D01*
Y525205D01*
X417935Y525855D02*
X430455D01*
X417860Y525780D02*
X417935Y525855D01*
X379560Y513080D02*
X384810D01*
X401484Y510354D02*
X403710Y512580D01*
X392986Y502356D02*
X400984Y510354D01*
X401484D01*
X403710Y512580D02*
Y513080D01*
X386786Y502356D02*
X392986D01*
X384810Y500380D02*
X386786Y502356D01*
X398132Y487680D02*
X403546Y493094D01*
X405314D01*
X407790Y495570D02*
Y496570D01*
X384810Y487680D02*
X398132D01*
X405314Y493094D02*
X407790Y495570D01*
X404980Y479560D02*
Y480060D01*
X393216Y446604D02*
X404980Y434840D01*
X387286Y446604D02*
X393216D01*
X384810Y449080D02*
X387286Y446604D01*
X404980Y434340D02*
Y434840D01*
X308610Y416560D02*
Y417060D01*
X293915Y429955D02*
X294535Y429335D01*
X294610Y429260D01*
X283285Y429335D02*
X294535D01*
X283210Y429410D02*
X283285Y429335D01*
X293915Y429955D02*
Y441265D01*
X293220Y441960D02*
X293915Y441265D01*
X295110Y475480D02*
Y487180D01*
X294610Y474980D02*
X295110Y475480D01*
Y487180D02*
X295610Y487680D01*
X295535Y487755D02*
X295610Y487680D01*
X280745Y487755D02*
X295535D01*
X280670Y487830D02*
X280745Y487755D01*
X295185Y521275D02*
Y532825D01*
Y521275D02*
X295760Y520700D01*
X308760Y520200D02*
X315880Y513080D01*
X328310D01*
X308760Y520200D02*
Y520700D01*
X319250Y504190D02*
X323060Y500380D01*
X328310D01*
X304800Y504190D02*
X319250D01*
X308446Y444186D02*
Y446307D01*
X306220Y441960D02*
X308446Y444186D01*
X308610Y447877D02*
X321037Y460304D01*
X308446Y446307D02*
X308610Y446471D01*
Y447877D01*
X321037Y460304D02*
X326334D01*
X328310Y462280D01*
X186567Y638814D02*
X195914Y629466D01*
Y628466D02*
Y629466D01*
Y628466D02*
X198390Y625990D01*
X186567Y638814D02*
Y658423D01*
X198390Y625990D02*
X199390D01*
X317564Y799014D02*
X320040Y801490D01*
X313309Y799014D02*
X317564D01*
X302129Y787834D02*
X313309Y799014D01*
X286184Y787834D02*
X302129D01*
X280266Y781917D02*
X286184Y787834D01*
X280346Y793426D02*
X290656D01*
X298720Y801490D01*
X270530Y783610D02*
X280346Y793426D01*
X105076Y628586D02*
Y629557D01*
X105890Y630372D02*
Y659100D01*
X101600Y626110D02*
X102600D01*
X105076Y628586D01*
Y629557D02*
X105890Y630372D01*
X150814Y626306D02*
X151130Y625990D01*
X150814Y626306D02*
Y632776D01*
X172540Y628466D02*
X175016Y625990D01*
X166367Y638814D02*
X172540Y632640D01*
X165890Y659100D02*
X166367Y658623D01*
Y638814D02*
Y658623D01*
X175016Y625990D02*
X175260D01*
X172540Y628466D02*
Y632640D01*
X185890Y659100D02*
X186567Y658423D01*
X390550Y749960D02*
X410210Y769620D01*
X372110Y749960D02*
X390550D01*
X410210Y769620D02*
X426720D01*
X403860Y675640D02*
X426720D01*
X369634Y708964D02*
X372110Y711440D01*
X360680Y705604D02*
X364039Y708964D01*
X360680Y670560D02*
Y705604D01*
X364039Y708964D02*
X369634D01*
X415290Y635030D02*
Y637530D01*
X391160Y675640D02*
X403860D01*
X374586Y688284D02*
X378516D01*
X391160Y675640D01*
X389890Y689610D02*
Y716280D01*
X403860Y675640D02*
Y679950D01*
X398534Y680966D02*
X402844D01*
X379897Y726273D02*
X389890Y716280D01*
X402844Y680966D02*
X403860Y679950D01*
X389890Y689610D02*
X398534Y680966D01*
X372276Y726273D02*
X379897D01*
X372110Y726440D02*
X372276Y726273D01*
X372110Y690760D02*
X374586Y688284D01*
X347576Y663344D02*
X356362Y654558D01*
X347530Y675130D02*
X347576Y675083D01*
Y663344D02*
Y675083D01*
X325530Y675130D02*
X326034Y674626D01*
X349482Y639896D02*
X351854D01*
X326034Y663344D02*
X349482Y639896D01*
X326034Y663344D02*
Y674626D01*
X351854Y639896D02*
X354330Y637420D01*
X336999Y663344D02*
X351372Y648970D01*
X363100D02*
X371174Y640896D01*
X351372Y648970D02*
X363100D01*
X336999Y663344D02*
Y674661D01*
X336530Y675130D02*
X336999Y674661D01*
X371174Y639896D02*
X373650Y637420D01*
X371174Y639896D02*
Y640896D01*
X373650Y637420D02*
X374650D01*
X306006Y664424D02*
X333010Y637420D01*
X306006Y664424D02*
Y672654D01*
X333010Y637420D02*
X334010D01*
X303530Y675130D02*
X306006Y672654D01*
X292530Y659370D02*
Y675130D01*
X315480Y636420D02*
X316230D01*
X292530Y659370D02*
X315480Y636420D01*
X297450Y638690D02*
X298450D01*
X281530Y675130D02*
X284006Y672654D01*
X277130Y638690D02*
X278130D01*
X274654Y641166D02*
X277130Y638690D01*
X372110Y726440D02*
Y749960D01*
X298720Y801490D02*
X299720D01*
X280266Y771394D02*
Y781917D01*
Y771394D02*
X281530Y770130D01*
X270530D02*
Y783610D01*
X165890Y814100D02*
Y847274D01*
X168366Y849750D01*
X168910D01*
X145890Y847274D02*
X148366Y849750D01*
X145890Y814100D02*
Y847274D01*
X148366Y849750D02*
X148590D01*
X105890Y814100D02*
Y847690D01*
X107950Y849750D01*
X85890Y814100D02*
Y848010D01*
X87630Y849750D01*
X65890Y848330D02*
X67310Y849750D01*
X65890Y814100D02*
Y848330D01*
X312420Y487680D02*
X328310D01*
X401440Y326160D02*
X402710Y327430D01*
Y306110D02*
Y307110D01*
X155996Y521634D02*
X163830Y529468D01*
X154996Y521634D02*
X155996D01*
X163830Y529468D02*
Y537208D01*
X152520Y519158D02*
X154996Y521634D01*
X167520Y517158D02*
Y518158D01*
X103020Y453388D02*
Y453888D01*
X105246Y456114D01*
X105746D01*
X109370Y459738D01*
X103020Y452888D02*
X113764Y442144D01*
X117004D01*
X119230Y439918D01*
X103020Y452888D02*
Y453388D01*
X119230Y439418D02*
Y439918D01*
X106496Y472440D02*
X128268D01*
X128270Y472438D01*
X104020Y474916D02*
Y474980D01*
Y474916D02*
X106496Y472440D01*
X103770Y495818D02*
X114450Y485138D01*
X103770Y495818D02*
Y496568D01*
X114450Y485138D02*
X128270D01*
X103835Y518093D02*
X103900Y518158D01*
X103835Y496633D02*
Y518093D01*
X103770Y496568D02*
X103835Y496633D01*
X125730Y626110D02*
Y658940D01*
X125890Y659100D01*
X78470Y626110D02*
X85890Y633530D01*
X77470Y626110D02*
X78470D01*
X85890Y633530D02*
Y659100D01*
D76*
X280730Y519340D02*
X281940Y520550D01*
X274320Y509270D02*
X274592Y509542D01*
Y513702D01*
X280230Y519340D01*
X280730D01*
X344170Y612140D02*
X344442Y612412D01*
Y613532D01*
X353330Y622420D01*
X217060Y454668D02*
X218067Y453662D01*
X228328D02*
X228600Y453390D01*
X218067Y453662D02*
X228328D01*
X283210Y416410D02*
X283285Y416485D01*
X279610Y417620D02*
X282000D01*
X268529Y428701D02*
X279610Y417620D01*
X267970Y439420D02*
X268529Y438861D01*
X282000Y417620D02*
X283210Y416410D01*
X268529Y428701D02*
Y438861D01*
X108058Y424180D02*
X115186D01*
X99670Y432568D02*
X108058Y424180D01*
X99670Y432568D02*
Y433068D01*
X283285Y416485D02*
X295835D01*
X295910Y416560D01*
X96355Y436384D02*
X99670Y433068D01*
X96355Y436384D02*
Y444869D01*
X91230Y449994D02*
X96355Y444869D01*
X91230Y449994D02*
Y452178D01*
X244551Y680009D02*
X245821D01*
X214630Y709930D02*
X244551Y680009D01*
X245821D02*
X246380Y679450D01*
X217060Y454668D02*
Y472428D01*
X217050Y472438D02*
X217060Y472428D01*
X286540Y842010D02*
X288770Y844240D01*
X298260D02*
X298720Y844700D01*
X288770Y844240D02*
X298260D01*
X285750Y842010D02*
X286540D01*
X298720Y844700D02*
X320040D01*
X90020Y453388D02*
X91230Y452178D01*
X280595Y474905D02*
X280670Y474830D01*
X268045Y474905D02*
X280595D01*
X267970Y474980D02*
X268045Y474905D01*
X258572Y394970D02*
Y395224D01*
X237490Y416306D02*
X258572Y395224D01*
X337210Y420370D02*
X340828Y423988D01*
Y435295D01*
X341386Y435854D01*
X430530Y421490D02*
X431740Y422700D01*
X434610D01*
X441170Y429260D01*
X441960D01*
X431740Y511720D02*
X437560D01*
X441170Y508110D02*
X441960D01*
X437560Y511720D02*
X441170Y508110D01*
X430530Y512930D02*
X431740Y511720D01*
Y479000D02*
X435880D01*
X430530Y480210D02*
X431740Y479000D01*
X435880D02*
X442440Y472440D01*
X443230D01*
X237490Y416306D02*
Y416560D01*
X127080Y815290D02*
Y848560D01*
X125890Y814100D02*
X127080Y815290D01*
X353330Y622420D02*
X374650D01*
X402605Y607045D02*
X415275D01*
X402590Y607060D02*
X402605Y607045D01*
X415275D02*
X415290Y607030D01*
X96400Y896620D02*
X125810Y867210D01*
X66040Y896620D02*
X96400D01*
X125810Y866210D02*
X127270Y864750D01*
X128270D01*
X125810Y866210D02*
Y867210D01*
X38140Y868720D02*
X66040Y896620D01*
X32400Y868720D02*
X38140D01*
X16000Y741300D02*
Y852820D01*
X27440Y864260D01*
X27940D01*
X415290Y607030D02*
X429340D01*
X437650Y615340D01*
X438150D01*
X177370Y472438D02*
X202050D01*
D77*
X41800Y896620D02*
X41910D01*
X28440Y883260D02*
X41800Y896620D01*
X14080D02*
X27440Y883260D01*
X13970Y896620D02*
X14080D01*
X27440Y883260D02*
X28440D01*
X132790Y422200D02*
Y438858D01*
Y422200D02*
X133350Y421640D01*
X132230Y439418D02*
X132790Y438858D01*
X80010Y432408D02*
X80670Y433068D01*
X80010Y415290D02*
Y432408D01*
X325000Y905630D02*
X342888Y887742D01*
X325000Y905630D02*
Y945000D01*
X342888Y887742D02*
X353104D01*
X128270Y497838D02*
X144778D01*
X194308Y454658D02*
X204570D01*
X83820Y283210D02*
X95370D01*
X151013Y326390D02*
X152400Y327777D01*
X142240Y326390D02*
X151013D01*
X152400Y327777D02*
Y332665D01*
X256540Y922630D02*
Y937260D01*
X353104Y887742D02*
X357130Y883716D01*
Y873964D02*
Y883716D01*
X303060Y605200D02*
X304919Y607059D01*
X297180Y595630D02*
Y595630D01*
X303060Y601510D01*
Y605200D01*
X426720Y695960D02*
Y722630D01*
X453390D01*
X426720D02*
Y749300D01*
X408290Y857240D02*
X411480Y854050D01*
X397350Y857240D02*
X408290D01*
X316806Y677406D02*
Y685436D01*
X322936Y691566D01*
X324536D01*
X325120Y692150D01*
X375336Y668604D02*
Y673484D01*
X372110Y675760D02*
X373060D01*
X375336Y673484D01*
Y668604D02*
X375920Y668020D01*
X314530Y675130D02*
X316806Y677406D01*
X65890Y659100D02*
Y685950D01*
X205890Y659100D02*
Y686920D01*
X438150Y634340D02*
Y651510D01*
X259530Y675130D02*
Y692970D01*
X325530Y754790D02*
Y770130D01*
X347530Y754830D02*
Y770130D01*
X372110Y768960D02*
Y783590D01*
X451460Y805180D02*
X466090D01*
X443230Y854050D02*
Y868680D01*
X421174Y840274D02*
X426720Y845820D01*
X418594Y871436D02*
X426720Y863310D01*
Y845820D02*
Y863310D01*
X393656Y871436D02*
X418594D01*
X389630Y875462D02*
Y878840D01*
Y875462D02*
X393656Y871436D01*
X219050Y796950D02*
X234950D01*
X185890Y786600D02*
Y814100D01*
X357130Y881466D02*
X361156Y885492D01*
X366032D02*
X380970Y900430D01*
X426720D01*
X357130Y879894D02*
Y881466D01*
X361156Y885492D02*
X366032D01*
X192506Y847064D02*
Y847474D01*
X204818Y815172D02*
Y834752D01*
X190230Y849750D02*
X192506Y847474D01*
Y847064D02*
X204818Y834752D01*
Y815172D02*
X205890Y814100D01*
X189230Y849750D02*
X190230D01*
X206274Y867026D02*
Y868026D01*
X208550Y864750D02*
X220860D01*
X205000Y869300D02*
Y945000D01*
Y869300D02*
X206274Y868026D01*
Y867026D02*
X208550Y864750D01*
X338806Y779936D02*
X364050Y805180D01*
X377450D01*
X329080Y791210D02*
X339360Y801490D01*
X304762Y782282D02*
X313690Y791210D01*
X329080D01*
X304762Y771362D02*
Y782282D01*
X303530Y770130D02*
X304762Y771362D01*
X339360Y801490D02*
X340360D01*
X409950Y805180D02*
X432460D01*
X366032Y869938D02*
X384074Y851896D01*
X361156Y869938D02*
X366032D01*
X357130Y873964D02*
X361156Y869938D01*
X455930Y846220D02*
Y871220D01*
X450036Y840326D02*
X455930Y846220D01*
X443230Y835050D02*
X448506Y840326D01*
X450036D01*
X426720Y900430D02*
X455930Y871220D01*
X384074Y850516D02*
Y851896D01*
Y850516D02*
X386350Y848240D01*
X387350D01*
Y833240D02*
X389160Y835050D01*
X411480D01*
X416704Y840274D01*
X379211Y834519D02*
X386071D01*
X365490Y848240D02*
X379211Y834519D01*
X386071D02*
X387350Y833240D01*
X364490Y848240D02*
X365490D01*
X416704Y840274D02*
X421174D01*
X364490Y825890D02*
Y833240D01*
Y825890D02*
X377450Y812930D01*
Y805180D02*
Y812930D01*
X338806Y772406D02*
Y779936D01*
X336530Y770130D02*
X338806Y772406D01*
X224351Y868241D02*
X236041D01*
X244056Y876256D01*
X220860Y864750D02*
X224351Y868241D01*
X244056Y876256D02*
X254520D01*
X256540Y878276D02*
Y903630D01*
X254520Y876256D02*
X256540Y878276D01*
X232280Y839730D02*
X238976D01*
X234950Y815950D02*
Y835704D01*
X238976Y839730D01*
X240030D01*
X222260Y849750D02*
X232280Y839730D01*
X209550Y849750D02*
X222260D01*
X202954Y852026D02*
X207274D01*
X209550Y849750D01*
X189230Y864750D02*
X190230D01*
X202954Y852026D01*
D78*
X342836Y818566D02*
X352476D01*
X353060Y819150D01*
X342636Y818766D02*
X342836Y818566D01*
X340360Y816490D02*
X342636Y818766D01*
X393700Y805180D02*
X409950D01*
D79*
X514000Y741300D02*
D03*
X16000Y258700D02*
D03*
D80*
X514000Y690500D02*
D03*
Y639700D02*
D03*
Y588900D02*
D03*
Y538100D02*
D03*
Y487300D02*
D03*
Y411100D02*
D03*
Y334900D02*
D03*
Y258700D02*
D03*
Y284100D02*
D03*
Y309500D02*
D03*
Y360300D02*
D03*
Y385700D02*
D03*
Y436500D02*
D03*
Y461900D02*
D03*
Y512700D02*
D03*
Y563500D02*
D03*
Y614300D02*
D03*
Y665100D02*
D03*
Y715900D02*
D03*
X16000Y284100D02*
D03*
Y309500D02*
D03*
Y334900D02*
D03*
Y360300D02*
D03*
Y385700D02*
D03*
Y411100D02*
D03*
Y436500D02*
D03*
Y461900D02*
D03*
Y487300D02*
D03*
Y512700D02*
D03*
Y538100D02*
D03*
Y563500D02*
D03*
Y588900D02*
D03*
Y614300D02*
D03*
Y639700D02*
D03*
Y665100D02*
D03*
Y690500D02*
D03*
Y715900D02*
D03*
Y741300D02*
D03*
D81*
X304650Y370000D02*
D03*
X119650D02*
D03*
X224650D02*
D03*
D82*
X230400Y919600D02*
D03*
X179600D02*
D03*
Y970400D02*
D03*
X230400D02*
D03*
X350400D02*
D03*
X299600D02*
D03*
Y919600D02*
D03*
X350400D02*
D03*
D83*
X205000Y945000D02*
D03*
X325000D02*
D03*
D84*
X470000D02*
D03*
X60000D02*
D03*
X470000Y55000D02*
D03*
X60000D02*
D03*
D85*
X411480Y340360D02*
D03*
X274320Y297180D02*
D03*
Y509270D02*
D03*
X321310Y262890D02*
D03*
X341630Y275590D02*
D03*
X41910Y896620D02*
D03*
X13970D02*
D03*
X389890Y537210D02*
D03*
X287020Y828040D02*
D03*
X311150Y826770D02*
D03*
X95250Y345440D02*
D03*
X344170Y612140D02*
D03*
X274320Y320040D02*
D03*
X308151Y470359D02*
D03*
X271780Y270510D02*
D03*
X434340Y458470D02*
D03*
X399926Y467305D02*
D03*
X228600Y453390D02*
D03*
X113030Y528320D02*
D03*
X356870Y435610D02*
D03*
X320040Y436880D02*
D03*
X267970Y439420D02*
D03*
X320040Y539750D02*
D03*
X166370Y278130D02*
D03*
X133350Y421640D02*
D03*
X115570Y424180D02*
D03*
X80010Y415290D02*
D03*
X195580Y894080D02*
D03*
X214630D02*
D03*
Y906780D02*
D03*
X195580Y881380D02*
D03*
X214630D02*
D03*
X340360Y880110D02*
D03*
X321310Y896620D02*
D03*
X330200Y887730D02*
D03*
X440721Y194279D02*
D03*
X130841Y276829D02*
D03*
X231171Y198089D02*
D03*
X144778Y497838D02*
D03*
X194308Y454658D02*
D03*
X83820Y283210D02*
D03*
X166401Y331439D02*
D03*
X152400Y332665D02*
D03*
X118110Y218440D02*
D03*
X139180Y262140D02*
D03*
X210820Y313690D02*
D03*
X346710Y330200D02*
D03*
X322580Y203200D02*
D03*
X393700Y421640D02*
D03*
X218440Y427990D02*
D03*
X353060Y339563D02*
D03*
X325224D02*
D03*
X383540Y339090D02*
D03*
X443230D02*
D03*
X472440Y339563D02*
D03*
X303760Y326160D02*
D03*
X390930Y313460D02*
D03*
X295390Y218960D02*
D03*
X143510Y204470D02*
D03*
X160051Y366999D02*
D03*
X102901Y194279D02*
D03*
X73691Y119349D02*
D03*
X290861Y143479D02*
D03*
X402621Y151099D02*
D03*
X462280Y116840D02*
D03*
X480091Y236189D02*
D03*
X477551Y273019D02*
D03*
X478821Y318739D02*
D03*
X256571Y328899D02*
D03*
X97821Y410179D02*
D03*
X152431Y482569D02*
D03*
X213391Y525749D02*
D03*
X354361Y509239D02*
D03*
X349281Y464789D02*
D03*
X434371Y311119D02*
D03*
X256540Y937260D02*
D03*
X346710Y897890D02*
D03*
X337820Y905510D02*
D03*
X316230Y906780D02*
D03*
X195580D02*
D03*
X110521Y921989D02*
D03*
X265461Y839439D02*
D03*
X299720Y890270D02*
D03*
X419131Y890239D02*
D03*
X478790Y858520D02*
D03*
X27971Y839439D02*
D03*
X31750Y388620D02*
D03*
X35591Y366999D02*
D03*
X30511Y593059D02*
D03*
X31781Y612109D02*
D03*
X45751Y636239D02*
D03*
X256571Y640049D02*
D03*
X217201Y618459D02*
D03*
X92741Y697199D02*
D03*
X297180Y595630D02*
D03*
X246380Y679450D02*
D03*
X426720Y695960D02*
D03*
X453390Y722630D02*
D03*
X426720Y749300D02*
D03*
X185890Y786600D02*
D03*
X397350Y857240D02*
D03*
X325120Y692150D02*
D03*
X375920Y668020D02*
D03*
X65890Y685950D02*
D03*
X205890Y686920D02*
D03*
X438150Y651510D02*
D03*
X259530Y692970D02*
D03*
X325530Y754790D02*
D03*
X347530Y754830D02*
D03*
X372110Y783590D02*
D03*
X466090Y805180D02*
D03*
X443230Y868680D02*
D03*
X219050Y796950D02*
D03*
X285750Y842010D02*
D03*
X269605Y813705D02*
D03*
X214630Y709930D02*
D03*
X267970Y474980D02*
D03*
X258572Y394970D02*
D03*
X341386Y435854D02*
D03*
X441960Y429260D02*
D03*
Y508110D02*
D03*
X452120Y501650D02*
D03*
X457200Y474980D02*
D03*
X443230Y472440D02*
D03*
X237490Y416560D02*
D03*
X407670Y408940D02*
D03*
X238760Y147320D02*
D03*
X95250Y318770D02*
D03*
X242190Y269240D02*
D03*
X271780Y242570D02*
D03*
X422910Y269240D02*
D03*
X270510Y534670D02*
D03*
X434340D02*
D03*
X499110Y180340D02*
D03*
X436880Y237490D02*
D03*
X77472Y496568D02*
D03*
X135890Y508000D02*
D03*
X76200Y474980D02*
D03*
X402590Y607060D02*
D03*
X353060Y819150D02*
D03*
X393700Y805180D02*
D03*
M02*
