G04*
G04 #@! TF.GenerationSoftware,Altium Limited,Altium Designer,23.0.1 (38)*
G04*
G04 Layer_Color=16711935*
%FSLAX44Y44*%
%MOMM*%
G71*
G04*
G04 #@! TF.SameCoordinates,B26DCD0B-EA3B-4DC6-9C7F-F6099DF497CD*
G04*
G04*
G04 #@! TF.FilePolarity,Negative*
G04*
G01*
G75*
%ADD64C,1.5700*%
%ADD65R,1.7632X1.7632*%
%ADD66C,1.7632*%
%ADD67C,2.7032*%
%ADD68R,1.5700X1.5700*%
%ADD69C,3.0000*%
%ADD70C,2.2532*%
%ADD71R,2.2532X2.2532*%
%ADD72C,6.2032*%
%ADD73C,0.8532*%
D64*
X386500Y89650D02*
D03*
Y119650D02*
D03*
X173500Y89650D02*
D03*
Y119650D02*
D03*
X280000D02*
D03*
X250000D02*
D03*
X280000Y89650D02*
D03*
X143500Y119650D02*
D03*
X356500D02*
D03*
D65*
X514000Y741300D02*
D03*
X16000Y258700D02*
D03*
D66*
X514000Y690500D02*
D03*
Y639700D02*
D03*
Y588900D02*
D03*
Y538100D02*
D03*
Y487300D02*
D03*
Y411100D02*
D03*
Y334900D02*
D03*
Y258700D02*
D03*
Y284100D02*
D03*
Y309500D02*
D03*
Y360300D02*
D03*
Y385700D02*
D03*
Y436500D02*
D03*
Y461900D02*
D03*
Y512700D02*
D03*
Y563500D02*
D03*
Y614300D02*
D03*
Y665100D02*
D03*
Y715900D02*
D03*
X16000Y284100D02*
D03*
Y309500D02*
D03*
Y334900D02*
D03*
Y360300D02*
D03*
Y385700D02*
D03*
Y411100D02*
D03*
Y436500D02*
D03*
Y461900D02*
D03*
Y487300D02*
D03*
Y512700D02*
D03*
Y538100D02*
D03*
Y563500D02*
D03*
Y588900D02*
D03*
Y614300D02*
D03*
Y639700D02*
D03*
Y665100D02*
D03*
Y690500D02*
D03*
Y715900D02*
D03*
Y741300D02*
D03*
D67*
X304650Y370000D02*
D03*
X119650D02*
D03*
X224650D02*
D03*
D68*
X250000Y89650D02*
D03*
X143500D02*
D03*
X356500D02*
D03*
D69*
X265000Y46450D02*
D03*
X158500D02*
D03*
X371500D02*
D03*
D70*
X230400Y919600D02*
D03*
X179600D02*
D03*
Y970400D02*
D03*
X230400D02*
D03*
X350400D02*
D03*
X299600D02*
D03*
Y919600D02*
D03*
X350400D02*
D03*
D71*
X205000Y945000D02*
D03*
X325000D02*
D03*
D72*
X470000D02*
D03*
X60000D02*
D03*
X470000Y55000D02*
D03*
X60000D02*
D03*
D73*
X411480Y340360D02*
D03*
X274320Y297180D02*
D03*
Y509270D02*
D03*
X321310Y262890D02*
D03*
X341630Y275590D02*
D03*
X41910Y896620D02*
D03*
X13970D02*
D03*
X389890Y537210D02*
D03*
X287020Y828040D02*
D03*
X311150Y826770D02*
D03*
X95250Y345440D02*
D03*
X344170Y612140D02*
D03*
X274320Y320040D02*
D03*
X308151Y470359D02*
D03*
X271780Y270510D02*
D03*
X434340Y458470D02*
D03*
X399926Y467305D02*
D03*
X228600Y453390D02*
D03*
X113030Y528320D02*
D03*
X356870Y435610D02*
D03*
X320040Y436880D02*
D03*
X267970Y439420D02*
D03*
X320040Y539750D02*
D03*
X166370Y278130D02*
D03*
X133350Y421640D02*
D03*
X115570Y424180D02*
D03*
X80010Y415290D02*
D03*
X195580Y894080D02*
D03*
X214630D02*
D03*
Y906780D02*
D03*
X195580Y881380D02*
D03*
X214630D02*
D03*
X340360Y880110D02*
D03*
X321310Y896620D02*
D03*
X330200Y887730D02*
D03*
X440721Y194279D02*
D03*
X130841Y276829D02*
D03*
X231171Y198089D02*
D03*
X144778Y497838D02*
D03*
X194308Y454658D02*
D03*
X83820Y283210D02*
D03*
X166401Y331439D02*
D03*
X152400Y332665D02*
D03*
X118110Y218440D02*
D03*
X139180Y262140D02*
D03*
X210820Y313690D02*
D03*
X346710Y330200D02*
D03*
X322580Y203200D02*
D03*
X393700Y421640D02*
D03*
X218440Y427990D02*
D03*
X353060Y339563D02*
D03*
X325224D02*
D03*
X383540Y339090D02*
D03*
X443230D02*
D03*
X472440Y339563D02*
D03*
X303760Y326160D02*
D03*
X390930Y313460D02*
D03*
X295390Y218960D02*
D03*
X143510Y204470D02*
D03*
X160051Y366999D02*
D03*
X102901Y194279D02*
D03*
X73691Y119349D02*
D03*
X290861Y143479D02*
D03*
X402621Y151099D02*
D03*
X462280Y116840D02*
D03*
X480091Y236189D02*
D03*
X477551Y273019D02*
D03*
X478821Y318739D02*
D03*
X256571Y328899D02*
D03*
X97821Y410179D02*
D03*
X152431Y482569D02*
D03*
X213391Y525749D02*
D03*
X354361Y509239D02*
D03*
X349281Y464789D02*
D03*
X434371Y311119D02*
D03*
X256540Y937260D02*
D03*
X346710Y897890D02*
D03*
X337820Y905510D02*
D03*
X316230Y906780D02*
D03*
X195580D02*
D03*
X110521Y921989D02*
D03*
X265461Y839439D02*
D03*
X299720Y890270D02*
D03*
X419131Y890239D02*
D03*
X478790Y858520D02*
D03*
X27971Y839439D02*
D03*
X31750Y388620D02*
D03*
X35591Y366999D02*
D03*
X30511Y593059D02*
D03*
X31781Y612109D02*
D03*
X45751Y636239D02*
D03*
X256571Y640049D02*
D03*
X217201Y618459D02*
D03*
X92741Y697199D02*
D03*
X297180Y595630D02*
D03*
X246380Y679450D02*
D03*
X426720Y695960D02*
D03*
X453390Y722630D02*
D03*
X426720Y749300D02*
D03*
X185890Y786600D02*
D03*
X397350Y857240D02*
D03*
X325120Y692150D02*
D03*
X375920Y668020D02*
D03*
X65890Y685950D02*
D03*
X205890Y686920D02*
D03*
X438150Y651510D02*
D03*
X259530Y692970D02*
D03*
X325530Y754790D02*
D03*
X347530Y754830D02*
D03*
X372110Y783590D02*
D03*
X466090Y805180D02*
D03*
X443230Y868680D02*
D03*
X219050Y796950D02*
D03*
X285750Y842010D02*
D03*
X269605Y813705D02*
D03*
X214630Y709930D02*
D03*
X267970Y474980D02*
D03*
X258572Y394970D02*
D03*
X341386Y435854D02*
D03*
X441960Y429260D02*
D03*
Y508110D02*
D03*
X452120Y501650D02*
D03*
X457200Y474980D02*
D03*
X443230Y472440D02*
D03*
X237490Y416560D02*
D03*
X407670Y408940D02*
D03*
X238760Y147320D02*
D03*
X95250Y318770D02*
D03*
X242190Y269240D02*
D03*
X271780Y242570D02*
D03*
X422910Y269240D02*
D03*
X270510Y534670D02*
D03*
X434340D02*
D03*
X499110Y180340D02*
D03*
X436880Y237490D02*
D03*
X77472Y496568D02*
D03*
X135890Y508000D02*
D03*
X76200Y474980D02*
D03*
X402590Y607060D02*
D03*
X353060Y819150D02*
D03*
X393700Y805180D02*
D03*
M02*
