G04*
G04 #@! TF.GenerationSoftware,Altium Limited,Altium Designer,23.0.1 (38)*
G04*
G04 Layer_Color=32896*
%FSLAX44Y44*%
%MOMM*%
G71*
G04*
G04 #@! TF.SameCoordinates,B26DCD0B-EA3B-4DC6-9C7F-F6099DF497CD*
G04*
G04*
G04 #@! TF.FilePolarity,Positive*
G04*
G01*
G75*
%ADD10C,0.2500*%
%ADD11C,0.2000*%
%ADD13C,0.1270*%
%ADD14C,0.2540*%
G36*
X164454Y790394D02*
X164545Y790303D01*
X164581Y753076D01*
X164617Y752823D01*
X164545Y752569D01*
X164454Y752514D01*
X164055Y752478D01*
X163946Y752514D01*
X163874Y752478D01*
X123113Y752496D01*
X122805Y752478D01*
X122551Y752514D01*
X122479Y752623D01*
X122443Y752768D01*
X122461Y758260D01*
X122497Y758369D01*
X122533Y758441D01*
X122714Y758514D01*
X158183Y758495D01*
X158437Y758532D01*
X158564Y758695D01*
X158600Y768047D01*
X158527Y768337D01*
X158473Y768391D01*
X127336Y768427D01*
X126973Y768464D01*
X126828Y768500D01*
X126738Y768590D01*
X126702Y774173D01*
X126738Y774318D01*
X126865Y774408D01*
X158219Y774445D01*
X158473Y774481D01*
X158564Y774571D01*
X158600Y783960D01*
X158527Y784250D01*
X158437Y784340D01*
X122732Y784377D01*
X122587Y784413D01*
X122497Y784503D01*
X122461Y790158D01*
X122497Y790303D01*
X122551Y790357D01*
X122678Y790412D01*
X147997Y790394D01*
X164055D01*
X164200Y790430D01*
X164454Y790394D01*
D02*
G37*
G36*
X210724Y790376D02*
X211051Y790339D01*
X211268Y790303D01*
X211449Y790267D01*
X212029Y790122D01*
X212446Y790067D01*
X212591Y790031D01*
X212972Y789868D01*
X213316Y789741D01*
X213606Y789669D01*
X213860Y789487D01*
X214150Y789379D01*
X214331Y789306D01*
X214440Y789197D01*
X214639Y789071D01*
X214875Y788980D01*
X215056Y788799D01*
X215310Y788654D01*
X215527Y788436D01*
X215600Y788400D01*
X215672Y788327D01*
X215745Y788291D01*
X216035Y788001D01*
X216107Y787965D01*
X216451Y787621D01*
X216488Y787548D01*
X216778Y787258D01*
X216814Y787186D01*
X216923Y787077D01*
X217176Y786751D01*
X217213Y786678D01*
X217321Y786606D01*
X217503Y786280D01*
X217575Y786207D01*
X217612Y786134D01*
X217684Y786062D01*
X217793Y785881D01*
X217901Y785627D01*
X217938Y785555D01*
X218065Y785428D01*
X218137Y785246D01*
X218191Y785047D01*
X218300Y784793D01*
X218391Y784703D01*
X218463Y784521D01*
X218536Y784159D01*
X218590Y783960D01*
X218681Y783760D01*
X218735Y783561D01*
X218808Y783380D01*
X218844Y782908D01*
X218880Y782800D01*
X218916Y782002D01*
X218953Y781893D01*
X218934Y776909D01*
X218898Y776402D01*
X218844Y775768D01*
X218808Y775514D01*
X218771Y775369D01*
X218681Y775061D01*
X218536Y774662D01*
X218481Y774354D01*
X218373Y774100D01*
X218336Y774028D01*
X218282Y773973D01*
X218119Y773520D01*
X218046Y773339D01*
X217974Y773267D01*
X217720Y772795D01*
X217684Y772723D01*
X217630Y772705D01*
X217575Y772614D01*
X217394Y772288D01*
X217213Y772107D01*
X217068Y771853D01*
X216778Y771563D01*
X216742Y771490D01*
X216415Y771164D01*
X216379Y771092D01*
X216288Y771001D01*
X216216Y770965D01*
X215890Y770639D01*
X215817Y770602D01*
X215618Y770403D01*
X215273Y770167D01*
X215201Y770131D01*
X215056Y769986D01*
X214802Y769841D01*
X214730Y769805D01*
X214621Y769696D01*
X214367Y769551D01*
X214186Y769479D01*
X213932Y769297D01*
X213425Y769116D01*
X213117Y768953D01*
X212881Y768862D01*
X212627Y768826D01*
X211993Y768627D01*
X211794Y768572D01*
X211685Y768536D01*
X210960Y768500D01*
X210851Y768464D01*
X189211Y768427D01*
X182759D01*
X182397Y768391D01*
X182089Y768300D01*
X181744Y768174D01*
X181599Y768137D01*
X181418Y768065D01*
X181309Y767956D01*
X181055Y767811D01*
X180602Y767358D01*
X180566Y767286D01*
X180494Y767213D01*
X180457Y767141D01*
X180385Y767104D01*
X180258Y766905D01*
X180167Y766669D01*
X179986Y766271D01*
X179914Y766089D01*
X179877Y761522D01*
X179914Y760942D01*
X179950Y760797D01*
X180113Y760417D01*
X180204Y760181D01*
X180312Y759927D01*
X180494Y759746D01*
X180602Y759565D01*
X180693Y759474D01*
X180765Y759438D01*
X181019Y759184D01*
X181273Y759039D01*
X181382Y758930D01*
X181581Y758804D01*
X181780Y758749D01*
X182034Y758677D01*
X182215Y758604D01*
X182360Y758568D01*
X182469Y758532D01*
X209872Y758495D01*
X210362Y758550D01*
X210543Y758586D01*
X210888Y758713D01*
X211178Y758785D01*
X211359Y758858D01*
X211467Y758967D01*
X211794Y759148D01*
X211848Y759202D01*
X211884Y759275D01*
X212011Y759402D01*
X212084Y759438D01*
X212247Y759637D01*
X212283Y759710D01*
X212464Y759891D01*
X212573Y760072D01*
X212863Y760688D01*
X212899Y761051D01*
X212936Y761305D01*
X212972Y761450D01*
X213026Y761504D01*
X218681Y761540D01*
X218826Y761504D01*
X218934Y761395D01*
X218916Y760544D01*
X218880Y760398D01*
X218844Y759927D01*
X218808Y759565D01*
X218735Y759311D01*
X218699Y759166D01*
X218608Y758967D01*
X218572Y758822D01*
X218481Y758441D01*
X218191Y757825D01*
X218155Y757680D01*
X218046Y757426D01*
X218010Y757354D01*
X217920Y757263D01*
X217738Y756864D01*
X217575Y756665D01*
X217430Y756411D01*
X217249Y756230D01*
X217104Y755976D01*
X217031Y755904D01*
X216995Y755831D01*
X216778Y755614D01*
X216742Y755541D01*
X216379Y755179D01*
X216343Y755106D01*
X216252Y755016D01*
X216180Y754979D01*
X215980Y754780D01*
X215781Y754617D01*
X215708Y754581D01*
X215491Y754363D01*
X215165Y754182D01*
X214984Y754001D01*
X214657Y753820D01*
X214585Y753783D01*
X214422Y753620D01*
X214077Y753493D01*
X213896Y753384D01*
X213570Y753203D01*
X213280Y753131D01*
X212899Y752931D01*
X212519Y752841D01*
X212265Y752804D01*
X212120Y752768D01*
X211703Y752641D01*
X211558Y752605D01*
X211141Y752551D01*
X211033Y752514D01*
X183629Y752478D01*
X182179Y752514D01*
X181599Y752551D01*
X181454Y752587D01*
X181200Y752623D01*
X180784Y752750D01*
X180367Y752841D01*
X180113Y752877D01*
X179787Y753022D01*
X179515Y753149D01*
X179279Y753203D01*
X179025Y753312D01*
X178772Y753493D01*
X178627Y753530D01*
X178446Y753602D01*
X178337Y753711D01*
X177866Y753964D01*
X177793Y754037D01*
X177467Y754291D01*
X177394Y754327D01*
X177213Y754508D01*
X177141Y754544D01*
X177068Y754617D01*
X176996Y754653D01*
X176742Y754907D01*
X176669Y754943D01*
X176434Y755179D01*
X176398Y755251D01*
X176071Y755577D01*
X176035Y755650D01*
X175926Y755759D01*
X175673Y756085D01*
X175636Y756158D01*
X175455Y756339D01*
X175274Y756665D01*
X175165Y756774D01*
X174984Y757100D01*
X174911Y757281D01*
X174839Y757354D01*
X174803Y757426D01*
X174748Y757480D01*
X174621Y757825D01*
X174531Y758061D01*
X174386Y758278D01*
X174295Y758659D01*
X174241Y758858D01*
X174205Y759003D01*
X174023Y759510D01*
X173987Y759692D01*
X173933Y760435D01*
X173897Y760544D01*
X173860Y765038D01*
X173897Y766162D01*
X173933Y766524D01*
X173969Y766996D01*
X174005Y767358D01*
X174132Y767775D01*
X174241Y768065D01*
X174277Y768210D01*
X174313Y768391D01*
X174368Y768627D01*
X174531Y768899D01*
X174730Y769461D01*
X174785Y769515D01*
X174966Y769805D01*
X175056Y770040D01*
X175201Y770185D01*
X175383Y770512D01*
X175564Y770693D01*
X175709Y770947D01*
X175781Y771019D01*
X175818Y771092D01*
X176035Y771309D01*
X176071Y771382D01*
X176434Y771744D01*
X176470Y771817D01*
X176524Y771871D01*
X176597Y771907D01*
X176887Y772197D01*
X176959Y772233D01*
X177032Y772306D01*
X177104Y772342D01*
X177267Y772505D01*
X177612Y772741D01*
X177684Y772777D01*
X177739Y772831D01*
X177775Y772904D01*
X178156Y773103D01*
X178228Y773176D01*
X178301Y773212D01*
X178391Y773303D01*
X178572Y773375D01*
X178808Y773466D01*
X178862Y773520D01*
X179152Y773701D01*
X179297Y773738D01*
X179533Y773792D01*
X179805Y773955D01*
X179986Y774028D01*
X180167Y774064D01*
X180476Y774118D01*
X180620Y774155D01*
X180820Y774209D01*
X181055Y774299D01*
X181164Y774336D01*
X181527Y774372D01*
X181635Y774408D01*
X209872Y774445D01*
X210452Y774481D01*
X210742Y774553D01*
X210942Y774644D01*
X211286Y774771D01*
X211467Y774843D01*
X211558Y774934D01*
X211757Y775097D01*
X211830Y775133D01*
X212120Y775423D01*
X212283Y775623D01*
X212374Y775750D01*
X212446Y775786D01*
X212791Y776456D01*
X212863Y776637D01*
X212899Y776746D01*
X212936Y781531D01*
X212899Y782002D01*
X212827Y782256D01*
X212700Y782492D01*
X212609Y782727D01*
X212500Y782981D01*
X212301Y783180D01*
X212156Y783398D01*
X212084Y783434D01*
X212011Y783506D01*
X211939Y783543D01*
X211921Y783597D01*
X211830Y783688D01*
X211431Y783905D01*
X211377Y783960D01*
X211087Y784141D01*
X210543Y784250D01*
X210235Y784304D01*
X210126Y784340D01*
X182668Y784322D01*
X182451Y784286D01*
X182270Y784250D01*
X181672Y784123D01*
X181454Y783978D01*
X181055Y783760D01*
X181001Y783706D01*
X180965Y783633D01*
X180874Y783543D01*
X180802Y783506D01*
X180639Y783343D01*
X180530Y783162D01*
X180294Y782927D01*
X180204Y782691D01*
X179950Y782147D01*
X179914Y781857D01*
X179877Y781495D01*
X179787Y781404D01*
X174132Y781368D01*
X173969Y781422D01*
X173878Y781549D01*
X173897Y782220D01*
X173933Y782474D01*
X173969Y782945D01*
X174005Y783307D01*
X174132Y783724D01*
X174241Y784014D01*
X174277Y784159D01*
X174331Y784431D01*
X174476Y784757D01*
X174621Y785011D01*
X174694Y785301D01*
X174839Y785518D01*
X175093Y785990D01*
X175129Y786062D01*
X175201Y786134D01*
X175383Y786461D01*
X175509Y786588D01*
X175673Y786787D01*
X175709Y786860D01*
X175926Y787077D01*
X175963Y787149D01*
X176035Y787222D01*
X176071Y787294D01*
X176742Y787965D01*
X176814Y788001D01*
X177014Y788201D01*
X177213Y788364D01*
X177286Y788400D01*
X177431Y788545D01*
X177684Y788726D01*
X177757Y788763D01*
X177902Y788907D01*
X178156Y789052D01*
X178337Y789125D01*
X178446Y789234D01*
X178572Y789324D01*
X178917Y789451D01*
X179170Y789632D01*
X179461Y789741D01*
X179750Y789814D01*
X179950Y789904D01*
X180167Y790013D01*
X180312Y790049D01*
X180784Y790122D01*
X180965Y790158D01*
X181255Y790230D01*
X181490Y790285D01*
X181599Y790321D01*
X182034Y790357D01*
X182143Y790394D01*
X210724Y790376D01*
D02*
G37*
G36*
X139733Y739248D02*
X139823Y739157D01*
X139860Y737381D01*
X139896Y737236D01*
X139860Y736982D01*
X139823Y736837D01*
X139769Y736783D01*
X136434Y736747D01*
X135637D01*
X135456Y736674D01*
X135383Y736493D01*
X135347Y719203D01*
X135220Y719112D01*
X135075Y719076D01*
X133389Y719094D01*
X133244Y719058D01*
X132954Y719130D01*
X132864Y719293D01*
X132882Y719602D01*
X132864Y737925D01*
X132900Y738287D01*
X132864Y738396D01*
X132900Y738650D01*
X132864Y738758D01*
X132900Y739121D01*
X132991Y739212D01*
X133118Y739266D01*
X139334Y739248D01*
X139479Y739284D01*
X139733Y739248D01*
D02*
G37*
G36*
X143539Y721740D02*
X143630Y721613D01*
X143666Y719330D01*
X143630Y719185D01*
X143575Y719130D01*
X141400Y719094D01*
X141255Y719130D01*
X141165Y719221D01*
X141128Y721359D01*
X141201Y721649D01*
X141328Y721776D01*
X141618Y721813D01*
X141654D01*
X141817Y721794D01*
X143285Y721813D01*
X143539Y721740D01*
D02*
G37*
G36*
X211576Y739248D02*
X212084Y739175D01*
X212283Y739121D01*
X212573Y739012D01*
X212990Y738922D01*
X213135Y738885D01*
X213389Y738777D01*
X213588Y738650D01*
X213824Y738559D01*
X214005Y738487D01*
X214114Y738378D01*
X214512Y738160D01*
X214694Y737979D01*
X214875Y737870D01*
X215201Y737544D01*
X215273Y737508D01*
X215328Y737454D01*
X215364Y737381D01*
X215690Y737055D01*
X215727Y736982D01*
X215944Y736765D01*
X216125Y736439D01*
X216180Y736384D01*
X216343Y736185D01*
X216379Y736112D01*
X216524Y735750D01*
X216597Y735677D01*
X216723Y735478D01*
X216778Y735242D01*
X216814Y735097D01*
X216959Y734771D01*
X216995Y734626D01*
X217068Y734445D01*
X217104Y733938D01*
X217140Y733829D01*
X217176Y725709D01*
X217140Y725021D01*
X217104Y724223D01*
X217068Y723969D01*
X216995Y723679D01*
X216905Y723480D01*
X216832Y723299D01*
X216742Y722918D01*
X216669Y722737D01*
X216597Y722664D01*
X216506Y722538D01*
X216415Y722302D01*
X216343Y722121D01*
X216198Y721976D01*
X216017Y721649D01*
X215763Y721396D01*
X215727Y721323D01*
X215437Y721033D01*
X215346Y720906D01*
X215273Y720870D01*
X215038Y720635D01*
X214839Y720471D01*
X214766Y720435D01*
X214548Y720218D01*
X214222Y720036D01*
X214150Y720000D01*
X214077Y719928D01*
X213824Y719783D01*
X213497Y719638D01*
X213370Y719547D01*
X213189Y719475D01*
X212954Y719420D01*
X212809Y719384D01*
X212500Y719293D01*
X212319Y719221D01*
X212120Y719166D01*
X212011Y719130D01*
X198926Y719094D01*
X198346Y719130D01*
X198092Y719166D01*
X197838Y719239D01*
X197603Y719330D01*
X197313Y719402D01*
X197077Y719456D01*
X196823Y719529D01*
X196751Y719602D01*
X196678Y719638D01*
X196624Y719692D01*
X196388Y719783D01*
X196135Y719891D01*
X195990Y720036D01*
X195663Y720218D01*
X195591Y720254D01*
X195573Y720308D01*
X195518Y720363D01*
X195337Y720471D01*
X195011Y720798D01*
X194938Y720834D01*
X194848Y720925D01*
X194811Y720997D01*
X194522Y721287D01*
X194485Y721359D01*
X194231Y721613D01*
X194087Y721867D01*
X194050Y721939D01*
X193942Y722048D01*
X193815Y722248D01*
X193760Y722447D01*
X193615Y722664D01*
X193489Y722864D01*
X193452Y723009D01*
X193398Y723244D01*
X193271Y723552D01*
X193199Y723734D01*
X193126Y724024D01*
X193072Y724731D01*
X193035Y724984D01*
X193072Y725238D01*
X193162Y725329D01*
X195301Y725365D01*
X195446Y725329D01*
X195536Y725202D01*
X195573Y724731D01*
X195609Y724477D01*
X195772Y724096D01*
X195863Y723861D01*
X195899Y723716D01*
X195971Y723534D01*
X196080Y723426D01*
X196261Y723099D01*
X196515Y722846D01*
X196551Y722773D01*
X196714Y722610D01*
X196787Y722574D01*
X197005Y722356D01*
X197403Y722139D01*
X197458Y722084D01*
X197748Y721903D01*
X197983Y721849D01*
X198128Y721813D01*
X198454Y721668D01*
X198781Y721631D01*
X198889Y721595D01*
X210344Y721559D01*
X211033Y721595D01*
X211504Y721631D01*
X211794Y721704D01*
X212047Y721813D01*
X212337Y721885D01*
X212591Y721958D01*
X212700Y722066D01*
X213099Y722284D01*
X213171Y722320D01*
X213225Y722411D01*
X213425Y722574D01*
X213497Y722610D01*
X213552Y722664D01*
X213588Y722737D01*
X213660Y722809D01*
X213697Y722882D01*
X213751Y722900D01*
X213878Y723027D01*
X213914Y723099D01*
X214077Y723371D01*
X214240Y723571D01*
X214422Y724078D01*
X214548Y724314D01*
X214603Y724513D01*
X214639Y724622D01*
X214675Y733031D01*
X214639Y733503D01*
X214603Y733865D01*
X214422Y734264D01*
X214349Y734445D01*
X214313Y734590D01*
X214240Y734771D01*
X214204Y734844D01*
X214095Y734952D01*
X213914Y735279D01*
X213624Y735569D01*
X213588Y735641D01*
X213534Y735695D01*
X213352Y735804D01*
X213135Y736022D01*
X212736Y736239D01*
X212664Y736275D01*
X212591Y736348D01*
X212464Y736439D01*
X212229Y736493D01*
X212084Y736529D01*
X211830Y736602D01*
X211649Y736674D01*
X211395Y736711D01*
X211286Y736747D01*
X199868Y736783D01*
X199071Y736747D01*
X198563Y736674D01*
X198328Y736584D01*
X197947Y736493D01*
X197802Y736457D01*
X197621Y736384D01*
X197548Y736312D01*
X197077Y736058D01*
X196823Y735804D01*
X196751Y735768D01*
X196624Y735641D01*
X196588Y735569D01*
X196443Y735424D01*
X196425Y735406D01*
X196388Y735369D01*
X196153Y735025D01*
X196116Y734952D01*
X196044Y734880D01*
X195953Y734753D01*
X195863Y734518D01*
X195826Y734372D01*
X195609Y733901D01*
X195573Y733321D01*
X195500Y733067D01*
X195355Y732995D01*
X193960Y733013D01*
X193380Y732977D01*
X193126Y733049D01*
X193035Y733213D01*
X193053Y733484D01*
X193090Y733883D01*
X193126Y734318D01*
X193180Y734554D01*
X193380Y735043D01*
X193416Y735188D01*
X193470Y735424D01*
X193543Y735605D01*
X193615Y735677D01*
X193760Y735931D01*
X193869Y736185D01*
X193905Y736257D01*
X194014Y736366D01*
X194195Y736692D01*
X194449Y736946D01*
X194485Y737019D01*
X194775Y737309D01*
X194811Y737381D01*
X194938Y737508D01*
X195011Y737544D01*
X195210Y737744D01*
X195410Y737907D01*
X195482Y737943D01*
X195663Y738124D01*
X195845Y738233D01*
X196026Y738305D01*
X196080Y738360D01*
X196280Y738523D01*
X196461Y738595D01*
X196696Y738686D01*
X196986Y738867D01*
X197131Y738904D01*
X197367Y738958D01*
X197512Y738994D01*
X197711Y739048D01*
X197856Y739085D01*
X198038Y739157D01*
X198382Y739212D01*
X198491Y739248D01*
X209691Y739284D01*
X211576Y739248D01*
D02*
G37*
G36*
X166846D02*
X166991Y739212D01*
X167082Y739121D01*
X167118Y731255D01*
X167082Y730893D01*
X167154Y730603D01*
X167245Y730512D01*
X167372Y730458D01*
X185097Y730421D01*
X185296Y730440D01*
X185478Y730512D01*
X185586Y730693D01*
X185623Y730875D01*
X185605Y738976D01*
X185641Y739121D01*
X185768Y739212D01*
X187761Y739248D01*
X188015Y739212D01*
X188106Y739121D01*
X188142Y737526D01*
Y737490D01*
Y719620D01*
X188178Y719475D01*
X188142Y719221D01*
X188015Y719130D01*
X185985Y719094D01*
X185731Y719130D01*
X185586Y719312D01*
X185605Y727304D01*
X185641Y727413D01*
X185605Y727667D01*
X185387Y727848D01*
X185079Y727902D01*
X184970Y727866D01*
X167734Y727884D01*
X167390Y727866D01*
X167209Y727794D01*
X167118Y727667D01*
X167082Y727413D01*
X167118Y727304D01*
X167100Y719746D01*
X167118Y719257D01*
X166991Y719130D01*
X164816Y719094D01*
X164671Y719130D01*
X164617Y719185D01*
X164581Y738867D01*
X164617Y739121D01*
X164708Y739212D01*
X166520Y739248D01*
X166629Y739284D01*
X166846Y739248D01*
D02*
G37*
G36*
X154196Y739212D02*
X154286Y739121D01*
X154341Y738994D01*
X154323Y737562D01*
X154359Y737200D01*
X154323Y736946D01*
X154123Y736783D01*
X150136Y736747D01*
X149991Y736711D01*
X149882Y736529D01*
X149846Y719819D01*
X149864Y719257D01*
X149701Y719130D01*
X147562Y719094D01*
X147381Y719166D01*
X147309Y719239D01*
X147272Y719384D01*
X147290Y736402D01*
Y736439D01*
Y738940D01*
X147327Y739085D01*
X147454Y739212D01*
X153942Y739248D01*
X154196Y739212D01*
D02*
G37*
G36*
X365594Y818957D02*
X365847Y818848D01*
X366971Y818812D01*
X367080Y818848D01*
X367297Y818812D01*
X367460Y818758D01*
X367750Y818649D01*
X367932Y818613D01*
X368856Y818631D01*
X369110Y818595D01*
X369309Y818540D01*
X369490Y818504D01*
X369980Y818522D01*
X370360Y818359D01*
X371303Y818323D01*
X371720Y818268D01*
X371828Y818232D01*
X371937Y818268D01*
X372191Y818232D01*
X372372Y818159D01*
X372843Y818123D01*
X373061Y817978D01*
X373387Y817942D01*
X373641Y817906D01*
X373786Y817870D01*
X374039Y817761D01*
X374293Y817725D01*
X374402Y817761D01*
X374583Y817725D01*
X374782Y817634D01*
X374982Y817580D01*
X375598Y817507D01*
X375906Y817380D01*
X376323Y817326D01*
X376504Y817253D01*
X376830Y817217D01*
X376975Y817181D01*
X377229Y817072D01*
X377555Y816891D01*
X378063Y816855D01*
X378371Y816764D01*
X378733Y816619D01*
X378878Y816583D01*
X379060Y816546D01*
X379513Y816492D01*
X379767Y816383D01*
X379839Y816347D01*
X379893Y816293D01*
X380075Y816220D01*
X380220Y816184D01*
X380528Y816130D01*
X380800Y815966D01*
X381035Y815876D01*
X381180Y815840D01*
X381434Y815803D01*
X381688Y815695D01*
X381887Y815568D01*
X382195Y815513D01*
X382340Y815477D01*
X382594Y815368D01*
X382666Y815332D01*
X382757Y815242D01*
X382938Y815169D01*
X383174Y815115D01*
X383482Y815024D01*
X383844Y814879D01*
X384261Y814789D01*
X384442Y814716D01*
X384551Y814607D01*
X384878Y814426D01*
X385331Y814190D01*
X385711Y814100D01*
X385965Y814027D01*
X386219Y813846D01*
X386400Y813773D01*
X386690Y813701D01*
X386853Y813610D01*
X386889Y813538D01*
X387071Y813429D01*
X387215Y813393D01*
X387415Y813339D01*
X387687Y813175D01*
X388031Y813049D01*
X388212Y812976D01*
X388357Y812831D01*
X388557Y812704D01*
X388756Y812650D01*
X389028Y812487D01*
X389318Y812378D01*
X389553Y812324D01*
X389644Y812233D01*
X389735Y812106D01*
X389988Y811961D01*
X390206Y811816D01*
X390387Y811707D01*
X390750Y811562D01*
X390822Y811490D01*
X390949Y811399D01*
X391185Y811309D01*
X391366Y811236D01*
X391583Y811019D01*
X392236Y810656D01*
X392381Y810620D01*
X392508Y810493D01*
X392961Y810185D01*
X393033Y810149D01*
X393142Y810040D01*
X393686Y809750D01*
X394084Y809532D01*
X394302Y809315D01*
X394628Y809134D01*
X394701Y809098D01*
X394773Y809025D01*
X394954Y808916D01*
X395136Y808844D01*
X395262Y808717D01*
X395462Y808554D01*
X395534Y808518D01*
X395788Y808264D01*
X396042Y808119D01*
X396114Y808083D01*
X396259Y807938D01*
X396513Y807793D01*
X396803Y807503D01*
X397129Y807321D01*
X397202Y807285D01*
X397274Y807213D01*
X397347Y807176D01*
X397419Y807104D01*
X397492Y807068D01*
X397782Y806778D01*
X397854Y806741D01*
X398017Y806615D01*
X398217Y806451D01*
X398289Y806415D01*
X398398Y806307D01*
X398724Y806053D01*
X398869Y805835D01*
X399195Y805654D01*
X399268Y805618D01*
X399449Y805436D01*
X399522Y805400D01*
X399594Y805328D01*
X399667Y805292D01*
X399685Y805237D01*
X399957Y804965D01*
X400029Y804929D01*
X400102Y804857D01*
X400355Y804712D01*
X400518Y804548D01*
X400555Y804476D01*
X401334Y803697D01*
X401407Y803660D01*
X401497Y803570D01*
X401533Y803497D01*
X401733Y803298D01*
X401805Y803262D01*
X402059Y803080D01*
X402132Y803044D01*
X402548Y802627D01*
X402585Y802555D01*
X402784Y802355D01*
X402856Y802319D01*
X403273Y801902D01*
X403310Y801830D01*
X403455Y801685D01*
X403636Y801431D01*
X403672Y801359D01*
X403726Y801304D01*
X403799Y801268D01*
X403962Y801105D01*
X403998Y801032D01*
X404125Y800906D01*
X404343Y800869D01*
X404524Y800942D01*
X404596Y800978D01*
X404778Y801159D01*
X405430Y801522D01*
X405684Y801630D01*
X405756Y801667D01*
X405865Y801776D01*
X406264Y801993D01*
X406445Y802102D01*
X406699Y802247D01*
X406952Y802355D01*
X407025Y802428D01*
X407496Y802682D01*
X407641Y802827D01*
X408692Y803370D01*
X408765Y803407D01*
X408837Y803515D01*
X409091Y803660D01*
X409345Y803769D01*
X409599Y803950D01*
X409743Y803987D01*
X410015Y804150D01*
X410305Y804331D01*
X410505Y804385D01*
X410722Y804603D01*
X410976Y804748D01*
X411121Y804784D01*
X411338Y804929D01*
X411592Y805074D01*
X411665Y805110D01*
X411719Y805165D01*
X411918Y805328D01*
X411991Y805364D01*
X412353Y805509D01*
X412426Y805582D01*
X412498Y805618D01*
X412553Y805672D01*
X412952Y805817D01*
X413151Y805980D01*
X413477Y806161D01*
X413550Y806198D01*
X413658Y806307D01*
X413785Y806397D01*
X414184Y806542D01*
X414401Y806687D01*
X414637Y806778D01*
X414945Y807086D01*
X415289Y807213D01*
X415543Y807394D01*
X415616Y807430D01*
X415978Y807575D01*
X416051Y807611D01*
X416159Y807720D01*
X416413Y807865D01*
X416486Y807901D01*
X416667Y808083D01*
X416957Y808191D01*
X417102Y808228D01*
X417356Y808409D01*
X417682Y808590D01*
X417754Y808626D01*
X417918Y808789D01*
X418262Y808916D01*
X418443Y808989D01*
X418697Y809170D01*
X419132Y809206D01*
X419240Y809243D01*
X421198Y809279D01*
X421669Y809134D01*
X422467Y808771D01*
X422539Y808735D01*
X422811Y808463D01*
X423010Y808300D01*
X423318Y808137D01*
X423536Y807738D01*
X423663Y807611D01*
X423898Y807267D01*
X423935Y807195D01*
X423989Y807140D01*
X424170Y806850D01*
X424225Y806651D01*
X424279Y806597D01*
X424442Y806397D01*
X424623Y806071D01*
X424660Y805998D01*
X424732Y805926D01*
X425022Y805382D01*
X425167Y805128D01*
X425239Y804875D01*
X425330Y804784D01*
X425457Y804693D01*
X425602Y804440D01*
X425856Y803896D01*
X425928Y803715D01*
X426091Y803552D01*
X426255Y803352D01*
X426291Y803171D01*
X426255Y803026D01*
X426091Y802899D01*
X426019Y802863D01*
X425874Y802718D01*
X425620Y802537D01*
X425548Y802500D01*
X425384Y802374D01*
X425149Y802283D01*
X424968Y802210D01*
X424895Y802174D01*
X424786Y802066D01*
X424587Y801939D01*
X424351Y801848D01*
X424134Y801703D01*
X423808Y801522D01*
X423409Y801268D01*
X423264Y801232D01*
X423010Y801123D01*
X422793Y800906D01*
X422467Y800724D01*
X422394Y800688D01*
X422340Y800634D01*
X422050Y800525D01*
X421850Y800471D01*
X421633Y800253D01*
X421307Y800072D01*
X420690Y799746D01*
X420618Y799709D01*
X420491Y799583D01*
X420255Y799492D01*
X420074Y799419D01*
X420002Y799383D01*
X419893Y799274D01*
X419712Y799166D01*
X419458Y798984D01*
X419385Y798948D01*
X419331Y798894D01*
X419150Y798821D01*
X418914Y798767D01*
X418733Y798694D01*
X418679Y798640D01*
X418642Y798568D01*
X418552Y798477D01*
X418153Y798259D01*
X417899Y798114D01*
X417754Y798078D01*
X417501Y797897D01*
X417247Y797752D01*
X417011Y797661D01*
X416812Y797498D01*
X416558Y797353D01*
X416159Y797100D01*
X416014Y797063D01*
X415761Y796954D01*
X415688Y796882D01*
X415616Y796846D01*
X415543Y796773D01*
X415289Y796628D01*
X415000Y796447D01*
X414710Y796338D01*
X414528Y796266D01*
X414438Y796175D01*
X414401Y796103D01*
X414166Y795976D01*
X413984Y795903D01*
X413912Y795831D01*
X413586Y795650D01*
X413405Y795577D01*
X413332Y795505D01*
X413006Y795323D01*
X412752Y795251D01*
X412553Y795051D01*
X412263Y794870D01*
X412045Y794725D01*
X411701Y794598D01*
X411520Y794526D01*
X411375Y794381D01*
X410976Y794163D01*
X410904Y794127D01*
X410777Y794000D01*
X410541Y793910D01*
X410360Y793837D01*
X410287Y793801D01*
X410142Y793656D01*
X410070Y793620D01*
X409707Y793475D01*
X409599Y793366D01*
X409200Y793148D01*
X409091Y793040D01*
X409019Y793003D01*
X408964Y792949D01*
X408765Y792895D01*
X408439Y792750D01*
X408112Y792496D01*
X407605Y792206D01*
X407424Y792133D01*
X407242Y792025D01*
X406989Y791844D01*
X406844Y791807D01*
X406372Y791481D01*
X406227Y791445D01*
X406010Y791300D01*
X405883Y791209D01*
X405430Y791046D01*
X405249Y790865D01*
X405176Y790829D01*
X404886Y790647D01*
X404560Y790466D01*
X404234Y790321D01*
X404161Y790285D01*
X404089Y790212D01*
X403618Y789959D01*
X403509Y789850D01*
X403038Y789596D01*
X402838Y789469D01*
X402657Y789397D01*
X402458Y789342D01*
X402240Y789125D01*
X402113Y789034D01*
X401878Y788944D01*
X401624Y788763D01*
X401479Y788726D01*
X401298Y788654D01*
X401008Y788473D01*
X400790Y788545D01*
X400736Y788599D01*
X400392Y788726D01*
X400011Y788926D01*
X399775Y789016D01*
X399522Y789125D01*
X399377Y789270D01*
X399250Y789361D01*
X399050Y789415D01*
X398724Y789560D01*
X398670Y789614D01*
X398434Y789705D01*
X398253Y789777D01*
X398072Y789886D01*
X397383Y790249D01*
X397129Y790394D01*
X396948Y790466D01*
X396803Y790502D01*
X396586Y790647D01*
X396513Y790684D01*
X396259Y790792D01*
X396114Y790829D01*
X396006Y790937D01*
X395879Y791028D01*
X395661Y791137D01*
X395462Y791191D01*
X395190Y791354D01*
X394846Y791481D01*
X394664Y791554D01*
X394556Y791662D01*
X394302Y791807D01*
X393776Y792079D01*
X393305Y792260D01*
X393015Y792442D01*
X392780Y792532D01*
X392598Y792605D01*
X392490Y792713D01*
X392290Y792840D01*
X392091Y792895D01*
X391910Y792967D01*
X391601Y793130D01*
X391257Y793257D01*
X391112Y793402D01*
X391040Y793438D01*
X390985Y793493D01*
X390695Y793602D01*
X390514Y793674D01*
X390297Y793819D01*
X389825Y794000D01*
X389626Y794163D01*
X389336Y794272D01*
X389155Y794345D01*
X389082Y794417D01*
X388756Y794598D01*
X388502Y794671D01*
X388230Y794834D01*
X387995Y794925D01*
X387741Y795033D01*
X387542Y795233D01*
X387089Y795396D01*
X386817Y795559D01*
X386581Y795650D01*
X386400Y795722D01*
X386146Y795903D01*
X386074Y795940D01*
X385675Y796121D01*
X385602Y796157D01*
X385512Y796248D01*
X385059Y796411D01*
X384787Y796574D01*
X384551Y796665D01*
X384297Y796773D01*
X384189Y796882D01*
X384062Y796973D01*
X383826Y797063D01*
X383210Y797353D01*
X383065Y797390D01*
X382884Y797462D01*
X382775Y797571D01*
X382449Y797752D01*
X382268Y797824D01*
X382050Y797969D01*
X381869Y798042D01*
X381398Y798259D01*
X381216Y798368D01*
X381035Y798441D01*
X380836Y798531D01*
X380636Y798694D01*
X380238Y798839D01*
X379857Y799039D01*
X379622Y799129D01*
X379440Y799202D01*
X379368Y799238D01*
X379259Y799347D01*
X379005Y799492D01*
X378389Y799782D01*
X377990Y799963D01*
X377592Y800181D01*
X377410Y800253D01*
X377157Y800434D01*
X376867Y800543D01*
X376250Y800833D01*
X375997Y800942D01*
X375924Y800978D01*
X375761Y801141D01*
X375526Y801232D01*
X375344Y801304D01*
X375036Y801467D01*
X374800Y801558D01*
X374547Y801667D01*
X374293Y801848D01*
X374112Y801920D01*
X373876Y802047D01*
X373659Y802192D01*
X373459Y802247D01*
X373061Y802428D01*
X372861Y802555D01*
X372662Y802609D01*
X372281Y802881D01*
X372046Y802972D01*
X371865Y803044D01*
X371556Y803207D01*
X371212Y803334D01*
X370849Y803588D01*
X370777Y803624D01*
X370469Y803751D01*
X370251Y803896D01*
X370016Y803987D01*
X369871Y804023D01*
X369617Y804132D01*
X369545Y804204D01*
X369363Y804313D01*
X369110Y804422D01*
X369037Y804458D01*
X368965Y804530D01*
X368838Y804621D01*
X368602Y804712D01*
X368457Y804748D01*
X368276Y804820D01*
X368185Y804911D01*
X367895Y805020D01*
X367660Y805110D01*
X367605Y805165D01*
X367388Y805310D01*
X367152Y805400D01*
X366898Y805473D01*
X366645Y805618D01*
X366518Y805672D01*
X366282Y805726D01*
X366083Y805781D01*
X365702Y805872D01*
X365322Y806035D01*
X365177Y806071D01*
X364959Y806107D01*
X364778Y806143D01*
X364633Y806180D01*
X364452Y806216D01*
X363781Y806198D01*
X363382Y806379D01*
X362549Y806415D01*
X362186Y806379D01*
X361860Y806234D01*
X361606Y806198D01*
X361135Y806234D01*
X360990Y806198D01*
X360827Y806143D01*
X360555Y806089D01*
X360193Y806053D01*
X359921Y805890D01*
X359613Y805835D01*
X358888Y805618D01*
X358725Y805527D01*
X358543Y805455D01*
X358308Y805400D01*
X358126Y805328D01*
X357873Y805146D01*
X357691Y805074D01*
X357547Y805038D01*
X356930Y804748D01*
X356785Y804712D01*
X356532Y804603D01*
X356459Y804567D01*
X356368Y804476D01*
X355861Y804222D01*
X355644Y804077D01*
X355462Y804005D01*
X355317Y803969D01*
X355136Y803896D01*
X354774Y803679D01*
X354574Y803624D01*
X354320Y803443D01*
X354067Y803298D01*
X353596Y803080D01*
X353469Y803026D01*
X353233Y802935D01*
X353052Y802863D01*
X352943Y802754D01*
X352689Y802609D01*
X352454Y802519D01*
X352164Y802337D01*
X351928Y802247D01*
X351674Y802174D01*
X351620Y802120D01*
X351403Y801975D01*
X351058Y801848D01*
X350986Y801776D01*
X350913Y801739D01*
X350822Y801649D01*
X350587Y801558D01*
X349989Y801286D01*
X349645Y801159D01*
X349590Y801105D01*
X349391Y800942D01*
X349318Y800906D01*
X349300Y800887D01*
X349028Y800797D01*
X348811Y800652D01*
X348684Y800597D01*
X348448Y800507D01*
X348195Y800434D01*
X348086Y800326D01*
X348013Y800289D01*
X347959Y800235D01*
X347723Y800144D01*
X347542Y800072D01*
X347470Y799999D01*
X347216Y799854D01*
X347071Y799818D01*
X346817Y799709D01*
X346527Y799528D01*
X346382Y799492D01*
X346128Y799383D01*
X346020Y799274D01*
X345893Y799184D01*
X345657Y799093D01*
X345277Y798894D01*
X344823Y798731D01*
X344606Y798586D01*
X343990Y798259D01*
X343736Y798114D01*
X343591Y798078D01*
X343265Y797933D01*
X343174Y797843D01*
X342939Y797752D01*
X342685Y797643D01*
X342631Y797589D01*
X342341Y797408D01*
X342105Y797317D01*
X341797Y797154D01*
X341452Y797027D01*
X341271Y796954D01*
X341181Y796864D01*
X340891Y796683D01*
X340691Y796628D01*
X340401Y796447D01*
X340329Y796411D01*
X340148Y796338D01*
X339821Y796193D01*
X339495Y796012D01*
X339241Y795903D01*
X339169Y795867D01*
X339096Y795795D01*
X338969Y795704D01*
X338788Y795631D01*
X338589Y795577D01*
X338317Y795414D01*
X337864Y795251D01*
X337719Y795106D01*
X337393Y794925D01*
X337139Y794816D01*
X337066Y794780D01*
X337012Y794725D01*
X336559Y794562D01*
X336378Y794490D01*
X336305Y794417D01*
X336233Y794381D01*
X336178Y794326D01*
X335943Y794236D01*
X335761Y794163D01*
X335689Y794091D01*
X335562Y794000D01*
X335218Y793873D01*
X334765Y793638D01*
X334529Y793547D01*
X334348Y793475D01*
X334257Y793384D01*
X333967Y793203D01*
X333768Y793148D01*
X333550Y793003D01*
X333424Y792949D01*
X332971Y792786D01*
X332898Y792713D01*
X332499Y792496D01*
X332300Y792405D01*
X332082Y792260D01*
X331738Y792133D01*
X331539Y792043D01*
X331321Y791898D01*
X331086Y791807D01*
X330904Y791735D01*
X330796Y791626D01*
X330542Y791481D01*
X330089Y791282D01*
X329871Y791173D01*
X329672Y791119D01*
X329491Y791046D01*
X329382Y790937D01*
X329056Y790756D01*
X328874Y790684D01*
X328603Y790520D01*
X328367Y790430D01*
X328041Y790285D01*
X327642Y790067D01*
X327461Y789995D01*
X327406Y789940D01*
X327189Y789796D01*
X327008Y789723D01*
X326808Y789669D01*
X326536Y789506D01*
X326083Y789342D01*
X325993Y789252D01*
X325793Y789089D01*
X325503Y788980D01*
X325322Y788907D01*
X325068Y788763D01*
X324742Y788617D01*
X324670Y788581D01*
X324651Y788527D01*
X324561Y788473D01*
X324380Y788436D01*
X324235Y788581D01*
X323909Y788763D01*
X323691Y788907D01*
X323564Y788962D01*
X323329Y789052D01*
X323274Y789107D01*
X323184Y789234D01*
X322930Y789379D01*
X322169Y789741D01*
X321915Y789922D01*
X321589Y790104D01*
X321407Y790176D01*
X321299Y790285D01*
X320682Y790611D01*
X320628Y790666D01*
X320447Y790738D01*
X320247Y790792D01*
X319957Y791082D01*
X319885Y791119D01*
X319051Y791517D01*
X318906Y791662D01*
X318580Y791844D01*
X318399Y791916D01*
X318326Y791952D01*
X318254Y792025D01*
X317783Y792279D01*
X317710Y792315D01*
X317619Y792405D01*
X317384Y792496D01*
X317130Y792605D01*
X316894Y792840D01*
X316659Y792931D01*
X316278Y793130D01*
X316043Y793221D01*
X315825Y793438D01*
X315571Y793584D01*
X315318Y793692D01*
X314919Y793910D01*
X314738Y794018D01*
X314611Y794109D01*
X314103Y794363D01*
X313886Y794544D01*
X313234Y794870D01*
X312998Y794961D01*
X312835Y795124D01*
X312799Y795197D01*
X312672Y795287D01*
X312563Y795323D01*
X312019Y795577D01*
X311838Y795650D01*
X311747Y795740D01*
X311548Y795903D01*
X311421Y795958D01*
X311185Y796048D01*
X311022Y796139D01*
X310823Y796302D01*
X310207Y796628D01*
X309953Y796737D01*
X309881Y796773D01*
X309736Y796918D01*
X309536Y797045D01*
X309300Y797136D01*
X309029Y797299D01*
X308793Y797390D01*
X308521Y797661D01*
X308286Y797752D01*
X308104Y797824D01*
X307887Y797969D01*
X307488Y798187D01*
X307416Y798223D01*
X307325Y798314D01*
X307089Y798404D01*
X306908Y798477D01*
X306836Y798513D01*
X306691Y798658D01*
X305712Y799166D01*
X305585Y799293D01*
X305549Y799365D01*
X305494Y799383D01*
X305422Y799456D01*
X305277Y799492D01*
X305023Y799601D01*
X304552Y799854D01*
X304335Y799999D01*
X304008Y800181D01*
X303827Y800253D01*
X303718Y800362D01*
X303247Y800615D01*
X302848Y800833D01*
X302595Y800942D01*
X302414Y801123D01*
X301870Y801413D01*
X301471Y801630D01*
X301399Y801667D01*
X301254Y801812D01*
X301127Y801866D01*
X300891Y801957D01*
X300674Y802102D01*
X300130Y802392D01*
X299659Y802645D01*
X299586Y802682D01*
X299387Y802881D01*
X299260Y803080D01*
X299278Y803243D01*
X299459Y803425D01*
X299677Y803823D01*
X299749Y803896D01*
X299785Y803969D01*
X299840Y804023D01*
X299967Y804367D01*
X300039Y804548D01*
X300075Y804621D01*
X300166Y804712D01*
X300347Y805002D01*
X300510Y805201D01*
X300565Y805328D01*
X300655Y805563D01*
X300800Y805781D01*
X300891Y805908D01*
X300982Y806143D01*
X301054Y806325D01*
X301108Y806379D01*
X301181Y806415D01*
X301272Y806542D01*
X301670Y807303D01*
X301743Y807376D01*
X301779Y807448D01*
X301852Y807521D01*
X301960Y807702D01*
X302667Y808409D01*
X302993Y808590D01*
X303084Y808681D01*
X303283Y808844D01*
X303428Y808880D01*
X303827Y809061D01*
X304117Y809170D01*
X304262Y809206D01*
X304371Y809243D01*
X306220Y809279D01*
X306473Y809243D01*
X306727Y809170D01*
X306963Y809079D01*
X307307Y808953D01*
X307597Y808880D01*
X307778Y808808D01*
X307996Y808590D01*
X308177Y808481D01*
X308431Y808300D01*
X308503Y808264D01*
X308902Y808083D01*
X308974Y808010D01*
X309228Y807865D01*
X309482Y807756D01*
X309554Y807720D01*
X309699Y807575D01*
X310460Y807176D01*
X310606Y807140D01*
X310859Y806886D01*
X311040Y806778D01*
X311729Y806451D01*
X312200Y806125D01*
X312345Y806089D01*
X312418Y806016D01*
X312490Y805980D01*
X312527Y805908D01*
X312654Y805817D01*
X312889Y805726D01*
X313143Y805618D01*
X313469Y805436D01*
X313687Y805292D01*
X313759Y805255D01*
X313832Y805183D01*
X314448Y804857D01*
X314846Y804639D01*
X314919Y804603D01*
X314991Y804530D01*
X315318Y804349D01*
X315499Y804277D01*
X315571Y804240D01*
X315680Y804132D01*
X315934Y803987D01*
X316079Y803950D01*
X316333Y803769D01*
X316586Y803624D01*
X316677Y803533D01*
X316967Y803352D01*
X317166Y803298D01*
X317384Y803153D01*
X317710Y802972D01*
X317964Y802863D01*
X318073Y802754D01*
X318254Y802645D01*
X318507Y802464D01*
X318834Y802283D01*
X319196Y802174D01*
X319251Y802120D01*
X319450Y801957D01*
X319704Y801812D01*
X319776Y801776D01*
X319885Y801667D01*
X320356Y801413D01*
X320555Y801286D01*
X320700Y801250D01*
X320936Y801159D01*
X321027Y801069D01*
X321063Y800996D01*
X321117Y800942D01*
X321299Y800869D01*
X321444Y800906D01*
X321534Y800996D01*
X321571Y801069D01*
X322060Y801558D01*
X322132Y801594D01*
X322187Y801649D01*
X322223Y801721D01*
X322549Y802047D01*
X322585Y802120D01*
X322640Y802174D01*
X322712Y802210D01*
X322785Y802283D01*
X322857Y802319D01*
X322912Y802374D01*
X322948Y802446D01*
X323002Y802500D01*
X323129Y802591D01*
X323165Y802663D01*
X323274Y802772D01*
X323310Y802845D01*
X323365Y802899D01*
X323437Y802935D01*
X323800Y803298D01*
X323872Y803334D01*
X323890Y803389D01*
X323963Y803461D01*
X324053Y803588D01*
X324126Y803624D01*
X324217Y803715D01*
X324253Y803787D01*
X324325Y803860D01*
X324525Y804023D01*
X324597Y804059D01*
X324688Y804150D01*
X324887Y804313D01*
X324960Y804349D01*
X325250Y804639D01*
X325322Y804675D01*
X325902Y805255D01*
X326228Y805436D01*
X326772Y805980D01*
X327026Y806125D01*
X327098Y806161D01*
X327570Y806633D01*
X327696Y806723D01*
X327932Y806814D01*
X328095Y806977D01*
X328131Y807049D01*
X328331Y807213D01*
X328403Y807249D01*
X328476Y807321D01*
X328729Y807466D01*
X328983Y807575D01*
X329074Y807666D01*
X329110Y807738D01*
X329237Y807865D01*
X329309Y807901D01*
X329454Y808046D01*
X329781Y808228D01*
X329853Y808300D01*
X329926Y808336D01*
X329998Y808409D01*
X330071Y808445D01*
X330143Y808518D01*
X330216Y808554D01*
X330433Y808771D01*
X330759Y808953D01*
X330832Y809025D01*
X331231Y809243D01*
X331412Y809315D01*
X331521Y809424D01*
X331774Y809605D01*
X331847Y809641D01*
X331992Y809786D01*
X332391Y810004D01*
X332463Y810040D01*
X332536Y810113D01*
X332789Y810257D01*
X332952Y810348D01*
X332989Y810421D01*
X333079Y810511D01*
X333260Y810620D01*
X333405Y810656D01*
X333587Y810729D01*
X333695Y810837D01*
X333949Y810983D01*
X334130Y811055D01*
X334312Y811236D01*
X334638Y811417D01*
X334910Y811581D01*
X335109Y811635D01*
X335290Y811707D01*
X335363Y811744D01*
X335381Y811798D01*
X335508Y811925D01*
X336305Y812360D01*
X336559Y812432D01*
X336831Y812596D01*
X337066Y812686D01*
X337248Y812759D01*
X337356Y812867D01*
X337429Y812904D01*
X337520Y812994D01*
X337755Y813085D01*
X338371Y813375D01*
X338734Y813484D01*
X338843Y813592D01*
X339314Y813846D01*
X339368Y813900D01*
X339604Y813991D01*
X339749Y814027D01*
X340003Y814100D01*
X340238Y814190D01*
X340456Y814335D01*
X340691Y814426D01*
X340836Y814462D01*
X341017Y814535D01*
X341072Y814589D01*
X341362Y814770D01*
X341598Y814825D01*
X341742Y814861D01*
X342069Y815006D01*
X342304Y815097D01*
X342649Y815151D01*
X342939Y815223D01*
X343084Y815368D01*
X343210Y815459D01*
X343591Y815550D01*
X343972Y815749D01*
X344389Y815840D01*
X344642Y815876D01*
X345168Y816112D01*
X345404Y816166D01*
X345657Y816238D01*
X345984Y816456D01*
X346273Y816492D01*
X346708Y816565D01*
X346908Y816619D01*
X347143Y816710D01*
X347325Y816782D01*
X347470Y816818D01*
X347723Y816855D01*
X347868Y816891D01*
X348050Y816963D01*
X348485Y817000D01*
X348539Y817054D01*
X348756Y817199D01*
X348901Y817235D01*
X349228Y817271D01*
X349536Y817326D01*
X349717Y817398D01*
X350224Y817507D01*
X350424Y817561D01*
X350804Y817616D01*
X350949Y817652D01*
X351131Y817725D01*
X351493Y817761D01*
X351747Y817870D01*
X352291Y817906D01*
X352490Y817960D01*
X352726Y818051D01*
X352979Y818087D01*
X353124Y818123D01*
X353306Y818196D01*
X353414Y818232D01*
X354103Y818268D01*
X354212Y818305D01*
X355118Y818341D01*
X355589Y818486D01*
X355698Y818522D01*
X356024Y818486D01*
X356278Y818522D01*
X356459Y818595D01*
X357510Y818631D01*
X357619Y818595D01*
X357981Y818631D01*
X358199Y818776D01*
X359576Y818812D01*
X359866Y818885D01*
X360048Y818957D01*
X365231Y818993D01*
X365594Y818957D01*
D02*
G37*
G36*
X363817Y802102D02*
X364071Y801993D01*
X364289Y801957D01*
X364542Y801920D01*
X364687Y801884D01*
X364941Y801776D01*
X364995Y801721D01*
X365177Y801649D01*
X365467Y801540D01*
X365612Y801504D01*
X365811Y801449D01*
X366047Y801322D01*
X366282Y801232D01*
X366536Y801123D01*
X366645Y801014D01*
X366898Y800869D01*
X367225Y800724D01*
X367297Y800688D01*
X367352Y800634D01*
X367587Y800543D01*
X367732Y800507D01*
X367986Y800398D01*
X368058Y800326D01*
X368602Y800036D01*
X368801Y799909D01*
X369255Y799746D01*
X369472Y799601D01*
X369599Y799546D01*
X369943Y799419D01*
X369998Y799365D01*
X370197Y799202D01*
X370324Y799147D01*
X370614Y799039D01*
X370831Y798894D01*
X371067Y798803D01*
X371212Y798767D01*
X371393Y798694D01*
X371502Y798586D01*
X371756Y798441D01*
X371991Y798350D01*
X372281Y798169D01*
X372517Y798078D01*
X372916Y797897D01*
X373169Y797752D01*
X373423Y797643D01*
X373496Y797571D01*
X373822Y797390D01*
X374438Y797100D01*
X374583Y797063D01*
X374764Y796991D01*
X374837Y796954D01*
X374945Y796846D01*
X375018Y796809D01*
X375072Y796755D01*
X375308Y796665D01*
X375562Y796556D01*
X375816Y796411D01*
X375997Y796338D01*
X376142Y796302D01*
X376359Y796157D01*
X376613Y796012D01*
X376758Y795976D01*
X376975Y795831D01*
X377175Y795704D01*
X377410Y795613D01*
X377664Y795505D01*
X377918Y795360D01*
X378063Y795323D01*
X378244Y795251D01*
X378389Y795106D01*
X378462Y795070D01*
X378516Y795015D01*
X378915Y794870D01*
X379277Y794653D01*
X379422Y794616D01*
X379622Y794562D01*
X379839Y794417D01*
X380383Y794127D01*
X380582Y794000D01*
X380818Y793910D01*
X381506Y793584D01*
X381688Y793511D01*
X381796Y793402D01*
X381996Y793275D01*
X382340Y793148D01*
X382612Y792985D01*
X382956Y792859D01*
X383138Y792786D01*
X383210Y792750D01*
X383283Y792677D01*
X383609Y792496D01*
X383862Y792387D01*
X384062Y792260D01*
X384297Y792170D01*
X384624Y792025D01*
X384950Y791844D01*
X385204Y791735D01*
X385276Y791662D01*
X385476Y791535D01*
X385820Y791409D01*
X386092Y791245D01*
X386436Y791119D01*
X386617Y791046D01*
X386726Y790937D01*
X386926Y790810D01*
X387161Y790720D01*
X387542Y790520D01*
X387886Y790394D01*
X388140Y790249D01*
X388339Y790122D01*
X388539Y790067D01*
X388756Y789922D01*
X389082Y789741D01*
X389680Y789469D01*
X390025Y789342D01*
X390170Y789197D01*
X390242Y789161D01*
X390297Y789107D01*
X390641Y788980D01*
X391021Y788781D01*
X391257Y788690D01*
X391511Y788581D01*
X391583Y788509D01*
X391656Y788473D01*
X391710Y788418D01*
X391946Y788327D01*
X392127Y788255D01*
X392200Y788183D01*
X392272Y788146D01*
X392326Y788092D01*
X392671Y787965D01*
X392997Y787820D01*
X393051Y787766D01*
X393233Y787693D01*
X393468Y787602D01*
X393523Y787548D01*
X393722Y787385D01*
X393795Y787349D01*
X393976Y787276D01*
X394121Y787240D01*
X394501Y787041D01*
X394846Y786914D01*
X395208Y786660D01*
X395498Y786551D01*
X395679Y786443D01*
X395752Y786406D01*
X395806Y786352D01*
X396042Y786261D01*
X396803Y785899D01*
X396984Y785826D01*
X397057Y785754D01*
X397256Y785627D01*
X397601Y785500D01*
X397981Y785301D01*
X398325Y785174D01*
X398398Y785101D01*
X398470Y785065D01*
X398543Y784993D01*
X398724Y784884D01*
X398887Y784721D01*
X398923Y741767D01*
X398851Y741477D01*
X398779Y741296D01*
X398742Y740861D01*
X398597Y740535D01*
X398561Y740462D01*
X398507Y740408D01*
X398380Y740063D01*
X398307Y739882D01*
X398253Y739828D01*
X398108Y739610D01*
X398054Y739411D01*
X397927Y739284D01*
X397854Y739248D01*
X397691Y739085D01*
X397601Y738958D01*
X397528Y738922D01*
X397474Y738867D01*
X397437Y738795D01*
X397238Y738595D01*
X397165Y738559D01*
X397039Y738432D01*
X397002Y738360D01*
X396857Y738251D01*
X396658Y738197D01*
X396513Y738160D01*
X396368Y738015D01*
X396114Y737870D01*
X395969Y737834D01*
X395861Y737725D01*
X395607Y737544D01*
X395462Y737508D01*
X395281Y737435D01*
X395027Y737290D01*
X394628Y737145D01*
X394411Y737001D01*
X394084Y736819D01*
X393939Y736783D01*
X393867Y736711D01*
X393541Y736529D01*
X393359Y736457D01*
X393106Y736348D01*
X393033Y736312D01*
X392979Y736257D01*
X392526Y736094D01*
X392381Y735949D01*
X392308Y735913D01*
X392254Y735859D01*
X391801Y735695D01*
X391493Y735532D01*
X391257Y735442D01*
X391076Y735369D01*
X390967Y735261D01*
X390895Y735224D01*
X390840Y735170D01*
X390605Y735079D01*
X390405Y734989D01*
X390188Y734844D01*
X389952Y734753D01*
X389626Y734608D01*
X389300Y734427D01*
X389046Y734318D01*
X388974Y734282D01*
X388901Y734209D01*
X388774Y734119D01*
X388321Y733956D01*
X388013Y733792D01*
X387669Y733666D01*
X387524Y733521D01*
X387451Y733484D01*
X387397Y733430D01*
X386926Y733249D01*
X386708Y733104D01*
X386255Y732941D01*
X385856Y732687D01*
X385711Y732651D01*
X385494Y732506D01*
X385294Y732379D01*
X385113Y732306D01*
X384878Y732252D01*
X384588Y732071D01*
X384515Y732035D01*
X384152Y731889D01*
X384098Y731835D01*
X383899Y731672D01*
X383446Y731509D01*
X383228Y731364D01*
X383047Y731291D01*
X382848Y731237D01*
X382630Y731092D01*
X382014Y730766D01*
X381688Y730585D01*
X381543Y730548D01*
X381361Y730476D01*
X380963Y730258D01*
X380709Y730150D01*
X380600Y730041D01*
X380473Y729950D01*
X380129Y729823D01*
X379676Y729588D01*
X379477Y729533D01*
X379295Y729461D01*
X379187Y729352D01*
X378860Y729171D01*
X378625Y729080D01*
X378407Y728935D01*
X378063Y728808D01*
X377882Y728736D01*
X377265Y728410D01*
X377175Y728319D01*
X376957Y728174D01*
X376758Y728120D01*
X376087Y727812D01*
X375888Y727757D01*
X375743Y727612D01*
X375417Y727431D01*
X374728Y727105D01*
X374511Y727068D01*
X374293Y726924D01*
X373894Y726706D01*
X373568Y726488D01*
X373061Y726307D01*
X372789Y726144D01*
X372553Y726054D01*
X372372Y725981D01*
X372173Y725782D01*
X371991Y725709D01*
X371756Y725619D01*
X371448Y725455D01*
X371212Y725365D01*
X370958Y725292D01*
X370849Y725184D01*
X370523Y725002D01*
X370270Y724894D01*
X370143Y724767D01*
X369961Y724694D01*
X369762Y724640D01*
X369581Y724567D01*
X369363Y724422D01*
X369291Y724386D01*
X368928Y724241D01*
X368729Y724042D01*
X368276Y723879D01*
X367968Y723716D01*
X367732Y723625D01*
X367551Y723552D01*
X367478Y723516D01*
X367370Y723408D01*
X367188Y723299D01*
X366427Y722936D01*
X366174Y722864D01*
X365992Y722755D01*
X365666Y722574D01*
X365485Y722501D01*
X365412Y722465D01*
X365249Y722302D01*
X364796Y722139D01*
X364488Y721976D01*
X364252Y721885D01*
X364071Y721813D01*
X363872Y721613D01*
X363636Y721523D01*
X363237Y721341D01*
X362984Y721196D01*
X362585Y721160D01*
X362440Y721196D01*
X361751Y721523D01*
X361570Y721595D01*
X361461Y721704D01*
X361262Y721831D01*
X361026Y721921D01*
X360845Y721994D01*
X360773Y722030D01*
X360718Y722084D01*
X360156Y722284D01*
X360048Y722393D01*
X359431Y722719D01*
X359105Y722900D01*
X358960Y722936D01*
X358707Y723045D01*
X358308Y723262D01*
X358163Y723299D01*
X358090Y723371D01*
X358018Y723408D01*
X357909Y723516D01*
X357547Y723661D01*
X357293Y723770D01*
X357238Y723824D01*
X356785Y723988D01*
X356622Y724078D01*
X356405Y724259D01*
X356042Y724404D01*
X355825Y724549D01*
X355644Y724622D01*
X355444Y724676D01*
X355263Y724749D01*
X355190Y724821D01*
X354937Y724966D01*
X354683Y725075D01*
X354610Y725111D01*
X354447Y725274D01*
X354212Y725365D01*
X354067Y725401D01*
X353650Y725601D01*
X353414Y725691D01*
X353233Y725764D01*
X353142Y725854D01*
X352943Y726017D01*
X352907D01*
X352726Y726090D01*
X352272Y726325D01*
X352073Y726380D01*
X351819Y726488D01*
X351747Y726525D01*
X351656Y726615D01*
X351149Y726869D01*
X350931Y727014D01*
X350696Y727105D01*
X350152Y727358D01*
X349790Y727504D01*
X349590Y727703D01*
X349137Y727866D01*
X348865Y728029D01*
X348521Y728156D01*
X348340Y728228D01*
X348285Y728283D01*
X347995Y728464D01*
X347760Y728555D01*
X347506Y728736D01*
X347270Y728827D01*
X347035Y728881D01*
X346781Y729062D01*
X346708Y729098D01*
X346527Y729171D01*
X346273Y729280D01*
X346110Y729443D01*
X345766Y729570D01*
X345385Y729769D01*
X345150Y729860D01*
X344842Y729986D01*
X344805Y730059D01*
X344678Y730150D01*
X344606Y730186D01*
X343845Y730548D01*
X343482Y730657D01*
X343410Y730730D01*
X342794Y731056D01*
X342721Y731092D01*
X342631Y731183D01*
X342286Y731310D01*
X341906Y731509D01*
X341452Y731672D01*
X341217Y731908D01*
X340981Y731998D01*
X340564Y732198D01*
X340220Y732325D01*
X340039Y732397D01*
X339966Y732469D01*
X339767Y732596D01*
X339423Y732723D01*
X339169Y732904D01*
X339042Y732959D01*
X338698Y733086D01*
X338426Y733249D01*
X338245Y733321D01*
X338009Y733412D01*
X337954Y733466D01*
X337755Y733629D01*
X337393Y733774D01*
X337085Y733938D01*
X336740Y734064D01*
X336559Y734137D01*
X336450Y734246D01*
X336269Y734354D01*
X335798Y734572D01*
X335598Y734699D01*
X335399Y734753D01*
X335218Y734826D01*
X334855Y735043D01*
X334674Y735116D01*
X334475Y735206D01*
X334275Y735369D01*
X333913Y735514D01*
X333605Y735677D01*
X333152Y735841D01*
X333007Y735985D01*
X332753Y736131D01*
X332064Y736457D01*
X331919Y736493D01*
X331738Y736565D01*
X331484Y736747D01*
X331412Y736783D01*
X331049Y736928D01*
X330977Y737001D01*
X330904Y737037D01*
X330850Y737091D01*
X330614Y737182D01*
X329781Y737580D01*
X329599Y737762D01*
X329527Y737798D01*
X329473Y737852D01*
X329237Y737943D01*
X328965Y738142D01*
X328729Y738233D01*
X328548Y738305D01*
X328367Y738559D01*
X328294Y738595D01*
X328113Y738777D01*
X328041Y738813D01*
X327968Y738885D01*
X327896Y738922D01*
X327769Y739048D01*
X327733Y739121D01*
X327515Y739339D01*
X327334Y739665D01*
X327261Y739737D01*
X327080Y740063D01*
X327044Y740208D01*
X326899Y740426D01*
X326772Y740625D01*
X326718Y740861D01*
X326627Y741169D01*
X326591Y741386D01*
X326555Y741568D01*
X326500Y741767D01*
X326464Y741876D01*
X326482Y784123D01*
X326464Y784685D01*
X326591Y784811D01*
X326663Y784848D01*
X326736Y784920D01*
X326808Y784956D01*
X326917Y785065D01*
X326990Y785101D01*
X327044Y785156D01*
X327280Y785246D01*
X327660Y785446D01*
X328113Y785609D01*
X328276Y785699D01*
X328476Y785863D01*
X328657Y785935D01*
X328911Y786044D01*
X329110Y786171D01*
X329346Y786261D01*
X329599Y786370D01*
X329998Y786588D01*
X330252Y786696D01*
X330306Y786751D01*
X330524Y786896D01*
X330868Y787023D01*
X331140Y787186D01*
X331484Y787312D01*
X331665Y787385D01*
X331774Y787494D01*
X331901Y787584D01*
X332137Y787675D01*
X332318Y787747D01*
X332536Y787893D01*
X332934Y788037D01*
X333170Y788164D01*
X333387Y788309D01*
X333587Y788364D01*
X333949Y788617D01*
X334239Y788726D01*
X334565Y788871D01*
X334620Y788926D01*
X335073Y789089D01*
X335218Y789234D01*
X335290Y789270D01*
X335345Y789324D01*
X335526Y789397D01*
X335725Y789451D01*
X336015Y789632D01*
X336523Y789814D01*
X336595Y789886D01*
X336668Y789922D01*
X336758Y790013D01*
X337103Y790140D01*
X337375Y790339D01*
X337610Y790430D01*
X338299Y790756D01*
X338553Y790865D01*
X338625Y790901D01*
X338698Y790974D01*
X338951Y791119D01*
X339549Y791390D01*
X339894Y791517D01*
X340256Y791771D01*
X340329Y791807D01*
X340728Y791989D01*
X340800Y792025D01*
X340854Y792079D01*
X341090Y792170D01*
X341416Y792315D01*
X341670Y792460D01*
X342051Y792623D01*
X342250Y792786D01*
X342540Y792895D01*
X343156Y793185D01*
X343410Y793294D01*
X343482Y793330D01*
X343555Y793402D01*
X343881Y793584D01*
X344117Y793674D01*
X344334Y793819D01*
X344570Y793910D01*
X344896Y794055D01*
X345222Y794236D01*
X345476Y794345D01*
X345549Y794381D01*
X345621Y794453D01*
X345875Y794598D01*
X346128Y794671D01*
X346509Y794870D01*
X346853Y794997D01*
X346998Y795142D01*
X347198Y795269D01*
X347597Y795414D01*
X347814Y795559D01*
X348158Y795686D01*
X348340Y795758D01*
X348412Y795831D01*
X348485Y795867D01*
X348539Y795921D01*
X348720Y795994D01*
X348956Y796085D01*
X349010Y796139D01*
X349300Y796320D01*
X349500Y796375D01*
X349953Y796610D01*
X350188Y796701D01*
X350369Y796773D01*
X350569Y796973D01*
X350913Y797100D01*
X351167Y797208D01*
X351221Y797263D01*
X351566Y797390D01*
X351747Y797462D01*
X351856Y797571D01*
X352109Y797716D01*
X352508Y797897D01*
X352834Y798078D01*
X352979Y798114D01*
X353179Y798205D01*
X353396Y798350D01*
X353632Y798441D01*
X353813Y798513D01*
X353904Y798604D01*
X354121Y798749D01*
X354320Y798803D01*
X354574Y798912D01*
X354828Y799057D01*
X355190Y799202D01*
X355263Y799238D01*
X355426Y799401D01*
X355607Y799474D01*
X355843Y799564D01*
X356115Y799727D01*
X356296Y799800D01*
X356532Y799891D01*
X356713Y799999D01*
X356785Y800036D01*
X356840Y800090D01*
X357075Y800181D01*
X357257Y800253D01*
X357329Y800289D01*
X357402Y800362D01*
X357528Y800452D01*
X357981Y800615D01*
X358235Y800760D01*
X358308Y800797D01*
X358489Y800869D01*
X358634Y800906D01*
X358815Y801087D01*
X358888Y801123D01*
X358942Y801177D01*
X359123Y801250D01*
X359323Y801304D01*
X359468Y801340D01*
X359939Y801558D01*
X360229Y801594D01*
X360555Y801739D01*
X360809Y801884D01*
X361099Y801920D01*
X361353Y801957D01*
X361733Y802120D01*
X363201Y802102D01*
X363672Y802138D01*
X363817Y802102D01*
D02*
G37*
G36*
X232727Y790339D02*
X232763Y790267D01*
X233053Y789977D01*
X233089Y789904D01*
X233252Y789632D01*
X233325Y789596D01*
X233379Y789506D01*
X233524Y789252D01*
X233561Y789179D01*
X233706Y789034D01*
X233850Y788781D01*
X234068Y788563D01*
X234213Y788309D01*
X234249Y788237D01*
X234431Y788056D01*
X234576Y787802D01*
X234612Y787729D01*
X234720Y787621D01*
X234902Y787367D01*
X234938Y787294D01*
X235083Y787149D01*
X235264Y786823D01*
X235391Y786696D01*
X235627Y786352D01*
X235663Y786280D01*
X235717Y786261D01*
X235772Y786207D01*
X235953Y785881D01*
X236134Y785699D01*
X236315Y785373D01*
X236497Y785192D01*
X236642Y784938D01*
X236823Y784757D01*
X237004Y784431D01*
X237149Y784286D01*
X237330Y783960D01*
X237548Y783742D01*
X237693Y783488D01*
X237747Y783434D01*
X237910Y783235D01*
X238055Y782981D01*
X238092Y782908D01*
X238200Y782800D01*
X238382Y782546D01*
X238418Y782474D01*
X238563Y782328D01*
X238708Y782075D01*
X238780Y782002D01*
X238817Y781930D01*
X238962Y781785D01*
X238998Y781712D01*
X239161Y781440D01*
X239233Y781404D01*
X239433Y781096D01*
X239469Y781023D01*
X239650Y780842D01*
X239795Y780589D01*
X239831Y780516D01*
X239976Y780371D01*
X240121Y780117D01*
X240303Y779936D01*
X240484Y779610D01*
X240665Y779429D01*
X240846Y779102D01*
X241028Y778921D01*
X241173Y778667D01*
X241354Y778486D01*
X241535Y778160D01*
X241716Y777979D01*
X241861Y777725D01*
X241898Y777653D01*
X242079Y777471D01*
X242224Y777217D01*
X242369Y777073D01*
X242550Y776746D01*
X242677Y776619D01*
X242913Y776275D01*
X242949Y776203D01*
X243094Y776058D01*
X243239Y775804D01*
X243293Y775750D01*
X243456Y775550D01*
X243601Y775296D01*
X243728Y775170D01*
X243964Y774825D01*
X244000Y774753D01*
X244054Y774698D01*
X244127Y774662D01*
X244181Y774571D01*
X244326Y774318D01*
X244362Y774245D01*
X244507Y774100D01*
X244652Y773847D01*
X244870Y773629D01*
X245015Y773375D01*
X245051Y773303D01*
X245196Y773158D01*
X245377Y772831D01*
X245559Y772650D01*
X245704Y772397D01*
X245885Y772215D01*
X246066Y771889D01*
X246247Y771708D01*
X246392Y771454D01*
X246429Y771382D01*
X246537Y771273D01*
X246719Y771019D01*
X246755Y770947D01*
X246900Y770802D01*
X247081Y770475D01*
X247208Y770349D01*
X247444Y770004D01*
X247480Y769932D01*
X247589Y769859D01*
X247770Y769533D01*
X247951Y769352D01*
X248132Y769025D01*
X248313Y768844D01*
X248458Y768590D01*
X248549Y768500D01*
X248712Y768300D01*
X248857Y768047D01*
X248893Y767974D01*
X249038Y767829D01*
X249183Y767576D01*
X249401Y767358D01*
X249546Y767104D01*
X249582Y767032D01*
X249727Y766887D01*
X249908Y766561D01*
X250090Y766379D01*
X250235Y766126D01*
X250416Y765944D01*
X250597Y765618D01*
X250778Y765437D01*
X250923Y765183D01*
X250959Y765111D01*
X251014Y765056D01*
X251086Y765020D01*
X251250Y764748D01*
X251286Y764676D01*
X251467Y764494D01*
X251612Y764241D01*
X251648Y764168D01*
X251793Y764023D01*
X251938Y763770D01*
X252156Y763552D01*
X252301Y763298D01*
X252337Y763226D01*
X252482Y763081D01*
X252663Y762755D01*
X252844Y762573D01*
X252989Y762320D01*
X253171Y762138D01*
X253352Y761812D01*
X253406Y761758D01*
X253569Y761558D01*
X253714Y761305D01*
X253841Y761178D01*
X254023Y760888D01*
X254149Y760797D01*
X254312Y760815D01*
X254439Y760942D01*
X254476Y761015D01*
X254548Y761087D01*
X254675Y761286D01*
X254820Y761504D01*
X254892Y761540D01*
X255092Y761848D01*
X255128Y761921D01*
X255273Y762066D01*
X255454Y762392D01*
X255636Y762573D01*
X255781Y762827D01*
X255962Y763008D01*
X256143Y763335D01*
X256324Y763516D01*
X256469Y763770D01*
X256506Y763842D01*
X256614Y763951D01*
X256795Y764204D01*
X256832Y764277D01*
X257013Y764458D01*
X257158Y764712D01*
X257194Y764784D01*
X257285Y764875D01*
X257520Y765219D01*
X257557Y765292D01*
X257665Y765401D01*
X257847Y765654D01*
X257883Y765727D01*
X258028Y765872D01*
X258209Y766198D01*
X258336Y766325D01*
X258572Y766669D01*
X258608Y766742D01*
X258717Y766814D01*
X258898Y767141D01*
X258952Y767195D01*
X259115Y767394D01*
X259260Y767648D01*
X259442Y767829D01*
X259587Y768083D01*
X259677Y768174D01*
X259840Y768373D01*
X259985Y768627D01*
X260021Y768699D01*
X260166Y768844D01*
X260312Y769098D01*
X260493Y769279D01*
X260638Y769533D01*
X260710Y769605D01*
X260746Y769678D01*
X260855Y769787D01*
X261036Y770113D01*
X261145Y770222D01*
X261327Y770475D01*
X261363Y770548D01*
X261544Y770729D01*
X261725Y771055D01*
X261906Y771237D01*
X261943Y771309D01*
X262106Y771581D01*
X262178Y771617D01*
X262269Y771744D01*
X262414Y771998D01*
X262595Y772179D01*
X262740Y772433D01*
X262776Y772505D01*
X262921Y772650D01*
X263066Y772904D01*
X263284Y773121D01*
X263429Y773375D01*
X263465Y773448D01*
X263610Y773593D01*
X263791Y773919D01*
X263972Y774100D01*
X264118Y774354D01*
X264299Y774535D01*
X264480Y774861D01*
X264661Y775043D01*
X264842Y775369D01*
X265024Y775550D01*
X265169Y775804D01*
X265350Y775985D01*
X265531Y776311D01*
X265712Y776493D01*
X265857Y776746D01*
X266039Y776927D01*
X266220Y777254D01*
X266274Y777308D01*
X266437Y777507D01*
X266582Y777761D01*
X266764Y777943D01*
X266909Y778196D01*
X266999Y778287D01*
X267162Y778486D01*
X267325Y778794D01*
X267398Y778830D01*
X267597Y779139D01*
X267634Y779211D01*
X267815Y779392D01*
X267960Y779646D01*
X268032Y779719D01*
X268069Y779791D01*
X268177Y779900D01*
X268322Y780154D01*
X268358Y780226D01*
X268413Y780281D01*
X268485Y780317D01*
X268648Y780589D01*
X268685Y780661D01*
X268866Y780842D01*
X269011Y781096D01*
X269047Y781169D01*
X269192Y781313D01*
X269337Y781567D01*
X269555Y781785D01*
X269700Y782038D01*
X269736Y782111D01*
X269881Y782256D01*
X270062Y782582D01*
X270243Y782763D01*
X270388Y783017D01*
X270606Y783235D01*
X270751Y783488D01*
X270787Y783561D01*
X270932Y783706D01*
X271113Y784032D01*
X271295Y784213D01*
X271440Y784467D01*
X271621Y784648D01*
X271802Y784975D01*
X271983Y785156D01*
X272128Y785409D01*
X272165Y785482D01*
X272346Y785663D01*
X272491Y785917D01*
X272672Y786098D01*
X272817Y786352D01*
X272853Y786424D01*
X272998Y786570D01*
X273143Y786823D01*
X273361Y787041D01*
X273506Y787294D01*
X273542Y787367D01*
X273687Y787512D01*
X273868Y787838D01*
X274013Y787983D01*
X274194Y788237D01*
X274231Y788309D01*
X274376Y788454D01*
X274557Y788781D01*
X274629Y788853D01*
X274666Y788926D01*
X274720Y788944D01*
X274919Y789252D01*
X274956Y789324D01*
X275101Y789469D01*
X275246Y789723D01*
X275373Y789850D01*
X275608Y790194D01*
X275644Y790267D01*
X275771Y790357D01*
X280049Y790394D01*
X280230Y790321D01*
X280284Y790230D01*
X280320Y753004D01*
X280357Y752895D01*
X280320Y752641D01*
X280121Y752514D01*
X274829Y752478D01*
X274466Y752514D01*
X274321Y752551D01*
X274267Y752605D01*
X274231Y776783D01*
X274267Y777363D01*
X274231Y777616D01*
X274176Y777671D01*
X274068Y777707D01*
X273923Y777671D01*
X273723Y777290D01*
X273615Y777181D01*
X273470Y776927D01*
X273288Y776746D01*
X273107Y776420D01*
X273034Y776348D01*
X272998Y776275D01*
X272944Y776257D01*
X272889Y776166D01*
X272745Y775913D01*
X272563Y775731D01*
X272418Y775478D01*
X272273Y775333D01*
X272237Y775260D01*
X272165Y775188D01*
X272128Y775115D01*
X271965Y774843D01*
X271893Y774807D01*
X271693Y774499D01*
X271657Y774426D01*
X271476Y774245D01*
X271331Y773991D01*
X271295Y773919D01*
X271150Y773774D01*
X271005Y773520D01*
X270823Y773339D01*
X270642Y773013D01*
X270461Y772831D01*
X270316Y772578D01*
X270280Y772505D01*
X270171Y772397D01*
X269990Y772143D01*
X269953Y772070D01*
X269772Y771889D01*
X269591Y771563D01*
X269446Y771418D01*
X269265Y771092D01*
X269120Y770947D01*
X268939Y770693D01*
X268902Y770620D01*
X268757Y770475D01*
X268576Y770149D01*
X268395Y769968D01*
X268214Y769642D01*
X268032Y769461D01*
X267887Y769207D01*
X267779Y769098D01*
X267742Y769025D01*
X267688Y768971D01*
X267434Y768572D01*
X267362Y768536D01*
X267162Y768228D01*
X267126Y768156D01*
X266945Y767974D01*
X266800Y767721D01*
X266764Y767648D01*
X266655Y767539D01*
X266510Y767286D01*
X266292Y767068D01*
X266111Y766742D01*
X265930Y766561D01*
X265785Y766307D01*
X265749Y766234D01*
X265604Y766089D01*
X265459Y765836D01*
X265241Y765618D01*
X265096Y765364D01*
X265060Y765292D01*
X264915Y765147D01*
X264734Y764821D01*
X264552Y764640D01*
X264408Y764386D01*
X264226Y764204D01*
X264045Y763878D01*
X263991Y763824D01*
X263827Y763624D01*
X263683Y763371D01*
X263501Y763190D01*
X263356Y762936D01*
X263248Y762827D01*
X263211Y762755D01*
X263157Y762700D01*
X262939Y762338D01*
X262867Y762301D01*
X262776Y762175D01*
X262631Y761921D01*
X262414Y761703D01*
X262269Y761450D01*
X262233Y761377D01*
X262124Y761268D01*
X261979Y761015D01*
X261761Y760797D01*
X261580Y760471D01*
X261435Y760326D01*
X261254Y760000D01*
X261073Y759818D01*
X260928Y759565D01*
X260710Y759347D01*
X260565Y759094D01*
X260529Y759021D01*
X260384Y758876D01*
X260203Y758550D01*
X260021Y758369D01*
X259876Y758115D01*
X259695Y757934D01*
X259514Y757607D01*
X259333Y757426D01*
X259152Y757100D01*
X258970Y756919D01*
X258825Y756665D01*
X258771Y756611D01*
X258608Y756411D01*
X258463Y756158D01*
X258427Y756085D01*
X258372Y756067D01*
X258282Y755976D01*
X258100Y755650D01*
X257919Y755469D01*
X257774Y755215D01*
X257738Y755143D01*
X257684Y755088D01*
X257665Y755070D01*
X257593Y754998D01*
X257448Y754744D01*
X257230Y754526D01*
X257085Y754273D01*
X257049Y754200D01*
X256904Y754055D01*
X256723Y753729D01*
X256542Y753548D01*
X256397Y753294D01*
X256179Y753076D01*
X256034Y752823D01*
X255998Y752750D01*
X255944Y752696D01*
X255690Y752514D01*
X252971Y752478D01*
X252718Y752514D01*
X252627Y752605D01*
X252591Y752678D01*
X252518Y752750D01*
X252482Y752823D01*
X252428Y752841D01*
X252337Y752968D01*
X252192Y753221D01*
X252047Y753366D01*
X251866Y753693D01*
X251684Y753874D01*
X251539Y754128D01*
X251358Y754309D01*
X251177Y754635D01*
X251105Y754708D01*
X251068Y754780D01*
X250959Y754889D01*
X250815Y755143D01*
X250633Y755324D01*
X250488Y755577D01*
X250416Y755650D01*
X250380Y755723D01*
X250271Y755831D01*
X250090Y756158D01*
X249908Y756339D01*
X249763Y756592D01*
X249582Y756774D01*
X249401Y757100D01*
X249220Y757281D01*
X249075Y757535D01*
X249038Y757607D01*
X248857Y757789D01*
X248712Y758042D01*
X248531Y758224D01*
X248350Y758550D01*
X248168Y758731D01*
X248023Y758985D01*
X247987Y759057D01*
X247933Y759075D01*
X247842Y759166D01*
X247661Y759492D01*
X247516Y759637D01*
X247335Y759964D01*
X247153Y760145D01*
X247008Y760398D01*
X246827Y760580D01*
X246646Y760906D01*
X246465Y761087D01*
X246284Y761413D01*
X246102Y761595D01*
X245957Y761848D01*
X245776Y762030D01*
X245559Y762428D01*
X245377Y762610D01*
X245232Y762863D01*
X245015Y763081D01*
X244870Y763335D01*
X244834Y763407D01*
X244689Y763552D01*
X244544Y763806D01*
X244507Y763878D01*
X244453Y763933D01*
X244380Y763969D01*
X244217Y764241D01*
X244181Y764313D01*
X244000Y764494D01*
X243855Y764748D01*
X243819Y764821D01*
X243674Y764966D01*
X243529Y765219D01*
X243311Y765437D01*
X243166Y765691D01*
X243130Y765763D01*
X242985Y765908D01*
X242804Y766234D01*
X242623Y766416D01*
X242477Y766669D01*
X242296Y766851D01*
X242115Y767177D01*
X241934Y767358D01*
X241753Y767684D01*
X241571Y767866D01*
X241426Y768119D01*
X241336Y768210D01*
X241173Y768409D01*
X241028Y768663D01*
X240991Y768736D01*
X240846Y768880D01*
X240701Y769134D01*
X240574Y769261D01*
X240339Y769605D01*
X240303Y769678D01*
X240194Y769787D01*
X240049Y770040D01*
X239976Y770113D01*
X239940Y770185D01*
X239886Y770203D01*
X239686Y770512D01*
X239650Y770584D01*
X239469Y770765D01*
X239324Y771019D01*
X239288Y771092D01*
X239143Y771237D01*
X238998Y771490D01*
X238780Y771708D01*
X238635Y771962D01*
X238599Y772034D01*
X238454Y772179D01*
X238273Y772505D01*
X238092Y772686D01*
X237946Y772940D01*
X237765Y773121D01*
X237584Y773448D01*
X237403Y773629D01*
X237222Y773955D01*
X237040Y774137D01*
X236895Y774390D01*
X236714Y774571D01*
X236678Y774644D01*
X236497Y774934D01*
X236460Y775006D01*
X236406Y775024D01*
X236207Y775333D01*
X236170Y775405D01*
X235989Y775586D01*
X235844Y775840D01*
X235735Y775949D01*
X235699Y776021D01*
X235627Y776094D01*
X235590Y776166D01*
X235427Y776438D01*
X235355Y776474D01*
X235300Y776529D01*
X235156Y776783D01*
X235119Y776855D01*
X234938Y777036D01*
X234793Y777290D01*
X234757Y777363D01*
X234648Y777471D01*
X234503Y777725D01*
X234412Y777816D01*
X234304Y777852D01*
X234177Y777725D01*
X234195Y777236D01*
X234177Y753330D01*
X234213Y752859D01*
X234177Y752605D01*
X234086Y752514D01*
X233651Y752478D01*
X233542Y752514D01*
X233470Y752478D01*
X228921Y752496D01*
X228577Y752478D01*
X228323Y752514D01*
X228232Y752605D01*
X228196Y790122D01*
X228232Y790267D01*
X228341Y790376D01*
X228486Y790412D01*
X232020Y790394D01*
X232491Y790430D01*
X232727Y790339D01*
D02*
G37*
G36*
X279287Y739248D02*
X279414Y739121D01*
X279450Y719330D01*
X279414Y719185D01*
X279305Y719112D01*
X279124Y719076D01*
X277439Y719094D01*
X277330Y719058D01*
X277076Y719094D01*
X276986Y719185D01*
X276949Y732850D01*
X276986Y733539D01*
X276913Y733792D01*
X276804Y733865D01*
X276714Y733847D01*
X276659Y733792D01*
X276623Y733720D01*
X276551Y733539D01*
X276369Y733285D01*
X276261Y733104D01*
X276170Y733013D01*
X276007Y732814D01*
X275862Y732560D01*
X275826Y732488D01*
X275681Y732343D01*
X275536Y732089D01*
X275318Y731871D01*
X275173Y731618D01*
X275137Y731545D01*
X274992Y731400D01*
X274811Y731074D01*
X274629Y730893D01*
X274484Y730639D01*
X274303Y730458D01*
X274122Y730132D01*
X273941Y729950D01*
X273759Y729624D01*
X273669Y729533D01*
X273596Y729497D01*
X273433Y729225D01*
X273397Y729153D01*
X273252Y729008D01*
X273071Y728681D01*
X272889Y728500D01*
X272745Y728247D01*
X272563Y728065D01*
X272382Y727739D01*
X272237Y727594D01*
X272056Y727268D01*
X271838Y727050D01*
X271693Y726797D01*
X271512Y726615D01*
X271367Y726362D01*
X271331Y726289D01*
X271240Y726199D01*
X271005Y725854D01*
X270968Y725782D01*
X270823Y725637D01*
X270678Y725383D01*
X270588Y725292D01*
X270425Y725093D01*
X270280Y724839D01*
X270243Y724767D01*
X270189Y724749D01*
X269953Y724404D01*
X269917Y724332D01*
X269809Y724259D01*
X269627Y723933D01*
X269555Y723861D01*
X269519Y723788D01*
X269410Y723679D01*
X269265Y723426D01*
X269138Y723299D01*
X268902Y722954D01*
X268866Y722882D01*
X268812Y722864D01*
X268721Y722737D01*
X268540Y722411D01*
X268358Y722229D01*
X268214Y721976D01*
X267996Y721758D01*
X267851Y721505D01*
X267815Y721432D01*
X267670Y721287D01*
X267489Y720961D01*
X267307Y720779D01*
X267162Y720526D01*
X266981Y720344D01*
X266800Y720018D01*
X266619Y719837D01*
X266474Y719583D01*
X266383Y719456D01*
X266311Y719420D01*
X266256Y719330D01*
X266166Y719203D01*
X266039Y719112D01*
X265133Y719076D01*
X264969Y719094D01*
X264824Y719130D01*
X264607Y719348D01*
X264371Y719692D01*
X264335Y719765D01*
X264190Y719910D01*
X264045Y720163D01*
X263936Y720272D01*
X263900Y720344D01*
X263827Y720417D01*
X263683Y720671D01*
X263465Y720888D01*
X263320Y721142D01*
X263284Y721215D01*
X263175Y721287D01*
X262958Y721686D01*
X262849Y721794D01*
X262668Y722048D01*
X262631Y722121D01*
X262505Y722248D01*
X262269Y722592D01*
X262233Y722664D01*
X262088Y722809D01*
X261943Y723063D01*
X261906Y723136D01*
X261798Y723244D01*
X261616Y723498D01*
X261580Y723571D01*
X261399Y723752D01*
X261218Y724078D01*
X261036Y724259D01*
X261000Y724332D01*
X260837Y724604D01*
X260765Y724640D01*
X260565Y724948D01*
X260529Y725021D01*
X260348Y725202D01*
X260203Y725455D01*
X260166Y725528D01*
X260021Y725673D01*
X259876Y725927D01*
X259659Y726144D01*
X259514Y726398D01*
X259478Y726470D01*
X259333Y726615D01*
X259152Y726942D01*
X258970Y727123D01*
X258825Y727377D01*
X258644Y727558D01*
X258463Y727884D01*
X258282Y728065D01*
X258100Y728392D01*
X257919Y728573D01*
X257774Y728827D01*
X257720Y728881D01*
X257557Y729080D01*
X257412Y729334D01*
X257267Y729479D01*
X257230Y729551D01*
X257049Y729805D01*
X257013Y729878D01*
X256904Y729950D01*
X256723Y730276D01*
X256651Y730349D01*
X256614Y730421D01*
X256542Y730494D01*
X256397Y730748D01*
X256215Y730929D01*
X256070Y731183D01*
X255998Y731255D01*
X255962Y731328D01*
X255907Y731346D01*
X255817Y731473D01*
X255672Y731726D01*
X255636Y731799D01*
X255490Y731944D01*
X255345Y732198D01*
X255128Y732415D01*
X254983Y732669D01*
X254947Y732741D01*
X254766Y732923D01*
X254621Y733176D01*
X254584Y733249D01*
X254476Y733357D01*
X254331Y733611D01*
X254294Y733684D01*
X254240Y733738D01*
X254059Y733774D01*
X254004Y733720D01*
X253950Y733593D01*
X253968Y727377D01*
Y727340D01*
Y719330D01*
X253932Y719185D01*
X253841Y719130D01*
X251703Y719094D01*
X251558Y719130D01*
X251431Y719257D01*
X251449Y719674D01*
X251431Y738976D01*
X251503Y739157D01*
X251612Y739230D01*
X251829Y739266D01*
X252718Y739248D01*
X252971Y739284D01*
X253116Y739248D01*
X253298Y739175D01*
X253370Y739139D01*
X253388Y739085D01*
X253442Y739067D01*
X253569Y738904D01*
X253769Y738595D01*
X253841Y738559D01*
X253896Y738468D01*
X254041Y738215D01*
X254095Y738160D01*
X254258Y737961D01*
X254403Y737707D01*
X254530Y737580D01*
X254766Y737236D01*
X254802Y737164D01*
X254856Y737109D01*
X254929Y737073D01*
X254983Y736982D01*
X255128Y736729D01*
X255164Y736656D01*
X255237Y736584D01*
X255418Y736330D01*
X255454Y736257D01*
X255581Y736131D01*
X255817Y735786D01*
X255853Y735714D01*
X255998Y735569D01*
X256143Y735315D01*
X256179Y735242D01*
X256324Y735097D01*
X256469Y734844D01*
X256687Y734626D01*
X256832Y734372D01*
X256868Y734300D01*
X257049Y734119D01*
X257194Y733865D01*
X257230Y733792D01*
X257339Y733684D01*
X257520Y733430D01*
X257557Y733357D01*
X257702Y733213D01*
X257883Y732886D01*
X258064Y732705D01*
X258209Y732451D01*
X258390Y732270D01*
X258572Y731944D01*
X258753Y731763D01*
X258934Y731436D01*
X259115Y731255D01*
X259260Y731001D01*
X259442Y730820D01*
X259623Y730494D01*
X259768Y730349D01*
X259949Y730023D01*
X260094Y729878D01*
X260275Y729624D01*
X260312Y729551D01*
X260366Y729497D01*
X260529Y729298D01*
X260674Y729044D01*
X260710Y728971D01*
X260819Y728863D01*
X261000Y728609D01*
X261036Y728537D01*
X261181Y728392D01*
X261327Y728138D01*
X261399Y728065D01*
X261435Y727993D01*
X261580Y727848D01*
X261616Y727775D01*
X261779Y727504D01*
X261852Y727467D01*
X262051Y727159D01*
X262088Y727087D01*
X262269Y726905D01*
X262414Y726652D01*
X262450Y726579D01*
X262595Y726434D01*
X262740Y726180D01*
X262958Y725963D01*
X263103Y725709D01*
X263139Y725637D01*
X263284Y725492D01*
X263465Y725165D01*
X263646Y724984D01*
X263791Y724731D01*
X263972Y724549D01*
X264154Y724223D01*
X264335Y724042D01*
X264480Y723788D01*
X264516Y723716D01*
X264697Y723534D01*
X264842Y723281D01*
X264988Y723136D01*
X265205Y722737D01*
X265259Y722682D01*
X265441Y722646D01*
X265622Y722719D01*
X265676Y722773D01*
X265857Y723099D01*
X266075Y723317D01*
X266220Y723571D01*
X266365Y723716D01*
X266546Y724042D01*
X266619Y724114D01*
X266655Y724187D01*
X266764Y724296D01*
X266909Y724549D01*
X267054Y724694D01*
X267235Y724948D01*
X267271Y725021D01*
X267380Y725129D01*
X267416Y725202D01*
X267489Y725274D01*
X267525Y725347D01*
X267688Y725619D01*
X267760Y725655D01*
X267960Y725963D01*
X267996Y726036D01*
X268177Y726217D01*
X268322Y726470D01*
X268358Y726543D01*
X268503Y726688D01*
X268648Y726942D01*
X268866Y727159D01*
X269011Y727413D01*
X269047Y727485D01*
X269192Y727630D01*
X269373Y727957D01*
X269555Y728138D01*
X269700Y728392D01*
X269881Y728573D01*
X270062Y728899D01*
X270243Y729080D01*
X270425Y729407D01*
X270606Y729588D01*
X270751Y729842D01*
X270932Y730023D01*
X271113Y730349D01*
X271295Y730530D01*
X271440Y730784D01*
X271476Y730856D01*
X271530Y730911D01*
X271603Y730947D01*
X271766Y731219D01*
X271802Y731291D01*
X271947Y731436D01*
X272128Y731763D01*
X272310Y731944D01*
X272454Y732198D01*
X272636Y732379D01*
X272817Y732705D01*
X272871Y732759D01*
X273034Y732959D01*
X273179Y733213D01*
X273361Y733394D01*
X273506Y733648D01*
X273596Y733738D01*
X273759Y733938D01*
X273904Y734191D01*
X273941Y734264D01*
X274086Y734409D01*
X274231Y734662D01*
X274412Y734844D01*
X274557Y735097D01*
X274629Y735170D01*
X274666Y735242D01*
X274774Y735351D01*
X274956Y735677D01*
X275010Y735732D01*
X275082Y735768D01*
X275282Y736076D01*
X275318Y736149D01*
X275463Y736294D01*
X275644Y736620D01*
X275789Y736765D01*
X275934Y737019D01*
X276152Y737236D01*
X276188Y737309D01*
X276333Y737526D01*
X276369Y737599D01*
X276478Y737707D01*
X276659Y738034D01*
X276840Y738215D01*
X276986Y738468D01*
X277203Y738686D01*
X277384Y739012D01*
X277475Y739103D01*
X277547Y739139D01*
X277620Y739212D01*
X277964Y739266D01*
X278889Y739248D01*
X278997Y739284D01*
X279287Y739248D01*
D02*
G37*
G36*
X234720Y739157D02*
X234902Y738831D01*
X235047Y738686D01*
X235319Y738233D01*
X235391Y738197D01*
X235554Y737961D01*
X235590Y737816D01*
X235663Y737744D01*
X235699Y737671D01*
X235808Y737562D01*
X235953Y737309D01*
X235989Y737236D01*
X236134Y737091D01*
X236406Y736638D01*
X236569Y736439D01*
X236642Y736257D01*
X236823Y736076D01*
X237040Y735677D01*
X237149Y735569D01*
X237330Y735242D01*
X237512Y735061D01*
X237729Y734662D01*
X237874Y734518D01*
X238055Y734191D01*
X238092Y734119D01*
X238237Y733974D01*
X238382Y733720D01*
X238418Y733648D01*
X238526Y733539D01*
X238744Y733140D01*
X238925Y732959D01*
X239107Y732633D01*
X239215Y732524D01*
X239433Y732125D01*
X239614Y731944D01*
X239795Y731618D01*
X239904Y731509D01*
X240121Y731110D01*
X240303Y730929D01*
X240484Y730603D01*
X240520Y730530D01*
X240665Y730385D01*
X240846Y730059D01*
X240883Y729986D01*
X241028Y729842D01*
X241173Y729588D01*
X241209Y729515D01*
X241263Y729461D01*
X241426Y729261D01*
X241463Y729189D01*
X241535Y729008D01*
X241716Y728827D01*
X241861Y728573D01*
X241898Y728500D01*
X241952Y728446D01*
X242115Y728247D01*
X242151Y728174D01*
X242224Y727993D01*
X242314Y727902D01*
X242477Y727703D01*
X242550Y727522D01*
X242731Y727340D01*
X242913Y727014D01*
X242949Y726942D01*
X243057Y726833D01*
X243239Y726507D01*
X243329Y726416D01*
X243493Y726217D01*
X243529Y726144D01*
X243601Y725963D01*
X243674Y725891D01*
X243710Y725818D01*
X243764Y725800D01*
X243819Y725709D01*
X243964Y725455D01*
X244000Y725383D01*
X244199Y725184D01*
X244290Y724948D01*
X244362Y724875D01*
X244399Y724803D01*
X244471Y724731D01*
X244652Y724404D01*
X244834Y724223D01*
X245015Y723897D01*
X245051Y723824D01*
X245160Y723716D01*
X245341Y723389D01*
X245522Y723208D01*
X245704Y722882D01*
X245740Y722809D01*
X245849Y722701D01*
X246030Y722374D01*
X246211Y722193D01*
X246392Y721867D01*
X246429Y721794D01*
X246574Y721649D01*
X246755Y721323D01*
X246791Y721251D01*
X246990Y721051D01*
X247081Y720816D01*
X247226Y720671D01*
X247444Y720272D01*
X247589Y720127D01*
X247806Y719728D01*
X247860Y719674D01*
X247933Y719638D01*
X248096Y719438D01*
X248132Y719221D01*
X248023Y719112D01*
X247878Y719076D01*
X245432Y719094D01*
X245250Y719166D01*
X245178Y719203D01*
X245051Y719366D01*
X244870Y719692D01*
X244725Y719837D01*
X244507Y720236D01*
X244308Y720435D01*
X244217Y720671D01*
X244036Y720852D01*
X243819Y721251D01*
X243764Y721305D01*
X243601Y721505D01*
X243565Y721577D01*
X243493Y721758D01*
X243311Y721939D01*
X243166Y722193D01*
X243130Y722266D01*
X242985Y722411D01*
Y722447D01*
X242804Y722773D01*
X242623Y722954D01*
X242441Y723281D01*
X242405Y723353D01*
X242278Y723480D01*
X242206Y723516D01*
X242133Y723589D01*
X226003Y723625D01*
X225858Y723589D01*
X225586Y723317D01*
X225405Y722991D01*
X225260Y722846D01*
X225042Y722447D01*
X224988Y722393D01*
X224825Y722193D01*
X224680Y721939D01*
X224643Y721867D01*
X224571Y721831D01*
X224354Y721432D01*
X224209Y721287D01*
X224027Y720961D01*
X223991Y720888D01*
X223810Y720707D01*
X223629Y720381D01*
X223592Y720308D01*
X223484Y720200D01*
X223302Y719873D01*
X223121Y719692D01*
X222940Y719366D01*
X222904Y719293D01*
X222849Y719239D01*
X222777Y719203D01*
X222704Y719130D01*
X220602Y719094D01*
X220131Y719058D01*
X219895Y719148D01*
X219859Y719330D01*
X219895Y719475D01*
X219986Y719565D01*
X220058Y719602D01*
X220113Y719656D01*
X220221Y719837D01*
X220294Y720018D01*
X220439Y720163D01*
X220620Y720490D01*
X220693Y720562D01*
X220729Y720635D01*
X220801Y720707D01*
X220982Y721033D01*
X221164Y721215D01*
X221345Y721541D01*
X221381Y721613D01*
X221490Y721722D01*
X221671Y722048D01*
X221852Y722229D01*
X222034Y722556D01*
X222070Y722628D01*
X222215Y722773D01*
X222396Y723099D01*
X222432Y723172D01*
X222577Y723317D01*
X222722Y723571D01*
X222759Y723643D01*
X222867Y723752D01*
X223085Y724151D01*
X223266Y724332D01*
X223411Y724585D01*
X223447Y724658D01*
X223592Y724803D01*
X223774Y725129D01*
X223810Y725202D01*
X223955Y725347D01*
X224100Y725601D01*
X224136Y725673D01*
X224281Y725818D01*
X224317Y725891D01*
X224372Y725945D01*
X224462Y726180D01*
X224607Y726325D01*
X224789Y726652D01*
X224970Y726833D01*
X225006Y726905D01*
X225060Y726960D01*
X225151Y727195D01*
X225296Y727340D01*
X225568Y727794D01*
X225640Y727830D01*
X225804Y728065D01*
X225840Y728210D01*
X225912Y728283D01*
X225949Y728355D01*
X226003Y728373D01*
X226057Y728464D01*
X226202Y728718D01*
X226238Y728790D01*
X226383Y728935D01*
X226565Y729261D01*
X226601Y729334D01*
X226800Y729533D01*
X226891Y729769D01*
X227072Y729950D01*
X227290Y730349D01*
X227344Y730403D01*
X227507Y730603D01*
X227580Y730784D01*
X227761Y730965D01*
X227978Y731364D01*
X228123Y731509D01*
X228305Y731835D01*
X228341Y731908D01*
X228450Y731980D01*
X228667Y732379D01*
X228812Y732524D01*
X228993Y732850D01*
X229030Y732923D01*
X229174Y733067D01*
X229356Y733394D01*
X229501Y733539D01*
X229537Y733611D01*
X229591Y733666D01*
X229682Y733901D01*
X229863Y734082D01*
X230044Y734409D01*
X230189Y734554D01*
X230226Y734626D01*
X230280Y734681D01*
X230371Y734916D01*
X230552Y735097D01*
X230733Y735424D01*
X230878Y735569D01*
X230914Y735641D01*
X230969Y735695D01*
X231059Y735931D01*
X231150Y736022D01*
X231313Y736221D01*
X231458Y736475D01*
X231494Y736547D01*
X231603Y736656D01*
X231784Y736982D01*
X231821Y737055D01*
X231966Y737200D01*
X232147Y737526D01*
X232292Y737671D01*
X232509Y738070D01*
X232654Y738215D01*
X232836Y738541D01*
X233017Y738722D01*
X233198Y739048D01*
X233397Y739212D01*
X234521Y739248D01*
X234720Y739157D01*
D02*
G37*
G36*
X428574Y799184D02*
X428719Y798930D01*
X428864Y798785D01*
X428991Y798586D01*
X429045Y798386D01*
X429118Y798205D01*
X429191Y798133D01*
X429444Y797661D01*
X429481Y797589D01*
X429553Y797516D01*
X429771Y797118D01*
X429807Y797045D01*
X429916Y796936D01*
X430061Y796683D01*
X430097Y796465D01*
X430350Y796103D01*
X430477Y795903D01*
X430695Y795541D01*
X430785Y795305D01*
X430858Y795124D01*
X430985Y794888D01*
X431075Y794653D01*
X431112Y794290D01*
X431184Y794000D01*
X431275Y793801D01*
X431365Y793565D01*
X431329Y793420D01*
X431184Y793167D01*
X431148Y792260D01*
X431112Y792115D01*
X431075Y791862D01*
X431003Y791608D01*
X430894Y791499D01*
X430749Y791245D01*
X430640Y790992D01*
X430604Y790919D01*
X430495Y790810D01*
X430350Y790557D01*
X430133Y790339D01*
X430097Y790267D01*
X429952Y790122D01*
X429499Y789777D01*
X429426Y789741D01*
X429336Y789650D01*
X429136Y789487D01*
X428955Y789415D01*
X428701Y789342D01*
X428574Y789216D01*
X428230Y788980D01*
X427541Y788617D01*
X427487Y788563D01*
X427287Y788400D01*
X427106Y788327D01*
X426853Y788219D01*
X426762Y788128D01*
X426544Y787983D01*
X426363Y787911D01*
X426146Y787766D01*
X425910Y787675D01*
X425729Y787602D01*
X425656Y787566D01*
X425638Y787512D01*
X425566Y787439D01*
X425530Y787367D01*
X425439Y787312D01*
X425149Y787204D01*
X424841Y787041D01*
X424605Y786950D01*
X424442Y786787D01*
X424152Y786606D01*
X423953Y786551D01*
X423772Y786370D01*
X423590Y786261D01*
X423191Y786080D01*
X423065Y785990D01*
X422829Y785899D01*
X422648Y785718D01*
X422448Y785591D01*
X422213Y785500D01*
X421959Y785391D01*
X421560Y785174D01*
X421325Y784938D01*
X420872Y784775D01*
X420763Y784667D01*
X420147Y784340D01*
X420074Y784268D01*
X420002Y784231D01*
X419784Y784087D01*
X419712Y784050D01*
X419639Y783978D01*
X419385Y783833D01*
X419240Y783796D01*
X419059Y783724D01*
X418951Y783615D01*
X418824Y783525D01*
X418588Y783434D01*
X418334Y783253D01*
X417936Y783035D01*
X417863Y782999D01*
X417791Y782927D01*
X417591Y782800D01*
X417356Y782745D01*
X417102Y782564D01*
X416921Y782455D01*
X416667Y782274D01*
X416413Y782129D01*
X416159Y782020D01*
X416087Y781984D01*
X415960Y781857D01*
X415924Y781567D01*
X416105Y781169D01*
X416214Y780915D01*
X416341Y780607D01*
X416449Y780317D01*
X416504Y780117D01*
X416576Y779864D01*
X416685Y779610D01*
X416721Y779284D01*
X416758Y779139D01*
X416830Y778885D01*
X416903Y778595D01*
X417138Y778142D01*
X417174Y777997D01*
X417229Y777689D01*
X417392Y777163D01*
X417428Y776946D01*
X417464Y776764D01*
X417501Y776619D01*
X417591Y776203D01*
X417627Y775949D01*
X417791Y775677D01*
X417827Y775532D01*
X417881Y775188D01*
X417918Y774934D01*
X417954Y774789D01*
X418044Y774589D01*
X418099Y774390D01*
X418135Y774245D01*
X418207Y774064D01*
X418244Y773520D01*
X418280Y773411D01*
X418316Y772831D01*
X418389Y772578D01*
X418497Y772324D01*
X418534Y771998D01*
X418570Y771744D01*
X418606Y771599D01*
X418642Y771490D01*
X418606Y771273D01*
X418642Y771019D01*
X418824Y770765D01*
X418860Y770040D01*
X418932Y769859D01*
X418969Y768953D01*
X419005Y768699D01*
X419041Y768554D01*
X419114Y768300D01*
X419077Y767829D01*
X419114Y767576D01*
X419150Y767431D01*
X419222Y767249D01*
X419259Y766307D01*
X419222Y765618D01*
X419259Y765473D01*
X419295Y765364D01*
X419331Y759239D01*
X419295Y758876D01*
X419259Y758767D01*
X419222Y758405D01*
X419259Y758296D01*
X419240Y757698D01*
X419259Y757209D01*
X419222Y757064D01*
X419132Y756756D01*
X419095Y756429D01*
X419114Y755831D01*
X419041Y755541D01*
X419005Y755433D01*
X418969Y754671D01*
X418932Y754418D01*
X418896Y754309D01*
X418860Y753511D01*
X418824Y753366D01*
X418642Y753113D01*
X418606Y752641D01*
X418570Y752533D01*
X418516Y752188D01*
X418479Y751753D01*
X418334Y751391D01*
X418298Y750992D01*
X418262Y750775D01*
X418207Y750177D01*
X418099Y749923D01*
X418135Y749669D01*
X418099Y749524D01*
X417990Y749343D01*
X417936Y749216D01*
X417881Y748872D01*
X417809Y748582D01*
X417718Y748382D01*
X417646Y748201D01*
X417591Y747820D01*
X417555Y747675D01*
X417519Y747567D01*
X417482Y747168D01*
X417319Y746787D01*
X417247Y746497D01*
X417211Y746316D01*
X417102Y746026D01*
X417048Y745791D01*
X416884Y745482D01*
X416830Y745211D01*
X416794Y745066D01*
X416739Y744866D01*
X416667Y744685D01*
X416631Y744540D01*
X416576Y744268D01*
X416540Y744123D01*
X416449Y743815D01*
X416304Y743598D01*
X416232Y743416D01*
X416196Y743271D01*
X416141Y743036D01*
X415942Y742583D01*
X415851Y742347D01*
X415706Y741767D01*
X415616Y741604D01*
X415489Y741260D01*
X415416Y741006D01*
X415344Y740933D01*
X415308Y740861D01*
X415235Y740788D01*
X415126Y740498D01*
X414927Y739864D01*
X414764Y739411D01*
X414691Y739230D01*
X414583Y739121D01*
X414565Y739103D01*
X414438Y738904D01*
X414365Y738614D01*
X414075Y737997D01*
X414003Y737744D01*
X413894Y737562D01*
X413767Y737363D01*
X413676Y737127D01*
X413459Y736801D01*
X413314Y736402D01*
X413151Y736131D01*
X413060Y735895D01*
X412952Y735641D01*
X412915Y735569D01*
X412861Y735514D01*
X412698Y735315D01*
X412662Y735170D01*
X412553Y734916D01*
X412480Y734844D01*
X412335Y734590D01*
X412226Y734336D01*
X412190Y734264D01*
X412118Y734191D01*
X411936Y733865D01*
X411900Y733792D01*
X411792Y733684D01*
X411701Y733557D01*
X411610Y733321D01*
X411465Y732995D01*
X411284Y732669D01*
X411103Y732488D01*
X410958Y732234D01*
X410885Y732053D01*
X410740Y731835D01*
X410523Y731436D01*
X410432Y731346D01*
X410360Y731310D01*
X410323Y731237D01*
X410142Y730947D01*
X409907Y730603D01*
X409870Y730458D01*
X409689Y730276D01*
X409472Y729878D01*
X409327Y729733D01*
X409218Y729551D01*
X409146Y729370D01*
X408964Y729189D01*
X408765Y728881D01*
X408692Y728845D01*
X408565Y728718D01*
X408366Y728410D01*
X408221Y728192D01*
X408130Y727957D01*
X408040Y727866D01*
X407967Y727830D01*
X407877Y727739D01*
X407732Y727485D01*
X407641Y727395D01*
X407569Y727358D01*
X407442Y727123D01*
X407315Y726996D01*
X407079Y726652D01*
X407043Y726579D01*
X406789Y726325D01*
X406753Y726253D01*
X406536Y726072D01*
X406354Y725745D01*
X405919Y725311D01*
X405666Y724984D01*
X405629Y724912D01*
X405557Y724839D01*
X405521Y724767D01*
X405376Y724622D01*
X405339Y724549D01*
X405013Y724223D01*
X404977Y724151D01*
X404741Y723915D01*
X404669Y723879D01*
X404596Y723770D01*
X404524Y723734D01*
X404252Y723462D01*
X404216Y723389D01*
X403998Y723172D01*
X403962Y723099D01*
X403745Y722882D01*
X403636Y722701D01*
X403509Y722574D01*
X403436Y722538D01*
X403346Y722447D01*
X403310Y722374D01*
X402820Y721885D01*
X402748Y721849D01*
X402585Y721649D01*
X402494Y721523D01*
X402421Y721486D01*
X402222Y721287D01*
X402023Y721124D01*
X401950Y721088D01*
X401769Y720906D01*
X401697Y720870D01*
X401298Y720471D01*
X401225Y720435D01*
X400971Y720181D01*
X400808Y719982D01*
X400772Y719910D01*
X400718Y719855D01*
X400645Y719819D01*
X400392Y719565D01*
X399993Y719348D01*
X399902Y719257D01*
X399866Y719185D01*
X399522Y718840D01*
X399449Y718804D01*
X399395Y718750D01*
X399177Y718605D01*
X398978Y718441D01*
X398905Y718405D01*
X398779Y718242D01*
X398742Y718170D01*
X398652Y718079D01*
X398398Y717934D01*
X398072Y717680D01*
X397999Y717644D01*
X397746Y717390D01*
X397673Y717354D01*
X397601Y717282D01*
X397528Y717245D01*
X397383Y717100D01*
X397057Y716919D01*
X396984Y716847D01*
X396912Y716810D01*
X396549Y716448D01*
X396151Y716230D01*
X396042Y716122D01*
X395788Y715977D01*
X395661Y715850D01*
X395625Y715777D01*
X395552Y715705D01*
X395262Y715524D01*
X395063Y715360D01*
X394882Y715288D01*
X394646Y715161D01*
X394610Y715089D01*
X394556Y715034D01*
X394157Y714817D01*
X394084Y714781D01*
X394012Y714708D01*
X393758Y714563D01*
X393468Y714382D01*
X393069Y714164D01*
X392852Y713947D01*
X392598Y713802D01*
X392526Y713765D01*
X392453Y713693D01*
X392326Y713602D01*
X392091Y713512D01*
X391946Y713476D01*
X391819Y713349D01*
X391620Y713186D01*
X391547Y713149D01*
X391330Y713004D01*
X391203Y712914D01*
X390858Y712787D01*
X390641Y712642D01*
X390315Y712461D01*
X390133Y712388D01*
X389988Y712243D01*
X389916Y712207D01*
X389644Y712044D01*
X389427Y711899D01*
X389191Y711808D01*
X389046Y711772D01*
X388810Y711645D01*
X388611Y711482D01*
X388430Y711409D01*
X388230Y711319D01*
X388013Y711174D01*
X387777Y711083D01*
X387524Y711011D01*
X387270Y710829D01*
X387089Y710757D01*
X386400Y710431D01*
X386255Y710395D01*
X386074Y710322D01*
X385729Y710123D01*
X385457Y710068D01*
X385168Y709996D01*
X385041Y709869D01*
X384823Y709724D01*
X384588Y709633D01*
X384279Y709506D01*
X383989Y709398D01*
X383844Y709361D01*
X383573Y709307D01*
X383156Y709108D01*
X382974Y709035D01*
X382775Y708981D01*
X382376Y708727D01*
X382086Y708655D01*
X381724Y708618D01*
X381325Y708437D01*
X381090Y708346D01*
X380890Y708292D01*
X380636Y708183D01*
X380564Y708147D01*
X380510Y708093D01*
X380328Y708020D01*
X379803Y707930D01*
X379567Y707839D01*
X379277Y707730D01*
X378860Y707640D01*
X378715Y707603D01*
X378462Y707567D01*
X378135Y707422D01*
X378063Y707386D01*
X377882Y707313D01*
X377664Y707277D01*
X377374Y707205D01*
X376994Y707041D01*
X376722Y706987D01*
X376613Y706951D01*
X376033Y706915D01*
X375888Y706878D01*
X375779Y706842D01*
X375381Y706806D01*
X375054Y706661D01*
X374927Y706607D01*
X374112Y706480D01*
X373931Y706407D01*
X373913Y706353D01*
X373858Y706299D01*
X373822Y692017D01*
X373731Y691781D01*
X373695Y691419D01*
X373586Y691165D01*
X373296Y690621D01*
X373260Y690549D01*
X373151Y690440D01*
X373115Y690368D01*
X372970Y690150D01*
X372934Y690078D01*
X372843Y689987D01*
X372771Y689951D01*
X372608Y689788D01*
X372571Y689715D01*
X372372Y689516D01*
X372299Y689479D01*
X372155Y689334D01*
X371828Y689153D01*
X371611Y689008D01*
X371284Y688827D01*
X371103Y688755D01*
X370723Y688591D01*
X370541Y688519D01*
X369853Y688483D01*
X369508Y688428D01*
X369400Y688392D01*
X368983Y688410D01*
X365920Y688392D01*
X365811Y688428D01*
X365231Y688392D01*
X365050Y688465D01*
X364977Y688501D01*
X364887Y688628D01*
X364851Y717263D01*
X364887Y717408D01*
X364923Y717517D01*
X364959Y717590D01*
X365068Y717662D01*
X365304Y717753D01*
X365847Y718007D01*
X366210Y718115D01*
X366355Y718260D01*
X366681Y718441D01*
X366862Y718514D01*
X367152Y718695D01*
X367297Y718732D01*
X367478Y718804D01*
X367623Y718840D01*
X367696Y718913D01*
X368240Y719203D01*
X368312Y719239D01*
X368439Y719366D01*
X368675Y719456D01*
X368820Y719493D01*
X369200Y719692D01*
X369653Y719855D01*
X369798Y720000D01*
X370052Y720145D01*
X370741Y720471D01*
X370886Y720508D01*
X371121Y720598D01*
X371321Y720761D01*
X371393Y720798D01*
X371720Y720943D01*
X371792Y721015D01*
X371865Y721051D01*
X371919Y721106D01*
X372155Y721196D01*
X372408Y721269D01*
X372626Y721414D01*
X372916Y721523D01*
X373097Y721595D01*
X373206Y721704D01*
X373532Y721885D01*
X373768Y721976D01*
X373985Y722121D01*
X374221Y722211D01*
X374366Y722248D01*
X374619Y722356D01*
X374728Y722465D01*
X375199Y722719D01*
X375526Y722900D01*
X375671Y722936D01*
X375997Y723081D01*
X376069Y723118D01*
X376124Y723172D01*
X376468Y723299D01*
X376830Y723552D01*
X377193Y723698D01*
X377501Y723861D01*
X377845Y723988D01*
X378027Y724060D01*
X378135Y724169D01*
X378679Y724459D01*
X378752Y724495D01*
X378806Y724549D01*
X379150Y724676D01*
X379477Y724821D01*
X379803Y725002D01*
X379984Y725075D01*
X380093Y725184D01*
X380165Y725220D01*
X380220Y725274D01*
X380510Y725383D01*
X380709Y725437D01*
X380981Y725601D01*
X381216Y725691D01*
X381398Y725764D01*
X381470Y725800D01*
X381579Y725909D01*
X381905Y726090D01*
X382159Y726199D01*
X382231Y726235D01*
X382286Y726289D01*
X382576Y726398D01*
X382775Y726452D01*
X382993Y726597D01*
X383120Y726688D01*
X383355Y726778D01*
X383573Y726924D01*
X383699Y727014D01*
X384044Y727141D01*
X384660Y727431D01*
X384841Y727504D01*
X384914Y727540D01*
X385004Y727630D01*
X385222Y727775D01*
X385421Y727830D01*
X385602Y727902D01*
X385765Y728029D01*
X386001Y728120D01*
X386255Y728192D01*
X386509Y728373D01*
X386980Y728627D01*
X387179Y728754D01*
X387415Y728845D01*
X387560Y728881D01*
X387759Y728971D01*
X388049Y729153D01*
X388248Y729207D01*
X388629Y729479D01*
X388865Y729570D01*
X389046Y729642D01*
X389318Y729805D01*
X389517Y729860D01*
X389771Y729968D01*
X389843Y730005D01*
X390007Y730168D01*
X390369Y730313D01*
X390659Y730494D01*
X390895Y730585D01*
X391040Y730621D01*
X391221Y730693D01*
X391293Y730766D01*
X391547Y730911D01*
X391692Y730947D01*
X391910Y731092D01*
X392236Y731273D01*
X392852Y731563D01*
X392997Y731600D01*
X393251Y731708D01*
X393450Y731908D01*
X393686Y731998D01*
X394012Y732143D01*
X394066Y732198D01*
X394302Y732288D01*
X394701Y732469D01*
X395099Y732687D01*
X395299Y732778D01*
X395589Y732959D01*
X395824Y733049D01*
X396151Y733194D01*
X396205Y733249D01*
X396441Y733339D01*
X396622Y733412D01*
X396930Y733648D01*
X397274Y733774D01*
X397546Y733938D01*
X397782Y734028D01*
X398035Y734137D01*
X398108Y734173D01*
X398253Y734318D01*
X398507Y734463D01*
X398579Y734499D01*
X398797Y734644D01*
X399195Y734862D01*
X399268Y734898D01*
X399522Y735152D01*
X399594Y735188D01*
X399721Y735315D01*
X399920Y735478D01*
X399993Y735514D01*
X400138Y735659D01*
X400319Y735768D01*
X400482Y735931D01*
X400518Y736004D01*
X400845Y736330D01*
X400881Y736402D01*
X400990Y736511D01*
X401171Y736765D01*
X401207Y736837D01*
X401334Y736964D01*
X401570Y737309D01*
X401606Y737381D01*
X401715Y737490D01*
X401751Y737562D01*
X401805Y737617D01*
X401896Y737852D01*
X401968Y738034D01*
X402005Y738106D01*
X402168Y738269D01*
X402331Y738722D01*
X402512Y739012D01*
X402548Y739411D01*
X402585Y739556D01*
X402639Y739755D01*
X402693Y739991D01*
X402893Y740408D01*
X402947Y740752D01*
X402983Y740861D01*
X403019Y741368D01*
X402983Y741731D01*
X403019Y741984D01*
X403164Y742238D01*
X403201Y784648D01*
X403237Y784793D01*
X403346Y784975D01*
X403545Y785138D01*
X403618Y785174D01*
X404089Y785391D01*
X404415Y785573D01*
X404596Y785645D01*
X404705Y785754D01*
X404959Y785899D01*
X405140Y785971D01*
X405394Y786153D01*
X405575Y786261D01*
X405901Y786406D01*
X406391Y786678D01*
X406427Y786751D01*
X406572Y786896D01*
X406808Y786986D01*
X407569Y787349D01*
X407641Y787385D01*
X407786Y787530D01*
X407967Y787639D01*
X408366Y787820D01*
X408837Y788074D01*
X408910Y788110D01*
X408982Y788183D01*
X409055Y788219D01*
X409109Y788273D01*
X409454Y788400D01*
X409526Y788473D01*
X409599Y788509D01*
X409653Y788563D01*
X410269Y788926D01*
X410722Y789089D01*
X411012Y789379D01*
X411085Y789415D01*
X411701Y789705D01*
X411882Y789777D01*
X412027Y789922D01*
X412426Y790140D01*
X412607Y790249D01*
X412933Y790430D01*
X413115Y790502D01*
X413169Y790557D01*
X413386Y790702D01*
X413731Y790829D01*
X413785Y790883D01*
X413984Y791046D01*
X414492Y791336D01*
X414565Y791372D01*
X414746Y791445D01*
X415000Y791554D01*
X415072Y791590D01*
X415181Y791699D01*
X415434Y791844D01*
X415507Y791880D01*
X415561Y791934D01*
X415779Y792079D01*
X416123Y792206D01*
X416304Y792279D01*
X416413Y792387D01*
X416739Y792569D01*
X416794Y792623D01*
X416993Y792786D01*
X417120Y792840D01*
X417319Y792895D01*
X417537Y793040D01*
X417863Y793221D01*
X418044Y793294D01*
X418117Y793330D01*
X418226Y793438D01*
X418352Y793529D01*
X418588Y793620D01*
X418769Y793692D01*
X418878Y793801D01*
X419422Y794091D01*
X419893Y794345D01*
X420092Y794544D01*
X420328Y794635D01*
X420582Y794743D01*
X420980Y794961D01*
X421162Y795142D01*
X421488Y795323D01*
X421814Y795468D01*
X422358Y795758D01*
X422430Y795831D01*
X422557Y795921D01*
X422738Y795994D01*
X422974Y796085D01*
X423046Y796157D01*
X423119Y796193D01*
X423191Y796266D01*
X424098Y796737D01*
X424170Y796773D01*
X424315Y796918D01*
X425366Y797462D01*
X425439Y797498D01*
X425584Y797643D01*
X426345Y798042D01*
X426599Y798151D01*
X426708Y798259D01*
X426780Y798296D01*
X426834Y798350D01*
X427179Y798477D01*
X427541Y798839D01*
X427614Y798876D01*
X427723Y798984D01*
X427976Y799129D01*
X428158Y799202D01*
X428520Y799238D01*
X428574Y799184D01*
D02*
G37*
G36*
X297484Y799129D02*
X297701Y798984D01*
X298027Y798803D01*
X298263Y798676D01*
X298462Y798513D01*
X298535Y798477D01*
X298897Y798332D01*
X299006Y798223D01*
X299622Y797897D01*
X299876Y797752D01*
X299949Y797716D01*
X300039Y797625D01*
X300239Y797462D01*
X300746Y797281D01*
X300855Y797172D01*
X301254Y796954D01*
X301326Y796918D01*
X301471Y796773D01*
X301652Y796701D01*
X301906Y796592D01*
X301978Y796556D01*
X302051Y796483D01*
X302305Y796338D01*
X302486Y796266D01*
X302740Y796085D01*
X302812Y796048D01*
X303066Y795940D01*
X303211Y795795D01*
X303537Y795613D01*
X304008Y795396D01*
X304226Y795251D01*
X304298Y795215D01*
X304498Y795015D01*
X304969Y794834D01*
X305168Y794671D01*
X305241Y794635D01*
X305422Y794562D01*
X305603Y794453D01*
X305930Y794272D01*
X306111Y794200D01*
X306346Y793964D01*
X306691Y793837D01*
X306872Y793728D01*
X307198Y793547D01*
X307271Y793511D01*
X307416Y793366D01*
X307488Y793330D01*
X307542Y793275D01*
X307778Y793185D01*
X307978Y793094D01*
X308267Y792913D01*
X308503Y792822D01*
X308576Y792750D01*
X308648Y792713D01*
X308666Y792659D01*
X308757Y792605D01*
X308829Y792569D01*
X309192Y792423D01*
X309300Y792315D01*
X309500Y792188D01*
X309736Y792097D01*
X310098Y791880D01*
X310243Y791844D01*
X310551Y791535D01*
X310787Y791445D01*
X311113Y791300D01*
X311512Y791082D01*
X311584Y791046D01*
X311784Y790847D01*
X312128Y790720D01*
X312345Y790575D01*
X312889Y790285D01*
X313360Y790031D01*
X313596Y789796D01*
X313832Y789705D01*
X314013Y789632D01*
X314266Y789487D01*
X314520Y789379D01*
X314738Y789161D01*
X314865Y789071D01*
X315064Y789016D01*
X315245Y788944D01*
X315427Y788835D01*
X315680Y788690D01*
X316043Y788436D01*
X316115Y788400D01*
X316441Y788255D01*
X316514Y788219D01*
X316623Y788110D01*
X316876Y787965D01*
X317130Y787856D01*
X317529Y787639D01*
X317746Y787421D01*
X317928Y787312D01*
X318073Y787276D01*
X318399Y787131D01*
X318652Y786986D01*
X318924Y786823D01*
X319124Y786660D01*
X319305Y786588D01*
X319559Y786479D01*
X319667Y786370D01*
X320646Y785863D01*
X320773Y785736D01*
X320972Y785573D01*
X321117Y785536D01*
X321444Y785391D01*
X321770Y785210D01*
X321842Y785138D01*
X321915Y785101D01*
X322060Y784956D01*
X322223Y784757D01*
X322259Y784431D01*
X322223Y784322D01*
X322241Y743453D01*
X322223Y742999D01*
X322259Y742746D01*
X322295Y742601D01*
X322368Y742420D01*
X322404Y741151D01*
X322513Y740535D01*
X322549Y740426D01*
X322585Y740027D01*
X322658Y739737D01*
X322839Y739483D01*
X322912Y739157D01*
X323020Y738904D01*
X323238Y738505D01*
X323528Y737888D01*
X323600Y737599D01*
X323818Y737381D01*
X324035Y736982D01*
X324180Y736837D01*
X324325Y736584D01*
X324452Y736457D01*
X324525Y736421D01*
X324543Y736366D01*
X324978Y735931D01*
X325177Y735768D01*
X325250Y735732D01*
X325322Y735659D01*
X325395Y735623D01*
X325703Y735315D01*
X325739Y735242D01*
X325793Y735188D01*
X325866Y735152D01*
X326083Y734934D01*
X326337Y734789D01*
X326591Y734681D01*
X326663Y734644D01*
X326736Y734572D01*
X326990Y734427D01*
X327243Y734318D01*
X327388Y734173D01*
X328222Y733738D01*
X328476Y733629D01*
X328548Y733593D01*
X328621Y733521D01*
X328820Y733394D01*
X329056Y733303D01*
X329473Y733067D01*
X329672Y733013D01*
X329853Y732941D01*
X330034Y732832D01*
X330288Y732687D01*
X330542Y732578D01*
X330614Y732542D01*
X330741Y732415D01*
X330977Y732325D01*
X331122Y732288D01*
X331575Y732053D01*
X331919Y731926D01*
X332028Y731817D01*
X332282Y731636D01*
X332427Y731600D01*
X332608Y731527D01*
X332916Y731364D01*
X333152Y731273D01*
X333405Y731164D01*
X333478Y731092D01*
X333732Y730947D01*
X333913Y730875D01*
X334094Y730766D01*
X334294Y730639D01*
X334493Y730585D01*
X334892Y730403D01*
X335145Y730258D01*
X335399Y730150D01*
X335472Y730113D01*
X335544Y730041D01*
X335870Y729860D01*
X336015Y729823D01*
X336396Y729624D01*
X336632Y729533D01*
X336813Y729461D01*
X336922Y729352D01*
X337175Y729207D01*
X337574Y729026D01*
X337773Y728899D01*
X337973Y728845D01*
X338299Y728700D01*
X338698Y728482D01*
X338879Y728410D01*
X338988Y728301D01*
X339114Y728210D01*
X339350Y728120D01*
X339495Y728083D01*
X339876Y727884D01*
X340111Y727794D01*
X340347Y727667D01*
X340546Y727504D01*
X340728Y727431D01*
X340963Y727340D01*
X341181Y727195D01*
X341416Y727105D01*
X341561Y727068D01*
X341742Y726996D01*
X341815Y726924D01*
X342069Y726778D01*
X342322Y726670D01*
X342395Y726597D01*
X342721Y726416D01*
X342866Y726380D01*
X343555Y726054D01*
X343700Y726017D01*
X343936Y725782D01*
X344280Y725655D01*
X344534Y725546D01*
X344588Y725492D01*
X344932Y725365D01*
X345113Y725292D01*
X345186Y725256D01*
X345258Y725184D01*
X345585Y725002D01*
X345838Y724894D01*
X345947Y724785D01*
X346020Y724749D01*
X346201Y724676D01*
X346346Y724640D01*
X346600Y724531D01*
X346998Y724314D01*
X347180Y724241D01*
X347252Y724205D01*
X347415Y724042D01*
X347760Y723915D01*
X348013Y723806D01*
X348068Y723752D01*
X348249Y723679D01*
X348593Y723552D01*
X348702Y723444D01*
X349028Y723262D01*
X349355Y723118D01*
X349427Y723045D01*
X349935Y722864D01*
X350116Y722755D01*
X350188Y722719D01*
X350243Y722664D01*
X350478Y722574D01*
X350659Y722501D01*
X350768Y722393D01*
X350895Y722302D01*
X351239Y722175D01*
X351856Y721885D01*
X352037Y721813D01*
X352109Y721776D01*
X352218Y721668D01*
X352345Y721577D01*
X352689Y721450D01*
X352961Y721287D01*
X353306Y721160D01*
X353451Y721124D01*
X353505Y721069D01*
X353722Y720925D01*
X354121Y720743D01*
X354320Y720580D01*
X354610Y720471D01*
X355082Y720254D01*
X355154Y720218D01*
X355517Y720073D01*
X355607Y719982D01*
X355807Y719819D01*
X355952Y719783D01*
X356495Y719529D01*
X356677Y719456D01*
X356930Y719384D01*
X357039Y719275D01*
X357438Y719058D01*
X357619Y718985D01*
X357746Y718858D01*
X357927Y718786D01*
X358126Y718732D01*
X358308Y718659D01*
X358525Y718514D01*
X358598Y718478D01*
X358960Y718333D01*
X359069Y718224D01*
X359395Y718043D01*
X359540Y718007D01*
X359794Y717898D01*
X359848Y717843D01*
X360410Y717644D01*
X360537Y717481D01*
X360573Y713240D01*
Y713204D01*
Y688700D01*
X360537Y688555D01*
X360483Y688501D01*
X360301Y688392D01*
X359957Y688410D01*
X356822Y688392D01*
X356713Y688428D01*
X356242Y688392D01*
X356097Y688428D01*
X355988Y688465D01*
X355299Y688501D01*
X355045Y688537D01*
X354864Y688609D01*
X354774Y688700D01*
X354429Y688827D01*
X354175Y688936D01*
X354103Y688972D01*
X354030Y689044D01*
X353632Y689262D01*
X353559Y689298D01*
X353414Y689443D01*
X353342Y689479D01*
X353215Y689606D01*
X353179Y689679D01*
X352726Y690132D01*
X352653Y690168D01*
X352508Y690313D01*
X352417Y690549D01*
X352345Y690730D01*
X352272Y690803D01*
X352236Y690875D01*
X352164Y690947D01*
X352073Y691183D01*
X352019Y691382D01*
X351838Y691636D01*
X351801Y692144D01*
X351729Y692397D01*
X351693Y692506D01*
X351711Y692850D01*
X351693Y705664D01*
X351729Y705773D01*
X351693Y705954D01*
X351729Y706063D01*
X351693Y706244D01*
X351656Y706389D01*
X351602Y706443D01*
X351384Y706480D01*
X351239Y706516D01*
X351040Y706570D01*
X350895Y706607D01*
X350587Y706661D01*
X350224Y706806D01*
X350116Y706842D01*
X349681Y706878D01*
X349427Y706915D01*
X349228Y706969D01*
X348956Y707023D01*
X348557Y707205D01*
X348050Y707241D01*
X347905Y707277D01*
X347651Y707386D01*
X347252Y707603D01*
X346781Y707640D01*
X346491Y707712D01*
X346255Y707803D01*
X345802Y707966D01*
X345295Y708038D01*
X345077Y708183D01*
X344787Y708292D01*
X344534Y708365D01*
X344352Y708437D01*
X344298Y708492D01*
X344117Y708564D01*
X343845Y708618D01*
X343700Y708655D01*
X343446Y708691D01*
X343192Y708800D01*
X343102Y708890D01*
X342757Y709017D01*
X342304Y709253D01*
X341887Y709343D01*
X341742Y709380D01*
X341489Y709488D01*
X341235Y709561D01*
X341054Y709633D01*
X340800Y709742D01*
X340691Y709851D01*
X340438Y710032D01*
X340111Y710068D01*
X339658Y710304D01*
X339477Y710376D01*
X339278Y710431D01*
X339006Y710594D01*
X338770Y710685D01*
X338299Y710902D01*
X338172Y710993D01*
X337828Y711119D01*
X337574Y711228D01*
X337248Y711409D01*
X336994Y711518D01*
X336885Y711627D01*
X336813Y711663D01*
X336758Y711718D01*
X336523Y711808D01*
X336197Y711953D01*
X335870Y712134D01*
X335617Y712316D01*
X335290Y712497D01*
X335109Y712569D01*
X335037Y712606D01*
X334964Y712678D01*
X334765Y712805D01*
X334565Y712859D01*
X334348Y713004D01*
X334094Y713149D01*
X333985Y713258D01*
X333913Y713294D01*
X333840Y713367D01*
X333713Y713457D01*
X333369Y713584D01*
X333297Y713657D01*
X333224Y713693D01*
X333170Y713747D01*
X332735Y713965D01*
X332699Y714037D01*
X332572Y714164D01*
X332499Y714201D01*
X332209Y714382D01*
X332082Y714472D01*
X331738Y714599D01*
X331521Y714817D01*
X331267Y714962D01*
X331194Y714998D01*
X331140Y715052D01*
X331104Y715125D01*
X331013Y715179D01*
X330941Y715216D01*
X330614Y715360D01*
X330542Y715433D01*
X330288Y715578D01*
X330197Y715668D01*
X330161Y715741D01*
X329998Y715904D01*
X329926Y715940D01*
X329744Y716013D01*
X329654Y716104D01*
X329309Y716339D01*
X329237Y716375D01*
X329019Y716593D01*
X328893Y716684D01*
X328693Y716847D01*
X328367Y717028D01*
X328294Y717064D01*
X328204Y717155D01*
X328004Y717318D01*
X327932Y717354D01*
X327805Y717481D01*
X327769Y717553D01*
X327678Y717644D01*
X327425Y717789D01*
X327352Y717825D01*
X327171Y718007D01*
X327098Y718043D01*
X327044Y718097D01*
X327008Y718170D01*
X326917Y718260D01*
X326663Y718405D01*
X326591Y718478D01*
X326518Y718514D01*
X326464Y718568D01*
X326265Y718732D01*
X326192Y718768D01*
X326029Y718967D01*
X325830Y719130D01*
X325757Y719166D01*
X325540Y719384D01*
X325467Y719420D01*
X325213Y719674D01*
X325141Y719710D01*
X325014Y719837D01*
X324978Y719910D01*
X324905Y719982D01*
X324869Y720054D01*
X324815Y720073D01*
X324597Y720290D01*
X324271Y720544D01*
X324198Y720580D01*
X323981Y720798D01*
X323909Y720834D01*
X323854Y720888D01*
X323818Y720961D01*
X323764Y720979D01*
X323474Y721269D01*
X323401Y721305D01*
X323383Y721359D01*
X321770Y722972D01*
X321697Y723009D01*
X321552Y723226D01*
X321462Y723462D01*
X321335Y723589D01*
X321262Y723625D01*
X320936Y723951D01*
X320864Y723988D01*
X320845Y724042D01*
X320773Y724114D01*
X320737Y724187D01*
X320682Y724241D01*
X320555Y724332D01*
X320519Y724404D01*
X320374Y724549D01*
X320175Y724712D01*
X319939Y725057D01*
X319903Y725129D01*
X319831Y725202D01*
X319794Y725274D01*
X319740Y725329D01*
X319667Y725365D01*
X319504Y725528D01*
X319414Y725655D01*
X319069Y726108D01*
X319033Y726180D01*
X318906Y726307D01*
X318834Y726344D01*
X318779Y726398D01*
X318743Y726470D01*
X318634Y726579D01*
X318598Y726652D01*
X318489Y726760D01*
X318344Y727014D01*
X318308Y727087D01*
X318145Y727250D01*
X317891Y727648D01*
X317819Y727685D01*
X317619Y727957D01*
X317583Y728029D01*
X317438Y728174D01*
X317221Y728573D01*
X316786Y729008D01*
X316568Y729407D01*
X316423Y729551D01*
X316278Y729805D01*
X316151Y729932D01*
X316079Y729968D01*
X315843Y730421D01*
X315807Y730494D01*
X315735Y730566D01*
X315517Y730965D01*
X315481Y731038D01*
X315372Y731146D01*
X315336Y731219D01*
X315282Y731273D01*
X315191Y731509D01*
X315046Y731654D01*
X314828Y732053D01*
X314792Y732125D01*
X314647Y732270D01*
X314466Y732596D01*
X314357Y732705D01*
X314176Y733031D01*
X314085Y733231D01*
X313904Y733521D01*
X313850Y733720D01*
X313777Y733901D01*
X313687Y733992D01*
X313614Y734028D01*
X313560Y734082D01*
X313342Y734481D01*
X313197Y734735D01*
X313161Y734880D01*
X313088Y735061D01*
X312980Y735170D01*
X312726Y735641D01*
X312527Y735913D01*
X312436Y736149D01*
X312327Y736402D01*
X312291Y736475D01*
X312237Y736529D01*
X312110Y736874D01*
X312037Y737055D01*
X311892Y737200D01*
X311856Y737272D01*
X311784Y737345D01*
X311747Y737599D01*
X311675Y737888D01*
X311512Y738160D01*
X311421Y738396D01*
X311312Y738650D01*
X311240Y738722D01*
X311059Y739048D01*
X310823Y739501D01*
X310769Y739773D01*
X310732Y739918D01*
X310587Y740245D01*
X310551Y740317D01*
X310479Y740390D01*
X310406Y740571D01*
X310370Y740716D01*
X310297Y740970D01*
X310134Y741133D01*
X310062Y741314D01*
X310007Y741658D01*
X309935Y741948D01*
X309826Y742130D01*
X309736Y742365D01*
X309681Y742673D01*
X309500Y743072D01*
X309355Y743326D01*
X309319Y743543D01*
X309137Y743942D01*
X309047Y744177D01*
X309011Y744359D01*
X308956Y744667D01*
X308920Y744921D01*
X308884Y745066D01*
X308811Y745247D01*
X308757Y745301D01*
X308594Y745754D01*
X308557Y745899D01*
X308485Y746153D01*
X308449Y746298D01*
X308394Y746497D01*
X308322Y746679D01*
X308286Y746824D01*
X308231Y747023D01*
X308123Y747277D01*
X308086Y747784D01*
X307978Y748038D01*
X307941Y748437D01*
X307905Y748582D01*
X307778Y748817D01*
X307687Y749053D01*
X307651Y749198D01*
X307615Y749307D01*
X307579Y749597D01*
X307542Y749705D01*
X307506Y750140D01*
X307343Y750521D01*
X307307Y751137D01*
X307271Y751318D01*
X307216Y751663D01*
X307180Y752025D01*
X306999Y752279D01*
X307035Y752641D01*
X306890Y752968D01*
X306854Y753765D01*
X306763Y753964D01*
X306691Y754146D01*
X306709Y754780D01*
X306600Y755034D01*
X306564Y755831D01*
X306528Y755940D01*
X306491Y757607D01*
X306455Y757861D01*
X306383Y758042D01*
X306310Y758115D01*
X306274Y758586D01*
X306310Y758695D01*
X306274Y758731D01*
X306292Y760489D01*
X306274Y760725D01*
X306238Y760978D01*
X306201Y761087D01*
X306165Y762863D01*
X306201Y763117D01*
X306256Y763316D01*
X306292Y763461D01*
X306274Y766126D01*
X306310Y766271D01*
X306455Y766488D01*
X306491Y768047D01*
X306528Y768156D01*
X306564Y768989D01*
X306600Y769134D01*
X306673Y769315D01*
X306709Y770040D01*
X306745Y770185D01*
X306818Y770367D01*
X306854Y770983D01*
X306890Y771128D01*
X307035Y771454D01*
X306999Y771853D01*
X307089Y772052D01*
X307162Y772233D01*
X307216Y772505D01*
X307253Y772868D01*
X307289Y772977D01*
X307325Y773557D01*
X307452Y773865D01*
X307488Y774227D01*
X307561Y774517D01*
X307615Y774970D01*
X307724Y775224D01*
X307905Y775550D01*
X307941Y775985D01*
X308014Y776420D01*
X308086Y776710D01*
X308231Y777181D01*
X308304Y777471D01*
X308358Y777671D01*
X308394Y777816D01*
X308539Y778214D01*
X308594Y778450D01*
X308666Y778704D01*
X308920Y779247D01*
X308992Y779827D01*
X309101Y780190D01*
X309192Y780353D01*
X309282Y780589D01*
X309319Y780734D01*
X309391Y780987D01*
X309645Y781350D01*
X309681Y781785D01*
X309627Y781948D01*
X309373Y782093D01*
X309047Y782238D01*
X308648Y782455D01*
X308557Y782546D01*
X308521Y782618D01*
X308467Y782637D01*
X308412Y782691D01*
X308177Y782782D01*
X307996Y782854D01*
X307833Y783017D01*
X307597Y783108D01*
X307416Y783180D01*
X307361Y783235D01*
X307162Y783398D01*
X307089Y783434D01*
X306836Y783543D01*
X306763Y783615D01*
X306437Y783796D01*
X306183Y783869D01*
X305966Y784014D01*
X305712Y784195D01*
X305639Y784231D01*
X305531Y784340D01*
X305277Y784485D01*
X305132Y784521D01*
X304951Y784594D01*
X304842Y784703D01*
X304661Y784811D01*
X304480Y784884D01*
X303972Y785246D01*
X303501Y785500D01*
X303356Y785536D01*
X303157Y785627D01*
X303120Y785699D01*
X303030Y785790D01*
X302776Y785935D01*
X302323Y786171D01*
X302087Y786261D01*
X302015Y786334D01*
X301942Y786370D01*
X301888Y786424D01*
X301380Y786678D01*
X301344Y786751D01*
X301254Y786841D01*
X301072Y786950D01*
X300456Y787240D01*
X300275Y787312D01*
X300221Y787367D01*
X300021Y787530D01*
X299822Y787657D01*
X299622Y787711D01*
X299332Y787893D01*
X299006Y788074D01*
X298934Y788110D01*
X298807Y788237D01*
X298571Y788327D01*
X298317Y788436D01*
X298172Y788581D01*
X297774Y788799D01*
X297302Y789052D01*
X297067Y789288D01*
X296723Y789415D01*
X296541Y789487D01*
X296433Y789596D01*
X296179Y789741D01*
X295998Y789922D01*
X295925Y789959D01*
X295816Y790067D01*
X295744Y790104D01*
X295581Y790267D01*
X295544Y790339D01*
X295363Y790520D01*
X295327Y790593D01*
X295110Y790810D01*
X294747Y791499D01*
X294656Y791807D01*
X294511Y792025D01*
X294457Y792224D01*
X294421Y792369D01*
X294366Y792532D01*
X294330Y792750D01*
X294348Y794145D01*
X294529Y794544D01*
X294566Y794689D01*
X294747Y795160D01*
X295001Y795704D01*
X295110Y795958D01*
X295200Y796048D01*
X295273Y796085D01*
X295544Y796610D01*
X295690Y796864D01*
X295762Y797045D01*
X295853Y797208D01*
X296016Y797408D01*
X296052Y797480D01*
X296215Y797861D01*
X296378Y798060D01*
X296741Y798749D01*
X296904Y799021D01*
X296976Y799057D01*
X297031Y799111D01*
X297230Y799166D01*
X297484Y799129D01*
D02*
G37*
%LPC*%
G36*
X364615Y790792D02*
X360900Y790774D01*
X360537Y790702D01*
X360211Y790666D01*
X359576Y790684D01*
X359286Y790611D01*
X359105Y790539D01*
X358562Y790502D01*
X358308Y790466D01*
X358199Y790430D01*
X357510Y790394D01*
X357257Y790285D01*
X356858Y790249D01*
X356604Y790140D01*
X356242Y790104D01*
X356097Y790067D01*
X355897Y790013D01*
X355680Y789904D01*
X355480Y789850D01*
X355172Y789759D01*
X354955Y789723D01*
X354592Y789650D01*
X354393Y789596D01*
X354067Y789451D01*
X353922Y789415D01*
X353668Y789379D01*
X353360Y789252D01*
X353161Y789089D01*
X352834Y789016D01*
X352581Y788980D01*
X352291Y788799D01*
X351964Y788726D01*
X351511Y788527D01*
X351149Y788382D01*
X350913Y788291D01*
X350696Y788146D01*
X350442Y788001D01*
X350297Y787965D01*
X349844Y787729D01*
X349500Y787602D01*
X349336Y787512D01*
X349300Y787439D01*
X349246Y787421D01*
X349191Y787367D01*
X348847Y787240D01*
X348593Y787059D01*
X348412Y786950D01*
X348158Y786878D01*
X348104Y786823D01*
X347887Y786642D01*
X347651Y786551D01*
X347560Y786461D01*
X347361Y786298D01*
X347252Y786261D01*
X346980Y786098D01*
X346636Y785863D01*
X346509Y785772D01*
X346473Y785699D01*
X346020Y785464D01*
X345965Y785409D01*
X345766Y785246D01*
X345694Y785210D01*
X345476Y784993D01*
X345222Y784848D01*
X345023Y784648D01*
X344624Y784395D01*
X344588Y784322D01*
X344352Y784087D01*
X344280Y784050D01*
X344171Y783941D01*
X343917Y783796D01*
X343700Y783579D01*
X343627Y783543D01*
X343555Y783470D01*
X343482Y783434D01*
X343428Y783343D01*
X343392Y783271D01*
X342902Y782782D01*
X342830Y782745D01*
X342775Y782691D01*
X342739Y782618D01*
X341887Y781767D01*
X341815Y781730D01*
X341724Y781640D01*
X341688Y781567D01*
X341199Y781078D01*
X341126Y781042D01*
X340999Y780879D01*
X340963Y780806D01*
X340891Y780625D01*
X340746Y780480D01*
X340655Y780353D01*
X340583Y780317D01*
X340474Y780208D01*
X340238Y779864D01*
X340202Y779791D01*
X339984Y779574D01*
X339948Y779501D01*
X339694Y779139D01*
X339658Y779066D01*
X339495Y778903D01*
X339423Y778867D01*
X339296Y778704D01*
X339223Y778522D01*
X339078Y778305D01*
X338897Y777979D01*
X338861Y777906D01*
X338680Y777725D01*
X338643Y777653D01*
X338462Y777399D01*
X338208Y776927D01*
X338136Y776746D01*
X338063Y776674D01*
X337810Y776203D01*
X337665Y776058D01*
X337302Y775369D01*
X337266Y775296D01*
X337193Y775115D01*
X337121Y774861D01*
X336885Y774626D01*
X336758Y774281D01*
X336559Y773901D01*
X336468Y773484D01*
X336360Y773230D01*
X336287Y773158D01*
X336142Y772904D01*
X336070Y772614D01*
X335979Y772415D01*
X335834Y772197D01*
X335798Y772052D01*
X335743Y771708D01*
X335671Y771418D01*
X335544Y771182D01*
X335472Y771001D01*
X335417Y770802D01*
X335345Y770512D01*
X335145Y770095D01*
X335109Y769950D01*
X335019Y769533D01*
X334982Y769388D01*
X334946Y769134D01*
X334892Y768935D01*
X334819Y768754D01*
X334765Y768300D01*
X334729Y768192D01*
X334692Y767866D01*
X334656Y767612D01*
X334602Y767557D01*
X334439Y767358D01*
X334402Y767104D01*
X334439Y766996D01*
X334420Y766833D01*
X334384Y766651D01*
X334312Y766216D01*
X334330Y765799D01*
X334294Y765654D01*
X334148Y765328D01*
X334112Y764494D01*
X334148Y764350D01*
X334112Y764096D01*
X334076Y763987D01*
X334040Y760290D01*
X334076Y760181D01*
X334112Y758912D01*
X334185Y758622D01*
X334275Y758423D01*
X334312Y758278D01*
X334348Y757662D01*
X334384Y757480D01*
X334439Y757136D01*
X334402Y757027D01*
X334475Y756737D01*
X334620Y756592D01*
X334656Y756411D01*
X334692Y756049D01*
X334729Y755940D01*
X334765Y755469D01*
X334801Y755324D01*
X334892Y755124D01*
X334964Y754834D01*
X335000Y754653D01*
X335091Y754128D01*
X335127Y753983D01*
X335182Y753783D01*
X335399Y753421D01*
X335490Y753004D01*
X335689Y752587D01*
X335725Y752442D01*
X335780Y752098D01*
X335816Y751953D01*
X335888Y751771D01*
X335979Y751681D01*
X336070Y751445D01*
X336106Y751300D01*
X336178Y751047D01*
X336378Y750775D01*
X336450Y750593D01*
X336487Y750448D01*
X336541Y750213D01*
X336704Y749941D01*
X336831Y749597D01*
X336903Y749415D01*
X337103Y749216D01*
X337266Y748763D01*
X337447Y748473D01*
X337483Y748328D01*
X337556Y748147D01*
X337810Y747893D01*
X337846Y747820D01*
X337991Y747494D01*
X338172Y747168D01*
X338281Y746914D01*
X338335Y746860D01*
X338571Y746516D01*
X338607Y746443D01*
X338788Y746262D01*
X338879Y746135D01*
X338969Y745899D01*
X339078Y745791D01*
X339114Y745718D01*
X339169Y745664D01*
X339296Y745319D01*
X339386Y745229D01*
X339459Y745192D01*
X339568Y745084D01*
X339912Y744631D01*
X339948Y744558D01*
X340021Y744486D01*
X340057Y744413D01*
X340148Y744323D01*
X340401Y743924D01*
X340474Y743887D01*
X340673Y743688D01*
X340709Y743616D01*
X340854Y743471D01*
X340999Y743217D01*
X341090Y743126D01*
X341162Y743090D01*
X341271Y742981D01*
X341416Y742764D01*
X341489Y742728D01*
X342177Y742039D01*
X342250Y742003D01*
X342377Y741840D01*
X342413Y741767D01*
X342467Y741713D01*
X342540Y741676D01*
X342667Y741550D01*
X342703Y741477D01*
X342939Y741314D01*
X343102Y741115D01*
X343138Y741042D01*
X343192Y740988D01*
X343265Y740952D01*
X343319Y740897D01*
X343355Y740825D01*
X343482Y740698D01*
X343555Y740661D01*
X343790Y740426D01*
X343990Y740263D01*
X344062Y740227D01*
X344280Y740009D01*
X344352Y739973D01*
X344570Y739755D01*
X344642Y739719D01*
X344715Y739647D01*
X344787Y739610D01*
X344860Y739538D01*
X344932Y739501D01*
X345077Y739357D01*
X345404Y739103D01*
X345657Y738958D01*
X345911Y738704D01*
X346237Y738523D01*
X346310Y738450D01*
X346382Y738414D01*
X346455Y738342D01*
X346781Y738160D01*
X346853Y738124D01*
X346926Y738052D01*
X346998Y738015D01*
X347216Y737870D01*
X347288Y737834D01*
X347379Y737744D01*
X347578Y737580D01*
X347832Y737435D01*
X348050Y737290D01*
X348195Y737254D01*
X348412Y737109D01*
X348485Y737073D01*
X348575Y736982D01*
X349083Y736729D01*
X349300Y736584D01*
X349536Y736493D01*
X349862Y736348D01*
X349935Y736312D01*
X349989Y736257D01*
X350224Y736167D01*
X350406Y736094D01*
X350478Y736058D01*
X350551Y735985D01*
X350877Y735804D01*
X351113Y735714D01*
X351566Y735551D01*
X351747Y735478D01*
X352127Y735315D01*
X352417Y735134D01*
X352979Y735007D01*
X353215Y734880D01*
X353396Y734807D01*
X353813Y734717D01*
X353958Y734681D01*
X354284Y734536D01*
X354411Y734481D01*
X355009Y734354D01*
X355462Y734155D01*
X355879Y734064D01*
X355988Y734028D01*
X356459Y733992D01*
X356640Y733919D01*
X356785Y733883D01*
X356894Y733847D01*
X357003Y733883D01*
X357148Y733847D01*
X357329Y733774D01*
X357836Y733738D01*
X358036Y733684D01*
X358271Y733593D01*
X358380Y733557D01*
X358670Y733593D01*
X358924Y733557D01*
X359141Y733412D01*
X360338Y733376D01*
X360483Y733339D01*
X360591Y733303D01*
X364651Y733267D01*
X364796Y733303D01*
X364905Y733339D01*
X366174Y733376D01*
X366355Y733448D01*
X366427Y733484D01*
X366500Y733557D01*
X367116Y733593D01*
X367261Y733629D01*
X367442Y733702D01*
X368022Y733738D01*
X368203Y733811D01*
X368602Y733847D01*
X368783Y733919D01*
X368910Y733974D01*
X369381Y734010D01*
X369617Y734064D01*
X370052Y734173D01*
X370251Y734264D01*
X370596Y734391D01*
X370886Y734463D01*
X371194Y734554D01*
X371375Y734626D01*
X371955Y734771D01*
X372191Y734826D01*
X372463Y734989D01*
X372644Y735061D01*
X373024Y735152D01*
X373206Y735224D01*
X373278Y735297D01*
X373405Y735387D01*
X373641Y735478D01*
X373894Y735514D01*
X374202Y735677D01*
X374547Y735804D01*
X374692Y735841D01*
X374837Y735985D01*
X375163Y736167D01*
X375779Y736457D01*
X376178Y736638D01*
X376577Y736855D01*
X376722Y736892D01*
X376830Y737001D01*
X377229Y737218D01*
X377410Y737327D01*
X377610Y737454D01*
X377845Y737544D01*
X377918Y737617D01*
X377990Y737653D01*
X378135Y737798D01*
X378462Y737979D01*
X378534Y738052D01*
X379005Y738305D01*
X379205Y738505D01*
X379422Y738650D01*
X379622Y738813D01*
X379803Y738922D01*
X380020Y739139D01*
X380419Y739357D01*
X380491Y739393D01*
X380510Y739447D01*
X380854Y739791D01*
X380926Y739828D01*
X380981Y739882D01*
X381216Y739973D01*
X381343Y740100D01*
X381380Y740172D01*
X381670Y740462D01*
X381706Y740535D01*
X381760Y740589D01*
X381833Y740625D01*
X382159Y740952D01*
X382231Y740988D01*
X382304Y741060D01*
X382376Y741096D01*
X382431Y741151D01*
X382467Y741223D01*
X382521Y741241D01*
X382594Y741314D01*
X382666Y741350D01*
X382956Y741640D01*
X383029Y741676D01*
X383210Y741858D01*
X383446Y742202D01*
X383482Y742274D01*
X383573Y742365D01*
X383699Y742456D01*
X383736Y742528D01*
X383844Y742637D01*
X383881Y742710D01*
X383935Y742728D01*
X384098Y742891D01*
X384134Y742963D01*
X384261Y743090D01*
X384334Y743126D01*
X384424Y743217D01*
X384461Y743289D01*
X384551Y743380D01*
X384624Y743416D01*
X384678Y743471D01*
X384896Y743869D01*
X385041Y744014D01*
X385222Y744268D01*
X385258Y744341D01*
X385385Y744431D01*
X385548Y744631D01*
X385584Y744703D01*
X385765Y744957D01*
X385802Y745029D01*
X385874Y745102D01*
X385910Y745174D01*
X386128Y745392D01*
X386309Y745718D01*
X386382Y745791D01*
X386527Y746044D01*
X386672Y746262D01*
X386708Y746334D01*
X386781Y746407D01*
X386962Y746733D01*
X387107Y746878D01*
X387197Y747005D01*
X387288Y747241D01*
X387433Y747458D01*
X387524Y747585D01*
X387614Y747820D01*
X387687Y748002D01*
X387723Y748074D01*
X387795Y748147D01*
X387977Y748473D01*
X388049Y748654D01*
X388158Y748763D01*
X388303Y749017D01*
X388448Y749343D01*
X388593Y749597D01*
X388665Y749887D01*
X388738Y750068D01*
X388792Y750122D01*
X388974Y750412D01*
X389046Y750702D01*
X389100Y750901D01*
X389227Y751137D01*
X389354Y751481D01*
X389390Y751627D01*
X389463Y751808D01*
X389535Y751880D01*
X389717Y752206D01*
X389789Y752496D01*
X389952Y753022D01*
X390133Y753747D01*
X390170Y753928D01*
X390224Y754128D01*
X390278Y754182D01*
X390405Y754526D01*
X390460Y754726D01*
X390496Y754907D01*
X390568Y755197D01*
X390659Y755433D01*
X390732Y755723D01*
X390768Y756194D01*
X390804Y756448D01*
X390877Y756737D01*
X390913Y756846D01*
X390895Y757009D01*
X390913Y757136D01*
X391021Y757390D01*
X391058Y757825D01*
X391094Y758187D01*
X391130Y758332D01*
X391166Y758441D01*
X391203Y758695D01*
X391166Y759166D01*
X391203Y759311D01*
X391384Y759710D01*
X391420Y764168D01*
X391203Y764640D01*
X391221Y765419D01*
X391203Y765546D01*
X391166Y765691D01*
X391094Y765872D01*
X391058Y766488D01*
X391021Y766742D01*
X390967Y766796D01*
X390895Y766977D01*
X390913Y767286D01*
X390877Y767431D01*
X390804Y767612D01*
X390768Y768047D01*
X390732Y768192D01*
X390695Y768554D01*
X390659Y768699D01*
X390496Y769007D01*
X390460Y769189D01*
X390423Y769515D01*
X390369Y769750D01*
X390297Y769932D01*
X390224Y770004D01*
X390170Y770131D01*
X390133Y770276D01*
X390097Y770493D01*
X390025Y770783D01*
X389988Y770965D01*
X389934Y771200D01*
X389880Y771255D01*
X389807Y771436D01*
X389717Y771853D01*
X389644Y772034D01*
X389572Y772107D01*
X389481Y772233D01*
X389354Y772578D01*
X389191Y772995D01*
X389028Y773448D01*
X388992Y773593D01*
X388919Y773774D01*
X388738Y774028D01*
X388702Y774100D01*
X388520Y774499D01*
X388430Y774626D01*
X388303Y774970D01*
X388230Y775151D01*
X388067Y775387D01*
X387940Y775731D01*
X387850Y775894D01*
X387687Y776094D01*
X387650Y776166D01*
X387433Y776637D01*
X387215Y777036D01*
X387034Y777217D01*
X386817Y777616D01*
X386781Y777689D01*
X386708Y777761D01*
X386599Y777943D01*
X386527Y778124D01*
X386400Y778251D01*
X386164Y778595D01*
X386128Y778667D01*
X386055Y778740D01*
X385802Y779066D01*
X385765Y779139D01*
X385584Y779392D01*
X385548Y779465D01*
X385367Y779646D01*
X385186Y779900D01*
X385149Y779972D01*
X385059Y780063D01*
X384986Y780099D01*
X384823Y780335D01*
X384787Y780407D01*
X384569Y780625D01*
X384424Y780879D01*
X384334Y780969D01*
X384261Y781005D01*
X383808Y781459D01*
X383772Y781531D01*
X383645Y781658D01*
X383518Y781749D01*
X383083Y782328D01*
X382884Y782492D01*
X382811Y782528D01*
X382630Y782709D01*
X382558Y782745D01*
X382304Y782999D01*
X382231Y783035D01*
X382068Y783198D01*
X382032Y783271D01*
X381869Y783434D01*
X381796Y783470D01*
X381670Y783597D01*
X381633Y783670D01*
X381361Y783869D01*
X381289Y783905D01*
X381144Y784050D01*
X381071Y784087D01*
X380890Y784268D01*
X380818Y784304D01*
X380800Y784358D01*
X380709Y784449D01*
X380636Y784485D01*
X380546Y784576D01*
X380201Y784811D01*
X380129Y784848D01*
X380002Y784975D01*
X379911Y785101D01*
X379585Y785283D01*
X379513Y785355D01*
X379114Y785573D01*
X379023Y785663D01*
X378987Y785736D01*
X378933Y785790D01*
X378534Y786008D01*
X378462Y786080D01*
X377990Y786334D01*
X377918Y786370D01*
X377845Y786443D01*
X377392Y786714D01*
X377193Y786878D01*
X376794Y787095D01*
X376667Y787186D01*
X376432Y787276D01*
X376178Y787385D01*
X376105Y787421D01*
X376033Y787494D01*
X375779Y787639D01*
X375453Y787784D01*
X375381Y787820D01*
X375326Y787874D01*
X374982Y788001D01*
X374782Y788092D01*
X374492Y788273D01*
X374311Y788346D01*
X374112Y788400D01*
X373822Y788581D01*
X373532Y788690D01*
X373296Y788781D01*
X372789Y788962D01*
X372644Y788998D01*
X372263Y789089D01*
X371865Y789342D01*
X371176Y789487D01*
X370994Y789560D01*
X370958D01*
X370940Y789578D01*
X370541Y789723D01*
X370125Y789777D01*
X369835Y789850D01*
X369635Y789940D01*
X369454Y790013D01*
X369146Y790067D01*
X369001Y790104D01*
X368747Y790212D01*
X368348Y790249D01*
X368095Y790357D01*
X367660Y790394D01*
X367406Y790430D01*
X367297Y790466D01*
X366572Y790502D01*
X366246Y790647D01*
X365159Y790684D01*
X364724Y790756D01*
X364615Y790792D01*
D02*
G37*
G36*
X233905Y735587D02*
X233724Y735297D01*
X233561Y735097D01*
X233416Y734844D01*
X233379Y734771D01*
X233198Y734590D01*
X233035Y734282D01*
X232872Y734082D01*
X232727Y733829D01*
X232691Y733756D01*
X232509Y733575D01*
X232328Y733249D01*
X232292Y733176D01*
X232183Y733067D01*
X232002Y732741D01*
X231821Y732560D01*
X231639Y732234D01*
X231603Y732161D01*
X231549Y732107D01*
X231386Y731908D01*
X231349Y731763D01*
X231132Y731545D01*
X230951Y731219D01*
X230914Y731146D01*
X230806Y731038D01*
X230769Y730965D01*
X230697Y730893D01*
X230661Y730748D01*
X230480Y730566D01*
X230262Y730168D01*
X230117Y730023D01*
X229900Y729624D01*
X229755Y729479D01*
X229573Y729153D01*
X229428Y729008D01*
X229211Y728609D01*
X229066Y728464D01*
X228885Y728138D01*
X228740Y727993D01*
X228522Y727594D01*
X228377Y727449D01*
X228196Y727123D01*
X228051Y726978D01*
X227870Y726652D01*
X227688Y726398D01*
X227652Y726253D01*
X227688Y726144D01*
X227833Y726108D01*
X239958Y726126D01*
X240103Y726090D01*
X240248Y726126D01*
X240303Y726180D01*
X240339Y726289D01*
X240303Y726434D01*
X240230Y726507D01*
X240013Y726905D01*
X239831Y727087D01*
X239686Y727340D01*
X239650Y727413D01*
X239505Y727558D01*
X239469Y727630D01*
X239415Y727685D01*
X239324Y727920D01*
X239179Y728065D01*
X238998Y728392D01*
X238817Y728573D01*
X238780Y728645D01*
X238726Y728700D01*
X238635Y728935D01*
X238490Y729080D01*
X238309Y729407D01*
X238237Y729479D01*
X238200Y729551D01*
X238146Y729570D01*
X238128Y729624D01*
X238037Y729715D01*
X237946Y729950D01*
X237874Y730023D01*
X237838Y730095D01*
X237783Y730113D01*
X237729Y730204D01*
X237584Y730458D01*
X237548Y730530D01*
X237403Y730675D01*
X237222Y731001D01*
X237185Y731074D01*
X237077Y731183D01*
X236895Y731509D01*
X236714Y731690D01*
X236533Y732016D01*
X236497Y732089D01*
X236388Y732198D01*
X236207Y732524D01*
X236025Y732705D01*
X235844Y733031D01*
X235808Y733104D01*
X235699Y733213D01*
X235572Y733412D01*
X235554Y733430D01*
X235445Y733648D01*
X235300Y733792D01*
X235119Y734119D01*
X235065Y734173D01*
X234902Y734372D01*
X234865Y734445D01*
X234793Y734626D01*
X234612Y734807D01*
X234431Y735134D01*
X234358Y735206D01*
X234322Y735279D01*
X234249Y735351D01*
X234213Y735424D01*
X234086Y735551D01*
X233905Y735587D01*
D02*
G37*
%LPD*%
D10*
X210750Y89900D02*
G03*
X210750Y89900I-1250J0D01*
G01*
X104250D02*
G03*
X104250Y89900I-1250J0D01*
G01*
X317250D02*
G03*
X317250Y89900I-1250J0D01*
G01*
D11*
X317000Y-2050D02*
Y99550D01*
X213000Y-2050D02*
X317000D01*
X213000D02*
Y99550D01*
X238400D01*
X261600D02*
X268400D01*
X291600D02*
X317000D01*
X210500Y-2050D02*
Y99550D01*
X106500Y-2050D02*
X210500D01*
X106500D02*
Y99550D01*
X131900D01*
X155100D02*
X161900D01*
X185100D02*
X210500D01*
X423500Y-2050D02*
Y99550D01*
X319500Y-2050D02*
X423500D01*
X319500D02*
Y99550D01*
X344900D01*
X368100D02*
X374900D01*
X398100D02*
X423500D01*
D13*
X464650Y370000D02*
G03*
X464650Y370000I-200000J0D01*
G01*
D14*
X92996Y372960D02*
X95112Y375076D01*
X99344D01*
X101460Y372960D01*
Y364496D01*
X99344Y362380D01*
X95112D01*
X92996Y364496D01*
Y368728D01*
X97228D01*
X198406Y377616D02*
X206870D01*
Y371268D01*
X202638D01*
X206870D01*
Y364920D01*
X284340Y362380D02*
Y375076D01*
X280108Y370844D01*
X275876Y375076D01*
Y362380D01*
X85084Y253997D02*
Y238762D01*
X74928D01*
X59692Y251458D02*
X62232Y253997D01*
X67310D01*
X69849Y251458D01*
Y248919D01*
X67310Y246380D01*
X62232D01*
X59692Y243841D01*
Y241302D01*
X62232Y238762D01*
X67310D01*
X69849Y241302D01*
X54614Y238762D02*
X49536D01*
X52075D01*
Y253997D01*
X54614Y251458D01*
X329773Y141718D02*
X333158D01*
X331466D01*
Y133254D01*
X333158Y131562D01*
X334851D01*
X336544Y133254D01*
X319616Y141718D02*
X326387D01*
Y136640D01*
X323002Y138333D01*
X321309D01*
X319616Y136640D01*
Y133254D01*
X321309Y131562D01*
X324694D01*
X326387Y133254D01*
X115553Y141698D02*
X118938D01*
X117246D01*
Y133234D01*
X118938Y131542D01*
X120631D01*
X122324Y133234D01*
X107089Y131542D02*
Y141698D01*
X112167Y136620D01*
X105396D01*
X225023Y141718D02*
X228408D01*
X226716D01*
Y133254D01*
X228408Y131562D01*
X230101D01*
X231794Y133254D01*
X221637Y140026D02*
X219944Y141718D01*
X216559D01*
X214866Y140026D01*
Y138333D01*
X216559Y136640D01*
X218252D01*
X216559D01*
X214866Y134947D01*
Y133254D01*
X216559Y131562D01*
X219944D01*
X221637Y133254D01*
M02*
