M48
;Layer_Color=9474304
;FILE_FORMAT=2:5
INCH,LZ
;TYPE=PLATED
T1F00S00C0.01181
T2F00S00C0.01772
T3F00S00C0.02756
T4F00S00C0.03937
T5F00S00C0.04016
T6F00S00C0.04094
T7F00S00C0.04331
T8F00S00C0.11811
T9F00S00C0.12500
;TYPE=NON_PLATED
T10F00S00C0.11811
%
T01
X00595Y0013
X006Y00785
X00685Y00745
X0069Y00965
X00845Y01105
X00945Y0085
X0121Y0087
X01345Y0082
X01475Y0099244
X0152Y00995
X01535Y014
X0144Y01365
X01355Y014
X0072Y01395
X0064Y0135
X00445Y01405
X0046Y0151
X0049953Y0155563
X0076Y01495
X00445Y0112
X00165Y01085
X0007Y00795
X00345Y00685
X0029Y00595
X00255Y0055
X01605Y00655
X017Y0070453
X01705Y00935
X0162Y0094
X0157831Y01365
X0157Y01575
X016Y024
X02Y03105
X01445Y03035
X0137Y03095
X01275Y0303
X0085Y0302
X00395Y03105
X00345Y0308
X00365Y0268
X004Y0243
X0048
X00565
X00645
X00705Y0247
X00755Y02475
X00805
X01415Y024
X01475
X015411Y0240028
X015Y01675
X0143Y0164
X0138Y0157
X01245Y01575
X0123Y01675
X00755Y0159
X005Y01635
X00405Y0171
X0016Y0279
X0009Y0329
X00205Y0348
X0074Y0321
X0096705Y03305
X0115996Y0329462
X01385Y0317
X01725Y03305
X0188Y0348
T02
X01185Y0075
X0127
X0057Y0313825
T03
X0172343Y0288
X0152657
X0142842
X0123158
X0085343
X0065658
X0056343
X0036658
T04
X01575Y027
X01475
X01375
X0071
X0061
X0051
T05
X0063067Y004
Y0051811
X0074878
Y004
X0086689
Y0051811
X00985
Y004
X0125678
Y0051811
X0137489
Y004
X01493
Y0051811
X0151906Y0344579
X0140094
Y035639
X0151906
X0116622Y0358
Y0346189
X0104811
X0093
Y0358
X0104811
X0068906Y035639
X0057095
Y0344579
X0068906
T06
X0025984Y010185
Y011185
Y012185
Y013185
Y014185
Y015185
X0096063
Y014185
Y013185
Y012185
Y011185
Y010185
X0112598Y010185
Y011185
Y012185
Y013185
Y014185
Y015185
X0182677
Y014185
Y013185
Y012185
Y011185
Y010185
Y016185
Y017185
Y018185
Y019185
Y020185
Y021185
Y022185
Y023185
Y024185
Y025185
Y026185
Y027185
Y028185
Y029185
X0112598
Y028185
Y027185
Y026185
Y025185
Y024185
Y023185
Y022185
Y021185
Y020185
Y019185
Y018185
Y017185
Y016185
X0096063Y016185
Y017185
Y018185
Y019185
Y020185
Y021185
Y022185
Y023185
Y024185
Y025185
Y026185
Y027185
Y028185
Y029185
X0025984
Y028185
Y027185
Y026185
Y025185
Y024185
Y023185
Y022185
Y021185
Y020185
Y019185
Y018185
Y017185
Y016185
T07
X0006299Y010185
Y011185
Y012185
Y013185
Y014185
Y015185
X0202362
Y014185
Y013185
Y012185
Y011185
Y010185
Y016185
Y017185
Y018185
Y019185
Y020185
Y021185
Y022185
Y023185
Y024185
Y025185
Y026185
Y027185
Y028185
Y029185
X0006299
Y028185
Y027185
Y026185
Y025185
Y024185
Y023185
Y022185
Y021185
Y020185
Y019185
Y018185
Y017185
Y016185
T08
X0023622Y0021654
X0185039
X0023622Y0372047
X0185039
T09
X0061Y01885
X01475
T10
X007Y0023
X0091
X0137489Y0023071
X0146Y0373398
X0104811Y0374929
X0063Y0373398
M30
