M48
;Layer_Color=9474304
;FILE_FORMAT=2:4
METRIC,LZ
;TYPE=PLATED
T1F00S00C0.3000
T2F00S00C1.0000
T3F00S00C1.0200
T4F00S00C1.0400
T5F00S00C1.5400
T6F00S00C3.0000
;TYPE=NON_PLATED
T7F00S00C3.0000
%
T01
X073691Y119349
X102901Y194279
X11811Y21844
X14351Y20447
X13918Y26214
X130841Y276829
X16637Y27813
X166401Y331439
X1524Y332665
X160051Y366999
X09525Y34544
Y31877
X08382Y28321
X035591Y366999
X03175Y38862
X258572Y39497
X256571Y328899
X27432Y32004
Y29718
X27178Y27051
Y24257
X29539Y21896
X32258Y2032
X32131Y26289
X34163Y27559
X34671Y3302
X35306Y339563
X325224
X30376Y32616
X38354Y33909
X39093Y31346
X21082Y31369
X24219Y26924
X231171Y198089
X23876Y14732
X290861Y143479
X402621Y151099
X440721Y194279
X43688Y23749
X480091Y236189
X477551Y273019
X478821Y318739
X47244Y339563
X44323Y33909
X41148Y34036
X434371Y311119
X42291Y26924
X49911Y18034
X46228Y11684
X44196Y42926
X43434Y45847
X44323Y47244
X4572Y47498
X45212Y50165
X44196Y50811
X43434Y53467
X399926Y467305
X40767Y40894
X40259Y60706
X43815Y65151
X42672Y69596
X45339Y72263
X42672Y7493
X34753Y75483
X32553Y75479
X32512Y69215
X25953Y69297
X24638Y67945
X20589Y68692
X21463Y70993
X217201Y618459
X256571Y640049
X29718Y59563
X34417Y61214
X37592Y66802
X37211Y78359
X18589Y7866
X092741Y697199
X06589Y68595
X045751Y636239
X031781Y612109
X030511Y593059
X077472Y496568
X0762Y47498
X08001Y41529
X097821Y410179
X11557Y42418
X13335Y42164
X152431Y482569
X144778Y497838
X13589Y508
X11303Y52832
X213391Y525749
X27051Y53467
X27432Y50927
X26797Y47498
Y43942
X2286Y45339
X194308Y454658
X21844Y42799
X23749Y41656
X32004Y43688
X341386Y435854
X35687Y43561
X349281Y464789
X308151Y470359
X32004Y53975
X354361Y509239
X38989Y53721
X3937Y42164
Y80518
X35306Y81915
X31115Y82677
X28702Y82804
X28575Y84201
X265461Y839439
X269605Y813705
X21905Y79695
X21463Y88138
Y89408
Y90678
X19558
Y89408
Y88138
X29972Y89027
X32131Y89662
X31623Y90678
X33782Y90551
X34671Y89789
X34036Y88011
X3302Y88773
X25654Y93726
X110521Y921989
X04191Y89662
X01397
X027971Y839439
X39735Y85724
X419131Y890239
X44323Y86868
X47879Y85852
X46609Y80518
T02
X11965Y37
X22465
X30465
T03
X1435Y08965
X1735
Y11965
X1435
X25
X28
Y08965
X25
X3565
X3865
Y11965
X3565
T04
X016Y2587
Y2841
Y3095
Y3349
Y3603
Y3857
X514
Y3603
Y3349
Y3095
Y2841
Y2587
Y4111
Y4365
Y4619
Y4873
Y5127
Y5381
Y5635
Y5889
Y6143
Y6397
Y6651
Y6905
Y7159
Y7413
X016
Y7159
Y6905
Y6651
Y6397
Y6143
Y5889
Y5635
Y5381
Y5127
Y4873
Y4619
Y4365
Y4111
T05
X1796Y9196
X2304
Y9704
X1796
X205Y945
X325
X3504Y9704
X2996
Y9196
X3504
T06
X06Y055
X47
X06Y945
X47
T07
X1585Y04645
X265
X3715
M30
