M48
;Layer_Color=9474304
;FILE_FORMAT=4:4
METRIC,LZ
;TYPE=PLATED
T1F00S00C0.9000
T2F00S00C1.8500
T3F00S00C2.0320
%
T01
X0006731Y0002032
X0009271
X0011811
X0014351
X0014946Y0005842
X0012446
Y0009652
X0014946
X0017446
Y0005842
X0018796Y00125984
Y0015748
Y0018923
Y0022098
Y0025273
Y0028448
Y0031623
Y0034798
X0002032
Y0031623
Y0028448
Y0025273
Y0022098
Y0018923
Y0015748
Y0012573
X0003469Y0009652
X0005969
X0008469
Y0005842
X0005969
X0003469
T02
X0005587Y0015367
X0010287
X0014987
Y0022352
X0010287
X0005587
Y0029337
X0010287
X0014987
Y0036322
X0010287
X0005587
T03
X0002159Y0002159
X0018796
Y0037846
X0002159
M30
