M48
;Layer_Color=9474304
;FILE_FORMAT=4:4
METRIC,LZ
;TYPE=PLATED
T1F00S00C0.2500
T2F00S00C0.9000
T3F00S00C1.0200
T4F00S00C1.2000
T5F00S00C3.2000
;TYPE=NON_PLATED
T6F00S00C3.0000
%
T01
X0008001Y0002159
X00107567Y00051382
X0008636Y000762
X00057706Y00100496
X000635Y0012192
X0006477Y0016129
X0010511Y0016099
X0010414Y0017653
X001016Y0020447
X00066088Y0021463
X0002413Y0022352
X0002794Y0028321
X0005588Y0027178
X0007112Y0031623
X000879Y0031877
X0015748Y0030861
X0019812Y0031115
X0023622Y0032385
X0024638Y0029845
Y0023876
X0024003Y0020447
X0023846Y0016099
X0025527Y0016129
X0029083Y0012065
X00293465Y00100235
X0026035Y0008001
X0023876Y0004953
X0026543Y0002413
X0018923Y0010414
X0016129Y0011938
X0017145Y0016256
X0019558Y0025908
X0028321Y0023368
X003302
X00320246Y0028194
X0030099Y0032004
X0025146Y0037084
X0023368Y0037338
X0001905
X0002032Y0010922
X0002921Y0042926
X0008255Y0042799
X0011049Y0043815
X0013335Y004318
X0015748Y0044069
X0017272Y004064
X0019812Y0041656
X0025273Y0041275
X0027813Y0042291
X0030607
X0033909Y0042164
X0032131Y0048768
X003175Y0051943
X0027686Y0051816
X00244877Y00522203
X0024765Y0054483
X0018288
X0016168Y0052451
X0013882Y0052705
X0012954Y0048895
X0009525Y0049911
X0002794Y0050038
X0002413Y0066802
X0011303
X0010033Y0064516
X0017272Y0058547
X0019685Y0060071
X0020828Y0051943
X0021463Y0050165
X0024003Y0045466
X0014224Y0039878
X0020447Y0072517
X0025654
X0029464Y0065532
X003175Y0061722
T02
X0013716Y0019685
X0016256
X0018796
X0021336
X0020701Y0027305
X0018161
X0015621
X0013081
Y0034925
X0015621
X0018161
X0020701
T03
X0014399Y0065852
Y0068852
X0017399
Y0065852
X0020399
Y0068852
T04
X0004318Y0011176
Y0013716
Y0016256
X0030734
Y0013716
Y0011176
T05
X0004Y0004
X0031
Y0072
X0004
T06
X0017399Y0073152
M30
